<?xml version="1.0" encoding="utf-8"?>
<!-- Generator: Adobe Illustrator 16.0.0, SVG Export Plug-In . SVG Version: 6.00 Build 0)  -->
<!DOCTYPE svg PUBLIC "-//W3C//DTD SVG 1.1//EN" "http://www.w3.org/Graphics/SVG/1.1/DTD/svg11.dtd">
<svg version="1.1" id="Layer_1" xmlns="http://www.w3.org/2000/svg" xmlns:xlink="http://www.w3.org/1999/xlink" x="0px" y="0px"
	 width="1440px" height="62.641px" viewBox="0 0 1440 62.641" enable-background="new 0 0 1440 62.641" xml:space="preserve">
<g id="_x31_5">
	<g>
		<path d="M265.421,42.84c0,2.729,1.364,2.914,4.836,3.41v2.604h-20.893V46.25c2.294-0.188,3.286-0.372,3.286-2.23v-21.7
			l-3.286-2.106V18.29l13.825-3.722h2.48l-0.248,9.674c2.356-7.439,4.65-9.674,8.618-9.674c1.55,0,2.604,0.437,3.286,1.056v9.483
			h-1.612c-3.968,0-7.625,0.124-10.292,1.734V42.84z"/>
		<path d="M308.758,42.034c0,1.237,0.124,2.542,1.55,2.542c0.806,0,1.612-0.188,1.922-0.312l0.434,1.858
			c-2.17,1.981-4.897,3.35-8.617,3.35c-3.782,0-6.51-1.859-7.626-5.146c-1.736,2.665-4.587,4.896-9.175,4.896
			c-5.332,0-9.113-2.914-9.113-8.434c0-5.456,3.72-7.688,8.06-9.176l10.043-3.474v-6.817c0-2.479-0.62-4.154-2.666-4.154
			c-2.17,0-2.976,1.922-2.976,4.772c0,1.486,0.248,3.038,0.62,4.59l-7.688,0.989c-1.86-0.619-3.224-2.17-3.224-4.523
			c0-5.892,6.076-8.434,13.826-8.434c9.051,0,14.631,2.666,14.631,11.035L308.758,42.034L308.758,42.034z M296.235,42.468V30.999
			l-2.479,0.932c-1.984,0.742-3.348,1.733-3.348,5.396c0,3.1,1.054,5.456,4.03,5.456C295.119,42.778,295.615,42.655,296.235,42.468z
			"/>
		<path d="M339.573,21.823c0.31-0.868,0.496-1.304,0.496-1.86c0-1.302-0.744-1.733-4.03-2.17v-2.604h11.593v2.604
			c-2.108,0.685-2.604,1.116-3.162,2.479L330.087,54c-2.418,5.644-4.836,8.618-9.3,8.618c-2.542,0-4.401-0.992-5.332-2.479v-5.021
			c1.674,0.31,3.1,0.618,5.084,0.618c3.534,0,5.208-0.99,6.261-3.225l0.93-1.983l-14.506-30.256
			c-0.62-1.362-1.054-1.798-3.162-2.479v-2.604h21.203v2.604c-3.286,0.437-4.03,0.868-4.03,2.17c0,0.561,0.186,0.992,0.434,1.736
			l6.076,14.631L339.573,21.823z"/>
		<path d="M359.414,32.61c0-10.354,7.378-18.041,17.979-18.041c10.604,0,17.979,6.512,17.979,16.863
			c0,10.354-7.377,18.041-17.979,18.041C366.792,49.474,359.414,42.964,359.414,32.61z M381.794,34.408
			c0-10.604-1.178-17.111-4.712-17.111c-3.286,0-4.091,4.588-4.091,12.338c0,10.604,1.178,17.111,4.711,17.111
			C380.988,46.746,381.794,42.158,381.794,34.408z"/>
		<path d="M414.097,42.84c0,2.729,1.364,2.914,4.836,3.41v2.604H398.04V46.25c2.294-0.188,3.286-0.372,3.286-2.23V18.724h-4.402
			v-2.79l4.402-1.056v-0.496c0-9.855,7.005-14.071,15.375-14.071c7.129,0,10.292,2.418,10.292,6.388
			c0,1.798-0.992,3.348-2.418,4.027h-6.386c0.186-0.868,0.31-1.923,0.31-3.038c0-2.17-0.187-4.34-2.046-4.34
			c-1.736,0-2.356,1.362-2.356,3.721v8.121h7.068v3.534h-7.068V42.84L414.097,42.84z"/>
		<path d="M457.62,44.018c0,1.858,0.992,2.046,3.286,2.23v2.604h-19.344V46.25c2.295-0.188,3.285-0.372,3.285-2.23V6.882
			l-3.285-1.674V3.101l13.888-2.79h2.17V44.018L457.62,44.018z"/>
		<path d="M479.319,44.018c0,1.858,0.99,2.046,3.286,2.23v2.604h-19.345V46.25c2.294-0.188,3.286-0.372,3.286-2.23v-21.7
			l-3.286-2.106V18.29l13.825-3.722h2.232L479.319,44.018L479.319,44.018z M466.548,6.137c0-3.284,2.417-6.139,6.571-6.139
			c4.092,0,6.572,2.854,6.572,6.139c0,3.285-2.48,6.139-6.572,6.139C468.966,12.275,466.548,9.424,466.548,6.137z"/>
		<path d="M492.835,36.206c-0.806,0.744-1.55,1.55-1.55,2.729c0,0.932,0.62,1.674,1.674,1.674h13.825
			c8.928,0,12.397,3.846,12.397,9.549c0,8.12-7.625,12.521-19.279,12.521c-10.167,0-16.491-2.604-16.491-7.503
			c0-3.035,3.1-4.34,5.704-4.587c-2.666-1.055-4.216-3.78-4.216-6.446c0-4.218,2.852-6.884,6.198-8.617
			c-3.472-1.61-6.014-4.4-6.014-8.987c0-7.562,6.51-11.968,15.499-11.968c2.542,0,4.402,0.372,6.014,0.808l11.348-0.247v4.463
			h-2.914l-3.534-0.124c2.294,1.553,3.782,3.906,3.782,7.008c0,6.941-6.634,10.786-15.251,10.786
			C497.671,37.26,495.129,36.95,492.835,36.206z M490.541,52.201c-0.248,0.312-0.311,0.99-0.311,1.674
			c0,3.598,4.029,5.644,9.856,5.644c5.396,0,10.415-1.18,10.415-4.959c0-1.61-0.992-2.354-2.976-2.354L490.541,52.201
			L490.541,52.201z M503.623,26.163c0-4.588-1.054-8.806-3.596-8.806c-2.48,0-3.162,2.914-3.162,8.186
			c0,4.896,1.115,9.052,3.596,9.052C503.002,34.594,503.623,31.742,503.623,26.163z"/>
		<path d="M523.401,6.882l-3.286-1.674V3.101l13.887-2.79h2.17v20.521c2.232-2.914,5.766-6.264,11.593-6.264
			c6.016,0,9.61,3.35,9.61,10.169v19.279c0,1.858,0.992,2.046,3.286,2.23v2.604h-19.157V46.25c2.293-0.188,3.1-0.372,3.1-2.23
			V25.853c0-2.294-0.742-3.846-3.844-3.846c-1.736,0-3.162,0.312-4.588,0.809v21.202c0,1.858,0.807,2.046,3.1,2.23v2.604h-19.155
			V46.25c2.294-0.188,3.286-0.372,3.286-2.23L523.401,6.882L523.401,6.882z"/>
		<path d="M577.773,15.189h6.882v3.534h-6.882v20.521c0,2.666,1.055,3.844,3.159,3.844c1.488,0,2.914-0.558,4.343-1.55l0.989,1.55
			c-2.479,4.153-6.138,6.388-11.345,6.388c-5.952,0-10.104-2.978-10.104-10.416V18.724h-3.351V16.43
			c5.271-1.86,10.105-5.52,13.577-9.855h2.729v8.614H577.773z"/>
		<path d="M599.289,32.61c0-10.354,7.378-18.041,17.979-18.041c10.604,0,17.979,6.512,17.979,16.863
			c0,10.354-7.377,18.041-17.979,18.041C606.667,49.474,599.289,42.964,599.289,32.61z M621.669,34.408
			c0-10.604-1.178-17.111-4.712-17.111c-3.286,0-4.091,4.588-4.091,12.338c0,10.604,1.178,17.111,4.711,17.111
			C620.863,46.746,621.669,42.158,621.669,34.408z"/>
		<path d="M653.971,42.84c0,2.729,1.364,2.914,4.836,3.41v2.604h-20.893V46.25c2.294-0.188,3.286-0.372,3.286-2.23V18.724h-4.402
			v-2.79l4.402-1.056v-0.496c0-9.855,7.005-14.071,15.375-14.071c7.129,0,10.292,2.418,10.292,6.388
			c0,1.798-0.992,3.348-2.418,4.027h-6.387c0.187-0.868,0.311-1.923,0.311-3.038c0-2.17-0.186-4.34-2.046-4.34
			c-1.736,0-2.356,1.362-2.356,3.721v8.121h7.068v3.534h-7.068V42.84L653.971,42.84z"/>
		<path d="M696.254,5.208V3.101l13.887-2.79h2.17v41.165c0,2.106,0.188,3.161,1.984,3.161h1.426v2.729l-13.945,2.106h-2.422
			l0.188-5.892c-2.542,3.968-5.952,5.892-10.104,5.892c-7.188,0-12.521-5.52-12.521-15.936c0-12.273,7.502-18.66,16.739-18.66
			c2.418,0,4.522,0.56,5.89,1.675V6.882L696.254,5.208z M689.807,29.82c0,7.627,2.604,12.712,7.008,12.712
			c0.865,0,1.799-0.124,2.729-0.438V24.49c0-3.782-0.744-5.768-3.72-5.768C691.729,18.724,689.807,23.125,689.807,29.82z"/>
		<path d="M748.023,42.034c0,1.237,0.125,2.542,1.551,2.542c0.805,0,1.609-0.188,1.922-0.312l0.434,1.858
			c-2.17,1.981-4.895,3.35-8.617,3.35c-3.778,0-6.51-1.859-7.627-5.146c-1.731,2.665-4.586,4.896-9.174,4.896
			c-5.332,0-9.11-2.914-9.11-8.434c0-5.456,3.719-7.688,8.058-9.176l10.043-3.474v-6.817c0-2.479-0.619-4.154-2.666-4.154
			c-2.17,0-2.975,1.922-2.975,4.772c0,1.486,0.248,3.038,0.617,4.59l-7.688,0.989c-1.859-0.619-3.223-2.17-3.223-4.523
			c0-5.892,6.075-8.434,13.825-8.434c9.053,0,14.633,2.666,14.633,11.035L748.023,42.034L748.023,42.034z M735.5,42.468V30.999
			l-2.479,0.932c-1.984,0.742-3.351,1.733-3.351,5.396c0,3.1,1.056,5.456,4.031,5.456C734.384,42.778,734.88,42.655,735.5,42.468z"
			/>
		<path d="M778.835,21.823c0.312-0.868,0.496-1.304,0.496-1.86c0-1.302-0.744-1.733-4.029-2.17v-2.604h11.593v2.604
			c-2.105,0.685-2.604,1.116-3.16,2.479L769.349,54c-2.418,5.644-4.836,8.618-9.299,8.618c-2.543,0-4.399-0.992-5.332-2.479v-5.021
			c1.675,0.31,3.103,0.618,5.084,0.618c3.533,0,5.207-0.99,6.261-3.225l0.932-1.983l-14.506-30.254
			c-0.621-1.362-1.058-1.798-3.162-2.479V15.19h21.203v2.604c-3.287,0.437-4.031,0.868-4.031,2.17c0,0.561,0.186,0.992,0.434,1.736
			l6.076,14.631L778.835,21.823z"/>
		<path d="M798.677,32.61c0-10.354,7.377-18.041,17.979-18.041c10.602,0,17.979,6.512,17.979,16.863
			c0,10.354-7.377,18.041-17.979,18.041C806.054,49.474,798.677,42.964,798.677,32.61z M821.058,34.408
			c0-10.604-1.178-17.111-4.713-17.111c-3.284,0-4.09,4.588-4.09,12.338c0,10.604,1.178,17.111,4.711,17.111
			C820.251,46.746,821.058,42.158,821.058,34.408z"/>
		<path d="M853.361,42.84c0,2.729,1.36,2.914,4.836,3.41v2.604H837.3V46.25c2.295-0.188,3.287-0.372,3.287-2.23V18.724h-4.401v-2.79
			l4.401-1.056v-0.496c0-9.855,7.004-14.071,15.375-14.071c7.129,0,10.291,2.418,10.291,6.388c0,1.798-0.992,3.348-2.418,4.027
			h-6.385c0.186-0.868,0.309-1.923,0.309-3.038c0-2.17-0.186-4.34-2.045-4.34c-1.733,0-2.354,1.362-2.354,3.721v8.121h7.063v3.534
			h-7.063L853.361,42.84L853.361,42.84z"/>
		<path d="M892.482,42.84c0,2.729,1.36,2.914,4.836,3.41v2.604h-20.896V46.25c2.293-0.188,3.285-0.372,3.285-2.23v-21.7
			l-3.285-2.106V18.29l13.824-3.722h2.479l-0.247,9.674c2.354-7.439,4.647-9.674,8.616-9.674c1.554,0,2.605,0.437,3.285,1.056v9.483
			h-1.611c-3.967,0-7.625,0.124-10.291,1.734V42.84H892.482z"/>
		<path d="M937.121,28.457v1.55h-19.652c0,6.819,3.844,11.159,9.299,11.159c3.906,0,6.886-1.302,9.238-4.34l1.301,0.806
			c-1.731,7.192-6.633,11.844-14.754,11.844c-9.238,0-16.615-5.892-16.615-16.739c0-11.222,7.996-18.164,17.177-18.164
			C932.41,14.569,937.121,20.335,937.121,28.457z M917.529,26.969h8.742c0-6.138-0.992-9.672-3.968-9.672
			C919.203,17.297,917.777,21.141,917.529,26.969z"/>
		<path d="M960.742,40.979c3.535,0,6.139-1.113,8.061-3.846l1.488,0.933c-2.047,7.997-7.316,11.407-14.508,11.407
			c-8.805,0-15.687-6.14-15.687-16.432c0-10.603,6.943-18.477,17.482-18.477c6.324,0,11.776,2.354,11.776,8.122
			c0,2.541-1.483,4.094-2.909,4.711h-6.394c0.189-1.485,0.248-2.665,0.248-3.721c0-3.721-0.992-6.139-3.719-6.139
			c-3.473,0-5.457,4.648-5.457,10.852C951.132,36.206,954.605,40.979,960.742,40.979z"/>
		<path d="M975.312,6.882l-3.285-1.674V3.101l13.887-2.79h2.17v43.707c0,1.858,0.992,2.046,3.287,2.23v2.604h-19.344V46.25
			c2.295-0.188,3.285-0.372,3.285-2.23V6.882z M997.88,22.815c1.734-1.551,2.107-2.354,2.107-3.162c0-1.114-0.812-1.55-3.658-1.858
			V15.19h14.442v2.604c-2.051,0.248-3.53,0.561-5.205,2.23l-6.571,6.323l12.957,20.706v1.799h-13.142l-10.354-17.545L997.88,22.815z
			"/>
		<path d="M1012.263,32.61c0-10.354,7.377-18.041,17.979-18.041c10.602,0,17.979,6.512,17.979,16.863
			c0,10.354-7.379,18.041-17.979,18.041C1019.641,49.473,1012.263,42.964,1012.263,32.61z M1034.645,34.408
			c0-10.604-1.179-17.111-4.712-17.111c-3.286,0-4.092,4.588-4.092,12.338c0,10.604,1.179,17.111,4.711,17.111
			C1033.837,46.746,1034.645,42.158,1034.645,34.408z"/>
		<path d="M1075.316,25.853c0-2.294-0.744-3.846-3.845-3.846c-1.735,0-3.161,0.312-4.588,0.809v21.202
			c0,1.858,0.806,2.046,3.101,2.23v2.604h-19.156V46.25c2.293-0.188,3.285-0.372,3.285-2.23v-21.7l-3.285-2.106V18.29l13.824-3.722
			h2.479l-0.248,6.264c2.232-2.914,5.767-6.264,11.595-6.264c6.014,0,9.608,3.35,9.608,10.169v19.279
			c0,1.858,0.992,2.046,3.285,2.23v2.604h-19.156V46.25c2.293-0.188,3.101-0.372,3.101-2.23V25.853L1075.316,25.853z"/>
		<path d="M1109.291,44.018c0,1.858,0.992,2.046,3.287,2.23v2.604h-19.344V46.25c2.295-0.188,3.285-0.372,3.285-2.23v-21.7
			l-3.285-2.106V18.29l13.826-3.722h2.229L1109.291,44.018L1109.291,44.018z M1096.52,6.137c0-3.284,2.418-6.139,6.571-6.139
			c4.093,0,6.572,2.854,6.572,6.139c0,3.285-2.479,6.139-6.572,6.139C1098.938,12.275,1096.52,9.424,1096.52,6.137z"/>
		<path d="M1139.421,25.853c0-2.294-0.744-3.846-3.844-3.846c-1.736,0-3.162,0.312-4.588,0.809v21.202c0,1.858,0.807,2.046,3.1,2.23
			v2.604h-19.156V46.25c2.296-0.188,3.285-0.372,3.285-2.23v-21.7l-3.285-2.106V18.29l13.826-3.722h2.479l-0.248,6.264
			c2.231-2.914,5.766-6.264,11.594-6.264c6.014,0,9.609,3.35,9.609,10.169v19.279c0,1.858,0.991,2.046,3.285,2.23v2.604h-19.156
			V46.25c2.295-0.188,3.1-0.372,3.1-2.23L1139.421,25.853L1139.421,25.853z"/>
		<path d="M1165.214,36.206c-0.807,0.744-1.551,1.55-1.551,2.729c0,0.932,0.621,1.674,1.674,1.674h13.826
			c8.928,0,12.395,3.846,12.395,9.549c0,8.12-7.625,12.521-19.276,12.521c-10.166,0-16.49-2.604-16.49-7.503
			c0-3.035,3.1-4.34,5.703-4.587c-2.666-1.055-4.215-3.78-4.215-6.446c0-4.218,2.852-6.884,6.194-8.617
			c-3.473-1.61-6.014-4.4-6.014-8.987c0-7.562,6.51-11.968,15.5-11.968c2.541,0,4.4,0.372,6.014,0.808l11.349-0.247v4.463h-2.912
			l-3.535-0.124c2.295,1.553,3.783,3.906,3.783,7.008c0,6.941-6.64,10.786-15.252,10.786
			C1170.05,37.26,1167.507,36.95,1165.214,36.206z M1162.919,52.201c-0.248,0.312-0.309,0.99-0.309,1.674
			c0,3.598,4.022,5.644,9.854,5.644c5.396,0,10.414-1.18,10.414-4.959c0-1.61-0.992-2.354-2.975-2.354L1162.919,52.201
			L1162.919,52.201z M1176.001,26.163c0-4.588-1.055-8.806-3.596-8.806c-2.48,0-3.162,2.914-3.162,8.186
			c0,4.896,1.115,9.052,3.596,9.052C1175.382,34.594,1176.001,31.742,1176.001,26.163z"/>
	</g>
</g>
</svg>
