<?xml version="1.0" encoding="utf-8"?>
<!-- Generator: Adobe Illustrator 16.0.0, SVG Export Plug-In . SVG Version: 6.00 Build 0)  -->
<!DOCTYPE svg PUBLIC "-//W3C//DTD SVG 1.1//EN" "http://www.w3.org/Graphics/SVG/1.1/DTD/svg11.dtd">
<svg version="1.1" id="Layer_1" xmlns="http://www.w3.org/2000/svg" xmlns:xlink="http://www.w3.org/1999/xlink" x="0px" y="0px"
	 width="1440px" height="62.641px" viewBox="0 0 1440 62.641" enable-background="new 0 0 1440 62.641" xml:space="preserve">
<g id="_x31_2">
	<g>
		<path d="M97.17,46.312l-0.372-8.369h3.162c1.116,4.959,4.463,8.741,9.237,8.741c2.79,0,5.021-1.304,5.021-3.904
			c0-3.037-2.417-3.969-6.385-5.146c-7.191-2.108-11.097-5.208-11.097-11.718c0-7.378,5.58-11.348,13.329-11.348
			c4.278,0,8.246,1.116,10.912,2.854v7.438h-2.914c-0.62-3.904-3.41-7.502-7.688-7.502c-2.479,0-4.216,1.304-4.216,3.534
			c0,2.479,1.798,3.407,5.58,4.647c7.75,2.542,11.903,5.084,11.903,12.213c0,7.502-5.642,11.72-14.321,11.72
			C103.928,49.474,99.96,48.233,97.17,46.312z"/>
		<path d="M142.367,44.018c0,1.858,0.992,2.046,3.286,2.23v2.604H126.31V46.25c2.294-0.188,3.286-0.372,3.286-2.23V6.882
			l-3.286-1.674V3.101l13.887-2.79h2.17V44.018z"/>
		<path d="M179.07,28.457v1.55h-19.653c0,6.819,3.844,11.159,9.299,11.159c3.906,0,6.881-1.302,9.237-4.34l1.302,0.806
			c-1.735,7.192-6.633,11.843-14.755,11.843c-9.237,0-16.615-5.892-16.615-16.739c0-11.223,7.998-18.165,17.173-18.165
			C174.358,14.569,179.07,20.335,179.07,28.457z M159.479,26.969h8.741c0-6.138-0.992-9.672-3.968-9.672
			C161.153,17.297,159.727,21.141,159.479,26.969z"/>
		<path d="M197.607,44.018c0,1.858,0.992,2.046,3.286,2.23v2.604H181.55V46.25c2.294-0.188,3.286-0.372,3.286-2.23v-21.7
			l-3.286-2.106V18.29l13.825-3.722h2.232V44.018z M184.836,6.137c0-3.284,2.418-6.138,6.572-6.138c4.092,0,6.572,2.854,6.572,6.14
			c0,3.284-2.48,6.138-6.572,6.138C187.254,12.275,184.836,9.424,184.836,6.137z"/>
		<path d="M211.123,36.206c-0.806,0.744-1.55,1.55-1.55,2.729c0,0.932,0.62,1.674,1.674,1.674h13.825
			c8.928,0,12.399,3.846,12.399,9.549c0,8.12-7.625,12.521-19.281,12.521c-10.167,0-16.491-2.604-16.491-7.503
			c0-3.035,3.1-4.34,5.704-4.587c-2.666-1.055-4.216-3.78-4.216-6.446c0-4.218,2.852-6.884,6.2-8.617
			c-3.472-1.61-6.014-4.4-6.014-8.987c0-7.562,6.51-11.968,15.499-11.968c2.542,0,4.402,0.372,6.014,0.808l11.346-0.247v4.463
			h-2.914l-3.534-0.124c2.294,1.553,3.782,3.906,3.782,7.008c0,6.941-6.634,10.786-15.251,10.786
			C215.959,37.26,213.417,36.95,211.123,36.206z M208.829,52.201c-0.248,0.312-0.31,0.99-0.31,1.674c0,3.598,4.03,5.644,9.857,5.644
			c5.394,0,10.415-1.18,10.415-4.959c0-1.61-0.992-2.354-2.976-2.354L208.829,52.201L208.829,52.201z M221.911,26.163
			c0-4.588-1.054-8.806-3.596-8.806c-2.48,0-3.162,2.914-3.162,8.186c0,4.896,1.116,9.052,3.596,9.052
			C221.291,34.594,221.911,31.742,221.911,26.163z"/>
		<path d="M241.689,6.882l-3.286-1.674V3.101l13.887-2.79h2.17v20.521c2.232-2.914,5.766-6.264,11.593-6.264
			c6.014,0,9.61,3.35,9.61,10.169v19.279c0,1.858,0.992,2.046,3.286,2.23v2.604h-19.157V46.25c2.293-0.188,3.1-0.372,3.1-2.23
			V25.853c0-2.294-0.744-3.846-3.844-3.846c-1.736,0-3.162,0.312-4.588,0.809v21.202c0,1.858,0.806,2.046,3.1,2.23v2.604h-19.157
			V46.25c2.294-0.188,3.286-0.372,3.286-2.23V6.882L241.689,6.882z"/>
		<path d="M296.062,15.189h6.881v3.534h-6.881v20.521c0,2.666,1.054,3.844,3.162,3.844c1.488,0,2.914-0.558,4.34-1.55l0.992,1.55
			c-2.479,4.153-6.138,6.388-11.345,6.388c-5.952,0-10.105-2.978-10.105-10.416V18.724h-3.348V16.43
			c5.27-1.86,10.105-5.52,13.577-9.855h2.728L296.062,15.189L296.062,15.189z"/>
		<path d="M317.576,32.61c0-10.354,7.378-18.041,17.979-18.041c10.602,0,17.979,6.512,17.979,16.863
			c0,10.354-7.377,18.041-17.979,18.041C324.954,49.474,317.576,42.964,317.576,32.61z M339.957,34.408
			c0-10.604-1.178-17.111-4.712-17.111c-3.286,0-4.091,4.588-4.091,12.338c0,10.604,1.178,17.111,4.711,17.111
			C339.151,46.746,339.957,42.158,339.957,34.408z"/>
		<path d="M372.259,42.84c0,2.729,1.364,2.914,4.836,3.41v2.604h-20.893V46.25c2.294-0.188,3.286-0.372,3.286-2.23V18.724h-4.402
			v-2.79l4.402-1.056v-0.496c0-9.855,7.005-14.071,15.375-14.071c7.129,0,10.292,2.418,10.292,6.388
			c0,1.798-0.992,3.348-2.418,4.027h-6.388c0.188-0.868,0.312-1.923,0.312-3.038c0-2.17-0.188-4.34-2.046-4.34
			c-1.736,0-2.356,1.362-2.356,3.721v8.121h7.068v3.534h-7.068V42.84L372.259,42.84z"/>
		<path d="M403.012,6.882l-3.286-1.674V3.101l13.889-2.79h2.17v20.521c2.229-2.914,5.766-6.264,11.593-6.264
			c6.014,0,9.61,3.35,9.61,10.169v19.279c0,1.858,0.988,2.046,3.282,2.23v2.604h-19.153V46.25c2.293-0.188,3.1-0.372,3.1-2.23
			V25.853c0-2.294-0.744-3.846-3.844-3.846c-1.736,0-3.162,0.312-4.588,0.809v21.202c0,1.858,0.806,2.046,3.1,2.23v2.604h-19.157
			V46.25c2.292-0.188,3.286-0.372,3.286-2.23L403.012,6.882L403.012,6.882z"/>
		<path d="M472.202,42.034c0,1.237,0.124,2.542,1.55,2.542c0.806,0,1.612-0.188,1.922-0.312l0.438,1.858
			c-2.174,1.981-4.897,3.35-8.617,3.35c-3.782,0-6.511-1.859-7.626-5.146c-1.736,2.665-4.587,4.896-9.175,4.896
			c-5.332,0-9.113-2.914-9.113-8.434c0-5.456,3.72-7.688,8.06-9.176l10.043-3.474v-6.817c0-2.479-0.618-4.154-2.666-4.154
			c-2.17,0-2.976,1.922-2.976,4.772c0,1.486,0.248,3.038,0.62,4.59l-7.688,0.989c-1.856-0.619-3.224-2.17-3.224-4.523
			c0-5.892,6.076-8.434,13.826-8.434c9.051,0,14.631,2.666,14.631,11.035L472.202,42.034L472.202,42.034z M459.678,42.468V30.999
			l-2.479,0.932c-1.984,0.742-3.352,1.733-3.352,5.396c0,3.1,1.058,5.456,4.03,5.456C458.562,42.778,459.059,42.655,459.678,42.468z
			"/>
		<path d="M501.837,25.853c0-2.294-0.744-3.846-3.844-3.846c-1.736,0-3.162,0.312-4.588,0.809v21.202c0,1.858,0.806,2.046,3.1,2.23
			v2.604h-19.157V46.25c2.294-0.188,3.286-0.372,3.286-2.23v-21.7l-3.286-2.106V18.29l13.825-3.722h2.48l-0.248,6.264
			c2.229-2.914,5.766-6.264,11.593-6.264c6.014,0,9.61,3.35,9.61,10.169v19.279c0,1.858,0.988,2.046,3.282,2.23v2.604h-19.153V46.25
			c2.293-0.188,3.1-0.372,3.1-2.23V25.853z"/>
		<path d="M539.285,5.208V3.101l13.887-2.79h2.17v41.165c0,2.106,0.188,3.161,1.984,3.161h1.426v2.729l-13.949,2.106h-2.418
			l0.188-5.892c-2.542,3.968-5.952,5.892-10.105,5.892c-7.188,0-12.521-5.52-12.521-15.936c0-12.273,7.502-18.66,16.735-18.66
			c2.418,0,4.526,0.56,5.894,1.675V6.882L539.285,5.208z M532.837,29.82c0,7.627,2.604,12.712,7.005,12.712
			c0.868,0,1.798-0.124,2.729-0.438V24.49c0-3.782-0.744-5.768-3.724-5.768C534.759,18.724,532.837,23.125,532.837,29.82z"/>
		<path d="M572.64,32.61c0-10.354,7.378-18.041,17.979-18.041c10.601,0,17.979,6.512,17.979,16.863
			c0,10.354-7.377,18.041-17.979,18.041C580.018,49.474,572.64,42.964,572.64,32.61z M595.021,34.408
			c0-10.604-1.182-17.111-4.716-17.111c-3.282,0-4.091,4.588-4.091,12.338c0,10.604,1.18,17.111,4.711,17.111
			C594.215,46.746,595.021,42.158,595.021,34.408z"/>
		<path d="M627.323,42.84c0,2.729,1.364,2.914,4.836,3.41v2.604h-20.896V46.25c2.294-0.188,3.286-0.372,3.286-2.23V18.724h-4.398
			v-2.79l4.398-1.056v-0.496c0-9.855,7.005-14.071,15.375-14.071c7.129,0,10.292,2.418,10.292,6.388
			c0,1.798-0.992,3.348-2.418,4.027h-6.386c0.186-0.868,0.31-1.923,0.31-3.038c0-2.17-0.186-4.34-2.046-4.34
			c-1.732,0-2.354,1.362-2.354,3.721v8.121h7.064v3.534h-7.064L627.323,42.84L627.323,42.84z"/>
		<path d="M671.157,42.84c0,2.729,1.364,2.914,4.836,3.41v2.604H655.1V46.25c2.295-0.188,3.286-0.372,3.286-2.23V18.724h-4.398
			v-2.79l4.398-1.056v-0.496c0-9.855,7.005-14.071,15.375-14.071c7.129,0,10.292,2.418,10.292,6.388
			c0,1.798-0.992,3.348-2.418,4.027h-6.386c0.186-0.868,0.31-1.923,0.31-3.038c0-2.17-0.186-4.34-2.046-4.34
			c-1.732,0-2.354,1.362-2.354,3.721v8.121h7.064v3.534h-7.064L671.157,42.84L671.157,42.84z"/>
		<path d="M709.41,42.034c0,1.237,0.125,2.542,1.551,2.542c0.805,0,1.611-0.188,1.922-0.312l0.438,1.858
			c-2.172,1.981-4.898,3.35-8.617,3.35c-3.783,0-6.511-1.859-7.626-5.146c-1.736,2.665-4.587,4.896-9.175,4.896
			c-5.332,0-9.113-2.914-9.113-8.434c0-5.456,3.72-7.688,8.061-9.176l10.043-3.474v-6.817c0-2.479-0.617-4.154-2.666-4.154
			c-2.17,0-2.977,1.922-2.977,4.772c0,1.486,0.248,3.038,0.62,4.59l-7.688,0.989c-1.856-0.619-3.224-2.17-3.224-4.523
			c0-5.892,6.076-8.434,13.826-8.434c9.051,0,14.631,2.666,14.631,11.035v16.434L709.41,42.034L709.41,42.034z M696.886,42.468
			V30.999l-2.479,0.932c-1.984,0.742-3.352,1.733-3.352,5.396c0,3.1,1.058,5.456,4.03,5.456
			C695.771,42.778,696.268,42.655,696.886,42.468z"/>
		<path d="M729.808,15.189h6.886v3.534h-6.886v20.521c0,2.666,1.058,3.844,3.162,3.844c1.488,0,2.914-0.558,4.341-1.55l0.991,1.55
			c-2.479,4.153-6.139,6.388-11.346,6.388c-5.953,0-10.107-2.978-10.107-10.416V18.724h-3.348V16.43
			c5.271-1.86,10.104-5.52,13.58-9.855h2.727V15.189L729.808,15.189z"/>
		<path d="M770.417,28.457v1.55h-19.654c0,6.819,3.847,11.159,9.302,11.159c3.903,0,6.883-1.302,9.237-4.34l1.304,0.806
			c-1.736,7.192-6.636,11.844-14.757,11.844c-9.235,0-16.612-5.892-16.612-16.739c0-11.222,7.996-18.164,17.174-18.164
			C765.707,14.569,770.417,20.335,770.417,28.457z M750.828,26.969h8.742c0-6.138-0.992-9.672-3.972-9.672
			C752.501,17.297,751.076,21.141,750.828,26.969z"/>
		<path d="M784.554,32.61c0-10.354,7.377-18.041,17.979-18.041c10.602,0,17.979,6.512,17.979,16.863
			c0,10.354-7.379,18.041-17.979,18.041C791.932,49.473,784.554,42.964,784.554,32.61z M806.936,34.408
			c0-10.604-1.179-17.111-4.712-17.111c-3.286,0-4.092,4.588-4.092,12.338c0,10.604,1.179,17.111,4.711,17.111
			C806.128,46.746,806.936,42.158,806.936,34.408z"/>
		<path d="M839.238,42.84c0,2.729,1.362,2.914,4.834,3.41v2.604h-20.894V46.25c2.295-0.188,3.287-0.372,3.287-2.23V18.724h-4.401
			v-2.79l4.401-1.056v-0.496c0-9.855,7.006-14.071,15.375-14.071c7.129,0,10.291,2.418,10.291,6.388
			c0,1.798-0.992,3.348-2.418,4.027h-6.385c0.186-0.868,0.309-1.923,0.309-3.038c0-2.17-0.186-4.34-2.045-4.34
			c-1.735,0-2.354,1.362-2.354,3.721v8.121h7.065v3.534h-7.065V42.84z"/>
		<path d="M906.257,25.667c0-2.294-0.744-3.72-3.348-3.72c-1.613,0-2.855,0.434-4.217,0.93v21.143c0,1.858,0.559,2.046,2.852,2.23
			v2.604H883.07V46.25c2.295-0.188,2.852-0.372,2.852-2.23V25.667c0-2.294-0.744-3.72-3.348-3.72c-1.611,0-2.853,0.37-4.215,0.866
			v21.202c0,1.858,0.557,2.046,2.852,2.23v2.604h-18.908V46.25c2.293-0.188,3.285-0.372,3.285-2.23v-21.7l-3.285-2.106V18.29
			l13.824-3.722h2.48l-0.248,6.388c2.17-3.41,5.641-6.388,11.282-6.388c4.836,0,7.998,1.859,8.804,6.512
			c2.108-3.35,5.953-6.512,11.407-6.512c5.767,0,9.177,3.286,9.177,9.731v19.717c0,1.858,0.992,2.046,3.285,2.23v2.604h-18.908
			V46.25c2.293-0.188,2.852-0.372,2.852-2.23L906.257,25.667L906.257,25.667z"/>
		<path d="M954.246,42.034c0,1.237,0.123,2.542,1.549,2.542c0.807,0,1.611-0.188,1.922-0.312l0.439,1.858
			c-2.17,1.981-4.896,3.35-8.617,3.35c-3.781,0-6.51-1.859-7.625-5.146c-1.736,2.665-4.588,4.896-9.176,4.896
			c-5.332,0-9.113-2.914-9.113-8.434c0-5.456,3.719-7.688,8.059-9.176l10.045-3.474v-6.817c0-2.479-0.62-4.154-2.666-4.154
			c-2.17,0-2.977,1.922-2.977,4.772c0,1.486,0.248,3.038,0.621,4.59l-7.689,0.989c-1.858-0.619-3.223-2.17-3.223-4.523
			c0-5.892,6.076-8.434,13.824-8.434c9.053,0,14.633,2.666,14.633,11.035v16.434L954.246,42.034L954.246,42.034z M941.722,42.468
			V30.999l-2.479,0.932c-1.984,0.742-3.348,1.733-3.348,5.396c0,3.1,1.053,5.456,4.028,5.456
			C940.605,42.778,941.102,42.655,941.722,42.468z"/>
		<path d="M983.88,25.853c0-2.294-0.744-3.846-3.844-3.846c-1.736,0-3.162,0.312-4.588,0.809v21.202c0,1.858,0.807,2.046,3.1,2.23
			v2.604h-19.156V46.25c2.296-0.188,3.285-0.372,3.285-2.23v-21.7l-3.285-2.106V18.29l13.826-3.722h2.479l-0.248,6.264
			c2.231-2.914,5.766-6.264,11.594-6.264c6.014,0,9.609,3.35,9.609,10.169v19.279c0,1.858,0.992,2.046,3.285,2.23v2.604h-19.156
			V46.25c2.295-0.188,3.1-0.372,3.1-2.23L983.88,25.853L983.88,25.853z"/>
		<path d="M1013.455,32.61c0-10.354,7.377-18.041,17.979-18.041c10.605,0,17.98,6.512,17.98,16.863
			c0,10.354-7.379,18.041-17.98,18.041C1020.833,49.473,1013.455,42.964,1013.455,32.61z M1035.835,34.408
			c0-10.604-1.178-17.111-4.711-17.111c-3.287,0-4.092,4.588-4.092,12.338c0,10.604,1.178,17.111,4.711,17.111
			C1035.029,46.746,1035.835,42.158,1035.835,34.408z"/>
		<path d="M1068.138,42.84c0,2.729,1.363,2.914,4.834,3.41v2.604h-20.893V46.25c2.295-0.188,3.287-0.372,3.287-2.23V18.724h-4.402
			v-2.79l4.402-1.056v-0.496c0-9.855,7.006-14.071,15.375-14.071c7.129,0,10.291,2.418,10.291,6.388
			c0,1.798-0.992,3.348-2.418,4.027h-6.388c0.188-0.868,0.312-1.923,0.312-3.038c0-2.17-0.188-4.34-2.045-4.34
			c-1.736,0-2.355,1.362-2.355,3.721v8.121h7.066v3.534h-7.066V42.84L1068.138,42.84z"/>
		<path d="M1135.156,25.667c0-2.294-0.744-3.72-3.349-3.72c-1.61,0-2.852,0.434-4.215,0.93v21.143c0,1.858,0.558,2.046,2.853,2.23
			v2.604h-18.476V46.25c2.293-0.188,2.853-0.372,2.853-2.23V25.667c0-2.294-0.744-3.72-3.348-3.72c-1.613,0-2.853,0.37-4.218,0.866
			v21.202c0,1.858,0.56,2.046,2.853,2.23v2.604h-18.908V46.25c2.295-0.188,3.285-0.372,3.285-2.23v-21.7l-3.285-2.106V18.29
			l13.826-3.722h2.479l-0.248,6.388c2.17-3.41,5.646-6.388,11.283-6.388c4.836,0,7.998,1.859,8.805,6.512
			c2.107-3.35,5.951-6.512,11.406-6.512c5.769,0,9.176,3.286,9.176,9.731v19.717c0,1.858,0.992,2.046,3.287,2.23v2.604h-18.91V46.25
			c2.298-0.188,2.855-0.372,2.855-2.23V25.667H1135.156z"/>
		<path d="M1179.982,21.823c0.311-0.868,0.496-1.304,0.496-1.86c0-1.302-0.744-1.733-4.029-2.17v-2.604h11.594v2.604
			c-2.109,0.685-2.604,1.116-3.162,2.479L1170.498,54c-2.418,5.644-4.836,8.618-9.301,8.618c-2.541,0-4.4-0.992-5.33-2.479v-5.021
			c1.674,0.31,3.1,0.618,5.082,0.618c3.535,0,5.209-0.99,6.262-3.225l0.93-1.983l-14.506-30.254
			c-0.621-1.362-1.055-1.798-3.162-2.479V15.19h21.203v2.604c-3.287,0.437-4.029,0.868-4.029,2.17c0,0.561,0.189,0.992,0.439,1.736
			l6.074,14.631L1179.982,21.823z"/>
		<path d="M1188.974,46.312l-0.373-8.369h3.162c1.115,4.959,4.465,8.741,9.238,8.741c2.789,0,5.021-1.304,5.021-3.904
			c0-3.037-2.418-3.969-6.388-5.146c-7.188-2.105-11.096-5.207-11.096-11.717c0-7.378,5.578-11.348,13.328-11.348
			c4.272,0,8.246,1.116,10.912,2.854v7.438h-2.914c-0.621-3.904-3.41-7.502-7.689-7.502c-2.479,0-4.217,1.304-4.217,3.534
			c0,2.479,1.799,3.407,5.58,4.647c7.75,2.542,11.904,5.084,11.904,12.213c0,7.502-5.646,11.72-14.322,11.72
			C1195.732,49.474,1191.763,48.233,1188.974,46.312z"/>
		<path d="M1233.613,15.189h6.883v3.534h-6.883v20.521c0,2.666,1.055,3.844,3.162,3.844c1.487,0,2.914-0.558,4.34-1.55l0.992,1.55
			c-2.48,4.153-6.14,6.388-11.347,6.388c-5.951,0-10.104-2.978-10.104-10.416V18.724h-3.349V16.43
			c5.271-1.86,10.105-5.52,13.578-9.855h2.728V15.189z"/>
		<path d="M1274.224,28.457v1.55h-19.651c0,6.819,3.844,11.159,9.299,11.159c3.906,0,6.881-1.302,9.238-4.34l1.301,0.806
			c-1.736,7.192-6.633,11.844-14.754,11.844c-9.238,0-16.615-5.892-16.615-16.739c0-11.222,7.996-18.164,17.172-18.164
			C1269.513,14.569,1274.224,20.335,1274.224,28.457z M1254.632,26.969h8.742c0-6.138-0.992-9.672-3.967-9.672
			C1256.306,17.297,1254.88,21.141,1254.632,26.969z"/>
		<path d="M1292.761,42.84c0,2.729,1.365,2.914,4.836,3.41v2.604h-20.893V46.25c2.295-0.188,3.285-0.372,3.285-2.23v-21.7
			l-3.285-2.106V18.29l13.826-3.722h2.479l-0.248,9.674c2.357-7.439,4.65-9.674,8.617-9.674c1.551,0,2.605,0.437,3.287,1.056v9.483
			h-1.611c-3.969,0-7.627,0.124-10.293,1.734V42.84L1292.761,42.84z"/>
		<path d="M1334.796,21.823c0.312-0.868,0.496-1.304,0.496-1.86c0-1.302-0.744-1.733-4.029-2.17v-2.604h11.595v2.604
			c-2.109,0.685-2.604,1.116-3.162,2.479L1325.312,54c-2.418,5.644-4.836,8.618-9.301,8.618c-2.541,0-4.399-0.992-5.33-2.479v-5.021
			c1.674,0.31,3.101,0.618,5.082,0.618c3.535,0,5.209-0.99,6.263-3.225l0.93-1.983l-14.506-30.254
			c-0.621-1.362-1.056-1.798-3.162-2.479V15.19h21.203v2.604c-3.287,0.437-4.029,0.868-4.029,2.17c0,0.561,0.186,0.992,0.434,1.736
			l6.074,14.631L1334.796,21.823z"/>
	</g>
</g>
</svg>
