<?xml version="1.0" encoding="utf-8"?>
<!-- Generator: Adobe Illustrator 16.0.0, SVG Export Plug-In . SVG Version: 6.00 Build 0)  -->
<!DOCTYPE svg PUBLIC "-//W3C//DTD SVG 1.1//EN" "http://www.w3.org/Graphics/SVG/1.1/DTD/svg11.dtd">
<svg version="1.1" id="Layer_1" xmlns="http://www.w3.org/2000/svg" xmlns:xlink="http://www.w3.org/1999/xlink" x="0px" y="0px"
	 width="1440px" height="62.641px" viewBox="0 0 1440 62.641" enable-background="new 0 0 1440 62.641" xml:space="preserve">
<g id="_x31_8">
	<g>
		<path d="M262.216,22.319l-3.286-2.106V18.29l13.825-3.722h2.479l-0.248,6.14c1.612-2.729,5.022-6.14,10.416-6.14
			c7.192,0,12.585,4.896,12.585,15.312c0,13.021-7.874,19.593-17.979,19.593c-2.232,0-4.092-0.372-5.022-1.056v8.433
			c0,2.17,1.116,2.23,4.588,2.542v2.604H258.93v-2.604c2.293-0.188,3.286-0.372,3.286-2.229V22.319z M284.968,33.54
			c0-8.434-2.976-11.531-7.129-11.531c-0.992,0-1.86,0.124-2.852,0.561v17.547c0,3.655,0.744,6.197,3.782,6.197
			C282.922,46.312,284.968,40.732,284.968,33.54z"/>
		<path d="M301.089,32.61c0-10.354,7.378-18.041,17.979-18.041c10.602,0,17.979,6.512,17.979,16.863
			c0,10.354-7.377,18.041-17.979,18.041C308.467,49.474,301.089,42.964,301.089,32.61z M323.47,34.408
			c0-10.604-1.178-17.111-4.712-17.111c-3.286,0-4.091,4.588-4.091,12.338c0,10.604,1.178,17.111,4.711,17.111
			C322.664,46.746,323.47,42.158,323.47,34.408z"/>
		<path d="M355.709,42.84c0,2.729,1.364,2.914,4.836,3.41v2.604h-20.893V46.25c2.294-0.188,3.286-0.372,3.286-2.23v-21.7
			l-3.286-2.106V18.29l13.825-3.722h2.48l-0.248,9.674c2.356-7.439,4.65-9.674,8.618-9.674c1.55,0,2.604,0.437,3.286,1.056v9.483
			h-1.612c-3.968,0-7.625,0.124-10.292,1.734V42.84L355.709,42.84z"/>
		<path d="M384.54,15.189h6.881v3.534h-6.881v20.521c0,2.666,1.054,3.844,3.162,3.844c1.488,0,2.914-0.558,4.34-1.55l0.992,1.55
			c-2.479,4.153-6.138,6.388-11.345,6.388c-5.952,0-10.105-2.978-10.105-10.416V18.724h-3.348V16.43
			c5.27-1.86,10.104-5.52,13.576-9.855h2.729L384.54,15.189L384.54,15.189z"/>
		<path d="M406.053,32.61c0-10.354,7.378-18.041,17.979-18.041c10.601,0,17.979,6.512,17.979,16.863
			c0,10.354-7.377,18.041-17.979,18.041C413.431,49.474,406.053,42.964,406.053,32.61z M428.434,34.408
			c0-10.604-1.178-17.111-4.712-17.111c-3.286,0-4.091,4.588-4.091,12.338c0,10.604,1.178,17.111,4.711,17.111
			C427.628,46.746,428.434,42.158,428.434,34.408z"/>
		<path d="M460.736,42.84c0,2.729,1.362,2.914,4.836,3.41v2.604h-20.895V46.25c2.294-0.188,3.286-0.372,3.286-2.23V18.724h-4.401
			v-2.79l4.401-1.056v-0.496c0-9.855,7.005-14.071,15.375-14.071c7.129,0,10.292,2.418,10.292,6.388
			c0,1.798-0.992,3.348-2.418,4.027h-6.386c0.186-0.868,0.31-1.923,0.31-3.038c0-2.17-0.186-4.34-2.046-4.34
			c-1.734,0-2.354,1.362-2.354,3.721v8.121h7.066v3.534h-7.066V42.84L460.736,42.84z"/>
		<path d="M504.322,40.979c3.533,0,6.138-1.113,8.06-3.846l1.488,0.933c-2.046,7.997-7.315,11.407-14.507,11.407
			c-8.805,0-15.687-6.14-15.687-16.432c0-10.603,6.944-18.477,17.483-18.477c6.323,0,11.779,2.354,11.779,8.122
			c0,2.541-1.488,4.094-2.914,4.711h-6.388c0.188-1.485,0.248-2.665,0.248-3.721c0-3.721-0.991-6.139-3.72-6.139
			c-3.472,0-5.456,4.648-5.456,10.852C494.712,36.206,498.184,40.979,504.322,40.979z"/>
		<path d="M546.542,42.034c0,1.237,0.124,2.542,1.55,2.542c0.807,0,1.612-0.188,1.922-0.312l0.436,1.858
			c-2.17,1.981-4.897,3.35-8.617,3.35c-3.782,0-6.51-1.859-7.626-5.146c-1.736,2.665-4.587,4.896-9.175,4.896
			c-5.332,0-9.113-2.914-9.113-8.434c0-5.456,3.72-7.688,8.061-9.176l10.043-3.474v-6.817c0-2.479-0.619-4.154-2.666-4.154
			c-2.171,0-2.977,1.922-2.977,4.772c0,1.486,0.248,3.038,0.62,4.59l-7.688,0.989c-1.858-0.619-3.224-2.17-3.224-4.523
			c0-5.892,6.076-8.434,13.826-8.434c9.051,0,14.631,2.666,14.631,11.035L546.542,42.034L546.542,42.034z M534.02,42.468V30.999
			l-2.479,0.932c-1.984,0.742-3.348,1.733-3.348,5.396c0,3.1,1.054,5.456,4.028,5.456C532.903,42.778,533.398,42.655,534.02,42.468z
			"/>
		<path d="M567.499,44.018c0,1.858,0.992,2.046,3.286,2.23v2.604h-19.343V46.25c2.294-0.188,3.286-0.372,3.286-2.23V6.882
			l-3.286-1.674V3.101l13.887-2.79h2.17V44.018L567.499,44.018z"/>
		<path d="M588.951,44.018c0,1.858,0.992,2.046,3.286,2.23v2.604h-19.345V46.25c2.295-0.188,3.284-0.372,3.284-2.23V6.882
			l-3.284-1.674V3.101l13.889-2.79h2.17V44.018L588.951,44.018z"/>
		<path d="M606.249,32.61c0-10.354,7.378-18.041,17.979-18.041c10.604,0,17.979,6.512,17.979,16.863
			c0,10.354-7.377,18.041-17.979,18.041C613.626,49.474,606.249,42.964,606.249,32.61z M628.629,34.408
			c0-10.604-1.178-17.111-4.712-17.111c-3.286,0-4.091,4.588-4.091,12.338c0,10.604,1.178,17.111,4.711,17.111
			C627.823,46.746,628.629,42.158,628.629,34.408z"/>
		<path d="M660.931,42.84c0,2.729,1.364,2.914,4.837,3.41v2.604h-20.894V46.25c2.294-0.188,3.286-0.372,3.286-2.23V18.724h-4.402
			v-2.79l4.402-1.056v-0.496c0-9.855,7.005-14.071,15.375-14.071c7.129,0,10.292,2.418,10.292,6.388
			c0,1.798-0.993,3.348-2.418,4.027h-6.386c0.186-0.868,0.31-1.923,0.31-3.038c0-2.17-0.187-4.34-2.046-4.34
			c-1.736,0-2.356,1.362-2.356,3.721v8.121h7.068v3.534h-7.068V42.84L660.931,42.84z"/>
		<path d="M710.035,25.853c0-2.294-0.744-3.846-3.844-3.846c-1.736,0-3.162,0.312-4.592,0.809v21.202
			c0,1.858,0.809,2.046,3.104,2.23v2.604h-19.158V46.25c2.295-0.188,3.287-0.372,3.287-2.23v-21.7l-3.287-2.106V18.29l13.826-3.722
			h2.479l-0.248,6.264c2.232-2.914,5.77-6.264,11.596-6.264c6.014,0,9.607,3.35,9.607,10.169v19.279c0,1.858,0.992,2.046,3.285,2.23
			v2.604h-19.156V46.25c2.293-0.188,3.104-0.372,3.104-2.23L710.035,25.853L710.035,25.853z"/>
		<path d="M758.021,42.034c0,1.237,0.123,2.542,1.551,2.542c0.805,0,1.608-0.188,1.922-0.312l0.434,1.858
			c-2.17,1.981-4.895,3.35-8.617,3.35c-3.778,0-6.51-1.859-7.627-5.146c-1.731,2.665-4.586,4.896-9.174,4.896
			c-5.332,0-9.113-2.914-9.113-8.434c0-5.456,3.724-7.688,8.062-9.176l10.043-3.474v-6.817c0-2.479-0.619-4.154-2.666-4.154
			c-2.17,0-2.975,1.922-2.975,4.772c0,1.486,0.244,3.038,0.615,4.59l-7.688,0.989c-1.859-0.619-3.223-2.17-3.223-4.523
			c0-5.892,6.073-8.434,13.823-8.434c9.054,0,14.631,2.666,14.631,11.035v16.437H758.021z M745.498,42.468V30.999l-2.479,0.932
			c-1.982,0.742-3.349,1.733-3.349,5.396c0,3.1,1.053,5.456,4.029,5.456C744.382,42.778,744.878,42.655,745.498,42.468z"/>
		<path d="M778.419,15.189h6.881v3.534h-6.881v20.521c0,2.666,1.055,3.844,3.162,3.844c1.488,0,2.914-0.558,4.34-1.55l0.992,1.55
			c-2.479,4.153-6.137,6.388-11.344,6.388c-5.953,0-10.105-2.978-10.105-10.416V18.724h-3.348V16.43
			c5.27-1.86,10.104-5.52,13.576-9.855h2.729L778.419,15.189L778.419,15.189z"/>
		<path d="M824.113,41.476c0,2.106,0.186,3.161,1.981,3.161h1.427v2.729l-13.947,2.106h-2.418l0.186-6.076
			c-2.107,2.854-5.395,6.076-11.16,6.076c-5.58,0-9.547-3.35-9.547-10.604V24.178c0-1.734-0.434-3.16-2.17-3.721l-0.93-0.312v-2.479
			l13.887-3.102h2.355l-0.373,8.186v15.003c0,2.854,1.115,4.465,3.906,4.465c1.551,0,2.479-0.187,4.028-0.683V24.178
			c0-1.734-0.434-3.16-2.17-3.721l-0.93-0.312v-2.479l13.887-3.102h2.354l-0.369,8.186L824.113,41.476L824.113,41.476z"/>
		<path d="M845.812,42.84c0,2.729,1.362,2.914,4.838,3.41v2.604h-20.896V46.25c2.293-0.188,3.285-0.372,3.285-2.23v-21.7
			l-3.285-2.106V18.29l13.824-3.722h2.479l-0.247,9.674c2.356-7.439,4.649-9.674,8.618-9.674c1.55,0,2.604,0.437,3.285,1.056v9.483
			h-1.61c-3.97,0-7.625,0.124-10.294,1.734V42.84H845.812z"/>
		<path d="M890.453,28.457v1.55h-19.654c0,6.819,3.844,11.159,9.301,11.159c3.904,0,6.886-1.302,9.236-4.34l1.303,0.806
			c-1.731,7.192-6.635,11.844-14.756,11.844c-9.231,0-16.615-5.892-16.615-16.739c0-11.222,7.998-18.164,17.179-18.164
			C885.74,14.569,890.453,20.335,890.453,28.457z M870.861,26.969h8.742c0-6.138-0.992-9.672-3.972-9.672
			C872.535,17.297,871.109,21.141,870.861,26.969z"/>
		<path d="M904.589,32.61c0-10.354,7.377-18.041,17.979-18.041c10.602,0,17.979,6.512,17.979,16.863
			c0,10.354-7.379,18.041-17.979,18.041C911.967,49.473,904.589,42.964,904.589,32.61z M926.97,34.408
			c0-10.604-1.178-17.111-4.711-17.111c-3.287,0-4.092,4.588-4.092,12.338c0,10.604,1.178,17.111,4.711,17.111
			C926.164,46.746,926.97,42.158,926.97,34.408z"/>
		<path d="M959.273,42.84c0,2.729,1.362,2.914,4.834,3.41v2.604h-20.894V46.25c2.295-0.188,3.287-0.372,3.287-2.23V18.724h-4.402
			v-2.79l4.402-1.056v-0.496c0-9.855,7.006-14.071,15.375-14.071c7.129,0,10.291,2.418,10.291,6.388
			c0,1.798-0.992,3.348-2.418,4.027h-6.385c0.186-0.868,0.309-1.923,0.309-3.038c0-2.17-0.186-4.34-2.045-4.34
			c-1.736,0-2.354,1.362-2.354,3.721v8.121h7.065v3.534h-7.065V42.84z"/>
		<path d="M1000.688,15.189h6.883v3.534h-6.883v20.521c0,2.666,1.055,3.844,3.161,3.844c1.488,0,2.914-0.558,4.341-1.55l0.991,1.55
			c-2.479,4.153-6.139,6.388-11.346,6.388c-5.951,0-10.104-2.978-10.104-10.416V18.724h-3.349V16.43
			c5.271-1.86,10.105-5.52,13.578-9.855h2.728V15.189z"/>
		<path d="M1013.583,6.882l-3.285-1.674V3.101l13.888-2.79h2.17v20.521c2.231-2.914,5.766-6.264,11.594-6.264
			c6.014,0,9.609,3.35,9.609,10.169v19.279c0,1.858,0.991,2.046,3.286,2.23v2.604h-19.157V46.25c2.295-0.188,3.1-0.372,3.1-2.23
			V25.853c0-2.294-0.744-3.846-3.844-3.846c-1.736,0-3.162,0.312-4.588,0.809v21.202c0,1.858,0.807,2.046,3.1,2.23v2.604h-19.156
			V46.25c2.295-0.188,3.285-0.372,3.285-2.23L1013.583,6.882L1013.583,6.882z"/>
		<path d="M1068.763,44.018c0,1.858,0.992,2.046,3.285,2.23v2.604h-19.342V46.25c2.293-0.188,3.285-0.372,3.285-2.23v-21.7
			l-3.285-2.106V18.29l13.824-3.722h2.229v29.449L1068.763,44.018L1068.763,44.018z M1055.992,6.137
			c0-3.284,2.418-6.139,6.572-6.139c4.092,0,6.569,2.854,6.569,6.139c0,3.285-2.479,6.139-6.569,6.139
			C1058.41,12.275,1055.992,9.424,1055.992,6.137z"/>
		<path d="M1098.895,25.853c0-2.294-0.744-3.846-3.845-3.846c-1.735,0-3.162,0.312-4.588,0.809v21.202
			c0,1.858,0.806,2.046,3.101,2.23v2.604h-19.156V46.25c2.293-0.188,3.285-0.372,3.285-2.23v-21.7l-3.285-2.106V18.29l13.824-3.722
			h2.479l-0.248,6.264c2.232-2.914,5.766-6.264,11.594-6.264c6.015,0,9.609,3.35,9.609,10.169v19.279
			c0,1.858,0.992,2.046,3.285,2.23v2.604h-19.156V46.25c2.293-0.188,3.1-0.372,3.1-2.23L1098.895,25.853L1098.895,25.853z"/>
		<path d="M1124.686,36.206c-0.806,0.744-1.55,1.55-1.55,2.729c0,0.932,0.619,1.674,1.675,1.674h13.823
			c8.929,0,12.4,3.846,12.4,9.549c0,8.12-7.627,12.521-19.281,12.521c-10.168,0-16.49-2.604-16.49-7.503
			c0-3.035,3.101-4.34,5.703-4.587c-2.666-1.055-4.217-3.78-4.217-6.446c0-4.218,2.853-6.884,6.201-8.617
			c-3.479-1.61-6.021-4.4-6.021-8.987c0-7.562,6.515-11.968,15.498-11.968c2.543,0,4.402,0.372,6.021,0.808l11.346-0.247v4.463
			h-2.914l-3.532-0.124c2.293,1.553,3.78,3.906,3.78,7.008c0,6.941-6.633,10.786-15.252,10.786
			C1129.521,37.26,1126.98,36.95,1124.686,36.206z M1122.392,52.201c-0.248,0.312-0.311,0.99-0.311,1.674
			c0,3.598,4.029,5.644,9.854,5.644c5.396,0,10.416-1.18,10.416-4.959c0-1.61-0.989-2.354-2.979-2.354L1122.392,52.201
			L1122.392,52.201z M1135.472,26.163c0-4.588-1.053-8.806-3.596-8.806c-2.479,0-3.16,2.914-3.16,8.186
			c0,4.896,1.115,9.052,3.597,9.052C1134.854,34.594,1135.472,31.742,1135.472,26.163z"/>
		<path d="M1153.021,46.312l-0.373-8.369h3.161c1.115,4.959,4.466,8.741,9.238,8.741c2.789,0,5.021-1.304,5.021-3.904
			c0-3.037-2.418-3.969-6.394-5.146c-7.188-2.105-11.096-5.207-11.096-11.717c0-7.378,5.578-11.348,13.328-11.348
			c4.277,0,8.246,1.116,10.912,2.854v7.438h-2.914c-0.621-3.904-3.41-7.502-7.688-7.502c-2.479,0-4.217,1.304-4.217,3.534
			c0,2.479,1.799,3.407,5.58,4.647c7.75,2.542,11.904,5.084,11.904,12.213c0,7.502-5.646,11.72-14.322,11.72
			C1159.779,49.474,1155.811,48.233,1153.021,46.312z"/>
	</g>
</g>
</svg>
