<?xml version="1.0" encoding="utf-8"?>
<!-- Generator: Adobe Illustrator 16.0.0, SVG Export Plug-In . SVG Version: 6.00 Build 0)  -->
<!DOCTYPE svg PUBLIC "-//W3C//DTD SVG 1.1//EN" "http://www.w3.org/Graphics/SVG/1.1/DTD/svg11.dtd">
<svg version="1.1" id="Layer_1" xmlns="http://www.w3.org/2000/svg" xmlns:xlink="http://www.w3.org/1999/xlink" x="0px" y="0px"
	 width="1440px" height="62.641px" viewBox="0 0 1440 62.641" enable-background="new 0 0 1440 62.641" xml:space="preserve">
<g id="_x31_0">
	<g>
		<path d="M169.17,46.312l-0.372-8.369h3.162c1.116,4.959,4.463,8.741,9.237,8.741c2.79,0,5.021-1.304,5.021-3.904
			c0-3.036-2.417-3.969-6.385-5.146c-7.191-2.108-11.097-5.208-11.097-11.718c0-7.378,5.58-11.349,13.329-11.349
			c4.278,0,8.246,1.116,10.912,2.854v7.438h-2.914c-0.62-3.903-3.41-7.502-7.688-7.502c-2.479,0-4.216,1.305-4.216,3.534
			c0,2.479,1.798,3.407,5.58,4.647c7.75,2.542,11.903,5.084,11.903,12.213c0,7.502-5.642,11.719-14.321,11.719
			C175.928,49.474,171.96,48.233,169.17,46.312z"/>
		<path d="M201.596,6.882l-3.286-1.674V3.101l13.887-2.79h2.17v20.521c2.232-2.914,5.766-6.265,11.593-6.265
			c6.014,0,9.61,3.351,9.61,10.168v19.28c0,1.858,0.992,2.046,3.286,2.23v2.604h-19.157V46.25c2.293-0.188,3.1-0.372,3.1-2.23
			V25.853c0-2.294-0.744-3.846-3.844-3.846c-1.736,0-3.162,0.312-4.588,0.809v21.202c0,1.858,0.806,2.046,3.1,2.23v2.604H198.31
			V46.25c2.294-0.188,3.286-0.372,3.286-2.23V6.882z"/>
		<path d="M240.593,32.61c0-10.354,7.378-18.041,17.979-18.041c10.602,0,17.979,6.513,17.979,16.863
			c0,10.354-7.377,18.041-17.979,18.041C247.971,49.474,240.593,42.964,240.593,32.61z M262.974,34.408
			c0-10.604-1.178-17.111-4.712-17.111c-3.286,0-4.091,4.588-4.091,12.338c0,10.604,1.178,17.111,4.711,17.111
			C262.168,46.746,262.974,42.158,262.974,34.408z"/>
		<path d="M295.214,42.84c0,2.729,1.364,2.914,4.836,3.41v2.604h-20.893V46.25c2.294-0.188,3.286-0.372,3.286-2.23v-21.7
			l-3.286-2.105V18.29l13.825-3.723h2.48l-0.248,9.675c2.356-7.439,4.65-9.675,8.618-9.675c1.55,0,2.604,0.438,3.286,1.057v9.482
			h-1.612c-3.968,0-7.625,0.124-10.292,1.734V42.84L295.214,42.84z"/>
		<path d="M324.044,15.189h6.881v3.534h-6.881v20.521c0,2.666,1.054,3.844,3.162,3.844c1.488,0,2.914-0.558,4.34-1.55l0.992,1.55
			c-2.479,4.153-6.138,6.388-11.345,6.388c-5.952,0-10.105-2.978-10.105-10.416V18.724h-3.348V16.43
			c5.27-1.86,10.104-5.52,13.577-9.854h2.728L324.044,15.189L324.044,15.189z"/>
		<path d="M358.391,25.853c0-2.294-0.744-3.846-3.844-3.846c-1.736,0-3.162,0.312-4.588,0.809v21.202c0,1.858,0.806,2.046,3.1,2.23
			v2.604h-19.157V46.25c2.294-0.188,3.286-0.372,3.286-2.23v-21.7l-3.286-2.105V18.29l13.825-3.723h2.48l-0.248,6.265
			c2.232-2.914,5.766-6.265,11.593-6.265c6.017,0,9.61,3.351,9.61,10.168v19.28c0,1.858,0.992,2.046,3.286,2.23v2.604h-19.157V46.25
			c2.293-0.188,3.1-0.372,3.1-2.23V25.853L358.391,25.853z"/>
		<path d="M407.37,28.457v1.55h-19.653c0,6.819,3.844,11.159,9.299,11.159c3.906,0,6.884-1.302,9.237-4.34l1.302,0.806
			c-1.733,7.192-6.634,11.844-14.755,11.844c-9.237,0-16.615-5.892-16.615-16.739c0-11.222,7.998-18.164,17.176-18.164
			C402.658,14.569,407.37,20.335,407.37,28.457z M387.779,26.969h8.738c0-6.138-0.989-9.672-3.968-9.672
			C389.453,17.297,388.027,21.141,387.779,26.969z"/>
		<path d="M411.276,46.312l-0.372-8.369h3.162c1.113,4.959,4.463,8.741,9.234,8.741c2.79,0,5.021-1.304,5.021-3.904
			c0-3.036-2.417-3.969-6.387-5.146c-7.19-2.105-11.099-5.207-11.099-11.717c0-7.378,5.58-11.349,13.329-11.349
			c4.278,0,8.246,1.116,10.912,2.854v7.438h-2.914c-0.62-3.903-3.41-7.502-7.688-7.502c-2.479,0-4.217,1.305-4.217,3.534
			c0,2.479,1.798,3.407,5.58,4.647c7.75,2.542,11.903,5.084,11.903,12.213c0,7.502-5.645,11.72-14.321,11.72
			C418.034,49.474,414.066,48.233,411.276,46.312z"/>
		<path d="M441.47,46.312l-0.372-8.369h3.162c1.116,4.959,4.464,8.741,9.238,8.741c2.79,0,5.021-1.304,5.021-3.904
			c0-3.036-2.417-3.969-6.385-5.146c-7.189-2.105-11.098-5.207-11.098-11.717c0-7.378,5.58-11.349,13.329-11.349
			c4.275,0,8.246,1.116,10.912,2.854v7.438h-2.914c-0.62-3.903-3.41-7.502-7.688-7.502c-2.479,0-4.216,1.305-4.216,3.534
			c0,2.479,1.798,3.407,5.58,4.647c7.75,2.542,11.903,5.084,11.903,12.213c0,7.502-5.645,11.72-14.321,11.72
			C448.229,49.474,444.26,48.233,441.47,46.312z"/>
		<path d="M482.513,32.61c0-10.354,7.378-18.041,17.979-18.041c10.601,0,17.979,6.513,17.979,16.863
			c0,10.354-7.377,18.041-17.979,18.041C489.891,49.474,482.513,42.964,482.513,32.61z M504.895,34.408
			c0-10.604-1.179-17.111-4.713-17.111c-3.281,0-4.091,4.588-4.091,12.338c0,10.604,1.179,17.111,4.711,17.111
			C504.088,46.746,504.895,42.158,504.895,34.408z"/>
		<path d="M537.196,42.84c0,2.729,1.359,2.914,4.836,3.41v2.604h-20.896V46.25c2.294-0.188,3.286-0.372,3.286-2.23V18.724h-4.397
			v-2.79l4.397-1.056v-0.496c0-9.855,7.005-14.071,15.375-14.071c7.129,0,10.292,2.418,10.292,6.389
			c0,1.798-0.992,3.348-2.418,4.026h-6.386c0.186-0.868,0.31-1.923,0.31-3.038c0-2.17-0.186-4.34-2.046-4.34
			c-1.731,0-2.354,1.362-2.354,3.721v8.121h7.063v3.534h-7.063L537.196,42.84L537.196,42.84z"/>
		<path d="M563.547,5.208V3.101l13.887-2.79h2.17v20.396c1.612-2.729,5.021-6.141,10.416-6.141c7.191,0,12.59,4.896,12.59,15.312
			c0,13.021-8.369,19.592-19.157,19.592c-5.771,0-12.399-0.991-16.615-4.217V6.882L563.547,5.208z M589.585,33.54
			c0-8.435-2.976-11.531-7.13-11.531c-0.992,0-1.86,0.124-2.854,0.561v17.548c0,3.654,0.742,6.196,3.78,6.196
			C587.54,46.312,589.585,40.732,589.585,33.54z"/>
		<path d="M621.268,42.84c0,2.729,1.364,2.914,4.836,3.41v2.604H605.21V46.25c2.294-0.188,3.286-0.372,3.286-2.23v-21.7
			l-3.286-2.105V18.29l13.825-3.723h2.479l-0.248,9.675c2.356-7.439,4.65-9.675,8.618-9.675c1.55,0,2.604,0.438,3.286,1.057v9.482
			h-1.611c-3.969,0-7.625,0.124-10.293,1.734L621.268,42.84L621.268,42.84z"/>
		<path d="M665.907,28.457v1.55h-19.653c0,6.819,3.844,11.159,9.299,11.159c3.906,0,6.881-1.302,9.237-4.34l1.302,0.806
			c-1.731,7.192-6.634,11.844-14.755,11.844c-9.237,0-16.615-5.892-16.615-16.739c0-11.222,7.998-18.164,17.175-18.164
			C661.195,14.569,665.907,20.335,665.907,28.457z M646.316,26.969h8.736c0-6.138-0.988-9.672-3.968-9.672
			C647.99,17.297,646.562,21.141,646.316,26.969z"/>
		<path d="M698.765,42.034c0,1.236,0.124,2.542,1.555,2.542c0.806,0,1.607-0.188,1.922-0.312l0.434,1.858
			c-2.17,1.98-4.896,3.35-8.616,3.35c-3.778,0-6.511-1.859-7.627-5.146c-1.731,2.665-4.587,4.896-9.175,4.896
			c-5.332,0-9.11-2.914-9.11-8.434c0-5.456,3.722-7.688,8.062-9.177l10.043-3.475v-6.815c0-2.479-0.62-4.154-2.666-4.154
			c-2.17,0-2.977,1.922-2.977,4.771c0,1.486,0.247,3.038,0.618,4.591l-7.688,0.988c-1.86-0.619-3.226-2.17-3.226-4.522
			c0-5.893,6.073-8.435,13.823-8.435c9.054,0,14.634,2.666,14.634,11.034L698.765,42.034L698.765,42.034z M686.242,42.468V30.999
			l-2.479,0.932c-1.979,0.742-3.348,1.733-3.348,5.396c0,3.1,1.054,5.456,4.03,5.456C685.126,42.778,685.622,42.655,686.242,42.468z
			"/>
		<path d="M719.164,15.189h6.88v3.534h-6.88v20.521c0,2.666,1.054,3.844,3.162,3.844c1.488,0,2.914-0.558,4.34-1.55l0.992,1.55
			c-2.479,4.153-6.139,6.388-11.344,6.388c-5.951,0-10.104-2.978-10.104-10.416V18.724h-3.348V16.43
			c5.27-1.86,10.104-5.52,13.575-9.854h2.729L719.164,15.189L719.164,15.189z"/>
		<path d="M732.061,6.882l-3.283-1.674V3.101l13.887-2.79h2.17v20.521c2.232-2.914,5.766-6.265,11.592-6.265
			c6.021,0,9.611,3.351,9.611,10.168v19.28c0,1.858,0.992,2.046,3.285,2.23v2.604h-19.156V46.25c2.293-0.188,3.1-0.372,3.1-2.23
			V25.853c0-2.294-0.744-3.846-3.844-3.846c-1.736,0-3.162,0.312-4.588,0.809v21.202c0,1.858,0.805,2.046,3.1,2.23v2.604h-19.151
			V46.25c2.295-0.188,3.28-0.372,3.28-2.23V6.882H732.061z"/>
		<path d="M782.837,32.61c0-10.354,7.377-18.041,17.979-18.041c10.602,0,17.979,6.513,17.979,16.863
			c0,10.354-7.379,18.041-17.979,18.041C790.214,49.473,782.837,42.964,782.837,32.61z M805.218,34.408
			c0-10.604-1.178-17.111-4.711-17.111c-3.287,0-4.092,4.588-4.092,12.338c0,10.604,1.178,17.111,4.711,17.111
			C804.412,46.746,805.218,42.158,805.218,34.408z"/>
		<path d="M837.521,42.84c0,2.729,1.36,2.914,4.836,3.41v2.604h-20.896V46.25c2.293-0.188,3.285-0.372,3.285-2.23V18.724h-4.402
			v-2.79l4.402-1.056v-0.496c0-9.855,7.006-14.071,15.375-14.071c7.131,0,10.291,2.418,10.291,6.389c0,1.798-0.99,3.348-2.418,4.026
			h-6.388c0.188-0.868,0.312-1.923,0.312-3.038c0-2.17-0.188-4.34-2.047-4.34c-1.736,0-2.355,1.362-2.355,3.721v8.121h7.068v3.534
			h-7.068L837.521,42.84L837.521,42.84z"/>
		<path d="M892.203,42.034c0,1.236,0.125,2.542,1.551,2.542c0.805,0,1.611-0.188,1.922-0.312l0.439,1.858
			c-2.17,1.98-4.898,3.35-8.617,3.35c-3.783,0-6.51-1.859-7.627-5.146c-1.734,2.665-4.588,4.896-9.174,4.896
			c-5.332,0-9.115-2.914-9.115-8.434c0-5.456,3.721-7.688,8.061-9.177l10.043-3.475v-6.815c0-2.479-0.616-4.154-2.666-4.154
			c-2.17,0-2.975,1.922-2.975,4.771c0,1.486,0.248,3.038,0.619,4.591l-7.689,0.988c-1.854-0.619-3.225-2.17-3.225-4.522
			c0-5.893,6.076-8.435,13.826-8.435c9.051,0,14.631,2.666,14.631,11.034v16.437h-0.004V42.034z M879.679,42.468V30.999
			l-2.479,0.932c-1.982,0.742-3.348,1.733-3.348,5.396c0,3.1,1.055,5.456,4.03,5.456C878.564,42.778,879.061,42.655,879.679,42.468z
			"/>
		<path d="M913.408,44.018c0,1.858,0.992,2.046,3.285,2.23v2.604h-19.342V46.25c2.293-0.188,3.284-0.372,3.284-2.23v-21.7
			l-3.284-2.105V18.29l13.823-3.723h2.232L913.408,44.018L913.408,44.018z M900.636,6.137c0-3.284,2.418-6.139,6.572-6.139
			c4.092,0,6.57,2.854,6.57,6.139c0,3.285-2.48,6.139-6.57,6.139C903.054,12.275,900.636,9.424,900.636,6.137z"/>
		<path d="M935.107,42.84c0,2.729,1.362,2.914,4.836,3.41v2.604H919.05V46.25c2.293-0.188,3.285-0.372,3.285-2.23v-21.7
			l-3.285-2.105V18.29l13.824-3.723h2.479l-0.248,9.675c2.354-7.439,4.647-9.675,8.616-9.675c1.554,0,2.605,0.438,3.285,1.057v9.482
			h-1.61c-3.968,0-7.625,0.124-10.291,1.734V42.84H935.107z"/>
		<path d="M960.341,32.61c0-10.354,7.377-18.041,17.979-18.041c10.602,0,17.979,6.513,17.979,16.863
			c0,10.354-7.379,18.041-17.979,18.041C967.719,49.473,960.341,42.964,960.341,32.61z M982.722,34.408
			c0-10.604-1.178-17.111-4.711-17.111c-3.287,0-4.092,4.588-4.092,12.338c0,10.604,1.178,17.111,4.711,17.111
			C981.916,46.746,982.722,42.158,982.722,34.408z"/>
		<path d="M1015.025,42.84c0,2.729,1.362,2.914,4.834,3.41v2.604h-20.894V46.25c2.295-0.188,3.287-0.372,3.287-2.23V18.724h-4.401
			v-2.79l4.401-1.056v-0.496c0-9.855,7.006-14.071,15.375-14.071c7.129,0,10.291,2.418,10.291,6.389
			c0,1.798-0.992,3.348-2.418,4.026h-6.385c0.186-0.868,0.309-1.923,0.309-3.038c0-2.17-0.186-4.34-2.045-4.34
			c-1.735,0-2.354,1.362-2.354,3.721v8.121h7.065v3.534h-7.065V42.84z"/>
		<path d="M1058.609,40.979c3.533,0,6.137-1.112,8.059-3.846l1.488,0.933c-2.045,7.997-7.316,11.407-14.508,11.407
			c-8.804,0-15.685-6.14-15.685-16.432c0-10.604,6.943-18.478,17.482-18.478c6.315,0,11.771,2.354,11.771,8.122
			c0,2.541-1.479,4.095-2.914,4.711h-6.385c0.189-1.484,0.248-2.665,0.248-3.721c0-3.721-0.992-6.139-3.721-6.139
			c-3.474,0-5.455,4.647-5.455,10.852C1049,36.206,1052.47,40.979,1058.609,40.979z"/>
		<path d="M1100.83,42.034c0,1.236,0.125,2.542,1.551,2.542c0.805,0,1.611-0.188,1.922-0.312l0.439,1.858
			c-2.17,1.98-4.898,3.35-8.617,3.35c-3.783,0-6.51-1.859-7.627-5.146c-1.734,2.665-4.588,4.896-9.174,4.896
			c-5.332,0-9.115-2.914-9.115-8.434c0-5.456,3.721-7.688,8.062-9.177l10.043-3.475v-6.815c0-2.479-0.619-4.154-2.666-4.154
			c-2.172,0-2.978,1.922-2.978,4.771c0,1.486,0.248,3.038,0.619,4.591l-7.688,0.988c-1.856-0.619-3.227-2.17-3.227-4.522
			c0-5.893,6.076-8.435,13.826-8.435c9.051,0,14.631,2.666,14.631,11.034v16.437h-0.004v0.002H1100.83z M1088.306,42.468V30.999
			l-2.479,0.932c-1.982,0.742-3.348,1.733-3.348,5.396c0,3.1,1.055,5.456,4.03,5.456
			C1087.191,42.778,1087.688,42.655,1088.306,42.468z"/>
		<path d="M1141.812,41.476c0,2.106,0.186,3.161,1.981,3.161h1.426v2.729l-13.948,2.105h-2.418l0.188-6.076
			c-2.109,2.854-5.395,6.076-11.16,6.076c-5.58,0-9.547-3.35-9.547-10.604v-14.69c0-1.734-0.434-3.16-2.17-3.721l-0.93-0.312v-2.479
			l13.887-3.103h2.354l-0.37,8.187v15.003c0,2.854,1.114,4.465,3.903,4.465c1.552,0,2.48-0.187,4.031-0.683V24.178
			c0-1.734-0.438-3.16-2.17-3.721l-0.935-0.312v-2.479l13.892-3.103h2.354l-0.368,8.187V41.476L1141.812,41.476z"/>
		<path d="M1162.707,15.189h6.881v3.534h-6.881v20.521c0,2.666,1.053,3.844,3.162,3.844c1.486,0,2.912-0.558,4.338-1.55l0.992,1.55
			c-2.479,4.153-6.137,6.388-11.344,6.388c-5.953,0-10.105-2.978-10.105-10.416V18.724h-3.35V16.43
			c5.271-1.86,10.104-5.52,13.578-9.854h2.729V15.189L1162.707,15.189z"/>
		<path d="M1188.623,44.018c0,1.858,0.992,2.046,3.285,2.23v2.604h-19.342V46.25c2.293-0.188,3.285-0.372,3.285-2.23v-21.7
			l-3.285-2.105V18.29l13.823-3.723h2.232L1188.623,44.018L1188.623,44.018z M1175.851,6.137c0-3.284,2.418-6.139,6.572-6.139
			c4.092,0,6.57,2.854,6.57,6.139c0,3.285-2.48,6.139-6.57,6.139C1178.27,12.275,1175.851,9.424,1175.851,6.137z"/>
		<path d="M1194.14,32.61c0-10.354,7.377-18.041,17.979-18.041c10.602,0,17.979,6.513,17.979,16.863
			c0,10.354-7.379,18.041-17.979,18.041C1201.518,49.473,1194.14,42.964,1194.14,32.61z M1216.521,34.408
			c0-10.604-1.179-17.111-4.712-17.111c-3.286,0-4.092,4.588-4.092,12.338c0,10.604,1.178,17.111,4.711,17.111
			C1215.714,46.746,1216.521,42.158,1216.521,34.408z"/>
		<path d="M1257.193,25.853c0-2.294-0.744-3.846-3.845-3.846c-1.735,0-3.161,0.312-4.588,0.809v21.202
			c0,1.858,0.806,2.046,3.101,2.23v2.604h-19.156V46.25c2.293-0.188,3.285-0.372,3.285-2.23v-21.7l-3.285-2.105V18.29l13.824-3.723
			h2.479l-0.248,6.265c2.232-2.914,5.767-6.265,11.594-6.265c6.015,0,9.609,3.351,9.609,10.168v19.28
			c0,1.858,0.992,2.046,3.285,2.23v2.604h-19.156V46.25c2.293-0.188,3.101-0.372,3.101-2.23V25.853L1257.193,25.853z"/>
	</g>
</g>
</svg>
