<?xml version="1.0" encoding="utf-8"?>
<!-- Generator: Adobe Illustrator 16.0.0, SVG Export Plug-In . SVG Version: 6.00 Build 0)  -->
<!DOCTYPE svg PUBLIC "-//W3C//DTD SVG 1.1//EN" "http://www.w3.org/Graphics/SVG/1.1/DTD/svg11.dtd">
<svg version="1.1" id="Layer_1" xmlns="http://www.w3.org/2000/svg" xmlns:xlink="http://www.w3.org/1999/xlink" x="0px" y="0px"
	 width="1440px" height="62.641px" viewBox="0 0 1440 62.641" enable-background="new 0 0 1440 62.641" xml:space="preserve">
<g id="_x31_6">
	<g>
		<path d="M155.421,42.84c0,2.729,1.364,2.914,4.836,3.41v2.604h-20.893V46.25c2.294-0.188,3.286-0.372,3.286-2.23v-21.7
			l-3.286-2.106V18.29l13.825-3.722h2.48l-0.248,9.674c2.356-7.439,4.65-9.674,8.618-9.674c1.55,0,2.604,0.437,3.286,1.056v9.483
			h-1.612c-3.968,0-7.625,0.124-10.292,1.734V42.84z"/>
		<path d="M185.057,44.018c0,1.858,0.992,2.046,3.286,2.23v2.604H169V46.25c2.294-0.188,3.286-0.372,3.286-2.23v-21.7L169,20.211
			v-1.922l13.825-3.722h2.232V44.018z M172.286,6.137c0-3.284,2.417-6.138,6.571-6.138c4.092,0,6.572,2.854,6.572,6.14
			c0,3.284-2.48,6.138-6.572,6.138C174.703,12.275,172.286,9.424,172.286,6.137z"/>
		<path d="M198.572,36.206c-0.806,0.744-1.55,1.55-1.55,2.729c0,0.932,0.62,1.674,1.674,1.674h13.825
			c8.928,0,12.399,3.846,12.399,9.549c0,8.12-7.625,12.521-19.281,12.521c-10.167,0-16.491-2.604-16.491-7.503
			c0-3.035,3.1-4.34,5.704-4.587c-2.666-1.055-4.216-3.78-4.216-6.446c0-4.218,2.852-6.884,6.2-8.617
			c-3.472-1.61-6.014-4.4-6.014-8.987c0-7.562,6.51-11.968,15.499-11.968c2.542,0,4.402,0.372,6.014,0.808l11.346-0.247v4.463
			h-2.914l-3.534-0.124c2.294,1.553,3.782,3.906,3.782,7.008c0,6.941-6.634,10.786-15.251,10.786
			C203.408,37.26,200.866,36.95,198.572,36.206z M196.278,52.201c-0.248,0.312-0.31,0.99-0.31,1.674c0,3.598,4.03,5.644,9.857,5.644
			c5.394,0,10.415-1.18,10.415-4.959c0-1.61-0.992-2.354-2.976-2.354L196.278,52.201L196.278,52.201z M209.36,26.163
			c0-4.588-1.054-8.806-3.596-8.806c-2.48,0-3.162,2.914-3.162,8.186c0,4.896,1.116,9.052,3.596,9.052
			C208.74,34.594,209.36,31.742,209.36,26.163z"/>
		<path d="M229.139,6.882l-3.286-1.674V3.101l13.887-2.79h2.17v20.521c2.232-2.914,5.766-6.264,11.593-6.264
			c6.014,0,9.61,3.35,9.61,10.169v19.279c0,1.858,0.992,2.046,3.286,2.23v2.604h-19.157V46.25c2.293-0.188,3.1-0.372,3.1-2.23
			V25.853c0-2.294-0.744-3.846-3.844-3.846c-1.736,0-3.162,0.312-4.588,0.809v21.202c0,1.858,0.806,2.046,3.1,2.23v2.604h-19.157
			V46.25c2.294-0.188,3.286-0.372,3.286-2.23V6.882z"/>
		<path d="M283.512,15.189h6.881v3.534h-6.881v20.521c0,2.666,1.054,3.844,3.162,3.844c1.488,0,2.914-0.558,4.34-1.55l0.992,1.55
			c-2.479,4.153-6.138,6.388-11.345,6.388c-5.952,0-10.105-2.978-10.105-10.416V18.724h-3.348V16.43
			c5.27-1.86,10.105-5.52,13.577-9.855h2.728L283.512,15.189L283.512,15.189z"/>
		<path d="M305.025,32.61c0-10.354,7.378-18.041,17.979-18.041c10.602,0,17.979,6.512,17.979,16.863
			c0,10.354-7.377,18.041-17.979,18.041C312.403,49.474,305.025,42.964,305.025,32.61z M327.406,34.408
			c0-10.604-1.178-17.111-4.712-17.111c-3.286,0-4.091,4.588-4.091,12.338c0,10.604,1.178,17.111,4.711,17.111
			C326.601,46.746,327.406,42.158,327.406,34.408z"/>
		<path d="M359.708,42.84c0,2.729,1.364,2.914,4.836,3.41v2.604h-20.893V46.25c2.294-0.188,3.286-0.372,3.286-2.23V18.724h-4.402
			v-2.79l4.402-1.056v-0.496c0-9.855,7.005-14.071,15.375-14.071c7.129,0,10.291,2.418,10.291,6.388
			c0,1.798-0.991,3.348-2.418,4.027H363.8c0.188-0.868,0.312-1.923,0.312-3.038c0-2.17-0.188-4.34-2.046-4.34
			c-1.736,0-2.356,1.362-2.356,3.721v8.121h7.068v3.534h-7.068L359.708,42.84L359.708,42.84z"/>
		<path d="M431.936,21.699c0.312-0.808,0.496-1.488,0.496-1.984c0-1.237-1.054-1.674-3.41-1.922v-2.604h10.851v2.604
			c-2.108,0.685-2.604,1.116-3.162,2.479l-12.4,28.767h-4.216l-7.313-18.725l-8.806,18.725h-4.215l-13.33-28.768
			c-0.619-1.362-1.054-1.798-3.162-2.479v-2.604h19.717v2.604c-1.86,0.248-2.604,0.809-2.604,1.798c0,0.561,0.188,1.24,0.56,2.108
			l5.578,13.267l4.342-8.987l-2.232-5.703c-0.496-1.362-1.24-1.982-2.79-2.479V15.19h19.591v2.604
			c-2.542,0.312-3.72,0.561-3.72,2.046c0,0.496,0.124,1.116,0.372,1.86l4.773,12.521L431.936,21.699z"/>
		<path d="M469.447,42.034c0,1.237,0.124,2.542,1.55,2.542c0.806,0,1.612-0.188,1.922-0.312l0.434,1.858
			c-2.17,1.981-4.896,3.35-8.613,3.35c-3.782,0-6.514-1.859-7.626-5.146c-1.736,2.665-4.587,4.896-9.179,4.896
			c-5.332,0-9.111-2.914-9.111-8.434c0-5.456,3.72-7.688,8.06-9.176l10.043-3.474v-6.817c0-2.479-0.62-4.154-2.666-4.154
			c-2.17,0-2.976,1.922-2.976,4.772c0,1.486,0.248,3.038,0.62,4.59l-7.688,0.989c-1.858-0.619-3.224-2.17-3.224-4.523
			c0-5.892,6.076-8.434,13.826-8.434c9.051,0,14.631,2.666,14.631,11.035L469.447,42.034L469.447,42.034z M456.923,42.468V30.999
			l-2.479,0.932c-1.984,0.742-3.352,1.733-3.352,5.396c0,3.1,1.058,5.456,4.03,5.456C455.808,42.778,456.304,42.655,456.923,42.468z
			"/>
		<path d="M500.261,21.823c0.312-0.868,0.496-1.304,0.496-1.86c0-1.302-0.744-1.733-4.03-2.17v-2.604h11.597v2.604
			c-2.108,0.685-2.604,1.116-3.162,2.479L490.778,54c-2.418,5.644-4.836,8.618-9.304,8.618c-2.542,0-4.397-0.992-5.332-2.479v-5.021
			c1.678,0.31,3.104,0.618,5.084,0.618c3.534,0,5.209-0.99,6.265-3.225l0.93-1.983l-14.507-30.254
			c-0.62-1.362-1.054-1.798-3.162-2.479V15.19h21.203v2.604c-3.286,0.437-4.03,0.868-4.03,2.17c0,0.561,0.188,0.992,0.438,1.736
			l6.073,14.631L500.261,21.823z"/>
		<path d="M520.102,32.61c0-10.354,7.382-18.041,17.979-18.041c10.602,0,17.979,6.512,17.979,16.863
			c0,10.354-7.379,18.041-17.979,18.041C527.479,49.474,520.102,42.964,520.102,32.61z M542.482,34.408
			c0-10.604-1.182-17.111-4.716-17.111c-3.282,0-4.091,4.588-4.091,12.338c0,10.604,1.182,17.111,4.711,17.111
			C541.677,46.746,542.482,42.158,542.482,34.408z"/>
		<path d="M574.785,42.84c0,2.729,1.363,2.914,4.836,3.41v2.604h-20.896V46.25c2.297-0.188,3.286-0.372,3.286-2.23V18.724h-4.398
			v-2.79l4.398-1.056v-0.496c0-9.855,7.005-14.071,15.375-14.071c7.129,0,10.292,2.418,10.292,6.388
			c0,1.798-0.988,3.348-2.418,4.027h-6.386c0.188-0.868,0.312-1.923,0.312-3.038c0-2.17-0.188-4.34-2.049-4.34
			c-1.732,0-2.354,1.362-2.354,3.721v8.121h7.065v3.534h-7.065V42.84H574.785z"/>
		<path d="M618.308,44.018c0,1.858,0.992,2.046,3.286,2.23v2.604H602.25V46.25c2.294-0.188,3.286-0.372,3.286-2.23V6.882
			l-3.286-1.674V3.101l13.887-2.79h2.17L618.308,44.018L618.308,44.018z"/>
		<path d="M640.007,44.018c0,1.858,0.992,2.046,3.286,2.23v2.604H623.95V46.25c2.294-0.188,3.286-0.372,3.286-2.23v-21.7
			l-3.286-2.106V18.29l13.825-3.722h2.229L640.007,44.018L640.007,44.018z M627.236,6.137c0-3.284,2.417-6.139,6.567-6.139
			c4.095,0,6.572,2.854,6.572,6.139c0,3.285-2.479,6.139-6.572,6.139C629.654,12.275,627.236,9.424,627.236,6.137z"/>
		<path d="M661.77,42.84c0,2.729,1.363,2.914,4.836,3.41v2.604h-20.894V46.25c2.294-0.188,3.286-0.372,3.286-2.23V18.724h-4.402
			v-2.79l4.402-1.056v-0.496c0-9.855,7.005-14.071,15.375-14.071c7.129,0,10.292,2.418,10.292,6.388
			c0,1.798-0.992,3.348-2.418,4.027h-6.386c0.186-0.868,0.31-1.923,0.31-3.038c0-2.17-0.186-4.34-2.046-4.34
			c-1.736,0-2.355,1.362-2.355,3.721v8.121h7.067v3.534h-7.067V42.84L661.77,42.84z"/>
		<path d="M701.014,28.457v1.55h-19.649c0,6.819,3.844,11.159,9.299,11.159c3.906,0,6.881-1.302,9.235-4.34l1.304,0.806
			c-1.736,7.192-6.634,11.844-14.755,11.844c-9.237,0-16.615-5.892-16.615-16.739c0-11.222,7.998-18.164,17.173-18.164
			C696.302,14.569,701.014,20.335,701.014,28.457z M681.423,26.969h8.741c0-6.138-0.992-9.672-3.968-9.672
			C683.097,17.297,681.67,21.141,681.423,26.969z"/>
		<path d="M715.15,32.61c0-10.354,7.378-18.041,17.978-18.041c10.604,0,17.98,6.512,17.98,16.863c0,10.354-7.38,18.041-17.98,18.041
			C722.529,49.474,715.15,42.964,715.15,32.61z M737.531,34.408c0-10.604-1.178-17.111-4.711-17.111
			c-3.287,0-4.092,4.588-4.092,12.338c0,10.604,1.178,17.111,4.711,17.111C736.724,46.746,737.531,42.158,737.531,34.408z"/>
		<path d="M769.833,42.84c0,2.729,1.363,2.914,4.834,3.41v2.604h-20.896V46.25c2.298-0.188,3.285-0.372,3.285-2.23V18.724h-4.397
			v-2.79l4.397-1.056v-0.496c0-9.855,7.008-14.071,15.375-14.071c7.131,0,10.291,2.418,10.291,6.388
			c0,1.798-0.987,3.348-2.418,4.027h-6.385c0.188-0.868,0.311-1.923,0.311-3.038c0-2.17-0.188-4.34-2.047-4.34
			c-1.731,0-2.354,1.362-2.354,3.721v8.121h7.063v3.534h-7.063V42.84H769.833z"/>
		<path d="M813.417,40.979c3.535,0,6.139-1.113,8.062-3.846l1.487,0.933c-2.047,7.997-7.315,11.407-14.508,11.407
			c-8.805,0-15.689-6.14-15.689-16.432c0-10.603,6.943-18.477,17.482-18.477c6.324,0,11.779,2.354,11.779,8.122
			c0,2.541-1.486,4.094-2.912,4.711h-6.39c0.188-1.485,0.248-2.665,0.248-3.721c0-3.721-0.989-6.139-3.719-6.139
			c-3.473,0-5.457,4.648-5.457,10.852C803.808,36.206,807.281,40.979,813.417,40.979z"/>
		<path d="M841.007,42.84c0,2.729,1.365,2.914,4.836,3.41v2.604H824.95V46.25c2.295-0.188,3.285-0.372,3.285-2.23v-21.7
			l-3.285-2.106V18.29l13.826-3.722h2.479l-0.248,9.674c2.357-7.439,4.65-9.674,8.617-9.674c1.551,0,2.604,0.437,3.287,1.056v9.483
			H851.3c-3.969,0-7.627,0.124-10.293,1.734V42.84L841.007,42.84z"/>
		<path d="M870.645,44.018c0,1.858,0.991,2.046,3.284,2.23v2.604h-19.342V46.25c2.293-0.188,3.285-0.372,3.285-2.23v-21.7
			l-3.285-2.106V18.29l13.824-3.722h2.229v29.449L870.645,44.018L870.645,44.018z M857.873,6.137c0-3.284,2.418-6.139,6.572-6.139
			c4.092,0,6.569,2.854,6.569,6.139c0,3.285-2.479,6.139-6.569,6.139C860.291,12.275,857.873,9.424,857.873,6.137z"/>
		<path d="M920.242,25.667c0-2.294-0.744-3.72-3.348-3.72c-1.613,0-2.853,0.434-4.218,0.93v21.143c0,1.858,0.56,2.046,2.853,2.23
			v2.604h-18.476V46.25c2.295-0.188,2.853-0.372,2.853-2.23V25.667c0-2.294-0.744-3.72-3.349-3.72c-1.61,0-2.852,0.37-4.215,0.866
			v21.202c0,1.858,0.558,2.046,2.853,2.23v2.604h-18.908V46.25c2.293-0.188,3.285-0.372,3.285-2.23v-21.7l-3.285-2.106V18.29
			l13.824-3.722h2.479l-0.248,6.388c2.17-3.41,5.642-6.388,11.283-6.388c4.836,0,7.998,1.859,8.803,6.512
			c2.109-3.35,5.953-6.512,11.408-6.512c5.766,0,9.176,3.286,9.176,9.731v19.717c0,1.858,0.992,2.046,3.285,2.23v2.604H917.39V46.25
			c2.294-0.188,2.853-0.372,2.853-2.23V25.667z"/>
		<path d="M969.22,28.457v1.55h-19.651c0,6.819,3.844,11.159,9.299,11.159c3.906,0,6.883-1.302,9.238-4.34l1.303,0.806
			c-1.736,7.192-6.635,11.844-14.756,11.844c-9.238,0-16.615-5.892-16.615-16.739c0-11.222,7.998-18.164,17.174-18.164
			C964.509,14.569,969.22,20.335,969.22,28.457z M949.63,26.969h8.742c0-6.138-0.992-9.672-3.969-9.672
			C951.304,17.297,949.878,21.141,949.63,26.969z"/>
		<path d="M983.357,32.61c0-10.354,7.377-18.041,17.979-18.041s17.98,6.512,17.98,16.863c0,10.354-7.379,18.041-17.98,18.041
			C990.736,49.473,983.357,42.964,983.357,32.61z M1005.738,34.408c0-10.604-1.178-17.111-4.711-17.111
			c-3.287,0-4.092,4.588-4.092,12.338c0,10.604,1.178,17.111,4.711,17.111C1004.931,46.746,1005.738,42.158,1005.738,34.408z"/>
		<path d="M1038.041,42.84c0,2.729,1.363,2.914,4.834,3.41v2.604h-20.893V46.25c2.295-0.188,3.287-0.372,3.287-2.23V18.724h-4.402
			v-2.79l4.402-1.056v-0.496c0-9.855,7.006-14.071,15.375-14.071c7.129,0,10.291,2.418,10.291,6.388
			c0,1.798-0.992,3.348-2.419,4.027h-6.385c0.187-0.868,0.31-1.923,0.31-3.038c0-2.17-0.187-4.34-2.045-4.34
			c-1.736,0-2.355,1.362-2.355,3.721v8.121h7.066v3.534h-7.066V42.84z"/>
		<path d="M1065.505,22.319l-3.285-2.106V18.29l13.824-3.722h2.48l-0.248,6.14c1.604-2.729,5.02-6.14,10.416-6.14
			c7.188,0,12.584,4.896,12.584,15.312c0,13.021-7.873,19.593-17.98,19.593c-2.229,0-4.092-0.372-5.02-1.056v8.433
			c0,2.17,1.108,2.23,4.588,2.542v2.604h-20.646v-2.604c2.293-0.188,3.285-0.372,3.285-2.229V22.319H1065.505z M1088.259,33.54
			c0-8.434-2.977-11.531-7.131-11.531c-0.992,0-1.858,0.124-2.852,0.561v17.547c0,3.655,0.737,6.197,3.774,6.197
			C1086.212,46.312,1088.259,40.732,1088.259,33.54z"/>
		<path d="M1133.953,42.034c0,1.237,0.123,2.542,1.549,2.542c0.807,0,1.611-0.188,1.922-0.312l0.439,1.858
			c-2.172,1.981-4.896,3.35-8.617,3.35c-3.781,0-6.51-1.859-7.625-5.146c-1.736,2.665-4.588,4.896-9.176,4.896
			c-5.332,0-9.113-2.914-9.113-8.434c0-5.456,3.719-7.688,8.059-9.176l10.045-3.474v-6.817c0-2.479-0.621-4.154-2.666-4.154
			c-2.17,0-2.977,1.922-2.977,4.772c0,1.486,0.248,3.038,0.621,4.59l-7.689,0.989c-1.858-0.619-3.223-2.17-3.223-4.523
			c0-5.892,6.076-8.434,13.824-8.434c9.053,0,14.633,2.666,14.633,11.035v16.434L1133.953,42.034L1133.953,42.034z M1121.429,42.468
			V30.999l-2.479,0.932c-1.984,0.742-3.349,1.733-3.349,5.396c0,3.1,1.054,5.456,4.029,5.456
			C1120.312,42.778,1120.808,42.655,1121.429,42.468z"/>
		<path d="M1139.906,46.312l-0.373-8.369h3.162c1.114,4.959,4.465,8.741,9.237,8.741c2.789,0,5.021-1.304,5.021-3.904
			c0-3.037-2.418-3.969-6.387-5.146c-7.191-2.105-11.103-5.207-11.103-11.717c0-7.378,5.578-11.348,13.328-11.348
			c4.277,0,8.246,1.116,10.912,2.854v7.438h-2.914c-0.621-3.904-3.41-7.502-7.688-7.502c-2.48,0-4.218,1.304-4.218,3.534
			c0,2.479,1.799,3.407,5.58,4.647c7.75,2.542,11.904,5.084,11.904,12.213c0,7.502-5.644,11.72-14.322,11.72
			C1146.664,49.474,1142.695,48.233,1139.906,46.312z"/>
		<path d="M1170.099,46.312l-0.37-8.369h3.161c1.115,4.959,4.464,8.741,9.236,8.741c2.791,0,5.021-1.304,5.021-3.904
			c0-3.037-2.418-3.969-6.386-5.146c-7.188-2.105-11.098-5.207-11.098-11.717c0-7.378,5.58-11.348,13.33-11.348
			c4.272,0,8.244,1.116,10.91,2.854v7.438h-2.914c-0.619-3.904-3.408-7.502-7.689-7.502c-2.479,0-4.215,1.304-4.215,3.534
			c0,2.479,1.797,3.407,5.58,4.647c7.748,2.542,11.902,5.084,11.902,12.213c0,7.502-5.646,11.72-14.32,11.72
			C1176.857,49.474,1172.89,48.233,1170.099,46.312z"/>
		<path d="M1215.544,44.018c0,1.858,0.992,2.046,3.287,2.23v2.604h-19.344V46.25c2.295-0.188,3.278-0.372,3.278-2.23v-21.7
			l-3.278-2.106V18.29l13.819-3.722h2.23v29.449L1215.544,44.018L1215.544,44.018z M1202.773,6.137c0-3.284,2.418-6.139,6.571-6.139
			c4.093,0,6.572,2.854,6.572,6.139c0,3.285-2.479,6.139-6.572,6.139C1205.191,12.275,1202.773,9.424,1202.773,6.137z"/>
		<path d="M1221.064,32.61c0-10.354,7.377-18.041,17.979-18.041s17.979,6.512,17.979,16.863c0,10.354-7.377,18.041-17.979,18.041
			S1221.064,42.964,1221.064,32.61z M1243.445,34.408c0-10.604-1.181-17.111-4.713-17.111c-3.285,0-4.093,4.588-4.093,12.338
			c0,10.604,1.179,17.111,4.713,17.111C1242.638,46.746,1243.445,42.158,1243.445,34.408z"/>
		<path d="M1284.115,25.853c0-2.294-0.744-3.846-3.844-3.846c-1.736,0-3.162,0.312-4.589,0.809v21.202
			c0,1.858,0.808,2.046,3.101,2.23v2.604h-19.156V46.25c2.295-0.188,3.285-0.372,3.285-2.23v-21.7l-3.285-2.106V18.29l13.826-3.722
			h2.479l-0.248,6.264c2.232-2.914,5.771-6.264,11.601-6.264c6.014,0,9.604,3.35,9.604,10.169v19.279
			c0,1.858,0.992,2.046,3.285,2.23v2.604h-19.156V46.25c2.296-0.188,3.105-0.372,3.105-2.23V25.853H1284.115z"/>
	</g>
</g>
</svg>
