<?xml version="1.0" encoding="utf-8"?>
<!-- Generator: Adobe Illustrator 16.0.0, SVG Export Plug-In . SVG Version: 6.00 Build 0)  -->
<!DOCTYPE svg PUBLIC "-//W3C//DTD SVG 1.1//EN" "http://www.w3.org/Graphics/SVG/1.1/DTD/svg11.dtd">
<svg version="1.1" id="Layer_1" xmlns="http://www.w3.org/2000/svg" xmlns:xlink="http://www.w3.org/1999/xlink" x="0px" y="0px"
	 width="1440px" height="62.641px" viewBox="0 0 1440 62.641" enable-background="new 0 0 1440 62.641" xml:space="preserve">
<g id="_x31_1">
	<g>
		<path d="M255.17,46.312l-0.372-8.369h3.162c1.116,4.959,4.463,8.741,9.237,8.741c2.79,0,5.021-1.304,5.021-3.904
			c0-3.037-2.417-3.969-6.385-5.146c-7.191-2.108-11.097-5.208-11.097-11.718c0-7.378,5.58-11.348,13.329-11.348
			c4.278,0,8.246,1.116,10.912,2.854v7.438h-2.914c-0.62-3.904-3.41-7.502-7.688-7.502c-2.479,0-4.216,1.304-4.216,3.534
			c0,2.479,1.798,3.407,5.58,4.647c7.75,2.542,11.903,5.084,11.903,12.213c0,7.502-5.642,11.72-14.321,11.72
			C261.928,49.474,257.96,48.233,255.17,46.312z"/>
		<path d="M287.596,6.882l-3.286-1.674V3.101l13.887-2.79h2.17v20.521c2.232-2.914,5.766-6.264,11.593-6.264
			c6.014,0,9.61,3.35,9.61,10.169v19.279c0,1.858,0.992,2.046,3.286,2.23v2.604h-19.157V46.25c2.293-0.188,3.1-0.372,3.1-2.23
			V25.853c0-2.294-0.744-3.846-3.844-3.846c-1.736,0-3.162,0.312-4.588,0.809v21.202c0,1.858,0.806,2.046,3.1,2.23v2.604H284.31
			V46.25c2.294-0.188,3.286-0.372,3.286-2.23V6.882z"/>
		<path d="M326.593,32.61c0-10.354,7.378-18.041,17.979-18.041c10.601,0,17.979,6.512,17.979,16.863
			c0,10.354-7.377,18.041-17.979,18.041C333.971,49.474,326.593,42.964,326.593,32.61z M348.974,34.408
			c0-10.604-1.178-17.111-4.712-17.111c-3.286,0-4.091,4.588-4.091,12.338c0,10.604,1.178,17.111,4.711,17.111
			C348.168,46.746,348.974,42.158,348.974,34.408z"/>
		<path d="M410.601,21.699c0.312-0.808,0.496-1.488,0.496-1.984c0-1.237-1.054-1.674-3.409-1.922v-2.604h10.85v2.604
			c-2.108,0.685-2.604,1.116-3.162,2.479L402.977,49.04h-4.217l-7.313-18.725l-8.806,18.725h-4.215l-13.33-28.768
			c-0.619-1.362-1.054-1.798-3.16-2.479v-2.604h19.715v2.604c-1.86,0.248-2.604,0.809-2.604,1.798c0,0.561,0.188,1.24,0.559,2.108
			l5.579,13.267l4.342-8.987l-2.232-5.703c-0.496-1.362-1.24-1.982-2.79-2.479V15.19h19.591v2.604
			c-2.542,0.312-3.72,0.561-3.72,2.046c0,0.496,0.124,1.116,0.372,1.86l4.773,12.521L410.601,21.699z"/>
		<path d="M430.318,32.61c0-10.354,7.378-18.041,17.979-18.041c10.604,0,17.979,6.512,17.979,16.863
			c0,10.354-7.377,18.041-17.979,18.041C437.696,49.474,430.318,42.964,430.318,32.61z M452.699,34.408
			c0-10.604-1.178-17.111-4.712-17.111c-3.286,0-4.091,4.588-4.091,12.338c0,10.604,1.178,17.111,4.711,17.111
			C451.893,46.746,452.699,42.158,452.699,34.408z"/>
		<path d="M485.001,42.84c0,2.729,1.364,2.914,4.836,3.41v2.604h-20.893V46.25c2.294-0.188,3.286-0.372,3.286-2.23V18.724h-4.402
			v-2.79l4.402-1.056v-0.496c0-9.855,7.005-14.071,15.375-14.071c7.129,0,10.291,2.418,10.291,6.388
			c0,1.798-0.991,3.348-2.418,4.027h-6.387c0.188-0.868,0.312-1.923,0.312-3.038c0-2.17-0.188-4.34-2.046-4.34
			c-1.736,0-2.356,1.362-2.356,3.721v8.121h7.068v3.534h-7.068V42.84L485.001,42.84z"/>
		<path d="M515.753,6.882l-3.286-1.674V3.101l13.887-2.79h2.17v20.521c2.232-2.914,5.768-6.264,11.595-6.264
			c6.014,0,9.608,3.35,9.608,10.169v19.279c0,1.858,0.992,2.046,3.286,2.23v2.604h-19.157V46.25c2.293-0.188,3.102-0.372,3.102-2.23
			V25.853c0-2.294-0.744-3.846-3.844-3.846c-1.736,0-3.162,0.312-4.589,0.809v21.202c0,1.858,0.807,2.046,3.101,2.23v2.604h-19.157
			V46.25c2.294-0.188,3.286-0.372,3.286-2.23L515.753,6.882L515.753,6.882z"/>
		<path d="M584.943,42.034c0,1.237,0.124,2.542,1.55,2.542c0.806,0,1.612-0.188,1.922-0.312l0.434,1.858
			c-2.17,1.981-4.896,3.35-8.613,3.35c-3.782,0-6.514-1.859-7.63-5.146c-1.732,2.665-4.586,4.896-9.175,4.896
			c-5.331,0-9.111-2.914-9.111-8.434c0-5.456,3.72-7.688,8.06-9.176l10.043-3.474v-6.817c0-2.479-0.62-4.154-2.666-4.154
			c-2.17,0-2.976,1.922-2.976,4.772c0,1.486,0.248,3.038,0.62,4.59l-7.688,0.989c-1.858-0.619-3.224-2.17-3.224-4.523
			c0-5.892,6.074-8.434,13.824-8.434c9.055,0,14.635,2.666,14.635,11.035L584.943,42.034L584.943,42.034z M572.419,42.468V30.999
			l-2.479,0.932c-1.982,0.742-3.35,1.733-3.35,5.396c0,3.1,1.057,5.456,4.03,5.456C571.304,42.778,571.8,42.655,572.419,42.468z"/>
		<path d="M614.579,25.853c0-2.294-0.744-3.846-3.844-3.846c-1.736,0-3.162,0.312-4.589,0.809v21.202
			c0,1.858,0.807,2.046,3.101,2.23v2.604H590.09V46.25c2.294-0.188,3.286-0.372,3.286-2.23v-21.7l-3.286-2.106V18.29l13.825-3.722
			h2.479l-0.246,6.264c2.229-2.914,5.766-6.264,11.593-6.264c6.014,0,9.608,3.35,9.608,10.169v19.279c0,1.858,0.99,2.046,3.284,2.23
			v2.604h-19.155V46.25c2.295-0.188,3.102-0.372,3.102-2.23L614.579,25.853L614.579,25.853z"/>
		<path d="M652.026,5.208V3.101l13.887-2.79h2.17v41.165c0,2.106,0.187,3.161,1.984,3.161h1.426v2.729l-13.949,2.106h-2.418
			l0.188-5.892c-2.545,3.968-5.952,5.892-10.105,5.892c-7.191,0-12.523-5.52-12.523-15.936c0-12.273,7.505-18.66,16.739-18.66
			c2.418,0,4.526,0.56,5.894,1.675V6.882L652.026,5.208z M645.578,29.82c0,7.627,2.604,12.712,7.005,12.712
			c0.868,0,1.798-0.124,2.728-0.438V24.49c0-3.782-0.74-5.768-3.72-5.768C647.5,18.724,645.578,23.125,645.578,29.82z"/>
		<path d="M674.532,46.312l-0.372-8.369h3.162c1.112,4.959,4.463,8.741,9.233,8.741c2.79,0,5.021-1.304,5.021-3.904
			c0-3.037-2.417-3.969-6.386-5.146c-7.191-2.105-11.101-5.207-11.101-11.717c0-7.378,5.58-11.348,13.329-11.348
			c4.278,0,8.246,1.116,10.912,2.854v7.438h-2.914c-0.62-3.904-3.41-7.502-7.688-7.502c-2.479,0-4.22,1.304-4.22,3.534
			c0,2.479,1.802,3.407,5.58,4.647C696.847,28.084,701,30.626,701,37.755c0,7.502-5.643,11.72-14.321,11.72
			C681.29,49.474,677.322,48.233,674.532,46.312z"/>
		<path d="M715.576,32.61c0-10.354,7.378-18.041,17.978-18.041c10.604,0,17.98,6.512,17.98,16.863
			c0,10.354-7.377,18.041-17.98,18.041C722.955,49.474,715.576,42.964,715.576,32.61z M737.957,34.408
			c0-10.604-1.178-17.111-4.711-17.111c-3.287,0-4.092,4.588-4.092,12.338c0,10.604,1.178,17.111,4.711,17.111
			C737.15,46.746,737.957,42.158,737.957,34.408z"/>
		<path d="M770.257,42.84c0,2.729,1.365,2.914,4.836,3.41v2.604H754.2V46.25c2.295-0.188,3.287-0.372,3.287-2.23V18.724h-4.402
			v-2.79l4.402-1.056v-0.496c0-9.855,7.004-14.071,15.375-14.071c7.129,0,10.291,2.418,10.291,6.388
			c0,1.798-0.992,3.348-2.418,4.027h-6.39c0.189-0.868,0.312-1.923,0.312-3.038c0-2.17-0.189-4.34-2.045-4.34
			c-1.736,0-2.357,1.362-2.357,3.721v8.121h7.068v3.534h-7.068L770.257,42.84L770.257,42.84z"/>
		<path d="M813.224,15.189h6.884v3.534h-6.884v20.521c0,2.666,1.056,3.844,3.162,3.844c1.488,0,2.914-0.558,4.341-1.55l0.991,1.55
			c-2.479,4.153-6.139,6.388-11.346,6.388c-5.951,0-10.104-2.978-10.104-10.416V18.724h-3.349V16.43
			c5.271-1.86,10.104-5.52,13.578-9.855h2.727V15.189L813.224,15.189z"/>
		<path d="M839.138,44.018c0,1.858,0.992,2.046,3.287,2.23v2.604h-19.344V46.25c2.295-0.188,3.287-0.372,3.287-2.23v-21.7
			l-3.287-2.106V18.29l13.826-3.722h2.229v29.449L839.138,44.018L839.138,44.018z M826.369,6.137c0-3.284,2.416-6.139,6.57-6.139
			c4.092,0,6.569,2.854,6.569,6.139c0,3.285-2.479,6.139-6.569,6.139C828.787,12.275,826.369,9.424,826.369,6.137z"/>
		<path d="M888.738,25.667c0-2.294-0.744-3.72-3.353-3.72c-1.608,0-2.852,0.434-4.215,0.93v21.143c0,1.858,0.562,2.046,2.854,2.23
			v2.604H865.55V46.25c2.293-0.188,2.854-0.372,2.854-2.23V25.667c0-2.294-0.744-3.72-3.351-3.72c-1.608,0-2.852,0.37-4.215,0.866
			v21.202c0,1.858,0.558,2.046,2.854,2.23v2.604h-18.91V46.25c2.293-0.188,3.285-0.372,3.285-2.23v-21.7l-3.285-2.106V18.29
			l13.824-3.722h2.479l-0.248,6.388c2.17-3.41,5.641-6.388,11.285-6.388c4.836,0,7.996,1.859,8.803,6.512
			c2.107-3.35,5.951-6.512,11.408-6.512c5.766,0,9.174,3.286,9.174,9.731v19.717c0,1.858,0.992,2.046,3.287,2.23v2.604h-18.91V46.25
			c2.295-0.188,2.855-0.372,2.855-2.23V25.667H888.738z"/>
		<path d="M937.718,28.457v1.55h-19.651c0,6.819,3.844,11.159,9.299,11.159c3.904,0,6.881-1.302,9.236-4.34l1.303,0.806
			c-1.736,7.192-6.635,11.844-14.754,11.844c-9.238,0-16.615-5.892-16.615-16.739c0-11.222,7.996-18.164,17.172-18.164
			C933.007,14.569,937.718,20.335,937.718,28.457z M918.126,26.969h8.742c0-6.138-0.992-9.672-3.967-9.672
			C919.8,17.297,918.375,21.141,918.126,26.969z"/>
		<path d="M951.855,32.61c0-10.354,7.377-18.041,17.979-18.041s17.979,6.512,17.979,16.863c0,10.354-7.377,18.041-17.979,18.041
			S951.855,42.964,951.855,32.61z M974.236,34.408c0-10.604-1.181-17.111-4.713-17.111c-3.285,0-4.093,4.588-4.093,12.338
			c0,10.604,1.179,17.111,4.714,17.111C973.429,46.746,974.236,42.158,974.236,34.408z"/>
		<path d="M1006.537,42.84c0,2.729,1.363,2.914,4.836,3.41v2.604H990.48V46.25c2.293-0.188,3.284-0.372,3.284-2.23V18.724h-4.401
			v-2.79l4.401-1.056v-0.496c0-9.855,7.007-14.071,15.375-14.071c7.132,0,10.291,2.418,10.291,6.388
			c0,1.798-0.989,3.348-2.418,4.027h-6.385c0.187-0.868,0.312-1.923,0.312-3.038c0-2.17-0.187-4.34-2.048-4.34
			c-1.735,0-2.354,1.362-2.354,3.721v8.121h7.068v3.534h-7.068V42.84L1006.537,42.84z"/>
		<path d="M1054.089,25.853c0-2.294-0.744-3.846-3.844-3.846c-1.736,0-3.162,0.312-4.588,0.809v21.202c0,1.858,0.805,2.046,3.1,2.23
			v2.604h-19.156V46.25c2.294-0.188,3.285-0.372,3.285-2.23v-21.7l-3.285-2.106V18.29l13.824-3.722h2.48l-0.248,6.264
			c2.229-2.914,5.766-6.264,11.594-6.264c6.014,0,9.606,3.35,9.606,10.169v19.279c0,1.858,0.988,2.046,3.281,2.23v2.604h-19.149
			V46.25c2.293-0.188,3.1-0.372,3.1-2.23V25.853L1054.089,25.853z"/>
		<path d="M1103.068,28.457v1.55h-19.652c0,6.819,3.844,11.159,9.299,11.159c3.906,0,6.881-1.302,9.238-4.34l1.301,0.806
			c-1.736,7.192-6.633,11.844-14.754,11.844c-9.238,0-16.615-5.892-16.615-16.739c0-11.222,7.996-18.164,17.172-18.164
			C1098.357,14.569,1103.068,20.335,1103.068,28.457z M1083.476,26.969h8.742c0-6.138-0.992-9.672-3.967-9.672
			C1085.15,17.297,1083.724,21.141,1083.476,26.969z"/>
		<path d="M1137.229,28.457v1.55h-19.652c0,6.819,3.844,11.159,9.299,11.159c3.906,0,6.883-1.302,9.238-4.34l1.303,0.806
			c-1.736,7.192-6.635,11.844-14.756,11.844c-9.238,0-16.615-5.892-16.615-16.739c0-11.222,7.998-18.164,17.174-18.164
			C1132.517,14.569,1137.229,20.335,1137.229,28.457z M1117.638,26.969h8.742c0-6.138-0.992-9.672-3.969-9.672
			C1119.312,17.297,1117.886,21.141,1117.638,26.969z"/>
		<path d="M1159.548,5.208V3.101l13.887-2.79h2.171v41.165c0,2.106,0.186,3.161,1.983,3.161h1.426v2.729l-13.948,2.106h-2.418
			l0.186-5.892c-2.541,3.968-5.951,5.892-10.104,5.892c-7.189,0-12.521-5.52-12.521-15.936c0-12.273,7.502-18.66,16.738-18.66
			c2.418,0,4.522,0.56,5.891,1.675V6.882L1159.548,5.208z M1153.099,29.82c0,7.627,2.605,12.712,7.007,12.712
			c0.868,0,1.799-0.124,2.729-0.438V24.49c0-3.782-0.744-5.768-3.721-5.768C1155.021,18.724,1153.099,23.125,1153.099,29.82z"/>
	</g>
</g>
</svg>
