<?xml version="1.0" encoding="utf-8"?>
<!-- Generator: Adobe Illustrator 16.0.0, SVG Export Plug-In . SVG Version: 6.00 Build 0)  -->
<!DOCTYPE svg PUBLIC "-//W3C//DTD SVG 1.1//EN" "http://www.w3.org/Graphics/SVG/1.1/DTD/svg11.dtd">
<svg version="1.1" id="Layer_1" xmlns="http://www.w3.org/2000/svg" xmlns:xlink="http://www.w3.org/1999/xlink" x="0px" y="0px"
	 width="1440px" height="62.641px" viewBox="0 0 1440 62.641" enable-background="new 0 0 1440 62.641" xml:space="preserve">
<g id="_x37_">
	<g>
		<path d="M215.319,25.667c0-2.294-0.744-3.72-3.348-3.72c-1.612,0-2.852,0.434-4.216,0.93v21.143c0,1.858,0.558,2.046,2.852,2.23
			v2.604h-18.474V46.25c2.294-0.188,2.852-0.372,2.852-2.23V25.667c0-2.294-0.744-3.72-3.348-3.72c-1.612,0-2.852,0.369-4.216,0.865
			v21.202c0,1.858,0.558,2.046,2.852,2.23v2.604h-18.909v-2.601c2.294-0.188,3.286-0.372,3.286-2.23v-21.7l-3.286-2.105V18.29
			l13.825-3.723h2.48l-0.248,6.389c2.17-3.41,5.642-6.389,11.284-6.389c4.835,0,7.998,1.859,8.803,6.513
			c2.108-3.351,5.952-6.513,11.407-6.513c5.766,0,9.176,3.286,9.176,9.731v19.717c0,1.858,0.992,2.046,3.286,2.23v2.604h-18.909
			V46.25c2.293-0.188,2.852-0.372,2.852-2.23L215.319,25.667L215.319,25.667z"/>
		<path d="M233.115,32.61c0-10.354,7.378-18.041,17.979-18.041c10.604,0,17.979,6.513,17.979,16.863
			c0,10.354-7.377,18.041-17.979,18.041C240.493,49.474,233.115,42.964,233.115,32.61z M255.496,34.408
			c0-10.604-1.178-17.111-4.712-17.111c-3.286,0-4.091,4.588-4.091,12.338c0,10.604,1.178,17.111,4.711,17.111
			C254.689,46.746,255.496,42.158,255.496,34.408z"/>
		<path d="M287.239,15.189h6.881v3.534h-6.881v20.521c0,2.666,1.054,3.844,3.162,3.844c1.488,0,2.914-0.558,4.34-1.55l0.992,1.55
			c-2.479,4.153-6.138,6.388-11.345,6.388c-5.952,0-10.105-2.978-10.105-10.416V18.724h-3.348V16.43
			c5.27-1.86,10.105-5.52,13.577-9.854h2.729L287.239,15.189L287.239,15.189z"/>
		<path d="M300.136,6.882l-3.286-1.674V3.101l13.887-2.79h2.17v20.521c2.232-2.914,5.766-6.265,11.593-6.265
			c6.014,0,9.61,3.351,9.61,10.168v19.28c0,1.858,0.992,2.046,3.286,2.23v2.604h-19.157V46.25c2.293-0.188,3.1-0.372,3.1-2.23
			V25.853c0-2.294-0.744-3.846-3.844-3.846c-1.736,0-3.162,0.312-4.588,0.809v21.202c0,1.858,0.806,2.046,3.1,2.23v2.604H296.85
			V46.25c2.294-0.188,3.286-0.372,3.286-2.23V6.882z"/>
		<path d="M370.318,28.457v1.55h-19.653c0,6.819,3.844,11.159,9.299,11.159c3.906,0,6.881-1.302,9.237-4.34l1.302,0.806
			c-1.736,7.192-6.634,11.844-14.755,11.844c-9.237,0-16.615-5.892-16.615-16.739c0-11.222,7.998-18.164,17.173-18.164
			C365.605,14.569,370.318,20.335,370.318,28.457z M350.727,26.969h8.741c0-6.138-0.992-9.672-3.968-9.672
			C352.401,17.297,350.975,21.141,350.727,26.969z"/>
		<path d="M388.855,42.84c0,2.729,1.361,2.914,4.836,3.41v2.604h-20.896V46.25c2.294-0.188,3.286-0.372,3.286-2.23v-21.7
			l-3.286-2.105V18.29l13.825-3.723h2.479l-0.248,9.675c2.355-7.439,4.649-9.675,8.617-9.675c1.553,0,2.604,0.438,3.286,1.057v9.482
			h-1.609c-3.971,0-7.625,0.124-10.292,1.734L388.855,42.84L388.855,42.84z"/>
		<path d="M414.089,32.61c0-10.354,7.378-18.041,17.979-18.041c10.601,0,17.979,6.513,17.979,16.863
			c0,10.354-7.377,18.041-17.979,18.041C421.467,49.474,414.089,42.964,414.089,32.61z M436.47,34.408
			c0-10.604-1.178-17.111-4.712-17.111c-3.286,0-4.091,4.588-4.091,12.338c0,10.604,1.178,17.111,4.711,17.111
			C435.664,46.746,436.47,42.158,436.47,34.408z"/>
		<path d="M468.771,42.84c0,2.729,1.362,2.914,4.837,3.41v2.604h-20.896V46.25c2.294-0.188,3.286-0.372,3.286-2.23V18.724h-4.402
			v-2.79L456,14.879v-0.496c0-9.855,7.005-14.071,15.375-14.071c7.129,0,10.292,2.418,10.292,6.389c0,1.798-0.992,3.348-2.418,4.026
			h-6.386c0.186-0.868,0.31-1.923,0.31-3.038c0-2.17-0.186-4.34-2.046-4.34c-1.736,0-2.355,1.362-2.355,3.721v8.121h7.067v3.534
			h-7.067V42.84L468.771,42.84z"/>
		<path d="M496.238,22.319l-3.286-2.105V18.29l13.825-3.723h2.479l-0.248,6.141c1.612-2.729,5.022-6.141,10.416-6.141
			c7.192,0,12.585,4.896,12.585,15.312c0,13.021-7.874,19.592-17.979,19.592c-2.232,0-4.093-0.371-5.022-1.055v8.433
			c0,2.17,1.116,2.23,4.588,2.542v2.604h-20.645V59.39c2.293-0.188,3.286-0.372,3.286-2.229L496.238,22.319L496.238,22.319z
			 M518.991,33.54c0-8.435-2.979-11.531-7.129-11.531c-0.992,0-1.86,0.124-2.854,0.561v17.548c0,3.654,0.744,6.196,3.782,6.196
			C516.945,46.312,518.991,40.732,518.991,33.54z"/>
		<path d="M566.296,28.457v1.55h-19.653c0,6.819,3.849,11.159,9.304,11.159c3.901,0,6.881-1.302,9.232-4.34l1.307,0.806
			c-1.736,7.192-6.639,11.844-14.759,11.844c-9.233,0-16.611-5.892-16.611-16.739c0-11.222,7.998-18.164,17.173-18.164
			C561.584,14.569,566.296,20.335,566.296,28.457z M546.705,26.969h8.741c0-6.138-0.992-9.672-3.973-9.672
			C548.379,17.297,546.953,21.141,546.705,26.969z"/>
		<path d="M599.154,42.034c0,1.236,0.124,2.542,1.55,2.542c0.806,0,1.612-0.188,1.922-0.312l0.435,1.858
			c-2.171,1.98-4.896,3.35-8.613,3.35c-3.782,0-6.515-1.859-7.626-5.146c-1.736,2.665-4.591,4.896-9.179,4.896
			c-5.332,0-9.109-2.914-9.109-8.434c0-5.456,3.72-7.688,8.06-9.177l10.043-3.475v-6.815c0-2.479-0.618-4.154-2.666-4.154
			c-2.17,0-2.976,1.922-2.976,4.771c0,1.486,0.248,3.038,0.62,4.591l-7.688,0.988c-1.857-0.619-3.224-2.17-3.224-4.522
			c0-5.893,6.075-8.435,13.825-8.435c9.051,0,14.631,2.666,14.631,11.034L599.154,42.034L599.154,42.034z M586.631,42.468V30.999
			l-2.479,0.932c-1.984,0.742-3.353,1.733-3.353,5.396c0,3.1,1.058,5.456,4.03,5.456C585.515,42.778,586.011,42.655,586.631,42.468z
			"/>
		<path d="M620.359,42.84c0,2.729,1.359,2.914,4.836,3.41v2.604H604.3V46.25c2.294-0.188,3.286-0.372,3.286-2.23v-21.7l-3.286-2.105
			V18.29l13.825-3.723h2.48l-0.248,9.675c2.354-7.439,4.646-9.675,8.613-9.675c1.555,0,2.604,0.438,3.286,1.057v9.482h-1.608
			c-3.972,0-7.625,0.124-10.291,1.734L620.359,42.84L620.359,42.84z"/>
		<path d="M649.438,44.018c0,1.858,0.991,2.046,3.285,2.23v2.604H633.38V46.25c2.294-0.188,3.286-0.372,3.286-2.23V6.882
			l-3.286-1.674V3.101l13.888-2.79h2.172L649.438,44.018L649.438,44.018z"/>
		<path d="M666.735,32.61c0-10.354,7.378-18.041,17.979-18.041c10.604,0,17.979,6.513,17.979,16.863
			c0,10.354-7.377,18.041-17.979,18.041C674.113,49.474,666.735,42.964,666.735,32.61z M689.116,34.408
			c0-10.604-1.179-17.111-4.712-17.111c-3.286,0-4.092,4.588-4.092,12.338c0,10.604,1.179,17.111,4.712,17.111
			C688.311,46.746,689.116,42.158,689.116,34.408z"/>
		<path d="M721.417,42.84c0,2.729,1.366,2.914,4.836,3.41v2.604h-20.892V46.25c2.294-0.188,3.285-0.372,3.285-2.23V18.724h-4.401
			v-2.79l4.401-1.056v-0.496c0-9.855,7.004-14.071,15.375-14.071c7.131,0,10.291,2.418,10.291,6.389c0,1.798-0.99,3.348-2.419,4.026
			h-6.387c0.189-0.868,0.312-1.923,0.312-3.038c0-2.17-0.188-4.34-2.05-4.34c-1.73,0-2.353,1.362-2.353,3.721v8.121h7.068v3.534
			h-7.068L721.417,42.84L721.417,42.84z"/>
		<path d="M793.646,21.699c0.311-0.809,0.493-1.488,0.493-1.984c0-1.237-1.055-1.674-3.407-1.922v-2.604h10.85v2.604
			c-2.107,0.685-2.604,1.116-3.162,2.479L786.021,49.04h-4.218l-7.311-18.726l-8.81,18.726h-4.215l-13.33-28.769
			c-0.619-1.361-1.053-1.798-3.162-2.479v-2.604h19.722v2.604c-1.859,0.248-2.605,0.809-2.605,1.798c0,0.561,0.189,1.24,0.562,2.108
			l5.578,13.267l4.342-8.987l-2.232-5.703c-0.496-1.361-1.24-1.981-2.789-2.479V15.19h19.59v2.604
			c-2.543,0.312-3.721,0.561-3.721,2.046c0,0.496,0.125,1.116,0.373,1.86l4.773,12.521L793.646,21.699z"/>
		<path d="M819.316,44.018c0,1.858,0.989,2.046,3.282,2.23v2.604h-19.342V46.25c2.293-0.188,3.285-0.372,3.285-2.23v-21.7
			l-3.285-2.105V18.29l13.824-3.723h2.229v29.449L819.316,44.018L819.316,44.018z M806.544,6.137c0-3.284,2.418-6.139,6.572-6.139
			c4.092,0,6.563,2.854,6.563,6.139c0,3.285-2.479,6.139-6.563,6.139C808.962,12.275,806.544,9.424,806.544,6.137z"/>
		<path d="M825.763,46.312l-0.37-8.369h3.161c1.115,4.959,4.464,8.741,9.236,8.741c2.791,0,5.021-1.304,5.021-3.904
			c0-3.036-2.418-3.969-6.386-5.146c-7.188-2.105-11.098-5.207-11.098-11.717c0-7.378,5.58-11.349,13.33-11.349
			c4.272,0,8.244,1.116,10.91,2.854v7.438h-2.914c-0.619-3.903-3.408-7.502-7.689-7.502c-2.479,0-4.215,1.305-4.215,3.534
			c0,2.479,1.797,3.407,5.58,4.647c7.748,2.542,11.899,5.084,11.899,12.213c0,7.502-5.643,11.72-14.317,11.72
			C832.521,49.474,828.554,48.233,825.763,46.312z"/>
		<path d="M874.681,5.208V3.101l13.888-2.79h2.17v41.165c0,2.106,0.186,3.161,1.983,3.161h1.427v2.729l-13.949,2.105h-2.418
			l0.186-5.892c-2.541,3.968-5.951,5.892-10.104,5.892c-7.191,0-12.523-5.52-12.523-15.936c0-12.274,7.502-18.66,16.738-18.66
			c2.418,0,4.525,0.56,5.891,1.675v-9.67L874.681,5.208z M868.232,29.82c0,7.627,2.604,12.713,7.006,12.713
			c0.869,0,1.799-0.124,2.729-0.438V24.49c0-3.782-0.744-5.77-3.721-5.77C870.154,18.724,868.232,23.125,868.232,29.82z"/>
		<path d="M896.257,32.61c0-10.354,7.377-18.041,17.979-18.041c10.602,0,17.979,6.513,17.979,16.863
			c0,10.354-7.377,18.041-17.979,18.041C903.634,49.473,896.257,42.964,896.257,32.61z M918.638,34.408
			c0-10.604-1.18-17.111-4.713-17.111c-3.285,0-4.092,4.588-4.092,12.338c0,10.604,1.178,17.111,4.713,17.111
			C917.832,46.746,918.638,42.158,918.638,34.408z"/>
		<path d="M978.775,25.667c0-2.294-0.744-3.72-3.349-3.72c-1.61,0-2.852,0.434-4.215,0.93v21.143c0,1.858,0.558,2.046,2.853,2.23
			v2.604h-18.476V46.25c2.293-0.188,2.853-0.372,2.853-2.23V25.667c0-2.294-0.744-3.72-3.349-3.72c-1.612,0-2.852,0.369-4.217,0.865
			v21.202c0,1.858,0.56,2.046,2.853,2.23v2.604H934.82v-2.601c2.295-0.188,3.285-0.372,3.285-2.23v-21.7l-3.285-2.105V18.29
			l13.826-3.723h2.479l-0.248,6.389c2.17-3.41,5.643-6.389,11.283-6.389c4.836,0,7.998,1.859,8.805,6.513
			c2.107-3.351,5.951-6.513,11.406-6.513c5.766,0,9.176,3.286,9.176,9.731v19.717c0,1.858,0.992,2.046,3.287,2.23v2.604h-18.91
			V46.25c2.295-0.188,2.855-0.372,2.855-2.23V25.667H978.775z"/>
		<path d="M1008.352,32.61c0-10.354,7.377-18.041,17.979-18.041s17.979,6.513,17.979,16.863c0,10.354-7.377,18.041-17.979,18.041
			S1008.352,42.964,1008.352,32.61z M1030.732,34.408c0-10.604-1.181-17.111-4.713-17.111c-3.285,0-4.093,4.588-4.093,12.338
			c0,10.604,1.179,17.111,4.713,17.111C1029.925,46.746,1030.732,42.158,1030.732,34.408z"/>
		<path d="M1063.033,42.84c0,2.729,1.363,2.914,4.836,3.41v2.604h-20.893V46.25c2.293-0.188,3.284-0.372,3.284-2.23V18.724h-4.401
			v-2.79l4.401-1.056v-0.496c0-9.855,7.006-14.071,15.375-14.071c7.131,0,10.291,2.418,10.291,6.389
			c0,1.798-0.989,3.348-2.418,4.026h-6.385c0.186-0.868,0.311-1.923,0.311-3.038c0-2.17-0.186-4.34-2.047-4.34
			c-1.735,0-2.354,1.362-2.354,3.721v8.121h7.067v3.534h-7.067V42.84L1063.033,42.84z"/>
		<path d="M1117.158,28.457v1.55h-19.652c0,6.819,3.844,11.159,9.299,11.159c3.906,0,6.881-1.302,9.238-4.34l1.301,0.806
			c-1.729,7.192-6.633,11.844-14.754,11.844c-9.238,0-16.615-5.892-16.615-16.739c0-11.222,7.996-18.164,17.181-18.164
			C1112.447,14.569,1117.158,20.335,1117.158,28.457z M1097.566,26.969h8.741c0-6.138-0.991-9.672-3.967-9.672
			C1099.24,17.297,1097.814,21.141,1097.566,26.969z"/>
		<path d="M1135.138,44.018c0,1.858,0.992,2.046,3.285,2.23v2.604h-19.342V46.25c2.293-0.188,3.285-0.372,3.285-2.23V6.882
			l-3.285-1.674V3.101l13.887-2.79h2.17V44.018z"/>
		<path d="M1160,5.208V3.101l13.887-2.79h2.17v41.165c0,2.106,0.189,3.161,1.984,3.161h1.426v2.729l-13.949,2.105h-2.418
			l0.189-5.892c-2.541,3.968-5.951,5.892-10.105,5.892c-7.188,0-12.52-5.52-12.52-15.936c0-12.274,7.502-18.66,16.738-18.66
			c2.418,0,4.522,0.56,5.891,1.675v-9.67L1160,5.208z M1153.55,29.82c0,7.627,2.605,12.713,7.006,12.713
			c0.869,0,1.8-0.124,2.729-0.438V24.49c0-3.782-0.744-5.77-3.721-5.77C1155.472,18.724,1153.55,23.125,1153.55,29.82z"/>
		<path d="M1212.759,28.457v1.55h-19.651c0,6.819,3.844,11.159,9.299,11.159c3.906,0,6.881-1.302,9.238-4.34l1.301,0.806
			c-1.736,7.192-6.633,11.844-14.754,11.844c-9.238,0-16.615-5.892-16.615-16.739c0-11.222,7.996-18.164,17.172-18.164
			C1208.048,14.569,1212.759,20.335,1212.759,28.457z M1193.167,26.969h8.742c0-6.138-0.992-9.672-3.976-9.672
			C1194.841,17.297,1193.416,21.141,1193.167,26.969z"/>
		<path d="M1231.296,42.84c0,2.729,1.365,2.914,4.836,3.41v2.604h-20.893V46.25c2.295-0.188,3.285-0.372,3.285-2.23v-21.7
			l-3.285-2.105V18.29l13.826-3.723h2.479l-0.248,9.675c2.357-7.439,4.65-9.675,8.617-9.675c1.551,0,2.604,0.438,3.287,1.057v9.482
			h-1.611c-3.969,0-7.627,0.124-10.293,1.734V42.84L1231.296,42.84z"/>
		<path d="M1245.681,46.312l-0.37-8.369h3.161c1.115,4.959,4.464,8.741,9.236,8.741c2.791,0,5.021-1.304,5.021-3.904
			c0-3.036-2.418-3.969-6.386-5.146c-7.188-2.105-11.098-5.207-11.098-11.717c0-7.378,5.58-11.349,13.33-11.349
			c4.271,0,8.244,1.116,10.91,2.854v7.438h-2.914c-0.619-3.903-3.408-7.502-7.689-7.502c-2.479,0-4.215,1.305-4.215,3.534
			c0,2.479,1.797,3.407,5.58,4.647c7.748,2.542,11.902,5.084,11.902,12.213c0,7.502-5.646,11.72-14.32,11.72
			C1252.439,49.474,1248.472,48.233,1245.681,46.312z"/>
	</g>
</g>
</svg>
