<?xml version="1.0" encoding="utf-8"?>
<!-- Generator: Adobe Illustrator 16.0.0, SVG Export Plug-In . SVG Version: 6.00 Build 0)  -->
<!DOCTYPE svg PUBLIC "-//W3C//DTD SVG 1.1//EN" "http://www.w3.org/Graphics/SVG/1.1/DTD/svg11.dtd">
<svg version="1.1" id="Layer_1" xmlns="http://www.w3.org/2000/svg" xmlns:xlink="http://www.w3.org/1999/xlink" x="0px" y="0px"
	 width="1440px" height="62.641px" viewBox="0 0 1440 62.641" enable-background="new 0 0 1440 62.641" xml:space="preserve">
<g id="_x31_7">
	<g>
		<path d="M239.885,40.668c3.534,0,6.138-1.112,8.06-3.845l1.488,0.932c-2.046,7.997-7.315,11.407-14.507,11.407
			c-8.803,0-15.685-6.139-15.685-16.431c0-10.604,6.944-18.478,17.483-18.478c6.323,0,11.779,2.355,11.779,8.122
			c0,2.541-1.488,4.094-2.914,4.711h-6.386c0.186-1.484,0.248-2.665,0.248-3.72c0-3.721-0.992-6.139-3.72-6.139
			c-3.472,0-5.456,4.647-5.456,10.851C230.275,35.896,233.747,40.668,239.885,40.668z"/>
		<path d="M254.456,6.572l-3.286-1.674V2.79L265.057,0h2.17v20.521c2.232-2.914,5.766-6.265,11.594-6.265
			c6.013,0,9.609,3.351,9.609,10.169v19.279c0,1.859,0.992,2.046,3.286,2.231v2.604h-19.157v-2.6c2.294-0.188,3.1-0.372,3.1-2.231
			V25.542c0-2.294-0.744-3.845-3.844-3.845c-1.736,0-3.162,0.312-4.588,0.808v21.202c0,1.859,0.806,2.046,3.1,2.231v2.604h-19.158
			V45.94c2.294-0.188,3.286-0.372,3.286-2.231L254.456,6.572L254.456,6.572z"/>
		<path d="M329.411,41.165c0,2.107,0.186,3.162,1.984,3.162h1.426v2.729l-13.949,2.105h-2.418l0.186-6.076
			c-2.108,2.854-5.394,6.076-11.16,6.076c-5.58,0-9.547-3.349-9.547-10.603V23.868c0-1.735-0.434-3.161-2.17-3.721l-0.93-0.312
			v-2.479l13.887-3.103h2.355l-0.372,8.187v15.003c0,2.854,1.116,4.465,3.906,4.465c1.55,0,2.479-0.188,4.03-0.683V23.868
			c0-1.735-0.434-3.161-2.17-3.721l-0.93-0.312v-2.479l13.887-3.103h2.356l-0.372,8.187L329.411,41.165L329.411,41.165z"/>
		<path d="M359.543,25.542c0-2.294-0.744-3.845-3.844-3.845c-1.736,0-3.162,0.312-4.588,0.808v21.202c0,1.859,0.806,2.046,3.1,2.231
			v2.604h-19.157V45.94c2.294-0.188,3.286-0.372,3.286-2.231v-21.7l-3.286-2.105V17.98l13.825-3.723h2.48l-0.248,6.265
			c2.23-2.914,5.766-6.265,11.593-6.265c6.014,0,9.61,3.351,9.61,10.169v19.279c0,1.859,0.99,2.046,3.284,2.231v2.604h-19.155V45.94
			c2.293-0.188,3.1-0.372,3.1-2.231V25.542L359.543,25.542z"/>
		<path d="M380.5,6.572l-3.286-1.674V2.79L391.101,0h2.171v43.707c0,1.859,0.991,2.046,3.285,2.231v2.604h-19.343V45.94
			c2.294-0.188,3.286-0.372,3.286-2.231V6.572L380.5,6.572z M403.066,22.504c1.734-1.551,2.106-2.354,2.106-3.162
			c0-1.113-0.806-1.55-3.658-1.857V14.88h14.445v2.604c-2.046,0.248-3.534,0.56-5.208,2.229l-6.572,6.323l12.957,20.707v1.798
			h-13.143L393.64,30.997L403.066,22.504z"/>
		<path d="M430.161,32.299c0-10.354,7.378-18.041,17.979-18.041c10.604,0,17.979,6.513,17.979,16.863
			c0,10.354-7.377,18.041-17.979,18.041C437.539,49.163,430.161,42.654,430.161,32.299z M452.542,34.098
			c0-10.604-1.178-17.111-4.712-17.111c-3.286,0-4.091,4.588-4.091,12.338c0,10.604,1.178,17.111,4.711,17.111
			C451.735,46.436,452.542,41.848,452.542,34.098z"/>
		<path d="M484.843,42.53c0,2.729,1.364,2.914,4.836,3.41v2.604h-20.893V45.94c2.294-0.188,3.286-0.372,3.286-2.231V18.413h-4.402
			v-2.79l4.402-1.055v-0.496C472.072,4.216,479.077,0,487.447,0c7.129,0,10.292,2.418,10.292,6.388c0,1.799-0.992,3.349-2.418,4.027
			h-6.388c0.188-0.868,0.312-1.922,0.312-3.038c0-2.17-0.188-4.34-2.046-4.34c-1.736,0-2.356,1.363-2.356,3.721v8.121h7.068v3.534
			h-7.068V42.53z"/>
		<path d="M528.429,40.668c3.534,0,6.142-1.112,8.062-3.845l1.484,0.932c-2.046,7.997-7.312,11.407-14.505,11.407
			c-8.803,0-15.685-6.139-15.685-16.431c0-10.604,6.942-18.478,17.479-18.478c6.323,0,11.779,2.355,11.779,8.122
			c0,2.541-1.488,4.094-2.914,4.711h-6.386c0.186-1.484,0.248-2.665,0.248-3.72c0-3.721-0.992-6.139-3.72-6.139
			c-3.475,0-5.459,4.647-5.459,10.851C518.819,35.896,522.291,40.668,528.429,40.668z"/>
		<path d="M543,6.572l-3.286-1.674V2.79L553.602,0h2.17v20.521c2.231-2.914,5.769-6.265,11.597-6.265
			c6.013,0,9.605,3.351,9.605,10.169v19.279c0,1.859,0.992,2.046,3.286,2.231v2.604h-19.156v-2.6
			c2.295-0.188,3.103-0.372,3.103-2.231V25.542c0-2.294-0.744-3.845-3.844-3.845c-1.736,0-3.162,0.312-4.591,0.808v21.202
			c0,1.859,0.809,2.046,3.103,2.231v2.604h-19.157V45.94c2.294-0.188,3.286-0.372,3.286-2.231L543,6.572L543,6.572z"/>
		<path d="M612.189,41.724c0,1.236,0.121,2.542,1.55,2.542c0.806,0,1.608-0.188,1.922-0.312l0.434,1.859
			c-2.17,1.98-4.896,3.349-8.616,3.349c-3.779,0-6.511-1.859-7.627-5.146c-1.732,2.665-4.586,4.896-9.175,4.896
			c-5.332,0-9.109-2.914-9.109-8.433c0-5.456,3.72-7.688,8.06-9.177l10.043-3.474v-6.817c0-2.479-0.62-4.153-2.666-4.153
			c-2.17,0-2.976,1.922-2.976,4.771c0,1.487,0.248,3.038,0.616,4.59l-7.688,0.989c-1.86-0.619-3.224-2.17-3.224-4.522
			c0-5.893,6.071-8.435,13.821-8.435c9.055,0,14.635,2.666,14.635,11.035V41.724L612.189,41.724z M599.666,42.157V30.689
			l-2.479,0.931c-1.982,0.743-3.35,1.734-3.35,5.396c0,3.1,1.055,5.456,4.03,5.456C598.55,42.467,599.046,42.344,599.666,42.157z"/>
		<path d="M641.825,25.542c0-2.294-0.744-3.845-3.845-3.845c-1.735,0-3.161,0.312-4.591,0.808v21.202
			c0,1.859,0.81,2.046,3.104,2.231v2.604h-19.157V45.94c2.294-0.188,3.286-0.372,3.286-2.231v-21.7l-3.286-2.105V17.98l13.825-3.723
			h2.479l-0.248,6.265c2.231-2.914,5.769-6.265,11.596-6.265c6.014,0,9.606,3.351,9.606,10.169v19.279
			c0,1.859,0.992,2.046,3.286,2.231v2.604h-19.156V45.94c2.293-0.188,3.103-0.372,3.103-2.231L641.825,25.542L641.825,25.542z"/>
		<path d="M667.617,35.896c-0.81,0.744-1.55,1.55-1.55,2.729c0,0.933,0.62,1.674,1.674,1.674h13.825
			c8.928,0,12.396,3.847,12.396,9.55c0,8.119-7.625,12.521-19.281,12.521c-10.167,0-16.487-2.604-16.487-7.503
			c0-3.036,3.1-4.34,5.703-4.587c-2.666-1.055-4.219-3.781-4.219-6.447c0-4.217,2.854-6.883,6.2-8.617
			c-3.472-1.609-6.014-4.399-6.014-8.986c0-7.562,6.51-11.969,15.499-11.969c2.542,0,4.398,0.372,6.014,0.809l11.346-0.247v4.463
			h-2.91l-3.534-0.124c2.294,1.552,3.782,3.906,3.782,7.007c0,6.942-6.638,10.786-15.255,10.786
			C672.453,36.949,669.911,36.64,667.617,35.896z M665.323,51.891c-0.248,0.312-0.312,0.989-0.312,1.674
			c0,3.597,4.03,5.643,9.857,5.643c5.394,0,10.415-1.179,10.415-4.959c0-1.609-0.992-2.354-2.979-2.354L665.323,51.891
			L665.323,51.891z M678.405,25.853c0-4.588-1.058-8.807-3.6-8.807c-2.479,0-3.159,2.914-3.159,8.187
			c0,4.896,1.113,9.052,3.597,9.052C677.785,34.283,678.405,31.432,678.405,25.853z"/>
		<path d="M725.277,28.147v1.55h-19.654c0,6.819,3.844,11.159,9.299,11.159c3.906,0,6.88-1.303,9.238-4.34l1.301,0.806
			c-1.736,7.192-6.633,11.843-14.753,11.843c-9.237,0-16.615-5.891-16.615-16.739c0-11.222,7.998-18.164,17.173-18.164
			C720.564,14.258,725.277,20.025,725.277,28.147z M705.686,26.658h8.74c0-6.138-0.992-9.672-3.968-9.672
			C707.359,16.987,705.933,20.83,705.686,26.658z"/>
		<path d="M739.412,32.299c0-10.354,7.379-18.041,17.979-18.041c10.605,0,17.98,6.513,17.98,16.863
			c0,10.354-7.377,18.041-17.98,18.041C746.791,49.163,739.412,42.654,739.412,32.299z M761.792,34.098
			c0-10.604-1.178-17.111-4.713-17.111c-3.285,0-4.09,4.588-4.09,12.338c0,10.604,1.178,17.111,4.711,17.111
			C760.986,46.436,761.792,41.848,761.792,34.098z"/>
		<path d="M794.095,42.53c0,2.729,1.363,2.914,4.836,3.41v2.604h-20.893V45.94c2.293-0.188,3.285-0.372,3.285-2.231V18.413h-4.402
			v-2.79l4.402-1.055v-0.496C781.324,4.216,788.33,0,796.699,0c7.129,0,10.293,2.418,10.293,6.388c0,1.799-0.992,3.349-2.418,4.027
			h-6.392c0.189-0.868,0.312-1.922,0.312-3.038c0-2.17-0.188-4.34-2.047-4.34c-1.736,0-2.355,1.363-2.355,3.721v8.121h7.068v3.534
			h-7.068V42.53H794.095z"/>
		<path d="M824.847,6.572l-3.286-1.674V2.79L835.451,0h2.17v20.521c2.229-2.914,5.766-6.265,11.592-6.265
			c6.014,0,9.609,3.351,9.609,10.169v19.279c0,1.859,0.99,2.046,3.285,2.231v2.604h-19.156v-2.6
			c2.295-0.188,3.102-0.372,3.102-2.231V25.542c0-2.294-0.744-3.845-3.844-3.845c-1.736,0-3.162,0.312-4.588,0.808v21.202
			c0,1.859,0.805,2.046,3.1,2.231v2.604h-19.158V45.94c2.293-0.188,3.285-0.372,3.285-2.231L824.847,6.572L824.847,6.572z"/>
		<path d="M895.029,28.147v1.55h-19.652c0,6.819,3.844,11.159,9.299,11.159c3.906,0,6.881-1.303,9.238-4.34l1.301,0.806
			c-1.736,7.192-6.631,11.843-14.752,11.843c-9.238,0-16.615-5.891-16.615-16.739c0-11.222,7.996-18.164,17.172-18.164
			C890.318,14.258,895.029,20.025,895.029,28.147z M875.438,26.658h8.741c0-6.138-0.991-9.672-3.967-9.672
			C877.111,16.987,875.686,20.83,875.438,26.658z"/>
		<path d="M927.888,41.724c0,1.236,0.123,2.542,1.55,2.542c0.807,0,1.61-0.188,1.922-0.312l0.434,1.859
			c-2.17,1.98-4.895,3.349-8.617,3.349c-3.781,0-6.51-1.859-7.625-5.146c-1.729,2.665-4.588,4.896-9.176,4.896
			c-5.332,0-9.113-2.914-9.113-8.433c0-5.456,3.726-7.688,8.062-9.177l10.045-3.474v-6.817c0-2.479-0.621-4.153-2.666-4.153
			c-2.17,0-2.98,1.922-2.98,4.771c0,1.487,0.248,3.038,0.621,4.59l-7.688,0.989c-1.859-0.619-3.226-2.17-3.226-4.522
			c0-5.893,6.076-8.435,13.824-8.435c9.053,0,14.633,2.666,14.633,11.035V41.724L927.888,41.724z M915.365,42.157V30.689
			l-2.48,0.931c-1.979,0.743-3.348,1.734-3.348,5.396c0,3.1,1.053,5.456,4.029,5.456C914.248,42.467,914.744,42.344,915.365,42.157z
			"/>
		<path d="M949.091,42.53c0,2.729,1.365,2.914,4.836,3.41v2.604h-20.893V45.94c2.295-0.188,3.285-0.372,3.285-2.231v-21.7
			l-3.285-2.105V17.98l13.826-3.723h2.479l-0.248,9.675c2.357-7.439,4.65-9.675,8.617-9.675c1.551,0,2.604,0.438,3.287,1.057v9.482
			h-1.611c-3.969,0-7.627,0.124-10.293,1.735V42.53L949.091,42.53z"/>
		<path d="M977.921,14.878h6.883v3.534h-6.883v20.521c0,2.666,1.056,3.844,3.162,3.844c1.488,0,2.914-0.559,4.34-1.55l0.992,1.55
			c-2.479,4.153-6.139,6.387-11.346,6.387c-5.951,0-10.105-2.977-10.105-10.416V18.413h-3.348v-2.294
			c5.27-1.86,10.104-5.519,13.578-9.854h2.727V14.878z"/>
		<path d="M999.438,32.299c0-10.354,7.377-18.041,17.979-18.041s17.979,6.513,17.979,16.863c0,10.354-7.377,18.041-17.979,18.041
			S999.438,42.654,999.438,32.299z M1021.818,34.098c0-10.604-1.181-17.111-4.713-17.111c-3.285,0-4.093,4.588-4.093,12.338
			c0,10.604,1.179,17.111,4.714,17.111C1021.011,46.436,1021.818,41.848,1021.818,34.098z"/>
		<path d="M1054.119,42.53c0,2.729,1.363,2.914,4.836,3.41v2.604h-20.893V45.94c2.293-0.188,3.284-0.372,3.284-2.231V18.413h-4.401
			v-2.79l4.401-1.055v-0.496c0-9.856,7.007-14.072,15.375-14.072c7.132,0,10.291,2.418,10.291,6.388
			c0,1.799-0.989,3.349-2.418,4.027h-6.385c0.187-0.868,0.312-1.922,0.312-3.038c0-2.17-0.187-4.34-2.048-4.34
			c-1.735,0-2.354,1.363-2.354,3.721v8.121h7.068v3.534h-7.068V42.53L1054.119,42.53z"/>
		<path d="M1086.607,35.896c-0.808,0.744-1.552,1.55-1.552,2.729c0,0.933,0.621,1.674,1.675,1.674h13.825
			c8.929,0,12.398,3.847,12.398,9.55c0,8.119-7.625,12.521-19.281,12.521c-10.166,0-16.49-2.604-16.49-7.503
			c0-3.036,3.101-4.34,5.703-4.587c-2.666-1.055-4.215-3.781-4.215-6.447c0-4.217,2.853-6.883,6.199-8.617
			c-3.479-1.609-6.021-4.399-6.021-8.986c0-7.562,6.517-11.969,15.5-11.969c2.541,0,4.4,0.372,6.021,0.809l11.344-0.247v4.463
			h-2.912l-3.535-0.124c2.296,1.552,3.783,3.906,3.783,7.007c0,6.942-6.635,10.786-15.252,10.786
			C1091.443,36.949,1088.9,36.64,1086.607,35.896z M1084.312,51.891c-0.248,0.312-0.31,0.989-0.31,1.674
			c0,3.597,4.029,5.643,9.857,5.643c5.393,0,10.414-1.179,10.414-4.959c0-1.609-0.992-2.354-2.98-2.354L1084.312,51.891
			L1084.312,51.891z M1097.395,25.853c0-4.588-1.056-8.807-3.597-8.807c-2.479,0-3.162,2.914-3.162,8.187
			c0,4.896,1.115,9.052,3.597,9.052C1096.775,34.283,1097.395,31.432,1097.395,25.853z"/>
		<path d="M1113.082,32.299c0-10.354,7.377-18.041,17.979-18.041c10.605,0,17.98,6.513,17.98,16.863
			c0,10.354-7.379,18.041-17.98,18.041C1120.46,49.162,1113.082,42.654,1113.082,32.299z M1135.462,34.098
			c0-10.604-1.178-17.111-4.711-17.111c-3.287,0-4.092,4.588-4.092,12.338c0,10.604,1.178,17.111,4.711,17.111
			C1134.656,46.436,1135.462,41.848,1135.462,34.098z"/>
		<path d="M1167.455,43.707c0,1.859,0.992,2.046,3.285,2.231v2.604h-19.342V45.94c2.293-0.188,3.284-0.372,3.284-2.231V6.572
			l-3.284-1.674V2.79L1165.285,0h2.17V43.707L1167.455,43.707z"/>
		<path d="M1192.316,4.898V2.79L1206.203,0h2.17v41.165c0,2.107,0.186,3.162,1.984,3.162h1.426v2.729l-13.949,2.105h-2.418
			l0.188-5.891c-2.541,3.968-5.947,5.891-10.105,5.891c-7.19,0-12.521-5.519-12.521-15.935c0-12.274,7.502-18.66,16.735-18.66
			c2.418,0,4.527,0.559,5.894,1.675v-9.67L1192.316,4.898z M1185.867,29.509c0,7.627,2.604,12.712,7.006,12.712
			c0.869,0,1.799-0.123,2.729-0.438V24.18c0-3.782-0.737-5.769-3.721-5.769C1187.789,18.413,1185.867,22.815,1185.867,29.509z"/>
	</g>
</g>
</svg>
