<?xml version="1.0" encoding="utf-8"?>
<!-- Generator: Adobe Illustrator 16.0.0, SVG Export Plug-In . SVG Version: 6.00 Build 0)  -->
<!DOCTYPE svg PUBLIC "-//W3C//DTD SVG 1.1//EN" "http://www.w3.org/Graphics/SVG/1.1/DTD/svg11.dtd">
<svg version="1.1" id="_x31_" xmlns="http://www.w3.org/2000/svg" xmlns:xlink="http://www.w3.org/1999/xlink" x="0px" y="0px"
	 width="1440px" height="62.68px" viewBox="0 0 1440 62.68" enable-background="new 0 0 1440 62.68" xml:space="preserve">
<g>
	<path d="M269.615,15.189h6.881v3.534h-6.881v20.521c0,2.666,1.054,3.844,3.162,3.844c1.488,0,2.914-0.558,4.34-1.55l0.992,1.55
		c-2.479,4.153-6.138,6.387-11.345,6.387c-5.952,0-10.105-2.977-10.105-10.416V18.724h-3.349V16.43
		c5.27-1.86,10.105-5.519,13.577-9.854h2.728V15.189z"/>
	<path d="M315.308,41.476c0,2.107,0.186,3.162,1.984,3.162h1.426v2.729l-13.949,2.105h-2.418l0.186-6.076
		c-2.108,2.854-5.394,6.076-11.16,6.076c-5.58,0-9.547-3.349-9.547-10.603V24.179c0-1.735-0.434-3.161-2.17-3.721l-0.93-0.312
		v-2.479l13.887-3.103h2.355l-0.372,8.187v15.003c0,2.854,1.116,4.465,3.906,4.465c1.55,0,2.479-0.187,4.03-0.683V24.179
		c0-1.735-0.434-3.161-2.17-3.721l-0.93-0.312v-2.479l13.887-3.103h2.356l-0.372,8.187L315.308,41.476L315.308,41.476z"/>
	<path d="M328.825,36.206c-0.806,0.744-1.55,1.55-1.55,2.729c0,0.933,0.62,1.674,1.674,1.674h13.825
		c8.928,0,12.399,3.847,12.399,9.55c0,8.119-7.625,12.521-19.281,12.521c-10.167,0-16.491-2.604-16.491-7.503
		c0-3.036,3.1-4.34,5.704-4.587c-2.666-1.055-4.216-3.781-4.216-6.447c0-4.217,2.852-6.883,6.2-8.617
		c-3.472-1.609-6.014-4.399-6.014-8.986c0-7.562,6.51-11.969,15.499-11.969c2.542,0,4.402,0.372,6.014,0.809l11.346-0.247v4.463
		h-2.914l-3.534-0.124c2.294,1.552,3.782,3.906,3.782,7.007c0,6.942-6.634,10.786-15.251,10.786
		C333.661,37.26,331.119,36.95,328.825,36.206z M326.531,52.201c-0.248,0.312-0.31,0.989-0.31,1.674c0,3.597,4.03,5.643,9.857,5.643
		c5.394,0,10.415-1.179,10.415-4.959c0-1.609-0.992-2.354-2.976-2.354L326.531,52.201L326.531,52.201z M339.612,26.163
		c0-4.588-1.054-8.807-3.596-8.807c-2.48,0-3.162,2.914-3.162,8.187c0,4.896,1.116,9.052,3.596,9.052
		C338.992,34.594,339.612,31.742,339.612,26.163z"/>
	<path d="M368.008,32.61c0-10.354,7.378-18.041,17.979-18.041c10.601,0,17.979,6.513,17.979,16.863
		c0,10.354-7.377,18.041-17.979,18.041C375.386,49.474,368.008,42.964,368.008,32.61z M390.389,34.408
		c0-10.604-1.178-17.111-4.712-17.111c-3.286,0-4.091,4.588-4.091,12.338c0,10.604,1.178,17.111,4.711,17.111
		C389.583,46.746,390.389,42.158,390.389,34.408z"/>
	<path d="M422.691,42.84c0,2.729,1.361,2.914,4.836,3.41v2.604h-20.896V46.25c2.294-0.188,3.286-0.372,3.286-2.231V18.724h-4.402
		v-2.79l4.402-1.055v-0.496c0-9.856,7.005-14.072,15.375-14.072c7.129,0,10.292,2.418,10.292,6.389c0,1.798-0.992,3.348-2.418,4.026
		h-6.386c0.186-0.868,0.31-1.922,0.31-3.038c0-2.17-0.186-4.34-2.046-4.34c-1.734,0-2.354,1.363-2.354,3.721v8.121h7.065v3.534
		h-7.065V42.84L422.691,42.84z"/>
	<path d="M493.369,21.699c0.31-0.809,0.496-1.488,0.496-1.984c0-1.238-1.057-1.674-3.41-1.922v-2.604h10.849v2.604
		c-2.105,0.684-2.604,1.116-3.162,2.479L485.745,49.04h-4.216l-7.315-18.726L465.41,49.04h-4.215l-13.33-28.769
		c-0.62-1.361-1.057-1.798-3.162-2.479v-2.604h19.715v2.604c-1.86,0.248-2.604,0.808-2.604,1.798c0,0.56,0.187,1.24,0.559,2.108
		l5.58,13.267l4.34-8.988l-2.232-5.703c-0.493-1.361-1.237-1.981-2.789-2.479V15.19h19.593v2.604
		c-2.542,0.312-3.723,0.56-3.723,2.046c0,0.496,0.124,1.116,0.372,1.86l4.774,12.521L493.369,21.699z"/>
	<path d="M530.879,42.034c0,1.236,0.124,2.542,1.55,2.542c0.809,0,1.612-0.188,1.922-0.312l0.437,1.859
		c-2.17,1.98-4.897,3.349-8.617,3.349c-3.782,0-6.51-1.858-7.626-5.146c-1.736,2.665-4.587,4.896-9.175,4.896
		c-5.332,0-9.113-2.914-9.113-8.433c0-5.456,3.72-7.688,8.062-9.176l10.043-3.475v-6.816c0-2.479-0.62-4.154-2.666-4.154
		c-2.172,0-2.979,1.922-2.979,4.771c0,1.487,0.248,3.038,0.62,4.591l-7.688,0.988c-1.859-0.619-3.226-2.17-3.226-4.522
		c0-5.893,6.076-8.435,13.826-8.435c9.051,0,14.631,2.666,14.631,11.035L530.879,42.034L530.879,42.034z M518.355,42.468V30.999
		l-2.479,0.931c-1.984,0.743-3.348,1.734-3.348,5.396c0,3.1,1.054,5.456,4.027,5.456C517.24,42.778,517.736,42.656,518.355,42.468z"
		/>
	<path d="M552.083,42.84c0,2.729,1.364,2.914,4.836,3.41v2.604h-20.893V46.25c2.294-0.188,3.286-0.372,3.286-2.231v-21.7
		l-3.286-2.105V18.29l13.822-3.723h2.48l-0.248,9.675c2.354-7.439,4.649-9.675,8.618-9.675c1.55,0,2.604,0.438,3.286,1.057v9.482
		h-1.612c-3.968,0-7.625,0.124-10.292,1.735L552.083,42.84L552.083,42.84z"/>
	<path d="M577.317,32.61c0-10.354,7.378-18.041,17.979-18.041c10.604,0,17.979,6.513,17.979,16.863
		c0,10.354-7.377,18.041-17.979,18.041C584.695,49.474,577.317,42.964,577.317,32.61z M599.698,34.408
		c0-10.604-1.182-17.111-4.712-17.111c-3.286,0-4.092,4.588-4.092,12.338c0,10.604,1.179,17.111,4.711,17.111
		C598.893,46.746,599.698,42.158,599.698,34.408z"/>
	<path d="M632,42.84c0,2.729,1.364,2.914,4.836,3.41v2.604h-20.893V46.25c2.294-0.188,3.283-0.372,3.283-2.231V18.724h-4.399v-2.79
		l4.399-1.055v-0.496c0-9.856,7.008-14.072,15.375-14.072c7.131,0,10.295,2.418,10.295,6.389c0,1.798-0.992,3.348-2.42,4.026h-6.388
		c0.188-0.868,0.312-1.922,0.312-3.038c0-2.17-0.188-4.34-2.048-4.34c-1.734,0-2.354,1.363-2.354,3.721v8.121h7.068v3.534H632V42.84
		z"/>
	<path d="M702.677,21.699c0.312-0.809,0.496-1.488,0.496-1.984c0-1.238-1.055-1.674-3.41-1.922v-2.604h10.852v2.604
		c-2.107,0.684-2.604,1.116-3.162,2.479L695.054,49.04h-4.217l-7.313-18.726l-8.805,18.726h-4.215l-13.33-28.769
		c-0.62-1.361-1.054-1.798-3.162-2.479v-2.604h19.715v2.604c-1.856,0.248-2.604,0.808-2.604,1.798c0,0.56,0.186,1.24,0.558,2.108
		l5.58,13.267l4.341-8.988l-2.229-5.703c-0.496-1.361-1.24-1.981-2.79-2.479V15.19h19.591v2.604
		c-2.543,0.312-3.721,0.56-3.721,2.046c0,0.496,0.125,1.116,0.373,1.86l4.771,12.521L702.677,21.699z"/>
	<path d="M709.375,32.61c0-10.354,7.379-18.041,17.979-18.041c10.604,0,17.979,6.513,17.979,16.863
		c0,10.354-7.377,18.041-17.979,18.041C716.753,49.474,709.375,42.964,709.375,32.61z M731.755,34.408
		c0-10.604-1.178-17.111-4.711-17.111c-3.287,0-4.092,4.588-4.092,12.338c0,10.604,1.178,17.111,4.711,17.111
		C730.951,46.746,731.755,42.158,731.755,34.408z"/>
	<path d="M763.996,42.84c0,2.729,1.365,2.914,4.836,3.41v2.604h-20.893V46.25c2.295-0.188,3.284-0.372,3.284-2.231v-21.7
		l-3.284-2.105V18.29l13.823-3.723h2.48l-0.248,9.675c2.354-7.439,4.646-9.675,8.619-9.675c1.549,0,2.604,0.438,3.28,1.057v9.482
		h-1.606c-3.969,0-7.625,0.124-10.293,1.735L763.996,42.84L763.996,42.84z"/>
	<path d="M796.794,5.208V3.101l13.887-2.79h2.171v41.165c0,2.107,0.186,3.162,1.983,3.162h1.426v2.729l-13.948,2.105h-2.418
		l0.186-5.891c-2.541,3.968-5.951,5.891-10.105,5.891c-7.188,0-12.52-5.519-12.52-15.935c0-12.274,7.502-18.66,16.738-18.66
		c2.418,0,4.522,0.559,5.891,1.675V6.882L796.794,5.208z M790.345,29.82c0,7.628,2.605,12.713,7.006,12.713
		c0.867,0,1.8-0.124,2.729-0.438V24.49c0-3.782-0.744-5.769-3.721-5.769C792.268,18.724,790.345,23.125,790.345,29.82z"/>
	<path d="M819.3,46.312l-0.373-8.369h3.162c1.117,4.959,4.465,8.741,9.238,8.741c2.791,0,5.02-1.303,5.02-3.903
		c0-3.037-2.418-3.97-6.385-5.146c-7.192-2.106-11.098-5.207-11.098-11.717c0-7.378,5.58-11.349,13.325-11.349
		c4.277,0,8.246,1.116,10.912,2.854v7.438h-2.914c-0.616-3.903-3.407-7.502-7.688-7.502c-2.48,0-4.217,1.305-4.217,3.534
		c0,2.479,1.799,3.408,5.58,4.648c7.75,2.542,11.899,5.084,11.899,12.213c0,7.502-5.641,11.719-14.317,11.719
		C826.058,49.474,822.089,48.233,819.3,46.312z"/>
	<path d="M860.343,32.61c0-10.354,7.377-18.041,17.979-18.041c10.602,0,17.979,6.513,17.979,16.863
		c0,10.354-7.379,18.041-17.979,18.041C867.721,49.473,860.343,42.964,860.343,32.61z M882.724,34.408
		c0-10.604-1.178-17.111-4.711-17.111c-3.286,0-4.092,4.588-4.092,12.338c0,10.604,1.178,17.111,4.711,17.111
		C881.917,46.746,882.724,42.158,882.724,34.408z"/>
	<path d="M915.027,42.84c0,2.729,1.362,2.914,4.836,3.41v2.604H898.97V46.25c2.293-0.188,3.285-0.372,3.285-2.231V18.724h-4.401
		v-2.79l4.401-1.055v-0.496c0-9.856,7.006-14.072,15.375-14.072c7.131,0,10.291,2.418,10.291,6.389c0,1.798-0.99,3.348-2.418,4.026
		h-6.385c0.186-0.868,0.311-1.922,0.311-3.038c0-2.17-0.186-4.34-2.047-4.34c-1.736,0-2.354,1.363-2.354,3.721v8.121h7.067v3.534
		h-7.067V42.84L915.027,42.84z"/>
	<path d="M985.705,21.699c0.309-0.809,0.496-1.488,0.496-1.984c0-1.238-1.055-1.674-3.41-1.922v-2.604h10.85v2.604
		c-2.104,0.684-2.604,1.116-3.162,2.479L978.08,49.039h-4.215l-7.316-18.726l-8.803,18.726h-4.217l-13.328-28.769
		c-0.621-1.361-1.057-1.798-3.162-2.479v-2.604h19.715v2.604c-1.854,0.248-2.604,0.808-2.604,1.798c0,0.56,0.186,1.24,0.557,2.108
		l5.58,13.267l4.34-8.988l-2.229-5.703c-0.496-1.361-1.24-1.981-2.791-2.479V15.19h19.592v2.604
		c-2.543,0.312-3.721,0.56-3.721,2.046c0,0.496,0.125,1.116,0.371,1.86l4.772,12.521L985.705,21.699z"/>
	<path d="M1011.373,44.018c0,1.859,0.992,2.046,3.287,2.231v2.604h-19.344V46.25c2.295-0.188,3.284-0.372,3.284-2.231v-21.7
		l-3.284-2.105V18.29l13.825-3.723h2.23L1011.373,44.018L1011.373,44.018z M998.602,6.138c0-3.285,2.418-6.139,6.571-6.139
		c4.092,0,6.572,2.854,6.572,6.139s-2.479,6.138-6.572,6.138C1001.02,12.275,998.602,9.424,998.602,6.138z"/>
	<path d="M1017.822,46.312l-0.373-8.369h3.162c1.115,4.959,4.465,8.741,9.237,8.741c2.789,0,5.021-1.303,5.021-3.903
		c0-3.037-2.418-3.97-6.39-5.146c-7.188-2.106-11.1-5.207-11.1-11.717c0-7.378,5.578-11.349,13.328-11.349
		c4.277,0,8.246,1.116,10.912,2.854v7.438h-2.914c-0.621-3.903-3.41-7.502-7.688-7.502c-2.48,0-4.218,1.305-4.218,3.534
		c0,2.479,1.8,3.408,5.58,4.648c7.75,2.542,11.904,5.084,11.904,12.213c0,7.502-5.646,11.719-14.322,11.719
		C1024.58,49.474,1020.611,48.233,1017.822,46.312z"/>
	<path d="M1066.738,5.208V3.101l13.887-2.79h2.17v41.165c0,2.107,0.189,3.162,1.984,3.162h1.426v2.729l-13.949,2.105h-2.418
		l0.189-5.891c-2.541,3.968-5.951,5.891-10.105,5.891c-7.19,0-12.521-5.519-12.521-15.935c0-12.274,7.5-18.66,16.735-18.66
		c2.418,0,4.525,0.559,5.892,1.675V6.882L1066.738,5.208z M1060.291,29.82c0,7.628,2.604,12.713,7.006,12.713
		c0.867,0,1.797-0.124,2.73-0.438V24.49c0-3.782-0.742-5.769-3.724-5.769C1062.212,18.724,1060.291,23.125,1060.291,29.82z"/>
	<path d="M1088.314,32.61c0-10.354,7.377-18.041,17.979-18.041s17.98,6.513,17.98,16.863c0,10.354-7.38,18.041-17.98,18.041
		C1095.693,49.473,1088.314,42.964,1088.314,32.61z M1110.695,34.408c0-10.604-1.179-17.111-4.711-17.111
		c-3.287,0-4.093,4.588-4.093,12.338c0,10.604,1.179,17.111,4.711,17.111C1109.888,46.746,1110.695,42.158,1110.695,34.408z"/>
	<path d="M1170.833,25.667c0-2.294-0.744-3.72-3.348-3.72c-1.613,0-2.855,0.434-4.224,0.93v21.142c0,1.859,0.562,2.046,2.855,2.231
		v2.604h-18.479V46.25c2.297-0.188,2.855-0.372,2.855-2.231V25.667c0-2.294-0.744-3.72-3.353-3.72c-1.606,0-2.854,0.369-4.217,0.865
		v21.202c0,1.859,0.562,2.046,2.855,2.231v2.604h-18.908v-2.6c2.293-0.188,3.285-0.372,3.285-2.231v-21.7l-3.285-2.105V18.29
		l13.824-3.723h2.479l-0.248,6.389c2.17-3.41,5.645-6.389,11.283-6.389c4.836,0,7.998,1.86,8.803,6.513
		c2.109-3.351,5.953-6.513,11.408-6.513c5.768,0,9.176,3.286,9.176,9.732v19.716c0,1.859,0.992,2.046,3.285,2.231v2.604h-18.908
		V46.25c2.293-0.188,2.855-0.372,2.855-2.231V25.667H1170.833z"/>
</g>
</svg>
