<?xml version="1.0" encoding="utf-8"?>
<!-- Generator: Adobe Illustrator 16.0.0, SVG Export Plug-In . SVG Version: 6.00 Build 0)  -->
<!DOCTYPE svg PUBLIC "-//W3C//DTD SVG 1.1//EN" "http://www.w3.org/Graphics/SVG/1.1/DTD/svg11.dtd">
<svg version="1.1" id="Layer_1" xmlns="http://www.w3.org/2000/svg" xmlns:xlink="http://www.w3.org/1999/xlink" x="0px" y="0px"
	 width="1440px" height="62.641px" viewBox="0 0 1440 62.641" enable-background="new 0 0 1440 62.641" xml:space="preserve">
<g id="_x31_3">
	<g>
		<path d="M223.173,44.018c0,1.858,0.992,2.046,3.286,2.23v2.604h-19.343V46.25c2.294-0.188,3.286-0.372,3.286-2.23V6.882
			l-3.286-1.674V3.101l13.887-2.79h2.17V44.018z"/>
		<path d="M259.876,28.457v1.55h-19.653c0,6.819,3.844,11.159,9.299,11.159c3.906,0,6.881-1.302,9.237-4.34l1.302,0.806
			c-1.736,7.192-6.634,11.844-14.755,11.844c-9.237,0-16.615-5.892-16.615-16.739c0-11.222,7.998-18.164,17.173-18.164
			C255.164,14.569,259.876,20.335,259.876,28.457z M240.285,26.969h8.741c0-6.138-0.992-9.672-3.968-9.672
			C241.959,17.297,240.533,21.141,240.285,26.969z"/>
		<path d="M278.476,42.84c0,2.729,1.364,2.914,4.836,3.41v2.604h-20.894V46.25c2.294-0.188,3.286-0.372,3.286-2.23V18.724h-4.402
			v-2.79l4.402-1.056v-0.496c0-9.855,7.005-14.071,15.375-14.071c7.129,0,10.292,2.418,10.292,6.388
			c0,1.798-0.992,3.348-2.418,4.027h-6.386c0.186-0.868,0.31-1.923,0.31-3.038c0-2.17-0.186-4.34-2.046-4.34
			c-1.736,0-2.356,1.362-2.356,3.721v8.121h7.068v3.534h-7.068L278.476,42.84L278.476,42.84z"/>
		<path d="M301.912,15.189h6.881v3.534h-6.881v20.521c0,2.666,1.054,3.844,3.162,3.844c1.488,0,2.914-0.558,4.34-1.55l0.992,1.55
			c-2.479,4.153-6.138,6.388-11.345,6.388c-5.952,0-10.105-2.978-10.105-10.416V18.724h-3.348V16.43
			c5.27-1.86,10.105-5.52,13.577-9.855h2.728L301.912,15.189L301.912,15.189z"/>
		<path d="M323.425,32.61c0-10.354,7.378-18.041,17.979-18.041c10.602,0,17.979,6.512,17.979,16.863
			c0,10.354-7.377,18.041-17.979,18.041C330.803,49.474,323.425,42.964,323.425,32.61z M345.806,34.408
			c0-10.604-1.178-17.111-4.712-17.111c-3.286,0-4.091,4.588-4.091,12.338c0,10.604,1.178,17.111,4.711,17.111
			C345,46.746,345.806,42.158,345.806,34.408z"/>
		<path d="M378.108,42.84c0,2.729,1.362,2.914,4.836,3.41v2.604H362.05V46.25c2.294-0.188,3.286-0.372,3.286-2.23V18.724h-4.402
			v-2.79l4.402-1.056v-0.496c0-9.855,7.005-14.071,15.375-14.071c7.129,0,10.292,2.418,10.292,6.388
			c0,1.798-0.992,3.348-2.418,4.027H382.2c0.186-0.868,0.31-1.923,0.31-3.038c0-2.17-0.186-4.34-2.046-4.34
			c-1.735,0-2.354,1.362-2.354,3.721v8.121h7.066v3.534h-7.066L378.108,42.84L378.108,42.84z"/>
		<path d="M421.693,40.979c3.532,0,6.138-1.113,8.06-3.846l1.488,0.933c-2.046,7.997-7.315,11.407-14.507,11.407
			c-8.805,0-15.687-6.14-15.687-16.432c0-10.603,6.944-18.477,17.483-18.477c6.322,0,11.777,2.354,11.777,8.122
			c0,2.541-1.486,4.094-2.914,4.711h-6.386c0.188-1.485,0.248-2.665,0.248-3.721c0-3.721-0.992-6.139-3.72-6.139
			c-3.472,0-5.456,4.648-5.456,10.852C412.084,36.206,415.556,40.979,421.693,40.979z"/>
		<path d="M464.287,28.457v1.55h-19.653c0,6.819,3.844,11.159,9.299,11.159c3.906,0,6.882-1.302,9.237-4.34l1.302,0.806
			c-1.734,7.192-6.634,11.844-14.755,11.844c-9.236,0-16.615-5.892-16.615-16.739c0-11.222,7.998-18.164,17.175-18.164
			C459.575,14.569,464.287,20.335,464.287,28.457z M444.696,26.969h8.741c0-6.138-0.992-9.672-3.97-9.672
			C446.37,17.297,444.943,21.141,444.696,26.969z"/>
		<path d="M491.256,25.853c0-2.294-0.744-3.846-3.844-3.846c-1.736,0-3.162,0.312-4.588,0.809v21.202c0,1.858,0.806,2.046,3.1,2.23
			v2.604h-19.157V46.25c2.294-0.188,3.286-0.372,3.286-2.23v-21.7l-3.286-2.106V18.29l13.825-3.722h2.48l-0.248,6.264
			c2.23-2.914,5.766-6.264,11.593-6.264c6.014,0,9.61,3.35,9.61,10.169v19.279c0,1.858,0.992,2.046,3.285,2.23v2.604h-19.156V46.25
			c2.293-0.188,3.1-0.372,3.1-2.23V25.853z"/>
		<path d="M524.426,15.189h6.881v3.534h-6.881v20.521c0,2.666,1.058,3.844,3.162,3.844c1.488,0,2.914-0.558,4.34-1.55l0.992,1.55
			c-2.479,4.153-6.138,6.388-11.345,6.388c-5.952,0-10.105-2.978-10.105-10.416V18.724h-3.348V16.43
			c5.27-1.86,10.104-5.52,13.577-9.855h2.728L524.426,15.189L524.426,15.189z"/>
		<path d="M565.035,28.457v1.55h-19.653c0,6.819,3.844,11.159,9.299,11.159c3.906,0,6.884-1.302,9.237-4.34l1.302,0.806
			c-1.732,7.192-6.634,11.844-14.755,11.844c-9.234,0-16.615-5.892-16.615-16.739c0-11.222,7.998-18.164,17.177-18.164
			C560.323,14.569,565.035,20.335,565.035,28.457z M545.444,26.969h8.737c0-6.138-0.988-9.672-3.968-9.672
			C547.118,17.297,545.692,21.141,545.444,26.969z"/>
		<path d="M583.573,42.84c0,2.729,1.364,2.914,4.836,3.41v2.604h-20.896V46.25c2.294-0.188,3.286-0.372,3.286-2.23v-21.7
			l-3.286-2.106V18.29l13.825-3.722h2.48l-0.248,9.674c2.354-7.439,4.646-9.674,8.617-9.674c1.551,0,2.604,0.437,3.283,1.056v9.483
			h-1.608c-3.97,0-7.625,0.124-10.292,1.734L583.573,42.84L583.573,42.84z"/>
		<path d="M608.807,32.61c0-10.354,7.379-18.041,17.979-18.041c10.6,0,17.979,6.512,17.979,16.863
			c0,10.354-7.377,18.041-17.979,18.041C616.186,49.474,608.807,42.964,608.807,32.61z M631.188,34.408
			c0-10.604-1.178-17.111-4.711-17.111c-3.283,0-4.092,4.588-4.092,12.338c0,10.604,1.178,17.111,4.711,17.111
			C630.382,46.746,631.188,42.158,631.188,34.408z"/>
		<path d="M663.49,42.84c0,2.729,1.361,2.914,4.836,3.41v2.604H647.43V46.25c2.294-0.188,3.286-0.372,3.286-2.23V18.724h-4.399
			v-2.79l4.399-1.056v-0.496c0-9.855,7.005-14.071,15.375-14.071c7.129,0,10.292,2.418,10.292,6.388
			c0,1.798-0.992,3.348-2.418,4.027h-6.386c0.186-0.868,0.31-1.923,0.31-3.038c0-2.17-0.186-4.34-2.046-4.34
			c-1.733,0-2.354,1.362-2.354,3.721v8.121h7.064v3.534h-7.064L663.49,42.84L663.49,42.84z"/>
		<path d="M707.323,42.84c0,2.729,1.364,2.914,4.836,3.41v2.604h-20.896V46.25c2.294-0.188,3.286-0.372,3.286-2.23V18.724h-4.398
			v-2.79l4.398-1.056v-0.496c0-9.855,7.005-14.071,15.375-14.071c7.129,0,10.293,2.418,10.293,6.388c0,1.798-0.99,3.348-2.418,4.027
			h-6.387c0.186-0.868,0.311-1.923,0.311-3.038c0-2.17-0.186-4.34-2.047-4.34c-1.732,0-2.354,1.362-2.354,3.721v8.121h7.065v3.534
			h-7.065L707.323,42.84L707.323,42.84z"/>
		<path d="M715.382,32.61c0-10.354,7.379-18.041,17.981-18.041c10.6,0,17.979,6.512,17.979,16.863
			c0,10.354-7.377,18.041-17.979,18.041C722.761,49.474,715.382,42.964,715.382,32.61z M737.763,34.408
			c0-10.604-1.178-17.111-4.711-17.111c-3.287,0-4.092,4.588-4.092,12.338c0,10.604,1.178,17.111,4.711,17.111
			C736.958,46.746,737.763,42.158,737.763,34.408z"/>
		<path d="M775.087,40.979c3.533,0,6.137-1.113,8.06-3.846l1.487,0.933c-2.045,7.997-7.312,11.407-14.506,11.407
			c-8.803,0-15.686-6.14-15.686-16.432c0-10.603,6.94-18.477,17.479-18.477c6.322,0,11.779,2.354,11.779,8.122
			c0,2.541-1.488,4.094-2.914,4.711H774.4c0.186-1.485,0.248-2.665,0.248-3.721c0-3.721-0.992-6.139-3.722-6.139
			c-3.473,0-5.457,4.648-5.457,10.852C765.479,36.206,768.951,40.979,775.087,40.979z"/>
		<path d="M822.455,41.476c0,2.106,0.186,3.161,1.984,3.161h1.426v2.729l-13.949,2.106h-2.418l0.186-6.076
			c-2.104,2.854-5.395,6.076-11.155,6.076c-5.58,0-9.552-3.35-9.552-10.604V24.178c0-1.734-0.434-3.16-2.17-3.721l-0.93-0.312
			v-2.479l13.887-3.102h2.355l-0.373,8.186v15.003c0,2.854,1.117,4.465,3.906,4.465c1.551,0,2.479-0.187,4.028-0.683V24.178
			c0-1.734-0.434-3.16-2.17-3.721l-0.93-0.312v-2.479l13.887-3.102h2.355l-0.371,8.186v18.725L822.455,41.476L822.455,41.476z"/>
		<path d="M828.904,46.312l-0.371-8.369h3.162c1.112,4.959,4.463,8.741,9.233,8.741c2.791,0,5.021-1.304,5.021-3.904
			c0-3.037-2.418-3.969-6.388-5.146c-7.188-2.105-11.1-5.207-11.1-11.717c0-7.378,5.58-11.348,13.33-11.348
			c4.277,0,8.244,1.116,10.91,2.854v7.438h-2.914c-0.619-3.904-3.408-7.502-7.688-7.502c-2.479,0-4.218,1.304-4.218,3.534
			c0,2.479,1.8,3.407,5.58,4.647c7.748,2.542,11.902,5.084,11.902,12.213c0,7.502-5.644,11.72-14.32,11.72
			C835.662,49.474,831.695,48.233,828.904,46.312z"/>
		<path d="M869.949,32.61c0-10.354,7.377-18.041,17.979-18.041c10.605,0,17.98,6.512,17.98,16.863
			c0,10.354-7.377,18.041-17.98,18.041C877.326,49.473,869.949,42.964,869.949,32.61z M892.33,34.408
			c0-10.604-1.18-17.111-4.713-17.111c-3.285,0-4.092,4.588-4.092,12.338c0,10.604,1.178,17.111,4.713,17.111
			C891.523,46.746,892.33,42.158,892.33,34.408z"/>
		<path d="M924.63,42.84c0,2.729,1.363,2.914,4.836,3.41v2.604h-20.893V46.25c2.293-0.188,3.282-0.372,3.282-2.23V18.724h-4.399
			v-2.79l4.399-1.056v-0.496c0-9.855,7.009-14.071,15.375-14.071c7.134,0,10.291,2.418,10.291,6.388
			c0,1.798-0.987,3.348-2.422,4.027h-6.385c0.189-0.868,0.312-1.923,0.312-3.038c0-2.17-0.188-4.34-2.047-4.34
			c-1.736,0-2.355,1.362-2.355,3.721v8.121h7.068v3.534h-7.068V42.84H924.63z"/>
		<path d="M977.763,42.034c0,1.237,0.125,2.542,1.552,2.542c0.805,0,1.61-0.188,1.922-0.312l0.434,1.858
			c-2.17,1.981-4.895,3.35-8.617,3.35c-3.783,0-6.51-1.859-7.627-5.146c-1.729,2.665-4.588,4.896-9.174,4.896
			c-5.332,0-9.115-2.914-9.115-8.434c0-5.456,3.728-7.688,8.062-9.176l10.043-3.474v-6.817c0-2.479-0.619-4.154-2.666-4.154
			c-2.17,0-2.977,1.922-2.977,4.772c0,1.486,0.247,3.038,0.618,4.59l-7.688,0.989c-1.859-0.619-3.229-2.17-3.229-4.523
			c0-5.892,6.076-8.434,13.826-8.434c9.051,0,14.631,2.666,14.631,11.035v16.435h0.004L977.763,42.034L977.763,42.034z
			 M965.24,42.468V30.999l-2.48,0.932c-1.979,0.742-3.348,1.733-3.348,5.396c0,3.1,1.055,5.456,4.031,5.456
			C964.125,42.778,964.621,42.655,965.24,42.468z"/>
		<path d="M998.162,15.189h6.883v3.534h-6.883v20.521c0,2.666,1.055,3.844,3.162,3.844c1.488,0,2.914-0.558,4.34-1.55l0.992,1.55
			c-2.48,4.153-6.139,6.388-11.346,6.388c-5.951,0-10.105-2.978-10.105-10.416V18.724h-3.348V16.43
			c5.27-1.86,10.104-5.52,13.578-9.855h2.727V15.189z"/>
		<path d="M1023.273,15.189h6.881v3.534h-6.881v20.521c0,2.666,1.053,3.844,3.162,3.844c1.485,0,2.911-0.558,4.338-1.55l0.991,1.55
			c-2.479,4.153-6.137,6.388-11.344,6.388c-5.953,0-10.104-2.978-10.104-10.416V18.724h-3.351V16.43
			c5.271-1.86,10.105-5.52,13.578-9.855h2.729V15.189L1023.273,15.189z"/>
		<path d="M1063.882,28.457v1.55h-19.651c0,6.819,3.844,11.159,9.299,11.159c3.906,0,6.881-1.302,9.237-4.34l1.302,0.806
			c-1.736,7.192-6.633,11.844-14.754,11.844c-9.238,0-16.615-5.892-16.615-16.739c0-11.222,7.996-18.164,17.172-18.164
			C1059.171,14.569,1063.882,20.335,1063.882,28.457z M1044.291,26.969h8.742c0-6.138-0.992-9.672-3.967-9.672
			C1045.964,17.297,1044.539,21.141,1044.291,26.969z"/>
		<path d="M1090.851,25.853c0-2.294-0.743-3.846-3.844-3.846c-1.735,0-3.162,0.312-4.588,0.809v21.202c0,1.858,0.807,2.046,3.1,2.23
			v2.604h-19.155V46.25c2.295-0.188,3.285-0.372,3.285-2.23v-21.7l-3.285-2.106V18.29l13.826-3.722h2.479l-0.248,6.264
			c2.232-2.914,5.766-6.264,11.594-6.264c6.021,0,9.609,3.35,9.609,10.169v19.279c0,1.858,0.992,2.046,3.285,2.23v2.604h-19.156
			V46.25c2.295-0.188,3.1-0.372,3.1-2.23L1090.851,25.853L1090.851,25.853z"/>
		<path d="M1124.021,15.189h6.883v3.534h-6.883v20.521c0,2.666,1.055,3.844,3.161,3.844c1.488,0,2.914-0.558,4.341-1.55l0.991,1.55
			c-2.479,4.153-6.139,6.388-11.346,6.388c-5.951,0-10.104-2.978-10.104-10.416V18.724h-3.349V16.43
			c5.271-1.86,10.105-5.52,13.578-9.855h2.728V15.189z"/>
		<path d="M1149.938,44.018c0,1.858,0.991,2.046,3.286,2.23v2.604h-19.344V46.25c2.295-0.188,3.285-0.372,3.285-2.23v-21.7
			l-3.285-2.106V18.29l13.826-3.722h2.229v29.449L1149.938,44.018L1149.938,44.018z M1137.166,6.137
			c0-3.284,2.418-6.139,6.572-6.139c4.092,0,6.572,2.854,6.572,6.139c0,3.285-2.48,6.139-6.572,6.139
			C1139.583,12.275,1137.166,9.424,1137.166,6.137z"/>
		<path d="M1155.457,32.61c0-10.354,7.377-18.041,17.979-18.041c10.605,0,17.98,6.512,17.98,16.863
			c0,10.354-7.377,18.041-17.98,18.041C1162.833,49.473,1155.457,42.964,1155.457,32.61z M1177.837,34.408
			c0-10.604-1.18-17.111-4.713-17.111c-3.285,0-4.092,4.588-4.092,12.338c0,10.604,1.178,17.111,4.713,17.111
			C1177.031,46.746,1177.837,42.158,1177.837,34.408z"/>
		<path d="M1218.507,25.853c0-2.294-0.744-3.846-3.844-3.846c-1.736,0-3.162,0.312-4.588,0.809v21.202c0,1.858,0.807,2.046,3.1,2.23
			v2.604h-19.156V46.25c2.296-0.188,3.285-0.372,3.285-2.23v-21.7l-3.285-2.106V18.29l13.826-3.722h2.479l-0.248,6.264
			c2.231-2.914,5.766-6.264,11.594-6.264c6.014,0,9.609,3.35,9.609,10.169v19.279c0,1.858,0.991,2.046,3.285,2.23v2.604h-19.156
			V46.25c2.295-0.188,3.1-0.372,3.1-2.23L1218.507,25.853L1218.507,25.853z"/>
	</g>
</g>
</svg>
