<?xml version="1.0" encoding="utf-8"?>
<!-- Generator: Adobe Illustrator 16.0.0, SVG Export Plug-In . SVG Version: 6.00 Build 0)  -->
<!DOCTYPE svg PUBLIC "-//W3C//DTD SVG 1.1//EN" "http://www.w3.org/Graphics/SVG/1.1/DTD/svg11.dtd">
<svg version="1.1" id="Layer_1" xmlns="http://www.w3.org/2000/svg" xmlns:xlink="http://www.w3.org/1999/xlink" x="0px" y="0px"
	 width="1440px" height="62.68px" viewBox="0 0 1440 62.68" enable-background="new 0 0 1440 62.68" xml:space="preserve">
<g id="_x32_1">
	<g>
		<path d="M43,5.208V3.101l13.887-2.79h2.17v20.396c1.612-2.729,5.021-6.14,10.416-6.14c7.191,0,12.585,4.896,12.585,15.312
			c0,13.02-8.369,19.592-19.157,19.592c-5.766,0-12.399-0.992-16.615-4.217V6.882L43,5.208z M69.039,33.54
			c0-8.434-2.976-11.531-7.13-11.531c-0.992,0-1.86,0.124-2.852,0.56v17.547c0,3.655,0.744,6.197,3.782,6.197
			C66.993,46.312,69.039,40.732,69.039,33.54z"/>
		<path d="M100.721,44.018c0,1.859,0.992,2.046,3.286,2.231v2.604H84.664V46.25c2.294-0.188,3.286-0.372,3.286-2.231v-21.7
			l-3.286-2.106V18.29l13.825-3.722h2.232V44.018z M87.95,6.138C87.95,2.853,90.367,0,94.521,0c4.092,0,6.572,2.854,6.572,6.139
			s-2.48,6.138-6.572,6.138C90.367,12.275,87.95,9.424,87.95,6.138z"/>
		<path d="M122.172,44.018c0,1.859,0.992,2.046,3.286,2.231v2.604h-19.343V46.25c2.294-0.188,3.286-0.372,3.286-2.231V6.882
			l-3.286-1.674V3.101l13.887-2.79h2.17V44.018z"/>
		<path d="M143.624,44.018c0,1.859,0.992,2.046,3.286,2.231v2.604h-19.344V46.25c2.294-0.188,3.286-0.372,3.286-2.231V6.882
			l-3.286-1.674V3.101l13.887-2.79h2.17L143.624,44.018L143.624,44.018z"/>
		<path d="M160.921,32.61c0-10.354,7.378-18.041,17.979-18.041c10.602,0,17.979,6.512,17.979,16.863
			c0,10.354-7.377,18.041-17.979,18.041C168.299,49.474,160.921,42.964,160.921,32.61z M183.302,34.408
			c0-10.604-1.178-17.111-4.712-17.111c-3.286,0-4.091,4.588-4.091,12.338c0,10.604,1.178,17.111,4.711,17.111
			C182.496,46.746,183.302,42.158,183.302,34.408z"/>
		<path d="M215.604,42.84c0,2.729,1.364,2.914,4.836,3.41v2.604h-20.893V46.25c2.294-0.188,3.286-0.372,3.286-2.231V18.724h-4.402
			v-2.79l4.402-1.055v-0.496c0-9.856,7.005-14.072,15.375-14.072c7.129,0,10.292,2.418,10.292,6.388
			c0,1.798-0.992,3.348-2.418,4.027h-6.386c0.186-0.868,0.31-1.922,0.31-3.038c0-2.17-0.186-4.34-2.046-4.34
			c-1.736,0-2.356,1.363-2.356,3.721v8.121h7.068v3.534h-7.068V42.84L215.604,42.84z"/>
		<path d="M256.275,42.84c0,2.729,1.364,2.914,4.836,3.41v2.604h-20.893V46.25c2.294-0.188,3.286-0.372,3.286-2.231v-21.7
			l-3.286-2.106V18.29l13.825-3.722h2.48l-0.248,9.674c2.356-7.439,4.65-9.674,8.618-9.674c1.55,0,2.604,0.437,3.286,1.056v9.483
			h-1.612c-3.968,0-7.625,0.124-10.292,1.735V42.84L256.275,42.84z"/>
		<path d="M285.911,44.018c0,1.859,0.992,2.046,3.286,2.231v2.604h-19.343V46.25c2.294-0.188,3.286-0.372,3.286-2.231v-21.7
			l-3.286-2.106V18.29l13.825-3.722h2.232V44.018L285.911,44.018z M273.14,6.138c0-3.285,2.417-6.139,6.571-6.139
			c4.092,0,6.572,2.854,6.572,6.139s-2.48,6.138-6.572,6.138C275.558,12.275,273.14,9.424,273.14,6.138z"/>
		<path d="M299.427,36.206c-0.806,0.744-1.55,1.55-1.55,2.729c0,0.932,0.62,1.674,1.674,1.674h13.825
			c8.928,0,12.399,3.846,12.399,9.549c0,8.12-7.625,12.521-19.281,12.521c-10.167,0-16.491-2.604-16.491-7.503
			c0-3.036,3.1-4.34,5.704-4.587c-2.666-1.055-4.216-3.781-4.216-6.447c0-4.217,2.852-6.883,6.2-8.617
			c-3.472-1.61-6.014-4.4-6.014-8.987c0-7.562,6.51-11.968,15.499-11.968c2.542,0,4.402,0.372,6.014,0.808l11.346-0.247v4.463
			h-2.914l-3.534-0.124c2.294,1.552,3.782,3.906,3.782,7.007c0,6.942-6.634,10.786-15.251,10.786
			C304.263,37.26,301.721,36.95,299.427,36.206z M297.133,52.201c-0.248,0.312-0.31,0.99-0.31,1.674c0,3.597,4.03,5.643,9.857,5.643
			c5.394,0,10.415-1.179,10.415-4.959c0-1.61-0.992-2.354-2.976-2.354L297.133,52.201L297.133,52.201z M310.214,26.163
			c0-4.588-1.054-8.806-3.596-8.806c-2.48,0-3.162,2.914-3.162,8.186c0,4.896,1.116,9.052,3.596,9.052
			C309.594,34.594,310.214,31.742,310.214,26.163z"/>
		<path d="M329.993,6.882l-3.286-1.674V3.101l13.887-2.79h2.17v20.521c2.232-2.914,5.766-6.264,11.593-6.264
			c6.014,0,9.607,3.35,9.607,10.17v19.278c0,1.859,0.992,2.046,3.286,2.231v2.604h-19.157V46.25
			c2.292-0.188,3.102-0.372,3.102-2.231V25.853c0-2.294-0.744-3.845-3.844-3.845c-1.736,0-3.162,0.312-4.588,0.808v21.202
			c0,1.859,0.806,2.046,3.1,2.231v2.604h-19.157V46.25c2.294-0.188,3.286-0.372,3.286-2.231L329.993,6.882L329.993,6.882z"/>
		<path d="M384.366,15.189h6.881v3.534h-6.881v20.521c0,2.666,1.054,3.844,3.162,3.844c1.485,0,2.914-0.558,4.34-1.55l0.992,1.55
			c-2.479,4.153-6.141,6.387-11.348,6.387c-5.95,0-10.104-2.977-10.104-10.416V18.724h-3.351V16.43
			c5.271-1.86,10.105-5.519,13.577-9.855h2.729L384.366,15.189L384.366,15.189z"/>
		<path d="M395.031,46.312l-0.372-8.369h3.162c1.113,4.959,4.464,8.741,9.235,8.741c2.79,0,5.021-1.303,5.021-3.903
			c0-3.038-2.417-3.97-6.385-5.146c-7.192-2.106-11.101-5.207-11.101-11.717c0-7.378,5.58-11.348,13.329-11.348
			c4.278,0,8.246,1.116,10.912,2.854v7.44h-2.914c-0.62-3.906-3.41-7.504-7.688-7.504c-2.48,0-4.219,1.304-4.219,3.534
			c0,2.479,1.801,3.408,5.58,4.648c7.75,2.542,11.903,5.084,11.903,12.213c0,7.502-5.644,11.719-14.321,11.719
			C401.788,49.474,397.82,48.233,395.031,46.312z"/>
		<path d="M434.524,32.61c0-10.354,7.378-18.041,17.979-18.041c10.603,0,17.979,6.512,17.979,16.863
			c0,10.354-7.377,18.041-17.979,18.041C441.902,49.474,434.524,42.964,434.524,32.61z M456.905,34.408
			c0-10.604-1.181-17.111-4.712-17.111c-3.286,0-4.094,4.588-4.094,12.338c0,10.604,1.181,17.111,4.713,17.111
			C456.099,46.746,456.905,42.158,456.905,34.408z"/>
		<path d="M489.207,42.84c0,2.729,1.364,2.914,4.836,3.41v2.604H473.15V46.25c2.294-0.188,3.283-0.372,3.283-2.231V18.724h-4.399
			v-2.79l4.399-1.055v-0.496c0-9.856,7.008-14.072,15.375-14.072c7.132,0,10.292,2.418,10.292,6.388
			c0,1.798-0.989,3.348-2.418,4.027h-6.386c0.188-0.868,0.312-1.922,0.312-3.038c0-2.17-0.188-4.34-2.047-4.34
			c-1.735,0-2.355,1.363-2.355,3.721v8.121h7.068v3.534h-7.068V42.84L489.207,42.84z"/>
		<path d="M557.776,25.667c0-2.294-0.744-3.72-3.351-3.72c-1.609,0-2.852,0.434-4.216,0.93v21.142c0,1.859,0.56,2.046,2.854,2.231
			v2.604H534.59V46.25c2.294-0.188,2.854-0.372,2.854-2.231V25.667c0-2.294-0.744-3.72-3.351-3.72c-1.609,0-2.852,0.37-4.216,0.866
			v21.202c0,1.859,0.558,2.046,2.853,2.231v2.604h-18.907V46.25c2.294-0.188,3.286-0.372,3.286-2.231v-21.7l-3.286-2.106V18.29
			l13.823-3.722h2.479l-0.248,6.388c2.17-3.41,5.642-6.388,11.284-6.388c4.835,0,7.998,1.86,8.803,6.512
			c2.108-3.35,5.952-6.512,11.407-6.512c5.766,0,9.176,3.286,9.176,9.732v19.716c0,1.859,0.992,2.046,3.286,2.231v2.604h-18.909
			V46.25c2.293-0.188,2.854-0.372,2.854-2.231L557.776,25.667L557.776,25.667z"/>
		<path d="M605.764,42.034c0,1.237,0.124,2.542,1.551,2.542c0.808,0,1.611-0.188,1.924-0.312l0.434,1.859
			c-2.17,1.981-4.896,3.349-8.617,3.349c-3.779,0-6.51-1.858-7.626-5.146c-1.733,2.665-4.587,4.896-9.175,4.896
			c-5.332,0-9.111-2.914-9.111-8.433c0-5.456,3.721-7.688,8.061-9.176l10.043-3.474v-6.817c0-2.479-0.62-4.154-2.666-4.154
			c-2.17,0-2.977,1.922-2.977,4.772c0,1.487,0.248,3.038,0.618,4.59l-7.688,0.989c-1.86-0.618-3.226-2.17-3.226-4.523
			c0-5.892,6.075-8.434,13.825-8.434c9.052,0,14.632,2.666,14.632,11.035L605.764,42.034L605.764,42.034z M593.241,42.468V30.999
			l-2.479,0.931c-1.981,0.743-3.348,1.734-3.348,5.396c0,3.1,1.054,5.456,4.03,5.456C592.125,42.778,592.621,42.656,593.241,42.468z
			"/>
		<path d="M635.4,25.853c0-2.294-0.744-3.845-3.847-3.845c-1.733,0-3.159,0.312-4.588,0.808v21.202c0,1.859,0.808,2.046,3.103,2.231
			v2.604h-19.157V46.25c2.294-0.188,3.286-0.372,3.286-2.231v-21.7l-3.286-2.106V18.29l13.825-3.722h2.479l-0.248,6.264
			c2.232-2.914,5.769-6.264,11.594-6.264c6.016,0,9.609,3.35,9.609,10.17v19.278c0,1.859,0.992,2.046,3.285,2.231v2.604H632.3V46.25
			c2.293-0.188,3.103-0.372,3.103-2.231L635.4,25.853L635.4,25.853z"/>
		<path d="M664.974,32.61c0-10.354,7.378-18.041,17.979-18.041c10.601,0,17.979,6.512,17.979,16.863
			c0,10.354-7.379,18.041-17.979,18.041C672.352,49.473,664.974,42.964,664.974,32.61z M687.355,34.408
			c0-10.604-1.181-17.111-4.714-17.111c-3.284,0-4.092,4.588-4.092,12.338c0,10.604,1.181,17.111,4.711,17.111
			C686.548,46.746,687.355,42.158,687.355,34.408z"/>
		<path d="M719.658,42.84c0,2.729,1.363,2.914,4.834,3.41v2.604h-20.894V46.25c2.296-0.188,3.287-0.372,3.287-2.231V18.724h-4.399
			v-2.79l4.399-1.055v-0.496c0-9.856,7.006-14.072,15.375-14.072c7.129,0,10.291,2.418,10.291,6.388
			c0,1.798-0.991,3.348-2.418,4.027h-6.385c0.186-0.868,0.309-1.922,0.309-3.038c0-2.17-0.186-4.34-2.045-4.34
			c-1.735,0-2.354,1.363-2.354,3.721v8.121h7.065v3.534h-7.065V42.84z"/>
		<path d="M788.227,25.667c0-2.294-0.744-3.72-3.349-3.72c-1.611,0-2.852,0.434-4.215,0.93v21.142c0,1.859,0.557,2.046,2.852,2.231
			v2.604H765.04V46.25c2.293-0.188,2.852-0.372,2.852-2.231V25.667c0-2.294-0.743-3.72-3.348-3.72c-1.613,0-2.854,0.37-4.217,0.866
			v21.202c0,1.859,0.559,2.046,2.852,2.231v2.604h-18.907V46.25c2.295-0.188,3.284-0.372,3.284-2.231v-21.7l-3.284-2.106V18.29
			l13.825-3.722h2.479l-0.248,6.388c2.17-3.41,5.643-6.388,11.283-6.388c4.836,0,7.998,1.86,8.805,6.512
			c2.107-3.35,5.951-6.512,11.406-6.512c5.766,0,9.176,3.286,9.176,9.732v19.716c0,1.859,0.992,2.046,3.287,2.231v2.604h-18.91
			V46.25c2.295-0.188,2.852-0.372,2.852-2.231V25.667L788.227,25.667z"/>
		<path d="M837.207,28.457v1.55h-19.652c0,6.819,3.849,11.159,9.299,11.159c3.906,0,6.886-1.302,9.238-4.34l1.301,0.806
			c-1.731,7.192-6.633,11.843-14.754,11.843c-9.233,0-16.61-5.891-16.61-16.739c0-11.222,7.991-18.163,17.172-18.163
			C832.496,14.569,837.207,20.335,837.207,28.457z M817.615,26.969h8.742c0-6.138-0.992-9.672-3.968-9.672
			C819.289,17.297,817.863,21.141,817.615,26.969z"/>
		<path d="M870.066,42.034c0,1.237,0.123,2.542,1.549,2.542c0.807,0,1.611-0.188,1.922-0.312l0.434,1.859
			c-2.17,1.981-4.895,3.349-8.617,3.349c-3.776,0-6.51-1.858-7.625-5.146c-1.731,2.665-4.588,4.896-9.176,4.896
			c-5.332,0-9.111-2.914-9.111-8.433c0-5.456,3.722-7.688,8.062-9.176l10.045-3.474v-6.817c0-2.479-0.621-4.154-2.666-4.154
			c-2.17,0-2.977,1.922-2.977,4.772c0,1.487,0.245,3.038,0.616,4.59l-7.688,0.989c-1.859-0.618-3.223-2.17-3.223-4.523
			c0-5.892,6.073-8.434,13.821-8.434c9.056,0,14.634,2.666,14.634,11.035V42.034L870.066,42.034z M857.542,42.468V30.999
			l-2.479,0.931c-1.984,0.743-3.349,1.734-3.349,5.396c0,3.1,1.053,5.456,4.029,5.456C856.425,42.778,856.921,42.656,857.542,42.468
			z"/>
		<path d="M899.701,25.853c0-2.294-0.744-3.845-3.844-3.845c-1.736,0-3.162,0.312-4.588,0.808v21.202c0,1.859,0.807,2.046,3.1,2.231
			v2.604h-19.156V46.25c2.295-0.188,3.285-0.372,3.285-2.231v-21.7l-3.285-2.106V18.29l13.826-3.722h2.479l-0.248,6.264
			c2.232-2.914,5.771-6.264,11.599-6.264c6.014,0,9.604,3.35,9.604,10.17v19.278c0,1.859,0.992,2.046,3.285,2.231v2.604h-19.156
			V46.25c2.295-0.188,3.104-0.372,3.104-2.231V25.853H899.701z"/>
		<path d="M918.425,46.312l-0.371-8.369h3.162c1.115,4.959,4.463,8.741,9.236,8.741c2.791,0,5.02-1.303,5.02-3.903
			c0-3.038-2.418-3.97-6.385-5.146c-7.188-2.106-11.098-5.207-11.098-11.717c0-7.378,5.58-11.348,13.33-11.348
			c4.274,0,8.241,1.116,10.907,2.854v7.44h-2.914c-0.616-3.906-3.405-7.504-7.688-7.504c-2.479,0-4.215,1.304-4.215,3.534
			c0,2.479,1.797,3.408,5.58,4.648c7.748,2.542,11.9,5.084,11.9,12.213c0,7.502-5.642,11.719-14.318,11.719
			C925.183,49.474,921.216,48.233,918.425,46.312z"/>
		<path d="M957.919,32.61c0-10.354,7.377-18.041,17.979-18.041c10.602,0,17.979,6.512,17.979,16.863
			c0,10.354-7.379,18.041-17.979,18.041C965.297,49.473,957.919,42.964,957.919,32.61z M980.3,34.408
			c0-10.604-1.178-17.111-4.711-17.111c-3.287,0-4.092,4.588-4.092,12.338c0,10.604,1.178,17.111,4.711,17.111
			C979.494,46.746,980.3,42.158,980.3,34.408z"/>
		<path d="M1012.604,42.84c0,2.729,1.362,2.914,4.834,3.41v2.604h-20.894V46.25c2.295-0.188,3.287-0.372,3.287-2.231V18.724h-4.402
			v-2.79l4.402-1.055v-0.496c0-9.856,7.006-14.072,15.375-14.072c7.129,0,10.291,2.418,10.291,6.388
			c0,1.798-0.992,3.348-2.418,4.027h-6.385c0.186-0.868,0.309-1.922,0.309-3.038c0-2.17-0.186-4.34-2.045-4.34
			c-1.736,0-2.354,1.363-2.354,3.721v8.121h7.065v3.534h-7.065V42.84z"/>
		<path d="M1040.068,22.319l-3.285-2.106V18.29l13.824-3.722h2.479l-0.248,6.14c1.611-2.729,5.021-6.14,10.416-6.14
			c7.191,0,12.584,4.896,12.584,15.312c0,13.02-7.873,19.592-17.979,19.592c-2.23,0-4.097-0.372-5.021-1.055v8.432
			c0,2.17,1.115,2.231,4.588,2.542v2.604h-20.645v-2.604c2.293-0.187,3.282-0.372,3.282-2.229V22.319H1040.068z M1062.822,33.54
			c0-8.434-2.978-11.531-7.131-11.531c-0.992,0-1.859,0.124-2.853,0.56v17.547c0,3.655,0.744,6.197,3.781,6.197
			C1060.775,46.312,1062.822,40.732,1062.822,33.54z"/>
		<path d="M1094.503,42.84c0,2.729,1.363,2.914,4.836,3.41v2.604h-20.893V46.25c2.293-0.188,3.285-0.372,3.285-2.231v-21.7
			l-3.285-2.106V18.29l13.824-3.722h2.479l-0.248,9.674c2.355-7.439,4.648-9.674,8.617-9.674c1.551,0,2.604,0.437,3.285,1.056v9.483
			h-1.611c-3.967,0-7.625,0.124-10.291,1.735V42.84H1094.503z"/>
		<path d="M1107.958,32.61c0-10.354,7.377-18.041,17.979-18.041c10.602,0,17.979,6.512,17.979,16.863
			c0,10.354-7.377,18.041-17.979,18.041C1115.335,49.473,1107.958,42.964,1107.958,32.61z M1130.339,34.408
			c0-10.604-1.18-17.111-4.713-17.111c-3.285,0-4.092,4.588-4.092,12.338c0,10.604,1.178,17.111,4.713,17.111
			C1129.533,46.746,1130.339,42.158,1130.339,34.408z"/>
		<path d="M1166.361,5.208V3.101l13.887-2.79h2.17v41.165c0,2.107,0.186,3.162,1.984,3.162h1.426v2.729l-13.949,2.106h-2.418
			l0.189-5.891c-2.541,3.968-5.951,5.891-10.105,5.891c-7.191,0-12.522-5.519-12.522-15.935c0-12.274,7.502-18.66,16.737-18.66
			c2.418,0,4.527,0.559,5.892,1.675V6.882L1166.361,5.208z M1159.912,29.82c0,7.628,2.604,12.712,7.006,12.712
			c0.869,0,1.799-0.124,2.729-0.438V24.49c0-3.782-0.739-5.768-3.721-5.768C1161.833,18.724,1159.912,23.125,1159.912,29.82z"/>
		<path d="M1223.895,41.476c0,2.107,0.186,3.162,1.983,3.162h1.426v2.729l-13.948,2.106h-2.418l0.186-6.076
			c-2.107,2.854-5.393,6.076-11.158,6.076c-5.58,0-9.549-3.349-9.549-10.603V24.179c0-1.735-0.434-3.161-2.17-3.721l-0.93-0.312
			v-2.479l13.887-3.102h2.357l-0.373,8.186v15.003c0,2.854,1.116,4.465,3.905,4.465c1.55,0,2.48-0.187,4.029-0.683V24.179
			c0-1.735-0.434-3.161-2.17-3.721l-0.93-0.312v-2.479l13.887-3.102h2.354l-0.373,8.186v18.724H1223.895z"/>
		<path d="M1250.058,40.979c3.535,0,6.14-1.113,8.062-3.845l1.488,0.932c-2.047,7.997-7.316,11.407-14.509,11.407
			c-8.805,0-15.686-6.139-15.686-16.431c0-10.603,6.938-18.477,17.479-18.477c6.324,0,11.779,2.355,11.779,8.122
			c0,2.541-1.483,4.094-2.912,4.711h-6.387c0.188-1.485,0.248-2.665,0.248-3.72c0-3.721-0.992-6.139-3.719-6.139
			c-3.474,0-5.457,4.648-5.457,10.851C1240.449,36.206,1243.921,40.979,1250.058,40.979z"/>
		<path d="M1276.843,15.189h6.881v3.534h-6.881v20.521c0,2.666,1.054,3.844,3.162,3.844c1.486,0,2.912-0.558,4.338-1.55l0.992,1.55
			c-2.479,4.153-6.137,6.387-11.344,6.387c-5.953,0-10.105-2.977-10.105-10.416V18.724h-3.35V16.43
			c5.27-1.86,10.104-5.519,13.578-9.855h2.729V15.189z"/>
		<path d="M1302.759,44.018c0,1.859,0.992,2.046,3.285,2.231v2.604h-19.342V46.25c2.293-0.188,3.285-0.372,3.285-2.231v-21.7
			l-3.285-2.106V18.29l13.824-3.722h2.229v29.449H1302.759z M1289.988,6.138c0-3.285,2.418-6.139,6.572-6.139
			c4.092,0,6.569,2.854,6.569,6.139s-2.479,6.138-6.569,6.138C1292.406,12.275,1289.988,9.424,1289.988,6.138z"/>
		<path d="M1308.277,32.61c0-10.354,7.377-18.041,17.979-18.041c10.605,0,17.98,6.512,17.98,16.863
			c0,10.354-7.379,18.041-17.98,18.041C1315.656,49.473,1308.277,42.964,1308.277,32.61z M1330.658,34.408
			c0-10.604-1.178-17.111-4.711-17.111c-3.287,0-4.093,4.588-4.093,12.338c0,10.604,1.179,17.111,4.712,17.111
			C1329.851,46.746,1330.658,42.158,1330.658,34.408z"/>
		<path d="M1371.33,25.853c0-2.294-0.744-3.845-3.844-3.845c-1.736,0-3.162,0.312-4.588,0.808v21.202c0,1.859,0.805,2.046,3.1,2.231
			v2.604h-19.156V46.25c2.293-0.188,3.285-0.372,3.285-2.231v-21.7l-3.285-2.106V18.29l13.824-3.722h2.479l-0.248,6.264
			c2.232-2.914,5.767-6.264,11.595-6.264c6.014,0,9.608,3.35,9.608,10.17v19.278c0,1.859,0.992,2.046,3.285,2.231v2.604h-19.156
			V46.25c2.293-0.188,3.101-0.372,3.101-2.231V25.853L1371.33,25.853z"/>
	</g>
</g>
</svg>
