<?xml version="1.0" encoding="utf-8"?>
<!-- Generator: Adobe Illustrator 16.0.0, SVG Export Plug-In . SVG Version: 6.00 Build 0)  -->
<!DOCTYPE svg PUBLIC "-//W3C//DTD SVG 1.1//EN" "http://www.w3.org/Graphics/SVG/1.1/DTD/svg11.dtd">
<svg version="1.1" id="Layer_1" xmlns="http://www.w3.org/2000/svg" xmlns:xlink="http://www.w3.org/1999/xlink" x="0px" y="0px"
	 width="1440px" height="62.641px" viewBox="0 0 1440 62.641" enable-background="new 0 0 1440 62.641" xml:space="preserve">
<g>
	<path d="M240.006,22.009l-3.286-2.107v-1.922l13.825-3.721h2.479l-0.248,6.139c1.612-2.729,5.022-6.139,10.416-6.139
		c7.192,0,12.585,4.896,12.585,15.312c0,13.018-7.874,19.59-17.979,19.59c-2.232,0-4.092-0.371-5.022-1.054v8.431
		c0,2.17,1.116,2.231,4.588,2.543v2.604H236.72v-2.604c2.293-0.187,3.286-0.373,3.286-2.231V22.009z M262.758,33.23
		c0-8.433-2.976-11.53-7.129-11.53c-0.992,0-1.86,0.123-2.852,0.559v17.543c0,3.658,0.744,6.199,3.782,6.199
		C260.712,45.999,262.758,40.421,262.758,33.23z"/>
	<path d="M308.452,41.722c0,1.239,0.124,2.543,1.55,2.543c0.806,0,1.612-0.188,1.922-0.312l0.434,1.858
		c-2.17,1.983-4.897,3.349-8.617,3.349c-3.782,0-6.51-1.859-7.626-5.146c-1.736,2.663-4.587,4.896-9.175,4.896
		c-5.332,0-9.113-2.914-9.113-8.433c0-5.455,3.72-7.687,8.06-9.175l10.043-3.472v-6.819c0-2.479-0.62-4.153-2.666-4.153
		c-2.17,0-2.976,1.923-2.976,4.773c0,1.487,0.248,3.038,0.62,4.588l-7.688,0.991c-1.86-0.619-3.224-2.17-3.224-4.524
		c0-5.891,6.076-8.433,13.826-8.433c9.051,0,14.631,2.666,14.631,11.035L308.452,41.722L308.452,41.722z M295.928,42.156V30.689
		l-2.479,0.931c-1.984,0.743-3.348,1.733-3.348,5.393c0,3.101,1.054,5.455,4.03,5.455C294.812,42.466,295.309,42.343,295.928,42.156
		z"/>
	<path d="M334.12,40.667c3.534,0,6.138-1.115,8.06-3.845l1.488,0.933c-2.046,7.996-7.315,11.406-14.507,11.406
		c-8.803,0-15.685-6.138-15.685-16.429c0-10.602,6.944-18.476,17.483-18.476c6.323,0,11.779,2.355,11.779,8.122
		c0,2.541-1.488,4.092-2.914,4.711h-6.386c0.186-1.486,0.248-2.665,0.248-3.72c0-3.721-0.992-6.139-3.72-6.139
		c-3.472,0-5.456,4.649-5.456,10.851C324.511,35.894,327.982,40.667,334.12,40.667z"/>
	<path d="M376.713,28.147v1.55H357.06c0,6.818,3.846,11.158,9.301,11.158c3.904,0,6.881-1.304,9.235-4.34l1.304,0.805
		c-1.736,7.192-6.636,11.843-14.757,11.843c-9.235,0-16.615-5.89-16.615-16.737c0-11.222,7.998-18.165,17.173-18.165
		C372.001,14.259,376.713,20.025,376.713,28.147z M357.123,26.659h8.741c0-6.139-0.992-9.673-3.968-9.673
		C358.796,16.987,357.37,20.83,357.123,26.659z"/>
	<path d="M390.85,32.3c0-10.354,7.379-18.041,17.979-18.041c10.602,0,17.979,6.511,17.979,16.863s-7.377,18.039-17.979,18.039
		C398.229,49.161,390.85,42.652,390.85,32.3z M413.23,34.097c0-10.602-1.18-17.11-4.714-17.11c-3.284,0-4.091,4.589-4.091,12.339
		c0,10.601,1.18,17.109,4.711,17.109C412.425,46.435,413.23,41.847,413.23,34.097z"/>
	<path d="M445.532,42.529c0,2.728,1.364,2.914,4.836,3.41v2.604h-20.895v-2.604c2.296-0.188,3.286-0.373,3.286-2.231V18.413h-4.4
		v-2.79l4.4-1.055v-0.496C432.761,4.216,439.766,0,448.136,0c7.129,0,10.292,2.418,10.292,6.386c0,1.799-0.992,3.349-2.418,4.029
		h-6.386c0.187-0.868,0.31-1.922,0.31-3.038c0-2.17-0.186-4.34-2.046-4.34c-1.734,0-2.354,1.363-2.354,3.721v8.121h7.066v3.534
		h-7.066L445.532,42.529L445.532,42.529z"/>
	<path d="M489.118,40.667c3.534,0,6.138-1.115,8.06-3.845l1.488,0.933c-2.046,7.996-7.315,11.406-14.507,11.406
		c-8.803,0-15.687-6.138-15.687-16.429c0-10.602,6.944-18.476,17.483-18.476c6.323,0,11.779,2.355,11.779,8.122
		c0,2.541-1.488,4.092-2.914,4.711h-6.388c0.188-1.486,0.248-2.665,0.248-3.72c0-3.721-0.99-6.139-3.72-6.139
		c-3.472,0-5.456,4.649-5.456,10.851C479.508,35.894,482.98,40.667,489.118,40.667z"/>
	<path d="M503.688,6.572l-3.283-1.674V2.79L514.29,0h2.17v20.521c2.232-2.914,5.767-6.263,11.594-6.263
		c6.016,0,9.609,3.349,9.609,10.168v19.279c0,1.858,0.992,2.045,3.285,2.231v2.604h-19.156v-2.604
		c2.293-0.188,3.101-0.373,3.101-2.231V25.542c0-2.294-0.743-3.845-3.845-3.845c-1.735,0-3.162,0.312-4.588,0.808v21.201
		c0,1.858,0.808,2.045,3.101,2.231v2.604h-19.155v-2.604c2.293-0.188,3.285-0.373,3.285-2.231V6.572H503.688z"/>
	<path d="M572.878,41.722c0,1.239,0.124,2.543,1.55,2.543c0.809,0,1.612-0.188,1.922-0.312l0.436,1.858
		c-2.17,1.983-4.896,3.349-8.617,3.349c-3.781,0-6.51-1.859-7.625-5.146c-1.736,2.663-4.588,4.896-9.176,4.896
		c-5.332,0-9.113-2.914-9.113-8.433c0-5.455,3.72-7.687,8.061-9.175l10.043-3.472v-6.819c0-2.479-0.619-4.153-2.664-4.153
		c-2.17,0-2.979,1.923-2.979,4.773c0,1.487,0.248,3.038,0.62,4.588l-7.688,0.991c-1.859-0.619-3.225-2.17-3.225-4.524
		c0-5.891,6.075-8.433,13.825-8.433c9.052,0,14.631,2.666,14.631,11.035V41.722L572.878,41.722z M560.355,42.156V30.689
		l-2.479,0.931c-1.984,0.743-3.348,1.733-3.348,5.393c0,3.101,1.054,5.455,4.027,5.455
		C559.239,42.466,559.735,42.343,560.355,42.156z"/>
	<path d="M602.514,25.542c0-2.294-0.744-3.845-3.844-3.845c-1.734,0-3.162,0.312-4.588,0.808v21.201
		c0,1.858,0.807,2.045,3.101,2.231v2.604h-19.155v-2.604c2.294-0.188,3.285-0.373,3.285-2.231V22.009l-3.285-2.107v-1.922
		l13.824-3.721h2.479l-0.248,6.263c2.231-2.914,5.766-6.263,11.594-6.263c6.015,0,9.609,3.349,9.609,10.168v19.279
		c0,1.858,0.992,2.045,3.286,2.231v2.604h-19.157v-2.604c2.294-0.188,3.1-0.373,3.1-2.231L602.514,25.542L602.514,25.542z"/>
	<path d="M628.307,35.894c-0.807,0.743-1.551,1.551-1.551,2.729c0,0.93,0.621,1.674,1.674,1.674h13.826
		c8.928,0,12.398,3.845,12.398,9.547c0,8.123-7.625,12.523-19.28,12.523c-10.167,0-16.491-2.604-16.491-7.503
		c0-3.036,3.1-4.34,5.703-4.586c-2.665-1.055-4.215-3.782-4.215-6.448c0-4.216,2.852-6.881,6.199-8.617
		c-3.474-1.61-6.016-4.399-6.016-8.986c0-7.562,6.512-11.967,15.499-11.967c2.542,0,4.401,0.372,6.015,0.807l11.347-0.247v4.463
		h-2.914l-3.534-0.123c2.295,1.551,3.782,3.905,3.782,7.006c0,6.941-6.634,10.786-15.251,10.786
		C633.143,36.949,630.6,36.637,628.307,35.894z M626.012,51.89c-0.247,0.312-0.309,0.991-0.309,1.674
		c0,3.597,4.029,5.642,9.857,5.642c5.393,0,10.412-1.179,10.412-4.959c0-1.611-0.99-2.354-2.975-2.354L626.012,51.89L626.012,51.89z
		 M639.094,25.853c0-4.588-1.055-8.805-3.596-8.805c-2.48,0-3.162,2.914-3.162,8.185c0,4.896,1.116,9.051,3.596,9.051
		C638.474,34.283,639.094,31.432,639.094,25.853z"/>
	<path d="M685.965,28.147v1.55h-19.652c0,6.818,3.846,11.158,9.301,11.158c3.904,0,6.882-1.304,9.236-4.34l1.304,0.805
		c-1.736,7.192-6.636,11.843-14.757,11.843c-9.236,0-16.613-5.89-16.613-16.737c0-11.222,7.997-18.165,17.173-18.165
		C681.254,14.259,685.965,20.025,685.965,28.147z M666.375,26.659h8.74c0-6.139-0.991-9.673-3.967-9.673
		C668.049,16.987,666.623,20.83,666.375,26.659z"/>
	<path d="M700.102,32.3c0-10.354,7.377-18.041,17.979-18.041c10.602,0,17.979,6.511,17.979,16.863s-7.378,18.039-17.979,18.039
		C707.479,49.161,700.102,42.652,700.102,32.3z M722.482,34.097c0-10.602-1.179-17.11-4.713-17.11
		c-3.283,0-4.091,4.589-4.091,12.339c0,10.601,1.18,17.109,4.712,17.109C721.675,46.435,722.482,41.847,722.482,34.097z"/>
	<path d="M754.785,42.529c0,2.728,1.363,2.914,4.836,3.41v2.604h-20.896v-2.604c2.296-0.188,3.287-0.373,3.287-2.231V18.413h-4.399
		v-2.79l4.399-1.055v-0.496C742.013,4.216,749.02,0,757.388,0c7.13,0,10.291,2.418,10.291,6.386c0,1.799-0.991,3.349-2.418,4.029
		h-6.385c0.187-0.868,0.31-1.922,0.31-3.038c0-2.17-0.187-4.34-2.046-4.34c-1.735,0-2.354,1.363-2.354,3.721v8.121h7.066v3.534
		h-7.066V42.529L754.785,42.529z"/>
	<path d="M783.8,22.009l-3.285-2.107v-1.922l13.826-3.721h2.479l-0.248,6.139c1.613-2.729,5.022-6.139,10.416-6.139
		c7.19,0,12.586,4.896,12.586,15.312c0,13.018-7.873,19.59-17.979,19.59c-2.231,0-4.092-0.371-5.022-1.054v8.431
		c0,2.17,1.117,2.231,4.588,2.543v2.604h-20.646v-2.604c2.294-0.187,3.285-0.373,3.285-2.231V22.009z M806.554,33.23
		c0-8.433-2.977-11.53-7.129-11.53c-0.992,0-1.86,0.123-2.854,0.559v17.543c0,3.658,0.741,6.199,3.78,6.199
		C804.507,45.999,806.554,40.421,806.554,33.23z"/>
	<path d="M837.988,43.706c0,1.858,0.992,2.045,3.287,2.231v2.604h-19.345v-2.604c2.295-0.188,3.287-0.373,3.287-2.231V6.572
		l-3.287-1.674V2.79L835.818,0h2.17V43.706z"/>
	<path d="M873.701,41.722c0,1.239,0.123,2.543,1.549,2.543c0.807,0,1.611-0.188,1.922-0.312l0.434,1.858
		c-2.17,1.983-4.895,3.349-8.614,3.349c-3.781,0-6.513-1.859-7.625-5.146c-1.736,2.663-4.588,4.896-9.179,4.896
		c-5.331,0-9.11-2.914-9.11-8.433c0-5.455,3.719-7.687,8.059-9.175l10.045-3.472v-6.819c0-2.479-0.62-4.153-2.666-4.153
		c-2.17,0-2.977,1.923-2.977,4.773c0,1.487,0.248,3.038,0.621,4.588l-7.689,0.991c-1.858-0.619-3.223-2.17-3.223-4.524
		c0-5.891,6.076-8.433,13.822-8.433c9.055,0,14.635,2.666,14.635,11.035v16.43h-0.003V41.722z M861.177,42.156V30.689l-2.479,0.931
		c-1.984,0.743-3.349,1.733-3.349,5.393c0,3.101,1.054,5.455,4.029,5.455C860.061,42.466,860.556,42.343,861.177,42.156z"/>
	<path d="M903.335,25.542c0-2.294-0.744-3.845-3.844-3.845c-1.736,0-3.162,0.312-4.588,0.808v21.201c0,1.858,0.807,2.045,3.1,2.231
		v2.604h-19.156v-2.604c2.295-0.188,3.285-0.373,3.285-2.231V22.009l-3.285-2.107v-1.922l13.826-3.721h2.479l-0.248,6.263
		c2.231-2.914,5.766-6.263,11.594-6.263c6.014,0,9.609,3.349,9.609,10.168v19.279c0,1.858,0.991,2.045,3.284,2.231v2.604h-19.155
		v-2.604c2.295-0.188,3.1-0.373,3.1-2.231L903.335,25.542L903.335,25.542z"/>
	<path d="M932.91,32.3c0-10.354,7.377-18.041,17.979-18.041c10.604,0,17.98,6.511,17.98,16.863s-7.379,18.039-17.98,18.039
		C940.289,49.161,932.91,42.652,932.91,32.3z M955.291,34.097c0-10.602-1.178-17.11-4.711-17.11c-3.287,0-4.092,4.589-4.092,12.339
		c0,10.601,1.178,17.109,4.711,17.109C954.484,46.435,955.291,41.847,955.291,34.097z"/>
	<path d="M987.593,42.529c0,2.728,1.363,2.914,4.834,3.41v2.604h-20.893v-2.604c2.295-0.188,3.287-0.373,3.287-2.231V18.413h-4.402
		v-2.79l4.402-1.055v-0.496C974.822,4.216,981.828,0,990.197,0c7.129,0,10.291,2.418,10.291,6.386c0,1.799-0.992,3.349-2.418,4.029
		h-6.388c0.188-0.868,0.312-1.922,0.312-3.038c0-2.17-0.188-4.34-2.045-4.34c-1.736,0-2.355,1.363-2.355,3.721v8.121h7.066v3.534
		h-7.066L987.593,42.529L987.593,42.529z"/>
	<path d="M1042.275,41.722c0,1.239,0.125,2.543,1.551,2.543c0.805,0,1.611-0.188,1.922-0.312l0.434,1.858
		c-2.17,1.983-4.896,3.349-8.614,3.349c-3.783,0-6.513-1.859-7.63-5.146c-1.731,2.663-4.588,4.896-9.174,4.896
		c-5.332,0-9.112-2.914-9.112-8.433c0-5.455,3.721-7.687,8.061-9.175l10.043-3.472v-6.819c0-2.479-0.619-4.153-2.666-4.153
		c-2.17,0-2.975,1.923-2.975,4.773c0,1.487,0.248,3.038,0.619,4.588l-7.689,0.991c-1.858-0.619-3.225-2.17-3.225-4.524
		c0-5.891,6.075-8.433,13.825-8.433c9.052,0,14.632,2.666,14.632,11.035L1042.275,41.722L1042.275,41.722z M1029.751,42.156V30.689
		l-2.479,0.931c-1.982,0.743-3.349,1.733-3.349,5.393c0,3.101,1.056,5.455,4.031,5.455
		C1028.636,42.466,1029.132,42.343,1029.751,42.156z"/>
	<path d="M1062.673,14.879h6.883v3.534h-6.883v20.521c0,2.666,1.056,3.844,3.162,3.844c1.488,0,2.914-0.56,4.34-1.551l0.992,1.551
		c-2.479,4.151-6.139,6.386-11.346,6.386c-5.951,0-10.105-2.976-10.105-10.416V18.413h-3.348v-2.294
		c5.27-1.86,10.104-5.519,13.578-9.857h2.727V14.879z"/>
	<path d="M1087.785,14.879h6.881v3.534h-6.881v20.521c0,2.666,1.053,3.844,3.162,3.844c1.485,0,2.912-0.56,4.338-1.551l0.992,1.551
		c-2.479,4.151-6.138,6.386-11.345,6.386c-5.952,0-10.104-2.976-10.104-10.416V18.413h-3.35v-2.294
		c5.271-1.86,10.104-5.519,13.577-9.857h2.729V14.879z"/>
	<path d="M1128.021,41.722c0,1.239,0.123,2.543,1.549,2.543c0.807,0,1.61-0.188,1.922-0.312l0.434,1.858
		c-2.17,1.983-4.895,3.349-8.617,3.349c-3.778,0-6.51-1.859-7.625-5.146c-1.733,2.663-4.588,4.896-9.176,4.896
		c-5.332,0-9.113-2.914-9.113-8.433c0-5.455,3.722-7.687,8.062-9.175l10.045-3.472v-6.819c0-2.479-0.621-4.153-2.666-4.153
		c-2.17,0-2.979,1.923-2.979,4.773c0,1.487,0.248,3.038,0.621,4.588l-7.688,0.991c-1.859-0.619-3.225-2.17-3.225-4.524
		c0-5.891,6.075-8.433,13.823-8.433c9.054,0,14.634,2.666,14.634,11.035V41.722L1128.021,41.722z M1115.498,42.156V30.689
		l-2.48,0.931c-1.981,0.743-3.348,1.733-3.348,5.393c0,3.101,1.053,5.455,4.029,5.455
		C1114.38,42.466,1114.876,42.343,1115.498,42.156z"/>
	<path d="M1153.689,40.667c3.532,0,6.137-1.115,8.059-3.845l1.488,0.933c-2.045,7.996-7.316,11.406-14.509,11.406
		c-8.803,0-15.684-6.138-15.684-16.429c0-10.602,6.943-18.476,17.482-18.476c6.321,0,11.776,2.355,11.776,8.122
		c0,2.541-1.485,4.092-2.914,4.711h-6.385c0.188-1.486,0.248-2.665,0.248-3.72c0-3.721-0.992-6.139-3.721-6.139
		c-3.473,0-5.455,4.649-5.455,10.851C1144.08,35.894,1147.55,40.667,1153.689,40.667z"/>
	<path d="M1168.259,6.572l-3.285-1.674V2.79L1178.861,0h2.17v43.706c0,1.858,0.992,2.045,3.285,2.231v2.604h-19.343v-2.604
		c2.293-0.188,3.285-0.373,3.285-2.231V6.572z M1190.826,22.505c1.736-1.551,2.107-2.355,2.107-3.162
		c0-1.115-0.806-1.55-3.656-1.859v-2.604h14.442v2.604c-2.045,0.248-3.532,0.56-5.207,2.231l-6.571,6.323l12.959,20.705v1.799
		h-13.146l-10.354-17.544L1190.826,22.505z"/>
</g>
</svg>
