<?xml version="1.0" encoding="utf-8"?>
<!-- Generator: Adobe Illustrator 16.0.0, SVG Export Plug-In . SVG Version: 6.00 Build 0)  -->
<!DOCTYPE svg PUBLIC "-//W3C//DTD SVG 1.1//EN" "http://www.w3.org/Graphics/SVG/1.1/DTD/svg11.dtd">
<svg version="1.1" id="_x32_" xmlns="http://www.w3.org/2000/svg" xmlns:xlink="http://www.w3.org/1999/xlink" x="0px" y="0px"
	 width="1440px" height="62.641px" viewBox="0 0 1440 62.641" enable-background="new 0 0 1440 62.641" xml:space="preserve">
<g>
	<path d="M173,4.898V2.79L186.887,0h2.17v20.396c1.612-2.729,5.021-6.141,10.416-6.141c7.191,0,12.585,4.896,12.585,15.312
		c0,13.02-8.369,19.592-19.157,19.592c-5.766,0-12.399-0.992-16.615-4.217V6.572L173,4.898z M199.039,33.23
		c0-8.435-2.976-11.531-7.13-11.531c-0.992,0-1.86,0.124-2.852,0.56v17.548c0,3.654,0.744,6.196,3.782,6.196
		C196.993,46.001,199.039,40.421,199.039,33.23z"/>
	<path d="M246.344,28.147v1.55h-19.653c0,6.819,3.844,11.159,9.299,11.159c3.906,0,6.881-1.303,9.237-4.34l1.302,0.806
		c-1.736,7.192-6.634,11.843-14.755,11.843c-9.237,0-16.615-5.891-16.615-16.739c0-11.222,7.998-18.164,17.173-18.164
		C241.632,14.258,246.344,20.025,246.344,28.147z M226.753,26.658h8.741c0-6.138-0.992-9.672-3.968-9.672
		C228.427,16.987,227,20.83,226.753,26.658z"/>
	<path d="M279.202,41.724c0,1.236,0.124,2.542,1.55,2.542c0.806,0,1.612-0.188,1.922-0.312l0.434,1.859
		c-2.17,1.98-4.897,3.349-8.617,3.349c-3.782,0-6.51-1.859-7.626-5.146c-1.736,2.665-4.587,4.896-9.175,4.896
		c-5.332,0-9.113-2.914-9.113-8.433c0-5.456,3.72-7.688,8.06-9.177l10.043-3.474v-6.817c0-2.479-0.62-4.153-2.666-4.153
		c-2.17,0-2.976,1.922-2.976,4.771c0,1.487,0.248,3.038,0.62,4.59l-7.688,0.989c-1.86-0.619-3.224-2.17-3.224-4.522
		c0-5.893,6.075-8.435,13.825-8.435c9.051,0,14.631,2.666,14.631,11.035V41.724L279.202,41.724z M266.679,42.157V30.689L264.2,31.62
		c-1.984,0.743-3.348,1.734-3.348,5.396c0,3.1,1.054,5.456,4.03,5.456C265.563,42.467,266.059,42.344,266.679,42.157z"/>
	<path d="M285.156,46.001l-0.372-8.369h3.162c1.116,4.959,4.464,8.741,9.238,8.741c2.79,0,5.021-1.303,5.021-3.904
		c0-3.036-2.417-3.969-6.385-5.146c-7.192-2.106-11.098-5.207-11.098-11.717c0-7.378,5.58-11.349,13.329-11.349
		c4.278,0,8.246,1.116,10.912,2.854v7.438h-2.914c-0.62-3.903-3.41-7.502-7.688-7.502c-2.48,0-4.216,1.305-4.216,3.534
		c0,2.479,1.798,3.408,5.58,4.648c7.75,2.542,11.903,5.084,11.903,12.213c0,7.502-5.642,11.719-14.321,11.719
		C291.913,49.163,287.945,47.922,285.156,46.001z"/>
	<path d="M329.795,14.878h6.881v3.534h-6.881v20.521c0,2.666,1.054,3.844,3.162,3.844c1.488,0,2.914-0.559,4.34-1.55l0.992,1.55
		c-2.479,4.153-6.138,6.387-11.345,6.387c-5.952,0-10.105-2.977-10.105-10.416V18.413h-3.348v-2.294
		c5.27-1.86,10.105-5.519,13.577-9.854h2.728L329.795,14.878L329.795,14.878z"/>
	<path d="M351.309,32.299c0-10.354,7.379-18.041,17.979-18.041c10.6,0,17.979,6.513,17.979,16.863
		c0,10.354-7.377,18.041-17.979,18.041C358.688,49.163,351.309,42.654,351.309,32.299z M373.689,34.098
		c0-10.604-1.181-17.111-4.715-17.111c-3.283,0-4.091,4.588-4.091,12.338c0,10.604,1.181,17.111,4.711,17.111
		C372.884,46.436,373.689,41.848,373.689,34.098z"/>
	<path d="M405.991,42.53c0,2.729,1.364,2.914,4.836,3.41v2.604h-20.896V45.94c2.294-0.188,3.286-0.372,3.286-2.231V18.413h-4.399
		v-2.79l4.399-1.055v-0.496C393.219,4.216,400.224,0,408.594,0c7.129,0,10.292,2.418,10.292,6.388c0,1.799-0.992,3.349-2.418,4.027
		h-6.386c0.186-0.868,0.31-1.922,0.31-3.038c0-2.17-0.186-4.34-2.046-4.34c-1.733,0-2.354,1.363-2.354,3.721v8.121h7.065v3.534
		h-7.065L405.991,42.53L405.991,42.53z"/>
	<path d="M430.792,4.898V2.79L444.679,0h2.17v20.396c1.612-2.729,5.021-6.141,10.416-6.141c7.191,0,12.585,4.896,12.585,15.312
		c0,13.02-8.366,19.592-19.154,19.592c-5.769,0-12.399-0.992-16.615-4.217V6.572L430.792,4.898z M456.83,33.23
		c0-8.435-2.977-11.531-7.13-11.531c-0.992,0-1.86,0.124-2.854,0.56v17.548c0,3.654,0.744,6.196,3.782,6.196
		C454.784,46.001,456.83,40.421,456.83,33.23z"/>
	<path d="M508.909,41.165c0,2.107,0.186,3.162,1.98,3.162h1.43v2.729l-13.949,2.105h-2.418l0.186-6.076
		c-2.104,2.854-5.394,6.076-11.159,6.076c-5.577,0-9.547-3.349-9.547-10.603V23.868c0-1.735-0.434-3.161-2.17-3.721l-0.93-0.312
		v-2.479l13.887-3.103h2.356l-0.372,8.187v15.003c0,2.854,1.116,4.465,3.906,4.465c1.55,0,2.479-0.188,4.026-0.683V23.868
		c0-1.735-0.434-3.161-2.17-3.721l-0.93-0.312v-2.479l13.887-3.103h2.356l-0.372,8.187L508.909,41.165L508.909,41.165z"/>
	<path d="M530.609,42.53c0,2.729,1.36,2.914,4.836,3.41v2.604H514.55V45.94c2.294-0.188,3.286-0.372,3.286-2.231v-21.7l-3.286-2.105
		V17.98l13.825-3.723h2.48l-0.248,9.675c2.354-7.439,4.646-9.675,8.614-9.675c1.554,0,2.604,0.438,3.286,1.057v9.482h-1.608
		c-3.972,0-7.625,0.124-10.292,1.735L530.609,42.53L530.609,42.53z"/>
	<path d="M563.407,4.898V2.79L577.294,0h2.17v41.165c0,2.107,0.188,3.162,1.984,3.162h1.426v2.729l-13.949,2.105h-2.418l0.188-5.891
		c-2.542,3.968-5.952,5.891-10.105,5.891c-7.188,0-12.521-5.519-12.521-15.935c0-12.274,7.502-18.66,16.735-18.66
		c2.419,0,4.526,0.559,5.894,1.675v-9.67L563.407,4.898z M556.959,29.509c0,7.627,2.604,12.712,7.005,12.712
		c0.868,0,1.798-0.123,2.729-0.438V24.18c0-3.782-0.744-5.769-3.724-5.769C558.881,18.413,556.959,22.815,556.959,29.509z"/>
	<path d="M616.168,28.147v1.55h-19.653c0,6.819,3.848,11.159,9.303,11.159c3.902,0,6.881-1.303,9.233-4.34l1.303,0.806
		c-1.733,7.192-6.635,11.843-14.756,11.843c-9.233,0-16.611-5.891-16.611-16.739c0-11.222,7.998-18.164,17.173-18.164
		C611.456,14.258,616.168,20.025,616.168,28.147z M596.577,26.658h8.741c0-6.138-0.992-9.672-3.972-9.672
		C598.251,16.987,596.825,20.83,596.577,26.658z"/>
	<path d="M643.137,25.542c0-2.294-0.744-3.845-3.844-3.845c-1.736,0-3.162,0.312-4.588,0.808v21.202c0,1.859,0.806,2.046,3.1,2.231
		v2.604H618.65V45.94c2.294-0.188,3.283-0.372,3.283-2.231v-21.7l-3.283-2.105V17.98l13.821-3.723h2.48l-0.248,6.265
		c2.229-2.914,5.766-6.265,11.593-6.265c6.016,0,9.61,3.351,9.61,10.169v19.279c0,1.859,0.992,2.046,3.286,2.231v2.604h-19.157
		V45.94c2.293-0.188,3.1-0.372,3.1-2.231L643.137,25.542L643.137,25.542z"/>
	<path d="M672.711,32.299c0-10.354,7.378-18.041,17.979-18.041c10.603,0,17.979,6.513,17.979,16.863
		c0,10.354-7.377,18.041-17.979,18.041C680.089,49.163,672.711,42.654,672.711,32.299z M695.092,34.098
		c0-10.604-1.178-17.111-4.712-17.111c-3.286,0-4.091,4.588-4.091,12.338c0,10.604,1.178,17.111,4.711,17.111
		C694.286,46.436,695.092,41.848,695.092,34.098z"/>
	<path d="M727.395,42.53c0,2.729,1.364,2.914,4.838,3.41v2.604h-20.895V45.94c2.294-0.188,3.286-0.372,3.286-2.231V18.413h-4.402
		v-2.79l4.402-1.055v-0.496C714.624,4.216,721.628,0,730,0c7.129,0,10.291,2.418,10.291,6.388c0,1.799-0.992,3.349-2.418,4.027
		h-6.385c0.186-0.868,0.309-1.922,0.309-3.038c0-2.17-0.186-4.34-2.045-4.34c-1.736,0-2.357,1.363-2.357,3.721v8.121h7.068v3.534
		h-7.068V42.53L727.395,42.53z"/>
	<path d="M756.412,22.008l-3.287-2.105V17.98l13.826-3.723h2.479l-0.248,6.141c1.611-2.729,5.021-6.141,10.416-6.141
		c7.191,0,12.584,4.896,12.584,15.312c0,13.02-7.875,19.592-17.979,19.592c-2.232,0-4.092-0.372-5.021-1.055v8.432
		c0,2.17,1.115,2.231,4.588,2.542v2.604h-20.645v-2.604c2.293-0.187,3.285-0.372,3.285-2.229V22.008H756.412z M779.164,33.23
		c0-8.435-2.977-11.531-7.129-11.531c-0.992,0-1.861,0.124-2.854,0.56v17.548c0,3.654,0.744,6.196,3.783,6.196
		C777.117,46.001,779.164,40.421,779.164,33.23z"/>
	<path d="M810.845,42.53c0,2.729,1.363,2.914,4.836,3.41v2.604h-20.893V45.94c2.293-0.188,3.285-0.372,3.285-2.231v-21.7
		l-3.285-2.105V17.98l13.824-3.723h2.479l-0.248,9.675c2.355-7.439,4.648-9.675,8.617-9.675c1.551,0,2.604,0.438,3.285,1.057v9.482
		h-1.611c-3.967,0-7.625,0.124-10.291,1.735V42.53H810.845z"/>
	<path d="M824.3,32.299c0-10.354,7.377-18.041,17.979-18.041c10.602,0,17.979,6.513,17.979,16.863
		c0,10.354-7.377,18.041-17.979,18.041C831.677,49.162,824.3,42.654,824.3,32.299z M846.681,34.098
		c0-10.604-1.18-17.111-4.713-17.111c-3.284,0-4.092,4.588-4.092,12.338c0,10.604,1.178,17.111,4.713,17.111
		C845.875,46.436,846.681,41.848,846.681,34.098z"/>
	<path d="M863.359,32.299c0-10.354,7.377-18.041,17.979-18.041c10.605,0,17.98,6.513,17.98,16.863
		c0,10.354-7.379,18.041-17.98,18.041C870.738,49.162,863.359,42.654,863.359,32.299z M885.74,34.098
		c0-10.604-1.178-17.111-4.711-17.111c-3.287,0-4.092,4.588-4.092,12.338c0,10.604,1.178,17.111,4.711,17.111
		C884.933,46.436,885.74,41.848,885.74,34.098z"/>
	<path d="M918.042,42.53c0,2.729,1.363,2.914,4.834,3.41v2.604H901.98V45.94c2.298-0.188,3.283-0.372,3.283-2.231V18.413h-4.396
		v-2.79l4.396-1.055v-0.496C905.265,4.216,912.277,0,920.64,0c7.132,0,10.291,2.418,10.291,6.388c0,1.799-0.985,3.349-2.418,4.027
		h-6.385c0.189-0.868,0.312-1.922,0.312-3.038c0-2.17-0.188-4.34-2.048-4.34c-1.729,0-2.354,1.363-2.354,3.721v8.121h7.065v3.534
		h-7.065V42.53H918.042z"/>
	<path d="M939.433,32.299c0-10.354,7.378-18.041,17.979-18.041s17.979,6.513,17.979,16.863c0,10.354-7.377,18.041-17.979,18.041
		S939.433,42.654,939.433,32.299z M961.814,34.098c0-10.604-1.181-17.111-4.713-17.111c-3.285,0-4.093,4.588-4.093,12.338
		c0,10.604,1.179,17.111,4.713,17.111C961.007,46.436,961.814,41.848,961.814,34.098z"/>
	<path d="M994.115,42.53c0,2.729,1.363,2.914,4.836,3.41v2.604h-20.894V45.94c2.294-0.188,3.285-0.372,3.285-2.231V18.413h-4.401
		v-2.79l4.401-1.055v-0.496C981.343,4.216,988.349,0,996.718,0c7.131,0,10.291,2.418,10.291,6.388c0,1.799-0.989,3.349-2.418,4.027
		h-6.385c0.186-0.868,0.311-1.922,0.311-3.038c0-2.17-0.186-4.34-2.047-4.34c-1.735,0-2.354,1.363-2.354,3.721v8.121h7.067v3.534
		h-7.067V42.53L994.115,42.53z"/>
	<path d="M1037.699,40.668c3.535,0,6.139-1.112,8.061-3.845l1.488,0.932c-2.047,7.997-7.316,11.407-14.508,11.407
		c-8.806,0-15.687-6.139-15.687-16.431c0-10.604,6.943-18.478,17.482-18.478c6.321,0,11.772,2.355,11.772,8.122
		c0,2.541-1.479,4.094-2.905,4.711h-6.394c0.189-1.484,0.248-2.665,0.248-3.72c0-3.721-0.992-6.139-3.719-6.139
		c-3.473,0-5.457,4.647-5.457,10.851C1028.089,35.896,1031.562,40.668,1037.699,40.668z"/>
	<path d="M1049.109,32.299c0-10.354,7.377-18.041,17.979-18.041c10.605,0,17.98,6.513,17.98,16.863
		c0,10.354-7.377,18.041-17.98,18.041C1056.486,49.162,1049.109,42.654,1049.109,32.299z M1071.49,34.098
		c0-10.604-1.181-17.111-4.713-17.111c-3.285,0-4.092,4.588-4.092,12.338c0,10.604,1.178,17.111,4.713,17.111
		C1070.683,46.436,1071.49,41.848,1071.49,34.098z"/>
	<path d="M1112.16,25.542c0-2.294-0.744-3.845-3.844-3.845c-1.736,0-3.162,0.312-4.588,0.808v21.202c0,1.859,0.807,2.046,3.1,2.231
		v2.604h-19.156V45.94c2.295-0.188,3.285-0.372,3.285-2.231v-21.7l-3.285-2.105V17.98l13.826-3.723h2.479l-0.248,6.265
		c2.232-2.914,5.771-6.265,11.601-6.265c6.014,0,9.604,3.351,9.604,10.169v19.279c0,1.859,0.992,2.046,3.285,2.231v2.604h-19.155
		V45.94c2.299-0.188,3.104-0.372,3.104-2.231V25.542H1112.16z"/>
	<path d="M1150.599,40.668c3.535,0,6.14-1.112,8.062-3.845l1.488,0.932c-2.047,7.997-7.316,11.407-14.509,11.407
		c-8.805,0-15.686-6.139-15.686-16.431c0-10.604,6.938-18.478,17.479-18.478c6.324,0,11.779,2.355,11.779,8.122
		c0,2.541-1.485,4.094-2.912,4.711h-6.387c0.187-1.484,0.248-2.665,0.248-3.72c0-3.721-0.992-6.139-3.719-6.139
		c-3.476,0-5.457,4.647-5.457,10.851C1140.99,35.896,1144.462,40.668,1150.599,40.668z"/>
	<path d="M1193.193,28.147v1.55h-19.652c0,6.819,3.844,11.159,9.299,11.159c3.906,0,6.881-1.303,9.238-4.34l1.301,0.806
		c-1.736,7.192-6.633,11.843-14.754,11.843c-9.238,0-16.615-5.891-16.615-16.739c0-11.222,7.996-18.164,17.172-18.164
		C1188.482,14.258,1193.193,20.025,1193.193,28.147z M1173.601,26.658h8.742c0-6.138-0.992-9.672-3.967-9.672
		C1175.275,16.987,1173.849,20.83,1173.601,26.658z"/>
	<path d="M1198.525,22.008l-3.285-2.105V17.98l13.824-3.723h2.479l-0.248,6.141c1.611-2.729,5.021-6.141,10.416-6.141
		c7.191,0,12.584,4.896,12.584,15.312c0,13.02-7.873,19.592-17.979,19.592c-2.229,0-4.095-0.372-5.021-1.055v8.432
		c0,2.17,1.115,2.231,4.588,2.542v2.604h-20.645v-2.604c2.293-0.187,3.28-0.372,3.28-2.229V22.008H1198.525z M1221.279,33.23
		c0-8.435-2.978-11.531-7.131-11.531c-0.992,0-1.859,0.124-2.853,0.56v17.548c0,3.654,0.744,6.196,3.781,6.196
		C1219.232,46.001,1221.279,40.421,1221.279,33.23z"/>
	<path d="M1252.464,14.878h6.881v3.534h-6.881v20.521c0,2.666,1.053,3.844,3.162,3.844c1.486,0,2.912-0.559,4.338-1.55l0.992,1.55
		c-2.48,4.153-6.137,6.387-11.344,6.387c-5.953,0-10.105-2.977-10.105-10.416V18.413h-3.35v-2.294
		c5.27-1.86,10.104-5.519,13.578-9.854h2.729V14.878z"/>
</g>
</svg>
