<?xml version="1.0" encoding="utf-8"?>
<!-- Generator: Adobe Illustrator 16.0.0, SVG Export Plug-In . SVG Version: 6.00 Build 0)  -->
<!DOCTYPE svg PUBLIC "-//W3C//DTD SVG 1.1//EN" "http://www.w3.org/Graphics/SVG/1.1/DTD/svg11.dtd">
<svg version="1.1" id="Layer_1" xmlns="http://www.w3.org/2000/svg" xmlns:xlink="http://www.w3.org/1999/xlink" x="0px" y="0px"
	 width="1440px" height="62.68px" viewBox="0 0 1440 62.68" enable-background="new 0 0 1440 62.68" xml:space="preserve">
<g id="_x32_8_1_">
	<g>
		<path d="M263.583,5.208V3.101l13.887-2.79h2.17v41.165c0,2.107,0.186,3.162,1.984,3.162h1.426v2.729l-13.949,2.105h-2.418
			l0.186-5.891c-2.542,3.968-5.952,5.891-10.105,5.891c-7.191,0-12.523-5.519-12.523-15.935c0-12.274,7.502-18.66,16.739-18.66
			c2.418,0,4.526,0.559,5.89,1.675V6.882L263.583,5.208z M257.135,29.82c0,7.628,2.604,12.713,7.005,12.713
			c0.868,0,1.798-0.124,2.728-0.438V24.49c0-3.782-0.744-5.769-3.72-5.769C259.057,18.724,257.135,23.125,257.135,29.82z"/>
		<path d="M316.344,28.457v1.55h-19.653c0,6.819,3.844,11.159,9.299,11.159c3.906,0,6.881-1.302,9.237-4.34l1.302,0.806
			c-1.736,7.192-6.634,11.843-14.755,11.843c-9.237,0-16.615-5.891-16.615-16.739c0-11.222,7.998-18.163,17.173-18.163
			C311.632,14.569,316.344,20.335,316.344,28.457z M296.753,26.969h8.741c0-6.138-0.992-9.672-3.968-9.672
			C298.427,17.297,297,21.141,296.753,26.969z"/>
		<path d="M334.324,44.018c0,1.859,0.992,2.046,3.286,2.231v2.604h-19.343V46.25c2.294-0.188,3.286-0.372,3.286-2.231V6.882
			l-3.286-1.674V3.101l13.887-2.79h2.17V44.018L334.324,44.018z"/>
		<path d="M370.035,42.034c0,1.236,0.124,2.542,1.55,2.542c0.806,0,1.612-0.188,1.922-0.312l0.436,1.859
			c-2.171,1.98-4.897,3.349-8.617,3.349c-3.782,0-6.511-1.858-7.626-5.146c-1.736,2.665-4.587,4.896-9.175,4.896
			c-5.332,0-9.113-2.914-9.113-8.433c0-5.456,3.72-7.688,8.06-9.176l10.043-3.475v-6.816c0-2.479-0.62-4.154-2.666-4.154
			c-2.17,0-2.976,1.922-2.976,4.771c0,1.487,0.248,3.038,0.62,4.591l-7.688,0.988c-1.86-0.619-3.224-2.17-3.224-4.522
			c0-5.893,6.076-8.435,13.826-8.435c9.051,0,14.631,2.666,14.631,11.035L370.035,42.034L370.035,42.034z M357.511,42.468V30.999
			l-2.479,0.931c-1.984,0.743-3.348,1.734-3.348,5.396c0,3.1,1.054,5.456,4.03,5.456C356.396,42.778,356.892,42.656,357.511,42.468z
			"/>
		<path d="M400.849,21.823c0.312-0.868,0.496-1.305,0.496-1.86c0-1.302-0.744-1.734-4.028-2.17v-2.604h11.593v2.604
			c-2.108,0.684-2.604,1.116-3.162,2.479L391.364,54c-2.418,5.643-4.836,8.618-9.302,8.618c-2.54,0-4.399-0.992-5.33-2.479v-5.021
			c1.674,0.31,3.1,0.617,5.084,0.617c3.532,0,5.208-0.989,6.261-3.224l0.93-1.984L374.5,20.273c-0.62-1.361-1.054-1.798-3.162-2.479
			V15.19h21.203v2.604c-3.286,0.436-4.03,0.868-4.03,2.17c0,0.56,0.188,0.992,0.436,1.736l6.075,14.631L400.849,21.823z"/>
		<path d="M420.69,32.61c0-10.354,7.378-18.041,17.979-18.041c10.603,0,17.979,6.513,17.979,16.863
			c0,10.354-7.377,18.041-17.979,18.041C428.068,49.474,420.69,42.964,420.69,32.61z M443.071,34.408
			c0-10.604-1.18-17.111-4.712-17.111c-3.286,0-4.093,4.588-4.093,12.338c0,10.604,1.18,17.111,4.712,17.111
			C442.265,46.746,443.071,42.158,443.071,34.408z"/>
		<path d="M475.373,42.84c0,2.729,1.364,2.914,4.836,3.41v2.604h-20.893V46.25c2.294-0.188,3.284-0.372,3.284-2.231V18.724h-4.4
			v-2.79l4.4-1.055v-0.496c0-9.856,7.007-14.072,15.375-14.072c7.131,0,10.294,2.418,10.294,6.389c0,1.798-0.992,3.348-2.42,4.026
			h-6.386c0.188-0.868,0.312-1.922,0.312-3.038c0-2.17-0.188-4.34-2.047-4.34c-1.735,0-2.355,1.363-2.355,3.721v8.121h7.068v3.534
			h-7.068V42.84L475.373,42.84z"/>
		<path d="M509.411,36.206c-0.806,0.744-1.55,1.55-1.55,2.729c0,0.933,0.62,1.674,1.674,1.674h13.825
			c8.928,0,12.397,3.847,12.397,9.55c0,8.119-7.625,12.521-19.279,12.521c-10.168,0-16.491-2.604-16.491-7.503
			c0-3.036,3.1-4.34,5.704-4.587c-2.666-1.055-4.218-3.781-4.218-6.447c0-4.217,2.854-6.883,6.2-8.617
			c-3.472-1.609-6.014-4.399-6.014-8.986c0-7.562,6.51-11.969,15.499-11.969c2.542,0,4.401,0.372,6.014,0.809l11.347-0.247v4.463
			h-2.913l-3.534-0.124c2.294,1.552,3.781,3.906,3.781,7.007c0,6.942-6.635,10.786-15.25,10.786
			C514.247,37.26,511.705,36.95,509.411,36.206z M507.117,52.201c-0.248,0.312-0.312,0.989-0.312,1.674
			c0,3.597,4.03,5.643,9.857,5.643c5.394,0,10.415-1.179,10.415-4.959c0-1.609-0.992-2.354-2.977-2.354L507.117,52.201
			L507.117,52.201z M520.198,26.163c0-4.588-1.054-8.807-3.597-8.807c-2.479,0-3.161,2.914-3.161,8.187
			c0,4.896,1.114,9.052,3.596,9.052C519.578,34.594,520.198,31.742,520.198,26.163z"/>
		<path d="M567.007,42.034c0,1.236,0.124,2.542,1.55,2.542c0.81,0,1.612-0.188,1.922-0.312l0.438,1.859
			c-2.17,1.98-4.896,3.349-8.617,3.349c-3.782,0-6.51-1.858-7.626-5.146c-1.735,2.665-4.587,4.896-9.175,4.896
			c-5.332,0-9.113-2.914-9.113-8.433c0-5.456,3.721-7.688,8.062-9.176l10.043-3.475v-6.816c0-2.479-0.62-4.154-2.666-4.154
			c-2.17,0-2.979,1.922-2.979,4.771c0,1.487,0.248,3.038,0.62,4.591l-7.688,0.988c-1.86-0.619-3.226-2.17-3.226-4.522
			c0-5.893,6.076-8.435,13.826-8.435c9.051,0,14.631,2.666,14.631,11.035L567.007,42.034L567.007,42.034z M554.484,42.468V30.999
			l-2.479,0.931c-1.98,0.743-3.348,1.734-3.348,5.396c0,3.1,1.054,5.456,4.03,5.456C553.368,42.778,553.864,42.656,554.484,42.468z"
			/>
		<path d="M616.11,25.667c0-2.294-0.744-3.72-3.352-3.72c-1.608,0-2.852,0.434-4.216,0.93v21.142c0,1.859,0.558,2.046,2.854,2.231
			v2.604h-18.478V46.25c2.294-0.188,2.854-0.372,2.854-2.231V25.667c0-2.294-0.744-3.72-3.352-3.72
			c-1.609,0-2.852,0.369-4.216,0.865v21.202c0,1.859,0.559,2.046,2.852,2.231v2.604h-18.905v-2.6
			c2.294-0.188,3.285-0.372,3.285-2.231v-21.7l-3.285-2.105V18.29l13.821-3.723h2.48l-0.248,6.389
			c2.17-3.41,5.643-6.389,11.284-6.389c4.835,0,7.997,1.86,8.803,6.513c2.107-3.351,5.952-6.513,11.407-6.513
			c5.766,0,9.176,3.286,9.176,9.732v19.716c0,1.859,0.992,2.046,3.286,2.231v2.604h-18.909V46.25
			c2.293-0.188,2.854-0.372,2.854-2.231V25.667H616.11z"/>
		<path d="M665.09,28.457v1.55h-19.652c0,6.819,3.847,11.159,9.302,11.159c3.903,0,6.881-1.302,9.233-4.34l1.306,0.806
			c-1.736,7.192-6.638,11.843-14.759,11.843c-9.233,0-16.611-5.891-16.611-16.739c0-11.222,7.998-18.163,17.173-18.163
			C660.378,14.569,665.09,20.335,665.09,28.457z M645.499,26.969h8.741c0-6.138-0.992-9.672-3.969-9.672
			C647.173,17.297,645.747,21.141,645.499,26.969z"/>
		<path d="M679.227,32.61c0-10.354,7.377-18.041,17.979-18.041c10.601,0,17.979,6.513,17.979,16.863
			c0,10.354-7.378,18.041-17.979,18.041C686.604,49.474,679.227,42.964,679.227,32.61z M701.605,34.408
			c0-10.604-1.181-17.111-4.714-17.111c-3.284,0-4.092,4.588-4.092,12.338c0,10.604,1.181,17.111,4.711,17.111
			C700.801,46.746,701.605,42.158,701.605,34.408z"/>
		<path d="M733.908,42.84c0,2.729,1.365,2.914,4.836,3.41v2.604H717.85V46.25c2.295-0.188,3.287-0.372,3.287-2.231V18.724h-4.399
			v-2.79l4.399-1.055v-0.496c0-9.856,7.004-14.072,15.375-14.072c7.129,0,10.291,2.418,10.291,6.389
			c0,1.798-0.992,3.348-2.418,4.026H738c0.186-0.868,0.311-1.922,0.311-3.038c0-2.17-0.186-4.34-2.047-4.34
			c-1.731,0-2.354,1.363-2.354,3.721v8.121h7.065v3.534h-7.065V42.84H733.908z"/>
		<path d="M777.494,40.979c3.535,0,6.139-1.112,8.061-3.845l1.488,0.932c-2.047,7.997-7.316,11.407-14.508,11.407
			c-8.803,0-15.687-6.139-15.687-16.431c0-10.604,6.943-18.478,17.482-18.478c6.324,0,11.779,2.355,11.779,8.122
			c0,2.541-1.488,4.095-2.914,4.711h-6.39c0.189-1.484,0.248-2.665,0.248-3.72c0-3.721-0.992-6.139-3.721-6.139
			c-3.471,0-5.455,4.647-5.455,10.851C767.884,36.206,771.357,40.979,777.494,40.979z"/>
		<path d="M792.064,6.882l-3.285-1.674V3.101l13.887-2.79h2.17v20.521c2.232-2.914,5.766-6.265,11.592-6.265
			c6.019,0,9.611,3.351,9.611,10.17v19.278c0,1.859,0.992,2.046,3.285,2.231v2.604h-19.156V46.25c2.293-0.188,3.1-0.372,3.1-2.231
			V25.853c0-2.294-0.739-3.845-3.844-3.845c-1.734,0-3.162,0.312-4.588,0.808v21.202c0,1.859,0.805,2.046,3.1,2.231v2.604h-19.153
			V46.25c2.295-0.188,3.284-0.372,3.284-2.231V6.882H792.064z"/>
		<path d="M861.255,42.034c0,1.236,0.123,2.542,1.549,2.542c0.81,0,1.611-0.188,1.923-0.312l0.436,1.859
			c-2.17,1.98-4.896,3.349-8.617,3.349c-3.781,0-6.51-1.858-7.625-5.146c-1.736,2.665-4.588,4.896-9.176,4.896
			c-5.332,0-9.113-2.914-9.113-8.433c0-5.456,3.721-7.688,8.062-9.176l10.043-3.475v-6.816c0-2.479-0.621-4.154-2.666-4.154
			c-2.17,0-2.979,1.922-2.979,4.771c0,1.487,0.248,3.038,0.621,4.591l-7.688,0.988c-1.859-0.619-3.228-2.17-3.228-4.522
			c0-5.893,6.076-8.435,13.826-8.435c9.053,0,14.633,2.666,14.633,11.035v16.435V42.034L861.255,42.034z M848.732,42.468V30.999
			l-2.48,0.931c-1.984,0.743-3.348,1.734-3.348,5.396c0,3.1,1.053,5.456,4.026,5.456C847.615,42.778,848.111,42.656,848.732,42.468z
			"/>
		<path d="M890.89,25.853c0-2.294-0.741-3.845-3.844-3.845c-1.735,0-3.162,0.312-4.588,0.808v21.202c0,1.859,0.805,2.046,3.1,2.231
			v2.604h-19.153V46.25c2.293-0.188,3.283-0.372,3.283-2.231v-21.7l-3.283-2.105V18.29l13.822-3.723h2.479l-0.248,6.265
			c2.229-2.914,5.766-6.265,11.594-6.265c6.017,0,9.609,3.351,9.609,10.17v19.278c0,1.859,0.992,2.046,3.285,2.231v2.604H887.79
			V46.25c2.293-0.188,3.1-0.372,3.1-2.231V25.853L890.89,25.853z"/>
		<path d="M929.33,40.979c3.533,0,6.137-1.112,8.059-3.845l1.488,0.932c-2.045,7.997-7.316,11.407-14.508,11.407
			c-8.801,0-15.684-6.139-15.684-16.431c0-10.604,6.942-18.478,17.481-18.478c6.324,0,11.779,2.355,11.779,8.122
			c0,2.541-1.488,4.095-2.914,4.711h-6.39c0.189-1.484,0.248-2.665,0.248-3.72c0-3.721-0.987-6.139-3.721-6.139
			c-3.473,0-5.455,4.647-5.455,10.851C919.72,36.206,923.191,40.979,929.33,40.979z"/>
		<path d="M971.921,28.457v1.55H952.27c0,6.819,3.844,11.159,9.299,11.159c3.906,0,6.883-1.302,9.237-4.34l1.304,0.806
			c-1.736,7.192-6.636,11.843-14.756,11.843c-9.238,0-16.615-5.891-16.615-16.739c0-11.222,7.998-18.163,17.174-18.163
			C967.21,14.569,971.921,20.335,971.921,28.457z M952.332,26.969h8.742c0-6.138-0.992-9.672-3.969-9.672
			C954.005,17.297,952.58,21.141,952.332,26.969z"/>
		<path d="M986.058,32.61c0-10.354,7.378-18.041,17.979-18.041s17.979,6.513,17.979,16.863c0,10.354-7.379,18.041-17.979,18.041
			C993.436,49.473,986.058,42.964,986.058,32.61z M1008.439,34.408c0-10.604-1.179-17.111-4.711-17.111
			c-3.287,0-4.093,4.588-4.093,12.338c0,10.604,1.179,17.111,4.711,17.111C1007.632,46.746,1008.439,42.158,1008.439,34.408z"/>
		<path d="M1040.742,42.84c0,2.729,1.363,2.914,4.834,3.41v2.604h-20.894V46.25c2.296-0.188,3.287-0.372,3.287-2.231V18.724h-4.401
			v-2.79l4.401-1.055v-0.496c0-9.856,7.006-14.072,15.375-14.072c7.129,0,10.291,2.418,10.291,6.389
			c0,1.798-0.991,3.348-2.418,4.026h-6.385c0.186-0.868,0.309-1.922,0.309-3.038c0-2.17-0.186-4.34-2.045-4.34
			c-1.735,0-2.354,1.363-2.354,3.721v8.121h7.065v3.534h-7.065V42.84z"/>
		<path d="M1081.412,42.84c0,2.729,1.365,2.914,4.836,3.41v2.604h-20.893V46.25c2.295-0.188,3.284-0.372,3.284-2.231v-21.7
			l-3.284-2.105V18.29l13.825-3.723h2.479l-0.248,9.675c2.357-7.439,4.65-9.675,8.617-9.675c1.551,0,2.604,0.438,3.287,1.057v9.482
			h-1.611c-3.969,0-7.627,0.124-10.293,1.735V42.84L1081.412,42.84z"/>
		<path d="M1124.75,42.034c0,1.236,0.125,2.542,1.551,2.542c0.812,0,1.611-0.188,1.922-0.312l0.439,1.859
			c-2.17,1.98-4.898,3.349-8.617,3.349c-3.783,0-6.51-1.858-7.627-5.146c-1.734,2.665-4.588,4.896-9.174,4.896
			c-5.332,0-9.115-2.914-9.115-8.433c0-5.456,3.721-7.688,8.062-9.176l10.043-3.475v-6.816c0-2.479-0.619-4.154-2.666-4.154
			c-2.17,0-2.976,1.922-2.976,4.771c0,1.487,0.248,3.038,0.619,4.591l-7.688,0.988c-1.857-0.619-3.226-2.17-3.226-4.522
			c0-5.893,6.076-8.435,13.826-8.435c9.051,0,14.631,2.666,14.631,11.035v16.436h-0.004V42.034L1124.75,42.034z M1112.226,42.468
			V30.999l-2.479,0.931c-1.982,0.743-3.348,1.734-3.348,5.396c0,3.1,1.055,5.456,4.03,5.456
			C1111.111,42.778,1111.607,42.656,1112.226,42.468z"/>
		<path d="M1145.955,44.018c0,1.859,0.992,2.046,3.285,2.231v2.604h-19.342V46.25c2.293-0.188,3.284-0.372,3.284-2.231v-21.7
			l-3.284-2.105V18.29l13.823-3.723h2.232L1145.955,44.018L1145.955,44.018z M1133.183,6.138c0-3.285,2.418-6.139,6.572-6.139
			c4.092,0,6.57,2.854,6.57,6.139s-2.48,6.138-6.57,6.138C1135.601,12.275,1133.183,9.424,1133.183,6.138z"/>
		<path d="M1176.085,25.853c0-2.294-0.744-3.845-3.844-3.845c-1.736,0-3.162,0.312-4.588,0.808v21.202
			c0,1.859,0.805,2.046,3.1,2.231v2.604h-19.156V46.25c2.293-0.188,3.285-0.372,3.285-2.231v-21.7l-3.285-2.105V18.29l13.824-3.723
			h2.479l-0.248,6.265c2.229-2.914,5.768-6.265,11.596-6.265c6.014,0,9.604,3.351,9.604,10.17v19.278
			c0,1.859,0.992,2.046,3.285,2.231v2.604h-19.152V46.25c2.293-0.188,3.103-0.372,3.103-2.231V25.853H1176.085z"/>
	</g>
</g>
</svg>
