<?xml version="1.0" encoding="utf-8"?>
<!-- Generator: Adobe Illustrator 16.0.0, SVG Export Plug-In . SVG Version: 6.00 Build 0)  -->
<!DOCTYPE svg PUBLIC "-//W3C//DTD SVG 1.1//EN" "http://www.w3.org/Graphics/SVG/1.1/DTD/svg11.dtd">
<svg version="1.1" id="Layer_1" xmlns="http://www.w3.org/2000/svg" xmlns:xlink="http://www.w3.org/1999/xlink" x="0px" y="0px"
	 width="1440px" height="62.68px" viewBox="0 0 1440 62.68" enable-background="new 0 0 1440 62.68" xml:space="preserve">
<g id="_x32_4_1_">
	<g>
		<path d="M300.17,46.312l-0.372-8.369h3.162c1.116,4.959,4.463,8.741,9.237,8.741c2.79,0,5.021-1.303,5.021-3.903
			c0-3.037-2.417-3.97-6.385-5.146c-7.191-2.109-11.097-5.208-11.097-11.718c0-7.378,5.58-11.349,13.329-11.349
			c4.278,0,8.246,1.116,10.912,2.854v7.438h-2.914c-0.62-3.903-3.41-7.502-7.688-7.502c-2.479,0-4.216,1.305-4.216,3.534
			c0,2.479,1.798,3.408,5.58,4.648c7.75,2.542,11.903,5.084,11.903,12.213c0,7.502-5.642,11.719-14.321,11.719
			C306.928,49.474,302.96,48.233,300.17,46.312z"/>
		<path d="M332.596,6.882l-3.286-1.674V3.101l13.887-2.79h2.17v20.521c2.232-2.914,5.766-6.265,11.593-6.265
			c6.014,0,9.61,3.351,9.61,10.17v19.278c0,1.859,0.992,2.046,3.285,2.231v2.604h-19.156V46.25c2.293-0.188,3.1-0.372,3.1-2.231
			V25.853c0-2.294-0.744-3.845-3.844-3.845c-1.736,0-3.162,0.312-4.588,0.808v21.202c0,1.859,0.806,2.046,3.1,2.231v2.604H329.31
			V46.25c2.294-0.188,3.286-0.372,3.286-2.231V6.882z"/>
		<path d="M371.593,32.61c0-10.354,7.378-18.041,17.979-18.041c10.601,0,17.979,6.513,17.979,16.863
			c0,10.354-7.377,18.041-17.979,18.041C378.971,49.474,371.593,42.964,371.593,32.61z M393.974,34.408
			c0-10.604-1.178-17.111-4.712-17.111c-3.286,0-4.091,4.588-4.091,12.338c0,10.604,1.178,17.111,4.711,17.111
			C393.168,46.746,393.974,42.158,393.974,34.408z"/>
		<path d="M455.601,21.699c0.312-0.809,0.496-1.488,0.496-1.984c0-1.238-1.054-1.674-3.409-1.922v-2.604h10.85v2.604
			c-2.108,0.684-2.604,1.116-3.162,2.479L447.977,49.04h-4.217l-7.313-18.726l-8.806,18.726h-4.215l-13.33-28.769
			c-0.619-1.361-1.054-1.798-3.16-2.479v-2.604h19.715v2.604c-1.86,0.248-2.604,0.808-2.604,1.798c0,0.56,0.188,1.24,0.559,2.108
			l5.579,13.267l4.342-8.988l-2.232-5.703c-0.496-1.361-1.24-1.981-2.79-2.479V15.19h19.591v2.604
			c-2.542,0.312-3.72,0.56-3.72,2.046c0,0.496,0.124,1.116,0.372,1.86l4.773,12.521L455.601,21.699z"/>
		<path d="M475.318,32.61c0-10.354,7.378-18.041,17.979-18.041c10.604,0,17.979,6.513,17.979,16.863
			c0,10.354-7.377,18.041-17.979,18.041C482.696,49.474,475.318,42.964,475.318,32.61z M497.699,34.408
			c0-10.604-1.178-17.111-4.712-17.111c-3.286,0-4.091,4.588-4.091,12.338c0,10.604,1.178,17.111,4.711,17.111
			C496.893,46.746,497.699,42.158,497.699,34.408z"/>
		<path d="M530.001,42.84c0,2.729,1.364,2.914,4.836,3.41v2.604h-20.893V46.25c2.294-0.188,3.286-0.372,3.286-2.231V18.724h-4.402
			v-2.79l4.402-1.055v-0.496c0-9.856,7.005-14.072,15.375-14.072c7.129,0,10.291,2.418,10.291,6.389
			c0,1.798-0.991,3.348-2.418,4.026h-6.387c0.188-0.868,0.312-1.922,0.312-3.038c0-2.17-0.188-4.34-2.046-4.34
			c-1.736,0-2.356,1.363-2.356,3.721v8.121h7.068v3.534h-7.068V42.84L530.001,42.84z"/>
		<path d="M573.834,42.84c0,2.729,1.364,2.914,4.836,3.41v2.604h-20.893V46.25c2.294-0.188,3.285-0.372,3.285-2.231V18.724h-4.401
			v-2.79l4.401-1.055v-0.496c0-9.856,7.006-14.072,15.375-14.072c7.13,0,10.293,2.418,10.293,6.389c0,1.798-0.992,3.348-2.418,4.026
			h-6.388c0.188-0.868,0.312-1.922,0.312-3.038c0-2.17-0.188-4.34-2.047-4.34c-1.735,0-2.355,1.363-2.355,3.721v8.121h7.068v3.534
			h-7.068V42.84L573.834,42.84z"/>
		<path d="M581.895,32.61c0-10.354,7.38-18.041,17.979-18.041c10.603,0,17.979,6.513,17.979,16.863
			c0,10.354-7.377,18.041-17.979,18.041C589.271,49.474,581.895,42.964,581.895,32.61z M604.275,34.408
			c0-10.604-1.18-17.111-4.713-17.111c-3.285,0-4.092,4.588-4.092,12.338c0,10.604,1.18,17.111,4.712,17.111
			C603.47,46.746,604.275,42.158,604.275,34.408z"/>
		<path d="M636.515,42.84c0,2.729,1.364,2.914,4.837,3.41v2.604h-20.894V46.25c2.294-0.188,3.286-0.372,3.286-2.231v-21.7
			l-3.286-2.105V18.29l13.825-3.723h2.479l-0.248,9.675c2.356-7.439,4.65-9.675,8.618-9.675c1.55,0,2.604,0.438,3.286,1.057v9.482
			h-1.612c-3.968,0-7.625,0.124-10.292,1.735L636.515,42.84L636.515,42.84z"/>
		<path d="M670.615,40.979c3.533,0,6.138-1.112,8.06-3.845l1.488,0.932c-2.046,7.997-7.315,11.407-14.507,11.407
			c-8.807,0-15.688-6.139-15.688-16.431c0-10.604,6.944-18.478,17.483-18.478c6.322,0,11.777,2.355,11.777,8.122
			c0,2.541-1.486,4.095-2.914,4.711h-6.388c0.188-1.484,0.248-2.665,0.248-3.72c0-3.721-0.991-6.139-3.72-6.139
			c-3.473,0-5.456,4.647-5.456,10.851C661.005,36.206,664.477,40.979,670.615,40.979z"/>
		<path d="M713.208,28.457v1.55h-19.653c0,6.819,3.848,11.159,9.299,11.159c3.906,0,6.885-1.302,9.237-4.34l1.302,0.806
			c-1.732,7.192-6.634,11.843-14.755,11.843c-9.233,0-16.611-5.891-16.611-16.739c0-11.222,7.995-18.163,17.173-18.163
			C708.496,14.569,713.208,20.335,713.208,28.457z M693.617,26.969h8.741c0-6.138-0.992-9.672-3.972-9.672
			C695.291,17.297,693.865,21.141,693.617,26.969z"/>
		<path d="M727.343,32.61c0-10.354,7.379-18.041,17.98-18.041c10.6,0,17.979,6.513,17.979,16.863
			c0,10.354-7.377,18.041-17.979,18.041C734.722,49.474,727.343,42.964,727.343,32.61z M749.724,34.408
			c0-10.604-1.178-17.111-4.711-17.111c-3.286,0-4.092,4.588-4.092,12.338c0,10.604,1.178,17.111,4.711,17.111
			C748.919,46.746,749.724,42.158,749.724,34.408z"/>
		<path d="M782.027,42.84c0,2.729,1.362,2.914,4.836,3.41v2.604H765.97V46.25c2.293-0.188,3.285-0.372,3.285-2.231V18.724h-4.401
			v-2.79l4.401-1.055v-0.496c0-9.856,7.006-14.072,15.375-14.072c7.129,0,10.293,2.418,10.293,6.389
			c0,1.798-0.992,3.348-2.418,4.026h-6.387c0.186-0.868,0.311-1.922,0.311-3.038c0-2.17-0.186-4.34-2.047-4.34
			c-1.733,0-2.354,1.363-2.354,3.721v8.121h7.065v3.534h-7.065V42.84L782.027,42.84z"/>
		<path d="M855.804,21.699c0.312-0.809,0.496-1.488,0.496-1.984c0-1.238-1.055-1.674-3.41-1.922v-2.604h10.851v2.604
			c-2.107,0.684-2.604,1.116-3.162,2.479L848.18,49.04h-4.217l-7.311-18.726l-8.81,18.726h-4.215l-13.33-28.769
			c-0.619-1.361-1.053-1.798-3.162-2.479v-2.604h19.716v2.604c-1.855,0.248-2.604,0.808-2.604,1.798c0,0.56,0.186,1.24,0.559,2.108
			l5.58,13.267l4.341-8.988l-2.229-5.703c-0.496-1.361-1.24-1.981-2.791-2.479V15.19h19.592v2.604
			c-2.543,0.312-3.721,0.56-3.721,2.046c0,0.496,0.125,1.116,0.373,1.86l4.77,12.521L855.804,21.699z"/>
		<path d="M881.472,44.018c0,1.859,0.992,2.046,3.287,2.231v2.604h-19.344V46.25c2.295-0.188,3.287-0.372,3.287-2.231v-21.7
			l-3.287-2.105V18.29l13.826-3.723h2.229v29.449L881.472,44.018L881.472,44.018z M868.703,6.138c0-3.285,2.416-6.139,6.57-6.139
			c4.092,0,6.569,2.854,6.569,6.139s-2.479,6.138-6.569,6.138C871.121,12.275,868.703,9.424,868.703,6.138z"/>
		<path d="M902.925,44.018c0,1.859,0.99,2.046,3.285,2.231v2.604h-19.344V46.25c2.295-0.188,3.287-0.372,3.287-2.231V6.882
			l-3.287-1.674V3.101l13.887-2.79h2.17L902.925,44.018L902.925,44.018z"/>
		<path d="M924.376,44.018c0,1.859,0.992,2.046,3.285,2.231v2.604H908.32V46.25c2.293-0.188,3.285-0.372,3.285-2.231V6.882
			l-3.285-1.674V3.101l13.887-2.79h2.17L924.376,44.018L924.376,44.018z"/>
		<path d="M941.675,32.61c0-10.354,7.377-18.041,17.979-18.041c10.602,0,17.979,6.513,17.979,16.863
			c0,10.354-7.377,18.041-17.979,18.041C949.052,49.473,941.675,42.964,941.675,32.61z M964.056,34.408
			c0-10.604-1.18-17.111-4.713-17.111c-3.284,0-4.092,4.588-4.092,12.338c0,10.604,1.178,17.111,4.713,17.111
			C963.25,46.746,964.056,42.158,964.056,34.408z"/>
		<path d="M996.357,42.84c0,2.729,1.362,2.914,4.836,3.41v2.604H980.3V46.25c2.293-0.188,3.285-0.372,3.285-2.231V18.724h-4.402
			v-2.79l4.402-1.055v-0.496c0-9.856,7.006-14.072,15.375-14.072c7.131,0,10.291,2.418,10.291,6.389c0,1.798-0.99,3.348-2.418,4.026
			h-6.385c0.186-0.868,0.311-1.922,0.311-3.038c0-2.17-0.186-4.34-2.047-4.34c-1.736,0-2.354,1.363-2.354,3.721v8.121h7.067v3.534
			h-7.067V42.84L996.357,42.84z"/>
		<path d="M1030.395,36.206c-0.806,0.744-1.55,1.55-1.55,2.729c0,0.933,0.619,1.674,1.675,1.674h13.823
			c8.929,0,12.4,3.847,12.4,9.55c0,8.119-7.627,12.521-19.281,12.521c-10.168,0-16.49-2.604-16.49-7.503
			c0-3.036,3.101-4.34,5.703-4.587c-2.666-1.055-4.217-3.781-4.217-6.447c0-4.217,2.853-6.883,6.201-8.617
			c-3.479-1.609-6.021-4.399-6.021-8.986c0-7.562,6.515-11.969,15.498-11.969c2.543,0,4.402,0.372,6.021,0.809l11.346-0.247v4.463
			h-2.914l-3.533-0.124c2.293,1.552,3.781,3.906,3.781,7.007c0,6.942-6.633,10.786-15.252,10.786
			C1035.23,37.26,1032.689,36.95,1030.395,36.206z M1028.102,52.201c-0.248,0.312-0.312,0.989-0.312,1.674
			c0,3.597,4.029,5.643,9.854,5.643c5.396,0,10.416-1.179,10.416-4.959c0-1.609-0.989-2.354-2.979-2.354L1028.102,52.201
			L1028.102,52.201z M1041.181,26.163c0-4.588-1.053-8.807-3.596-8.807c-2.479,0-3.16,2.914-3.16,8.187
			c0,4.896,1.115,9.052,3.597,9.052C1040.562,34.594,1041.181,31.742,1041.181,26.163z"/>
		<path d="M1056.871,32.61c0-10.354,7.377-18.041,17.979-18.041c10.605,0,17.98,6.513,17.98,16.863
			c0,10.354-7.377,18.041-17.98,18.041C1064.248,49.473,1056.871,42.964,1056.871,32.61z M1079.251,34.408
			c0-10.604-1.18-17.111-4.713-17.111c-3.285,0-4.092,4.588-4.092,12.338c0,10.604,1.178,17.111,4.713,17.111
			C1078.445,46.746,1079.251,42.158,1079.251,34.408z"/>
		<path d="M1115.271,5.208V3.101l13.887-2.79h2.17v41.165c0,2.107,0.188,3.162,1.984,3.162h1.426v2.729l-13.949,2.105h-2.418
			l0.186-5.891c-2.541,3.968-5.944,5.891-10.104,5.891c-7.193,0-12.523-5.519-12.523-15.935c0-12.274,7.5-18.66,16.738-18.66
			c2.418,0,4.525,0.559,5.892,1.675V6.882L1115.271,5.208z M1108.824,29.82c0,7.628,2.604,12.713,7.006,12.713
			c0.867,0,1.797-0.124,2.727-0.438V24.49c0-3.782-0.739-5.769-3.719-5.769C1110.746,18.724,1108.824,23.125,1108.824,29.82z"/>
	</g>
</g>
</svg>
