<?xml version="1.0" encoding="utf-8"?>
<!-- Generator: Adobe Illustrator 16.0.0, SVG Export Plug-In . SVG Version: 6.00 Build 0)  -->
<!DOCTYPE svg PUBLIC "-//W3C//DTD SVG 1.1//EN" "http://www.w3.org/Graphics/SVG/1.1/DTD/svg11.dtd">
<svg version="1.1" id="Layer_1" xmlns="http://www.w3.org/2000/svg" xmlns:xlink="http://www.w3.org/1999/xlink" x="0px" y="0px"
	 width="1440px" height="62.68px" viewBox="0 0 1440 62.68" enable-background="new 0 0 1440 62.68" xml:space="preserve">
<g id="_x32_3_1_">
	<g>
		<path d="M90.24,32.61c0-10.354,7.378-18.041,17.979-18.041c10.602,0,17.979,6.513,17.979,16.863
			c0,10.354-7.378,18.042-17.979,18.042C97.618,49.474,90.24,42.964,90.24,32.61z M112.621,34.408
			c0-10.604-1.178-17.111-4.712-17.111c-3.286,0-4.091,4.588-4.091,12.338c0,10.604,1.178,17.111,4.711,17.111
			C111.814,46.746,112.621,42.158,112.621,34.408z"/>
		<path d="M164.947,41.476c0,2.107,0.186,3.162,1.984,3.162h1.426v2.729l-13.949,2.105h-2.418l0.186-6.076
			c-2.108,2.854-5.394,6.076-11.16,6.076c-5.58,0-9.547-3.349-9.547-10.603V24.179c0-1.735-0.434-3.161-2.17-3.721l-0.93-0.312
			v-2.479l13.887-3.103h2.356l-0.372,8.187v15.003c0,2.854,1.116,4.465,3.906,4.465c1.55,0,2.479-0.187,4.03-0.683V24.179
			c0-1.735-0.434-3.161-2.17-3.721l-0.93-0.312v-2.479l13.887-3.103h2.356l-0.372,8.187V41.476z"/>
		<path d="M185.842,15.189h6.881v3.534h-6.881v20.521c0,2.666,1.054,3.844,3.162,3.844c1.488,0,2.914-0.558,4.34-1.55l0.992,1.55
			c-2.479,4.153-6.138,6.387-11.345,6.387c-5.952,0-10.105-2.977-10.105-10.416V18.724h-3.348V16.43
			c5.27-1.86,10.105-5.519,13.577-9.854h2.728L185.842,15.189L185.842,15.189z"/>
		<path d="M207.355,32.61c0-10.354,7.378-18.041,17.979-18.041c10.602,0,17.979,6.513,17.979,16.863
			c0,10.354-7.377,18.041-17.979,18.041C214.733,49.474,207.355,42.964,207.355,32.61z M229.736,34.408
			c0-10.604-1.178-17.111-4.712-17.111c-3.286,0-4.091,4.588-4.091,12.338c0,10.604,1.178,17.111,4.711,17.111
			C228.931,46.746,229.736,42.158,229.736,34.408z"/>
		<path d="M262.039,42.84c0,2.729,1.364,2.914,4.836,3.41v2.604h-20.893V46.25c2.294-0.188,3.286-0.372,3.286-2.231V18.724h-4.402
			v-2.79l4.402-1.055v-0.496c0-9.856,7.005-14.072,15.375-14.072c7.129,0,10.292,2.418,10.292,6.389
			c0,1.798-0.992,3.348-2.418,4.026h-6.386c0.186-0.868,0.31-1.922,0.31-3.038c0-2.17-0.186-4.34-2.046-4.34
			c-1.736,0-2.356,1.363-2.356,3.721v8.121h7.068v3.534h-7.068V42.84L262.039,42.84z"/>
		<path d="M288.389,5.208V3.101l13.887-2.79h2.17v20.396c1.612-2.729,5.021-6.141,10.416-6.141c7.191,0,12.585,4.896,12.585,15.312
			c0,13.02-8.369,19.592-19.157,19.592c-5.766,0-12.399-0.992-16.615-4.217V6.882L288.389,5.208z M314.428,33.54
			c0-8.435-2.976-11.531-7.13-11.531c-0.992,0-1.86,0.124-2.852,0.56v17.548c0,3.654,0.744,6.196,3.782,6.196
			C312.382,46.312,314.428,40.732,314.428,33.54z"/>
		<path d="M330.548,32.61c0-10.354,7.378-18.041,17.979-18.041c10.602,0,17.979,6.513,17.979,16.863
			c0,10.354-7.377,18.041-17.979,18.041C337.926,49.474,330.548,42.964,330.548,32.61z M352.929,34.408
			c0-10.604-1.178-17.111-4.712-17.111c-3.286,0-4.091,4.588-4.091,12.338c0,10.604,1.178,17.111,4.711,17.111
			C352.123,46.746,352.929,42.158,352.929,34.408z"/>
		<path d="M388.951,5.208V3.101l13.887-2.79h2.17v41.165c0,2.107,0.188,3.162,1.984,3.162h1.426v2.729l-13.949,2.105h-2.418
			l0.188-5.891c-2.542,3.968-5.952,5.891-10.105,5.891c-7.189,0-12.521-5.519-12.521-15.935c0-12.274,7.502-18.66,16.737-18.66
			c2.418,0,4.526,0.559,5.892,1.675V6.882L388.951,5.208z M382.503,29.82c0,7.628,2.604,12.713,7.005,12.713
			c0.868,0,1.798-0.124,2.729-0.438V24.49c0-3.782-0.744-5.769-3.722-5.769C384.425,18.724,382.503,23.125,382.503,29.82z"/>
		<path d="M438.178,21.823c0.312-0.868,0.496-1.305,0.496-1.86c0-1.302-0.744-1.734-4.029-2.17v-2.604h11.596v2.604
			c-2.108,0.684-2.604,1.116-3.162,2.479L428.695,54c-2.418,5.643-4.836,8.618-9.304,8.618c-2.542,0-4.397-0.992-5.331-2.479v-5.021
			c1.677,0.31,3.103,0.617,5.084,0.617c3.533,0,5.207-0.989,6.264-3.224l0.93-1.984L411.83,20.274
			c-0.62-1.361-1.054-1.798-3.162-2.479V15.19h21.203v2.604c-3.286,0.436-4.03,0.868-4.03,2.17c0,0.56,0.188,0.992,0.438,1.736
			l6.073,14.631L438.178,21.823z"/>
		<path d="M458.02,32.61c0-10.354,7.381-18.041,17.979-18.041c10.602,0,17.979,6.513,17.979,16.863
			c0,10.354-7.378,18.041-17.979,18.041C465.396,49.474,458.02,42.964,458.02,32.61z M480.399,34.408
			c0-10.604-1.182-17.111-4.716-17.111c-3.282,0-4.091,4.588-4.091,12.338c0,10.604,1.182,17.111,4.711,17.111
			C479.594,46.746,480.399,42.158,480.399,34.408z"/>
		<path d="M512.701,42.84c0,2.729,1.364,2.914,4.836,3.41v2.604h-20.896V46.25c2.294-0.188,3.286-0.372,3.286-2.231V18.724h-4.398
			v-2.79l4.398-1.055v-0.496c0-9.856,7.005-14.072,15.375-14.072c7.129,0,10.292,2.418,10.292,6.389
			c0,1.798-0.988,3.348-2.418,4.026h-6.386c0.186-0.868,0.312-1.922,0.312-3.038c0-2.17-0.188-4.34-2.048-4.34
			c-1.732,0-2.354,1.363-2.354,3.721v8.121h7.065v3.534H512.7L512.701,42.84L512.701,42.84z"/>
		<path d="M586.479,21.699c0.312-0.809,0.496-1.488,0.496-1.984c0-1.238-1.054-1.674-3.408-1.922v-2.604h10.851v2.604
			c-2.108,0.684-2.604,1.116-3.162,2.479L578.859,49.04h-4.22l-7.312-18.726l-8.807,18.726h-4.216l-13.33-28.769
			c-0.616-1.361-1.054-1.798-3.159-2.479v-2.604h19.716v2.604c-1.86,0.248-2.604,0.808-2.604,1.798c0,0.56,0.188,1.24,0.562,2.108
			l5.577,13.267l4.343-8.988l-2.232-5.703c-0.496-1.361-1.239-1.981-2.79-2.479V15.19h19.591v2.604
			c-2.542,0.312-3.72,0.56-3.72,2.046c0,0.496,0.124,1.116,0.372,1.86l4.774,12.521L586.479,21.699z"/>
		<path d="M593.176,32.61c0-10.354,7.378-18.041,17.979-18.041c10.601,0,17.979,6.513,17.979,16.863
			c0,10.354-7.377,18.041-17.979,18.041C600.554,49.474,593.176,42.964,593.176,32.61z M615.557,34.408
			c0-10.604-1.178-17.111-4.712-17.111c-3.286,0-4.091,4.588-4.091,12.338c0,10.604,1.178,17.111,4.711,17.111
			C614.751,46.746,615.557,42.158,615.557,34.408z"/>
		<path d="M647.797,42.84c0,2.729,1.364,2.914,4.836,3.41v2.604H631.74V46.25c2.294-0.188,3.286-0.372,3.286-2.231v-21.7
			l-3.286-2.105V18.29l13.824-3.723h2.479l-0.248,9.675c2.356-7.439,4.65-9.675,8.618-9.675c1.55,0,2.604,0.438,3.286,1.057v9.482
			h-1.612c-3.968,0-7.625,0.124-10.292,1.735L647.797,42.84L647.797,42.84z"/>
		<path d="M664.105,6.882l-3.286-1.674V3.101l13.887-2.79h2.17v43.707c0,1.859,0.992,2.046,3.286,2.231v2.604h-19.343V46.25
			c2.294-0.188,3.286-0.372,3.286-2.231V6.882z M686.671,22.815c1.736-1.551,2.108-2.354,2.108-3.162c0-1.113-0.81-1.55-3.658-1.857
			V15.19h14.443v2.604c-2.048,0.248-3.532,0.56-5.207,2.229l-6.571,6.323l12.958,20.707v1.798H687.6l-10.354-17.545L686.671,22.815z
			"/>
		<path d="M713.765,32.61c0-10.354,7.378-18.041,17.979-18.041s17.979,6.513,17.979,16.863c0,10.354-7.379,18.041-17.979,18.041
			C721.143,49.473,713.765,42.964,713.765,32.61z M736.146,34.408c0-10.604-1.181-17.111-4.714-17.111
			c-3.284,0-4.092,4.588-4.092,12.338c0,10.604,1.181,17.111,4.711,17.111C735.339,46.746,736.146,42.158,736.146,34.408z"/>
		<path d="M768.449,42.84c0,2.729,1.363,2.914,4.834,3.41v2.604H752.39V46.25c2.296-0.188,3.287-0.372,3.287-2.231V18.724h-4.399
			v-2.79l4.399-1.055v-0.496c0-9.856,7.006-14.072,15.375-14.072c7.129,0,10.291,2.418,10.291,6.389
			c0,1.798-0.991,3.348-2.418,4.026h-6.385c0.186-0.868,0.309-1.922,0.309-3.038c0-2.17-0.186-4.34-2.045-4.34
			c-1.735,0-2.354,1.363-2.354,3.721v8.121h7.065v3.534h-7.065V42.84L768.449,42.84z"/>
		<path d="M823.13,42.034c0,1.236,0.123,2.542,1.549,2.542c0.808,0,1.611-0.188,1.923-0.312l0.434,1.859
			c-2.17,1.98-4.896,3.349-8.617,3.349c-3.781,0-6.51-1.858-7.625-5.146c-1.736,2.665-4.588,4.896-9.176,4.896
			c-5.332,0-9.113-2.914-9.113-8.433c0-5.456,3.719-7.688,8.062-9.176l10.045-3.475v-6.816c0-2.479-0.621-4.154-2.666-4.154
			c-2.17,0-2.98,1.922-2.98,4.771c0,1.487,0.248,3.038,0.621,4.591l-7.689,0.988c-1.854-0.619-3.223-2.17-3.223-4.522
			c0-5.893,6.076-8.435,13.824-8.435c9.053,0,14.633,2.666,14.633,11.035L823.13,42.034L823.13,42.034z M810.607,42.468V30.999
			l-2.48,0.931c-1.984,0.743-3.348,1.734-3.348,5.396c0,3.1,1.053,5.456,4.028,5.456C809.49,42.778,809.986,42.656,810.607,42.468z"
			/>
		<path d="M844.333,42.84c0,2.729,1.365,2.914,4.836,3.41v2.604h-20.893V46.25c2.295-0.188,3.278-0.372,3.278-2.231v-21.7
			l-3.278-2.105V18.29l13.819-3.723h2.48l-0.248,9.675c2.357-7.439,4.65-9.675,8.617-9.675c1.551,0,2.604,0.438,3.287,1.057v9.482
			h-1.611c-3.969,0-7.627,0.124-10.293,1.735V42.84H844.333z"/>
		<path d="M873.164,15.189h6.883v3.534h-6.883v20.521c0,2.666,1.055,3.844,3.162,3.844c1.488,0,2.914-0.558,4.34-1.55l0.992,1.55
			c-2.48,4.153-6.139,6.387-11.346,6.387c-5.951,0-10.105-2.977-10.105-10.416V18.724h-3.348V16.43
			c5.27-1.86,10.104-5.519,13.578-9.854h2.727V15.189z"/>
		<path d="M894.679,32.61c0-10.354,7.377-18.041,17.979-18.041c10.602,0,17.979,6.513,17.979,16.863
			c0,10.354-7.379,18.041-17.979,18.041C902.057,49.473,894.679,42.964,894.679,32.61z M917.061,34.408
			c0-10.604-1.179-17.111-4.712-17.111c-3.286,0-4.092,4.588-4.092,12.338c0,10.604,1.179,17.111,4.711,17.111
			C916.253,46.746,917.061,42.158,917.061,34.408z"/>
		<path d="M949.363,42.84c0,2.729,1.362,2.914,4.834,3.41v2.604h-20.894V46.25c2.295-0.188,3.287-0.372,3.287-2.231V18.724h-4.401
			v-2.79l4.401-1.055v-0.496c0-9.856,7.006-14.072,15.375-14.072c7.129,0,10.291,2.418,10.291,6.389
			c0,1.798-0.992,3.348-2.418,4.026h-6.385c0.186-0.868,0.309-1.922,0.309-3.038c0-2.17-0.186-4.34-2.045-4.34
			c-1.735,0-2.354,1.363-2.354,3.721v8.121h7.065v3.534h-7.065V42.84z"/>
		<path d="M1023.14,21.699c0.31-0.809,0.496-1.488,0.496-1.984c0-1.238-1.055-1.674-3.409-1.922v-2.604h10.85v2.604
			c-2.109,0.684-2.605,1.116-3.162,2.479l-12.4,28.769h-4.215l-7.311-18.726l-8.81,18.726h-4.217l-13.328-28.769
			c-0.621-1.361-1.055-1.798-3.162-2.479v-2.604h19.718v2.604c-1.855,0.248-2.604,0.808-2.604,1.798c0,0.56,0.187,1.24,0.557,2.108
			l5.58,13.267l4.343-8.988l-2.229-5.703c-0.496-1.361-1.24-1.981-2.791-2.479V15.19h19.592v2.604
			c-2.543,0.312-3.721,0.56-3.721,2.046c0,0.496,0.125,1.116,0.373,1.86l4.77,12.521L1023.14,21.699z"/>
		<path d="M1060.652,42.034c0,1.236,0.123,2.542,1.549,2.542c0.807,0,1.611-0.188,1.922-0.312l0.434,1.859
			c-2.17,1.98-4.895,3.349-8.61,3.349c-3.781,0-6.517-1.858-7.625-5.146c-1.736,2.665-4.595,4.896-9.183,4.896
			c-5.332,0-9.106-2.914-9.106-8.433c0-5.456,3.719-7.688,8.059-9.176l10.045-3.475v-6.816c0-2.479-0.621-4.154-2.666-4.154
			c-2.17,0-2.977,1.922-2.977,4.771c0,1.487,0.248,3.038,0.621,4.591l-7.689,0.988c-1.858-0.619-3.223-2.17-3.223-4.522
			c0-5.893,6.069-8.435,13.817-8.435c9.06,0,14.64,2.666,14.64,11.035v16.435L1060.652,42.034L1060.652,42.034z M1048.128,42.468
			V30.999l-2.479,0.931c-1.984,0.743-3.349,1.734-3.349,5.396c0,3.1,1.054,5.456,4.029,5.456
			C1047.011,42.778,1047.507,42.656,1048.128,42.468z"/>
		<path d="M1081.855,42.84c0,2.729,1.364,2.914,4.836,3.41v2.604h-20.894V46.25c2.295-0.188,3.285-0.372,3.285-2.231v-21.7
			l-3.285-2.105V18.29l13.826-3.723h2.479l-0.248,9.675c2.356-7.439,4.649-9.675,8.616-9.675c1.552,0,2.605,0.438,3.287,1.057v9.482
			h-1.61c-3.97,0-7.627,0.124-10.293,1.735V42.84L1081.855,42.84z"/>
		<path d="M1107.089,32.61c0-10.354,7.377-18.041,17.979-18.041c10.602,0,17.979,6.513,17.979,16.863
			c0,10.354-7.379,18.041-17.979,18.041C1114.467,49.473,1107.089,42.964,1107.089,32.61z M1129.47,34.408
			c0-10.604-1.178-17.111-4.711-17.111c-3.287,0-4.092,4.588-4.092,12.338c0,10.604,1.178,17.111,4.711,17.111
			C1128.664,46.746,1129.47,42.158,1129.47,34.408z"/>
		<path d="M1161.773,42.84c0,2.729,1.362,2.914,4.834,3.41v2.604h-20.894V46.25c2.295-0.188,3.287-0.372,3.287-2.231V18.724h-4.402
			v-2.79l4.402-1.055v-0.496c0-9.856,7.006-14.072,15.375-14.072c7.129,0,10.291,2.418,10.291,6.389
			c0,1.798-0.992,3.348-2.418,4.026h-6.385c0.186-0.868,0.309-1.922,0.309-3.038c0-2.17-0.186-4.34-2.045-4.34
			c-1.736,0-2.354,1.363-2.354,3.721v8.121h7.065v3.534h-7.065V42.84z"/>
		<path d="M1205.542,44.018c0,1.859,0.992,2.046,3.287,2.231v2.604h-19.344V46.25c2.295-0.188,3.278-0.372,3.278-2.231v-21.7
			l-3.278-2.105V18.29l13.819-3.723h2.23v29.449L1205.542,44.018L1205.542,44.018z M1192.771,6.138c0-3.285,2.418-6.139,6.571-6.139
			c4.093,0,6.572,2.854,6.572,6.139s-2.479,6.138-6.572,6.138C1195.189,12.275,1192.771,9.424,1192.771,6.138z"/>
		<path d="M1230.404,5.208V3.101l13.887-2.79h2.17v41.165c0,2.107,0.189,3.162,1.984,3.162h1.426v2.729l-13.949,2.105h-2.418
			l0.189-5.891c-2.541,3.968-5.951,5.891-10.105,5.891c-7.188,0-12.52-5.519-12.52-15.935c0-12.274,7.5-18.66,16.733-18.66
			c2.418,0,4.525,0.559,5.894,1.675V6.882L1230.404,5.208z M1223.957,29.82c0,7.628,2.604,12.713,7.006,12.713
			c0.867,0,1.797-0.124,2.73-0.438V24.49c0-3.782-0.742-5.769-3.724-5.769C1225.878,18.724,1223.957,23.125,1223.957,29.82z"/>
		<path d="M1283.164,28.457v1.55h-19.652c0,6.819,3.844,11.159,9.299,11.159c3.906,0,6.89-1.302,9.238-4.34l1.303,0.806
			c-1.729,7.192-6.635,11.843-14.756,11.843c-9.238,0-16.615-5.891-16.615-16.739c0-11.222,7.998-18.163,17.181-18.163
			C1278.453,14.569,1283.164,20.335,1283.164,28.457z M1263.574,26.969h8.742c0-6.138-0.992-9.672-3.97-9.672
			C1265.248,17.297,1263.822,21.141,1263.574,26.969z"/>
		<path d="M1316.023,42.034c0,1.236,0.125,2.542,1.551,2.542c0.805,0,1.61-0.188,1.922-0.312l0.434,1.859
			c-2.17,1.98-4.895,3.349-8.617,3.349c-3.776,0-6.51-1.858-7.627-5.146c-1.729,2.665-4.588,4.896-9.174,4.896
			c-5.332,0-9.108-2.914-9.108-8.433c0-5.456,3.721-7.688,8.061-9.176l10.043-3.475v-6.816c0-2.479-0.619-4.154-2.666-4.154
			c-2.17,0-2.975,1.922-2.975,4.771c0,1.487,0.248,3.038,0.619,4.591l-7.689,0.988c-1.858-0.619-3.225-2.17-3.225-4.522
			c0-5.893,6.076-8.435,13.826-8.435c9.051,0,14.631,2.666,14.631,11.035v16.436h-0.004L1316.023,42.034L1316.023,42.034z
			 M1303.5,42.468V30.999l-2.48,0.931c-1.979,0.743-3.348,1.734-3.348,5.396c0,3.1,1.055,5.456,4.031,5.456
			C1302.384,42.778,1302.88,42.656,1303.5,42.468z"/>
		<path d="M1321.976,46.312l-0.37-8.369h3.161c1.115,4.959,4.464,8.741,9.236,8.741c2.791,0,5.021-1.303,5.021-3.903
			c0-3.037-2.418-3.97-6.386-5.146c-7.188-2.106-11.098-5.207-11.098-11.717c0-7.378,5.58-11.349,13.33-11.349
			c4.272,0,8.244,1.116,10.91,2.854v7.438h-2.914c-0.619-3.903-3.408-7.502-7.689-7.502c-2.479,0-4.215,1.305-4.215,3.534
			c0,2.479,1.797,3.408,5.58,4.648c7.748,2.542,11.902,5.084,11.902,12.213c0,7.502-5.646,11.719-14.32,11.719
			C1328.734,49.474,1324.767,48.233,1321.976,46.312z"/>
	</g>
</g>
</svg>
