<?xml version="1.0" encoding="utf-8"?>
<!-- Generator: Adobe Illustrator 16.0.0, SVG Export Plug-In . SVG Version: 6.00 Build 0)  -->
<!DOCTYPE svg PUBLIC "-//W3C//DTD SVG 1.1//EN" "http://www.w3.org/Graphics/SVG/1.1/DTD/svg11.dtd">
<svg version="1.1" id="Layer_1" xmlns="http://www.w3.org/2000/svg" xmlns:xlink="http://www.w3.org/1999/xlink" x="0px" y="0px"
	 width="1440px" height="62.68px" viewBox="0 0 1440 62.68" enable-background="new 0 0 1440 62.68" xml:space="preserve">
<g>
	<path d="M214.346,41.724c0,1.24,0.124,2.543,1.55,2.543c0.806,0,1.612-0.188,1.922-0.311l0.434,1.857
		c-2.17,1.984-4.897,3.35-8.617,3.35c-3.782,0-6.51-1.859-7.626-5.146c-1.736,2.664-4.587,4.896-9.175,4.896
		c-5.332,0-9.113-2.914-9.113-8.434c0-5.455,3.72-7.688,8.062-9.176l10.043-3.471v-6.82c0-2.479-0.62-4.154-2.666-4.154
		c-2.17,0-2.976,1.924-2.976,4.775c0,1.486,0.248,3.037,0.62,4.588l-7.688,0.99c-1.86-0.619-3.224-2.17-3.224-4.525
		c0-5.889,6.076-8.432,13.826-8.432c9.051,0,14.631,2.666,14.631,11.035L214.346,41.724L214.346,41.724z M201.823,42.157V30.689
		l-2.479,0.932c-1.984,0.744-3.348,1.734-3.348,5.395c0,3.102,1.054,5.455,4.03,5.455C200.707,42.468,201.203,42.345,201.823,42.157
		z"/>
	<path d="M227.367,35.896c-0.806,0.744-1.55,1.553-1.55,2.729c0,0.93,0.62,1.674,1.674,1.674h13.825
		c8.928,0,12.399,3.844,12.399,9.547c0,8.123-7.625,12.523-19.281,12.523c-10.167,0-16.491-2.604-16.491-7.502
		c0-3.037,3.1-4.342,5.704-4.586c-2.666-1.057-4.216-3.783-4.216-6.449c0-4.215,2.852-6.881,6.2-8.617
		c-3.472-1.611-6.014-4.402-6.014-8.988c0-7.562,6.51-11.967,15.499-11.967c2.542,0,4.402,0.373,6.014,0.807l11.346-0.248v4.465
		h-2.914l-3.534-0.123c2.294,1.551,3.782,3.904,3.782,7.006c0,6.941-6.634,10.787-15.251,10.787
		C232.203,36.95,229.661,36.64,227.367,35.896z M225.073,51.892c-0.248,0.312-0.31,0.992-0.31,1.674c0,3.598,4.03,5.643,9.857,5.643
		c5.394,0,10.415-1.178,10.415-4.959c0-1.611-0.992-2.355-2.976-2.355L225.073,51.892L225.073,51.892z M238.155,25.853
		c0-4.588-1.054-8.803-3.596-8.803c-2.48,0-3.162,2.914-3.162,8.184c0,4.896,1.116,9.053,3.596,9.053
		C237.535,34.284,238.155,31.433,238.155,25.853z"/>
	<path d="M285.026,28.148v1.551h-19.653c0,6.818,3.844,11.158,9.299,11.158c3.906,0,6.881-1.303,9.237-4.34l1.302,0.807
		c-1.736,7.191-6.634,11.842-14.755,11.842c-9.237,0-16.615-5.891-16.615-16.738c0-11.223,7.998-18.166,17.173-18.166
		C280.314,14.259,285.026,20.025,285.026,28.148z M265.435,26.659h8.741c0-6.141-0.992-9.672-3.968-9.672
		C267.109,16.99,265.683,20.831,265.435,26.659z"/>
	<path d="M311.995,25.542c0-2.293-0.744-3.844-3.844-3.844c-1.736,0-3.162,0.311-4.588,0.807v21.203c0,1.857,0.806,2.045,3.1,2.23
		v2.604h-19.157V45.94c2.294-0.188,3.286-0.373,3.286-2.23v-21.7l-3.286-2.107V17.98l13.825-3.721h2.48l-0.248,6.262
		c2.232-2.914,5.766-6.262,11.593-6.262c6.014,0,9.61,3.348,9.61,10.168v19.281c0,1.857,0.992,2.045,3.286,2.23v2.604h-19.157V45.94
		c2.293-0.188,3.1-0.373,3.1-2.23V25.542z"/>
	<path d="M345.166,14.88h6.881v3.533h-6.881v20.521c0,2.666,1.054,3.844,3.162,3.844c1.488,0,2.914-0.559,4.34-1.551l0.992,1.551
		c-2.479,4.152-6.138,6.387-11.345,6.387c-5.952,0-10.105-2.977-10.105-10.416V18.413h-3.348V16.12
		c5.27-1.861,10.105-5.52,13.577-9.857h2.728L345.166,14.88L345.166,14.88z"/>
	<path d="M369.779,32.3c0-10.354,7.378-18.041,17.979-18.041c10.604,0,17.979,6.51,17.979,16.863
		c0,10.353-7.377,18.041-17.979,18.041C377.157,49.163,369.779,42.656,369.779,32.3z M392.16,34.099
		c0-10.602-1.178-17.109-4.712-17.109c-3.286,0-4.091,4.588-4.091,12.338c0,10.602,1.178,17.109,4.711,17.109
		C391.354,46.437,392.16,41.849,392.16,34.099z"/>
	<path d="M424.462,42.531c0,2.727,1.364,2.912,4.836,3.408v2.604h-20.893V45.94c2.294-0.188,3.286-0.373,3.286-2.23V18.413h-4.402
		v-2.789l4.402-1.057v-0.494C411.691,4.216,418.697,0,427.066,0c7.129,0,10.292,2.418,10.292,6.386c0,1.799-0.992,3.348-2.418,4.029
		h-6.388c0.188-0.867,0.312-1.922,0.312-3.037c0-2.17-0.188-4.341-2.046-4.341c-1.736,0-2.356,1.362-2.356,3.722v8.121h7.068v3.533
		h-7.068V42.531z"/>
	<path d="M468.047,40.669c3.534,0,6.138-1.115,8.062-3.844l1.486,0.932c-2.046,7.996-7.313,11.406-14.507,11.406
		c-8.803,0-15.685-6.139-15.685-16.432c0-10.6,6.942-18.475,17.481-18.475c6.323,0,11.779,2.357,11.779,8.123
		c0,2.541-1.488,4.092-2.914,4.711h-6.386c0.186-1.488,0.248-2.666,0.248-3.721c0-3.721-0.992-6.139-3.722-6.139
		c-3.472,0-5.455,4.65-5.455,10.852C458.438,35.896,461.91,40.669,468.047,40.669z"/>
	<path d="M482.619,6.573l-3.286-1.676V2.79L493.22,0h2.17v20.521c2.232-2.914,5.768-6.262,11.596-6.262
		c6.013,0,9.607,3.348,9.607,10.168v19.281c0,1.857,0.992,2.045,3.286,2.23v2.604h-19.157V45.94c2.294-0.188,3.102-0.373,3.102-2.23
		V25.542c0-2.293-0.744-3.844-3.845-3.844c-1.735,0-3.161,0.311-4.589,0.807v21.203c0,1.857,0.808,2.045,3.102,2.23v2.604h-19.157
		V45.94c2.294-0.188,3.286-0.373,3.286-2.23L482.619,6.573L482.619,6.573z"/>
	<path d="M551.808,41.724c0,1.24,0.124,2.543,1.552,2.543c0.806,0,1.61-0.188,1.922-0.311l0.434,1.857
		c-2.17,1.984-4.896,3.35-8.617,3.35c-3.781,0-6.51-1.859-7.626-5.146c-1.734,2.664-4.587,4.896-9.175,4.896
		c-5.332,0-9.113-2.914-9.113-8.434c0-5.455,3.722-7.688,8.062-9.176l10.043-3.471v-6.82c0-2.479-0.62-4.154-2.666-4.154
		c-2.17,0-2.976,1.924-2.976,4.775c0,1.486,0.246,3.037,0.618,4.588l-7.688,0.99c-1.86-0.619-3.226-2.17-3.226-4.525
		c0-5.889,6.076-8.432,13.826-8.432c9.051,0,14.631,2.666,14.631,11.035L551.808,41.724L551.808,41.724z M539.285,42.157V30.689
		l-2.479,0.932c-1.982,0.744-3.348,1.734-3.348,5.395c0,3.102,1.054,5.455,4.03,5.455C538.169,42.468,538.665,42.345,539.285,42.157
		z"/>
	<path d="M581.444,25.542c0-2.293-0.744-3.844-3.846-3.844c-1.734,0-3.161,0.311-4.588,0.807v21.203c0,1.857,0.808,2.045,3.102,2.23
		v2.604h-19.157V45.94c2.294-0.188,3.286-0.373,3.286-2.23v-21.7l-3.286-2.107V17.98l13.825-3.721h2.479l-0.248,6.262
		c2.232-2.914,5.767-6.262,11.595-6.262c6.014,0,9.608,3.348,9.608,10.168v19.281c0,1.857,0.991,2.045,3.285,2.23v2.604h-19.157
		V45.94c2.293-0.188,3.102-0.373,3.102-2.23L581.444,25.542L581.444,25.542z"/>
	<path d="M607.236,35.896c-0.807,0.744-1.549,1.553-1.549,2.729c0,0.93,0.617,1.674,1.674,1.674h13.824
		c8.928,0,12.398,3.844,12.398,9.547c0,8.123-7.626,12.523-19.281,12.523c-10.168,0-16.49-2.604-16.49-7.502
		c0-3.037,3.102-4.342,5.703-4.586c-2.666-1.057-4.217-3.783-4.217-6.449c0-4.215,2.854-6.881,6.2-8.617
		c-3.472-1.611-6.014-4.402-6.014-8.988c0-7.562,6.51-11.967,15.499-11.967c2.542,0,4.4,0.373,6.014,0.807l11.346-0.248v4.465
		h-2.914l-3.531-0.123c2.293,1.551,3.779,3.904,3.779,7.006c0,6.941-6.634,10.787-15.251,10.787
		C612.072,36.95,609.531,36.64,607.236,35.896z M604.943,51.892c-0.248,0.312-0.312,0.992-0.312,1.674
		c0,3.598,4.03,5.643,9.857,5.643c5.395,0,10.416-1.178,10.416-4.959c0-1.611-0.992-2.355-2.979-2.355L604.943,51.892
		L604.943,51.892z M618.023,25.853c0-4.588-1.055-8.803-3.597-8.803c-2.479,0-3.162,2.914-3.162,8.184
		c0,4.896,1.116,9.053,3.599,9.053C617.404,34.284,618.023,31.433,618.023,25.853z"/>
	<path d="M664.896,28.148v1.551h-19.653c0,6.818,3.844,11.158,9.3,11.158c3.905,0,6.881-1.303,9.236-4.34l1.303,0.807
		c-1.736,7.191-6.634,11.842-14.756,11.842c-9.236,0-16.615-5.891-16.615-16.738c0-11.223,7.998-18.166,17.174-18.166
		C660.183,14.259,664.896,20.025,664.896,28.148z M645.304,26.659h8.742c0-6.141-0.992-9.672-3.969-9.672
		C646.979,16.99,645.552,20.831,645.304,26.659z"/>
	<path d="M679.032,32.3c0-10.354,7.378-18.041,17.979-18.041c10.604,0,17.979,6.51,17.979,16.863
		c0,10.353-7.377,18.041-17.979,18.041C686.41,49.163,679.032,42.656,679.032,32.3z M701.412,34.099
		c0-10.602-1.178-17.109-4.712-17.109c-3.285,0-4.091,4.588-4.091,12.338c0,10.602,1.178,17.109,4.711,17.109
		C700.605,46.437,701.412,41.849,701.412,34.099z"/>
	<path d="M733.714,42.531c0,2.727,1.363,2.912,4.836,3.408v2.604h-20.893V45.94c2.293-0.188,3.286-0.373,3.286-2.23V18.413h-4.402
		v-2.789l4.402-1.057v-0.494C720.943,4.216,727.949,0,736.318,0c7.129,0,10.291,2.418,10.291,6.386c0,1.799-0.992,3.348-2.418,4.029
		h-6.386c0.187-0.867,0.312-1.922,0.312-3.037c0-2.17-0.188-4.341-2.047-4.341c-1.736,0-2.355,1.362-2.355,3.722v8.121h7.068v3.533
		h-7.068L733.714,42.531L733.714,42.531z"/>
	<path d="M761.181,22.009l-3.286-2.107V17.98l13.825-3.721h2.479l-0.248,6.139c1.613-2.729,5.023-6.139,10.416-6.139
		c7.191,0,12.586,4.898,12.586,15.314c0,13.018-7.873,19.59-17.979,19.59c-2.232,0-4.093-0.371-5.023-1.055v8.432
		c0,2.17,1.117,2.23,4.588,2.543v2.604h-20.645v-2.604c2.295-0.188,3.286-0.373,3.286-2.232V22.009z M783.933,33.23
		c0-8.432-2.977-11.529-7.129-11.529c-0.991,0-1.86,0.125-2.854,0.559v17.545c0,3.658,0.744,6.199,3.78,6.199
		C781.886,46.001,783.933,40.423,783.933,33.23z"/>
	<path d="M829.626,41.724c0,1.24,0.125,2.543,1.551,2.543c0.806,0,1.611-0.188,1.922-0.311l0.435,1.857
		c-2.17,1.984-4.898,3.35-8.617,3.35c-3.783,0-6.51-1.859-7.627-5.146c-1.734,2.664-4.588,4.896-9.174,4.896
		c-5.332,0-9.115-2.914-9.115-8.434c0-5.455,3.721-7.688,8.061-9.176l10.043-3.471v-6.82c0-2.479-0.616-4.154-2.666-4.154
		c-2.17,0-2.975,1.924-2.975,4.775c0,1.486,0.248,3.037,0.619,4.588l-7.688,0.99c-1.859-0.619-3.226-2.17-3.226-4.525
		c0-5.889,6.076-8.432,13.826-8.432c9.051,0,14.631,2.666,14.631,11.035V41.724z M817.104,42.157V30.689l-2.48,0.932
		c-1.982,0.744-3.348,1.734-3.348,5.395c0,3.102,1.055,5.455,4.03,5.455C815.988,42.468,816.484,42.345,817.104,42.157z"/>
	<path d="M855.294,40.669c3.535,0,6.139-1.115,8.062-3.844l1.487,0.932c-2.047,7.996-7.315,11.406-14.508,11.406
		c-8.805,0-15.688-6.139-15.688-16.432c0-10.6,6.943-18.475,17.482-18.475c6.324,0,11.779,2.357,11.779,8.123
		c0,2.541-1.486,4.092-2.912,4.711h-6.387c0.186-1.488,0.248-2.666,0.248-3.721c0-3.721-0.992-6.139-3.72-6.139
		c-3.473,0-5.457,4.65-5.457,10.852C845.686,35.896,849.158,40.669,855.294,40.669z"/>
	<path d="M897.888,28.148v1.551h-19.651c0,6.818,3.844,11.158,9.299,11.158c3.906,0,6.881-1.303,9.238-4.34l1.301,0.807
		c-1.736,7.191-6.633,11.842-14.754,11.842c-9.238,0-16.615-5.891-16.615-16.738c0-11.223,7.996-18.166,17.172-18.166
		C893.177,14.259,897.888,20.025,897.888,28.148z M878.296,26.659h8.742c0-6.141-0.992-9.672-3.967-9.672
		C879.97,16.99,878.544,20.831,878.296,26.659z"/>
	<path d="M912.025,32.3c0-10.354,7.377-18.041,17.979-18.041s17.98,6.51,17.98,16.863c0,10.353-7.379,18.041-17.98,18.041
		C919.404,49.163,912.025,42.656,912.025,32.3z M934.406,34.099c0-10.602-1.178-17.109-4.711-17.109
		c-3.287,0-4.092,4.588-4.092,12.338c0,10.602,1.178,17.109,4.711,17.109C933.599,46.437,934.406,41.849,934.406,34.099z"/>
	<path d="M966.708,42.531c0,2.727,1.363,2.912,4.834,3.408v2.604H950.65V45.94c2.295-0.188,3.287-0.373,3.287-2.23V18.413h-4.402
		v-2.789l4.402-1.057v-0.494C953.938,4.216,960.943,0,969.312,0c7.129,0,10.291,2.418,10.291,6.386c0,1.799-0.992,3.348-2.418,4.029
		H970.8c0.187-0.867,0.31-1.922,0.31-3.037c0-2.17-0.187-4.341-2.045-4.341c-1.736,0-2.355,1.362-2.355,3.722v8.121h7.066v3.533
		h-7.066L966.708,42.531L966.708,42.531z"/>
	<path d="M994.173,22.009l-3.285-2.107V17.98l13.824-3.721h2.479l-0.246,6.139c1.608-2.729,5.02-6.139,10.416-6.139
		c7.188,0,12.584,4.898,12.584,15.314c0,13.018-7.873,19.59-17.98,19.59c-2.229,0-4.092-0.371-5.02-1.055v8.432
		c0,2.17,1.112,2.23,4.588,2.543v2.604h-20.646v-2.604c2.293-0.188,3.285-0.373,3.285-2.232L994.173,22.009L994.173,22.009z
		 M1016.927,33.23c0-8.432-2.977-11.529-7.131-11.529c-0.992,0-1.858,0.125-2.852,0.559v17.545c0,3.658,0.741,6.199,3.778,6.199
		C1014.88,46.001,1016.927,40.423,1016.927,33.23z"/>
	<path d="M1048.609,42.531c0,2.727,1.362,2.912,4.836,3.408v2.604h-20.894V45.94c2.293-0.188,3.285-0.373,3.285-2.23v-21.7
		l-3.285-2.107V17.98l13.824-3.721h2.479l-0.248,9.672c2.354-7.438,4.647-9.672,8.616-9.672c1.554,0,2.605,0.436,3.285,1.055v9.484
		h-1.61c-3.968,0-7.625,0.125-10.291,1.736v15.997H1048.609z"/>
	<path d="M1062.064,32.3c0-10.354,7.377-18.041,17.979-18.041s17.979,6.51,17.979,16.863c0,10.353-7.377,18.041-17.979,18.041
		S1062.064,42.656,1062.064,32.3z M1084.445,34.099c0-10.602-1.181-17.109-4.713-17.109c-3.285,0-4.093,4.588-4.093,12.338
		c0,10.602,1.179,17.109,4.713,17.109C1083.638,46.437,1084.445,41.849,1084.445,34.099z"/>
	<path d="M1108.5,35.896c-0.805,0.744-1.549,1.553-1.549,2.729c0,0.93,0.619,1.674,1.674,1.674h13.824
		c8.928,0,12.399,3.844,12.399,9.547c0,8.123-7.627,12.523-19.28,12.523c-10.168,0-16.49-2.604-16.49-7.502
		c0-3.037,3.1-4.342,5.703-4.586c-2.666-1.057-4.217-3.783-4.217-6.449c0-4.215,2.852-6.881,6.2-8.617
		c-3.473-1.611-6.014-4.402-6.014-8.988c0-7.562,6.508-11.967,15.498-11.967c2.543,0,4.402,0.373,6.014,0.807l11.347-0.248v4.465
		h-2.914l-3.533-0.123c2.293,1.551,3.781,3.904,3.781,7.006c0,6.941-6.633,10.787-15.252,10.787
		C1113.335,36.95,1110.794,36.64,1108.5,35.896z M1106.207,51.892c-0.248,0.312-0.311,0.992-0.311,1.674
		c0,3.598,4.028,5.643,9.856,5.643c5.396,0,10.416-1.178,10.416-4.959c0-1.611-0.992-2.355-2.977-2.355L1106.207,51.892
		L1106.207,51.892z M1119.287,25.853c0-4.588-1.053-8.803-3.596-8.803c-2.479,0-3.16,2.914-3.16,8.184
		c0,4.896,1.115,9.053,3.596,9.053C1118.667,34.284,1119.287,31.433,1119.287,25.853z"/>
	<path d="M1152.085,42.531c0,2.727,1.365,2.912,4.836,3.408v2.604h-20.893V45.94c2.295-0.188,3.285-0.373,3.285-2.23v-21.7
		l-3.285-2.107V17.98l13.826-3.721h2.479l-0.248,9.672c2.357-7.438,4.65-9.672,8.617-9.672c1.551,0,2.604,0.436,3.287,1.055v9.484
		h-1.611c-3.969,0-7.627,0.125-10.293,1.736V42.531L1152.085,42.531z"/>
	<path d="M1196.724,28.148v1.551h-19.651c0,6.818,3.844,11.158,9.299,11.158c3.906,0,6.883-1.303,9.238-4.34l1.303,0.807
		c-1.736,7.191-6.635,11.842-14.756,11.842c-9.238,0-16.615-5.891-16.615-16.738c0-11.223,7.998-18.166,17.174-18.166
		C1192.013,14.259,1196.724,20.025,1196.724,28.148z M1177.134,26.659h8.742c0-6.141-0.992-9.672-3.969-9.672
		C1178.808,16.99,1177.382,20.831,1177.134,26.659z"/>
	<path d="M1200.632,46.001l-0.373-8.369h3.162c1.115,4.959,4.465,8.742,9.238,8.742c2.789,0,5.02-1.303,5.02-3.906
		c0-3.037-2.418-3.967-6.387-5.146c-7.191-2.107-11.096-5.207-11.096-11.719c0-7.377,5.578-11.346,13.328-11.346
		c4.276,0,8.245,1.117,10.911,2.852v7.441h-2.913c-0.621-3.906-3.41-7.502-7.688-7.502c-2.479,0-4.217,1.301-4.217,3.533
		c0,2.479,1.799,3.41,5.58,4.648c7.75,2.541,11.901,5.084,11.901,12.214c0,7.503-5.643,11.718-14.319,11.718
		C1207.39,49.163,1203.421,47.923,1200.632,46.001z"/>
	<path d="M1230.826,46.001l-0.373-8.369h3.162c1.115,4.959,4.465,8.742,9.238,8.742c2.788,0,5.021-1.303,5.021-3.906
		c0-3.037-2.418-3.967-6.387-5.146c-7.191-2.107-11.099-5.207-11.099-11.719c0-7.377,5.578-11.346,13.328-11.346
		c4.277,0,8.246,1.117,10.912,2.852v7.441h-2.914c-0.621-3.906-3.41-7.502-7.688-7.502c-2.48,0-4.217,1.301-4.217,3.533
		c0,2.479,1.799,3.41,5.579,4.648c7.75,2.541,11.904,5.084,11.904,12.214c0,7.503-5.643,11.718-14.322,11.718
		C1237.583,49.163,1233.615,47.923,1230.826,46.001z"/>
</g>
</svg>
