<?xml version="1.0" encoding="utf-8"?>
<!-- Generator: Adobe Illustrator 16.0.0, SVG Export Plug-In . SVG Version: 6.00 Build 0)  -->
<!DOCTYPE svg PUBLIC "-//W3C//DTD SVG 1.1//EN" "http://www.w3.org/Graphics/SVG/1.1/DTD/svg11.dtd">
<svg version="1.1" id="Layer_1" xmlns="http://www.w3.org/2000/svg" xmlns:xlink="http://www.w3.org/1999/xlink" x="0px" y="0px"
	 width="1440px" height="62.641px" viewBox="0 0 1440 62.641" enable-background="new 0 0 1440 62.641" xml:space="preserve">
<g id="_x31_9">
	<g>
		<path d="M277.421,44.018c0,1.858,0.992,2.046,3.286,2.23v2.604h-19.343V46.25c2.294-0.188,3.286-0.372,3.286-2.23v-21.7
			l-3.286-2.106V18.29l13.825-3.722h2.232V44.018z M264.65,6.137c0-3.284,2.417-6.138,6.571-6.138c4.092,0,6.572,2.854,6.572,6.14
			c0,3.284-2.48,6.138-6.572,6.138C267.067,12.275,264.65,9.424,264.65,6.137z"/>
		<path d="M302.282,5.208V3.101l13.887-2.79h2.17v41.165c0,2.106,0.186,3.161,1.984,3.161h1.426v2.729L307.8,49.474h-2.418
			l0.186-5.892c-2.542,3.968-5.952,5.892-10.105,5.892c-7.191,0-12.523-5.52-12.523-15.936c0-12.273,7.502-18.66,16.739-18.66
			c2.418,0,4.526,0.56,5.89,1.675V6.882L302.282,5.208z M295.834,29.82c0,7.627,2.604,12.712,7.005,12.712
			c0.868,0,1.798-0.124,2.728-0.438V24.49c0-3.782-0.744-5.768-3.72-5.768C297.756,18.724,295.834,23.125,295.834,29.82z"/>
		<path d="M355.043,28.457v1.55H335.39c0,6.819,3.844,11.159,9.299,11.159c3.906,0,6.881-1.302,9.237-4.34l1.302,0.806
			c-1.736,7.192-6.634,11.844-14.755,11.844c-9.237,0-16.615-5.892-16.615-16.739c0-11.222,7.998-18.164,17.173-18.164
			C350.331,14.569,355.043,20.335,355.043,28.457z M335.452,26.969h8.741c0-6.138-0.992-9.672-3.968-9.672
			C337.126,17.297,335.7,21.141,335.452,26.969z"/>
		<path d="M358.949,46.312l-0.372-8.369h3.162c1.116,4.959,4.463,8.741,9.235,8.741c2.79,0,5.021-1.304,5.021-3.904
			c0-3.037-2.417-3.969-6.385-5.146c-7.192-2.105-11.1-5.207-11.1-11.717c0-7.378,5.58-11.348,13.329-11.348
			c4.278,0,8.246,1.116,10.912,2.854v7.438h-2.914c-0.62-3.904-3.41-7.502-7.688-7.502c-2.479,0-4.217,1.304-4.217,3.534
			c0,2.479,1.799,3.407,5.579,4.647c7.75,2.542,11.903,5.084,11.903,12.213c0,7.502-5.642,11.72-14.321,11.72
			C365.707,49.474,361.739,48.233,358.949,46.312z"/>
		<path d="M399.992,32.61c0-10.354,7.378-18.041,17.979-18.041c10.604,0,17.979,6.512,17.979,16.863
			c0,10.354-7.377,18.041-17.979,18.041C407.37,49.474,399.992,42.964,399.992,32.61z M422.373,34.408
			c0-10.604-1.178-17.111-4.712-17.111c-3.286,0-4.091,4.588-4.091,12.338c0,10.604,1.178,17.111,4.711,17.111
			C421.567,46.746,422.373,42.158,422.373,34.408z"/>
		<path d="M454.675,42.84c0,2.729,1.364,2.914,4.836,3.41v2.604h-20.893V46.25c2.294-0.188,3.286-0.372,3.286-2.23V18.724h-4.402
			v-2.79l4.402-1.056v-0.496c0-9.855,7.005-14.071,15.375-14.071c7.129,0,10.292,2.418,10.292,6.388
			c0,1.798-0.992,3.348-2.418,4.027h-6.388c0.188-0.868,0.312-1.923,0.312-3.038c0-2.17-0.188-4.34-2.046-4.34
			c-1.736,0-2.356,1.362-2.356,3.721v8.121h7.068v3.534h-7.068V42.84L454.675,42.84z"/>
		<path d="M523.245,25.667c0-2.294-0.744-3.72-3.349-3.72c-1.611,0-2.853,0.434-4.217,0.93v21.143c0,1.858,0.56,2.046,2.854,2.23
			v2.604h-18.477V46.25c2.294-0.188,2.854-0.372,2.854-2.23V25.667c0-2.294-0.744-3.72-3.348-3.72c-1.612,0-2.854,0.37-4.218,0.866
			v21.202c0,1.858,0.56,2.046,2.854,2.23v2.604h-18.909V46.25c2.294-0.188,3.286-0.372,3.286-2.23v-21.7l-3.286-2.106V18.29
			l13.825-3.722h2.479l-0.248,6.388c2.17-3.41,5.644-6.388,11.284-6.388c4.835,0,7.997,1.859,8.803,6.512
			c2.108-3.35,5.952-6.512,11.407-6.512c5.767,0,9.176,3.286,9.176,9.731v19.717c0,1.858,0.992,2.046,3.286,2.23v2.604h-18.908
			V46.25c2.293-0.188,2.853-0.372,2.853-2.23V25.667L523.245,25.667z"/>
		<path d="M571.232,42.034c0,1.237,0.123,2.542,1.55,2.542c0.806,0,1.608-0.188,1.922-0.312l0.434,1.858
			c-2.17,1.981-4.896,3.35-8.616,3.35c-3.781,0-6.511-1.859-7.625-5.146c-1.735,2.665-4.588,4.896-9.176,4.896
			c-5.332,0-9.111-2.914-9.111-8.434c0-5.456,3.72-7.688,8.06-9.176l10.043-3.474v-6.817c0-2.479-0.62-4.154-2.666-4.154
			c-2.17,0-2.976,1.922-2.976,4.772c0,1.486,0.248,3.038,0.619,4.59L546,27.526c-1.86-0.617-3.224-2.17-3.224-4.523
			c0-5.892,6.075-8.434,13.825-8.434c9.051,0,14.631,2.666,14.631,11.035V42.034L571.232,42.034z M558.709,42.468V30.999
			l-2.479,0.932c-1.984,0.742-3.35,1.733-3.35,5.396c0,3.1,1.055,5.456,4.03,5.456C557.593,42.778,558.089,42.655,558.709,42.468z"
			/>
		<path d="M592.438,42.84c0,2.729,1.363,2.914,4.839,3.41v2.604H576.38V46.25c2.294-0.188,3.286-0.372,3.286-2.23v-21.7
			l-3.286-2.106V18.29l13.825-3.722h2.479l-0.246,9.674c2.354-7.439,4.648-9.674,8.616-9.674c1.554,0,2.604,0.437,3.286,1.056v9.483
			h-1.608c-3.972,0-7.625,0.124-10.292,1.734L592.438,42.84L592.438,42.84z"/>
		<path d="M626.537,40.979c3.534,0,6.138-1.113,8.06-3.846l1.488,0.933c-2.046,7.997-7.315,11.407-14.507,11.407
			c-8.803,0-15.688-6.14-15.688-16.432c0-10.603,6.944-18.477,17.483-18.477c6.323,0,11.777,2.354,11.777,8.122
			c0,2.541-1.486,4.094-2.912,4.711h-6.389c0.188-1.485,0.247-2.665,0.247-3.721c0-3.721-0.989-6.139-3.72-6.139
			c-3.472,0-5.456,4.648-5.456,10.852C616.927,36.206,620.398,40.979,626.537,40.979z"/>
		<path d="M641.107,6.882l-3.286-1.674V3.101l13.887-2.79h2.17v20.521c2.232-2.914,5.767-6.264,11.593-6.264
			c6.018,0,9.61,3.35,9.61,10.169v19.279c0,1.858,0.992,2.046,3.286,2.23v2.604H659.21V46.25c2.293-0.188,3.101-0.372,3.101-2.23
			V25.853c0-2.294-0.741-3.846-3.845-3.846c-1.732,0-3.162,0.312-4.588,0.809v21.202c0,1.858,0.806,2.046,3.101,2.23v2.604h-19.154
			V46.25c2.294-0.188,3.286-0.372,3.286-2.23L641.107,6.882L641.107,6.882z"/>
		<path d="M691.884,32.61c0-10.354,7.377-18.041,17.979-18.041c10.602,0,17.978,6.512,17.978,16.863
			c0,10.354-7.376,18.041-17.978,18.041C699.261,49.474,691.884,42.964,691.884,32.61z M714.265,34.408
			c0-10.604-1.178-17.111-4.713-17.111c-3.284,0-4.09,4.588-4.09,12.338c0,10.604,1.178,17.111,4.711,17.111
			C713.458,46.746,714.265,42.158,714.265,34.408z"/>
		<path d="M746.568,42.84c0,2.729,1.36,2.914,4.836,3.41v2.604h-20.896V46.25c2.295-0.188,3.287-0.372,3.287-2.23V18.724h-4.401
			v-2.79l4.401-1.056v-0.496c0-9.855,7.004-14.071,15.375-14.071c7.129,0,10.291,2.418,10.291,6.388
			c0,1.798-0.992,3.348-2.418,4.027h-6.385c0.186-0.868,0.309-1.923,0.309-3.038c0-2.17-0.186-4.34-2.045-4.34
			c-1.733,0-2.354,1.362-2.354,3.721v8.121h7.065v3.534h-7.065V42.84L746.568,42.84z"/>
		<path d="M787.984,15.189h6.881v3.534h-6.881v20.521c0,2.666,1.053,3.844,3.16,3.844c1.487,0,2.913-0.558,4.342-1.55l0.989,1.55
			c-2.479,4.153-6.139,6.388-11.346,6.388c-5.951,0-10.104-2.978-10.104-10.416V18.724h-3.351V16.43
			c5.271-1.86,10.105-5.52,13.578-9.855h2.729v8.614H787.984z"/>
		<path d="M813.898,44.018c0,1.858,0.989,2.046,3.284,2.23v2.604h-19.344V46.25c2.295-0.188,3.287-0.372,3.287-2.23v-21.7
			l-3.287-2.106V18.29l13.826-3.722h2.229v29.449L813.898,44.018L813.898,44.018z M801.126,6.137c0-3.284,2.418-6.139,6.572-6.139
			c4.092,0,6.567,2.854,6.567,6.139c0,3.285-2.479,6.139-6.567,6.139C803.544,12.275,801.126,9.424,801.126,6.137z"/>
		<path d="M863.496,25.667c0-2.294-0.744-3.72-3.348-3.72c-1.611,0-2.854,0.434-4.218,0.93v21.143c0,1.858,0.56,2.046,2.854,2.23
			v2.604h-18.475V46.25c2.293-0.188,2.854-0.372,2.854-2.23V25.667c0-2.294-0.744-3.72-3.348-3.72c-1.613,0-2.854,0.37-4.22,0.866
			v21.202c0,1.858,0.562,2.046,2.854,2.23v2.604h-18.908V46.25c2.293-0.188,3.285-0.372,3.285-2.23v-21.7l-3.285-2.106V18.29
			l13.824-3.722h2.479l-0.248,6.388c2.17-3.41,5.646-6.388,11.285-6.388c4.834,0,7.998,1.859,8.803,6.512
			c2.107-3.35,5.951-6.512,11.406-6.512c5.768,0,9.176,3.286,9.176,9.731v19.717c0,1.858,0.992,2.046,3.287,2.23v2.604h-18.91V46.25
			c2.293-0.188,2.855-0.372,2.855-2.23V25.667H863.496z"/>
		<path d="M912.477,28.457v1.55h-19.65c0,6.819,3.844,11.159,9.299,11.159c3.906,0,6.881-1.302,9.238-4.34l1.301,0.806
			c-1.736,7.192-6.633,11.844-14.754,11.844c-9.238,0-16.615-5.892-16.615-16.739c0-11.222,7.996-18.164,17.172-18.164
			C907.765,14.569,912.477,20.335,912.477,28.457z M892.884,26.969h8.742c0-6.138-0.992-9.672-3.967-9.672
			C894.558,17.297,893.132,21.141,892.884,26.969z"/>
		<path d="M926.613,32.61c0-10.354,7.377-18.041,17.979-18.041c10.605,0,17.98,6.512,17.98,16.863
			c0,10.354-7.379,18.041-17.98,18.041C933.992,49.473,926.613,42.964,926.613,32.61z M948.994,34.408
			c0-10.604-1.178-17.111-4.711-17.111c-3.287,0-4.092,4.588-4.092,12.338c0,10.604,1.178,17.111,4.711,17.111
			C948.188,46.746,948.994,42.158,948.994,34.408z"/>
		<path d="M981.296,42.84c0,2.729,1.363,2.914,4.834,3.41v2.604h-20.893V46.25c2.295-0.188,3.284-0.372,3.284-2.23V18.724h-4.399
			v-2.79l4.399-1.056v-0.496c0-9.855,7.009-14.071,15.375-14.071c7.132,0,10.291,2.418,10.291,6.388
			c0,1.798-0.989,3.348-2.422,4.027h-6.385c0.189-0.868,0.312-1.923,0.312-3.038c0-2.17-0.189-4.34-2.045-4.34
			c-1.736,0-2.355,1.362-2.355,3.721v8.121h7.066v3.534h-7.066V42.84H981.296z"/>
		<path d="M1025.128,5.208V3.101l13.887-2.79h2.171v41.165c0,2.106,0.188,3.161,1.983,3.161h1.426v2.729l-13.948,2.106h-2.418
			l0.186-5.892c-2.541,3.968-5.951,5.892-10.104,5.892c-7.193,0-12.523-5.52-12.523-15.936c0-12.273,7.5-18.66,16.738-18.66
			c2.418,0,4.524,0.56,5.889,1.675V6.882L1025.128,5.208z M1018.681,29.82c0,7.627,2.604,12.712,7.007,12.712
			c0.866,0,1.797-0.124,2.727-0.438V24.49c0-3.782-0.742-5.768-3.719-5.768C1020.604,18.724,1018.681,23.125,1018.681,29.82z"/>
		<path d="M1077.888,28.457v1.55h-19.651c0,6.819,3.844,11.159,9.299,11.159c3.906,0,6.883-1.302,9.238-4.34l1.303,0.806
			c-1.736,7.192-6.635,11.844-14.756,11.844c-9.238,0-16.615-5.892-16.615-16.739c0-11.222,7.998-18.164,17.174-18.164
			C1073.177,14.569,1077.888,20.335,1077.888,28.457z M1058.298,26.969h8.742c0-6.138-0.992-9.672-3.969-9.672
			C1059.972,17.297,1058.546,21.141,1058.298,26.969z"/>
		<path d="M1110.748,42.034c0,1.237,0.125,2.542,1.551,2.542c0.808,0,1.611-0.188,1.922-0.312l0.439,1.858
			c-2.17,1.981-4.898,3.35-8.617,3.35c-3.783,0-6.51-1.859-7.627-5.146c-1.734,2.665-4.588,4.896-9.174,4.896
			c-5.332,0-9.115-2.914-9.115-8.434c0-5.456,3.721-7.688,8.062-9.176l10.043-3.474v-6.817c0-2.479-0.619-4.154-2.666-4.154
			c-2.17,0-2.976,1.922-2.976,4.772c0,1.486,0.248,3.038,0.619,4.59l-7.688,0.989c-1.857-0.619-3.226-2.17-3.226-4.523
			c0-5.892,6.076-8.434,13.826-8.434c9.051,0,14.631,2.666,14.631,11.035v16.435h-0.004V42.034L1110.748,42.034z M1098.224,42.468
			V30.999l-2.479,0.932c-1.982,0.742-3.348,1.733-3.348,5.396c0,3.1,1.055,5.456,4.03,5.456
			C1097.109,42.778,1097.605,42.655,1098.224,42.468z"/>
		<path d="M1131.146,15.189h6.883v3.534h-6.883v20.521c0,2.666,1.055,3.844,3.161,3.844c1.488,0,2.914-0.558,4.341-1.55l0.991,1.55
			c-2.479,4.153-6.139,6.388-11.346,6.388c-5.951,0-10.104-2.978-10.104-10.416V18.724h-3.349V16.43
			c5.271-1.86,10.105-5.52,13.578-9.855h2.728V15.189z"/>
		<path d="M1144.042,6.882l-3.285-1.674V3.101l13.887-2.79h2.171v20.521c2.231-2.914,5.766-6.264,11.594-6.264
			c6.014,0,9.608,3.35,9.608,10.169v19.279c0,1.858,0.992,2.046,3.287,2.23v2.604h-19.157V46.25c2.295-0.188,3.1-0.372,3.1-2.23
			V25.853c0-2.294-0.744-3.846-3.844-3.846c-1.736,0-3.162,0.312-4.588,0.809v21.202c0,1.858,0.807,2.046,3.1,2.23v2.604h-19.156
			V46.25c2.295-0.188,3.285-0.372,3.285-2.23L1144.042,6.882L1144.042,6.882z"/>
	</g>
</g>
</svg>
