<?xml version="1.0" encoding="utf-8"?>
<!-- Generator: Adobe Illustrator 16.0.0, SVG Export Plug-In . SVG Version: 6.00 Build 0)  -->
<!DOCTYPE svg PUBLIC "-//W3C//DTD SVG 1.1//EN" "http://www.w3.org/Graphics/SVG/1.1/DTD/svg11.dtd">
<svg version="1.1" id="Layer_1" xmlns="http://www.w3.org/2000/svg" xmlns:xlink="http://www.w3.org/1999/xlink" x="0px" y="0px"
	 width="1440px" height="62.68px" viewBox="0 0 1440 62.68" enable-background="new 0 0 1440 62.68" xml:space="preserve">
<g id="_x32_5_1_">
	<g>
		<path d="M131.432,42.034c0,1.236,0.124,2.542,1.55,2.542c0.806,0,1.612-0.188,1.922-0.312l0.434,1.859
			c-2.17,1.98-4.897,3.349-8.617,3.349c-3.782,0-6.51-1.858-7.626-5.146c-1.736,2.665-4.587,4.896-9.175,4.896
			c-5.332,0-9.113-2.914-9.113-8.433c0-5.456,3.72-7.688,8.06-9.176l10.043-3.474v-6.816c0-2.479-0.62-4.154-2.666-4.154
			c-2.17,0-2.976,1.922-2.976,4.771c0,1.487,0.248,3.038,0.62,4.591l-7.688,0.994c-1.86-0.616-3.224-2.17-3.224-4.522
			c0-5.893,6.076-8.435,13.826-8.435c9.051,0,14.631,2.666,14.631,11.035L131.432,42.034L131.432,42.034z M118.909,42.468V30.999
			l-2.479,0.931c-1.984,0.743-3.348,1.734-3.348,5.396c0,3.1,1.054,5.456,4.03,5.456C117.793,42.778,118.289,42.656,118.909,42.468z
			"/>
		<path d="M157.101,40.979c3.534,0,6.138-1.112,8.06-3.845l1.488,0.932c-2.046,7.997-7.315,11.407-14.507,11.407
			c-8.803,0-15.685-6.139-15.685-16.431c0-10.604,6.944-18.478,17.483-18.478c6.323,0,11.779,2.355,11.779,8.122
			c0,2.541-1.488,4.095-2.914,4.711h-6.386c0.186-1.484,0.248-2.665,0.248-3.72c0-3.721-0.992-6.139-3.72-6.139
			c-3.472,0-5.456,4.647-5.456,10.851C147.491,36.206,150.963,40.979,157.101,40.979z"/>
		<path d="M183.885,15.189h6.881v3.534h-6.881v20.521c0,2.666,1.054,3.844,3.162,3.844c1.488,0,2.914-0.558,4.34-1.55l0.992,1.55
			c-2.479,4.153-6.138,6.387-11.345,6.387c-5.952,0-10.105-2.977-10.105-10.416V18.724h-3.349V16.43
			c5.27-1.86,10.105-5.519,13.577-9.854h2.728V15.189z"/>
		<path d="M205.398,32.61c0-10.354,7.378-18.041,17.979-18.041c10.602,0,17.979,6.513,17.979,16.863
			c0,10.354-7.377,18.041-17.979,18.041C212.776,49.474,205.398,42.964,205.398,32.61z M227.779,34.408
			c0-10.604-1.178-17.111-4.712-17.111c-3.286,0-4.091,4.588-4.091,12.338c0,10.604,1.178,17.111,4.711,17.111
			C226.974,46.746,227.779,42.158,227.779,34.408z"/>
		<path d="M260.082,42.84c0,2.729,1.364,2.914,4.836,3.41v2.604h-20.893V46.25c2.294-0.188,3.286-0.372,3.286-2.231V18.724h-4.402
			v-2.79l4.402-1.055v-0.496c0-9.856,7.005-14.072,15.375-14.072c7.129,0,10.292,2.418,10.292,6.389
			c0,1.798-0.992,3.348-2.418,4.026h-6.386c0.186-0.868,0.31-1.922,0.31-3.038c0-2.17-0.186-4.34-2.046-4.34
			c-1.736,0-2.356,1.363-2.356,3.721v8.121h7.068v3.534h-7.068V42.84L260.082,42.84z"/>
		<path d="M303.605,44.018c0,1.859,0.992,2.046,3.286,2.231v2.604h-19.343V46.25c2.294-0.188,3.286-0.372,3.286-2.231V6.882
			l-3.286-1.674V3.101l13.887-2.79h2.17V44.018L303.605,44.018z"/>
		<path d="M309.124,32.61c0-10.354,7.378-18.041,17.979-18.041c10.602,0,17.979,6.513,17.979,16.863
			c0,10.354-7.377,18.041-17.979,18.041C316.501,49.474,309.124,42.964,309.124,32.61z M331.504,34.408
			c0-10.604-1.178-17.111-4.712-17.111c-3.286,0-4.091,4.588-4.091,12.338c0,10.604,1.178,17.111,4.711,17.111
			C330.698,46.746,331.504,42.158,331.504,34.408z"/>
		<path d="M382.034,17.793c-2.108,0.684-2.542,1.116-3.162,2.479L365.854,49.04h-3.658l-14.569-28.769
			c-0.682-1.361-1.054-1.798-3.162-2.479v-2.604h21.203v2.604c-3.286,0.436-4.03,0.868-4.03,2.17c0,0.56,0.124,0.868,0.496,1.736
			l6.2,13.144l5.642-13.144c0.372-0.868,0.496-1.181,0.496-1.736c0-1.302-0.744-1.734-4.028-2.17v-2.604h11.593L382.034,17.793
			L382.034,17.793z"/>
		<path d="M411.98,28.457v1.55h-19.652c0,6.819,3.844,11.159,9.299,11.159c3.906,0,6.881-1.302,9.237-4.34l1.302,0.806
			c-1.736,7.192-6.634,11.843-14.755,11.843c-9.237,0-16.615-5.891-16.615-16.739c0-11.222,7.998-18.163,17.173-18.163
			C407.27,14.569,411.98,20.335,411.98,28.457z M392.39,26.969h8.741c0-6.138-0.992-9.672-3.968-9.672
			C394.064,17.297,392.638,21.141,392.39,26.969z"/>
		<path d="M426.117,32.61c0-10.354,7.378-18.041,17.979-18.041c10.604,0,17.979,6.513,17.979,16.863
			c0,10.354-7.377,18.041-17.979,18.041C433.495,49.474,426.117,42.964,426.117,32.61z M448.498,34.408
			c0-10.604-1.178-17.111-4.712-17.111c-3.286,0-4.091,4.588-4.091,12.338c0,10.604,1.178,17.111,4.711,17.111
			C447.691,46.746,448.498,42.158,448.498,34.408z"/>
		<path d="M480.8,42.84c0,2.729,1.364,2.914,4.836,3.41v2.604h-20.893V46.25c2.294-0.188,3.286-0.372,3.286-2.231V18.724h-4.402
			v-2.79l4.402-1.055v-0.496c0-9.856,7.005-14.072,15.375-14.072c7.129,0,10.292,2.418,10.292,6.389
			c0,1.798-0.992,3.348-2.418,4.026h-6.39c0.188-0.868,0.312-1.922,0.312-3.038c0-2.17-0.188-4.34-2.046-4.34
			c-1.736,0-2.356,1.363-2.356,3.721v8.121h7.068v3.534H480.8V42.84z"/>
		<path d="M524.385,40.979c3.534,0,6.142-1.112,8.062-3.845l1.484,0.932c-2.046,7.997-7.312,11.407-14.507,11.407
			c-8.803,0-15.685-6.139-15.685-16.431c0-10.604,6.94-18.478,17.479-18.478c6.323,0,11.779,2.355,11.779,8.122
			c0,2.541-1.488,4.095-2.914,4.711h-6.386c0.186-1.484,0.248-2.665,0.248-3.72c0-3.721-0.992-6.139-3.721-6.139
			c-3.475,0-5.455,4.647-5.455,10.851C514.775,36.206,518.247,40.979,524.385,40.979z"/>
		<path d="M535.793,32.61c0-10.354,7.378-18.041,17.979-18.041c10.603,0,17.979,6.513,17.979,16.863
			c0,10.354-7.377,18.041-17.979,18.041C543.171,49.474,535.793,42.964,535.793,32.61z M558.174,34.408
			c0-10.604-1.178-17.111-4.712-17.111c-3.286,0-4.091,4.588-4.091,12.338c0,10.604,1.178,17.111,4.711,17.111
			C557.368,46.746,558.174,42.158,558.174,34.408z"/>
		<path d="M610.5,41.476c0,2.107,0.186,3.162,1.984,3.162h1.426v2.729l-13.949,2.105h-2.418l0.188-6.076
			c-2.106,2.854-5.396,6.076-11.158,6.076c-5.58,0-9.547-3.349-9.547-10.603V24.179c0-1.735-0.438-3.161-2.174-3.721l-0.93-0.312
			v-2.479l13.887-3.103h2.356l-0.372,8.187v15.003c0,2.854,1.116,4.465,3.906,4.465c1.55,0,2.479-0.187,4.029-0.683V24.179
			c0-1.735-0.437-3.161-2.172-3.721l-0.931-0.312v-2.479l13.888-3.103h2.355l-0.372,8.187L610.5,41.476L610.5,41.476z"/>
		<path d="M640.633,25.853c0-2.294-0.744-3.845-3.844-3.845c-1.736,0-3.162,0.312-4.588,0.808v21.202c0,1.859,0.806,2.046,3.1,2.231
			v2.604h-19.156V46.25c2.293-0.188,3.285-0.372,3.285-2.231v-21.7l-3.285-2.105V18.29l13.824-3.723h2.48l-0.248,6.265
			c2.229-2.914,5.766-6.265,11.593-6.265c6.014,0,9.61,3.351,9.61,10.17v19.278c0,1.859,0.992,2.046,3.285,2.231v2.604h-19.156
			V46.25c2.293-0.188,3.1-0.372,3.1-2.231V25.853L640.633,25.853z"/>
		<path d="M673.803,15.189h6.881v3.534h-6.881v20.521c0,2.666,1.058,3.844,3.162,3.844c1.488,0,2.914-0.558,4.34-1.55l0.992,1.55
			c-2.479,4.153-6.138,6.387-11.345,6.387c-5.952,0-10.105-2.977-10.105-10.416V18.724h-3.348V16.43
			c5.271-1.86,10.104-5.519,13.577-9.854h2.728L673.803,15.189L673.803,15.189z"/>
		<path d="M699.718,42.84c0,2.729,1.364,2.914,4.835,3.41v2.604H683.66V46.25c2.294-0.188,3.286-0.372,3.286-2.231v-21.7
			l-3.286-2.105V18.29l13.825-3.723h2.479l-0.248,9.675c2.356-7.439,4.65-9.675,8.618-9.675c1.55,0,2.604,0.438,3.287,1.057v9.482
			h-1.613c-3.967,0-7.625,0.124-10.291,1.735L699.718,42.84L699.718,42.84z"/>
		<path d="M741.753,21.823c0.312-0.868,0.496-1.305,0.496-1.86c0-1.302-0.744-1.734-4.029-2.17v-2.604h11.595v2.604
			c-2.107,0.684-2.604,1.116-3.16,2.479L732.27,54c-2.419,5.643-4.837,8.618-9.302,8.618c-2.542,0-4.397-0.992-5.331-2.479v-5.021
			c1.674,0.31,3.104,0.617,5.083,0.617c3.536,0,5.209-0.989,6.263-3.224l0.932-1.984l-14.505-30.254
			c-0.621-1.361-1.058-1.798-3.162-2.479V15.19h21.205v2.604c-3.287,0.436-4.029,0.868-4.029,2.17c0,0.56,0.187,0.992,0.435,1.736
			l6.073,14.631L741.753,21.823z"/>
		<path d="M761.595,32.61c0-10.354,7.377-18.041,17.979-18.041c10.602,0,17.979,6.513,17.979,16.863
			c0,10.354-7.377,18.041-17.979,18.041C768.972,49.473,761.595,42.964,761.595,32.61z M783.977,34.408
			c0-10.604-1.181-17.111-4.714-17.111c-3.284,0-4.092,4.588-4.092,12.338c0,10.604,1.178,17.111,4.713,17.111
			C783.169,46.746,783.977,42.158,783.977,34.408z"/>
		<path d="M816.277,42.84c0,2.729,1.362,2.914,4.836,3.41v2.604H800.22V46.25c2.293-0.188,3.285-0.372,3.285-2.231V18.724h-4.401
			v-2.79l4.401-1.055v-0.496c0-9.856,7.006-14.072,15.375-14.072c7.131,0,10.291,2.418,10.291,6.389c0,1.798-0.99,3.348-2.418,4.026
			h-6.385c0.186-0.868,0.311-1.922,0.311-3.038c0-2.17-0.186-4.34-2.047-4.34c-1.736,0-2.354,1.363-2.354,3.721v8.121h7.067v3.534
			h-7.067V42.84L816.277,42.84z"/>
		<path d="M839.218,32.61c0-10.354,7.377-18.041,17.979-18.041c10.602,0,17.979,6.513,17.979,16.863
			c0,10.354-7.377,18.041-17.979,18.041C846.595,49.473,839.218,42.964,839.218,32.61z M861.599,34.408
			c0-10.604-1.18-17.111-4.713-17.111c-3.284,0-4.092,4.588-4.092,12.338c0,10.604,1.178,17.111,4.713,17.111
			C860.792,46.746,861.599,42.158,861.599,34.408z"/>
		<path d="M893.837,42.84c0,2.729,1.365,2.914,4.836,3.41v2.604H877.78V46.25c2.295-0.188,3.278-0.372,3.278-2.231v-21.7
			l-3.278-2.105V18.29l13.819-3.723h2.48l-0.248,9.675c2.357-7.439,4.65-9.675,8.617-9.675c1.551,0,2.604,0.438,3.287,1.057v9.482
			h-1.611c-3.969,0-7.627,0.124-10.293,1.735V42.84H893.837z"/>
		<path d="M923.474,44.018c0,1.859,0.992,2.046,3.285,2.231v2.604h-19.342V46.25c2.293-0.188,3.285-0.372,3.285-2.231v-21.7
			l-3.285-2.105V18.29l13.824-3.723h2.229v29.449L923.474,44.018L923.474,44.018z M910.703,6.138c0-3.285,2.418-6.139,6.572-6.139
			c4.092,0,6.569,2.854,6.569,6.139s-2.479,6.138-6.569,6.138C913.121,12.275,910.703,9.424,910.703,6.138z"/>
		<path d="M936.99,36.206c-0.808,0.744-1.551,1.55-1.551,2.729c0,0.933,0.62,1.674,1.674,1.674h13.826
			c8.928,0,12.397,3.847,12.397,9.55c0,8.119-7.625,12.521-19.281,12.521c-10.166,0-16.489-2.604-16.489-7.503
			c0-3.036,3.1-4.34,5.703-4.587c-2.666-1.055-4.216-3.781-4.216-6.447c0-4.217,2.853-6.883,6.199-8.617
			c-3.473-1.609-6.014-4.399-6.014-8.986c0-7.562,6.51-11.969,15.5-11.969c2.541,0,4.395,0.372,6.014,0.809l11.344-0.247v4.463
			h-2.912l-3.534-0.124c2.295,1.552,3.782,3.906,3.782,7.007c0,6.942-6.635,10.786-15.252,10.786
			C941.826,37.26,939.283,36.95,936.99,36.206z M934.695,52.201c-0.248,0.312-0.31,0.989-0.31,1.674
			c0,3.597,4.029,5.643,9.857,5.643c5.393,0,10.414-1.179,10.414-4.959c0-1.609-0.992-2.354-2.98-2.354L934.695,52.201
			L934.695,52.201z M947.777,26.163c0-4.588-1.056-8.807-3.597-8.807c-2.479,0-3.161,2.914-3.161,8.187
			c0,4.896,1.114,9.052,3.596,9.052C947.158,34.594,947.777,31.742,947.777,26.163z"/>
		<path d="M980.576,44.018c0,1.859,0.992,2.046,3.285,2.231v2.604H964.52V46.25c2.293-0.188,3.284-0.372,3.284-2.231v-21.7
			l-3.284-2.105V18.29l13.823-3.723h2.232L980.576,44.018L980.576,44.018z M967.804,6.138c0-3.285,2.418-6.139,6.572-6.139
			c4.092,0,6.57,2.854,6.57,6.139s-2.48,6.138-6.57,6.138C970.222,12.275,967.804,9.424,967.804,6.138z"/>
		<path d="M1010.707,25.853c0-2.294-0.744-3.845-3.844-3.845c-1.736,0-3.162,0.312-4.588,0.808v21.202
			c0,1.859,0.805,2.046,3.1,2.231v2.604h-19.156V46.25c2.293-0.188,3.285-0.372,3.285-2.231v-21.7l-3.285-2.105V18.29l13.824-3.723
			h2.48l-0.248,6.265c2.231-2.914,5.766-6.265,11.594-6.265c6.014,0,9.608,3.351,9.608,10.17v19.278
			c0,1.859,0.992,2.046,3.285,2.231v2.604h-19.155V46.25c2.293-0.188,3.1-0.372,3.1-2.231V25.853L1010.707,25.853z"/>
		<path d="M1040.281,32.61c0-10.354,7.377-18.041,17.979-18.041c10.605,0,17.98,6.513,17.98,16.863
			c0,10.354-7.377,18.041-17.98,18.041C1047.658,49.473,1040.281,42.964,1040.281,32.61z M1062.662,34.408
			c0-10.604-1.18-17.111-4.713-17.111c-3.285,0-4.092,4.588-4.092,12.338c0,10.604,1.178,17.111,4.713,17.111
			C1061.855,46.746,1062.662,42.158,1062.662,34.408z"/>
		<path d="M1094.962,42.84c0,2.729,1.363,2.914,4.836,3.41v2.604h-20.893V46.25c2.293-0.188,3.281-0.372,3.281-2.231V18.724h-4.398
			v-2.79l4.398-1.055v-0.496c0-9.856,7.01-14.072,15.375-14.072c7.135,0,10.291,2.418,10.291,6.389c0,1.798-0.986,3.348-2.418,4.026
			h-6.388c0.189-0.868,0.312-1.922,0.312-3.038c0-2.17-0.188-4.34-2.049-4.34c-1.734,0-2.354,1.363-2.354,3.721v8.121h7.068v3.534
			h-7.068V42.84H1094.962z"/>
		<path d="M1120.382,46.312l-0.371-8.369h3.162c1.115,4.959,4.463,8.741,9.236,8.741c2.791,0,5.02-1.303,5.02-3.903
			c0-3.037-2.418-3.97-6.385-5.146c-7.188-2.106-11.098-5.207-11.098-11.717c0-7.378,5.577-11.349,13.327-11.349
			c4.275,0,8.242,1.116,10.908,2.854v7.438h-2.912c-0.619-3.903-3.405-7.502-7.688-7.502c-2.48,0-4.215,1.305-4.215,3.534
			c0,2.479,1.797,3.408,5.58,4.648c7.748,2.542,11.897,5.084,11.897,12.213c0,7.502-5.641,11.719-14.315,11.719
			C1127.14,49.474,1123.173,48.233,1120.382,46.312z"/>
		<path d="M1152.314,22.319l-3.287-2.105V18.29l13.826-3.723h2.479l-0.248,6.141c1.611-2.729,5.021-6.141,10.414-6.141
			c7.188,0,12.586,4.896,12.586,15.312c0,13.02-7.873,19.592-17.979,19.592c-2.23,0-4.093-0.372-5.021-1.055v8.432
			c0,2.17,1.115,2.231,4.588,2.542v2.604h-20.646v-2.604c2.295-0.187,3.287-0.372,3.287-2.229V22.319z M1175.066,33.54
			c0-8.435-2.978-11.531-7.129-11.531c-0.992,0-1.861,0.124-2.853,0.56v17.548c0,3.654,0.744,6.196,3.781,6.196
			C1173.021,46.312,1175.066,40.732,1175.066,33.54z"/>
		<path d="M1222.371,28.457v1.55h-19.652c0,6.819,3.844,11.159,9.299,11.159c3.906,0,6.89-1.302,9.238-4.34l1.303,0.806
			c-1.729,7.192-6.635,11.843-14.756,11.843c-9.238,0-16.615-5.891-16.615-16.739c0-11.222,7.998-18.163,17.181-18.163
			C1217.66,14.569,1222.371,20.335,1222.371,28.457z M1202.781,26.969h8.742c0-6.138-0.992-9.672-3.97-9.672
			C1204.455,17.297,1203.029,21.141,1202.781,26.969z"/>
		<path d="M1245.992,40.979c3.535,0,6.139-1.112,8.061-3.845l1.488,0.932c-2.047,7.997-7.316,11.407-14.508,11.407
			c-8.806,0-15.687-6.139-15.687-16.431c0-10.604,6.943-18.478,17.482-18.478c6.324,0,11.779,2.355,11.779,8.122
			c0,2.541-1.486,4.095-2.912,4.711h-6.394c0.189-1.484,0.248-2.665,0.248-3.72c0-3.721-0.985-6.139-3.719-6.139
			c-3.473,0-5.457,4.647-5.457,10.851C1236.382,36.206,1239.855,40.979,1245.992,40.979z"/>
		<path d="M1273.582,44.018c0,1.859,0.992,2.046,3.287,2.231v2.604h-19.344V46.25c2.295-0.188,3.285-0.372,3.285-2.231v-21.7
			l-3.285-2.105V18.29l13.826-3.723h2.229L1273.582,44.018L1273.582,44.018z M1260.811,6.138c0-3.285,2.418-6.139,6.571-6.139
			c4.093,0,6.572,2.854,6.572,6.139s-2.479,6.138-6.572,6.138C1263.229,12.275,1260.811,9.424,1260.811,6.138z"/>
		<path d="M1310.285,28.457v1.55h-19.652c0,6.819,3.844,11.159,9.299,11.159c3.906,0,6.881-1.302,9.238-4.34l1.301,0.806
			c-1.729,7.192-6.633,11.843-14.754,11.843c-9.238,0-16.615-5.891-16.615-16.739c0-11.222,7.996-18.163,17.179-18.163
			C1305.574,14.569,1310.285,20.335,1310.285,28.457z M1290.693,26.969h8.741c0-6.138-0.991-9.672-3.967-9.672
			C1292.367,17.297,1290.941,21.141,1290.693,26.969z"/>
		<path d="M1314.191,46.312l-0.371-8.369h3.162c1.114,4.959,4.463,8.741,9.235,8.741c2.791,0,5.021-1.303,5.021-3.903
			c0-3.037-2.418-3.97-6.392-5.146c-7.188-2.106-11.098-5.207-11.098-11.717c0-7.378,5.58-11.349,13.33-11.349
			c4.277,0,8.244,1.116,10.91,2.854v7.438h-2.914c-0.619-3.903-3.408-7.502-7.688-7.502c-2.479,0-4.215,1.305-4.215,3.534
			c0,2.479,1.797,3.408,5.58,4.648c7.748,2.542,11.902,5.084,11.902,12.213c0,7.502-5.646,11.719-14.32,11.719
			C1320.949,49.474,1316.982,48.233,1314.191,46.312z"/>
	</g>
</g>
</svg>
