<?xml version="1.0" encoding="utf-8"?>
<!-- Generator: Adobe Illustrator 16.0.0, SVG Export Plug-In . SVG Version: 6.00 Build 0)  -->
<!DOCTYPE svg PUBLIC "-//W3C//DTD SVG 1.1//EN" "http://www.w3.org/Graphics/SVG/1.1/DTD/svg11.dtd">
<svg version="1.1" id="Layer_1" xmlns="http://www.w3.org/2000/svg" xmlns:xlink="http://www.w3.org/1999/xlink" x="0px" y="0px"
	 width="1440px" height="62.68px" viewBox="0 0 1440 62.68" enable-background="new 0 0 1440 62.68" xml:space="preserve">
<g id="_x32_6_1_">
	<g>
		<path d="M306.319,25.667c0-2.294-0.744-3.72-3.348-3.72c-1.612,0-2.852,0.434-4.216,0.93v21.142c0,1.859,0.558,2.046,2.852,2.231
			v2.604h-18.474V46.25c2.294-0.188,2.852-0.372,2.852-2.231V25.667c0-2.294-0.744-3.72-3.348-3.72
			c-1.612,0-2.852,0.369-4.216,0.865v21.202c0,1.859,0.558,2.046,2.852,2.231v2.604h-18.909v-2.6
			c2.294-0.188,3.286-0.372,3.286-2.231v-21.7l-3.286-2.105V18.29l13.825-3.723h2.48l-0.248,6.389
			c2.17-3.41,5.642-6.389,11.284-6.389c4.835,0,7.998,1.86,8.803,6.513c2.108-3.351,5.952-6.513,11.407-6.513
			c5.766,0,9.176,3.286,9.176,9.732v19.716c0,1.859,0.992,2.046,3.286,2.231v2.604h-18.909V46.25
			c2.293-0.188,2.852-0.372,2.852-2.231L306.319,25.667L306.319,25.667z"/>
		<path d="M354.307,42.034c0,1.236,0.124,2.542,1.55,2.542c0.806,0,1.612-0.188,1.922-0.312l0.434,1.859
			c-2.17,1.98-4.897,3.349-8.617,3.349c-3.782,0-6.51-1.858-7.626-5.146c-1.736,2.665-4.587,4.896-9.175,4.896
			c-5.332,0-9.113-2.914-9.113-8.433c0-5.456,3.72-7.688,8.06-9.176l10.043-3.475v-6.816c0-2.479-0.62-4.154-2.666-4.154
			c-2.17,0-2.976,1.922-2.976,4.771c0,1.487,0.248,3.038,0.62,4.591l-7.688,0.988c-1.86-0.619-3.224-2.17-3.224-4.522
			c0-5.893,6.076-8.435,13.826-8.435c9.051,0,14.631,2.666,14.631,11.035L354.307,42.034L354.307,42.034z M341.784,42.468V30.999
			l-2.479,0.931c-1.984,0.743-3.348,1.734-3.348,5.396c0,3.1,1.054,5.456,4.03,5.456C340.668,42.778,341.164,42.656,341.784,42.468z
			"/>
		<path d="M374.706,15.189h6.881v3.534h-6.881v20.521c0,2.666,1.054,3.844,3.162,3.844c1.487,0,2.914-0.558,4.34-1.55l0.992,1.55
			c-2.479,4.153-6.138,6.387-11.345,6.387c-5.952,0-10.105-2.977-10.105-10.416V18.724h-3.348V16.43
			c5.27-1.86,10.104-5.519,13.575-9.854h2.729L374.706,15.189L374.706,15.189z"/>
		<path d="M399.816,15.189h6.881v3.534h-6.881v20.521c0,2.666,1.054,3.844,3.162,3.844c1.486,0,2.912-0.558,4.34-1.55l0.99,1.55
			c-2.479,4.153-6.138,6.387-11.345,6.387c-5.952,0-10.104-2.977-10.104-10.416V18.724h-3.35V16.43
			c5.271-1.86,10.105-5.519,13.577-9.854h2.729L399.816,15.189L399.816,15.189z"/>
		<path d="M440.425,28.457v1.55h-19.653c0,6.819,3.846,11.159,9.301,11.159c3.904,0,6.881-1.302,9.235-4.34l1.304,0.806
			c-1.736,7.192-6.636,11.843-14.756,11.843c-9.236,0-16.614-5.891-16.614-16.739c0-11.222,7.998-18.163,17.173-18.163
			C435.713,14.569,440.425,20.335,440.425,28.457z M420.834,26.969h8.741c0-6.138-0.992-9.672-3.968-9.672
			C422.508,17.297,421.082,21.141,420.834,26.969z"/>
		<path d="M458.963,42.84c0,2.729,1.364,2.914,4.836,3.41v2.604h-20.893V46.25c2.294-0.188,3.286-0.372,3.286-2.231v-21.7
			l-3.286-2.105V18.29l13.825-3.723h2.479l-0.248,9.675c2.356-7.439,4.65-9.675,8.618-9.675c1.55,0,2.604,0.438,3.286,1.057v9.482
			h-1.612c-3.968,0-7.625,0.124-10.292,1.735L458.963,42.84L458.963,42.84z"/>
		<path d="M484.197,32.61c0-10.354,7.378-18.041,17.979-18.041c10.604,0,17.979,6.513,17.979,16.863
			c0,10.354-7.377,18.041-17.979,18.041C491.575,49.474,484.197,42.964,484.197,32.61z M506.578,34.408
			c0-10.604-1.178-17.111-4.712-17.111c-3.286,0-4.091,4.588-4.091,12.338c0,10.604,1.178,17.111,4.711,17.111
			C505.771,46.746,506.578,42.158,506.578,34.408z"/>
		<path d="M538.879,42.84c0,2.729,1.364,2.914,4.836,3.41v2.604h-20.893V46.25c2.294-0.188,3.286-0.372,3.286-2.231V18.724h-4.402
			v-2.79l4.402-1.055v-0.496c0-9.856,7.005-14.072,15.375-14.072c7.129,0,10.292,2.418,10.292,6.389
			c0,1.798-0.992,3.348-2.418,4.026h-6.388c0.188-0.868,0.312-1.922,0.312-3.038c0-2.17-0.188-4.34-2.046-4.34
			c-1.736,0-2.356,1.363-2.356,3.721v8.121h7.068v3.534h-7.068V42.84L538.879,42.84z"/>
		<path d="M584.263,42.84c0,2.729,1.364,2.914,4.836,3.41v2.604h-20.893V46.25c2.294-0.188,3.286-0.372,3.286-2.231V18.724h-4.402
			v-2.79l4.402-1.055v-0.496c0-9.856,7.005-14.072,15.375-14.072c7.129,0,10.292,2.418,10.292,6.389
			c0,1.798-0.992,3.348-2.418,4.026h-6.386c0.186-0.868,0.31-1.922,0.31-3.038c0-2.17-0.188-4.34-2.046-4.34
			c-1.736,0-2.356,1.363-2.356,3.721v8.121h7.068v3.534h-7.068V42.84L584.263,42.84z"/>
		<path d="M622.516,42.034c0,1.236,0.124,2.542,1.554,2.542c0.806,0,1.608-0.188,1.922-0.312l0.434,1.859
			c-2.17,1.98-4.896,3.349-8.617,3.349c-3.778,0-6.51-1.858-7.626-5.146c-1.732,2.665-4.587,4.896-9.175,4.896
			c-5.332,0-9.112-2.914-9.112-8.433c0-5.456,3.723-7.688,8.062-9.176l10.043-3.475v-6.816c0-2.479-0.62-4.154-2.666-4.154
			c-2.17,0-2.979,1.922-2.979,4.771c0,1.487,0.248,3.038,0.621,4.591l-7.688,0.988c-1.86-0.619-3.227-2.17-3.227-4.522
			c0-5.893,6.074-8.435,13.824-8.435c9.051,0,14.631,2.666,14.631,11.035V42.034L622.516,42.034z M609.992,42.468V30.999
			l-2.479,0.931c-1.98,0.743-3.348,1.734-3.348,5.396c0,3.1,1.054,5.456,4.03,5.456C608.876,42.778,609.373,42.656,609.992,42.468z"
			/>
		<path d="M648.184,40.979c3.534,0,6.142-1.112,8.062-3.845l1.488,0.932c-2.049,7.997-7.315,11.407-14.511,11.407
			c-8.803,0-15.685-6.139-15.685-16.431c0-10.604,6.943-18.478,17.482-18.478c6.32,0,11.776,2.355,11.776,8.122
			c0,2.541-1.485,4.095-2.914,4.711H647.5c0.188-1.484,0.248-2.665,0.248-3.72c0-3.721-0.992-6.139-3.72-6.139
			c-3.476,0-5.456,4.647-5.456,10.851C638.575,36.206,642.046,40.979,648.184,40.979z"/>
		<path d="M674.968,15.189h6.881v3.534h-6.881v20.521c0,2.666,1.054,3.844,3.162,3.844c1.488,0,2.914-0.558,4.34-1.55l0.992,1.55
			c-2.479,4.153-6.138,6.387-11.345,6.387c-5.952,0-10.105-2.977-10.105-10.416V18.724h-3.348V16.43
			c5.27-1.86,10.104-5.519,13.577-9.854h2.728L674.968,15.189L674.968,15.189z"/>
		<path d="M696.482,32.61c0-10.354,7.379-18.041,17.979-18.041c10.602,0,17.98,6.513,17.98,16.863
			c0,10.354-7.379,18.041-17.98,18.041C703.861,49.474,696.482,42.964,696.482,32.61z M718.863,34.408
			c0-10.604-1.182-17.111-4.711-17.111c-3.287,0-4.096,4.588-4.096,12.338c0,10.604,1.182,17.111,4.715,17.111
			C718.058,46.746,718.863,42.158,718.863,34.408z"/>
		<path d="M751.166,42.84c0,2.729,1.365,2.914,4.836,3.41v2.604h-20.893V46.25c2.295-0.188,3.285-0.372,3.285-2.231V18.724h-4.4
			v-2.79l4.4-1.055v-0.496c0-9.856,7.006-14.072,15.375-14.072c7.131,0,10.291,2.418,10.291,6.389c0,1.798-0.99,3.348-2.419,4.026
			h-6.385c0.188-0.868,0.312-1.922,0.312-3.038c0-2.17-0.188-4.34-2.045-4.34c-1.736,0-2.357,1.363-2.357,3.721v8.121h7.068v3.534
			h-7.068V42.84L751.166,42.84z"/>
		<path d="M794.688,44.018c0,1.859,0.991,2.046,3.286,2.231v2.604H778.63V46.25c2.295-0.188,3.287-0.372,3.287-2.231V6.882
			l-3.287-1.674V3.101l13.888-2.79h2.17V44.018z"/>
		<path d="M816.388,44.018c0,1.859,0.992,2.046,3.285,2.231v2.604h-19.342V46.25c2.293-0.188,3.285-0.372,3.285-2.231v-21.7
			l-3.285-2.105V18.29l13.824-3.723h2.229v29.449L816.388,44.018L816.388,44.018z M803.617,6.138c0-3.285,2.418-6.139,6.57-6.139
			c4.094,0,6.571,2.854,6.571,6.139s-2.479,6.138-6.571,6.138C806.035,12.275,803.617,9.424,803.617,6.138z"/>
		<path d="M838.15,42.84c0,2.729,1.36,2.914,4.836,3.41v2.604h-20.896V46.25c2.293-0.188,3.285-0.372,3.285-2.231V18.724h-4.402
			v-2.79l4.402-1.055v-0.496c0-9.856,7.006-14.072,15.375-14.072c7.129,0,10.293,2.418,10.293,6.389
			c0,1.798-0.992,3.348-2.418,4.026h-6.387c0.186-0.868,0.311-1.922,0.311-3.038c0-2.17-0.186-4.34-2.047-4.34
			c-1.736,0-2.354,1.363-2.354,3.721v8.121h7.067v3.534h-7.067L838.15,42.84L838.15,42.84z"/>
		<path d="M877.395,28.457v1.55h-19.65c0,6.819,3.844,11.159,9.299,11.159c3.906,0,6.881-1.302,9.238-4.34l1.301,0.806
			c-1.734,7.192-6.633,11.843-14.754,11.843c-9.238,0-16.615-5.891-16.615-16.739c0-11.222,7.998-18.163,17.172-18.163
			C872.683,14.569,877.395,20.335,877.395,28.457z M857.804,26.969h8.74c0-6.138-0.992-9.672-3.967-9.672
			C859.479,17.297,858.05,21.141,857.804,26.969z"/>
		<path d="M891.531,32.61c0-10.354,7.377-18.041,17.979-18.041c10.605,0,17.98,6.513,17.98,16.863
			c0,10.354-7.379,18.041-17.98,18.041C898.91,49.473,891.531,42.964,891.531,32.61z M913.912,34.408
			c0-10.604-1.178-17.111-4.711-17.111c-3.287,0-4.092,4.588-4.092,12.338c0,10.604,1.178,17.111,4.711,17.111
			C913.105,46.746,913.912,42.158,913.912,34.408z"/>
		<path d="M946.214,42.84c0,2.729,1.363,2.914,4.834,3.41v2.604h-20.893V46.25c2.295-0.188,3.284-0.372,3.284-2.231V18.724h-4.399
			v-2.79l4.399-1.055v-0.496c0-9.856,7.009-14.072,15.375-14.072c7.132,0,10.291,2.418,10.291,6.389
			c0,1.798-0.989,3.348-2.422,4.026H950.3c0.189-0.868,0.312-1.922,0.312-3.038c0-2.17-0.189-4.34-2.045-4.34
			c-1.736,0-2.355,1.363-2.355,3.721v8.121h7.066v3.534h-7.066V42.84H946.214z"/>
		<path d="M989.736,44.018c0,1.859,0.992,2.046,3.287,2.231v2.604h-19.345V46.25c2.295-0.188,3.285-0.372,3.285-2.231V6.882
			l-3.285-1.674V3.101l13.888-2.79h2.17V44.018z"/>
		<path d="M1026.439,28.457v1.55h-19.652c0,6.819,3.844,11.159,9.299,11.159c3.906,0,6.881-1.302,9.238-4.34l1.301,0.806
			c-1.736,7.192-6.633,11.843-14.754,11.843c-9.238,0-16.615-5.891-16.615-16.739c0-11.222,7.996-18.163,17.172-18.163
			C1021.729,14.569,1026.439,20.335,1026.439,28.457z M1006.847,26.969h8.742c0-6.138-0.992-9.672-3.967-9.672
			C1008.521,17.297,1007.095,21.141,1006.847,26.969z"/>
		<path d="M1044.977,44.018c0,1.859,0.991,2.046,3.286,2.231v2.604h-19.344V46.25c2.295-0.188,3.285-0.372,3.285-2.231v-21.7
			l-3.285-2.105V18.29l13.826-3.723h2.229v29.449L1044.977,44.018L1044.977,44.018z M1032.205,6.138
			c0-3.285,2.418-6.139,6.572-6.139c4.092,0,6.572,2.854,6.572,6.139s-2.48,6.138-6.572,6.138
			C1034.623,12.275,1032.205,9.424,1032.205,6.138z"/>
		<path d="M1051.425,46.312l-0.373-8.369h3.162c1.115,4.959,4.465,8.741,9.238,8.741c2.789,0,5.02-1.303,5.02-3.903
			c0-3.037-2.418-3.97-6.387-5.146c-7.19-2.106-11.096-5.207-11.096-11.717c0-7.378,5.575-11.349,13.325-11.349
			c4.275,0,8.244,1.116,10.91,2.854v7.438h-2.914c-0.619-3.903-3.405-7.502-7.688-7.502c-2.48,0-4.217,1.305-4.217,3.534
			c0,2.479,1.799,3.408,5.58,4.648c7.75,2.542,11.901,5.084,11.901,12.213c0,7.502-5.643,11.719-14.319,11.719
			C1058.183,49.474,1054.214,48.233,1051.425,46.312z"/>
		<path d="M1116.648,41.476c0,2.107,0.186,3.162,1.981,3.162h1.426v2.729l-13.948,2.105h-2.418l0.188-6.076
			c-2.109,2.854-5.395,6.076-11.16,6.076c-5.58,0-9.547-3.349-9.547-10.603V24.179c0-1.735-0.434-3.161-2.17-3.721l-0.93-0.312
			v-2.479l13.887-3.103h2.354l-0.37,8.187v15.003c0,2.854,1.114,4.465,3.903,4.465c1.552,0,2.48-0.187,4.031-0.683V24.179
			c0-1.735-0.438-3.161-2.17-3.721l-0.933-0.312v-2.479l13.89-3.103h2.354l-0.37,8.187v18.724L1116.648,41.476L1116.648,41.476z"/>
		<path d="M1138.347,42.84c0,2.729,1.365,2.914,4.837,3.41v2.604h-20.894V46.25c2.295-0.188,3.285-0.372,3.285-2.231v-21.7
			l-3.285-2.105V18.29l13.826-3.723h2.479l-0.248,9.675c2.356-7.439,4.649-9.675,8.616-9.675c1.552,0,2.605,0.438,3.287,1.057v9.482
			h-1.61c-3.97,0-7.627,0.124-10.293,1.735L1138.347,42.84L1138.347,42.84z"/>
		<path d="M1182.986,28.457v1.55h-19.652c0,6.819,3.844,11.159,9.299,11.159c3.906,0,6.883-1.302,9.238-4.34l1.303,0.806
			c-1.736,7.192-6.635,11.843-14.756,11.843c-9.238,0-16.615-5.891-16.615-16.739c0-11.222,7.998-18.163,17.174-18.163
			C1178.275,14.569,1182.986,20.335,1182.986,28.457z M1163.396,26.969h8.741c0-6.138-0.991-9.672-3.969-9.672
			C1165.07,17.297,1163.645,21.141,1163.396,26.969z"/>
	</g>
</g>
</svg>
