<?xml version="1.0" encoding="utf-8"?>
<!-- Generator: Adobe Illustrator 16.0.0, SVG Export Plug-In . SVG Version: 6.00 Build 0)  -->
<!DOCTYPE svg PUBLIC "-//W3C//DTD SVG 1.1//EN" "http://www.w3.org/Graphics/SVG/1.1/DTD/svg11.dtd">
<svg version="1.1" id="Layer_1" xmlns="http://www.w3.org/2000/svg" xmlns:xlink="http://www.w3.org/1999/xlink" x="0px" y="0px"
	 width="1440px" height="62.68px" viewBox="0 0 1440 62.68" enable-background="new 0 0 1440 62.68" xml:space="preserve">
<g id="_x32_0">
	<g>
		<path d="M203.977,21.699c0.31-0.809,0.496-1.488,0.496-1.984c0-1.238-1.054-1.674-3.41-1.922v-2.604h10.849v2.604
			c-2.108,0.684-2.604,1.116-3.162,2.479L196.352,49.04h-4.216l-7.316-18.726l-8.804,18.726h-4.215l-13.329-28.769
			c-0.62-1.361-1.054-1.798-3.162-2.479v-2.604h19.715v2.604c-1.86,0.248-2.604,0.808-2.604,1.798c0,0.56,0.186,1.24,0.558,2.108
			l5.58,13.267l4.34-8.988l-2.232-5.703c-0.496-1.361-1.24-1.981-2.79-2.479V15.19h19.591v2.604c-2.542,0.312-3.72,0.56-3.72,2.046
			c0,0.496,0.124,1.116,0.372,1.86l4.774,12.521L203.977,21.699z"/>
		<path d="M229.646,44.018c0,1.859,0.992,2.046,3.286,2.231v2.604h-19.343V46.25c2.294-0.188,3.286-0.372,3.286-2.231v-21.7
			l-3.286-2.105V18.29l13.825-3.723h2.232V44.018z M216.875,6.138c0-3.285,2.417-6.138,6.571-6.138c4.092,0,6.572,2.854,6.572,6.139
			s-2.48,6.138-6.572,6.138C219.292,12.275,216.875,9.424,216.875,6.138z"/>
		<path d="M236.094,46.312l-0.372-8.369h3.162c1.116,4.959,4.464,8.741,9.238,8.741c2.79,0,5.021-1.303,5.021-3.903
			c0-3.037-2.417-3.97-6.385-5.146c-7.192-2.106-11.098-5.207-11.098-11.717c0-7.378,5.58-11.349,13.329-11.349
			c4.278,0,8.246,1.116,10.912,2.854v7.438h-2.914c-0.62-3.903-3.41-7.502-7.688-7.502c-2.48,0-4.216,1.305-4.216,3.534
			c0,2.479,1.798,3.408,5.58,4.648c7.75,2.542,11.903,5.084,11.903,12.213c0,7.502-5.642,11.719-14.321,11.719
			C242.852,49.474,238.884,48.233,236.094,46.312z"/>
		<path d="M285.011,5.208V3.101l13.887-2.79h2.17v41.165c0,2.107,0.186,3.162,1.984,3.162h1.426v2.729l-13.949,2.105h-2.418
			l0.186-5.891c-2.542,3.968-5.952,5.891-10.105,5.891c-7.191,0-12.523-5.519-12.523-15.935c0-12.274,7.502-18.66,16.739-18.66
			c2.418,0,4.526,0.559,5.89,1.675V6.882L285.011,5.208z M278.563,29.82c0,7.628,2.604,12.713,7.005,12.713
			c0.868,0,1.798-0.124,2.728-0.438V24.49c0-3.782-0.744-5.769-3.72-5.769C280.485,18.724,278.563,23.125,278.563,29.82z"/>
		<path d="M306.587,32.61c0-10.354,7.378-18.041,17.979-18.041c10.602,0,17.979,6.513,17.979,16.863
			c0,10.354-7.377,18.041-17.979,18.041C313.965,49.474,306.587,42.964,306.587,32.61z M328.968,34.408
			c0-10.604-1.178-17.111-4.712-17.111c-3.286,0-4.091,4.588-4.091,12.338c0,10.604,1.178,17.111,4.711,17.111
			C328.162,46.746,328.968,42.158,328.968,34.408z"/>
		<path d="M389.105,25.667c0-2.294-0.743-3.72-3.349-3.72c-1.61,0-2.852,0.434-4.216,0.93v21.142c0,1.859,0.558,2.046,2.852,2.231
			v2.604H365.92V46.25c2.294-0.188,2.852-0.372,2.852-2.231V25.667c0-2.294-0.742-3.72-3.348-3.72c-1.611,0-2.852,0.369-4.216,0.865
			v21.202c0,1.859,0.558,2.046,2.852,2.231v2.604h-18.909v-2.6c2.294-0.188,3.286-0.372,3.286-2.231v-21.7l-3.286-2.105V18.29
			l13.825-3.723h2.48l-0.248,6.389c2.17-3.41,5.642-6.389,11.284-6.389c4.835,0,7.998,1.86,8.803,6.513
			c2.108-3.351,5.952-6.513,11.407-6.513c5.766,0,9.176,3.286,9.176,9.732v19.716c0,1.859,0.992,2.046,3.286,2.231v2.604h-18.909
			V46.25c2.293-0.188,2.854-0.372,2.854-2.231L389.105,25.667L389.105,25.667z"/>
		<path d="M418.681,32.61c0-10.354,7.378-18.041,17.979-18.041c10.601,0,17.979,6.513,17.979,16.863
			c0,10.354-7.377,18.041-17.979,18.041C426.059,49.474,418.681,42.964,418.681,32.61z M441.062,34.408
			c0-10.604-1.18-17.111-4.714-17.111c-3.284,0-4.091,4.588-4.091,12.338c0,10.604,1.18,17.111,4.711,17.111
			C440.256,46.746,441.062,42.158,441.062,34.408z"/>
		<path d="M473.364,42.84c0,2.729,1.364,2.914,4.836,3.41v2.604h-20.895V46.25c2.294-0.188,3.286-0.372,3.286-2.231V18.724h-4.4
			v-2.79l4.4-1.055v-0.496c0-9.856,7.005-14.072,15.375-14.072c7.129,0,10.292,2.418,10.292,6.389c0,1.798-0.992,3.348-2.418,4.026
			h-6.386c0.186-0.868,0.31-1.922,0.31-3.038c0-2.17-0.186-4.34-2.046-4.34c-1.732,0-2.354,1.363-2.354,3.721v8.121h7.064v3.534
			h-7.064L473.364,42.84L473.364,42.84z"/>
		<path d="M516.949,40.979c3.534,0,6.138-1.112,8.06-3.845l1.488,0.932c-2.046,7.997-7.315,11.407-14.507,11.407
			c-8.803,0-15.688-6.139-15.688-16.431c0-10.604,6.944-18.478,17.483-18.478c6.323,0,11.777,2.355,11.777,8.122
			c0,2.541-1.486,4.095-2.912,4.711h-6.39c0.188-1.484,0.248-2.665,0.248-3.72c0-3.721-0.989-6.139-3.72-6.139
			c-3.472,0-5.456,4.647-5.456,10.851C507.34,36.206,510.812,40.979,516.949,40.979z"/>
		<path d="M544.539,42.84c0,2.729,1.364,2.914,4.836,3.41v2.604h-20.893V46.25c2.294-0.188,3.282-0.372,3.282-2.231v-21.7
			l-3.282-2.105V18.29l13.821-3.723h2.48l-0.248,9.675c2.354-7.439,4.649-9.675,8.618-9.675c1.55,0,2.604,0.438,3.286,1.057v9.482
			h-1.612c-3.968,0-7.625,0.124-10.292,1.735L544.539,42.84L544.539,42.84z"/>
		<path d="M557.994,32.61c0-10.354,7.378-18.041,17.979-18.041c10.604,0,17.979,6.513,17.979,16.863
			c0,10.354-7.377,18.041-17.979,18.041C565.372,49.474,557.994,42.964,557.994,32.61z M580.375,34.408
			c0-10.604-1.178-17.111-4.712-17.111c-3.286,0-4.091,4.588-4.091,12.338c0,10.604,1.178,17.111,4.711,17.111
			C579.568,46.746,580.375,42.158,580.375,34.408z"/>
		<path d="M642.001,21.699c0.31-0.809,0.496-1.488,0.496-1.984c0-1.238-1.054-1.674-3.41-1.922v-2.604h10.849v2.604
			c-2.104,0.684-2.604,1.116-3.158,2.479L634.378,49.04h-4.216l-7.315-18.726l-8.804,18.726h-4.215l-13.33-28.769
			c-0.62-1.361-1.055-1.798-3.162-2.479v-2.604h19.715v2.604c-1.856,0.248-2.604,0.808-2.604,1.798c0,0.56,0.186,1.24,0.558,2.108
			l5.58,13.267l4.34-8.988l-2.229-5.703c-0.496-1.361-1.24-1.981-2.79-2.479V15.19h19.591v2.604c-2.542,0.312-3.72,0.56-3.72,2.046
			c0,0.496,0.124,1.116,0.371,1.86l4.771,12.521L642.001,21.699z"/>
		<path d="M668.354,5.208V3.101l13.89-2.79h2.17v41.165c0,2.107,0.186,3.162,1.981,3.162h1.429v2.729l-13.949,2.105h-2.418
			l0.186-5.891c-2.542,3.968-5.948,5.891-10.104,5.891c-7.191,0-12.523-5.519-12.523-15.935c0-12.274,7.502-18.66,16.739-18.66
			c2.418,0,4.526,0.559,5.89,1.675V6.882L668.354,5.208z M661.905,29.82c0,7.628,2.604,12.713,7.005,12.713
			c0.868,0,1.798-0.124,2.728-0.438V24.49c0-3.782-0.743-5.769-3.72-5.769C663.827,18.724,661.905,23.125,661.905,29.82z"/>
		<path d="M690.859,46.312l-0.372-8.369h3.161c1.113,4.959,4.465,8.741,9.235,8.741c2.79,0,5.021-1.303,5.021-3.903
			c0-3.037-2.417-3.97-6.388-5.146c-7.189-2.106-11.099-5.207-11.099-11.717c0-7.378,5.58-11.349,13.329-11.349
			c4.278,0,8.246,1.116,10.912,2.854v7.438h-2.914c-0.62-3.903-3.41-7.502-7.688-7.502c-2.479,0-4.217,1.305-4.217,3.534
			c0,2.479,1.798,3.408,5.58,4.648c7.75,2.542,11.903,5.084,11.903,12.213c0,7.502-5.645,11.719-14.321,11.719
			C697.616,49.474,693.648,48.233,690.859,46.312z"/>
		<path d="M731.902,32.61c0-10.354,7.379-18.041,17.979-18.041c10.605,0,17.98,6.513,17.98,16.863
			c0,10.354-7.377,18.041-17.98,18.041C739.281,49.474,731.902,42.964,731.902,32.61z M754.283,34.408
			c0-10.604-1.178-17.111-4.711-17.111c-3.287,0-4.092,4.588-4.092,12.338c0,10.604,1.178,17.111,4.711,17.111
			C753.477,46.746,754.283,42.158,754.283,34.408z"/>
		<path d="M786.585,42.84c0,2.729,1.363,2.914,4.836,3.41v2.604h-20.893V46.25c2.293-0.188,3.28-0.372,3.28-2.231V18.724h-4.397
			v-2.79l4.397-1.055v-0.496c0-9.856,7.011-14.072,15.375-14.072c7.136,0,10.291,2.418,10.291,6.389
			c0,1.798-0.985,3.348-2.418,4.026h-6.385c0.189-0.868,0.312-1.922,0.312-3.038c0-2.17-0.188-4.34-2.049-4.34
			c-1.734,0-2.354,1.363-2.354,3.721v8.121h7.067v3.534h-7.067V42.84H786.585z"/>
		<path d="M815.602,22.319l-3.283-2.105V18.29l13.821-3.723h2.48l-0.248,6.141c1.611-2.729,5.021-6.141,10.416-6.141
			c7.188,0,12.584,4.896,12.584,15.312c0,13.02-7.873,19.592-17.979,19.592c-2.229,0-4.093-0.372-5.021-1.055v8.432
			c0,2.17,1.115,2.231,4.588,2.542v2.604h-20.646v-2.604c2.295-0.187,3.282-0.372,3.282-2.229L815.602,22.319L815.602,22.319z
			 M838.355,33.54c0-8.435-2.978-11.531-7.132-11.531c-0.991,0-1.858,0.124-2.852,0.56v17.548c0,3.654,0.744,6.196,3.781,6.196
			C836.308,46.312,838.355,40.732,838.355,33.54z"/>
		<path d="M885.66,28.457v1.55h-19.652c0,6.819,3.844,11.159,9.299,11.159c3.906,0,6.881-1.302,9.238-4.34l1.301,0.806
			c-1.729,7.192-6.633,11.843-14.754,11.843c-9.238,0-16.615-5.891-16.615-16.739c0-11.222,7.996-18.163,17.179-18.163
			C880.949,14.569,885.66,20.335,885.66,28.457z M866.068,26.969h8.742c0-6.138-0.992-9.672-3.968-9.672
			C867.742,17.297,866.316,21.141,866.068,26.969z"/>
		<path d="M888.636,32.61c0-10.354,7.377-18.041,17.979-18.041c10.602,0,17.979,6.513,17.979,16.863
			c0,10.354-7.377,18.041-17.979,18.041C896.013,49.473,888.636,42.964,888.636,32.61z M911.018,34.408
			c0-10.604-1.181-17.111-4.714-17.111c-3.284,0-4.092,4.588-4.092,12.338c0,10.604,1.178,17.111,4.713,17.111
			C910.21,46.746,911.018,42.158,911.018,34.408z"/>
		<path d="M930.05,22.319l-3.285-2.105V18.29l13.824-3.723h2.48l-0.248,6.141c1.604-2.729,5.02-6.141,10.416-6.141
			c7.188,0,12.584,4.896,12.584,15.312c0,13.02-7.873,19.592-17.98,19.592c-2.229,0-4.092-0.372-5.02-1.055v8.432
			c0,2.17,1.108,2.231,4.588,2.542v2.604h-20.646v-2.604c2.293-0.187,3.285-0.372,3.285-2.229V22.319H930.05z M952.804,33.54
			c0-8.435-2.977-11.531-7.131-11.531c-0.992,0-1.858,0.124-2.852,0.56v17.548c0,3.654,0.744,6.196,3.774,6.196
			C950.757,46.312,952.804,40.732,952.804,33.54z"/>
		<path d="M984.238,44.018c0,1.859,0.992,2.046,3.285,2.231v2.604h-19.343V46.25c2.293-0.188,3.285-0.372,3.285-2.231V6.882
			l-3.285-1.674V3.101l13.888-2.79h2.17V44.018z"/>
		<path d="M1020.939,28.457v1.55h-19.652c0,6.819,3.844,11.159,9.299,11.159c3.906,0,6.883-1.302,9.238-4.34l1.303,0.806
			c-1.736,7.192-6.635,11.843-14.756,11.843c-9.238,0-16.615-5.891-16.615-16.739c0-11.222,7.998-18.163,17.174-18.163
			C1016.229,14.569,1020.939,20.335,1020.939,28.457z M1001.349,26.969h8.742c0-6.138-0.992-9.672-3.969-9.672
			C1003.023,17.297,1001.597,21.141,1001.349,26.969z"/>
		<path d="M1035.076,32.61c0-10.354,7.377-18.041,17.979-18.041c10.605,0,17.98,6.513,17.98,16.863
			c0,10.354-7.379,18.041-17.98,18.041C1042.455,49.473,1035.076,42.964,1035.076,32.61z M1057.457,34.408
			c0-10.604-1.178-17.111-4.711-17.111c-3.287,0-4.092,4.588-4.092,12.338c0,10.604,1.178,17.111,4.711,17.111
			C1056.65,46.746,1057.457,42.158,1057.457,34.408z"/>
		<path d="M1089.759,42.84c0,2.729,1.363,2.914,4.834,3.41v2.604H1073.7V46.25c2.295-0.188,3.287-0.372,3.287-2.231V18.724h-4.402
			v-2.79l4.402-1.055v-0.496c0-9.856,7.006-14.072,15.375-14.072c7.129,0,10.291,2.418,10.291,6.389
			c0,1.798-0.992,3.348-2.418,4.026h-6.392c0.189-0.868,0.312-1.922,0.312-3.038c0-2.17-0.189-4.34-2.045-4.34
			c-1.736,0-2.355,1.363-2.355,3.721v8.121h7.066v3.534h-7.066V42.84H1089.759z"/>
		<path d="M1143.882,28.457v1.55h-19.651c0,6.819,3.844,11.159,9.299,11.159c3.905,0,6.883-1.302,9.237-4.34l1.304,0.806
			c-1.736,7.192-6.636,11.843-14.756,11.843c-9.238,0-16.615-5.891-16.615-16.739c0-11.222,7.998-18.163,17.174-18.163
			C1139.171,14.569,1143.882,20.335,1143.882,28.457z M1124.292,26.969h8.742c0-6.138-0.992-9.672-3.972-9.672
			C1125.966,17.297,1124.541,21.141,1124.292,26.969z"/>
		<path d="M1176.742,42.034c0,1.236,0.125,2.542,1.551,2.542c0.805,0,1.611-0.188,1.922-0.312l0.439,1.859
			c-2.172,1.98-4.898,3.349-8.617,3.349c-3.783,0-6.51-1.858-7.627-5.146c-1.734,2.665-4.588,4.896-9.174,4.896
			c-5.332,0-9.115-2.914-9.115-8.433c0-5.456,3.721-7.688,8.061-9.176l10.043-3.475v-6.816c0-2.479-0.618-4.154-2.666-4.154
			c-2.17,0-2.975,1.922-2.975,4.771c0,1.487,0.248,3.038,0.619,4.591l-7.689,0.988c-1.856-0.619-3.225-2.17-3.225-4.522
			c0-5.893,6.076-8.435,13.826-8.435c9.051,0,14.631,2.666,14.631,11.035v16.436h-0.004V42.034L1176.742,42.034z M1164.218,42.468
			V30.999l-2.479,0.931c-1.982,0.743-3.349,1.734-3.349,5.396c0,3.1,1.056,5.456,4.031,5.456
			C1163.104,42.778,1163.599,42.656,1164.218,42.468z"/>
		<path d="M1197.947,42.84c0,2.729,1.363,2.914,4.836,3.41v2.604h-20.893V46.25c2.293-0.188,3.284-0.372,3.284-2.231v-21.7
			l-3.284-2.105V18.29l13.823-3.723h2.48l-0.248,9.675c2.354-7.439,4.645-9.675,8.61-9.675c1.558,0,2.605,0.438,3.285,1.057v9.482
			h-1.604c-3.974,0-7.625,0.124-10.291,1.735L1197.947,42.84L1197.947,42.84z"/>
		<path d="M1226.777,15.189h6.881v3.534h-6.881v20.521c0,2.666,1.053,3.844,3.162,3.844c1.485,0,2.911-0.558,4.338-1.55l0.991,1.55
			c-2.479,4.153-6.137,6.387-11.344,6.387c-5.953,0-10.104-2.977-10.104-10.416V18.724h-3.351V16.43
			c5.271-1.86,10.105-5.519,13.578-9.854h2.729V15.189z"/>
		<path d="M1239.673,6.882l-3.285-1.674V3.101l13.888-2.79h2.17v20.521c2.231-2.914,5.766-6.265,11.594-6.265
			c6.014,0,9.609,3.351,9.609,10.17v19.278c0,1.859,0.991,2.046,3.284,2.231v2.604h-19.155V46.25c2.293-0.188,3.1-0.372,3.1-2.231
			V25.853c0-2.294-0.744-3.845-3.844-3.845c-1.736,0-3.162,0.312-4.588,0.808v21.202c0,1.859,0.805,2.046,3.1,2.231v2.604h-19.156
			V46.25c2.293-0.188,3.285-0.372,3.285-2.231L1239.673,6.882L1239.673,6.882z"/>
	</g>
</g>
</svg>
