<?xml version="1.0" encoding="utf-8"?>
<!-- Generator: Adobe Illustrator 16.0.0, SVG Export Plug-In . SVG Version: 6.00 Build 0)  -->
<!DOCTYPE svg PUBLIC "-//W3C//DTD SVG 1.1//EN" "http://www.w3.org/Graphics/SVG/1.1/DTD/svg11.dtd">
<svg version="1.1" id="Layer_1" xmlns="http://www.w3.org/2000/svg" xmlns:xlink="http://www.w3.org/1999/xlink" x="0px" y="0px"
	 width="1440px" height="62.68px" viewBox="0 0 1440 62.68" enable-background="new 0 0 1440 62.68" xml:space="preserve">
<g>
	<path d="M229.703,5.208V3.101l13.887-2.79h2.17v41.164c0,2.109,0.186,3.162,1.984,3.162h1.426v2.729l-13.949,2.105h-2.418
		l0.188-5.889c-2.542,3.967-5.952,5.889-10.105,5.889c-7.191,0-12.523-5.518-12.523-15.934c0-12.274,7.502-18.659,16.739-18.659
		c2.418,0,4.526,0.558,5.89,1.674V6.882L229.703,5.208z M223.255,29.823c0,7.625,2.604,12.708,7.005,12.708
		c0.868,0,1.798-0.123,2.729-0.436V24.49c0-3.782-0.744-5.768-3.72-5.768C225.177,18.724,223.255,23.125,223.255,29.823z"/>
	<path d="M282.464,28.457v1.549h-19.653c0,6.82,3.844,11.16,9.299,11.16c3.906,0,6.881-1.303,9.237-4.34l1.302,0.805
		c-1.736,7.193-6.634,11.842-14.755,11.842c-9.237,0-16.615-5.889-16.615-16.738c0-11.222,7.998-18.165,17.173-18.165
		C277.752,14.57,282.464,20.335,282.464,28.457z M262.873,26.969h8.741c0-6.138-0.992-9.672-3.968-9.672
		C264.547,17.297,263.121,21.141,262.873,26.969z"/>
	<path d="M287.796,22.32l-3.286-2.106V18.29l13.825-3.722h2.479l-0.248,6.14c1.612-2.729,5.022-6.14,10.417-6.14
		c7.19,0,12.585,4.897,12.585,15.314c0,13.017-7.874,19.589-17.979,19.589c-2.232,0-4.092-0.371-5.022-1.053v8.43
		c0,2.17,1.116,2.232,4.588,2.543v2.604H284.51v-2.604c2.293-0.186,3.286-0.373,3.286-2.23V22.32L287.796,22.32z M310.549,33.539
		c0-8.433-2.976-11.53-7.129-11.53c-0.992,0-1.86,0.124-2.852,0.559v17.546c0,3.656,0.744,6.197,3.782,6.197
		C308.503,46.311,310.549,40.733,310.549,33.539z"/>
	<path d="M341.735,15.19h6.881v3.534h-6.881v20.521c0,2.666,1.054,3.844,3.161,3.844c1.487,0,2.913-0.559,4.341-1.551l0.991,1.551
		c-2.479,4.152-6.139,6.385-11.346,6.385c-5.952,0-10.104-2.975-10.104-10.416V18.724h-3.35V16.43
		c5.271-1.86,10.105-5.518,13.577-9.855h2.729L341.735,15.19L341.735,15.19z"/>
	<path d="M354.631,6.882l-3.286-1.674V3.101l13.889-2.79h2.17v20.521c2.23-2.914,5.766-6.264,11.594-6.264
		c6.013,0,9.609,3.35,9.609,10.17v19.278c0,1.859,0.99,2.045,3.284,2.232v2.604h-19.155V46.25c2.294-0.188,3.1-0.373,3.1-2.232
		V25.853c0-2.294-0.744-3.844-3.844-3.844c-1.736,0-3.162,0.311-4.588,0.807v21.202c0,1.859,0.806,2.045,3.1,2.232v2.604h-19.157
		V46.25c2.294-0.188,3.286-0.373,3.286-2.232L354.631,6.882L354.631,6.882z"/>
	<path d="M406.958,32.61c0-10.353,7.378-18.04,17.979-18.04c10.601,0,17.979,6.512,17.979,16.862
		c0,10.354-7.377,18.041-17.979,18.041C414.335,49.473,406.958,42.963,406.958,32.61z M429.339,34.408
		c0-10.604-1.178-17.111-4.712-17.111c-3.286,0-4.091,4.588-4.091,12.338c0,10.601,1.178,17.111,4.711,17.111
		C428.533,46.746,429.339,42.158,429.339,34.408z"/>
	<path d="M461.641,42.84c0,2.727,1.364,2.914,4.836,3.41v2.604h-20.893V46.25c2.294-0.188,3.286-0.373,3.286-2.232V18.724h-4.402
		v-2.79l4.402-1.054v-0.496c0-9.857,7.005-14.073,15.375-14.073c7.129,0,10.292,2.418,10.292,6.388c0,1.798-0.992,3.348-2.418,4.027
		h-6.386c0.186-0.868,0.31-1.922,0.31-3.038c0-2.17-0.186-4.34-2.046-4.34c-1.736,0-2.356,1.364-2.356,3.721v8.121h7.068v3.534
		h-7.068V42.84z"/>
	<path d="M528.229,44.018c0,1.859,0.991,2.045,3.285,2.232v2.604h-19.156V46.25c2.294-0.188,3.101-0.373,3.101-2.232V18.724h-8.433
		v25.294c0,1.859,0.807,2.045,3.101,2.232v2.604h-19.157V46.25c2.294-0.188,3.286-0.373,3.286-2.232V18.724h-4.402v-2.79
		l4.402-1.054v-0.496c0-9.857,7.812-14.073,17.049-14.073c7.938,0,11.903,2.418,11.903,6.388c0,1.798-0.992,3.348-2.418,4.027
		h-7.253c0.186-0.868,0.31-1.922,0.31-3.038c0-2.17-0.62-4.464-3.1-4.464c-2.542,0-3.721,2.17-3.721,6.696v5.27h16.058l2.294-0.62
		h2.854v29.448H528.229z"/>
	<path d="M564.932,28.457v1.549H545.28c0,6.82,3.844,11.16,9.299,11.16c3.906,0,6.881-1.303,9.236-4.34l1.303,0.805
		c-1.736,7.193-6.634,11.842-14.755,11.842c-9.237,0-16.615-5.889-16.615-16.738c0-11.222,7.998-18.165,17.173-18.165
		C560.22,14.57,564.932,20.335,564.932,28.457z M545.341,26.969h8.741c0-6.138-0.992-9.672-3.968-9.672
		C547.015,17.297,545.588,21.141,545.341,26.969z"/>
	<path d="M582.912,44.018c0,1.859,0.992,2.045,3.286,2.232v2.604h-19.343V46.25c2.293-0.188,3.284-0.373,3.284-2.232V6.882
		l-3.284-1.674V3.101l13.887-2.79h2.17V44.018z"/>
	<path d="M607.773,5.208V3.101l13.887-2.79h2.17v41.164c0,2.109,0.186,3.162,1.984,3.162h1.426v2.729l-13.949,2.105h-2.418
		l0.186-5.889c-2.541,3.967-5.95,5.889-10.104,5.889c-7.191,0-12.523-5.518-12.523-15.934c0-12.274,7.504-18.659,16.739-18.659
		c2.418,0,4.526,0.558,5.892,1.674V6.882L607.773,5.208z M601.326,29.823c0,7.625,2.604,12.708,7.005,12.708
		c0.868,0,1.798-0.123,2.728-0.436V24.49c0-3.782-0.744-5.768-3.72-5.768C603.248,18.724,601.326,23.125,601.326,29.823z"/>
	<path d="M642.679,32.61c0-10.353,7.378-18.04,17.979-18.04c10.601,0,17.978,6.512,17.978,16.862
		c0,10.354-7.376,18.041-17.978,18.041C650.056,49.473,642.679,42.963,642.679,32.61z M665.061,34.408
		c0-10.604-1.179-17.111-4.713-17.111c-3.285,0-4.091,4.588-4.091,12.338c0,10.601,1.179,17.111,4.711,17.111
		C664.254,46.746,665.061,42.158,665.061,34.408z"/>
	<path d="M697.363,42.84c0,2.727,1.362,2.914,4.836,3.41v2.604h-20.896V46.25c2.295-0.188,3.287-0.373,3.287-2.232V18.724h-4.401
		v-2.79l4.401-1.054v-0.496c0-9.857,7.004-14.073,15.375-14.073c7.129,0,10.291,2.418,10.291,6.388c0,1.798-0.992,3.348-2.418,4.027
		h-6.387c0.188-0.868,0.311-1.922,0.311-3.038c0-2.17-0.186-4.34-2.045-4.34c-1.735,0-2.354,1.364-2.354,3.721v8.121h7.065v3.534
		h-7.065V42.84L697.363,42.84z"/>
	<path d="M725.263,5.208V3.101l13.888-2.79h2.17v20.396c1.61-2.729,5.021-6.14,10.416-6.14c7.19,0,12.584,4.897,12.584,15.314
		c0,13.017-8.369,19.589-19.156,19.589c-5.766,0-12.398-0.992-16.615-4.215V6.882L725.263,5.208z M751.3,33.539
		c0-8.433-2.975-11.53-7.129-11.53c-0.992,0-1.858,0.124-2.852,0.559v17.546c0,3.656,0.741,6.197,3.778,6.197
		C749.255,46.311,751.3,40.733,751.3,33.539z"/>
	<path d="M796.996,42.033c0,1.238,0.123,2.543,1.549,2.543c0.807,0,1.613-0.188,1.922-0.312l0.437,1.859
		c-2.173,1.982-4.896,3.348-8.617,3.348c-3.781,0-6.513-1.857-7.625-5.145c-1.736,2.664-4.588,4.896-9.179,4.896
		c-5.329,0-9.11-2.914-9.11-8.432c0-5.455,3.719-7.688,8.059-9.176l10.043-3.473v-6.817c0-2.479-0.618-4.154-2.663-4.154
		c-2.171,0-2.978,1.922-2.978,4.772c0,1.487,0.248,3.038,0.619,4.59l-7.688,0.989c-1.858-0.617-3.225-2.17-3.225-4.523
		c0-5.892,6.076-8.434,13.826-8.434c9.051,0,14.631,2.666,14.631,11.035V42.033L796.996,42.033z M784.47,42.467V30.998l-2.479,0.93
		c-1.984,0.744-3.349,1.736-3.349,5.396c0,3.1,1.056,5.453,4.029,5.453C783.355,42.778,783.852,42.656,784.47,42.467z"/>
	<path d="M817.393,15.19h6.883v3.534h-6.883v20.521c0,2.666,1.057,3.844,3.163,3.844c1.488,0,2.914-0.559,4.341-1.551l0.991,1.551
		c-2.479,4.152-6.139,6.385-11.348,6.385c-5.951,0-10.104-2.975-10.104-10.416V18.724h-3.349V16.43
		c5.271-1.86,10.105-5.518,13.578-9.855h2.728V15.19z"/>
	<path d="M842.503,15.19h6.883v3.534h-6.883v20.521c0,2.666,1.055,3.844,3.162,3.844c1.488,0,2.914-0.559,4.34-1.551l0.992,1.551
		c-2.479,4.152-6.139,6.385-11.346,6.385c-5.951,0-10.105-2.975-10.105-10.416V18.724h-3.348V16.43
		c5.27-1.86,10.104-5.518,13.578-9.855h2.727V15.19z"/>
	<path d="M868.171,44.018c0,1.859,0.992,2.045,3.287,2.232v2.604h-19.344V46.25c2.295-0.188,3.282-0.373,3.282-2.232V6.882
		l-3.282-1.674V3.101l13.887-2.79h2.17V44.018z"/>
	<path d="M904.875,28.457v1.549h-19.652c0,6.82,3.847,11.16,9.299,11.16c3.906,0,6.884-1.303,9.238-4.34l1.301,0.805
		c-1.733,7.193-6.633,11.842-14.754,11.842c-9.235,0-16.612-5.889-16.612-16.738c0-11.222,7.993-18.165,17.172-18.165
		C900.164,14.57,904.875,20.335,904.875,28.457z M885.283,26.969h8.742c0-6.138-0.992-9.672-3.967-9.672
		C886.957,17.297,885.531,21.141,885.283,26.969z"/>
	<path d="M920.562,32.61c0-10.353,7.377-18.04,17.979-18.04s17.979,6.512,17.979,16.862c0,10.354-7.377,18.041-17.979,18.041
		S920.562,42.963,920.562,32.61z M942.943,34.408c0-10.604-1.181-17.111-4.713-17.111c-3.285,0-4.093,4.588-4.093,12.338
		c0,10.601,1.179,17.111,4.714,17.111C942.136,46.746,942.943,42.158,942.943,34.408z"/>
	<path d="M975.244,42.84c0,2.727,1.363,2.914,4.836,3.41v2.604h-20.893V46.25c2.293-0.188,3.284-0.373,3.284-2.232V18.724h-4.401
		v-2.79l4.401-1.054v-0.496c0-9.857,7.007-14.073,15.375-14.073c7.132,0,10.291,2.418,10.291,6.388c0,1.798-0.989,3.348-2.418,4.027
		h-6.385c0.187-0.868,0.312-1.922,0.312-3.038c0-2.17-0.187-4.34-2.048-4.34c-1.735,0-2.354,1.364-2.354,3.721v8.121h7.068v3.534
		h-7.068V42.84L975.244,42.84z"/>
	<path d="M1050.572,21.699c0.309-0.808,0.496-1.488,0.496-1.984c0-1.239-1.056-1.674-3.41-1.922V15.19h10.85v2.604
		c-2.109,0.683-2.604,1.116-3.162,2.479l-12.397,28.768h-4.218l-7.313-18.724l-8.803,18.724h-4.22l-13.327-28.768
		c-0.619-1.362-1.056-1.798-3.16-2.479V15.19h19.715v2.604c-1.859,0.248-2.604,0.807-2.604,1.798c0,0.559,0.188,1.24,0.559,2.108
		l5.58,13.266l4.34-8.988l-2.23-5.703c-0.495-1.362-1.239-1.982-2.791-2.479V15.19h19.593v2.604
		c-2.543,0.311-3.722,0.559-3.722,2.046c0,0.496,0.125,1.116,0.373,1.86l4.773,12.521L1050.572,21.699z"/>
	<path d="M1076.24,44.018c0,1.859,0.992,2.045,3.287,2.232v2.604h-19.345V46.25c2.296-0.188,3.285-0.373,3.285-2.232V22.32
		l-3.285-2.106V18.29l13.826-3.722h2.23L1076.24,44.018L1076.24,44.018z M1063.468,6.138c0-3.285,2.418-6.138,6.572-6.138
		c4.092,0,6.572,2.853,6.572,6.138c0,3.286-2.48,6.138-6.572,6.138C1065.886,12.276,1063.468,9.424,1063.468,6.138z"/>
	<path d="M1097.134,15.19h6.881v3.534h-6.881v20.521c0,2.666,1.054,3.844,3.162,3.844c1.486,0,2.912-0.559,4.338-1.551l0.992,1.551
		c-2.479,4.152-6.137,6.385-11.344,6.385c-5.953,0-10.105-2.975-10.105-10.416V18.724h-3.35V16.43
		c5.27-1.86,10.104-5.518,13.578-9.855h2.729V15.19z"/>
	<path d="M1107.798,46.311l-0.371-8.369h3.162c1.115,4.959,4.463,8.742,9.236,8.742c2.791,0,5.02-1.303,5.02-3.906
		c0-3.035-2.418-3.967-6.385-5.146c-7.191-2.107-11.098-5.207-11.098-11.716c0-7.378,5.579-11.348,13.329-11.348
		c4.277,0,8.244,1.116,10.91,2.854v7.44h-2.914c-0.618-3.906-3.407-7.504-7.688-7.504c-2.48,0-4.215,1.304-4.215,3.534
		c0,2.479,1.797,3.409,5.58,4.649c7.748,2.542,11.899,5.084,11.899,12.213c0,7.502-5.641,11.717-14.317,11.717
		C1114.556,49.473,1110.589,48.233,1107.798,46.311z"/>
</g>
</svg>
