<?xml version="1.0" encoding="utf-8"?>
<!-- Generator: Adobe Illustrator 16.0.0, SVG Export Plug-In . SVG Version: 6.00 Build 0)  -->
<!DOCTYPE svg PUBLIC "-//W3C//DTD SVG 1.1//EN" "http://www.w3.org/Graphics/SVG/1.1/DTD/svg11.dtd">
<svg version="1.1" id="_x33_8" xmlns="http://www.w3.org/2000/svg" xmlns:xlink="http://www.w3.org/1999/xlink" x="0px" y="0px"
	 width="1440px" height="62.68px" viewBox="-47.807 0 1440 62.68" enable-background="new -47.807 0 1440 62.68"
	 xml:space="preserve">
<g>
	<path d="M208.004,40.979c3.534,0,6.138-1.114,8.06-3.845l1.488,0.933c-2.046,7.996-7.315,11.406-14.507,11.406
		c-8.803,0-15.685-6.138-15.685-16.431c0-10.601,6.944-18.475,17.483-18.475c6.323,0,11.779,2.355,11.779,8.123
		c0,2.541-1.488,4.093-2.914,4.711h-6.386c0.186-1.487,0.248-2.666,0.248-3.721c0-3.72-0.992-6.138-3.72-6.138
		c-3.472,0-5.456,4.65-5.456,10.851C198.395,36.205,201.867,40.979,208.004,40.979z"/>
	<path d="M219.413,32.609c0-10.354,7.378-18.041,17.979-18.041c10.602,0,17.979,6.51,17.979,16.863
		c0,10.354-7.377,18.041-17.979,18.041C226.791,49.473,219.413,42.963,219.413,32.609z M241.794,34.408
		c0-10.603-1.178-17.112-4.712-17.112c-3.286,0-4.091,4.588-4.091,12.338c0,10.604,1.178,17.111,4.711,17.111
		C240.988,46.746,241.794,42.158,241.794,34.408z"/>
	<path d="M259.092,46.311l-0.372-8.369h3.162c1.116,4.959,4.463,8.742,9.237,8.742c2.79,0,5.021-1.304,5.021-3.906
		c0-3.036-2.417-3.967-6.385-5.146c-7.192-2.106-11.098-5.207-11.098-11.717c0-7.377,5.58-11.346,13.329-11.346
		c4.278,0,8.246,1.116,10.912,2.853v7.441h-2.914c-0.62-3.906-3.41-7.503-7.688-7.503c-2.479,0-4.216,1.303-4.216,3.534
		c0,2.479,1.798,3.41,5.58,4.649c7.75,2.541,11.903,5.084,11.903,12.213c0,7.502-5.642,11.718-14.321,11.718
		C265.85,49.473,261.882,48.232,259.092,46.311z"/>
	<path d="M303.732,15.189h6.881v3.534h-6.881v20.521c0,2.666,1.054,3.844,3.162,3.844c1.488,0,2.914-0.559,4.341-1.551l0.991,1.551
		c-2.479,4.152-6.138,6.386-11.345,6.386c-5.952,0-10.105-2.976-10.105-10.416V18.723h-3.348v-2.294
		c5.271-1.86,10.105-5.519,13.577-9.856h2.728L303.732,15.189L303.732,15.189z"/>
	<path d="M326.796,32.609c0-10.354,7.378-18.041,17.979-18.041s17.979,6.51,17.979,16.863c0,10.354-7.377,18.041-17.979,18.041
		C334.174,49.473,326.796,42.963,326.796,32.609z M349.177,34.408c0-10.603-1.178-17.112-4.712-17.112
		c-3.286,0-4.091,4.588-4.091,12.338c0,10.604,1.178,17.111,4.711,17.111C348.371,46.746,349.177,42.158,349.177,34.408z"/>
	<path d="M381.479,42.84c0,2.728,1.364,2.914,4.837,3.41v2.604h-20.894V46.25c2.294-0.188,3.286-0.373,3.286-2.231V18.723h-4.402
		v-2.79l4.402-1.055v-0.496c0-9.856,7.005-14.072,15.375-14.072c7.129,0,10.292,2.418,10.292,6.387c0,1.798-0.992,3.348-2.418,4.028
		h-6.386c0.186-0.868,0.31-1.923,0.31-3.038c0-2.17-0.186-4.34-2.046-4.34c-1.736,0-2.356,1.363-2.356,3.721v8.121h7.068v3.534
		h-7.068V42.84L381.479,42.84z"/>
	<path d="M426.552,44.018c0,1.858,0.992,2.045,3.286,2.231v2.604h-19.343V46.25c2.294-0.188,3.286-0.373,3.286-2.231V6.881
		l-3.286-1.674V3.1l13.887-2.79h2.17V44.018L426.552,44.018z"/>
	<path d="M462.263,42.033c0,1.239,0.124,2.543,1.55,2.543c0.807,0,1.612-0.188,1.923-0.312l0.434,1.858
		c-2.17,1.983-4.897,3.349-8.617,3.349c-3.782,0-6.51-1.858-7.626-5.146c-1.736,2.664-4.587,4.896-9.175,4.896
		c-5.332,0-9.113-2.914-9.113-8.433c0-5.455,3.721-7.688,8.061-9.176l10.043-3.472v-6.819c0-2.479-0.62-4.154-2.666-4.154
		c-2.17,0-2.977,1.922-2.977,4.774c0,1.486,0.248,3.037,0.62,4.589l-7.688,0.989c-1.86-0.619-3.225-2.17-3.225-4.524
		c0-5.89,6.076-8.432,13.826-8.432c9.051,0,14.631,2.666,14.631,11.035L462.263,42.033L462.263,42.033z M449.739,42.467V30.998
		l-2.479,0.93c-1.983,0.744-3.348,1.736-3.348,5.396c0,3.1,1.054,5.455,4.03,5.455C448.624,42.777,449.12,42.655,449.739,42.467z"/>
	<path d="M466.046,5.208V3.1l13.887-2.79h2.171v20.396c1.611-2.729,5.021-6.139,10.416-6.139c7.19,0,12.584,4.897,12.584,15.313
		c0,13.019-8.368,19.591-19.157,19.591c-5.767,0-12.399-0.992-16.615-4.216V6.881L466.046,5.208z M492.085,33.539
		c0-8.433-2.976-11.531-7.13-11.531c-0.992,0-1.86,0.125-2.852,0.56v17.546c0,3.657,0.743,6.198,3.781,6.198
		C490.039,46.311,492.085,40.732,492.085,33.539z"/>
	<path d="M508.206,32.609c0-10.354,7.378-18.041,17.979-18.041c10.603,0,17.979,6.51,17.979,16.863
		c0,10.354-7.377,18.041-17.979,18.041C515.583,49.473,508.206,42.963,508.206,32.609z M530.586,34.408
		c0-10.603-1.178-17.112-4.712-17.112c-3.286,0-4.091,4.588-4.091,12.338c0,10.604,1.178,17.111,4.711,17.111
		C529.781,46.746,530.586,42.158,530.586,34.408z"/>
	<path d="M562.826,42.84c0,2.728,1.363,2.914,4.836,3.41v2.604h-20.895V46.25c2.295-0.188,3.286-0.373,3.286-2.231v-21.7
		l-3.286-2.106V18.29l13.825-3.721h2.48l-0.248,9.672c2.354-7.439,4.648-9.672,8.618-9.672c1.55,0,2.604,0.436,3.285,1.055v9.484
		h-1.611c-3.969,0-7.625,0.125-10.292,1.735L562.826,42.84L562.826,42.84z"/>
	<path d="M588.061,32.609c0-10.354,7.379-18.041,17.979-18.041c10.602,0,17.979,6.51,17.979,16.863
		c0,10.354-7.378,18.041-17.979,18.041C595.438,49.473,588.061,42.963,588.061,32.609z M610.441,34.408
		c0-10.603-1.18-17.112-4.713-17.112c-3.285,0-4.092,4.588-4.092,12.338c0,10.604,1.18,17.111,4.711,17.111
		C609.635,46.746,610.441,42.158,610.441,34.408z"/>
	<path d="M642.743,42.84c0,2.728,1.364,2.914,4.836,3.41v2.604h-20.894V46.25c2.295-0.188,3.286-0.373,3.286-2.231V18.723h-4.4
		v-2.79l4.4-1.055v-0.496c0-9.856,7.005-14.072,15.375-14.072c7.13,0,10.291,2.418,10.291,6.387c0,1.798-0.991,3.348-2.418,4.028
		h-6.386c0.188-0.868,0.311-1.923,0.311-3.038c0-2.17-0.187-4.34-2.046-4.34c-1.734,0-2.354,1.363-2.354,3.721v8.121h7.066v3.534
		h-7.066L642.743,42.84L642.743,42.84z"/>
	<path d="M687.816,44.018c0,1.858,0.992,2.045,3.287,2.231v2.604h-19.344V46.25c2.295-0.188,3.288-0.373,3.288-2.231V6.881
		l-3.288-1.674V3.1l13.889-2.79h2.17v43.708H687.816z"/>
	<path d="M693.335,32.609c0-10.354,7.377-18.041,17.979-18.041c10.604,0,17.98,6.51,17.98,16.863
		c0,10.354-7.377,18.041-17.98,18.041C700.712,49.472,693.335,42.963,693.335,32.609z M715.716,34.408
		c0-10.603-1.178-17.112-4.713-17.112c-3.285,0-4.09,4.588-4.09,12.338c0,10.604,1.178,17.111,4.711,17.111
		C714.91,46.746,715.716,42.158,715.716,34.408z"/>
	<path d="M766.246,17.792c-2.107,0.684-2.543,1.116-3.162,2.48l-13.02,28.767h-3.658l-14.568-28.767
		c-0.682-1.364-1.055-1.798-3.162-2.48v-2.604h21.203v2.604c-3.285,0.436-4.029,0.868-4.029,2.17c0,0.56,0.123,0.867,0.496,1.736
		l6.199,13.143l5.641-13.143c0.373-0.869,0.496-1.179,0.496-1.736c0-1.302-0.744-1.735-4.025-2.17v-2.604h11.594v2.604H766.246z"/>
	<path d="M796.191,28.457v1.549h-19.652c0,6.82,3.844,11.16,9.299,11.16c3.906,0,6.883-1.303,9.238-4.34l1.301,0.805
		c-1.734,7.193-6.633,11.843-14.754,11.843c-9.238,0-16.615-5.89-16.615-16.738c0-11.223,7.998-18.166,17.174-18.166
		C791.48,14.569,796.191,20.334,796.191,28.457z M776.601,26.969h8.74c0-6.139-0.99-9.672-3.967-9.672
		C778.275,17.296,776.849,21.141,776.601,26.969z"/>
	<path d="M810.33,32.609c0-10.354,7.377-18.041,17.979-18.041c10.604,0,17.98,6.51,17.98,16.863c0,10.354-7.379,18.041-17.98,18.041
		C817.708,49.472,810.33,42.963,810.33,32.609z M832.708,34.408c0-10.603-1.178-17.112-4.711-17.112
		c-3.287,0-4.092,4.588-4.092,12.338c0,10.604,1.178,17.111,4.711,17.111C831.904,46.746,832.708,42.158,832.708,34.408z"/>
	<path d="M865.011,42.84c0,2.728,1.363,2.914,4.834,3.41v2.604h-20.893V46.25c2.295-0.188,3.287-0.373,3.287-2.231V18.723h-4.402
		v-2.79l4.402-1.055v-0.496c0-9.856,7.006-14.072,15.375-14.072c7.129,0,10.291,2.418,10.291,6.387c0,1.798-0.992,3.348-2.418,4.028
		h-6.387c0.188-0.868,0.311-1.923,0.311-3.038c0-2.17-0.188-4.34-2.045-4.34c-1.736,0-2.355,1.363-2.355,3.721v8.121h7.066v3.534
		h-7.066V42.84z"/>
	<path d="M910.083,44.018c0,1.858,0.992,2.045,3.287,2.231v2.604h-19.344V46.25c2.295-0.188,3.283-0.373,3.283-2.231V6.881
		l-3.283-1.674V3.1l13.887-2.79h2.17V44.018z"/>
	<path d="M946.789,28.457v1.549h-19.652c0,6.82,3.844,11.16,9.299,11.16c3.906,0,6.883-1.303,9.238-4.34l1.301,0.805
		c-1.734,7.193-6.633,11.843-14.754,11.843c-9.236,0-16.615-5.89-16.615-16.738c0-11.223,7.996-18.166,17.174-18.166
		C942.078,14.569,946.789,20.334,946.789,28.457z M927.197,26.969h8.74c0-6.139-0.99-9.672-3.967-9.672
		C928.871,17.296,927.445,21.141,927.197,26.969z"/>
	<path d="M979.646,42.033c0,1.239,0.123,2.543,1.551,2.543c0.807,0,1.609-0.188,1.922-0.312l0.434,1.858
		c-2.17,1.983-4.895,3.349-8.617,3.349c-3.779,0-6.51-1.858-7.625-5.146c-1.734,2.664-4.588,4.896-9.176,4.896
		c-5.332,0-9.113-2.914-9.113-8.433c0-5.455,3.721-7.688,8.061-9.176l10.045-3.472v-6.819c0-2.479-0.621-4.154-2.666-4.154
		c-2.17,0-2.977,1.922-2.977,4.774c0,1.486,0.246,3.037,0.619,4.589l-7.688,0.989c-1.859-0.619-3.225-2.17-3.225-4.524
		c0-5.89,6.076-8.432,13.824-8.432c9.053,0,14.633,2.666,14.633,11.035v16.432h-0.002V42.033z M967.125,42.467V30.998l-2.48,0.93
		c-1.982,0.744-3.348,1.736-3.348,5.396c0,3.1,1.053,5.455,4.029,5.455C966.005,42.777,966.501,42.655,967.125,42.467z"/>
	<path d="M1000.849,42.84c0,2.728,1.365,2.914,4.836,3.41v2.604h-20.893V46.25c2.295-0.188,3.285-0.373,3.285-2.231v-21.7
		l-3.285-2.106V18.29l13.826-3.721h2.479l-0.248,9.672c2.357-7.439,4.65-9.672,8.617-9.672c1.551,0,2.605,0.436,3.287,1.055v9.484
		h-1.611c-3.969,0-7.627,0.125-10.293,1.735V42.84L1000.849,42.84z"/>
	<path d="M1038.917,25.852c0-2.293-0.744-3.845-3.844-3.845c-1.736,0-3.162,0.312-4.588,0.808v21.203c0,1.858,0.805,2.045,3.1,2.231
		v2.604h-19.156V46.25c2.293-0.188,3.285-0.373,3.285-2.231v-21.7l-3.285-2.106V18.29l13.824-3.721h2.479l-0.248,6.262
		c2.232-2.914,5.768-6.262,11.596-6.262c6.014,0,9.607,3.349,9.607,10.168v19.28c0,1.858,0.992,2.045,3.285,2.231v2.604h-19.156
		V46.25c2.293-0.188,3.102-0.373,3.102-2.231V25.852L1038.917,25.852z"/>
	<path d="M1072.892,44.018c0,1.858,0.992,2.045,3.287,2.231v2.604h-19.344V46.25c2.295-0.188,3.285-0.373,3.285-2.231v-21.7
		l-3.285-2.106V18.29l13.826-3.721h2.229v29.448H1072.892z M1060.123,6.137c0-3.285,2.418-6.139,6.572-6.139
		c4.092,0,6.57,2.854,6.57,6.139s-2.479,6.138-6.57,6.138C1062.541,12.275,1060.123,9.423,1060.123,6.137z"/>
	<path d="M1103.025,25.852c0-2.293-0.744-3.845-3.846-3.845c-1.734,0-3.162,0.312-4.588,0.808v21.203
		c0,1.858,0.809,2.045,3.102,2.231v2.604h-19.156V46.25c2.295-0.188,3.285-0.373,3.285-2.231v-21.7l-3.285-2.106V18.29l13.826-3.721
		h2.479l-0.248,6.262c2.232-2.914,5.768-6.262,11.596-6.262c6.014,0,9.607,3.349,9.607,10.168v19.28
		c0,1.858,0.992,2.045,3.285,2.231v2.604h-19.156V46.25c2.295-0.188,3.102-0.373,3.102-2.231V25.852H1103.025z"/>
	<path d="M1128.818,36.205c-0.807,0.744-1.551,1.551-1.551,2.729c0,0.931,0.619,1.674,1.676,1.674h13.822
		c8.93,0,12.4,3.845,12.4,9.548c0,8.122-7.627,12.521-19.281,12.521c-10.168,0-16.49-2.604-16.49-7.502
		c0-3.036,3.102-4.34,5.703-4.586c-2.666-1.055-4.217-3.782-4.217-6.448c0-4.216,2.854-6.882,6.201-8.617
		c-3.473-1.61-6.014-4.401-6.014-8.987c0-7.563,6.508-11.966,15.498-11.966c2.543,0,4.4,0.371,6.014,0.806l11.346-0.247v4.462
		h-2.914l-3.533-0.123c2.295,1.552,3.781,3.906,3.781,7.007c0,6.942-6.633,10.786-15.252,10.786
		C1133.654,37.26,1131.113,36.949,1128.818,36.205z M1126.525,52.201c-0.248,0.312-0.312,0.991-0.312,1.674
		c0,3.597,4.029,5.642,9.857,5.642c5.395,0,10.416-1.179,10.416-4.959c0-1.61-0.992-2.354-2.977-2.354L1126.525,52.201
		L1126.525,52.201z M1139.603,26.162c0-4.588-1.053-8.804-3.596-8.804c-2.479,0-3.16,2.915-3.16,8.185
		c0,4.896,1.115,9.051,3.598,9.051C1138.986,34.594,1139.603,31.742,1139.603,26.162z"/>
</g>
</svg>
