<?xml version="1.0" encoding="utf-8"?>
<!-- Generator: Adobe Illustrator 16.0.0, SVG Export Plug-In . SVG Version: 6.00 Build 0)  -->
<!DOCTYPE svg PUBLIC "-//W3C//DTD SVG 1.1//EN" "http://www.w3.org/Graphics/SVG/1.1/DTD/svg11.dtd">
<svg version="1.1" id="_x32_9_1_" xmlns="http://www.w3.org/2000/svg" xmlns:xlink="http://www.w3.org/1999/xlink" x="0px" y="0px"
	 width="1440px" height="62.679px" viewBox="0 0 1440 62.679" enable-background="new 0 0 1440 62.679" xml:space="preserve">
<g>
	<path d="M71.88,40.979c3.534,0,6.138-1.114,8.06-3.845l1.488,0.933c-2.046,7.996-7.315,11.406-14.507,11.406
		c-8.803,0-15.685-6.138-15.685-16.431c0-10.601,6.944-18.476,17.483-18.476c6.323,0,11.779,2.357,11.779,8.123
		c0,2.541-1.488,4.092-2.914,4.711h-6.386c0.186-1.488,0.248-2.666,0.248-3.721c0-3.719-0.992-6.137-3.72-6.137
		c-3.472,0-5.456,4.65-5.456,10.85C62.271,36.205,65.743,40.979,71.88,40.979z"/>
	<path d="M99.47,42.839c0,2.728,1.364,2.914,4.836,3.41v2.604H83.413V46.25c2.294-0.188,3.286-0.373,3.286-2.23v-21.7l-3.286-2.107
		V18.29l13.825-3.721h2.48L99.47,24.24c2.356-7.439,4.65-9.672,8.618-9.672c1.55,0,2.604,0.436,3.286,1.055v9.484h-1.612
		c-3.968,0-7.625,0.125-10.292,1.736V42.839z"/>
	<path d="M142.808,42.033c0,1.24,0.124,2.543,1.55,2.543c0.806,0,1.612-0.188,1.922-0.311l0.434,1.859
		c-2.17,1.982-4.897,3.348-8.617,3.348c-3.782,0-6.51-1.859-7.626-5.145c-1.736,2.664-4.587,4.896-9.175,4.896
		c-5.332,0-9.113-2.914-9.113-8.433c0-5.455,3.72-7.688,8.06-9.175l10.043-3.471v-6.82c0-2.479-0.62-4.154-2.666-4.154
		c-2.17,0-2.976,1.922-2.976,4.775c0,1.486,0.248,3.037,0.62,4.588l-7.688,0.99c-1.86-0.619-3.224-2.17-3.224-4.525
		c0-5.889,6.075-8.432,13.825-8.432c9.051,0,14.631,2.666,14.631,11.035V42.033z M130.285,42.466V30.998l-2.479,0.929
		c-1.984,0.744-3.348,1.736-3.348,5.396c0,3.1,1.054,5.453,4.03,5.453C129.169,42.777,129.665,42.654,130.285,42.466z"/>
	<path d="M168.476,40.979c3.534,0,6.138-1.114,8.06-3.845l1.488,0.933c-2.046,7.996-7.315,11.406-14.507,11.406
		c-8.803,0-15.685-6.138-15.685-16.431c0-10.601,6.944-18.476,17.483-18.476c6.323,0,11.779,2.357,11.779,8.123
		c0,2.541-1.488,4.092-2.914,4.711h-6.386c0.186-1.488,0.248-2.666,0.248-3.721c0-3.719-0.992-6.137-3.72-6.137
		c-3.472,0-5.456,4.65-5.456,10.85C158.867,36.205,162.338,40.979,168.476,40.979z"/>
	<path d="M183.047,6.881l-3.286-1.674V3.1l13.887-2.789h2.17v43.707c0,1.858,0.992,2.045,3.286,2.231v2.604h-19.343V46.25
		c2.294-0.188,3.286-0.373,3.286-2.23V6.881z M205.614,22.814c1.736-1.551,2.108-2.355,2.108-3.162c0-1.115-0.806-1.549-3.658-1.859
		v-2.604h14.445v2.604c-2.046,0.248-3.534,0.559-5.208,2.232l-6.572,6.322l12.957,20.707v1.799h-13.143L196.19,31.309
		L205.614,22.814z"/>
	<path d="M231.708,32.609c0-10.354,7.378-18.041,17.979-18.041c10.602,0,17.979,6.51,17.979,16.863
		c0,10.354-7.377,18.041-17.979,18.041C239.086,49.473,231.708,42.962,231.708,32.609z M254.089,34.408
		c0-10.602-1.178-17.111-4.712-17.111c-3.286,0-4.091,4.588-4.091,12.338c0,10.603,1.178,17.111,4.711,17.111
		C253.283,46.746,254.089,42.158,254.089,34.408z"/>
	<path d="M286.391,42.839c0,2.728,1.364,2.914,4.836,3.41v2.604h-20.893V46.25c2.294-0.188,3.286-0.373,3.286-2.23V18.723h-4.402
		v-2.789l4.402-1.055v-0.496c0-9.857,7.005-14.072,15.375-14.072c7.129,0,10.292,2.418,10.292,6.385
		c0,1.799-0.992,3.348-2.418,4.029h-6.386c0.186-0.867,0.31-1.922,0.31-3.037c0-2.17-0.186-4.34-2.046-4.34
		c-1.736,0-2.356,1.363-2.356,3.721v8.121h7.068v3.533h-7.068V42.839z"/>
	<path d="M329.225,5.207V3.1l13.887-2.789h2.17v41.164c0,2.108,0.186,3.161,1.984,3.161h1.426v2.73l-13.949,2.105h-2.418
		l0.186-5.891c-2.542,3.967-5.952,5.891-10.104,5.891c-7.191,0-12.523-5.52-12.523-15.936c0-12.274,7.502-18.66,16.739-18.66
		c2.418,0,4.526,0.559,5.89,1.674v-9.67L329.225,5.207z M322.777,29.82c0,7.625,2.604,12.709,7.005,12.709
		c0.868,0,1.798-0.123,2.728-0.434V24.488c0-3.781-0.744-5.766-3.72-5.766C324.699,18.723,322.777,23.125,322.777,29.82z"/>
	<path d="M380.993,42.033c0,1.24,0.124,2.543,1.55,2.543c0.806,0,1.612-0.188,1.922-0.311l0.436,1.859
		c-2.172,1.982-4.897,3.348-8.617,3.348c-3.782,0-6.512-1.859-7.626-5.145c-1.736,2.664-4.587,4.896-9.177,4.896
		c-5.332,0-9.111-2.914-9.111-8.433c0-5.455,3.72-7.688,8.06-9.175l10.043-3.471v-6.82c0-2.479-0.62-4.154-2.666-4.154
		c-2.17,0-2.976,1.922-2.976,4.775c0,1.486,0.248,3.037,0.62,4.588l-7.688,0.99c-1.86-0.619-3.224-2.17-3.224-4.525
		c0-5.889,6.075-8.432,13.825-8.432c9.051,0,14.631,2.666,14.631,11.035L380.993,42.033L380.993,42.033z M368.469,42.466V30.998
		l-2.479,0.929c-1.984,0.744-3.35,1.736-3.35,5.396c0,3.1,1.056,5.453,4.03,5.453C367.354,42.777,367.85,42.654,368.469,42.466z"/>
	<path d="M430.963,21.699c0.312-0.807,0.496-1.488,0.496-1.984c0-1.24-1.054-1.674-3.41-1.922v-2.604h10.851v2.604
		c-2.108,0.682-2.604,1.115-3.162,2.48l-12.399,28.766h-4.216l-7.315-18.723l-8.804,18.723h-4.215l-13.33-28.766
		c-0.62-1.365-1.054-1.799-3.162-2.48v-2.604h19.715v2.604c-1.858,0.248-2.604,0.807-2.604,1.797c0,0.559,0.186,1.24,0.558,2.109
		l5.58,13.265l4.34-8.987l-2.23-5.703c-0.496-1.365-1.24-1.984-2.79-2.48V15.19h19.591v2.604c-2.542,0.311-3.72,0.559-3.72,2.045
		c0,0.496,0.124,1.117,0.372,1.861l4.772,12.523L430.963,21.699z"/>
	<path d="M465.064,25.852c0-2.293-0.744-3.844-3.846-3.844c-1.734,0-3.162,0.311-4.588,0.807v21.203
		c0,1.858,0.807,2.045,3.102,2.231v2.604h-19.157V46.25c2.294-0.188,3.286-0.373,3.286-2.23v-21.7l-3.286-2.107V18.29l13.825-3.721
		h2.479l-0.248,6.262c2.232-2.914,5.768-6.262,11.593-6.262c6.016,0,9.61,3.348,9.61,10.168v19.281c0,1.858,0.992,2.045,3.286,2.231
		v2.604h-19.157V46.25c2.293-0.188,3.102-0.373,3.102-2.23V25.852z"/>
	<path d="M493.638,32.609c0-10.354,7.378-18.041,17.979-18.041c10.601,0,17.979,6.51,17.979,16.863
		c0,10.354-7.377,18.041-17.979,18.041C501.016,49.473,493.638,42.962,493.638,32.609z M516.02,34.408
		c0-10.602-1.179-17.111-4.713-17.111c-3.285,0-4.091,4.588-4.091,12.338c0,10.603,1.179,17.111,4.711,17.111
		C515.213,46.746,516.02,42.158,516.02,34.408z"/>
	<path d="M548.321,42.839c0,2.728,1.364,2.914,4.836,3.41v2.604h-20.895V46.25c2.294-0.188,3.286-0.373,3.286-2.23V18.723h-4.4
		v-2.789l4.4-1.055v-0.496c0-9.857,7.005-14.072,15.375-14.072c7.129,0,10.292,2.418,10.292,6.385c0,1.799-0.992,3.348-2.418,4.029
		h-6.386c0.186-0.867,0.31-1.922,0.31-3.037c0-2.17-0.186-4.34-2.046-4.34c-1.734,0-2.354,1.363-2.354,3.721v8.121h7.066v3.533
		h-7.066V42.839z"/>
	<path d="M589.737,15.189h6.881v3.533h-6.881v20.521c0,2.666,1.054,3.844,3.161,3.844c1.487,0,2.914-0.561,4.341-1.551l0.991,1.551
		c-2.479,4.152-6.139,6.385-11.346,6.385c-5.951,0-10.104-2.975-10.104-10.416V18.723h-3.348V16.43
		c5.27-1.861,10.104-5.518,13.575-9.857h2.729L589.737,15.189L589.737,15.189z"/>
	<path d="M615.653,44.018c0,1.858,0.991,2.045,3.286,2.231v2.604h-19.345V46.25c2.294-0.188,3.286-0.373,3.286-2.23v-21.7
		l-3.286-2.107V18.29l13.825-3.721h2.232L615.653,44.018L615.653,44.018z M602.882,6.137c0-3.285,2.417-6.137,6.571-6.137
		c4.092,0,6.572,2.852,6.572,6.137c0,3.287-2.48,6.139-6.572,6.139C605.299,12.275,602.882,9.424,602.882,6.137z"/>
	<path d="M665.251,25.666c0-2.293-0.744-3.719-3.348-3.719c-1.613,0-2.854,0.434-4.219,0.93v21.141c0,1.858,0.561,2.045,2.854,2.231
		v2.604h-18.476V46.25c2.295-0.188,2.853-0.373,2.853-2.23V25.666c0-2.293-0.744-3.719-3.349-3.719
		c-1.611,0-2.853,0.371-4.217,0.867v21.203c0,1.859,0.56,2.045,2.854,2.232v2.604h-18.909V46.25c2.294-0.188,3.286-0.373,3.286-2.23
		v-21.7l-3.286-2.107V18.29l13.825-3.721h2.479l-0.248,6.387c2.172-3.41,5.644-6.387,11.284-6.387c4.835,0,7.999,1.861,8.804,6.51
		c2.108-3.348,5.952-6.51,11.407-6.51c5.768,0,9.177,3.287,9.177,9.734v19.715c0,1.858,0.991,2.045,3.284,2.231v2.604H662.4V46.25
		c2.293-0.188,2.852-0.373,2.852-2.23L665.251,25.666L665.251,25.666z"/>
	<path d="M714.23,28.457v1.549h-19.652c0,6.82,3.844,11.16,9.299,11.16c3.906,0,6.883-1.303,9.238-4.34l1.303,0.805
		c-1.736,7.193-6.635,11.844-14.756,11.844c-9.238,0-16.615-5.891-16.615-16.738c0-11.223,7.998-18.166,17.174-18.166
		C709.52,14.568,714.23,20.334,714.23,28.457z M694.64,26.969h8.742c0-6.139-0.992-9.672-3.969-9.672
		C696.314,17.297,694.888,21.141,694.64,26.969z"/>
	<path d="M726.727,32.609c0-10.354,7.377-18.041,17.979-18.041s17.979,6.51,17.979,16.863c0,10.354-7.377,18.041-17.979,18.041
		S726.727,42.962,726.727,32.609z M749.107,34.408c0-10.602-1.181-17.111-4.713-17.111c-3.285,0-4.093,4.588-4.093,12.338
		c0,10.603,1.179,17.111,4.713,17.111C748.3,46.746,749.107,42.158,749.107,34.408z"/>
	<path d="M780.408,42.839c0,2.728,1.363,2.914,4.836,3.41v2.604h-20.893V46.25c2.293-0.188,3.284-0.373,3.284-2.23V18.723h-4.401
		v-2.789l4.401-1.055v-0.496c0-9.857,7.006-14.072,15.375-14.072c7.131,0,10.291,2.418,10.291,6.385
		c0,1.799-0.989,3.348-2.418,4.029H784.5c0.186-0.867,0.311-1.922,0.311-3.037c0-2.17-0.186-4.34-2.047-4.34
		c-1.733,0-2.354,1.363-2.354,3.721v8.121h7.065v3.533h-7.065v24.116H780.408z"/>
	<path d="M823.994,40.979c3.533,0,6.137-1.114,8.059-3.845l1.488,0.933c-2.045,7.996-7.316,11.406-14.508,11.406
		c-8.803,0-15.685-6.138-15.685-16.431c0-10.601,6.943-18.476,17.482-18.476c6.324,0,11.779,2.357,11.779,8.123
		c0,2.541-1.488,4.092-2.914,4.711h-6.388c0.188-1.488,0.248-2.666,0.248-3.721c0-3.719-0.992-6.137-3.721-6.137
		c-3.473,0-5.455,4.65-5.455,10.85C814.384,36.205,817.855,40.979,823.994,40.979z"/>
	<path d="M851.583,42.839c0,2.728,1.363,2.914,4.836,3.41v2.604h-20.893V46.25c2.293-0.188,3.282-0.373,3.282-2.23v-21.7
		l-3.282-2.107V18.29l13.821-3.721h2.48l-0.248,9.672c2.355-7.439,4.648-9.672,8.617-9.672c1.551,0,2.604,0.436,3.285,1.055v9.484
		h-1.611c-3.967,0-7.625,0.125-10.291,1.736v15.998h0.003V42.839z"/>
	<path d="M881.218,44.018c0,1.858,0.992,2.045,3.287,2.231v2.604h-19.344V46.25c2.295-0.188,3.285-0.373,3.285-2.23v-21.7
		l-3.285-2.107V18.29l13.826-3.721h2.229v29.45L881.218,44.018L881.218,44.018z M868.447,6.137c0-3.285,2.418-6.137,6.572-6.137
		c4.092,0,6.571,2.852,6.571,6.137c0,3.287-2.479,6.139-6.571,6.139C870.865,12.275,868.447,9.424,868.447,6.137z"/>
	<path d="M887.667,46.311l-0.373-8.369h3.162c1.115,4.959,4.465,8.742,9.238,8.742c2.786,0,5.02-1.304,5.02-3.906
		c0-3.036-2.418-3.967-6.387-5.146c-7.191-2.107-11.097-5.207-11.097-11.717c0-7.377,5.578-11.346,13.328-11.346
		c4.277,0,8.246,1.117,10.912,2.852v7.441h-2.914c-0.621-3.906-3.41-7.502-7.688-7.502c-2.48,0-4.217,1.301-4.217,3.533
		c0,2.48,1.799,3.41,5.578,4.65c7.75,2.541,11.903,5.084,11.903,12.212c0,7.502-5.643,11.718-14.321,11.718
		C894.425,49.473,890.457,48.232,887.667,46.311z"/>
	<path d="M933.113,44.018c0,1.858,0.992,2.045,3.285,2.231v2.604h-19.343V46.25c2.293-0.188,3.285-0.373,3.285-2.23v-21.7
		l-3.285-2.107V18.29l13.824-3.721h2.232L933.113,44.018L933.113,44.018z M920.341,6.137c0-3.285,2.418-6.137,6.572-6.137
		c4.092,0,6.57,2.852,6.57,6.137c0,3.287-2.48,6.139-6.57,6.139C922.759,12.275,920.341,9.424,920.341,6.137z"/>
	<path d="M939.561,46.311l-0.371-8.369h3.162c1.114,4.959,4.463,8.742,9.235,8.742c2.791,0,5.021-1.304,5.021-3.906
		c0-3.036-2.421-3.967-6.388-5.146c-7.188-2.107-11.098-5.207-11.098-11.717c0-7.377,5.58-11.346,13.33-11.346
		c4.277,0,8.244,1.117,10.91,2.852v7.441h-2.914c-0.619-3.906-3.408-7.502-7.688-7.502c-2.479,0-4.215,1.301-4.215,3.533
		c0,2.48,1.797,3.41,5.58,4.65c7.748,2.541,11.902,5.084,11.902,12.212c0,7.502-5.644,11.718-14.32,11.718
		C946.318,49.473,942.352,48.232,939.561,46.311z"/>
	<path d="M979.605,32.609c0-10.354,7.377-18.041,17.979-18.041s17.979,6.51,17.979,16.863c0,10.354-7.377,18.041-17.979,18.041
		S979.605,42.962,979.605,32.609z M1001.986,34.408c0-10.602-1.181-17.111-4.713-17.111c-3.285,0-4.093,4.588-4.093,12.338
		c0,10.603,1.179,17.111,4.714,17.111C1001.179,46.746,1001.986,42.158,1001.986,34.408z"/>
	<path d="M1033.287,42.839c0,2.728,1.363,2.914,4.836,3.41v2.604h-20.893V46.25c2.293-0.188,3.284-0.373,3.284-2.23V18.723h-4.401
		v-2.789l4.401-1.055v-0.496c0-9.857,7.007-14.072,15.375-14.072c7.132,0,10.291,2.418,10.291,6.385
		c0,1.799-0.989,3.348-2.418,4.029h-6.385c0.187-0.867,0.312-1.922,0.312-3.037c0-2.17-0.187-4.34-2.048-4.34
		c-1.735,0-2.354,1.363-2.354,3.721v8.121h7.068v3.533h-7.068V42.839L1033.287,42.839z"/>
	<path d="M1076.873,40.979c3.533,0,6.137-1.114,8.059-3.845l1.488,0.933c-2.045,7.996-7.316,11.406-14.508,11.406
		c-8.803,0-15.684-6.138-15.684-16.431c0-10.601,6.942-18.476,17.481-18.476c6.324,0,11.779,2.357,11.779,8.123
		c0,2.541-1.488,4.092-2.914,4.711h-6.385c0.186-1.488,0.248-2.666,0.248-3.721c0-3.719-0.992-6.137-3.724-6.137
		c-3.473,0-5.455,4.65-5.455,10.85C1067.263,36.205,1070.734,40.979,1076.873,40.979z"/>
	<path d="M1088.281,32.609c0-10.354,7.377-18.041,17.979-18.041c10.604,0,17.98,6.51,17.98,16.863
		c0,10.354-7.379,18.041-17.98,18.041C1095.66,49.472,1088.281,42.962,1088.281,32.609z M1110.662,34.408
		c0-10.602-1.178-17.111-4.711-17.111c-3.287,0-4.092,4.588-4.092,12.338c0,10.603,1.178,17.111,4.711,17.111
		C1109.855,46.746,1110.662,42.158,1110.662,34.408z"/>
	<path d="M1151.333,25.852c0-2.293-0.744-3.844-3.844-3.844c-1.736,0-3.162,0.311-4.588,0.807v21.203c0,1.858,0.805,2.045,3.1,2.231
		v2.604h-19.156V46.25c2.293-0.188,3.285-0.373,3.285-2.23v-21.7l-3.285-2.107V18.29l13.824-3.721h2.479l-0.248,6.262
		c2.231-2.914,5.768-6.262,11.596-6.262c6.014,0,9.606,3.348,9.606,10.168v19.281c0,1.858,0.992,2.045,3.285,2.231v2.604h-19.155
		V46.25c2.293-0.188,3.102-0.373,3.102-2.23L1151.333,25.852L1151.333,25.852z"/>
	<path d="M1206.574,44.018c0,1.858,0.992,2.045,3.287,2.231v2.604h-19.158V46.25c2.295-0.188,3.1-0.373,3.1-2.23V18.723h-8.43
		v25.295c0,1.858,0.805,2.045,3.1,2.231v2.604h-19.158V46.25c2.298-0.188,3.287-0.373,3.287-2.23V18.723h-4.399v-2.789l4.399-1.055
		v-0.496c0-9.857,7.812-14.072,17.049-14.072c7.938,0,11.902,2.418,11.902,6.385c0,1.799-0.992,3.348-2.418,4.029h-7.254
		c0.188-0.867,0.311-1.922,0.311-3.037c0-2.17-0.616-4.465-3.1-4.465c-2.541,0-3.719,2.17-3.719,6.697v5.27h16.057l2.293-0.621
		h2.854v29.449H1206.574z"/>
	<path d="M1231.438,5.207V3.1l13.887-2.789h2.17v41.164c0,2.108,0.186,3.161,1.984,3.161h1.426v2.73l-13.949,2.105h-2.418
		l0.186-5.891c-2.541,3.967-5.948,5.891-10.104,5.891c-7.191,0-12.523-5.52-12.523-15.936c0-12.274,7.502-18.66,16.738-18.66
		c2.418,0,4.527,0.559,5.892,1.674v-9.67L1231.438,5.207z M1224.988,29.82c0,7.625,2.604,12.709,7.006,12.709
		c0.869,0,1.799-0.123,2.729-0.434V24.488c0-3.781-0.744-5.766-3.721-5.766C1226.91,18.723,1224.988,23.125,1224.988,29.82z"/>
	<path d="M1284.197,28.457v1.549h-19.652c0,6.82,3.844,11.16,9.299,11.16c3.906,0,6.883-1.303,9.238-4.34l1.303,0.805
		c-1.733,7.193-6.635,11.844-14.756,11.844c-9.238,0-16.615-5.891-16.615-16.738c0-11.223,7.998-18.166,17.174-18.166
		C1279.486,14.568,1284.197,20.334,1284.197,28.457z M1264.607,26.969h8.741c0-6.139-0.991-9.672-3.969-9.672
		C1266.281,17.297,1264.855,21.141,1264.607,26.969z"/>
	<path d="M1311.167,25.852c0-2.293-0.744-3.844-3.844-3.844c-1.736,0-3.162,0.311-4.588,0.807v21.203c0,1.858,0.805,2.045,3.1,2.231
		v2.604h-19.156V46.25c2.293-0.188,3.285-0.373,3.285-2.23v-21.7l-3.285-2.107V18.29l13.824-3.721h2.479l-0.248,6.262
		c2.231-2.914,5.768-6.262,11.596-6.262c6.014,0,9.606,3.348,9.606,10.168v19.281c0,1.858,0.992,2.045,3.285,2.231v2.604h-19.155
		V46.25c2.293-0.188,3.102-0.373,3.102-2.23L1311.167,25.852L1311.167,25.852z"/>
	<path d="M1349.607,40.979c3.532,0,6.137-1.114,8.059-3.845l1.488,0.933c-2.045,7.996-7.316,11.406-14.508,11.406
		c-8.804,0-15.685-6.138-15.685-16.431c0-10.601,6.943-18.476,17.482-18.476c6.321,0,11.776,2.357,11.776,8.123
		c0,2.541-1.485,4.092-2.912,4.711h-6.387c0.188-1.488,0.248-2.666,0.248-3.721c0-3.719-0.99-6.137-3.721-6.137
		c-3.473,0-5.455,4.65-5.455,10.85C1339.998,36.205,1343.468,40.979,1349.607,40.979z"/>
	<path d="M1392.199,28.457v1.549h-19.652c0,6.82,3.844,11.16,9.299,11.16c3.906,0,6.883-1.303,9.238-4.34l1.303,0.805
		c-1.733,7.193-6.635,11.844-14.756,11.844c-9.238,0-16.615-5.891-16.615-16.738c0-11.223,7.998-18.166,17.174-18.166
		C1387.488,14.568,1392.199,20.334,1392.199,28.457z M1372.609,26.969h8.741c0-6.139-0.991-9.672-3.969-9.672
		C1374.283,17.297,1372.857,21.141,1372.609,26.969z"/>
</g>
</svg>
