<?xml version="1.0" encoding="utf-8"?>
<!-- Generator: Adobe Illustrator 16.0.0, SVG Export Plug-In . SVG Version: 6.00 Build 0)  -->
<!DOCTYPE svg PUBLIC "-//W3C//DTD SVG 1.1//EN" "http://www.w3.org/Graphics/SVG/1.1/DTD/svg11.dtd">
<svg version="1.1" id="_x33_9" xmlns="http://www.w3.org/2000/svg" xmlns:xlink="http://www.w3.org/1999/xlink" x="0px" y="0px"
	 width="1440px" height="62.68px" viewBox="0 0 1440 62.68" enable-background="new 0 0 1440 62.68" xml:space="preserve">
<g>
	<path d="M104.612,22.32l-3.286-2.108v-1.922l13.825-3.72h2.479l-0.248,6.138c1.612-2.728,5.022-6.138,10.416-6.138
		c7.192,0,12.585,4.897,12.585,15.313c0,13.018-7.874,19.59-17.979,19.59c-2.232,0-4.092-0.371-5.022-1.053v8.43
		c0,2.17,1.116,2.232,4.588,2.543v2.604h-20.645v-2.604c2.293-0.186,3.286-0.373,3.286-2.232V22.32z M127.365,33.539
		c0-8.431-2.976-11.53-7.129-11.53c-0.992,0-1.86,0.124-2.852,0.559v17.544c0,3.658,0.744,6.199,3.782,6.199
		C125.319,46.311,127.365,40.733,127.365,33.539z"/>
	<path d="M173.058,42.033c0,1.24,0.124,2.543,1.55,2.543c0.806,0,1.612-0.188,1.922-0.311l0.434,1.859
		c-2.17,1.984-4.897,3.348-8.617,3.348c-3.782,0-6.51-1.859-7.626-5.145c-1.736,2.664-4.587,4.896-9.175,4.896
		c-5.332,0-9.113-2.914-9.113-8.432c0-5.455,3.72-7.688,8.06-9.175l10.043-3.472v-6.819c0-2.479-0.62-4.154-2.666-4.154
		c-2.17,0-2.976,1.922-2.976,4.774c0,1.487,0.248,3.038,0.62,4.588l-7.688,0.991c-1.86-0.619-3.224-2.17-3.224-4.525
		c0-5.89,6.076-8.432,13.826-8.432c9.051,0,14.631,2.666,14.631,11.035V42.033z M160.535,42.467V30.999l-2.479,0.93
		c-1.984,0.744-3.348,1.735-3.348,5.394c0,3.1,1.054,5.455,4.03,5.455C159.419,42.778,159.915,42.655,160.535,42.467z"/>
	<path d="M193.457,15.19h6.881v3.534h-6.881v20.521c0,2.666,1.054,3.844,3.162,3.844c1.488,0,2.914-0.559,4.34-1.551l0.992,1.551
		c-2.479,4.152-6.138,6.385-11.345,6.385c-5.952,0-10.105-2.975-10.105-10.416V18.724h-3.348V16.43
		c5.27-1.86,10.105-5.518,13.577-9.857h2.728V15.19z"/>
	<path d="M218.567,15.19h6.881v3.534h-6.881v20.521c0,2.666,1.054,3.844,3.162,3.844c1.488,0,2.914-0.559,4.34-1.551l0.992,1.551
		c-2.479,4.152-6.138,6.385-11.345,6.385c-5.952,0-10.105-2.975-10.105-10.416V18.724h-3.348V16.43
		c5.27-1.86,10.105-5.518,13.577-9.857h2.728V15.19z"/>
	<path d="M259.176,28.457v1.55h-19.653c0,6.819,3.844,11.159,9.299,11.159c3.906,0,6.881-1.303,9.237-4.34l1.302,0.805
		c-1.736,7.193-6.634,11.842-14.755,11.842c-9.237,0-16.615-5.889-16.615-16.738c0-11.222,7.998-18.165,17.173-18.165
		C254.464,14.57,259.176,20.335,259.176,28.457z M239.585,26.969h8.741c0-6.138-0.992-9.672-3.968-9.672
		C241.259,17.297,239.833,21.141,239.585,26.969z"/>
	<path d="M277.714,42.84c0,2.727,1.364,2.914,4.836,3.41v2.604h-20.893V46.25c2.294-0.188,3.286-0.373,3.286-2.232V22.32
		l-3.286-2.108v-1.922l13.825-3.72h2.48l-0.248,9.672c2.356-7.439,4.65-9.672,8.618-9.672c1.55,0,2.604,0.435,3.286,1.054v9.485
		h-1.612c-3.968,0-7.625,0.124-10.292,1.736V42.84z"/>
	<path d="M315.782,25.853c0-2.294-0.744-3.844-3.844-3.844c-1.736,0-3.162,0.311-4.588,0.807v21.202c0,1.859,0.806,2.045,3.1,2.232
		v2.604h-19.157V46.25c2.294-0.188,3.286-0.373,3.286-2.232V22.32l-3.286-2.108v-1.922l13.825-3.72h2.48l-0.248,6.262
		c2.232-2.914,5.766-6.262,11.593-6.262c6.014,0,9.61,3.348,9.61,10.168v19.28c0,1.859,0.992,2.045,3.286,2.232v2.604h-19.157V46.25
		c2.293-0.188,3.1-0.373,3.1-2.232V25.853z"/>
	<path d="M346.906,32.611c0-10.354,7.378-18.041,17.979-18.041c10.602,0,17.979,6.51,17.979,16.863
		c0,10.353-7.377,18.04-17.979,18.04C354.284,49.473,346.906,42.963,346.906,32.611z M369.287,34.408
		c0-10.602-1.178-17.111-4.712-17.111c-3.286,0-4.091,4.588-4.091,12.338c0,10.602,1.178,17.111,4.711,17.111
		C368.48,46.746,369.287,42.158,369.287,34.408z"/>
	<path d="M401.588,42.84c0,2.727,1.364,2.914,4.836,3.41v2.604h-20.893V46.25c2.294-0.188,3.286-0.373,3.286-2.232V18.724h-4.402
		v-2.79l4.402-1.054v-0.496c0-9.857,7.005-14.073,15.375-14.073c7.129,0,10.292,2.418,10.292,6.386c0,1.798-0.992,3.348-2.418,4.029
		h-6.386c0.186-0.868,0.31-1.922,0.31-3.038c0-2.17-0.186-4.34-2.046-4.34c-1.736,0-2.356,1.364-2.356,3.721v8.121h7.068v3.534
		h-7.068V42.84z"/>
	<path d="M459.371,42.033c0,1.24,0.124,2.543,1.55,2.543c0.806,0,1.612-0.188,1.922-0.311l0.434,1.859
		c-2.17,1.984-4.897,3.348-8.617,3.348c-3.782,0-6.51-1.859-7.626-5.145c-1.736,2.664-4.587,4.896-9.175,4.896
		c-5.332,0-9.113-2.914-9.113-8.432c0-5.455,3.72-7.688,8.06-9.175l10.043-3.472v-6.819c0-2.479-0.62-4.154-2.666-4.154
		c-2.17,0-2.976,1.922-2.976,4.774c0,1.487,0.248,3.038,0.62,4.588l-7.688,0.991c-1.86-0.619-3.224-2.17-3.224-4.525
		c0-5.89,6.075-8.432,13.825-8.432c9.051,0,14.631,2.666,14.631,11.035V42.033z M446.848,42.467V30.999l-2.479,0.93
		c-1.984,0.744-3.348,1.735-3.348,5.394c0,3.1,1.054,5.455,4.03,5.455C445.732,42.778,446.228,42.655,446.848,42.467z"/>
	<path d="M463.155,5.208V3.101l13.887-2.79h2.17v20.396c1.612-2.728,5.021-6.138,10.416-6.138c7.191,0,12.585,4.897,12.585,15.313
		c0,13.018-8.369,19.59-19.157,19.59c-5.766,0-12.399-0.992-16.615-4.215V6.882L463.155,5.208z M489.193,33.539
		c0-8.431-2.976-11.53-7.13-11.53c-0.992,0-1.86,0.124-2.852,0.559v17.544c0,3.658,0.744,6.199,3.782,6.199
		C487.147,46.311,489.193,40.733,489.193,33.539z"/>
	<path d="M541.272,41.475c0,2.109,0.186,3.162,1.984,3.162h1.426v2.729l-13.949,2.107h-2.418l0.186-6.076
		c-2.108,2.854-5.394,6.076-11.16,6.076c-5.58,0-9.547-3.348-9.547-10.602V24.179c0-1.735-0.434-3.161-2.17-3.72l-0.93-0.31v-2.48
		l13.887-3.1h2.356l-0.372,8.184v15.003c0,2.852,1.116,4.463,3.906,4.463c1.55,0,2.479-0.186,4.03-0.682V24.179
		c0-1.735-0.434-3.161-2.17-3.72l-0.93-0.31v-2.48l13.887-3.1h2.356l-0.372,8.184V41.475z"/>
	<path d="M547.721,46.311l-0.372-8.369h3.162c1.116,4.959,4.464,8.742,9.238,8.742c2.79,0,5.021-1.303,5.021-3.906
		c0-3.037-2.417-3.967-6.385-5.146c-7.192-2.107-11.098-5.206-11.098-11.716c0-7.378,5.58-11.346,13.329-11.346
		c4.278,0,8.246,1.116,10.912,2.852v7.44h-2.914c-0.62-3.906-3.41-7.502-7.688-7.502c-2.48,0-4.216,1.302-4.216,3.534
		c0,2.479,1.798,3.409,5.58,4.649c7.75,2.542,11.903,5.084,11.903,12.213c0,7.502-5.642,11.717-14.321,11.717
		C554.479,49.473,550.511,48.233,547.721,46.311z"/>
	<path d="M608.479,28.457v1.55h-19.652c0,6.819,3.844,11.159,9.299,11.159c3.906,0,6.881-1.303,9.238-4.34l1.302,0.805
		c-1.736,7.193-6.634,11.842-14.755,11.842c-9.237,0-16.615-5.889-16.615-16.738c0-11.222,7.998-18.165,17.173-18.165
		C603.768,14.57,608.479,20.335,608.479,28.457z M588.888,26.969h8.741c0-6.138-0.992-9.672-3.968-9.672
		C590.562,17.297,589.136,21.141,588.888,26.969z"/>
	<path d="M624.165,32.611c0-10.354,7.378-18.041,17.979-18.041s17.979,6.51,17.979,16.863c0,10.353-7.377,18.04-17.979,18.04
		S624.165,42.963,624.165,32.611z M646.546,34.408c0-10.602-1.178-17.111-4.712-17.111c-3.285,0-4.092,4.588-4.092,12.338
		c0,10.602,1.178,17.111,4.712,17.111C645.74,46.746,646.546,42.158,646.546,34.408z"/>
	<path d="M678.848,42.84c0,2.727,1.365,2.914,4.836,3.41v2.604h-20.893V46.25c2.295-0.188,3.287-0.373,3.287-2.232V18.724h-4.402
		v-2.79l4.402-1.054v-0.496c0-9.857,7.004-14.073,15.375-14.073c7.129,0,10.291,2.418,10.291,6.386c0,1.798-0.992,3.348-2.418,4.029
		h-6.387c0.188-0.868,0.311-1.922,0.311-3.038c0-2.17-0.186-4.34-2.045-4.34c-1.736,0-2.357,1.364-2.357,3.721v8.121h7.068v3.534
		h-7.068V42.84z"/>
	<path d="M709.414,22.32l-3.285-2.108v-1.922l13.824-3.72h2.48l-0.248,6.138c1.611-2.728,5.021-6.138,10.416-6.138
		c7.191,0,12.584,4.897,12.584,15.313c0,13.018-7.873,19.59-17.979,19.59c-2.23,0-4.092-0.371-5.021-1.053v8.43
		c0,2.17,1.115,2.232,4.588,2.543v2.604h-20.645v-2.604c2.293-0.186,3.285-0.373,3.285-2.232V22.32z M732.168,33.539
		c0-8.431-2.977-11.53-7.131-11.53c-0.992,0-1.859,0.124-2.852,0.559v17.544c0,3.658,0.744,6.199,3.781,6.199
		C730.121,46.311,732.168,40.733,732.168,33.539z"/>
	<path d="M748.289,32.611c0-10.354,7.377-18.041,17.979-18.041s17.979,6.51,17.979,16.863c0,10.353-7.377,18.04-17.979,18.04
		S748.289,42.963,748.289,32.611z M770.67,34.408c0-10.602-1.18-17.111-4.713-17.111c-3.285,0-4.092,4.588-4.092,12.338
		c0,10.602,1.178,17.111,4.713,17.111C769.863,46.746,770.67,42.158,770.67,34.408z"/>
	<path d="M832.297,21.699c0.309-0.806,0.496-1.488,0.496-1.984c0-1.239-1.055-1.674-3.41-1.922V15.19h10.85v2.604
		c-2.109,0.683-2.605,1.116-3.162,2.48l-12.4,28.766h-4.215l-7.316-18.723l-8.803,18.723h-4.217l-13.328-28.766
		c-0.621-1.364-1.055-1.798-3.162-2.48V15.19h19.715v2.604c-1.859,0.248-2.604,0.807-2.604,1.798c0,0.559,0.186,1.24,0.557,2.108
		l5.58,13.266l4.34-8.988l-2.23-5.703c-0.496-1.364-1.24-1.984-2.791-2.48V15.19h19.592v2.604c-2.543,0.311-3.721,0.559-3.721,2.046
		c0,0.496,0.125,1.116,0.373,1.86l4.773,12.523L832.297,21.699z"/>
	<path d="M870.488,28.457v1.55h-19.652c0,6.819,3.844,11.159,9.299,11.159c3.906,0,6.883-1.303,9.238-4.34l1.303,0.805
		c-1.736,7.193-6.635,11.842-14.756,11.842c-9.238,0-16.615-5.889-16.615-16.738c0-11.222,7.998-18.165,17.174-18.165
		C865.777,14.57,870.488,20.335,870.488,28.457z M850.898,26.969h8.742c0-6.138-0.992-9.672-3.969-9.672
		C852.572,17.297,851.146,21.141,850.898,26.969z"/>
	<path d="M889.027,42.84c0,2.727,1.363,2.914,4.836,3.41v2.604h-20.893V46.25c2.293-0.188,3.285-0.373,3.285-2.232V22.32
		l-3.285-2.108v-1.922l13.824-3.72h2.48l-0.248,9.672c2.355-7.439,4.648-9.672,8.617-9.672c1.551,0,2.604,0.435,3.285,1.054v9.485
		h-1.611c-3.967,0-7.625,0.124-10.291,1.736V42.84z"/>
	<path d="M915.811,32.611c0-10.354,7.377-18.041,17.979-18.041s17.98,6.51,17.98,16.863c0,10.353-7.379,18.04-17.98,18.04
		S915.811,42.963,915.811,32.611z M938.191,34.408c0-10.602-1.178-17.111-4.711-17.111c-3.287,0-4.092,4.588-4.092,12.338
		c0,10.602,1.178,17.111,4.711,17.111C937.385,46.746,938.191,42.158,938.191,34.408z"/>
	<path d="M970.494,42.84c0,2.727,1.363,2.914,4.836,3.41v2.604h-20.893V46.25c2.293-0.188,3.285-0.373,3.285-2.232V18.724h-4.402
		v-2.79l4.402-1.054v-0.496c0-9.857,7.006-14.073,15.375-14.073c7.131,0,10.291,2.418,10.291,6.386c0,1.798-0.99,3.348-2.418,4.029
		h-6.385c0.186-0.868,0.311-1.922,0.311-3.038c0-2.17-0.186-4.34-2.047-4.34c-1.736,0-2.355,1.364-2.355,3.721v8.121h7.068v3.534
		h-7.068V42.84z"/>
	<path d="M1001.061,22.32l-3.287-2.108v-1.922l13.826-3.72h2.48l-0.248,6.138c1.611-2.728,5.021-6.138,10.414-6.138
		c7.191,0,12.586,4.897,12.586,15.313c0,13.018-7.873,19.59-17.979,19.59c-2.232,0-4.092-0.371-5.021-1.053v8.43
		c0,2.17,1.115,2.232,4.588,2.543v2.604h-20.646v-2.604c2.295-0.186,3.287-0.373,3.287-2.232V22.32z M1023.812,33.539
		c0-8.431-2.977-11.53-7.129-11.53c-0.992,0-1.861,0.124-2.852,0.559v17.544c0,3.658,0.744,6.199,3.781,6.199
		C1021.768,46.311,1023.812,40.733,1023.812,33.539z"/>
	<path d="M1071.117,28.457v1.55h-19.652c0,6.819,3.844,11.159,9.299,11.159c3.906,0,6.883-1.303,9.238-4.34l1.303,0.805
		c-1.736,7.193-6.635,11.842-14.756,11.842c-9.238,0-16.615-5.889-16.615-16.738c0-11.222,7.998-18.165,17.174-18.165
		C1066.406,14.57,1071.117,20.335,1071.117,28.457z M1051.527,26.969h8.742c0-6.138-0.992-9.672-3.969-9.672
		C1053.201,17.297,1051.775,21.141,1051.527,26.969z"/>
	<path d="M1089.656,42.84c0,2.727,1.363,2.914,4.836,3.41v2.604H1073.6V46.25c2.293-0.188,3.285-0.373,3.285-2.232V22.32
		l-3.285-2.108v-1.922l13.824-3.72h2.48l-0.248,9.672c2.355-7.439,4.648-9.672,8.617-9.672c1.551,0,2.604,0.435,3.285,1.054v9.485
		h-1.611c-3.967,0-7.625,0.124-10.291,1.736V42.84z"/>
	<path d="M1104.041,46.311l-0.373-8.369h3.162c1.115,4.959,4.465,8.742,9.238,8.742c2.789,0,5.021-1.303,5.021-3.906
		c0-3.037-2.418-3.967-6.387-5.146c-7.191-2.107-11.096-5.206-11.096-11.716c0-7.378,5.578-11.346,13.328-11.346
		c4.277,0,8.246,1.116,10.912,2.852v7.44h-2.914c-0.621-3.906-3.41-7.502-7.688-7.502c-2.48,0-4.217,1.302-4.217,3.534
		c0,2.479,1.799,3.409,5.58,4.649c7.75,2.542,11.904,5.084,11.904,12.213c0,7.502-5.643,11.717-14.322,11.717
		C1110.799,49.473,1106.83,48.233,1104.041,46.311z"/>
	<path d="M1169.262,41.475c0,2.109,0.186,3.162,1.984,3.162h1.426v2.729l-13.949,2.107h-2.418l0.186-6.076
		c-2.107,2.854-5.393,6.076-11.158,6.076c-5.58,0-9.549-3.348-9.549-10.602V24.179c0-1.735-0.434-3.161-2.17-3.72l-0.93-0.31v-2.48
		l13.887-3.1h2.357l-0.373,8.184v15.003c0,2.852,1.117,4.463,3.906,4.463c1.549,0,2.48-0.186,4.029-0.682V24.179
		c0-1.735-0.434-3.161-2.17-3.72l-0.93-0.31v-2.48l13.887-3.1h2.357l-0.373,8.184V41.475z"/>
	<path d="M1204.975,42.033c0,1.24,0.123,2.543,1.549,2.543c0.807,0,1.611-0.188,1.922-0.311l0.434,1.859
		c-2.17,1.984-4.896,3.348-8.617,3.348c-3.781,0-6.51-1.859-7.625-5.145c-1.736,2.664-4.588,4.896-9.176,4.896
		c-5.332,0-9.113-2.914-9.113-8.432c0-5.455,3.719-7.688,8.059-9.175l10.045-3.472v-6.819c0-2.479-0.621-4.154-2.666-4.154
		c-2.17,0-2.977,1.922-2.977,4.774c0,1.487,0.248,3.038,0.621,4.588l-7.689,0.991c-1.859-0.619-3.223-2.17-3.223-4.525
		c0-5.89,6.076-8.432,13.824-8.432c9.053,0,14.633,2.666,14.633,11.035V42.033z M1192.451,42.467V30.999l-2.48,0.93
		c-1.984,0.744-3.348,1.735-3.348,5.394c0,3.1,1.053,5.455,4.029,5.455C1191.334,42.778,1191.83,42.655,1192.451,42.467z"/>
	<path d="M1210.928,46.311l-0.373-8.369h3.162c1.115,4.959,4.465,8.742,9.238,8.742c2.789,0,5.021-1.303,5.021-3.906
		c0-3.037-2.418-3.967-6.387-5.146c-7.191-2.107-11.096-5.206-11.096-11.716c0-7.378,5.578-11.346,13.328-11.346
		c4.277,0,8.246,1.116,10.912,2.852v7.44h-2.914c-0.621-3.906-3.41-7.502-7.688-7.502c-2.48,0-4.217,1.302-4.217,3.534
		c0,2.479,1.799,3.409,5.58,4.649c7.75,2.542,11.904,5.084,11.904,12.213c0,7.502-5.643,11.717-14.322,11.717
		C1217.686,49.473,1213.717,48.233,1210.928,46.311z"/>
	<path d="M1256.373,44.018c0,1.859,0.992,2.045,3.285,2.232v2.604h-19.342V46.25c2.293-0.188,3.285-0.373,3.285-2.232V22.32
		l-3.285-2.108v-1.922l13.824-3.72h2.232V44.018z M1243.602,6.138c0-3.285,2.418-6.138,6.572-6.138c4.092,0,6.57,2.853,6.57,6.138
		c0,3.286-2.479,6.138-6.57,6.138C1246.02,12.276,1243.602,9.424,1243.602,6.138z"/>
	<path d="M1261.891,32.611c0-10.354,7.377-18.041,17.979-18.041s17.98,6.51,17.98,16.863c0,10.353-7.379,18.04-17.98,18.04
		S1261.891,42.963,1261.891,32.611z M1284.271,34.408c0-10.602-1.178-17.111-4.711-17.111c-3.287,0-4.092,4.588-4.092,12.338
		c0,10.602,1.178,17.111,4.711,17.111C1283.465,46.746,1284.271,42.158,1284.271,34.408z"/>
	<path d="M1324.943,25.853c0-2.294-0.744-3.844-3.844-3.844c-1.736,0-3.162,0.311-4.588,0.807v21.202c0,1.859,0.805,2.045,3.1,2.232
		v2.604h-19.156V46.25c2.293-0.188,3.285-0.373,3.285-2.232V22.32l-3.285-2.108v-1.922l13.824-3.72h2.48l-0.248,6.262
		c2.232-2.914,5.766-6.262,11.594-6.262c6.014,0,9.609,3.348,9.609,10.168v19.28c0,1.859,0.992,2.045,3.285,2.232v2.604h-19.156
		V46.25c2.293-0.188,3.1-0.373,3.1-2.232V25.853z"/>
</g>
</svg>
