<?xml version="1.0" encoding="utf-8"?>
<!-- Generator: Adobe Illustrator 16.0.0, SVG Export Plug-In . SVG Version: 6.00 Build 0)  -->
<!DOCTYPE svg PUBLIC "-//W3C//DTD SVG 1.1//EN" "http://www.w3.org/Graphics/SVG/1.1/DTD/svg11.dtd">
<svg version="1.1" id="Layer_1" xmlns="http://www.w3.org/2000/svg" xmlns:xlink="http://www.w3.org/1999/xlink" x="0px" y="0px"
	 width="1440px" height="62.68px" viewBox="-47.807 0 1440 62.68" enable-background="new -47.807 0 1440 62.68"
	 xml:space="preserve">
<g id="_x33_2">
	<g>
		<path d="M61.615,15.189h6.881v3.534h-6.881v20.521c0,2.666,1.054,3.844,3.162,3.844c1.488,0,2.914-0.558,4.34-1.55l0.992,1.55
			c-2.479,4.153-6.138,6.387-11.345,6.387c-5.952,0-10.105-2.977-10.105-10.416V18.724H45.31V16.43
			c5.27-1.86,10.105-5.519,13.577-9.855h2.728V15.189z"/>
		<path d="M74.512,6.882l-3.286-1.674V3.101l13.887-2.79h2.17v20.521c2.232-2.914,5.766-6.264,11.593-6.264
			c6.014,0,9.61,3.35,9.61,10.169v19.279c0,1.859,0.992,2.046,3.286,2.231v2.604H92.615V46.25c2.293-0.188,3.1-0.372,3.1-2.231
			V25.853c0-2.294-0.744-3.845-3.844-3.845c-1.736,0-3.162,0.312-4.588,0.808v21.202c0,1.859,0.806,2.046,3.1,2.231v2.604H71.226
			V46.25c2.294-0.188,3.286-0.372,3.286-2.231V6.882z"/>
		<path d="M129.69,44.018c0,1.859,0.992,2.046,3.286,2.231v2.604h-19.343V46.25c2.294-0.188,3.286-0.372,3.286-2.231v-21.7
			l-3.286-2.106V18.29l13.825-3.722h2.232V44.018z M116.919,6.138c0-3.285,2.418-6.138,6.572-6.138c4.092,0,6.572,2.854,6.572,6.139
			s-2.48,6.138-6.572,6.138C119.337,12.275,116.919,9.424,116.919,6.138z"/>
		<path d="M159.821,25.853c0-2.294-0.744-3.845-3.844-3.845c-1.736,0-3.162,0.312-4.588,0.808v21.202c0,1.859,0.806,2.046,3.1,2.231
			v2.604h-19.156V46.25c2.294-0.188,3.286-0.372,3.286-2.231v-21.7l-3.286-2.106V18.29l13.825-3.722h2.48l-0.248,6.264
			c2.232-2.914,5.766-6.264,11.593-6.264c6.014,0,9.61,3.35,9.61,10.169v19.279c0,1.859,0.992,2.046,3.286,2.231v2.604h-19.157
			V46.25c2.293-0.188,3.1-0.372,3.1-2.231L159.821,25.853L159.821,25.853z"/>
		<path d="M185.613,36.206c-0.806,0.744-1.55,1.55-1.55,2.729c0,0.932,0.62,1.674,1.674,1.674h13.825
			c8.928,0,12.399,3.846,12.399,9.549c0,8.12-7.625,12.521-19.281,12.521c-10.167,0-16.491-2.604-16.491-7.503
			c0-3.036,3.1-4.34,5.704-4.587c-2.666-1.055-4.216-3.781-4.216-6.447c0-4.217,2.852-6.883,6.2-8.617
			c-3.472-1.61-6.014-4.4-6.014-8.987c0-7.562,6.51-11.968,15.499-11.968c2.542,0,4.402,0.372,6.014,0.808l11.346-0.247v4.463
			h-2.914l-3.534-0.124c2.294,1.552,3.782,3.906,3.782,7.007c0,6.942-6.634,10.786-15.251,10.786
			C190.449,37.26,187.907,36.95,185.613,36.206z M183.319,52.201c-0.248,0.312-0.31,0.99-0.31,1.674c0,3.597,4.03,5.643,9.857,5.643
			c5.394,0,10.415-1.179,10.415-4.959c0-1.61-0.992-2.354-2.976-2.354L183.319,52.201L183.319,52.201z M196.401,26.163
			c0-4.588-1.054-8.806-3.596-8.806c-2.48,0-3.162,2.914-3.162,8.186c0,4.896,1.116,9.052,3.596,9.052
			C195.781,34.594,196.401,31.742,196.401,26.163z"/>
		<path d="M224.797,32.61c0-10.354,7.378-18.041,17.979-18.041c10.602,0,17.979,6.512,17.979,16.863
			c0,10.354-7.377,18.041-17.979,18.041C232.175,49.474,224.797,42.964,224.797,32.61z M247.178,34.408
			c0-10.604-1.178-17.111-4.712-17.111c-3.286,0-4.091,4.588-4.091,12.338c0,10.604,1.178,17.111,4.711,17.111
			C246.372,46.746,247.178,42.158,247.178,34.408z"/>
		<path d="M279.48,42.84c0,2.729,1.364,2.914,4.836,3.41v2.604h-20.893V46.25c2.294-0.188,3.286-0.372,3.286-2.231V18.724h-4.402
			v-2.79l4.402-1.055v-0.496c0-9.856,7.005-14.072,15.375-14.072c7.129,0,10.292,2.418,10.292,6.388
			c0,1.798-0.992,3.348-2.418,4.027h-6.386c0.186-0.868,0.31-1.922,0.31-3.038c0-2.17-0.186-4.34-2.046-4.34
			c-1.736,0-2.356,1.363-2.356,3.721v8.121h7.068v3.534h-7.068V42.84L279.48,42.84z"/>
		<path d="M305.831,5.208V3.101l13.887-2.79h2.17v20.396c1.612-2.729,5.021-6.14,10.416-6.14c7.191,0,12.585,4.896,12.585,15.312
			c0,13.02-8.369,19.592-19.156,19.592c-5.767,0-12.399-0.992-16.615-4.217V6.882L305.831,5.208z M331.869,33.54
			c0-8.434-2.977-11.531-7.13-11.531c-0.992,0-1.86,0.124-2.853,0.56v17.547c0,3.655,0.744,6.197,3.782,6.197
			C329.823,46.312,331.869,40.732,331.869,33.54z"/>
		<path d="M379.174,28.457v1.55h-19.65c0,6.819,3.844,11.159,9.299,11.159c3.903,0,6.881-1.302,9.234-4.34l1.305,0.806
			c-1.736,7.192-6.637,11.843-14.758,11.843c-9.234,0-16.612-5.891-16.612-16.739c0-11.222,7.998-18.164,17.173-18.164
			C374.462,14.569,379.174,20.335,379.174,28.457z M359.583,26.969h8.741c0-6.138-0.992-9.672-3.968-9.672
			C361.257,17.297,359.831,21.141,359.583,26.969z"/>
		<path d="M412.033,42.034c0,1.237,0.124,2.542,1.55,2.542c0.806,0,1.612-0.188,1.922-0.312l0.437,1.859
			c-2.173,1.981-4.897,3.349-8.617,3.349c-3.782,0-6.512-1.859-7.626-5.146c-1.736,2.665-4.587,4.896-9.177,4.896
			c-5.33,0-9.111-2.914-9.111-8.433c0-5.456,3.72-7.688,8.06-9.176l10.043-3.474v-6.817c0-2.479-0.62-4.154-2.666-4.154
			c-2.17,0-2.976,1.922-2.976,4.772c0,1.487,0.248,3.038,0.62,4.59l-7.688,0.989c-1.857-0.619-3.224-2.17-3.224-4.523
			c0-5.892,6.076-8.434,13.826-8.434c9.051,0,14.631,2.666,14.631,11.035L412.033,42.034L412.033,42.034z M399.509,42.468V30.999
			l-2.479,0.931c-1.984,0.743-3.351,1.734-3.351,5.396c0,3.1,1.057,5.456,4.03,5.456C398.395,42.778,398.89,42.655,399.509,42.468z"
			/>
		<path d="M453.014,41.476c0,2.107,0.188,3.162,1.984,3.162h1.426v2.729l-13.949,2.106h-2.418l0.188-6.076
			c-2.108,2.854-5.396,6.076-11.16,6.076c-5.58,0-9.547-3.349-9.547-10.603V24.179c0-1.735-0.437-3.161-2.17-3.721l-0.933-0.312
			v-2.479l13.89-3.102h2.354l-0.372,8.186v15.003c0,2.854,1.116,4.465,3.906,4.465c1.55,0,2.479-0.187,4.03-0.683V24.179
			c0-1.735-0.437-3.161-2.17-3.721l-0.933-0.312v-2.479l13.89-3.102h2.354l-0.372,8.186L453.014,41.476L453.014,41.476z"/>
		<path d="M473.909,15.189h6.881v3.534h-6.881v20.521c0,2.666,1.054,3.844,3.162,3.844c1.485,0,2.914-0.558,4.34-1.55l0.992,1.55
			c-2.479,4.153-6.141,6.387-11.348,6.387c-5.95,0-10.104-2.977-10.104-10.416V18.724h-3.349V16.43
			c5.271-1.86,10.104-5.519,13.575-9.855h2.729L473.909,15.189L473.909,15.189z"/>
		<path d="M511.604,21.823c0.312-0.868,0.496-1.304,0.496-1.86c0-1.302-0.742-1.734-4.027-2.17v-2.604h11.593v2.604
			c-2.108,0.684-2.604,1.116-3.162,2.479L502.12,53.999c-2.418,5.643-4.836,8.618-9.3,8.618c-2.542,0-4.401-0.992-5.332-2.479
			v-5.021c1.674,0.31,3.1,0.618,5.084,0.618c3.533,0,5.208-0.99,6.261-3.224l0.93-1.984l-14.507-30.254
			c-0.62-1.362-1.054-1.798-3.162-2.479V15.19h21.203v2.604c-3.286,0.436-4.029,0.868-4.029,2.17c0,0.56,0.188,0.992,0.436,1.736
			l6.076,14.631L511.604,21.823z"/>
		<path d="M532.995,32.61c0-10.354,7.378-18.041,17.979-18.041c10.604,0,17.979,6.512,17.979,16.863
			c0,10.354-7.377,18.041-17.979,18.041C540.373,49.474,532.995,42.964,532.995,32.61z M555.376,34.408
			c0-10.604-1.178-17.111-4.712-17.111c-3.286,0-4.091,4.588-4.091,12.338c0,10.604,1.178,17.111,4.711,17.111
			C554.57,46.746,555.376,42.158,555.376,34.408z"/>
		<path d="M587.678,42.84c0,2.729,1.364,2.914,4.836,3.41v2.604h-20.893V46.25c2.294-0.188,3.286-0.372,3.286-2.231V18.724h-4.402
			v-2.79l4.402-1.055v-0.496c0-9.856,7.005-14.072,15.375-14.072c7.129,0,10.292,2.418,10.292,6.388
			c0,1.798-0.992,3.348-2.418,4.027h-6.389c0.188-0.868,0.312-1.922,0.312-3.038c0-2.17-0.188-4.34-2.046-4.34
			c-1.736,0-2.356,1.363-2.356,3.721v8.121h7.068v3.534h-7.068V42.84L587.678,42.84z"/>
		<path d="M638.331,25.853c0-2.294-0.744-3.845-3.844-3.845c-1.736,0-3.162,0.312-4.589,0.808v21.202
			c0,1.859,0.807,2.046,3.101,2.231v2.604h-19.157V46.25c2.294-0.188,3.286-0.372,3.286-2.231v-21.7l-3.286-2.106V18.29
			l13.825-3.722h2.479l-0.248,6.264c2.23-2.914,5.767-6.264,11.594-6.264c6.014,0,9.606,3.35,9.606,10.169v19.279
			c0,1.859,0.992,2.046,3.286,2.231v2.604H635.23V46.25c2.293-0.188,3.1-0.372,3.1-2.231L638.331,25.853L638.331,25.853z"/>
		<path d="M686.318,42.034c0,1.237,0.125,2.542,1.551,2.542c0.805,0,1.611-0.188,1.922-0.312l0.434,1.859
			c-2.17,1.981-4.895,3.349-8.613,3.349c-3.783,0-6.514-1.859-7.627-5.146c-1.735,2.665-4.591,4.896-9.175,4.896
			c-5.332,0-9.113-2.914-9.113-8.433c0-5.456,3.721-7.688,8.061-9.176l10.042-3.474v-6.817c0-2.479-0.619-4.154-2.667-4.154
			c-2.17,0-2.975,1.922-2.975,4.772c0,1.487,0.248,3.038,0.619,4.59l-7.688,0.989c-1.857-0.619-3.225-2.17-3.225-4.523
			c0-5.892,6.076-8.434,13.827-8.434c9.051,0,14.631,2.666,14.631,11.035v16.435h-0.004V42.034z M673.794,42.468V30.999l-2.48,0.931
			c-1.981,0.743-3.35,1.734-3.35,5.396c0,3.1,1.057,5.456,4.031,5.456C672.679,42.778,673.175,42.655,673.794,42.468z"/>
		<path d="M706.716,15.189h6.883v3.534h-6.883v20.521c0,2.666,1.057,3.844,3.162,3.844c1.488,0,2.914-0.558,4.34-1.55l0.992,1.55
			c-2.48,4.153-6.139,6.387-11.346,6.387c-5.951,0-10.105-2.977-10.105-10.416V18.724h-3.348V16.43
			c5.27-1.86,10.104-5.519,13.578-9.855h2.727V15.189z"/>
		<path d="M752.41,41.476c0,2.107,0.186,3.162,1.984,3.162h1.426v2.729l-13.949,2.106h-2.418l0.186-6.076
			c-2.104,2.854-5.393,6.076-11.158,6.076c-5.574,0-9.549-3.349-9.549-10.603V24.179c0-1.735-0.434-3.161-2.168-3.721l-0.93-0.312
			v-2.479l13.885-3.102h2.357l-0.373,8.186v15.003c0,2.854,1.117,4.465,3.906,4.465c1.549,0,2.48-0.187,4.029-0.683V24.179
			c0-1.735-0.434-3.161-2.17-3.721l-0.93-0.312v-2.479l13.887-3.102h2.357l-0.373,8.186V41.476L752.41,41.476z"/>
		<path d="M774.111,42.84c0,2.729,1.363,2.914,4.836,3.41v2.604h-20.893V46.25c2.293-0.188,3.285-0.372,3.285-2.231v-21.7
			l-3.285-2.106V18.29l13.824-3.722h2.479l-0.246,9.674c2.354-7.439,4.645-9.674,8.611-9.674c1.557,0,2.605,0.437,3.285,1.056v9.483
			H784.4c-3.971,0-7.625,0.124-10.291,1.735V42.84H774.111z"/>
		<path d="M818.75,28.457v1.55h-19.652c0,6.819,3.85,11.159,9.305,11.159c3.9,0,6.881-1.302,9.232-4.34l1.303,0.806
			c-1.732,7.192-6.635,11.843-14.756,11.843c-9.232,0-16.609-5.891-16.609-16.739c0-11.222,7.992-18.164,17.172-18.164
			C814.039,14.569,818.75,20.335,818.75,28.457z M799.158,26.969h8.742c0-6.138-0.992-9.672-3.967-9.672
			C800.832,17.297,799.406,21.141,799.158,26.969z"/>
		<path d="M832.886,32.61c0-10.354,7.377-18.041,17.979-18.041s17.979,6.512,17.979,16.863c0,10.354-7.377,18.041-17.979,18.041
			S832.886,42.964,832.886,32.61z M855.267,34.408c0-10.604-1.18-17.111-4.713-17.111c-3.285,0-4.092,4.588-4.092,12.338
			c0,10.604,1.178,17.111,4.713,17.111C854.46,46.746,855.267,42.158,855.267,34.408z"/>
		<path d="M887.568,42.84c0,2.729,1.363,2.914,4.836,3.41v2.604h-20.893V46.25c2.293-0.188,3.285-0.372,3.285-2.231V18.724h-4.402
			v-2.79l4.402-1.055v-0.496c0-9.856,7.006-14.072,15.375-14.072c7.131,0,10.291,2.418,10.291,6.388c0,1.798-0.99,3.348-2.418,4.027
			h-6.385c0.186-0.868,0.311-1.922,0.311-3.038c0-2.17-0.186-4.34-2.047-4.34c-1.736,0-2.355,1.363-2.355,3.721v8.121h7.068v3.534
			h-7.068V42.84L887.568,42.84z"/>
		<path d="M957.687,25.667c0-2.294-0.744-3.72-3.348-3.72c-1.611,0-2.852,0.434-4.215,0.93v21.142c0,1.859,0.557,2.046,2.852,2.231
			v2.604h-18.475V46.25c2.293-0.188,2.852-0.372,2.852-2.231V25.667c0-2.294-0.744-3.72-3.348-3.72c-1.613,0-2.852,0.37-4.217,0.866
			v21.202c0,1.859,0.559,2.046,2.852,2.231v2.604h-18.908V46.25c2.295-0.188,3.285-0.372,3.285-2.231v-21.7l-3.285-2.106V18.29
			l13.826-3.722h2.479l-0.248,6.388c2.17-3.41,5.643-6.388,11.283-6.388c4.836,0,7.998,1.86,8.805,6.512
			c2.107-3.35,5.951-6.512,11.406-6.512c5.766,0,9.176,3.286,9.176,9.732v19.716c0,1.859,0.992,2.046,3.287,2.231v2.604h-18.91
			V46.25c2.295-0.188,2.852-0.372,2.852-2.231V25.667L957.687,25.667z"/>
		<path d="M1005.675,42.034c0,1.237,0.125,2.542,1.551,2.542c0.805,0,1.611-0.188,1.922-0.312l0.434,1.859
			c-2.17,1.981-4.898,3.349-8.617,3.349c-3.783,0-6.51-1.859-7.627-5.146c-1.734,2.665-4.588,4.896-9.174,4.896
			c-5.332,0-9.115-2.914-9.115-8.433c0-5.456,3.721-7.688,8.062-9.176l10.043-3.474v-6.817c0-2.479-0.619-4.154-2.666-4.154
			c-2.17,0-2.977,1.922-2.977,4.772c0,1.487,0.248,3.038,0.619,4.59l-7.688,0.989c-1.859-0.619-3.229-2.17-3.229-4.523
			c0-5.892,6.076-8.434,13.826-8.434c9.051,0,14.631,2.666,14.631,11.035v16.435h0.004V42.034z M993.152,42.468V30.999l-2.48,0.931
			c-1.979,0.743-3.348,1.734-3.348,5.396c0,3.1,1.055,5.456,4.031,5.456C992.037,42.778,992.533,42.655,993.152,42.468z"/>
		<path d="M1035.312,25.853c0-2.294-0.744-3.845-3.844-3.845c-1.736,0-3.162,0.312-4.588,0.808v21.202
			c0,1.859,0.805,2.046,3.1,2.231v2.604h-19.156V46.25c2.293-0.188,3.285-0.372,3.285-2.231v-21.7l-3.285-2.106V18.29l13.824-3.722
			h2.48l-0.248,6.264c2.232-2.914,5.766-6.264,11.594-6.264c6.014,0,9.609,3.35,9.609,10.169v19.279
			c0,1.859,0.992,2.046,3.285,2.231v2.604h-19.156V46.25c2.293-0.188,3.1-0.372,3.1-2.231V25.853L1035.312,25.853z"/>
		<path d="M1064.886,32.61c0-10.354,7.377-18.041,17.979-18.041s17.979,6.512,17.979,16.863c0,10.354-7.377,18.041-17.979,18.041
			S1064.886,42.964,1064.886,32.61z M1087.267,34.408c0-10.604-1.18-17.111-4.713-17.111c-3.285,0-4.092,4.588-4.092,12.338
			c0,10.604,1.178,17.111,4.713,17.111C1086.46,46.746,1087.267,42.158,1087.267,34.408z"/>
		<path d="M1119.568,42.84c0,2.729,1.363,2.914,4.836,3.41v2.604h-20.893V46.25c2.293-0.188,3.285-0.372,3.285-2.231V18.724h-4.402
			v-2.79l4.402-1.055v-0.496c0-9.856,7.006-14.072,15.375-14.072c7.131,0,10.291,2.418,10.291,6.388c0,1.798-0.99,3.348-2.418,4.027
			h-6.385c0.186-0.868,0.311-1.922,0.311-3.038c0-2.17-0.186-4.34-2.047-4.34c-1.736,0-2.355,1.363-2.355,3.721v8.121h7.068v3.534
			h-7.068V42.84L1119.568,42.84z"/>
		<path d="M1144.988,46.312l-0.371-8.369h3.162c1.115,4.959,4.463,8.741,9.236,8.741c2.791,0,5.021-1.303,5.021-3.904
			c0-3.037-2.418-3.969-6.385-5.146c-7.191-2.106-11.104-5.207-11.104-11.717c0-7.378,5.58-11.348,13.33-11.348
			c4.277,0,8.244,1.116,10.91,2.854v7.438h-2.914c-0.619-3.904-3.408-7.502-7.688-7.502c-2.479,0-4.215,1.304-4.215,3.534
			c0,2.479,1.797,3.408,5.58,4.648c7.748,2.542,11.902,5.084,11.902,12.213c0,7.502-5.643,11.719-14.32,11.719
			C1151.746,49.474,1147.779,48.233,1144.988,46.312z"/>
		<path d="M1189.628,15.189h6.881v3.534h-6.881v20.521c0,2.666,1.053,3.844,3.162,3.844c1.486,0,2.912-0.558,4.338-1.55l0.992,1.55
			c-2.48,4.153-6.137,6.387-11.344,6.387c-5.953,0-10.105-2.977-10.105-10.416V18.724h-3.35V16.43
			c5.27-1.86,10.104-5.519,13.578-9.855h2.729V15.189z"/>
		<path d="M1230.238,28.457v1.55h-19.652c0,6.819,3.844,11.159,9.299,11.159c3.906,0,6.881-1.302,9.238-4.34l1.301,0.806
			c-1.73,7.192-6.633,11.843-14.754,11.843c-9.238,0-16.615-5.891-16.615-16.739c0-11.222,7.996-18.164,17.172-18.164
			C1225.527,14.569,1230.238,20.335,1230.238,28.457z M1210.646,26.969h8.742c0-6.138-0.992-9.672-3.967-9.672
			C1212.32,17.297,1210.894,21.141,1210.646,26.969z"/>
		<path d="M1264.398,28.457v1.55h-19.652c0,6.819,3.844,11.159,9.299,11.159c3.906,0,6.883-1.302,9.238-4.34l1.303,0.806
			c-1.736,7.192-6.635,11.843-14.756,11.843c-9.238,0-16.615-5.891-16.615-16.739c0-11.222,7.998-18.164,17.174-18.164
			C1259.687,14.569,1264.398,20.335,1264.398,28.457z M1244.808,26.969h8.742c0-6.138-0.992-9.672-3.969-9.672
			C1246.482,17.297,1245.056,21.141,1244.808,26.969z"/>
		<path d="M1282.378,44.018c0,1.859,0.992,2.046,3.287,2.231v2.604h-19.344V46.25c2.295-0.188,3.285-0.372,3.285-2.231V6.882
			l-3.285-1.674V3.101l13.887-2.79h2.17V44.018z"/>
	</g>
</g>
</svg>
