<?xml version="1.0" encoding="utf-8"?>
<!-- Generator: Adobe Illustrator 16.0.0, SVG Export Plug-In . SVG Version: 6.00 Build 0)  -->
<!DOCTYPE svg PUBLIC "-//W3C//DTD SVG 1.1//EN" "http://www.w3.org/Graphics/SVG/1.1/DTD/svg11.dtd">
<svg version="1.1" id="_x33_3" xmlns="http://www.w3.org/2000/svg" xmlns:xlink="http://www.w3.org/1999/xlink" x="0px" y="0px"
	 width="1440px" height="62.68px" viewBox="0 0 1440 62.68" enable-background="new 0 0 1440 62.68" xml:space="preserve">
<g>
	<path d="M329.858,17.794c-2.108,0.682-2.542,1.115-3.162,2.48l-13.019,28.765h-3.658L295.45,20.274
		c-0.682-1.365-1.054-1.799-3.162-2.48V15.19h21.203v2.604c-3.286,0.434-4.03,0.867-4.03,2.17c0,0.559,0.124,0.867,0.496,1.736
		l6.2,13.142l5.642-13.142c0.372-0.869,0.496-1.178,0.496-1.736c0-1.303-0.744-1.736-4.03-2.17V15.19h11.593V17.794z"/>
	<path d="M359.433,42.033c0,1.24,0.124,2.543,1.55,2.543c0.806,0,1.612-0.188,1.922-0.311l0.434,1.859
		c-2.17,1.984-4.897,3.348-8.617,3.348c-3.782,0-6.51-1.859-7.626-5.145c-1.736,2.664-4.587,4.896-9.175,4.896
		c-5.332,0-9.113-2.914-9.113-8.432c0-5.455,3.72-7.688,8.06-9.175l10.043-3.471v-6.82c0-2.479-0.62-4.154-2.666-4.154
		c-2.17,0-2.976,1.922-2.976,4.775c0,1.486,0.248,3.037,0.62,4.588l-7.688,0.99c-1.86-0.619-3.224-2.17-3.224-4.525
		c0-5.889,6.076-8.432,13.826-8.432c9.051,0,14.631,2.666,14.631,11.035V42.033z M346.909,42.467V30.999l-2.479,0.929
		c-1.984,0.744-3.348,1.736-3.348,5.395c0,3.1,1.054,5.455,4.03,5.455C345.793,42.778,346.29,42.655,346.909,42.467z"/>
	<path d="M380.389,44.018c0,1.859,0.992,2.045,3.286,2.232v2.604h-19.343V46.25c2.294-0.188,3.286-0.373,3.286-2.232V6.882
		l-3.286-1.674V3.1l13.887-2.789h2.17V44.018z"/>
	<path d="M417.092,28.458v1.549h-19.653c0,6.82,3.844,11.16,9.299,11.16c3.906,0,6.881-1.303,9.237-4.34l1.302,0.805
		c-1.736,7.193-6.634,11.842-14.755,11.842c-9.237,0-16.615-5.889-16.615-16.738c0-11.222,7.998-18.166,17.173-18.166
		C412.38,14.569,417.092,20.335,417.092,28.458z M397.501,26.969h8.741c0-6.139-0.992-9.672-3.968-9.672
		C399.175,17.298,397.749,21.141,397.501,26.969z"/>
	<path d="M431.228,32.61c0-10.353,7.378-18.041,17.979-18.041c10.602,0,17.979,6.51,17.979,16.863
		c0,10.353-7.377,18.041-17.979,18.041C438.606,49.473,431.228,42.963,431.228,32.61z M453.609,34.408
		c0-10.601-1.178-17.111-4.712-17.111c-3.286,0-4.091,4.588-4.091,12.338c0,10.601,1.178,17.111,4.711,17.111
		C452.803,46.746,453.609,42.158,453.609,34.408z"/>
	<path d="M485.911,42.84c0,2.727,1.364,2.914,4.836,3.41v2.604h-20.893V46.25c2.294-0.188,3.286-0.373,3.286-2.232V18.723h-4.402
		v-2.789l4.402-1.055v-0.496c0-9.857,7.005-14.072,15.375-14.072c7.129,0,10.292,2.418,10.292,6.385
		c0,1.799-0.992,3.348-2.418,4.029h-6.386c0.186-0.867,0.31-1.922,0.31-3.037c0-2.17-0.186-4.34-2.046-4.34
		c-1.736,0-2.356,1.363-2.356,3.721v8.121h7.068v3.533h-7.068V42.84z"/>
	<path d="M528.877,15.19h6.881v3.533h-6.881v20.521c0,2.666,1.054,3.844,3.162,3.844c1.488,0,2.914-0.559,4.34-1.551l0.992,1.551
		c-2.479,4.152-6.138,6.385-11.345,6.385c-5.952,0-10.105-2.975-10.105-10.416V18.723h-3.348V16.43
		c5.27-1.861,10.105-5.518,13.577-9.857h2.728V15.19z"/>
	<path d="M569.486,28.458v1.549h-19.653c0,6.82,3.844,11.16,9.299,11.16c3.906,0,6.881-1.303,9.237-4.34l1.302,0.805
		c-1.736,7.193-6.634,11.842-14.755,11.842c-9.237,0-16.615-5.889-16.615-16.738c0-11.222,7.998-18.166,17.173-18.166
		C564.774,14.569,569.486,20.335,569.486,28.458z M549.896,26.969h8.741c0-6.139-0.992-9.672-3.968-9.672
		C551.569,17.298,550.143,21.141,549.896,26.969z"/>
	<path d="M602.345,42.033c0,1.24,0.124,2.543,1.55,2.543c0.806,0,1.612-0.188,1.922-0.311l0.434,1.859
		c-2.17,1.984-4.897,3.348-8.617,3.348c-3.782,0-6.51-1.859-7.626-5.145c-1.736,2.664-4.587,4.896-9.175,4.896
		c-5.332,0-9.113-2.914-9.113-8.432c0-5.455,3.72-7.688,8.06-9.175l10.043-3.471v-6.82c0-2.479-0.62-4.154-2.666-4.154
		c-2.17,0-2.976,1.922-2.976,4.775c0,1.486,0.248,3.037,0.62,4.588l-7.688,0.99c-1.86-0.619-3.224-2.17-3.224-4.525
		c0-5.889,6.076-8.432,13.826-8.432c9.051,0,14.631,2.666,14.631,11.035V42.033z M589.821,42.467V30.999l-2.479,0.929
		c-1.984,0.744-3.348,1.736-3.348,5.395c0,3.1,1.054,5.455,4.03,5.455C588.706,42.778,589.202,42.655,589.821,42.467z"/>
	<path d="M623.549,42.84c0,2.727,1.364,2.914,4.836,3.41v2.604h-20.893V46.25c2.294-0.188,3.286-0.373,3.286-2.232V22.319
		l-3.286-2.107V18.29l13.825-3.721h2.48l-0.248,9.672c2.356-7.439,4.649-9.672,8.618-9.672c1.549,0,2.604,0.436,3.285,1.055v9.484
		h-1.611c-3.969,0-7.626,0.125-10.292,1.736V42.84z"/>
	<path d="M637.935,46.311l-0.373-8.369h3.162c1.116,4.959,4.464,8.742,9.238,8.742c2.789,0,5.021-1.303,5.021-3.906
		c0-3.037-2.418-3.967-6.386-5.146c-7.192-2.107-11.098-5.207-11.098-11.716c0-7.377,5.579-11.346,13.329-11.346
		c4.277,0,8.246,1.117,10.912,2.852v7.441h-2.914c-0.62-3.906-3.41-7.502-7.688-7.502c-2.48,0-4.217,1.301-4.217,3.533
		c0,2.48,1.799,3.41,5.58,4.65c7.75,2.541,11.904,5.084,11.904,12.212c0,7.502-5.643,11.717-14.322,11.717
		C644.692,49.473,640.724,48.233,637.935,46.311z"/>
	<path d="M678.978,32.61c0-10.353,7.377-18.041,17.979-18.041s17.979,6.51,17.979,16.863c0,10.353-7.377,18.041-17.979,18.041
		S678.978,42.963,678.978,32.61z M701.358,34.408c0-10.601-1.178-17.111-4.713-17.111c-3.285,0-4.091,4.588-4.091,12.338
		c0,10.601,1.178,17.111,4.712,17.111C700.552,46.746,701.358,42.158,701.358,34.408z"/>
	<path d="M733.66,42.84c0,2.727,1.364,2.914,4.836,3.41v2.604h-20.894V46.25c2.295-0.188,3.287-0.373,3.287-2.232V18.723h-4.402
		v-2.789l4.402-1.055v-0.496c0-9.857,7.005-14.072,15.375-14.072c7.129,0,10.291,2.418,10.291,6.385
		c0,1.799-0.992,3.348-2.418,4.029h-6.386c0.187-0.867,0.31-1.922,0.31-3.037c0-2.17-0.186-4.34-2.045-4.34
		c-1.736,0-2.356,1.363-2.356,3.721v8.121h7.067v3.533h-7.067V42.84z"/>
	<path d="M761.933,20.212V18.29l13.825-3.721h2.231v27.402c0,7.379-1.797,10.602-4.959,13.453c-3.844,3.41-6.758,4.713-11.346,6.51
		l-1.055-1.363l2.543-3.906c1.983-3.1,2.045-7.066,2.045-11.902V22.319L761.933,20.212z M765.032,6.137
		c0-3.285,2.418-6.137,6.572-6.137c4.092,0,6.571,2.852,6.571,6.137c0,3.287-2.479,6.139-6.571,6.139
		C767.45,12.276,765.032,9.425,765.032,6.137z"/>
	<path d="M782.64,32.61c0-10.353,7.377-18.041,17.979-18.041s17.979,6.51,17.979,16.863c0,10.353-7.377,18.041-17.979,18.041
		S782.64,42.963,782.64,32.61z M805.021,34.408c0-10.601-1.178-17.111-4.713-17.111c-3.285,0-4.091,4.588-4.091,12.338
		c0,10.601,1.178,17.111,4.712,17.111C804.214,46.746,805.021,42.158,805.021,34.408z"/>
	<path d="M847.8,21.823c0.31-0.867,0.496-1.301,0.496-1.859c0-1.303-0.744-1.736-4.03-2.17V15.19h11.593v2.604
		c-2.107,0.682-2.604,1.115-3.162,2.48l-14.383,33.724c-2.418,5.643-4.836,8.619-9.299,8.619c-2.542,0-4.402-0.992-5.332-2.48
		v-5.021c1.674,0.309,3.1,0.619,5.084,0.619c3.533,0,5.207-0.992,6.262-3.223l0.93-1.984L821.45,20.274
		c-0.619-1.365-1.053-1.799-3.161-2.48V15.19h21.202v2.604c-3.285,0.434-4.029,0.867-4.029,2.17c0,0.559,0.186,0.992,0.434,1.736
		l6.076,14.63L847.8,21.823z"/>
	<path d="M869.19,32.61c0-10.353,7.377-18.041,17.979-18.041s17.979,6.51,17.979,16.863c0,10.353-7.377,18.041-17.979,18.041
		S869.19,42.963,869.19,32.61z M891.571,34.408c0-10.601-1.178-17.111-4.713-17.111c-3.285,0-4.091,4.588-4.091,12.338
		c0,10.601,1.178,17.111,4.712,17.111C890.765,46.746,891.571,42.158,891.571,34.408z"/>
	<path d="M923.874,42.84c0,2.727,1.363,2.914,4.834,3.41v2.604h-20.893V46.25c2.295-0.188,3.287-0.373,3.287-2.232V18.723H906.7
		v-2.789l4.402-1.055v-0.496c0-9.857,7.006-14.072,15.375-14.072c7.129,0,10.291,2.418,10.291,6.385
		c0,1.799-0.992,3.348-2.418,4.029h-6.385c0.186-0.867,0.309-1.922,0.309-3.037c0-2.17-0.186-4.34-2.045-4.34
		c-1.736,0-2.355,1.363-2.355,3.721v8.121h7.066v3.533h-7.066V42.84z"/>
	<path d="M959.46,36.205c-0.805,0.744-1.549,1.551-1.549,2.729c0,0.93,0.619,1.674,1.674,1.674h13.824
		c8.928,0,12.4,3.844,12.4,9.547c0,8.123-7.627,12.523-19.281,12.523c-10.168,0-16.49-2.604-16.49-7.502
		c0-3.037,3.1-4.34,5.703-4.586c-2.666-1.055-4.217-3.783-4.217-6.449c0-4.215,2.852-6.881,6.201-8.617
		c-3.473-1.611-6.014-4.402-6.014-8.988c0-7.564,6.508-11.967,15.498-11.967c2.543,0,4.402,0.373,6.014,0.807l11.346-0.248v4.463
		h-2.914l-3.533-0.123c2.293,1.551,3.781,3.906,3.781,7.006c0,6.943-6.633,10.787-15.252,10.787
		C964.296,37.26,961.755,36.949,959.46,36.205z M957.167,52.201c-0.248,0.311-0.311,0.992-0.311,1.674
		c0,3.596,4.029,5.641,9.857,5.641c5.395,0,10.416-1.178,10.416-4.959c0-1.611-0.992-2.355-2.977-2.355H957.167z M970.247,26.163
		c0-4.588-1.053-8.803-3.596-8.803c-2.479,0-3.16,2.914-3.16,8.184c0,4.896,1.115,9.05,3.596,9.05
		C969.628,34.594,970.247,31.743,970.247,26.163z"/>
	<path d="M1003.046,44.018c0,1.859,0.992,2.045,3.287,2.232v2.604h-19.344V46.25c2.295-0.188,3.285-0.373,3.285-2.232V22.319
		l-3.285-2.107V18.29l13.826-3.721h2.23V44.018z M990.274,6.137c0-3.285,2.418-6.137,6.572-6.137c4.092,0,6.572,2.852,6.572,6.137
		c0,3.287-2.48,6.139-6.572,6.139C992.692,12.276,990.274,9.425,990.274,6.137z"/>
	<path d="M1044.274,17.794c-2.107,0.682-2.541,1.115-3.162,2.48l-13.018,28.765h-3.658l-14.57-28.765
		c-0.682-1.365-1.053-1.799-3.162-2.48V15.19h21.203v2.604c-3.285,0.434-4.029,0.867-4.029,2.17c0,0.559,0.125,0.867,0.496,1.736
		l6.199,13.142l5.643-13.142c0.371-0.869,0.496-1.178,0.496-1.736c0-1.303-0.744-1.736-4.031-2.17V15.19h11.594V17.794z"/>
	<path d="M1062.007,44.018c0,1.859,0.992,2.045,3.287,2.232v2.604h-19.344V46.25c2.295-0.188,3.285-0.373,3.285-2.232V22.319
		l-3.285-2.107V18.29l13.826-3.721h2.23V44.018z M1049.235,6.137c0-3.285,2.418-6.137,6.572-6.137c4.092,0,6.572,2.852,6.572,6.137
		c0,3.287-2.48,6.139-6.572,6.139C1051.653,12.276,1049.235,9.425,1049.235,6.137z"/>
	<path d="M1092.14,25.852c0-2.293-0.744-3.844-3.844-3.844c-1.736,0-3.162,0.311-4.588,0.807v21.203c0,1.859,0.805,2.045,3.1,2.232
		v2.604h-19.156V46.25c2.293-0.188,3.285-0.373,3.285-2.232V22.319l-3.285-2.107V18.29l13.824-3.721h2.48l-0.248,6.262
		c2.232-2.914,5.766-6.262,11.594-6.262c6.014,0,9.609,3.348,9.609,10.168v19.281c0,1.859,0.992,2.045,3.285,2.232v2.604h-19.156
		V46.25c2.293-0.188,3.1-0.373,3.1-2.232V25.852z"/>
	<path d="M1117.931,36.205c-0.805,0.744-1.549,1.551-1.549,2.729c0,0.93,0.619,1.674,1.674,1.674h13.824
		c8.928,0,12.4,3.844,12.4,9.547c0,8.123-7.627,12.523-19.281,12.523c-10.168,0-16.49-2.604-16.49-7.502
		c0-3.037,3.1-4.34,5.703-4.586c-2.666-1.055-4.217-3.783-4.217-6.449c0-4.215,2.852-6.881,6.201-8.617
		c-3.473-1.611-6.014-4.402-6.014-8.988c0-7.564,6.508-11.967,15.498-11.967c2.543,0,4.402,0.373,6.014,0.807l11.346-0.248v4.463
		h-2.914l-3.533-0.123c2.293,1.551,3.781,3.906,3.781,7.006c0,6.943-6.633,10.787-15.252,10.787
		C1122.767,37.26,1120.226,36.949,1117.931,36.205z M1115.638,52.201c-0.248,0.311-0.311,0.992-0.311,1.674
		c0,3.596,4.029,5.641,9.857,5.641c5.395,0,10.416-1.178,10.416-4.959c0-1.611-0.992-2.355-2.977-2.355H1115.638z M1128.718,26.163
		c0-4.588-1.053-8.803-3.596-8.803c-2.479,0-3.16,2.914-3.16,8.184c0,4.896,1.115,9.05,3.596,9.05
		C1128.099,34.594,1128.718,31.743,1128.718,26.163z"/>
</g>
</svg>
