<?xml version="1.0" encoding="utf-8"?>
<!-- Generator: Adobe Illustrator 16.0.0, SVG Export Plug-In . SVG Version: 6.00 Build 0)  -->
<!DOCTYPE svg PUBLIC "-//W3C//DTD SVG 1.1//EN" "http://www.w3.org/Graphics/SVG/1.1/DTD/svg11.dtd">
<svg version="1.1" id="_x33_7" xmlns="http://www.w3.org/2000/svg" xmlns:xlink="http://www.w3.org/1999/xlink" x="0px" y="0px"
	 width="1440px" height="62.68px" viewBox="0 0 1440 62.68" enable-background="new 0 0 1440 62.68" xml:space="preserve">
<g>
	<path d="M53.59,40.979c3.534,0,6.138-1.114,8.06-3.844l1.488,0.932c-2.046,7.996-7.315,11.406-14.507,11.406
		c-8.803,0-15.685-6.137-15.685-16.43c0-10.601,6.944-18.476,17.483-18.476c6.323,0,11.779,2.357,11.779,8.123
		c0,2.541-1.488,4.093-2.914,4.711h-6.386c0.186-1.487,0.248-2.666,0.248-3.721c0-3.719-0.992-6.137-3.72-6.137
		c-3.472,0-5.456,4.649-5.456,10.85C43.981,36.205,47.453,40.979,53.59,40.979z"/>
	<path d="M81.18,44.018c0,1.859,0.992,2.045,3.286,2.232v2.604H65.123V46.25c2.294-0.188,3.286-0.373,3.286-2.232V22.319
		l-3.286-2.106V18.29l13.825-3.722h2.232V44.018z M68.409,6.137C68.409,2.852,70.827,0,74.98,0c4.092,0,6.572,2.852,6.572,6.137
		c0,3.287-2.479,6.139-6.572,6.139C70.827,12.276,68.409,9.424,68.409,6.137z"/>
	<path d="M102.88,42.84c0,2.727,1.364,2.914,4.836,3.41v2.604H86.823V46.25c2.294-0.188,3.286-0.373,3.286-2.232V22.319
		l-3.286-2.106V18.29l13.825-3.722h2.48l-0.248,9.673c2.356-7.439,4.65-9.673,8.618-9.673c1.55,0,2.604,0.437,3.286,1.056v9.483
		h-1.612c-3.968,0-7.625,0.125-10.292,1.736V42.84z"/>
	<path d="M136.979,40.979c3.534,0,6.138-1.114,8.06-3.844l1.488,0.932c-2.046,7.996-7.315,11.406-14.507,11.406
		c-8.803,0-15.685-6.137-15.685-16.43c0-10.601,6.944-18.476,17.483-18.476c6.323,0,11.779,2.357,11.779,8.123
		c0,2.541-1.488,4.093-2.914,4.711h-6.386c0.186-1.487,0.248-2.666,0.248-3.721c0-3.719-0.992-6.137-3.72-6.137
		c-3.472,0-5.456,4.649-5.456,10.85C127.37,36.205,130.842,40.979,136.979,40.979z"/>
	<path d="M164.321,44.018c0,1.859,0.992,2.045,3.286,2.232v2.604h-19.343V46.25c2.294-0.188,3.286-0.373,3.286-2.232V6.881
		l-3.286-1.674V3.1l13.887-2.789h2.17V44.018z"/>
	<path d="M201.024,28.457v1.549h-19.653c0,6.82,3.844,11.16,9.299,11.16c3.906,0,6.881-1.303,9.237-4.34l1.302,0.805
		c-1.736,7.193-6.634,11.842-14.755,11.842c-9.237,0-16.615-5.889-16.615-16.738c0-11.223,7.998-18.166,17.173-18.166
		C196.312,14.569,201.024,20.334,201.024,28.457z M181.434,26.969h8.741c0-6.139-0.992-9.672-3.968-9.672
		C183.107,17.297,181.681,21.141,181.434,26.969z"/>
	<path d="M216.71,32.61c0-10.354,7.378-18.041,17.979-18.041c10.602,0,17.979,6.511,17.979,16.863
		c0,10.354-7.377,18.041-17.979,18.041C224.088,49.473,216.71,42.963,216.71,32.61z M239.091,34.408
		c0-10.603-1.178-17.111-4.712-17.111c-3.286,0-4.091,4.588-4.091,12.338c0,10.603,1.178,17.111,4.711,17.111
		C238.286,46.746,239.091,42.158,239.091,34.408z"/>
	<path d="M271.394,42.84c0,2.727,1.364,2.914,4.836,3.41v2.604h-20.893V46.25c2.294-0.188,3.286-0.373,3.286-2.232V18.723h-4.402
		v-2.789l4.402-1.055v-0.496c0-9.857,7.005-14.072,15.375-14.072c7.129,0,10.292,2.418,10.292,6.386
		c0,1.799-0.992,3.348-2.418,4.028h-6.386c0.186-0.867,0.31-1.922,0.31-3.037c0-2.17-0.186-4.34-2.046-4.34
		c-1.736,0-2.356,1.363-2.356,3.721v8.121h7.068v3.533h-7.068V42.84z"/>
	<path d="M316.777,42.84c0,2.727,1.363,2.914,4.836,3.41v2.604H300.72V46.25c2.294-0.188,3.286-0.373,3.286-2.232V18.723h-4.402
		v-2.789l4.402-1.055v-0.496c0-9.857,7.005-14.072,15.375-14.072c7.129,0,10.292,2.418,10.292,6.386
		c0,1.799-0.992,3.348-2.418,4.028h-6.386c0.186-0.867,0.31-1.922,0.31-3.037c0-2.17-0.186-4.34-2.046-4.34
		c-1.735,0-2.355,1.363-2.355,3.721v8.121h7.067v3.533h-7.067V42.84L316.777,42.84z"/>
	<path d="M341.02,42.84c0,2.727,1.363,2.914,4.836,3.41v2.604h-20.894V46.25c2.294-0.188,3.286-0.373,3.286-2.232V22.319
		l-3.286-2.106V18.29l13.825-3.722h2.479l-0.247,9.673c2.355-7.439,4.649-9.673,8.617-9.673c1.551,0,2.604,0.437,3.286,1.056v9.483
		h-1.612c-3.968,0-7.625,0.125-10.291,1.736V42.84z"/>
	<path d="M370.655,44.018c0,1.859,0.991,2.045,3.286,2.232v2.604h-19.344V46.25c2.294-0.188,3.286-0.373,3.286-2.232V22.319
		l-3.286-2.106V18.29l13.825-3.722h2.232V44.018z M357.884,6.137c0-3.285,2.417-6.137,6.571-6.137c4.092,0,6.572,2.852,6.572,6.137
		c0,3.287-2.48,6.139-6.572,6.139C360.301,12.276,357.884,9.424,357.884,6.137z"/>
	<path d="M407.357,28.457v1.549h-19.653c0,6.82,3.844,11.16,9.299,11.16c3.906,0,6.881-1.303,9.237-4.34l1.302,0.805
		c-1.736,7.193-6.634,11.842-14.755,11.842c-9.237,0-16.615-5.889-16.615-16.738c0-11.223,7.998-18.166,17.173-18.166
		C402.646,14.569,407.357,20.334,407.357,28.457z M387.767,26.969h8.741c0-6.139-0.992-9.672-3.968-9.672
		C389.44,17.297,388.014,21.141,387.767,26.969z"/>
	<path d="M434.327,25.852c0-2.293-0.744-3.844-3.844-3.844c-1.736,0-3.162,0.311-4.589,0.807v21.203
		c0,1.859,0.807,2.045,3.101,2.232v2.604h-19.157V46.25c2.294-0.188,3.286-0.373,3.286-2.232V22.319l-3.286-2.106V18.29
		l13.825-3.722h2.479l-0.248,6.263c2.232-2.914,5.767-6.263,11.594-6.263c6.014,0,9.609,3.349,9.609,10.169v19.28
		c0,1.859,0.992,2.045,3.286,2.232v2.604h-19.157V46.25c2.293-0.188,3.101-0.373,3.101-2.232V25.852z"/>
	<path d="M470.845,5.207V3.1l13.888-2.789h2.17v41.164c0,2.109,0.186,3.162,1.983,3.162h1.427v2.729l-13.949,2.106h-2.418
		l0.186-5.889c-2.542,3.967-5.952,5.889-10.104,5.889c-7.191,0-12.523-5.518-12.523-15.934c0-12.275,7.502-18.66,16.739-18.66
		c2.418,0,4.525,0.559,5.89,1.674V6.881L470.845,5.207z M464.396,29.822c0,7.625,2.604,12.709,7.006,12.709
		c0.867,0,1.798-0.123,2.728-0.435V24.49c0-3.781-0.744-5.767-3.72-5.767C466.319,18.723,464.396,23.125,464.396,29.822z"/>
	<path d="M493.352,46.311l-0.373-8.369h3.162c1.116,4.959,4.465,8.742,9.238,8.742c2.79,0,5.021-1.303,5.021-3.906
		c0-3.036-2.417-3.967-6.386-5.146c-7.191-2.107-11.098-5.207-11.098-11.717c0-7.377,5.58-11.347,13.329-11.347
		c4.277,0,8.246,1.117,10.912,2.853v7.441h-2.914c-0.62-3.906-3.41-7.503-7.688-7.503c-2.479,0-4.216,1.302-4.216,3.533
		c0,2.48,1.798,3.41,5.58,4.65c7.75,2.541,11.903,5.084,11.903,12.213c0,7.502-5.643,11.717-14.321,11.717
		C500.108,49.473,496.14,48.233,493.352,46.311z"/>
	<path d="M535.944,32.61c0-10.354,7.378-18.041,17.979-18.041c10.603,0,17.979,6.511,17.979,16.863
		c0,10.354-7.377,18.041-17.979,18.041C543.322,49.473,535.944,42.963,535.944,32.61z M558.325,34.408
		c0-10.603-1.179-17.111-4.712-17.111c-3.286,0-4.092,4.588-4.092,12.338c0,10.603,1.179,17.111,4.712,17.111
		C557.52,46.746,558.325,42.158,558.325,34.408z"/>
	<path d="M590.627,42.84c0,2.727,1.364,2.914,4.836,3.41v2.604H574.57V46.25c2.294-0.188,3.285-0.373,3.285-2.232V18.723h-4.401
		v-2.789l4.401-1.055v-0.496c0-9.857,7.006-14.072,15.375-14.072c7.13,0,10.293,2.418,10.293,6.386c0,1.799-0.992,3.348-2.418,4.028
		h-6.387c0.187-0.867,0.311-1.922,0.311-3.037c0-2.17-0.187-4.34-2.047-4.34c-1.735,0-2.355,1.363-2.355,3.721v8.121h7.068v3.533
		h-7.068V42.84z"/>
	<path d="M636.012,42.84c0,2.727,1.363,2.914,4.833,3.41v2.604h-20.892V46.25c2.294-0.188,3.286-0.373,3.286-2.232V18.723h-4.402
		v-2.789l4.402-1.055v-0.496c0-9.857,7.005-14.072,15.375-14.072c7.128,0,10.291,2.418,10.291,6.386
		c0,1.799-0.992,3.348-2.418,4.028h-6.384c0.186-0.867,0.308-1.922,0.308-3.037c0-2.17-0.185-4.34-2.044-4.34
		c-1.736,0-2.355,1.363-2.355,3.721v8.121h7.066v3.533h-7.066V42.84z"/>
	<path d="M660.251,42.84c0,2.727,1.365,2.914,4.836,3.41v2.604h-20.893V46.25c2.295-0.188,3.284-0.373,3.284-2.232V22.319
		l-3.284-2.106V18.29l13.825-3.722h2.479l-0.248,9.673c2.356-7.439,4.65-9.673,8.617-9.673c1.551,0,2.604,0.437,3.287,1.056v9.483
		h-1.611c-3.969,0-7.627,0.125-10.293,1.736V42.84z"/>
	<path d="M689.888,44.018c0,1.859,0.992,2.045,3.285,2.232v2.604h-19.342V46.25c2.293-0.188,3.285-0.373,3.285-2.232V22.319
		l-3.285-2.106V18.29l13.824-3.722h2.231L689.888,44.018L689.888,44.018z M677.117,6.137c0-3.285,2.418-6.137,6.572-6.137
		c4.092,0,6.569,2.852,6.569,6.137c0,3.287-2.479,6.139-6.569,6.139C679.535,12.276,677.117,9.424,677.117,6.137z"/>
	<path d="M726.589,28.457v1.549h-19.651c0,6.82,3.844,11.16,9.299,11.16c3.906,0,6.883-1.303,9.237-4.34l1.304,0.805
		c-1.736,7.193-6.636,11.842-14.756,11.842c-9.238,0-16.615-5.889-16.615-16.738c0-11.223,7.998-18.166,17.174-18.166
		C721.878,14.569,726.589,20.334,726.589,28.457z M707,26.969h8.742c0-6.139-0.992-9.672-3.969-9.672
		C708.673,17.297,707.248,21.141,707,26.969z"/>
	<path d="M753.561,25.852c0-2.293-0.744-3.844-3.845-3.844c-1.735,0-3.162,0.311-4.588,0.807v21.203
		c0,1.859,0.805,2.045,3.101,2.232v2.604h-19.156V46.25c2.293-0.188,3.285-0.373,3.285-2.232V22.319l-3.285-2.106V18.29
		l13.824-3.722h2.479l-0.248,6.263c2.231-2.914,5.766-6.263,11.594-6.263c6.015,0,9.609,3.349,9.609,10.169v19.28
		c0,1.859,0.992,2.045,3.285,2.232v2.604H750.46V46.25c2.293-0.188,3.101-0.373,3.101-2.232V25.852z"/>
	<path d="M790.078,5.207V3.1l13.887-2.789h2.17v41.164c0,2.109,0.188,3.162,1.984,3.162h1.426v2.729l-13.949,2.106h-2.418
		l0.187-5.889c-2.541,3.967-5.951,5.889-10.104,5.889c-7.192,0-12.522-5.518-12.522-15.934c0-12.275,7.5-18.66,16.737-18.66
		c2.418,0,4.525,0.559,5.89,1.674V6.881L790.078,5.207z M783.63,29.822c0,7.625,2.604,12.709,7.006,12.709
		c0.867,0,1.797-0.123,2.728-0.435V24.49c0-3.781-0.742-5.767-3.719-5.767C785.552,18.723,783.63,23.125,783.63,29.822z"/>
	<path d="M812.583,46.311l-0.371-8.369h3.162c1.115,4.959,4.463,8.742,9.236,8.742c2.791,0,5.021-1.303,5.021-3.906
		c0-3.036-2.418-3.967-6.385-5.146c-7.191-2.107-11.098-5.207-11.098-11.717c0-7.377,5.58-11.347,13.33-11.347
		c4.276,0,8.243,1.117,10.909,2.853v7.441h-2.914c-0.618-3.906-3.407-7.503-7.688-7.503c-2.479,0-4.215,1.302-4.215,3.533
		c0,2.48,1.797,3.41,5.58,4.65c7.747,2.541,11.901,5.084,11.901,12.213c0,7.502-5.641,11.717-14.32,11.717
		C819.341,49.473,815.375,48.233,812.583,46.311z"/>
	<path d="M855.177,32.61c0-10.354,7.377-18.041,17.979-18.041c10.602,0,17.979,6.511,17.979,16.863
		c0,10.354-7.379,18.041-17.979,18.041C862.555,49.473,855.177,42.963,855.177,32.61z M877.558,34.408
		c0-10.603-1.178-17.111-4.711-17.111c-3.286,0-4.092,4.588-4.092,12.338c0,10.603,1.178,17.111,4.711,17.111
		C876.751,46.746,877.558,42.158,877.558,34.408z"/>
	<path d="M909.861,42.84c0,2.727,1.362,2.914,4.834,3.41v2.604h-20.894V46.25c2.295-0.188,3.287-0.373,3.287-2.232V18.723h-4.401
		v-2.789l4.401-1.055v-0.496c0-9.857,7.006-14.072,15.375-14.072c7.129,0,10.291,2.418,10.291,6.386
		c0,1.799-0.992,3.348-2.418,4.028h-6.385c0.186-0.867,0.309-1.922,0.309-3.037c0-2.17-0.186-4.34-2.045-4.34
		c-1.735,0-2.354,1.363-2.354,3.721v8.121h7.065v3.533h-7.065V42.84z"/>
	<path d="M955.244,42.84c0,2.727,1.363,2.914,4.836,3.41v2.604h-20.893V46.25c2.293-0.188,3.284-0.373,3.284-2.232V18.723h-4.401
		v-2.789l4.401-1.055v-0.496c0-9.857,7.007-14.072,15.375-14.072c7.132,0,10.291,2.418,10.291,6.386
		c0,1.799-0.989,3.348-2.418,4.028h-6.385c0.187-0.867,0.312-1.922,0.312-3.037c0-2.17-0.187-4.34-2.048-4.34
		c-1.735,0-2.354,1.363-2.354,3.721v8.121h7.068v3.533h-7.068V42.84L955.244,42.84z"/>
	<path d="M993.498,42.033c0,1.239,0.123,2.543,1.549,2.543c0.807,0,1.611-0.188,1.922-0.312l0.435,1.859
		c-2.17,1.983-4.896,3.348-8.617,3.348c-3.781,0-6.51-1.858-7.625-5.145c-1.736,2.664-4.588,4.896-9.176,4.896
		c-5.332,0-9.113-2.914-9.113-8.432c0-5.455,3.719-7.688,8.059-9.176l10.046-3.472v-6.819c0-2.479-0.621-4.154-2.666-4.154
		c-2.171,0-2.978,1.922-2.978,4.774c0,1.486,0.248,3.037,0.621,4.589l-7.689,0.989c-1.858-0.618-3.223-2.17-3.223-4.524
		c0-5.89,6.076-8.433,13.824-8.433c9.053,0,14.633,2.666,14.633,11.035L993.498,42.033L993.498,42.033z M980.974,42.467V30.998
		l-2.479,0.93c-1.984,0.744-3.348,1.736-3.348,5.396c0,3.1,1.053,5.454,4.028,5.454C979.857,42.778,980.354,42.656,980.974,42.467z"
		/>
	<path d="M1042.599,25.666c0-2.293-0.743-3.719-3.348-3.719c-1.611,0-2.853,0.434-4.215,0.93v21.141
		c0,1.859,0.557,2.045,2.852,2.232v2.604h-18.475V46.25c2.293-0.188,2.853-0.373,2.853-2.232V25.666
		c0-2.293-0.744-3.719-3.349-3.719c-1.613,0-2.852,0.37-4.217,0.866v21.203c0,1.859,0.559,2.045,2.852,2.232v2.604h-18.907V46.25
		c2.295-0.188,3.284-0.373,3.284-2.232V22.319l-3.284-2.106V18.29l13.825-3.722h2.479l-0.248,6.388
		c2.17-3.41,5.643-6.388,11.283-6.388c4.836,0,7.998,1.861,8.805,6.511c2.107-3.349,5.951-6.511,11.406-6.511
		c5.766,0,9.176,3.287,9.176,9.734v19.715c0,1.859,0.992,2.045,3.287,2.232v2.604h-18.91V46.25c2.295-0.188,2.852-0.373,2.852-2.232
		L1042.599,25.666L1042.599,25.666z"/>
	<path d="M1076.576,44.018c0,1.859,0.992,2.045,3.287,2.232v2.604h-19.344V46.25c2.295-0.188,3.284-0.373,3.284-2.232V22.319
		l-3.284-2.106V18.29l13.825-3.722h2.23L1076.576,44.018L1076.576,44.018z M1063.804,6.137c0-3.285,2.418-6.137,6.572-6.137
		c4.092,0,6.572,2.852,6.572,6.137c0,3.287-2.48,6.139-6.572,6.139C1066.222,12.276,1063.804,9.424,1063.804,6.137z"/>
	<path d="M1098.027,44.018c0,1.859,0.991,2.045,3.287,2.232v2.604h-19.345V46.25c2.295-0.188,3.285-0.373,3.285-2.232V6.881
		l-3.285-1.674V3.1l13.888-2.789h2.17V44.018z"/>
	<path d="M1130.578,21.823c0.309-0.867,0.496-1.302,0.496-1.859c0-1.303-0.744-1.736-4.031-2.17V15.19h11.594v2.604
		c-2.106,0.682-2.604,1.115-3.162,2.479l-14.383,33.726c-2.418,5.643-4.836,8.619-9.299,8.619c-2.543,0-4.402-0.992-5.332-2.48
		v-5.021c1.674,0.309,3.1,0.618,5.084,0.618c3.533,0,5.207-0.991,6.262-3.223l0.931-1.983l-14.509-30.255
		c-0.619-1.364-1.053-1.799-3.162-2.479V15.19h21.203v2.604c-3.285,0.434-4.028,0.867-4.028,2.17c0,0.559,0.186,0.992,0.434,1.736
		l6.076,14.631L1130.578,21.823z"/>
	<path d="M1151.287,32.61c0-10.354,7.377-18.041,17.979-18.041c10.603,0,17.979,6.511,17.979,16.863
		c0,10.354-7.377,18.041-17.979,18.041C1158.664,49.473,1151.287,42.963,1151.287,32.61z M1173.667,34.408
		c0-10.603-1.18-17.111-4.713-17.111c-3.285,0-4.092,4.588-4.092,12.338c0,10.603,1.178,17.111,4.713,17.111
		C1172.861,46.746,1173.667,42.158,1173.667,34.408z"/>
	<path d="M1205.968,42.84c0,2.727,1.363,2.914,4.836,3.41v2.604h-20.893V46.25c2.293-0.188,3.285-0.373,3.285-2.232V18.723h-4.402
		v-2.789l4.402-1.055v-0.496c0-9.857,7.006-14.072,15.375-14.072c7.131,0,10.291,2.418,10.291,6.386c0,1.799-0.99,3.348-2.418,4.028
		h-6.385c0.186-0.867,0.311-1.922,0.311-3.037c0-2.17-0.186-4.34-2.047-4.34c-1.736,0-2.354,1.363-2.354,3.721v8.121h7.067v3.533
		h-7.067L1205.968,42.84L1205.968,42.84z"/>
	<path d="M1251.354,42.84c0,2.727,1.362,2.914,4.834,3.41v2.604h-20.894V46.25c2.295-0.188,3.287-0.373,3.287-2.232V18.723h-4.402
		v-2.789l4.402-1.055v-0.496c0-9.857,7.006-14.072,15.375-14.072c7.129,0,10.291,2.418,10.291,6.386
		c0,1.799-0.992,3.348-2.418,4.028h-6.385c0.186-0.867,0.309-1.922,0.309-3.037c0-2.17-0.186-4.34-2.045-4.34
		c-1.736,0-2.354,1.363-2.354,3.721v8.121h7.065v3.533h-7.065V42.84z"/>
	<path d="M1295.371,41.475c0,2.109,0.186,3.162,1.984,3.162h1.426v2.729l-13.949,2.106h-2.418l0.186-6.076
		c-2.106,2.854-5.393,6.076-11.157,6.076c-5.58,0-9.549-3.348-9.549-10.602V24.178c0-1.734-0.435-3.16-2.171-3.719l-0.93-0.312
		v-2.479l13.887-3.101h2.357l-0.373,8.185v15.004c0,2.852,1.117,4.463,3.906,4.463c1.549,0,2.479-0.186,4.029-0.682V24.178
		c0-1.734-0.435-3.16-2.171-3.719l-0.93-0.312v-2.479l13.887-3.101h2.357l-0.373,8.185L1295.371,41.475L1295.371,41.475z"/>
	<path d="M1325.503,25.852c0-2.293-0.744-3.844-3.844-3.844c-1.736,0-3.162,0.311-4.588,0.807v21.203c0,1.859,0.805,2.045,3.1,2.232
		v2.604h-19.156V46.25c2.293-0.188,3.285-0.373,3.285-2.232V22.319l-3.285-2.106V18.29l13.824-3.722h2.48l-0.248,6.263
		c2.231-2.914,5.766-6.263,11.594-6.263c6.014,0,9.608,3.349,9.608,10.169v19.28c0,1.859,0.992,2.045,3.285,2.232v2.604h-19.155
		V46.25c2.293-0.188,3.1-0.373,3.1-2.232V25.852L1325.503,25.852z"/>
	<path d="M1362.021,5.207V3.1l13.887-2.789h2.17v41.164c0,2.109,0.186,3.162,1.984,3.162h1.426v2.729l-13.949,2.106h-2.418
		l0.186-5.889c-2.541,3.967-5.95,5.889-10.104,5.889c-7.191,0-12.522-5.518-12.522-15.934c0-12.275,7.502-18.66,16.737-18.66
		c2.418,0,4.527,0.559,5.892,1.674V6.881L1362.021,5.207z M1355.572,29.822c0,7.625,2.604,12.709,7.006,12.709
		c0.869,0,1.799-0.123,2.729-0.435V24.49c0-3.781-0.744-5.767-3.721-5.767C1357.494,18.723,1355.572,23.125,1355.572,29.822z"/>
	<path d="M1384.527,46.311l-0.373-8.369h3.162c1.114,4.959,4.465,8.742,9.237,8.742c2.789,0,5.021-1.303,5.021-3.906
		c0-3.036-2.418-3.967-6.388-5.146c-7.19-2.107-11.096-5.207-11.096-11.717c0-7.377,5.578-11.347,13.328-11.347
		c4.277,0,8.246,1.117,10.912,2.853v7.441h-2.914c-0.621-3.906-3.41-7.503-7.688-7.503c-2.48,0-4.218,1.302-4.218,3.533
		c0,2.48,1.8,3.41,5.58,4.65c7.75,2.541,11.904,5.084,11.904,12.213c0,7.502-5.643,11.717-14.322,11.717
		C1391.285,49.473,1387.316,48.233,1384.527,46.311z"/>
</g>
</svg>
