<?xml version="1.0" encoding="utf-8"?>
<!-- Generator: Adobe Illustrator 16.0.0, SVG Export Plug-In . SVG Version: 6.00 Build 0)  -->
<!DOCTYPE svg PUBLIC "-//W3C//DTD SVG 1.1//EN" "http://www.w3.org/Graphics/SVG/1.1/DTD/svg11.dtd">
<svg version="1.1" id="Layer_1" xmlns="http://www.w3.org/2000/svg" xmlns:xlink="http://www.w3.org/1999/xlink" x="0px" y="0px"
	 width="1440px" height="62.68px" viewBox="-47.807 0 1440 62.68" enable-background="new -47.807 0 1440 62.68"
	 xml:space="preserve">
<g id="_x33_1">
	<g>
		<path d="M25.24,32.61c0-10.354,7.378-18.041,17.979-18.041c10.602,0,17.979,6.512,17.979,16.863
			c0,10.354-7.378,18.042-17.979,18.042C32.618,49.474,25.24,42.964,25.24,32.61z M47.621,34.408
			c0-10.604-1.178-17.111-4.712-17.111c-3.286,0-4.091,4.588-4.091,12.338c0,10.604,1.178,17.111,4.711,17.111
			C46.814,46.746,47.621,42.158,47.621,34.408z"/>
		<path d="M99.947,41.476c0,2.107,0.186,3.162,1.984,3.162h1.426v2.729l-13.949,2.106H86.99l0.186-6.076
			c-2.108,2.854-5.394,6.076-11.16,6.076c-5.58,0-9.547-3.349-9.547-10.603V24.179c0-1.735-0.434-3.161-2.17-3.721l-0.93-0.312
			v-2.479l13.887-3.102h2.356l-0.372,8.186v15.003c0,2.854,1.116,4.465,3.906,4.465c1.55,0,2.479-0.187,4.03-0.683V24.179
			c0-1.735-0.434-3.161-2.17-3.721l-0.93-0.312v-2.479l13.887-3.102h2.356l-0.372,8.186V41.476z"/>
		<path d="M120.842,15.189h6.881v3.534h-6.881v20.521c0,2.666,1.054,3.844,3.162,3.844c1.488,0,2.914-0.558,4.34-1.55l0.992,1.55
			c-2.479,4.153-6.138,6.387-11.345,6.387c-5.952,0-10.105-2.977-10.105-10.416V18.724h-3.348V16.43
			c5.27-1.86,10.105-5.519,13.577-9.855h2.728L120.842,15.189L120.842,15.189z"/>
		<path d="M142.355,32.61c0-10.354,7.378-18.041,17.979-18.041c10.602,0,17.979,6.512,17.979,16.863
			c0,10.354-7.377,18.041-17.979,18.041C149.733,49.474,142.355,42.964,142.355,32.61z M164.736,34.408
			c0-10.604-1.178-17.111-4.712-17.111c-3.286,0-4.091,4.588-4.091,12.338c0,10.604,1.178,17.111,4.711,17.111
			C163.931,46.746,164.736,42.158,164.736,34.408z"/>
		<path d="M197.039,42.84c0,2.729,1.364,2.914,4.836,3.41v2.604h-20.893V46.25c2.294-0.188,3.286-0.372,3.286-2.231V18.724h-4.402
			v-2.79l4.402-1.055v-0.496c0-9.856,7.005-14.072,15.375-14.072c7.129,0,10.292,2.418,10.292,6.388
			c0,1.798-0.992,3.348-2.418,4.027h-6.386c0.186-0.868,0.31-1.922,0.31-3.038c0-2.17-0.186-4.34-2.046-4.34
			c-1.736,0-2.356,1.363-2.356,3.721v8.121h7.068v3.534h-7.068V42.84L197.039,42.84z"/>
		<path d="M219.979,32.61c0-10.354,7.378-18.041,17.979-18.041c10.602,0,17.979,6.512,17.979,16.863
			c0,10.354-7.377,18.041-17.979,18.041C227.357,49.474,219.979,42.964,219.979,32.61z M242.36,34.408
			c0-10.604-1.178-17.111-4.712-17.111c-3.286,0-4.091,4.588-4.091,12.338c0,10.604,1.178,17.111,4.711,17.111
			C241.554,46.746,242.36,42.158,242.36,34.408z"/>
		<path d="M274.6,42.84c0,2.729,1.364,2.914,4.836,3.41v2.604h-20.893V46.25c2.294-0.188,3.286-0.372,3.286-2.231v-21.7
			l-3.286-2.106V18.29l13.825-3.722h2.48l-0.248,9.674c2.356-7.439,4.65-9.674,8.618-9.674c1.55,0,2.604,0.437,3.286,1.056v9.483
			h-1.612c-3.968,0-7.625,0.124-10.292,1.735V42.84L274.6,42.84z"/>
		<path d="M307.396,5.208V3.101l13.888-2.79h2.17v41.165c0,2.107,0.186,3.162,1.983,3.162h1.427v2.729l-13.949,2.106h-2.418
			l0.186-5.891c-2.542,3.968-5.952,5.891-10.104,5.891c-7.191,0-12.523-5.519-12.523-15.935c0-12.274,7.502-18.66,16.739-18.66
			c2.418,0,4.526,0.559,5.89,1.675V6.882L307.396,5.208z M300.95,29.82c0,7.627,2.604,12.712,7.005,12.712
			c0.868,0,1.798-0.124,2.728-0.438V24.49c0-3.782-0.743-5.768-3.72-5.768C302.872,18.724,300.95,23.125,300.95,29.82z"/>
		<path d="M360.158,28.457v1.55h-19.653c0,6.819,3.844,11.159,9.299,11.159c3.906,0,6.882-1.302,9.237-4.34l1.302,0.806
			c-1.733,7.192-6.634,11.843-14.755,11.843c-9.237,0-16.615-5.891-16.615-16.739c0-11.222,7.998-18.164,17.174-18.164
			C355.446,14.569,360.158,20.335,360.158,28.457z M340.567,26.969h8.738c0-6.138-0.989-9.672-3.968-9.672
			C342.241,17.297,340.815,21.141,340.567,26.969z"/>
		<path d="M378.696,42.84c0,2.729,1.361,2.914,4.836,3.41v2.604h-20.896V46.25c2.294-0.188,3.286-0.372,3.286-2.231v-21.7
			l-3.286-2.106V18.29l13.825-3.722h2.48l-0.248,9.674c2.354-7.439,4.647-9.674,8.618-9.674c1.55,0,2.604,0.437,3.283,1.056v9.483
			h-1.609c-3.969,0-7.625,0.124-10.292,1.735L378.696,42.84L378.696,42.84z"/>
		<path d="M403.93,32.61c0-10.354,7.378-18.041,17.979-18.041c10.601,0,17.979,6.512,17.979,16.863
			c0,10.354-7.377,18.041-17.979,18.041C411.308,49.474,403.93,42.964,403.93,32.61z M426.311,34.408
			c0-10.604-1.178-17.111-4.712-17.111c-3.286,0-4.091,4.588-4.091,12.338c0,10.604,1.178,17.111,4.711,17.111
			C425.505,46.746,426.311,42.158,426.311,34.408z"/>
		<path d="M458.613,42.84c0,2.729,1.361,2.914,4.836,3.41v2.604h-20.896V46.25c2.294-0.188,3.286-0.372,3.286-2.231V18.724h-4.399
			v-2.79l4.399-1.055v-0.496c0-9.856,7.005-14.072,15.375-14.072c7.129,0,10.292,2.418,10.292,6.388
			c0,1.798-0.992,3.348-2.418,4.027h-6.386c0.186-0.868,0.31-1.922,0.31-3.038c0-2.17-0.186-4.34-2.046-4.34
			c-1.733,0-2.354,1.363-2.354,3.721v8.121h7.065v3.534h-7.065V42.84L458.613,42.84z"/>
		<path d="M513.295,42.034c0,1.237,0.124,2.542,1.55,2.542c0.809,0,1.612-0.188,1.922-0.312l0.437,1.859
			c-2.17,1.981-4.897,3.349-8.617,3.349c-3.782,0-6.51-1.859-7.626-5.146c-1.736,2.665-4.587,4.896-9.175,4.896
			c-5.332,0-9.113-2.914-9.113-8.433c0-5.456,3.72-7.688,8.062-9.176l10.043-3.474v-6.817c0-2.479-0.62-4.154-2.666-4.154
			c-2.172,0-2.979,1.922-2.979,4.772c0,1.487,0.248,3.038,0.62,4.59l-7.688,0.989c-1.858-0.619-3.225-2.17-3.225-4.523
			c0-5.892,6.076-8.434,13.826-8.434c9.051,0,14.631,2.666,14.631,11.035L513.295,42.034L513.295,42.034z M500.771,42.468V30.999
			l-2.479,0.931c-1.984,0.743-3.348,1.734-3.348,5.396c0,3.1,1.054,5.456,4.027,5.456C499.656,42.778,500.152,42.655,500.771,42.468
			z"/>
		<path d="M520.985,22.319l-3.286-2.106V18.29l13.824-3.722h2.479l-0.248,6.14c1.612-2.729,5.022-6.14,10.416-6.14
			c7.192,0,12.585,4.896,12.585,15.312c0,13.02-7.874,19.592-17.979,19.592c-2.232,0-4.094-0.372-5.022-1.055v8.432
			c0,2.17,1.116,2.231,4.588,2.542v2.604H517.7v-2.604c2.293-0.187,3.286-0.372,3.286-2.229L520.985,22.319L520.985,22.319z
			 M543.738,33.54c0-8.434-2.979-11.531-7.129-11.531c-0.992,0-1.86,0.124-2.854,0.56v17.547c0,3.655,0.744,6.197,3.782,6.197
			C541.692,46.312,543.738,40.732,543.738,33.54z"/>
		<path d="M562.215,22.319l-3.286-2.106V18.29l13.825-3.722h2.479l-0.248,6.14c1.609-2.729,5.021-6.14,10.416-6.14
			c7.189,0,12.585,4.896,12.585,15.312c0,13.02-7.874,19.592-17.979,19.592c-2.229,0-4.092-0.372-5.021-1.055v8.432
			c0,2.17,1.115,2.231,4.588,2.542v2.604h-20.646v-2.604c2.293-0.187,3.286-0.372,3.286-2.229L562.215,22.319L562.215,22.319z
			 M584.967,33.54c0-8.434-2.976-11.531-7.129-11.531c-0.992,0-1.859,0.124-2.852,0.56v17.547c0,3.655,0.744,6.197,3.779,6.197
			C582.921,46.312,584.967,40.732,584.967,33.54z"/>
		<path d="M632.271,28.457v1.55H612.62c0,6.819,3.844,11.159,9.299,11.159c3.906,0,6.881-1.302,9.238-4.34l1.302,0.806
			c-1.736,7.192-6.634,11.843-14.755,11.843c-9.237,0-16.615-5.891-16.615-16.739c0-11.222,7.998-18.164,17.173-18.164
			C627.561,14.569,632.271,20.335,632.271,28.457z M612.682,26.969h8.741c0-6.138-0.992-9.672-3.968-9.672
			C614.355,17.297,612.93,21.141,612.682,26.969z"/>
		<path d="M665.13,42.034c0,1.237,0.125,2.542,1.551,2.542c0.808,0,1.611-0.188,1.923-0.312l0.436,1.859
			c-2.17,1.981-4.898,3.349-8.617,3.349c-3.783,0-6.51-1.859-7.627-5.146c-1.734,2.665-4.588,4.896-9.174,4.896
			c-5.332,0-9.115-2.914-9.115-8.433c0-5.456,3.721-7.688,8.062-9.176l10.043-3.474v-6.817c0-2.479-0.619-4.154-2.666-4.154
			c-2.17,0-2.978,1.922-2.978,4.772c0,1.487,0.248,3.038,0.619,4.59l-7.688,0.989c-1.859-0.619-3.228-2.17-3.228-4.523
			c0-5.892,6.076-8.434,13.826-8.434c9.051,0,14.631,2.666,14.631,11.035L665.13,42.034L665.13,42.034z M652.607,42.468V30.999
			l-2.48,0.931c-1.982,0.743-3.348,1.734-3.348,5.396c0,3.1,1.055,5.456,4.028,5.456C651.492,42.778,651.988,42.655,652.607,42.468z
			"/>
		<path d="M686.335,42.84c0,2.729,1.365,2.914,4.836,3.41v2.604h-20.893V46.25c2.295-0.188,3.284-0.372,3.284-2.231v-21.7
			l-3.284-2.106V18.29l13.825-3.722h2.479l-0.248,9.674c2.357-7.439,4.65-9.674,8.617-9.674c1.551,0,2.604,0.437,3.289,1.056v9.483
			h-1.613c-3.969,0-7.627,0.124-10.293,1.735V42.84H686.335z"/>
		<path d="M729.673,42.034c0,1.237,0.125,2.542,1.551,2.542c0.805,0,1.611-0.188,1.922-0.312l0.434,1.859
			c-2.17,1.981-4.898,3.349-8.617,3.349c-3.783,0-6.51-1.859-7.627-5.146c-1.734,2.665-4.588,4.896-9.174,4.896
			c-5.332,0-9.115-2.914-9.115-8.433c0-5.456,3.721-7.688,8.062-9.176l10.043-3.474v-6.817c0-2.479-0.619-4.154-2.666-4.154
			c-2.17,0-2.977,1.922-2.977,4.772c0,1.487,0.248,3.038,0.619,4.59l-7.688,0.989c-1.859-0.619-3.229-2.17-3.229-4.523
			c0-5.892,6.076-8.434,13.826-8.434c9.051,0,14.631,2.666,14.631,11.035v16.435h0.004V42.034z M717.15,42.468V30.999l-2.48,0.931
			c-1.979,0.743-3.348,1.734-3.348,5.396c0,3.1,1.055,5.456,4.031,5.456C716.035,42.778,716.531,42.655,717.15,42.468z"/>
		<path d="M759.31,25.853c0-2.294-0.744-3.845-3.844-3.845c-1.736,0-3.162,0.312-4.588,0.808v21.202c0,1.859,0.805,2.046,3.1,2.231
			v2.604h-19.156V46.25c2.293-0.188,3.285-0.372,3.285-2.231v-21.7l-3.285-2.106V18.29l13.824-3.722h2.48l-0.248,6.264
			c2.23-2.914,5.766-6.264,11.594-6.264c6.014,0,9.609,3.35,9.609,10.169v19.279c0,1.859,0.992,2.046,3.285,2.231v2.604H756.21
			V46.25c2.293-0.188,3.1-0.372,3.1-2.231V25.853z"/>
		<path d="M797.75,40.979c3.533,0,6.137-1.113,8.059-3.845l1.488,0.932c-2.045,7.997-7.311,11.407-14.508,11.407
			c-8.803,0-15.684-6.139-15.684-16.431c0-10.603,6.943-18.477,17.482-18.477c6.324,0,11.779,2.355,11.779,8.122
			c0,2.541-1.488,4.094-2.914,4.711h-6.387c0.188-1.485,0.244-2.665,0.244-3.72c0-3.721-0.986-6.139-3.721-6.139
			c-3.473,0-5.455,4.648-5.455,10.851C788.14,36.206,791.611,40.979,797.75,40.979z"/>
		<path d="M840.341,28.457v1.55h-19.652c0,6.819,3.844,11.159,9.299,11.159c3.906,0,6.883-1.302,9.238-4.34l1.303,0.806
			c-1.736,7.192-6.635,11.843-14.756,11.843c-9.238,0-16.615-5.891-16.615-16.739c0-11.222,7.998-18.164,17.174-18.164
			C835.63,14.569,840.341,20.335,840.341,28.457z M820.751,26.969h8.742c0-6.138-0.992-9.672-3.971-9.672
			C822.425,17.297,821,21.141,820.751,26.969z"/>
		<path d="M854.478,32.61c0-10.354,7.377-18.041,17.979-18.041s17.98,6.512,17.98,16.863c0,10.354-7.379,18.041-17.98,18.041
			C861.857,49.473,854.478,42.964,854.478,32.61z M876.859,34.408c0-10.604-1.178-17.111-4.711-17.111
			c-3.287,0-4.092,4.588-4.092,12.338c0,10.604,1.178,17.111,4.711,17.111C876.052,46.746,876.859,42.158,876.859,34.408z"/>
		<path d="M909.162,42.84c0,2.729,1.363,2.914,4.834,3.41v2.604h-20.893V46.25c2.295-0.188,3.287-0.372,3.287-2.231V18.724h-4.402
			v-2.79l4.402-1.055v-0.496c0-9.856,7.006-14.072,15.375-14.072c7.129,0,10.291,2.418,10.291,6.388
			c0,1.798-0.992,3.348-2.418,4.027h-6.385c0.186-0.868,0.309-1.922,0.309-3.038c0-2.17-0.186-4.34-2.045-4.34
			c-1.736,0-2.355,1.363-2.355,3.721v8.121h7.066v3.534h-7.066V42.84z"/>
		<path d="M952.931,44.018c0,1.859,0.992,2.046,3.287,2.231v2.604h-19.344V46.25c2.295-0.188,3.285-0.372,3.285-2.231v-21.7
			l-3.285-2.106V18.29l13.826-3.722h2.229v29.449H952.931z M940.16,6.138c0-3.285,2.418-6.139,6.572-6.139
			c4.092,0,6.572,2.854,6.572,6.139s-2.48,6.138-6.572,6.138C942.578,12.275,940.16,9.424,940.16,6.138z"/>
		<path d="M1002.529,25.667c0-2.294-0.744-3.72-3.348-3.72c-1.611,0-2.852,0.434-4.215,0.93v21.142c0,1.859,0.557,2.046,2.852,2.231
			v2.604h-18.475V46.25c2.293-0.188,2.852-0.372,2.852-2.231V25.667c0-2.294-0.744-3.72-3.348-3.72c-1.613,0-2.852,0.37-4.217,0.866
			v21.202c0,1.859,0.559,2.046,2.852,2.231v2.604h-18.908V46.25c2.295-0.188,3.285-0.372,3.285-2.231v-21.7l-3.285-2.106V18.29
			l13.826-3.722h2.479l-0.248,6.388c2.17-3.41,5.643-6.388,11.283-6.388c4.836,0,7.998,1.86,8.805,6.512
			c2.107-3.35,5.951-6.512,11.406-6.512c5.766,0,9.176,3.286,9.176,9.732v19.716c0,1.859,0.992,2.046,3.287,2.231v2.604h-18.91
			V46.25c2.295-0.188,2.855-0.372,2.855-2.231V25.667H1002.529z"/>
		<path d="M1023.3,22.319l-3.285-2.106V18.29l13.824-3.722h2.48l-0.248,6.14c1.605-2.729,5.02-6.14,10.416-6.14
			c7.188,0,12.584,4.896,12.584,15.312c0,13.02-7.873,19.592-17.98,19.592c-2.229,0-4.092-0.372-5.02-1.055v8.432
			c0,2.17,1.109,2.231,4.588,2.542v2.604h-20.646v-2.604c2.293-0.187,3.285-0.372,3.285-2.229V22.319H1023.3z M1046.054,33.54
			c0-8.434-2.977-11.531-7.131-11.531c-0.992,0-1.859,0.124-2.852,0.56v17.547c0,3.655,0.742,6.197,3.775,6.197
			C1044.007,46.312,1046.054,40.732,1046.054,33.54z"/>
		<path d="M1077.736,42.84c0,2.729,1.363,2.914,4.836,3.41v2.604h-20.893V46.25c2.293-0.188,3.285-0.372,3.285-2.231v-21.7
			l-3.285-2.106V18.29l13.824-3.722h2.48l-0.248,9.674c2.354-7.439,4.645-9.674,8.611-9.674c1.557,0,2.605,0.437,3.285,1.056v9.483
			h-1.605c-3.973,0-7.625,0.124-10.291,1.735V42.84L1077.736,42.84z"/>
		<path d="M1091.191,32.61c0-10.354,7.377-18.041,17.979-18.041c10.605,0,17.98,6.512,17.98,16.863
			c0,10.354-7.377,18.041-17.98,18.041C1098.568,49.473,1091.191,42.964,1091.191,32.61z M1113.572,34.408
			c0-10.604-1.18-17.111-4.713-17.111c-3.285,0-4.092,4.588-4.092,12.338c0,10.604,1.178,17.111,4.713,17.111
			C1112.765,46.746,1113.572,42.158,1113.572,34.408z"/>
		<path d="M1132.605,22.319l-3.285-2.106V18.29l13.824-3.722h2.48l-0.248,6.14c1.605-2.729,5.02-6.14,10.416-6.14
			c7.188,0,12.584,4.896,12.584,15.312c0,13.02-7.873,19.592-17.98,19.592c-2.229,0-4.092-0.372-5.02-1.055v8.432
			c0,2.17,1.115,2.231,4.588,2.542v2.604h-20.646v-2.604c2.293-0.187,3.285-0.372,3.285-2.229V22.319H1132.605z M1155.359,33.54
			c0-8.434-2.977-11.531-7.131-11.531c-0.992,0-1.859,0.124-2.852,0.56v17.547c0,3.655,0.744,6.197,3.781,6.197
			C1153.312,46.312,1155.359,40.732,1155.359,33.54z"/>
		<path d="M1187.041,42.84c0,2.729,1.363,2.914,4.836,3.41v2.604h-20.893V46.25c2.293-0.188,3.285-0.372,3.285-2.231v-21.7
			l-3.285-2.106V18.29l13.824-3.722h2.48l-0.248,9.674c2.354-7.439,4.645-9.674,8.617-9.674c1.551,0,2.604,0.437,3.285,1.056v9.483
			h-1.611c-3.967,0-7.625,0.124-10.291,1.735V42.84L1187.041,42.84z"/>
		<path d="M1216.675,44.018c0,1.859,0.992,2.046,3.287,2.231v2.604h-19.344V46.25c2.295-0.188,3.285-0.372,3.285-2.231v-21.7
			l-3.285-2.106V18.29l13.826-3.722h2.229v29.449H1216.675z M1203.904,6.138c0-3.285,2.418-6.139,6.572-6.139
			c4.092,0,6.572,2.854,6.572,6.139s-2.48,6.138-6.572,6.138C1206.322,12.275,1203.904,9.424,1203.904,6.138z"/>
		<path d="M1253.378,28.457v1.55h-19.652c0,6.819,3.844,11.159,9.299,11.159c3.906,0,6.881-1.302,9.238-4.34l1.301,0.806
			c-1.736,7.192-6.633,11.843-14.754,11.843c-9.238,0-16.615-5.891-16.615-16.739c0-11.222,7.996-18.164,17.172-18.164
			C1248.667,14.569,1253.378,20.335,1253.378,28.457z M1233.787,26.969h8.742c0-6.138-0.992-9.672-3.967-9.672
			C1235.46,17.297,1234.035,21.141,1233.787,26.969z"/>
		<path d="M1271.419,15.189h6.883v3.534h-6.883v20.521c0,2.666,1.055,3.844,3.162,3.844c1.488,0,2.914-0.558,4.34-1.55l0.992,1.55
			c-2.48,4.153-6.145,6.387-11.352,6.387c-5.945,0-10.104-2.977-10.104-10.416V18.724h-3.348V16.43
			c5.27-1.86,10.104-5.519,13.576-9.855h2.729v8.614H1271.419z"/>
		<path d="M1309.115,21.823c0.311-0.868,0.496-1.304,0.496-1.86c0-1.302-0.744-1.734-4.029-2.17v-2.604h11.594v2.604
			c-2.109,0.684-2.604,1.116-3.162,2.479l-14.383,33.728c-2.418,5.643-4.836,8.618-9.301,8.618c-2.541,0-4.4-0.992-5.33-2.479
			v-5.021c1.674,0.31,3.1,0.618,5.082,0.618c3.535,0,5.209-0.99,6.262-3.224l0.93-1.984l-14.506-30.254
			c-0.621-1.362-1.055-1.798-3.162-2.479V15.19h21.203v2.604c-3.287,0.436-4.023,0.868-4.023,2.17c0,0.56,0.186,0.992,0.434,1.736
			l6.074,14.631L1309.115,21.823z"/>
	</g>
</g>
</svg>
