<?xml version="1.0" encoding="utf-8"?>
<!-- Generator: Adobe Illustrator 16.0.0, SVG Export Plug-In . SVG Version: 6.00 Build 0)  -->
<!DOCTYPE svg PUBLIC "-//W3C//DTD SVG 1.1//EN" "http://www.w3.org/Graphics/SVG/1.1/DTD/svg11.dtd">
<svg version="1.1" id="Layer_1" xmlns="http://www.w3.org/2000/svg" xmlns:xlink="http://www.w3.org/1999/xlink" x="0px" y="0px"
	 width="1440px" height="62.68px" viewBox="0 0 1440 62.68" enable-background="new 0 0 1440 62.68" xml:space="preserve">
<g id="_x33_0">
	<g>
		<path d="M168.615,15.189h6.881v3.534h-6.881v20.521c0,2.666,1.054,3.844,3.162,3.844c1.488,0,2.914-0.558,4.34-1.55l0.992,1.55
			c-2.479,4.153-6.138,6.387-11.345,6.387c-5.952,0-10.105-2.977-10.105-10.416V18.724h-3.349V16.43
			c5.27-1.86,10.105-5.519,13.577-9.854h2.728V15.189z"/>
		<path d="M178.04,32.61c0-10.354,7.378-18.041,17.979-18.041c10.602,0,17.979,6.513,17.979,16.863
			c0,10.354-7.377,18.041-17.979,18.041C185.418,49.474,178.04,42.964,178.04,32.61z M200.421,34.408
			c0-10.604-1.178-17.111-4.712-17.111c-3.286,0-4.091,4.588-4.091,12.338c0,10.604,1.178,17.111,4.711,17.111
			C199.615,46.746,200.421,42.158,200.421,34.408z"/>
		<path d="M241.093,25.853c0-2.294-0.744-3.845-3.844-3.845c-1.736,0-3.162,0.312-4.588,0.808v21.202c0,1.859,0.806,2.046,3.1,2.231
			v2.604h-19.157V46.25c2.294-0.188,3.286-0.372,3.286-2.231v-21.7l-3.286-2.105V18.29l13.825-3.723h2.48l-0.248,6.265
			c2.232-2.914,5.766-6.265,11.593-6.265c6.014,0,9.61,3.351,9.61,10.17v19.278c0,1.859,0.992,2.046,3.286,2.231v2.604h-19.157
			V46.25c2.293-0.188,3.1-0.372,3.1-2.231V25.853z"/>
		<path d="M290.072,28.457v1.55h-19.653c0,6.819,3.844,11.159,9.299,11.159c3.906,0,6.881-1.302,9.237-4.34l1.302,0.806
			c-1.736,7.192-6.634,11.843-14.755,11.843c-9.237,0-16.615-5.891-16.615-16.739c0-11.222,7.998-18.163,17.173-18.163
			C285.36,14.569,290.072,20.335,290.072,28.457z M270.481,26.969h8.741c0-6.138-0.992-9.672-3.968-9.672
			C272.155,17.297,270.729,21.141,270.481,26.969z"/>
		<path d="M304.208,32.61c0-10.354,7.378-18.041,17.979-18.041c10.601,0,17.979,6.513,17.979,16.863
			c0,10.354-7.377,18.041-17.979,18.041C311.585,49.474,304.208,42.964,304.208,32.61z M326.588,34.408
			c0-10.604-1.178-17.111-4.712-17.111c-3.286,0-4.091,4.588-4.091,12.338c0,10.604,1.178,17.111,4.711,17.111
			C325.782,46.746,326.588,42.158,326.588,34.408z"/>
		<path d="M358.89,42.84c0,2.729,1.364,2.914,4.836,3.41v2.604h-20.893V46.25c2.294-0.188,3.286-0.372,3.286-2.231V18.724h-4.402
			v-2.79l4.402-1.055v-0.496c0-9.856,7.005-14.072,15.375-14.072c7.129,0,10.292,2.418,10.292,6.389
			c0,1.798-0.992,3.348-2.418,4.026h-6.386c0.186-0.868,0.31-1.922,0.31-3.038c0-2.17-0.186-4.34-2.046-4.34
			c-1.736,0-2.356,1.363-2.356,3.721v8.121h7.068v3.534h-7.068V42.84L358.89,42.84z"/>
		<path d="M420.021,17.793c-2.108,0.684-2.543,1.116-3.162,2.479L403.839,49.04h-3.658l-14.567-28.769
			c-0.684-1.361-1.056-1.798-3.162-2.479v-2.604h21.203v2.604c-3.286,0.436-4.03,0.868-4.03,2.17c0,0.56,0.124,0.868,0.496,1.736
			l6.2,13.144l5.642-13.144c0.372-0.868,0.496-1.181,0.496-1.736c0-1.302-0.744-1.734-4.03-2.17v-2.604h11.595L420.021,17.793
			L420.021,17.793z"/>
		<path d="M418.782,32.61c0-10.354,7.378-18.041,17.979-18.041c10.604,0,17.979,6.513,17.979,16.863
			c0,10.354-7.377,18.041-17.979,18.041C426.16,49.474,418.782,42.964,418.782,32.61z M441.163,34.408
			c0-10.604-1.178-17.111-4.712-17.111c-3.286,0-4.091,4.588-4.091,12.338c0,10.604,1.178,17.111,4.711,17.111
			C440.357,46.746,441.163,42.158,441.163,34.408z"/>
		<path d="M473.403,44.018c0,1.859,0.989,2.046,3.286,2.231v2.604h-19.345V46.25c2.292-0.188,3.286-0.372,3.286-2.231v-21.7
			l-3.286-2.105V18.29l13.825-3.723h2.232L473.403,44.018L473.403,44.018z M460.632,6.138c0-3.285,2.417-6.139,6.571-6.139
			c4.092,0,6.572,2.854,6.572,6.139s-2.48,6.138-6.572,6.138C463.05,12.275,460.632,9.424,460.632,6.138z"/>
		<path d="M499.566,40.979c3.53,0,6.138-1.112,8.06-3.845l1.488,0.932c-2.046,7.997-7.315,11.407-14.507,11.407
			c-8.807,0-15.688-6.139-15.688-16.431c0-10.604,6.944-18.478,17.483-18.478c6.32,0,11.775,2.355,11.775,8.122
			c0,2.541-1.484,4.095-2.914,4.711h-6.386c0.188-1.484,0.248-2.665,0.248-3.72c0-3.721-0.992-6.139-3.72-6.139
			c-3.473,0-5.456,4.647-5.456,10.851C489.957,36.206,493.429,40.979,499.566,40.979z"/>
		<path d="M542.16,28.457v1.55h-19.653c0,6.819,3.844,11.159,9.299,11.159c3.906,0,6.884-1.302,9.237-4.34l1.302,0.806
			c-1.732,7.192-6.634,11.843-14.755,11.843c-9.234,0-16.615-5.891-16.615-16.739c0-11.222,7.998-18.163,17.177-18.163
			C537.448,14.569,542.16,20.335,542.16,28.457z M522.569,26.969h8.737c0-6.138-0.988-9.672-3.968-9.672
			C524.243,17.297,522.816,21.141,522.569,26.969z"/>
		<path d="M556.295,32.61c0-10.354,7.378-18.041,17.979-18.041c10.603,0,17.979,6.513,17.979,16.863
			c0,10.354-7.377,18.041-17.979,18.041C563.673,49.474,556.295,42.964,556.295,32.61z M578.676,34.408
			c0-10.604-1.178-17.111-4.712-17.111c-3.286,0-4.091,4.588-4.091,12.338c0,10.604,1.178,17.111,4.711,17.111
			C577.87,46.746,578.676,42.158,578.676,34.408z"/>
		<path d="M610.979,42.84c0,2.729,1.363,2.914,4.839,3.41v2.604h-20.896V46.25c2.294-0.188,3.286-0.372,3.286-2.231V18.724h-4.402
			v-2.79l4.402-1.055v-0.496c0-9.856,7.005-14.072,15.375-14.072c7.129,0,10.292,2.418,10.292,6.389
			c0,1.798-0.992,3.348-2.418,4.026h-6.386c0.186-0.868,0.31-1.922,0.31-3.038c0-2.17-0.186-4.34-2.046-4.34
			c-1.736,0-2.355,1.363-2.355,3.721v8.121h7.067v3.534h-7.067V42.84L610.979,42.84z"/>
		<path d="M653.199,42.84c0,2.729,1.363,2.914,4.836,3.41v2.604H637.14V46.25c2.294-0.188,3.286-0.372,3.286-2.231v-21.7
			l-3.286-2.105V18.29l13.825-3.723h2.48l-0.248,9.675c2.354-7.439,4.646-9.675,8.617-9.675c1.551,0,2.604,0.438,3.284,1.057v9.482
			h-1.609c-3.97,0-7.625,0.124-10.292,1.735L653.199,42.84L653.199,42.84z"/>
		<path d="M697.837,28.457v1.55h-19.651c0,6.819,3.846,11.159,9.301,11.159c3.903,0,6.881-1.302,9.233-4.34l1.306,0.806
			c-1.736,7.192-6.638,11.843-14.758,11.843c-9.234,0-16.613-5.891-16.613-16.739c0-11.222,7.998-18.163,17.173-18.163
			C693.126,14.569,697.837,20.335,697.837,28.457z M678.248,26.969h8.742c0-6.138-0.992-9.672-3.969-9.672
			C679.921,17.297,678.496,21.141,678.248,26.969z"/>
		<path d="M730.697,42.034c0,1.236,0.125,2.542,1.551,2.542c0.805,0,1.611-0.188,1.922-0.312l0.434,1.859
			c-2.17,1.98-4.895,3.349-8.612,3.349c-3.783,0-6.515-1.858-7.627-5.146c-1.736,2.665-4.586,4.896-9.179,4.896
			c-5.329,0-9.108-2.914-9.108-8.433c0-5.456,3.719-7.688,8.059-9.176l10.044-3.475v-6.816c0-2.479-0.619-4.154-2.666-4.154
			c-2.171,0-2.976,1.922-2.976,4.771c0,1.487,0.248,3.038,0.619,4.591l-7.689,0.988c-1.856-0.619-3.225-2.17-3.225-4.522
			c0-5.893,6.076-8.435,13.826-8.435c9.051,0,14.631,2.666,14.631,11.035L730.697,42.034L730.697,42.034z M718.173,42.468V30.999
			l-2.479,0.931c-1.984,0.743-3.353,1.734-3.353,5.396c0,3.1,1.055,5.456,4.029,5.456C717.058,42.778,717.554,42.656,718.173,42.468
			z"/>
		<path d="M736.65,46.312l-0.371-8.369h3.162c1.112,4.959,4.463,8.741,9.233,8.741c2.791,0,5.021-1.303,5.021-3.903
			c0-3.037-2.416-3.97-6.39-5.146c-7.188-2.106-11.098-5.207-11.098-11.717c0-7.378,5.58-11.349,13.33-11.349
			c4.277,0,8.246,1.116,10.912,2.854v7.438h-2.914c-0.621-3.903-3.41-7.502-7.689-7.502c-2.479,0-4.215,1.305-4.215,3.534
			c0,2.479,1.797,3.408,5.58,4.648c7.748,2.542,11.902,5.084,11.902,12.213c0,7.502-5.642,11.719-14.32,11.719
			C743.408,49.474,739.441,48.233,736.65,46.312z"/>
		<path d="M766.224,32.61c0-10.354,7.378-18.041,17.979-18.041s17.979,6.513,17.979,16.863c0,10.354-7.377,18.041-17.979,18.041
			S766.224,42.964,766.224,32.61z M788.605,34.408c0-10.604-1.183-17.111-4.716-17.111c-3.282,0-4.092,4.588-4.092,12.338
			c0,10.604,1.178,17.111,4.713,17.111C787.798,46.746,788.605,42.158,788.605,34.408z"/>
		<path d="M829.277,25.853c0-2.294-0.744-3.845-3.845-3.845c-1.735,0-3.161,0.312-4.588,0.808v21.202
			c0,1.859,0.808,2.046,3.103,2.231v2.604h-19.156V46.25c2.293-0.188,3.285-0.372,3.285-2.231v-21.7l-3.285-2.105V18.29
			l13.824-3.723h2.479l-0.248,6.265c2.232-2.914,5.769-6.265,11.594-6.265c6.017,0,9.609,3.351,9.609,10.17v19.278
			c0,1.859,0.992,2.046,3.285,2.231v2.604h-19.156V46.25c2.293-0.188,3.1-0.372,3.1-2.231V25.853L829.277,25.853z"/>
		<path d="M858.852,32.61c0-10.354,7.377-18.041,17.979-18.041s17.979,6.513,17.979,16.863c0,10.354-7.377,18.041-17.979,18.041
			S858.852,42.964,858.852,32.61z M881.232,34.408c0-10.604-1.181-17.111-4.713-17.111c-3.285,0-4.093,4.588-4.093,12.338
			c0,10.604,1.179,17.111,4.713,17.111C880.425,46.746,881.232,42.158,881.232,34.408z"/>
		<path d="M913.533,42.84c0,2.729,1.363,2.914,4.836,3.41v2.604h-20.893V46.25c2.293-0.188,3.284-0.372,3.284-2.231V18.724h-4.401
			v-2.79l4.401-1.055v-0.496c0-9.856,7.006-14.072,15.375-14.072c7.131,0,10.291,2.418,10.291,6.389
			c0,1.798-0.989,3.348-2.418,4.026h-6.385c0.186-0.868,0.311-1.922,0.311-3.038c0-2.17-0.186-4.34-2.047-4.34
			c-1.735,0-2.354,1.363-2.354,3.721v8.121h7.067v3.534h-7.067V42.84L913.533,42.84z"/>
		<path d="M957.304,44.018c0,1.859,0.992,2.046,3.287,2.231v2.604h-19.344V46.25c2.295-0.188,3.285-0.372,3.285-2.231v-21.7
			l-3.285-2.105V18.29l13.826-3.723h2.229v29.449L957.304,44.018L957.304,44.018z M944.533,6.138c0-3.285,2.418-6.139,6.572-6.139
			c4.092,0,6.571,2.854,6.571,6.139s-2.479,6.138-6.571,6.138C946.951,12.275,944.533,9.424,944.533,6.138z"/>
		<path d="M987.436,25.853c0-2.294-0.744-3.845-3.845-3.845c-1.735,0-3.162,0.312-4.588,0.808v21.202
			c0,1.859,0.808,2.046,3.101,2.231v2.604h-19.156V46.25c2.295-0.188,3.285-0.372,3.285-2.231v-21.7l-3.285-2.105V18.29
			l13.826-3.723h2.479l-0.248,6.265c2.232-2.914,5.766-6.265,11.594-6.265c6.021,0,9.609,3.351,9.609,10.17v19.278
			c0,1.859,0.992,2.046,3.285,2.231v2.604h-19.156V46.25c2.295-0.188,3.1-0.372,3.1-2.231V25.853L987.436,25.853z"/>
		<path d="M1006.16,46.312l-0.371-8.369h3.162c1.115,4.959,4.463,8.741,9.236,8.741c2.791,0,5.021-1.303,5.021-3.903
			c0-3.037-2.418-3.97-6.385-5.146c-7.191-2.106-11.104-5.207-11.104-11.717c0-7.378,5.58-11.349,13.33-11.349
			c4.277,0,8.244,1.116,10.91,2.854v7.438h-2.914c-0.619-3.903-3.408-7.502-7.688-7.502c-2.479,0-4.215,1.305-4.215,3.534
			c0,2.479,1.797,3.408,5.579,4.648c7.748,2.542,11.902,5.084,11.902,12.213c0,7.502-5.641,11.719-14.32,11.719
			C1012.917,49.474,1008.951,48.233,1006.16,46.312z"/>
		<path d="M1065.617,42.034c0,1.236,0.125,2.542,1.551,2.542c0.805,0,1.611-0.188,1.922-0.312l0.439,1.859
			c-2.172,1.98-4.898,3.349-8.617,3.349c-3.783,0-6.51-1.858-7.627-5.146c-1.734,2.665-4.588,4.896-9.174,4.896
			c-5.332,0-9.115-2.914-9.115-8.433c0-5.456,3.721-7.688,8.061-9.176l10.043-3.475v-6.816c0-2.479-0.618-4.154-2.666-4.154
			c-2.17,0-2.975,1.922-2.975,4.771c0,1.487,0.248,3.038,0.619,4.591l-7.689,0.988c-1.856-0.619-3.225-2.17-3.225-4.522
			c0-5.893,6.076-8.435,13.826-8.435c9.051,0,14.631,2.666,14.631,11.035v16.436h-0.004V42.034L1065.617,42.034z M1053.093,42.468
			V30.999l-2.479,0.931c-1.982,0.743-3.349,1.734-3.349,5.396c0,3.1,1.056,5.456,4.031,5.456
			C1051.979,42.778,1052.474,42.656,1053.093,42.468z"/>
		<path d="M1095.253,25.853c0-2.294-0.744-3.845-3.844-3.845c-1.736,0-3.162,0.312-4.588,0.808v21.202
			c0,1.859,0.805,2.046,3.1,2.231v2.604h-19.156V46.25c2.293-0.188,3.285-0.372,3.285-2.231v-21.7l-3.285-2.105V18.29l13.824-3.723
			h2.48l-0.248,6.265c2.229-2.914,5.766-6.265,11.594-6.265c6.014,0,9.604,3.351,9.604,10.17v19.278
			c0,1.859,0.992,2.046,3.285,2.231v2.604h-19.149V46.25c2.293-0.188,3.1-0.372,3.1-2.231L1095.253,25.853L1095.253,25.853z"/>
		<path d="M1129.229,44.018c0,1.859,0.991,2.046,3.286,2.231v2.604h-19.344V46.25c2.295-0.188,3.285-0.372,3.285-2.231v-21.7
			l-3.285-2.105V18.29l13.826-3.723h2.229v29.449L1129.229,44.018L1129.229,44.018z M1116.457,6.138
			c0-3.285,2.418-6.139,6.572-6.139c4.092,0,6.572,2.854,6.572,6.139s-2.48,6.138-6.572,6.138
			C1118.875,12.275,1116.457,9.424,1116.457,6.138z"/>
		<path d="M1150.123,15.189h6.881v3.534h-6.881v20.521c0,2.666,1.053,3.844,3.162,3.844c1.486,0,2.912-0.558,4.338-1.55l0.992,1.55
			c-2.479,4.153-6.137,6.387-11.344,6.387c-5.953,0-10.105-2.977-10.105-10.416V18.724h-3.35V16.43
			c5.271-1.86,10.104-5.519,13.578-9.854h2.729V15.189L1150.123,15.189z"/>
		<path d="M1187.818,21.823c0.309-0.868,0.496-1.305,0.496-1.86c0-1.302-0.744-1.734-4.031-2.17v-2.604h11.594v2.604
			c-2.107,0.684-2.604,1.116-3.162,2.479L1178.332,54c-2.418,5.643-4.836,8.618-9.299,8.618c-2.543,0-4.402-0.992-5.332-2.479
			v-5.021c1.674,0.31,3.1,0.617,5.084,0.617c3.533,0,5.207-0.989,6.262-3.224l0.93-1.984l-14.508-30.254
			c-0.619-1.361-1.053-1.798-3.162-2.479V15.19h21.203v2.604c-3.285,0.436-4.029,0.868-4.029,2.17c0,0.56,0.189,0.992,0.439,1.736
			l6.076,14.631L1187.818,21.823z"/>
	</g>
</g>
</svg>
