<?xml version="1.0" encoding="utf-8"?>
<!-- Generator: Adobe Illustrator 16.0.0, SVG Export Plug-In . SVG Version: 6.00 Build 0)  -->
<!DOCTYPE svg PUBLIC "-//W3C//DTD SVG 1.1//EN" "http://www.w3.org/Graphics/SVG/1.1/DTD/svg11.dtd">
<svg version="1.1" id="_x33_" xmlns="http://www.w3.org/2000/svg" xmlns:xlink="http://www.w3.org/1999/xlink" x="0px" y="0px"
	 width="1440px" height="62.641px" viewBox="0 0 1440 62.641" enable-background="new 0 0 1440 62.641" xml:space="preserve">
<g>
	<path d="M130,4.898V2.79L143.887,0h2.17v20.396c1.612-2.729,5.021-6.141,10.416-6.141c7.191,0,12.585,4.896,12.585,15.312
		c0,13.02-8.369,19.592-19.157,19.592c-5.766,0-12.399-0.992-16.615-4.217V6.572L130,4.898z M156.039,33.23
		c0-8.435-2.976-11.531-7.13-11.531c-0.992,0-1.86,0.124-2.852,0.56v17.548c0,3.654,0.744,6.196,3.782,6.196
		C153.993,46.001,156.039,40.421,156.039,33.23z"/>
	<path d="M201.732,41.724c0,1.236,0.124,2.542,1.55,2.542c0.806,0,1.612-0.188,1.922-0.312l0.434,1.859
		c-2.17,1.98-4.897,3.349-8.617,3.349c-3.782,0-6.51-1.859-7.626-5.146c-1.736,2.665-4.587,4.896-9.175,4.896
		c-5.332,0-9.113-2.914-9.113-8.433c0-5.456,3.72-7.688,8.06-9.177l10.043-3.474v-6.817c0-2.479-0.62-4.153-2.666-4.153
		c-2.17,0-2.976,1.922-2.976,4.771c0,1.487,0.248,3.038,0.62,4.59l-7.688,0.991c-1.86-0.617-3.224-2.17-3.224-4.522
		c0-5.893,6.076-8.435,13.826-8.435c9.051,0,14.631,2.666,14.631,11.035L201.732,41.724L201.732,41.724z M189.208,42.157V30.689
		l-2.479,0.931c-1.984,0.743-3.348,1.734-3.348,5.396c0,3.1,1.054,5.456,4.03,5.456C188.093,42.467,188.589,42.344,189.208,42.157z"
		/>
	<path d="M222.688,43.707c0,1.859,0.992,2.046,3.286,2.231v2.604h-19.343V45.94c2.294-0.188,3.286-0.372,3.286-2.231V6.572
		l-3.286-1.674V2.79L220.518,0h2.17V43.707L222.688,43.707z"/>
	<path d="M258.399,41.724c0,1.236,0.124,2.542,1.55,2.542c0.806,0,1.612-0.188,1.922-0.312l0.434,1.859
		c-2.17,1.98-4.897,3.349-8.617,3.349c-3.782,0-6.51-1.859-7.626-5.146c-1.736,2.665-4.587,4.896-9.175,4.896
		c-5.332,0-9.113-2.914-9.113-8.433c0-5.456,3.72-7.688,8.06-9.177l10.043-3.474v-6.817c0-2.479-0.62-4.153-2.666-4.153
		c-2.17,0-2.976,1.922-2.976,4.771c0,1.487,0.248,3.038,0.62,4.59l-7.688,0.989c-1.86-0.619-3.224-2.17-3.224-4.522
		c0-5.893,6.075-8.435,13.825-8.435c9.051,0,14.631,2.666,14.631,11.035V41.724L258.399,41.724z M245.876,42.157V30.689
		l-2.479,0.931c-1.984,0.743-3.348,1.734-3.348,5.396c0,3.1,1.054,5.456,4.03,5.456C244.76,42.467,245.256,42.344,245.876,42.157z"
		/>
	<path d="M288.035,25.542c0-2.294-0.744-3.845-3.844-3.845c-1.736,0-3.162,0.312-4.588,0.808v21.202c0,1.859,0.806,2.046,3.1,2.231
		v2.604h-19.157V45.94c2.294-0.188,3.286-0.372,3.286-2.231v-21.7l-3.286-2.105V17.98l13.825-3.723h2.48l-0.248,6.265
		c2.232-2.914,5.766-6.265,11.593-6.265c6.014,0,9.61,3.351,9.61,10.169v19.279c0,1.859,0.992,2.046,3.286,2.231v2.604h-19.157
		V45.94c2.293-0.188,3.1-0.372,3.1-2.231V25.542L288.035,25.542z"/>
	<path d="M326.475,40.668c3.534,0,6.138-1.112,8.06-3.845l1.488,0.932c-2.046,7.997-7.315,11.407-14.507,11.407
		c-8.803,0-15.685-6.139-15.685-16.431c0-10.604,6.944-18.478,17.483-18.478c6.323,0,11.779,2.355,11.779,8.122
		c0,2.541-1.488,4.094-2.914,4.711h-6.386c0.186-1.484,0.248-2.665,0.248-3.72c0-3.721-0.992-6.139-3.72-6.139
		c-3.472,0-5.456,4.647-5.456,10.851C316.865,35.896,320.337,40.668,326.475,40.668z"/>
	<path d="M369.068,28.147v1.55h-19.653c0,6.819,3.844,11.159,9.299,11.159c3.906,0,6.881-1.303,9.237-4.34l1.302,0.806
		c-1.736,7.192-6.634,11.843-14.755,11.843c-9.237,0-16.615-5.891-16.615-16.739c0-11.222,7.998-18.164,17.173-18.164
		C364.355,14.258,369.068,20.025,369.068,28.147z M349.477,26.658h8.741c0-6.138-0.992-9.672-3.968-9.672
		C351.151,16.987,349.725,20.83,349.477,26.658z"/>
	<path d="M383.204,32.299c0-10.354,7.378-18.041,17.979-18.041c10.604,0,17.979,6.513,17.979,16.863
		c0,10.354-7.377,18.041-17.979,18.041C390.582,49.163,383.204,42.654,383.204,32.299z M405.584,34.098
		c0-10.604-1.178-17.111-4.712-17.111c-3.286,0-4.091,4.588-4.091,12.338c0,10.604,1.178,17.111,4.711,17.111
		C404.778,46.436,405.584,41.848,405.584,34.098z"/>
	<path d="M437.886,42.53c0,2.729,1.364,2.914,4.836,3.41v2.604h-20.893V45.94c2.294-0.188,3.286-0.372,3.286-2.231V18.413h-4.402
		v-2.79l4.402-1.055v-0.496C425.115,4.216,432.12,0,440.49,0c7.129,0,10.292,2.418,10.292,6.388c0,1.799-0.992,3.349-2.418,4.027
		h-6.39c0.188-0.868,0.312-1.922,0.312-3.038c0-2.17-0.188-4.34-2.046-4.34c-1.736,0-2.356,1.363-2.356,3.721v8.121h7.068v3.534
		h-7.068L437.886,42.53L437.886,42.53z"/>
	<path d="M465.354,22.008l-3.283-2.105V17.98l13.821-3.723h2.479l-0.248,6.141c1.612-2.729,5.021-6.141,10.416-6.141
		c7.191,0,12.585,4.896,12.585,15.312c0,13.02-7.874,19.592-17.979,19.592c-2.229,0-4.092-0.372-5.021-1.055v8.432
		c0,2.17,1.116,2.231,4.588,2.542v2.604h-20.645v-2.604c2.293-0.187,3.282-0.372,3.282-2.229L465.354,22.008L465.354,22.008z
		 M488.105,33.23c0-8.435-2.979-11.531-7.133-11.531c-0.988,0-1.856,0.124-2.852,0.56v17.548c0,3.654,0.744,6.196,3.782,6.196
		C486.059,46.001,488.105,40.421,488.105,33.23z"/>
	<path d="M504.226,32.299c0-10.354,7.378-18.041,17.979-18.041c10.601,0,17.979,6.513,17.979,16.863
		c0,10.354-7.377,18.041-17.979,18.041C511.604,49.163,504.226,42.654,504.226,32.299z M526.605,34.098
		c0-10.604-1.181-17.111-4.715-17.111c-3.282,0-4.091,4.588-4.091,12.338c0,10.604,1.181,17.111,4.711,17.111
		C525.801,46.436,526.605,41.848,526.605,34.098z"/>
	<path d="M588.232,21.389c0.311-0.809,0.494-1.488,0.494-1.984c0-1.238-1.055-1.674-3.407-1.922v-2.604h10.849v2.604
		c-2.107,0.684-2.604,1.116-3.162,2.479L580.61,48.73h-4.22l-7.312-18.726l-8.805,18.726h-4.218l-13.33-28.769
		c-0.616-1.361-1.054-1.798-3.158-2.479v-2.604h19.715v2.604c-1.86,0.248-2.604,0.808-2.604,1.798c0,0.56,0.188,1.24,0.562,2.108
		l5.58,13.267l4.34-8.988l-2.232-5.703c-0.496-1.361-1.239-1.981-2.789-2.479V14.88h19.591v2.604
		c-2.541,0.312-3.721,0.56-3.721,2.046c0,0.496,0.124,1.116,0.372,1.86l4.774,12.521L588.232,21.389z"/>
	<path d="M626.426,28.147v1.55h-19.649c0,6.819,3.844,11.159,9.299,11.159c3.905,0,6.881-1.303,9.233-4.34l1.306,0.806
		c-1.736,7.192-6.638,11.843-14.755,11.843c-9.237,0-16.615-5.891-16.615-16.739c0-11.222,7.998-18.164,17.173-18.164
		C621.714,14.258,626.426,20.025,626.426,28.147z M606.835,26.658h8.741c0-6.138-0.992-9.672-3.968-9.672
		C608.509,16.987,607.083,20.83,606.835,26.658z"/>
	<path d="M644.963,42.53c0,2.729,1.364,2.914,4.836,3.41v2.604h-20.893V45.94c2.294-0.188,3.286-0.372,3.286-2.231v-21.7
		l-3.286-2.105V17.98l13.824-3.723h2.479l-0.248,9.675c2.356-7.439,4.65-9.675,8.618-9.675c1.55,0,2.604,0.438,3.286,1.057v9.482
		h-1.612c-3.968,0-7.625,0.124-10.292,1.735L644.963,42.53L644.963,42.53z"/>
	<path d="M670.197,32.299c0-10.354,7.378-18.041,17.979-18.041c10.604,0,17.979,6.513,17.979,16.863
		c0,10.354-7.377,18.041-17.979,18.041C677.575,49.163,670.197,42.654,670.197,32.299z M692.578,34.098
		c0-10.604-1.178-17.111-4.712-17.111c-3.286,0-4.091,4.588-4.091,12.338c0,10.604,1.178,17.111,4.711,17.111
		C691.771,46.436,692.578,41.848,692.578,34.098z"/>
	<path d="M724.88,42.53c0,2.729,1.363,2.914,4.836,3.41v2.604h-20.893V45.94c2.294-0.188,3.286-0.372,3.286-2.231V18.413h-4.402
		v-2.79l4.402-1.055v-0.496C712.109,4.216,719.115,0,727.484,0c7.131,0,10.291,2.418,10.291,6.388c0,1.799-0.99,3.349-2.418,4.027
		h-6.386c0.187-0.868,0.312-1.922,0.312-3.038c0-2.17-0.188-4.34-2.047-4.34c-1.736,0-2.355,1.363-2.355,3.721v8.121h7.068v3.534
		h-7.068L724.88,42.53L724.88,42.53z"/>
	<path d="M778.013,41.724c0,1.236,0.125,2.542,1.552,2.542c0.805,0,1.61-0.188,1.922-0.312l0.434,1.859
		c-2.17,1.98-4.895,3.349-8.617,3.349c-3.783,0-6.51-1.859-7.627-5.146c-1.729,2.665-4.588,4.896-9.174,4.896
		c-5.332,0-9.115-2.914-9.115-8.433c0-5.456,3.728-7.688,8.062-9.177l10.043-3.474v-6.817c0-2.479-0.619-4.153-2.666-4.153
		c-2.17,0-2.977,1.922-2.977,4.771c0,1.487,0.247,3.038,0.618,4.59l-7.688,0.989c-1.859-0.619-3.229-2.17-3.229-4.522
		c0-5.893,6.076-8.435,13.826-8.435c9.051,0,14.631,2.666,14.631,11.035v16.436h0.004L778.013,41.724L778.013,41.724z
		 M765.49,42.157V30.689l-2.48,0.931c-1.979,0.743-3.348,1.734-3.348,5.396c0,3.1,1.055,5.456,4.031,5.456
		C764.375,42.467,764.871,42.344,765.49,42.157z"/>
	<path d="M798.412,14.878h6.883v3.534h-6.883v20.521c0,2.666,1.055,3.844,3.162,3.844c1.488,0,2.914-0.559,4.34-1.55l0.992,1.55
		c-2.48,4.153-6.139,6.387-11.346,6.387c-5.951,0-10.105-2.977-10.105-10.416V18.413h-3.348v-2.294
		c5.27-1.86,10.104-5.519,13.578-9.854h2.727V14.878z"/>
	<path d="M823.523,14.878h6.881v3.534h-6.881v20.521c0,2.666,1.053,3.844,3.162,3.844c1.485,0,2.911-0.559,4.338-1.55l0.991,1.55
		c-2.479,4.153-6.137,6.387-11.344,6.387c-5.953,0-10.104-2.977-10.104-10.416V18.413h-3.351v-2.294
		c5.271-1.86,10.105-5.519,13.578-9.854h2.729V14.878L823.523,14.878z"/>
	<path d="M832.949,32.299c0-10.354,7.377-18.041,17.979-18.041c10.605,0,17.98,6.513,17.98,16.863
		c0,10.354-7.377,18.041-17.98,18.041C840.326,49.162,832.949,42.654,832.949,32.299z M855.33,34.098
		c0-10.604-1.18-17.111-4.713-17.111c-3.285,0-4.092,4.588-4.092,12.338c0,10.604,1.178,17.111,4.713,17.111
		C854.523,46.436,855.33,41.848,855.33,34.098z"/>
	<path d="M887.568,42.53c0,2.729,1.364,2.914,4.836,3.41v2.604h-20.894V45.94c2.295-0.188,3.285-0.372,3.285-2.231v-21.7
		l-3.285-2.105V17.98l13.826-3.723h2.479l-0.248,9.675c2.356-7.439,4.649-9.675,8.617-9.675c1.551,0,2.604,0.438,3.286,1.057v9.482
		h-1.61c-3.97,0-7.627,0.124-10.293,1.735V42.53L887.568,42.53z"/>
	<path d="M925.636,25.542c0-2.294-0.744-3.845-3.844-3.845c-1.736,0-3.162,0.312-4.588,0.808v21.202c0,1.859,0.805,2.046,3.1,2.231
		v2.604h-19.155V45.94c2.293-0.188,3.284-0.372,3.284-2.231v-21.7l-3.284-2.105V17.98l13.823-3.723h2.48l-0.248,6.265
		c2.229-2.914,5.766-6.265,11.594-6.265c6.014,0,9.609,3.351,9.609,10.169v19.279c0,1.859,0.985,2.046,3.278,2.231v2.604h-19.149
		V45.94c2.293-0.188,3.1-0.372,3.1-2.231V25.542L925.636,25.542z"/>
	<path d="M974.615,28.147v1.55h-19.652c0,6.819,3.844,11.159,9.299,11.159c3.906,0,6.881-1.303,9.238-4.34l1.301,0.806
		c-1.729,7.192-6.633,11.843-14.754,11.843c-9.238,0-16.615-5.891-16.615-16.739c0-11.222,7.996-18.164,17.172-18.164
		C969.904,14.258,974.615,20.025,974.615,28.147z M955.023,26.658h8.741c0-6.138-0.991-9.672-3.967-9.672
		C956.697,16.987,955.271,20.83,955.023,26.658z"/>
	<path d="M1004.312,21.512c0.311-0.867,0.495-1.304,0.495-1.859c0-1.302-0.743-1.734-4.028-2.17v-2.604h11.594v2.604
		c-2.109,0.684-2.604,1.116-3.162,2.479L994.828,53.69c-2.418,5.643-4.836,8.618-9.301,8.618c-2.541,0-4.4-0.992-5.33-2.479v-5.021
		c1.674,0.31,3.1,0.617,5.082,0.617c3.535,0,5.209-0.989,6.262-3.224l0.93-1.984l-14.506-30.254
		c-0.621-1.361-1.055-1.798-3.162-2.479V14.88h21.203v2.604c-3.287,0.436-4.029,0.868-4.029,2.17c0,0.56,0.189,0.992,0.439,1.736
		l6.074,14.631L1004.312,21.512z"/>
	<path d="M1024.154,32.299c0-10.354,7.377-18.041,17.979-18.041c10.605,0,17.98,6.513,17.98,16.863
		c0,10.354-7.377,18.041-17.98,18.041C1031.531,49.162,1024.154,42.654,1024.154,32.299z M1046.535,34.098
		c0-10.604-1.18-17.111-4.713-17.111c-3.285,0-4.092,4.588-4.092,12.338c0,10.604,1.178,17.111,4.713,17.111
		C1045.729,46.436,1046.535,41.848,1046.535,34.098z"/>
	<path d="M1078.835,42.53c0,2.729,1.363,2.914,4.836,3.41v2.604h-20.893V45.94c2.293-0.188,3.278-0.372,3.278-2.231V18.413h-4.396
		v-2.79l4.396-1.055v-0.496c0-9.856,7.013-14.072,15.375-14.072c7.138,0,10.291,2.418,10.291,6.388c0,1.799-0.983,3.349-2.418,4.027
		h-6.385c0.189-0.868,0.312-1.922,0.312-3.038c0-2.17-0.188-4.34-2.049-4.34c-1.734,0-2.354,1.363-2.354,3.721v8.121h7.068v3.534
		h-7.068V42.53H1078.835z"/>
	<path d="M1119.507,42.53c0,2.729,1.363,2.914,4.836,3.41v2.604h-20.893V45.94c2.293-0.188,3.285-0.372,3.285-2.231v-21.7
		l-3.285-2.105V17.98l13.824-3.723h2.479l-0.248,9.675c2.355-7.439,4.648-9.675,8.617-9.675c1.551,0,2.604,0.438,3.285,1.057v9.482
		h-1.611c-3.967,0-7.625,0.124-10.291,1.735V42.53H1119.507z"/>
	<path d="M1164.146,28.147v1.55h-19.652c0,6.819,3.844,11.159,9.299,11.159c3.906,0,6.881-1.303,9.238-4.34l1.301,0.806
		c-1.736,7.192-6.633,11.843-14.754,11.843c-9.238,0-16.615-5.891-16.615-16.739c0-11.222,7.996-18.164,17.172-18.164
		C1159.436,14.258,1164.146,20.025,1164.146,28.147z M1144.554,26.658h8.742c0-6.138-0.992-9.672-3.967-9.672
		C1146.229,16.987,1144.802,20.83,1144.554,26.658z"/>
	<path d="M1187.767,40.668c3.535,0,6.14-1.112,8.062-3.845l1.488,0.932c-2.047,7.997-7.316,11.407-14.509,11.407
		c-8.805,0-15.686-6.139-15.686-16.431c0-10.604,6.938-18.478,17.479-18.478c6.324,0,11.779,2.355,11.779,8.122
		c0,2.541-1.483,4.094-2.912,4.711h-6.387c0.188-1.484,0.248-2.665,0.248-3.72c0-3.721-0.992-6.139-3.719-6.139
		c-3.476,0-5.457,4.647-5.457,10.851C1178.158,35.896,1181.63,40.668,1187.767,40.668z"/>
	<path d="M1199.177,32.299c0-10.354,7.377-18.041,17.979-18.041c10.602,0,17.979,6.513,17.979,16.863
		c0,10.354-7.377,18.041-17.979,18.041C1206.554,49.162,1199.177,42.654,1199.177,32.299z M1221.558,34.098
		c0-10.604-1.18-17.111-4.713-17.111c-3.285,0-4.092,4.588-4.092,12.338c0,10.604,1.178,17.111,4.713,17.111
		C1220.751,46.436,1221.558,41.848,1221.558,34.098z"/>
	<path d="M1253.796,42.53c0,2.729,1.365,2.914,4.836,3.41v2.604h-20.893V45.94c2.295-0.188,3.285-0.372,3.285-2.231v-21.7
		l-3.285-2.105V17.98l13.826-3.723h2.479l-0.248,9.675c2.357-7.439,4.65-9.675,8.617-9.675c1.551,0,2.604,0.438,3.287,1.057v9.482
		h-1.611c-3.969,0-7.627,0.124-10.293,1.735V42.53L1253.796,42.53z"/>
	<path d="M1286.595,4.898V2.79L1300.482,0h2.17v41.165c0,2.107,0.186,3.162,1.983,3.162h1.427v2.729l-13.949,2.105h-2.418
		l0.186-5.891c-2.541,3.968-5.951,5.891-10.104,5.891c-7.191,0-12.523-5.519-12.523-15.935c0-12.274,7.502-18.66,16.738-18.66
		c2.418,0,4.527,0.559,5.891,1.675v-9.67L1286.595,4.898z M1280.146,29.509c0,7.627,2.604,12.712,7.006,12.712
		c0.869,0,1.799-0.123,2.729-0.438V24.18c0-3.782-0.744-5.769-3.721-5.769C1282.068,18.413,1280.146,22.815,1280.146,29.509z"/>
</g>
</svg>
