<?xml version="1.0" encoding="utf-8"?>
<!-- Generator: Adobe Illustrator 16.0.0, SVG Export Plug-In . SVG Version: 6.00 Build 0)  -->
<!DOCTYPE svg PUBLIC "-//W3C//DTD SVG 1.1//EN" "http://www.w3.org/Graphics/SVG/1.1/DTD/svg11.dtd">
<svg version="1.1" id="_x33_6" xmlns="http://www.w3.org/2000/svg" xmlns:xlink="http://www.w3.org/1999/xlink" x="0px" y="0px"
	 width="1440px" height="62.68px" viewBox="0 0 1440 62.68" enable-background="new 0 0 1440 62.68" xml:space="preserve">
<g>
	<path d="M290.665,15.189h6.881v3.534h-6.881v20.521c0,2.666,1.054,3.844,3.162,3.844c1.488,0,2.914-0.559,4.34-1.551l0.992,1.551
		c-2.479,4.152-6.138,6.386-11.345,6.386c-5.952,0-10.105-2.976-10.105-10.416V18.724h-3.35V16.43
		c5.27-1.86,10.105-5.519,13.577-9.854h2.728L290.665,15.189L290.665,15.189z"/>
	<path d="M331.274,28.458v1.549h-19.652c0,6.82,3.844,11.16,9.299,11.16c3.906,0,6.881-1.303,9.237-4.34l1.302,0.805
		c-1.736,7.193-6.634,11.843-14.755,11.843c-9.237,0-16.615-5.89-16.615-16.735c0-11.225,7.998-18.166,17.173-18.166
		C326.562,14.569,331.274,20.335,331.274,28.458z M311.684,26.969h8.741c0-6.138-0.992-9.672-3.968-9.672
		C313.357,17.297,311.931,21.141,311.684,26.969z"/>
	<path d="M349.812,42.84c0,2.728,1.364,2.914,4.836,3.41v2.604h-20.893V46.25c2.294-0.188,3.286-0.373,3.286-2.231v-21.7
		l-3.286-2.105V18.29l13.825-3.723h2.48l-0.248,9.674c2.356-7.439,4.65-9.674,8.618-9.674c1.553,0,2.604,0.438,3.286,1.057v9.482
		h-1.609c-3.971,0-7.625,0.125-10.292,1.735L349.812,42.84L349.812,42.84z"/>
	<path d="M407.346,25.667c0-2.293-0.744-3.719-3.348-3.719c-1.612,0-2.852,0.434-4.216,0.93V44.02c0,1.858,0.558,2.045,2.852,2.231
		v2.604H384.16V46.25c2.294-0.188,2.852-0.373,2.852-2.231V25.667c0-2.293-0.744-3.719-3.348-3.719
		c-1.612,0-2.852,0.369-4.216,0.865v21.202c0,1.858,0.558,2.045,2.852,2.231v2.604h-18.909V46.25
		c2.294-0.188,3.286-0.373,3.286-2.231v-21.7l-3.286-2.105V18.29l13.825-3.723h2.48l-0.248,6.389
		c2.17-3.41,5.642-6.389,11.284-6.389c4.835,0,7.998,1.86,8.803,6.513c2.105-3.351,5.952-6.513,11.407-6.513
		c5.766,0,9.176,3.286,9.176,9.733v19.715c0,1.858,0.992,2.045,3.286,2.231v2.604h-18.909V46.25
		c2.293-0.188,2.852-0.373,2.852-2.231L407.346,25.667L407.346,25.667z"/>
	<path d="M426.072,46.311l-0.372-8.369h3.162c1.113,4.959,4.463,8.742,9.234,8.742c2.79,0,5.021-1.304,5.021-3.906
		c0-3.034-2.417-3.967-6.386-5.146c-7.191-2.106-11.1-5.207-11.1-11.716c0-7.377,5.58-11.345,13.329-11.345
		c4.278,0,8.246,1.113,10.912,2.852v7.441h-2.914c-0.62-3.907-3.41-7.502-7.688-7.502c-2.479,0-4.217,1.302-4.217,3.531
		c0,2.479,1.799,3.41,5.58,4.649c7.75,2.541,11.903,5.084,11.903,12.212c0,7.502-5.643,11.718-14.321,11.718
		C432.83,49.473,428.862,48.232,426.072,46.311z"/>
	<path d="M468.665,32.61c0-10.354,7.378-18.041,17.979-18.041c10.601,0,17.979,6.513,17.979,16.863
		c0,10.354-7.377,18.041-17.979,18.041C476.042,49.473,468.665,42.963,468.665,32.61z M491.046,34.408
		c0-10.604-1.178-17.111-4.712-17.111c-3.286,0-4.091,4.588-4.091,12.338c0,10.604,1.178,17.111,4.711,17.111
		C490.24,46.746,491.046,42.158,491.046,34.408z"/>
	<path d="M523.348,42.84c0,2.728,1.364,2.914,4.836,3.41v2.604h-20.893V46.25c2.294-0.188,3.286-0.373,3.286-2.231V18.724h-4.402
		v-2.79l4.402-1.055v-0.496c0-9.856,7.005-14.072,15.375-14.072c7.129,0,10.292,2.418,10.292,6.389c0,1.798-0.992,3.348-2.418,4.026
		h-6.387c0.187-0.868,0.311-1.922,0.311-3.038c0-2.17-0.186-4.34-2.046-4.34c-1.736,0-2.356,1.363-2.356,3.721v8.121h7.068v3.534
		h-7.068V42.84L523.348,42.84z"/>
	<path d="M585.346,41.475c0,2.108,0.188,3.162,1.984,3.162h1.426v2.729l-13.949,2.104h-2.418l0.188-6.076
		c-2.108,2.854-5.396,6.076-11.16,6.076c-5.58,0-9.547-3.349-9.547-10.603V24.177c0-1.734-0.437-3.16-2.17-3.719l-0.933-0.312
		v-2.479l13.89-3.103h2.354l-0.372,8.187v15.003c0,2.853,1.116,4.463,3.906,4.463c1.55,0,2.479-0.186,4.03-0.682V24.177
		c0-1.734-0.437-3.16-2.17-3.719l-0.931-0.312v-2.479l13.888-3.103h2.354l-0.372,8.187L585.346,41.475L585.346,41.475z"/>
	<path d="M591.796,46.311l-0.372-8.369h3.162c1.116,4.959,4.464,8.742,9.238,8.742c2.79,0,5.021-1.304,5.021-3.906
		c0-3.034-2.417-3.967-6.385-5.146c-7.192-2.106-11.098-5.207-11.098-11.716c0-7.377,5.579-11.345,13.329-11.345
		c4.274,0,8.242,1.113,10.908,2.852v7.441h-2.91c-0.621-3.907-3.41-7.502-7.688-7.502c-2.479,0-4.216,1.302-4.216,3.531
		c0,2.479,1.798,3.41,5.58,4.649c7.75,2.541,11.899,5.084,11.899,12.212c0,7.502-5.642,11.718-14.317,11.718
		C598.553,49.473,594.585,48.232,591.796,46.311z"/>
	<path d="M652.554,28.458v1.549h-19.649c0,6.82,3.844,11.16,9.299,11.16c3.905,0,6.882-1.303,9.234-4.34l1.306,0.805
		c-1.736,7.193-6.636,11.843-14.756,11.843c-9.237,0-16.615-5.89-16.615-16.735c0-11.225,7.998-18.166,17.173-18.166
		C647.842,14.569,652.554,20.335,652.554,28.458z M632.963,26.969h8.741c0-6.138-0.991-9.672-3.968-9.672
		C634.637,17.297,633.21,21.141,632.963,26.969z"/>
	<path d="M668.24,32.61c0-10.354,7.377-18.041,17.979-18.041c10.604,0,17.979,6.513,17.979,16.863
		c0,10.354-7.377,18.041-17.979,18.041C675.617,49.473,668.24,42.963,668.24,32.61z M690.621,34.408
		c0-10.604-1.178-17.111-4.713-17.111c-3.285,0-4.092,4.588-4.092,12.338c0,10.604,1.179,17.111,4.713,17.111
		C689.814,46.746,690.621,42.158,690.621,34.408z"/>
	<path d="M722.923,42.84c0,2.728,1.363,2.914,4.836,3.41v2.604h-20.894V46.25c2.295-0.188,3.287-0.373,3.287-2.231V18.724h-4.402
		v-2.79l4.402-1.055v-0.496c0-9.856,7.005-14.072,15.375-14.072c7.129,0,10.291,2.418,10.291,6.389c0,1.798-0.992,3.348-2.418,4.026
		h-6.389c0.188-0.868,0.312-1.922,0.312-3.038c0-2.17-0.188-4.34-2.045-4.34c-1.736,0-2.355,1.363-2.355,3.721v8.121h7.066v3.534
		h-7.066L722.923,42.84L722.923,42.84z"/>
	<path d="M768.306,42.84c0,2.728,1.363,2.914,4.837,3.41v2.604H752.25V46.25c2.293-0.188,3.285-0.373,3.285-2.231V18.724h-4.402
		v-2.79l4.402-1.055v-0.496c0-9.856,7.006-14.072,15.375-14.072c7.129,0,10.291,2.418,10.291,6.389c0,1.798-0.992,3.348-2.418,4.026
		h-6.385c0.186-0.868,0.311-1.922,0.311-3.038c0-2.17-0.188-4.34-2.047-4.34c-1.736,0-2.355,1.363-2.355,3.721v8.121h7.068v3.534
		h-7.068L768.306,42.84L768.306,42.84z"/>
	<path d="M776.367,32.61c0-10.354,7.377-18.041,17.979-18.041c10.605,0,17.98,6.513,17.98,16.863
		c0,10.354-7.377,18.041-17.98,18.041C783.744,49.473,776.367,42.963,776.367,32.61z M798.748,34.408
		c0-10.604-1.178-17.111-4.713-17.111c-3.285,0-4.09,4.588-4.09,12.338c0,10.604,1.178,17.111,4.711,17.111
		C797.941,46.746,798.748,42.158,798.748,34.408z"/>
	<path d="M830.988,42.84c0,2.728,1.361,2.914,4.836,3.41v2.604h-20.896V46.25c2.295-0.188,3.287-0.373,3.287-2.231v-21.7
		l-3.287-2.105V18.29l13.826-3.723h2.479l-0.245,9.674c2.354-7.439,4.646-9.674,8.611-9.674c1.555,0,2.605,0.438,3.285,1.057v9.482
		h-1.607c-3.971,0-7.625,0.125-10.291,1.735V42.84H830.988z"/>
	<path d="M865.087,40.979c3.533,0,6.137-1.112,8.062-3.845l1.485,0.933c-2.045,7.996-7.312,11.406-14.508,11.406
		c-8.803,0-15.687-6.138-15.687-16.43c0-10.603,6.942-18.477,17.481-18.477c6.322,0,11.779,2.355,11.779,8.122
		c0,2.542-1.488,4.095-2.914,4.711H864.4c0.188-1.485,0.248-2.666,0.248-3.721c0-3.72-0.99-6.138-3.723-6.138
		c-3.471,0-5.455,4.647-5.455,10.851C855.479,36.205,858.949,40.979,865.087,40.979z"/>
	<path d="M907.679,28.458v1.549H888.03c0,6.82,3.844,11.16,9.299,11.16c3.906,0,6.883-1.303,9.238-4.34l1.303,0.805
		c-1.736,7.193-6.635,11.843-14.756,11.843c-9.238,0-16.617-5.89-16.617-16.735c0-11.225,8-18.166,17.174-18.166
		C902.968,14.569,907.679,20.335,907.679,28.458z M888.089,26.969h8.742c0-6.138-0.992-9.672-3.969-9.672
		C889.763,17.297,888.337,21.141,888.089,26.969z"/>
	<path d="M923.369,32.61c0-10.354,7.377-18.041,17.979-18.041c10.604,0,17.98,6.513,17.98,16.863
		c0,10.354-7.379,18.041-17.98,18.041C930.748,49.473,923.369,42.963,923.369,32.61z M945.75,34.408
		c0-10.604-1.178-17.111-4.711-17.111c-3.287,0-4.092,4.588-4.092,12.338c0,10.604,1.178,17.111,4.711,17.111
		C944.943,46.746,945.75,42.158,945.75,34.408z"/>
	<path d="M978.05,42.84c0,2.728,1.363,2.914,4.834,3.41v2.604h-20.893V46.25c2.295-0.188,3.287-0.373,3.287-2.231V18.724h-4.402
		v-2.79l4.402-1.055v-0.496c0-9.856,7.006-14.072,15.375-14.072c7.129,0,10.291,2.418,10.291,6.389c0,1.798-0.992,3.348-2.421,4.026
		h-6.386c0.188-0.868,0.312-1.922,0.312-3.038c0-2.17-0.188-4.34-2.045-4.34c-1.736,0-2.355,1.363-2.355,3.721v8.121h7.066v3.534
		h-7.066V42.84z"/>
	<path d="M1010.352,6.882l-3.282-1.674V3.101l13.887-2.79h2.17v20.521c2.231-2.914,5.766-6.265,11.594-6.265
		c6.015,0,9.609,3.351,9.609,10.17v19.278c0,1.858,0.992,2.045,3.287,2.231v2.604h-19.158V46.25c2.295-0.188,3.1-0.373,3.1-2.231
		V25.852c0-2.293-0.743-3.844-3.844-3.844c-1.736,0-3.162,0.312-4.588,0.808v21.202c0,1.858,0.807,2.045,3.1,2.231v2.604h-19.155
		V46.25c2.298-0.188,3.284-0.373,3.284-2.231V6.882H1010.352z"/>
	<path d="M1079.542,42.033c0,1.237,0.123,2.543,1.549,2.543c0.811,0,1.611-0.188,1.922-0.312l0.438,1.858
		c-2.17,1.981-4.896,3.349-8.617,3.349c-3.781,0-6.51-1.856-7.625-5.146c-1.736,2.664-4.588,4.896-9.176,4.896
		c-5.332,0-9.113-2.914-9.113-8.433c0-5.455,3.719-7.688,8.06-9.175l10.045-3.474v-6.817c0-2.479-0.618-4.154-2.666-4.154
		c-2.17,0-2.978,1.922-2.978,4.771c0,1.487,0.248,3.038,0.621,4.591l-7.688,0.987c-1.856-0.619-3.224-2.17-3.224-4.522
		c0-5.893,6.076-8.435,13.824-8.435c9.053,0,14.633,2.666,14.633,11.035v16.435h-0.002L1079.542,42.033L1079.542,42.033z
		 M1067.02,42.467V30.999l-2.479,0.931c-1.984,0.743-3.352,1.735-3.352,5.396c0,3.1,1.057,5.455,4.027,5.455
		C1065.904,42.777,1066.4,42.656,1067.02,42.467z"/>
	<path d="M1083.328,5.208V3.101l13.887-2.79h2.17v20.396c1.611-2.729,5.021-6.141,10.416-6.141c7.191,0,12.584,4.896,12.584,15.313
		c0,13.018-8.369,19.59-19.156,19.59c-5.766,0-12.396-0.992-16.611-4.216V6.882L1083.328,5.208z M1109.365,33.539
		c0-8.434-2.979-11.53-7.129-11.53c-0.992,0-1.859,0.124-2.854,0.56v17.547c0,3.655,0.744,6.196,3.781,6.196
		C1107.32,46.311,1109.365,40.732,1109.365,33.539z"/>
	<path d="M1141.044,44.018c0,1.858,0.992,2.045,3.287,2.231v2.604h-19.344V46.25c2.295-0.188,3.281-0.373,3.281-2.231v-21.7
		l-3.281-2.105V18.29l13.822-3.723h2.23v29.449L1141.044,44.018L1141.044,44.018z M1128.275,6.138c0-3.285,2.418-6.139,6.568-6.139
		c4.094,0,6.572,2.854,6.572,6.139s-2.479,6.138-6.572,6.138C1130.693,12.275,1128.275,9.424,1128.275,6.138z"/>
	<path d="M1161.941,15.189h6.883v3.534h-6.883v20.521c0,2.666,1.055,3.844,3.16,3.844c1.486,0,2.912-0.559,4.342-1.551l0.99,1.551
		c-2.479,4.152-6.141,6.386-11.348,6.386c-5.951,0-10.104-2.976-10.104-10.416V18.724h-3.354V16.43
		c5.271-1.86,10.105-5.519,13.578-9.854h2.73v8.613H1161.941z"/>
</g>
</svg>
