<?xml version="1.0" encoding="utf-8"?>
<!-- Generator: Adobe Illustrator 16.0.0, SVG Export Plug-In . SVG Version: 6.00 Build 0)  -->
<!DOCTYPE svg PUBLIC "-//W3C//DTD SVG 1.1//EN" "http://www.w3.org/Graphics/SVG/1.1/DTD/svg11.dtd">
<svg version="1.1" id="_x34_0" xmlns="http://www.w3.org/2000/svg" xmlns:xlink="http://www.w3.org/1999/xlink" x="0px" y="0px"
	 width="1440px" height="62.68px" viewBox="0 0 1440 62.68" enable-background="new 0 0 1440 62.68" xml:space="preserve">
<g>
	<path d="M263.359,32.609c0-10.354,7.378-18.041,17.979-18.041c10.602,0,17.979,6.511,17.979,16.863
		c0,10.354-7.377,18.041-17.979,18.041C270.737,49.473,263.359,42.963,263.359,32.609z M285.74,34.408
		c0-10.604-1.178-17.112-4.712-17.112c-3.286,0-4.091,4.587-4.091,12.338c0,10.604,1.178,17.111,4.711,17.111
		C284.934,46.746,285.74,42.158,285.74,34.408z"/>
	<path d="M338.066,41.475c0,2.108,0.186,3.162,1.984,3.162h1.426v2.729l-13.949,2.106h-2.418l0.186-6.076
		c-2.108,2.854-5.394,6.076-11.16,6.076c-5.58,0-9.547-3.349-9.547-10.603V24.179c0-1.736-0.434-3.162-2.17-3.722l-0.93-0.31v-2.48
		l13.887-3.101h2.356l-0.372,8.185v15.003c0,2.853,1.116,4.463,3.906,4.463c1.55,0,2.479-0.186,4.03-0.682V24.179
		c0-1.736-0.434-3.162-2.17-3.722l-0.93-0.31v-2.48l13.887-3.101h2.356l-0.372,8.185V41.475L338.066,41.475z"/>
	<path d="M358.961,15.189h6.881v3.534h-6.881v20.521c0,2.666,1.054,3.844,3.162,3.844c1.488,0,2.914-0.559,4.34-1.551l0.992,1.551
		c-2.479,4.152-6.138,6.386-11.345,6.386c-5.952,0-10.105-2.976-10.105-10.416V18.723h-3.348v-2.294
		c5.27-1.86,10.104-5.519,13.577-9.856h2.728L358.961,15.189L358.961,15.189z"/>
	<path d="M382.025,32.609c0-10.354,7.378-18.041,17.979-18.041c10.602,0,17.979,6.511,17.979,16.863
		c0,10.354-7.378,18.041-17.979,18.041C389.403,49.473,382.025,42.963,382.025,32.609z M404.406,34.408
		c0-10.604-1.178-17.112-4.712-17.112c-3.286,0-4.091,4.587-4.091,12.338c0,10.604,1.178,17.111,4.711,17.111
		C403.6,46.746,404.406,42.158,404.406,34.408z"/>
	<path d="M436.708,42.84c0,2.728,1.364,2.914,4.836,3.41v2.604h-20.893V46.25c2.294-0.188,3.286-0.373,3.286-2.231V18.723h-4.402
		v-2.79l4.402-1.055v-0.496c0-9.856,7.005-14.072,15.375-14.072c7.129,0,10.291,2.418,10.291,6.387c0,1.798-0.991,3.348-2.418,4.028
		H440.8c0.187-0.868,0.311-1.923,0.311-3.038c0-2.17-0.187-4.34-2.046-4.34c-1.736,0-2.356,1.363-2.356,3.721v8.121h7.068v3.534
		h-7.068V42.84z"/>
	<path d="M480.23,44.018c0,1.858,0.992,2.045,3.286,2.231v2.604h-19.343V46.25c2.294-0.188,3.286-0.373,3.286-2.231V6.881
		l-3.286-1.674V3.1l13.887-2.79h2.171L480.23,44.018L480.23,44.018z"/>
	<path d="M501.931,44.018c0,1.858,0.992,2.045,3.286,2.231v2.604h-19.343V46.25c2.294-0.188,3.286-0.373,3.286-2.231v-21.7
		l-3.286-2.108v-1.921l13.825-3.721h2.231V44.018L501.931,44.018z M489.16,6.137c0-3.285,2.417-6.139,6.571-6.139
		c4.092,0,6.571,2.854,6.571,6.139s-2.479,6.138-6.571,6.138C491.578,12.275,489.16,9.423,489.16,6.137z"/>
	<path d="M532.062,25.853c0-2.295-0.744-3.845-3.845-3.845c-1.735,0-3.162,0.312-4.588,0.808v21.202
		c0,1.858,0.808,2.045,3.101,2.231v2.604h-19.157V46.25c2.294-0.188,3.286-0.373,3.286-2.231v-21.7l-3.286-2.108v-1.921
		l13.825-3.721h2.479l-0.248,6.263c2.232-2.915,5.767-6.263,11.594-6.263c6.015,0,9.609,3.349,9.609,10.169v19.279
		c0,1.858,0.992,2.045,3.285,2.231v2.604h-19.156V46.25c2.293-0.188,3.101-0.373,3.101-2.231V25.853L532.062,25.853z"/>
	<path d="M581.041,28.457v1.549h-19.652c0,6.82,3.845,11.16,9.299,11.16c3.905,0,6.883-1.303,9.237-4.34l1.302,0.805
		c-1.734,7.193-6.634,11.843-14.754,11.843c-9.237,0-16.615-5.89-16.615-16.738c0-11.222,7.998-18.166,17.174-18.166
		C576.33,14.569,581.041,20.335,581.041,28.457z M561.451,26.969h8.74c0-6.138-0.991-9.672-3.968-9.672
		C563.125,17.296,561.698,21.14,561.451,26.969z"/>
	<path d="M596.729,32.609c0-10.354,7.379-18.041,17.979-18.041s17.979,6.511,17.979,16.863c0,10.354-7.377,18.041-17.979,18.041
		S596.729,42.963,596.729,32.609z M619.107,34.408c0-10.604-1.179-17.112-4.711-17.112c-3.285,0-4.094,4.587-4.094,12.338
		c0,10.604,1.18,17.111,4.712,17.111C618.303,46.746,619.107,42.158,619.107,34.408z"/>
	<path d="M651.41,42.84c0,2.728,1.365,2.914,4.836,3.41v2.604h-20.894V46.25c2.295-0.188,3.286-0.373,3.286-2.231V18.723h-4.399
		v-2.79l4.399-1.055v-0.496c0-9.856,7.005-14.072,15.375-14.072c7.129,0,10.291,2.418,10.291,6.387c0,1.798-0.99,3.348-2.418,4.028
		H655.5c0.188-0.868,0.312-1.923,0.312-3.038c0-2.17-0.188-4.34-2.047-4.34c-1.734,0-2.355,1.363-2.355,3.721v8.121h7.068v3.534
		h-7.068V42.84L651.41,42.84z"/>
	<path d="M699.646,40.979c3.531,0,6.137-1.114,8.059-3.845l1.488,0.933c-2.047,7.996-7.314,11.406-14.51,11.406
		c-8.803,0-15.684-6.138-15.684-16.431c0-10.602,6.943-18.475,17.482-18.475c6.322,0,11.777,2.355,11.777,8.122
		c0,2.541-1.486,4.094-2.914,4.712h-6.385c0.188-1.486,0.248-2.664,0.248-3.72c0-3.722-0.992-6.139-3.721-6.139
		c-3.473,0-5.455,4.649-5.455,10.851C690.037,36.205,693.507,40.979,699.646,40.979z"/>
	<path d="M711.054,32.609c0-10.354,7.379-18.041,17.98-18.041s17.979,6.511,17.979,16.863c0,10.354-7.379,18.041-17.979,18.041
		C718.433,49.473,711.054,42.963,711.054,32.609z M733.435,34.408c0-10.604-1.178-17.112-4.711-17.112
		c-3.287,0-4.092,4.587-4.092,12.338c0,10.604,1.178,17.111,4.711,17.111C732.628,46.746,733.435,42.158,733.435,34.408z"/>
	<path d="M769.457,5.208V3.1l13.889-2.79h2.17v41.165c0,2.108,0.188,3.162,1.982,3.162h1.426v2.729l-13.949,2.106h-2.418l0.189-5.89
		c-2.541,3.967-5.951,5.89-10.105,5.89c-7.189,0-12.521-5.519-12.521-15.935c0-12.273,7.502-18.66,16.738-18.66
		c2.418,0,4.525,0.559,5.891,1.674V6.881L769.457,5.208z M763.009,29.82c0,7.625,2.605,12.71,7.006,12.71
		c0.867,0,1.799-0.123,2.729-0.436V24.49c0-3.783-0.744-5.767-3.719-5.767C764.931,18.723,763.009,23.124,763.009,29.82z"/>
	<path d="M822.218,28.457v1.549h-19.652c0,6.82,3.844,11.16,9.299,11.16c3.904,0,6.883-1.303,9.236-4.34l1.305,0.805
		c-1.736,7.193-6.637,11.843-14.756,11.843c-9.238,0-16.615-5.89-16.615-16.738c0-11.222,7.998-18.166,17.174-18.166
		C817.505,14.569,822.218,20.335,822.218,28.457z M802.626,26.969h8.742c0-6.138-0.992-9.672-3.971-9.672
		C804.3,17.296,802.875,21.14,802.626,26.969z"/>
	<path d="M837.904,32.609c0-10.354,7.377-18.041,17.979-18.041c10.605,0,17.98,6.511,17.98,16.863
		c0,10.354-7.377,18.041-17.98,18.041C845.281,49.472,837.904,42.963,837.904,32.609z M860.285,34.408
		c0-10.604-1.178-17.112-4.713-17.112c-3.285,0-4.092,4.587-4.092,12.338c0,10.604,1.18,17.111,4.713,17.111
		C859.478,46.746,860.285,42.158,860.285,34.408z"/>
	<path d="M892.587,42.84c0,2.728,1.363,2.914,4.834,3.41v2.604h-20.891V46.25c2.295-0.188,3.285-0.373,3.285-2.231V18.723h-4.4
		v-2.79l4.4-1.055v-0.496c0-9.856,7.008-14.072,15.375-14.072c7.131,0,10.291,2.418,10.291,6.387c0,1.798-0.99,3.348-2.418,4.028
		h-6.387c0.189-0.868,0.312-1.923,0.312-3.038c0-2.17-0.189-4.34-2.047-4.34c-1.734,0-2.354,1.363-2.354,3.721v8.121h7.066v3.534
		h-7.066V42.84H892.587z"/>
	<path d="M940.824,40.979c3.533,0,6.137-1.114,8.059-3.845l1.488,0.933c-2.045,7.996-7.316,11.406-14.508,11.406
		c-8.805,0-15.686-6.138-15.686-16.431c0-10.602,6.943-18.475,17.482-18.475c6.322,0,11.777,2.355,11.777,8.122
		c0,2.541-1.486,4.094-2.914,4.712h-6.385c0.188-1.486,0.248-2.664,0.248-3.72c0-3.722-0.992-6.139-3.721-6.139
		c-3.473,0-5.455,4.649-5.455,10.851C931.212,36.205,934.683,40.979,940.824,40.979z"/>
	<path d="M952.234,32.609c0-10.354,7.377-18.041,17.979-18.041s17.98,6.511,17.98,16.863c0,10.354-7.379,18.041-17.98,18.041
		S952.234,42.963,952.234,32.609z M974.615,34.408c0-10.604-1.182-17.112-4.713-17.112c-3.285,0-4.094,4.587-4.094,12.338
		c0,10.604,1.18,17.111,4.715,17.111C973.806,46.746,974.615,42.158,974.615,34.408z"/>
	<path d="M1015.285,25.853c0-2.295-0.744-3.845-3.844-3.845c-1.736,0-3.162,0.312-4.59,0.808v21.202
		c0,1.858,0.809,2.045,3.102,2.231v2.604h-19.156V46.25c2.295-0.188,3.285-0.373,3.285-2.231v-21.7l-3.285-2.108v-1.921
		l13.826-3.721h2.479l-0.248,6.263c2.232-2.915,5.768-6.263,11.596-6.263c6.014,0,9.607,3.349,9.607,10.169v19.279
		c0,1.858,0.992,2.045,3.285,2.231v2.604h-19.156V46.25c2.295-0.188,3.102-0.373,3.102-2.231V25.853H1015.285z"/>
	<path d="M1052.732,5.208V3.1l13.887-2.79h2.17v41.165c0,2.108,0.188,3.162,1.984,3.162h1.426v2.729l-13.949,2.106h-2.418
		l0.186-5.89c-2.541,3.967-5.951,5.89-10.104,5.89c-7.193,0-12.523-5.519-12.523-15.935c0-12.273,7.5-18.66,16.738-18.66
		c2.418,0,4.525,0.559,5.889,1.674V6.881L1052.732,5.208z M1046.285,29.82c0,7.625,2.604,12.71,7.006,12.71
		c0.867,0,1.797-0.123,2.727-0.436V24.49c0-3.783-0.742-5.767-3.719-5.767C1048.207,18.723,1046.285,23.124,1046.285,29.82z"/>
	<path d="M1110.265,41.475c0,2.108,0.188,3.162,1.982,3.162h1.426v2.729l-13.949,2.106h-2.418l0.189-6.076
		c-2.109,2.854-5.396,6.076-11.16,6.076c-5.58,0-9.547-3.349-9.547-10.603V24.179c0-1.736-0.438-3.162-2.17-3.722l-0.932-0.31v-2.48
		l13.889-3.101h2.354l-0.371,8.185v15.003c0,2.853,1.115,4.463,3.904,4.463c1.551,0,2.48-0.186,4.031-0.682V24.179
		c0-1.736-0.438-3.162-2.17-3.722l-0.932-0.31v-2.48l13.889-3.101h2.354l-0.371,8.185v18.724H1110.265z"/>
	<path d="M1136.429,40.979c3.533,0,6.139-1.114,8.061-3.845l1.486,0.933c-2.045,7.996-7.314,11.406-14.508,11.406
		c-8.803,0-15.684-6.138-15.684-16.431c0-10.602,6.941-18.475,17.48-18.475c6.324,0,11.779,2.355,11.779,8.122
		c0,2.541-1.488,4.094-2.914,4.712h-6.385c0.186-1.486,0.248-2.664,0.248-3.72c0-3.722-0.992-6.139-3.723-6.139
		c-3.473,0-5.453,4.649-5.453,10.851C1126.822,36.205,1130.292,40.979,1136.429,40.979z"/>
	<path d="M1163.212,15.189h6.883v3.534h-6.883v20.521c0,2.666,1.055,3.844,3.162,3.844c1.488,0,2.914-0.559,4.34-1.551l0.992,1.551
		c-2.48,4.152-6.141,6.386-11.346,6.386c-5.951,0-10.105-2.976-10.105-10.416V18.723h-3.348v-2.294
		c5.27-1.86,10.104-5.519,13.578-9.856h2.727V15.189z"/>
</g>
</svg>
