<?xml version="1.0" encoding="utf-8"?>
<!-- Generator: Adobe Illustrator 16.0.0, SVG Export Plug-In . SVG Version: 6.00 Build 0)  -->
<!DOCTYPE svg PUBLIC "-//W3C//DTD SVG 1.1//EN" "http://www.w3.org/Graphics/SVG/1.1/DTD/svg11.dtd">
<svg version="1.1" id="_x34_" xmlns="http://www.w3.org/2000/svg" xmlns:xlink="http://www.w3.org/1999/xlink" x="0px" y="0px"
	 width="1440px" height="62.641px" viewBox="0 0 1440 62.641" enable-background="new 0 0 1440 62.641" xml:space="preserve">
<g>
	<path d="M96.057,42.84c0,2.729,1.364,2.914,4.836,3.41v2.604H80V46.25c2.294-0.188,3.286-0.372,3.286-2.23v-21.7L80,20.211v-1.922
		l13.825-3.722h2.48l-0.248,9.674c2.356-7.439,4.65-9.674,8.618-9.674c1.55,0,2.604,0.437,3.286,1.056v9.483h-1.612
		c-3.968,0-7.625,0.124-10.292,1.734V42.84z"/>
	<path d="M125.693,44.018c0,1.858,0.992,2.046,3.286,2.23v2.604h-19.343V46.25c2.294-0.188,3.286-0.372,3.286-2.23v-21.7
		l-3.286-2.106V18.29l13.825-3.722h2.232V44.018z M112.922,6.137c0-3.284,2.417-6.138,6.571-6.138c4.092,0,6.572,2.854,6.572,6.14
		c0,3.284-2.48,6.138-6.572,6.138C115.339,12.275,112.922,9.424,112.922,6.137z"/>
	<path d="M146.586,15.189h6.881v3.534h-6.881v20.521c0,2.666,1.054,3.844,3.162,3.844c1.488,0,2.914-0.558,4.34-1.55l0.992,1.55
		c-2.479,4.153-6.138,6.388-11.345,6.388c-5.952,0-10.105-2.978-10.105-10.416V18.724h-3.348V16.43
		c5.27-1.86,10.104-5.52,13.577-9.855h2.728L146.586,15.189L146.586,15.189z"/>
	<path d="M187.196,28.457v1.55h-19.653c0,6.819,3.844,11.159,9.299,11.159c3.906,0,6.881-1.302,9.237-4.34l1.302,0.806
		c-1.736,7.192-6.634,11.844-14.755,11.844c-9.237,0-16.615-5.892-16.615-16.739c0-11.222,7.998-18.164,17.173-18.164
		C182.484,14.569,187.196,20.335,187.196,28.457z M167.605,26.969h8.741c0-6.138-0.992-9.672-3.968-9.672
		C169.279,17.297,167.852,21.141,167.605,26.969z"/>
	<path d="M201.331,32.61c0-10.354,7.378-18.041,17.979-18.041c10.602,0,17.979,6.512,17.979,16.863
		c0,10.354-7.377,18.041-17.979,18.041C208.709,49.474,201.331,42.964,201.331,32.61z M223.712,34.408
		c0-10.604-1.178-17.111-4.712-17.111c-3.286,0-4.091,4.588-4.091,12.338c0,10.604,1.178,17.111,4.711,17.111
		C222.907,46.746,223.712,42.158,223.712,34.408z"/>
	<path d="M256.014,42.84c0,2.729,1.364,2.914,4.836,3.41v2.604h-20.893V46.25c2.294-0.188,3.286-0.372,3.286-2.23V18.724h-4.402
		v-2.79l4.402-1.056v-0.496c0-9.855,7.005-14.071,15.375-14.071c7.129,0,10.292,2.418,10.292,6.388c0,1.798-0.992,3.348-2.418,4.027
		h-6.386c0.186-0.868,0.31-1.923,0.31-3.038c0-2.17-0.186-4.34-2.046-4.34c-1.736,0-2.356,1.362-2.356,3.721v8.121h7.068v3.534
		h-7.068V42.84L256.014,42.84z"/>
	<path d="M283.481,22.319l-3.286-2.106V18.29l13.825-3.722h2.479l-0.248,6.14c1.612-2.729,5.022-6.14,10.416-6.14
		c7.192,0,12.585,4.896,12.585,15.312c0,13.021-7.874,19.593-17.979,19.593c-2.232,0-4.092-0.372-5.022-1.056v8.433
		c0,2.17,1.116,2.23,4.588,2.542v2.604h-20.645v-2.604c2.293-0.188,3.286-0.372,3.286-2.229L283.481,22.319L283.481,22.319z
		 M306.233,33.54c0-8.434-2.976-11.531-7.129-11.531c-0.992,0-1.86,0.124-2.852,0.561v17.547c0,3.655,0.744,6.197,3.782,6.197
		C304.187,46.312,306.233,40.732,306.233,33.54z"/>
	<path d="M351.927,42.034c0,1.237,0.124,2.542,1.55,2.542c0.806,0,1.612-0.188,1.922-0.312l0.434,1.858
		c-2.17,1.981-4.897,3.35-8.617,3.35c-3.782,0-6.51-1.859-7.626-5.146c-1.736,2.665-4.587,4.896-9.175,4.896
		c-5.332,0-9.113-2.914-9.113-8.434c0-5.456,3.72-7.688,8.06-9.176l10.043-3.474v-6.817c0-2.479-0.62-4.154-2.666-4.154
		c-2.17,0-2.978,1.922-2.978,4.772c0,1.486,0.248,3.038,0.62,4.59l-7.688,0.989c-1.86-0.619-3.224-2.17-3.224-4.523
		c0-5.892,6.076-8.434,13.826-8.434c9.051,0,14.631,2.666,14.631,11.035V42.034L351.927,42.034z M339.403,42.468V30.999
		l-2.479,0.932c-1.984,0.742-3.348,1.733-3.348,5.396c0,3.1,1.054,5.456,4.03,5.456C338.287,42.778,338.783,42.655,339.403,42.468z"
		/>
	<path d="M357.88,46.312l-0.372-8.369h3.162c1.116,4.959,4.463,8.741,9.236,8.741c2.79,0,5.021-1.304,5.021-3.904
		c0-3.037-2.417-3.969-6.385-5.146c-7.192-2.105-11.098-5.207-11.098-11.717c0-7.378,5.579-11.348,13.329-11.348
		c4.276,0,8.244,1.116,10.91,2.854v7.438h-2.912c-0.62-3.904-3.41-7.502-7.688-7.502c-2.479,0-4.216,1.304-4.216,3.534
		c0,2.479,1.798,3.407,5.579,4.647c7.75,2.542,11.901,5.084,11.901,12.213c0,7.502-5.642,11.72-14.319,11.72
		C364.638,49.474,360.67,48.233,357.88,46.312z"/>
	<path d="M388.074,46.312l-0.37-8.369h3.16c1.116,4.959,4.466,8.741,9.236,8.741c2.79,0,5.021-1.304,5.021-3.904
		c0-3.037-2.417-3.969-6.387-5.146c-7.19-2.105-11.1-5.207-11.1-11.717c0-7.378,5.58-11.348,13.329-11.348
		c4.278,0,8.246,1.116,10.912,2.854v7.438h-2.914c-0.62-3.904-3.41-7.502-7.688-7.502c-2.479,0-4.218,1.304-4.218,3.534
		c0,2.479,1.8,3.407,5.58,4.647c7.75,2.542,11.903,5.084,11.903,12.213c0,7.502-5.645,11.72-14.321,11.72
		C394.832,49.474,390.864,48.233,388.074,46.312z"/>
	<path d="M447.53,42.034c0,1.237,0.124,2.542,1.552,2.542c0.806,0,1.61-0.188,1.922-0.312l0.434,1.858
		c-2.17,1.981-4.896,3.35-8.615,3.35c-3.78,0-6.512-1.859-7.626-5.146c-1.734,2.665-4.587,4.896-9.177,4.896
		c-5.332,0-9.111-2.914-9.111-8.434c0-5.456,3.722-7.688,8.062-9.176l10.043-3.474v-6.817c0-2.479-0.62-4.154-2.666-4.154
		c-2.17,0-2.976,1.922-2.976,4.772c0,1.486,0.246,3.038,0.618,4.59l-7.689,0.99c-1.858-0.619-3.226-2.17-3.226-4.523
		c0-5.892,6.076-8.434,13.826-8.434c9.053,0,14.631,2.666,14.631,11.035L447.53,42.034L447.53,42.034z M435.007,42.468V30.999
		l-2.479,0.932c-1.982,0.742-3.35,1.733-3.35,5.396c0,3.1,1.056,5.456,4.03,5.456C433.891,42.778,434.387,42.655,435.007,42.468z"/>
	<path d="M460.551,36.206c-0.806,0.744-1.55,1.55-1.55,2.729c0,0.932,0.62,1.674,1.674,1.674H474.5
		c8.928,0,12.396,3.846,12.396,9.549c0,8.12-7.625,12.521-19.278,12.521c-10.167,0-16.491-2.604-16.491-7.503
		c0-3.035,3.1-4.34,5.704-4.587c-2.666-1.055-4.216-3.78-4.216-6.446c0-4.218,2.852-6.884,6.197-8.617
		c-3.473-1.61-6.015-4.4-6.015-8.987c0-7.562,6.51-11.968,15.499-11.968c2.542,0,4.402,0.372,6.016,0.808l11.348-0.247v4.463h-2.914
		l-3.534-0.124c2.294,1.553,3.782,3.906,3.782,7.008c0,6.941-6.636,10.786-15.251,10.786
		C465.387,37.26,462.845,36.95,460.551,36.206z M458.257,52.201c-0.248,0.312-0.312,0.99-0.312,1.674
		c0,3.598,4.028,5.644,9.855,5.644c5.396,0,10.415-1.18,10.415-4.959c0-1.61-0.992-2.354-2.976-2.354L458.257,52.201L458.257,52.201
		z M471.339,26.163c0-4.588-1.054-8.806-3.596-8.806c-2.48,0-3.162,2.914-3.162,8.186c0,4.896,1.114,9.052,3.596,9.052
		C470.719,34.594,471.339,31.742,471.339,26.163z"/>
	<path d="M518.21,28.457v1.55h-19.653c0,6.819,3.846,11.159,9.301,11.159c3.904,0,6.881-1.302,9.235-4.34l1.302,0.806
		c-1.732,7.192-6.634,11.844-14.755,11.844c-9.235,0-16.613-5.892-16.613-16.739c0-11.222,7.997-18.164,17.175-18.164
		C513.499,14.569,518.21,20.335,518.21,28.457z M498.62,26.969h8.739c0-6.138-0.99-9.672-3.97-9.672
		C500.293,17.297,498.867,21.141,498.62,26.969z"/>
	<path d="M532.345,32.61c0-10.354,7.378-18.041,17.979-18.041c10.601,0,17.979,6.512,17.979,16.863
		c0,10.354-7.377,18.041-17.979,18.041C539.723,49.474,532.345,42.964,532.345,32.61z M554.727,34.408
		c0-10.604-1.179-17.111-4.713-17.111c-3.285,0-4.091,4.588-4.091,12.338c0,10.604,1.179,17.111,4.711,17.111
		C553.92,46.746,554.727,42.158,554.727,34.408z"/>
	<path d="M587.029,42.84c0,2.729,1.362,2.914,4.836,3.41v2.604h-20.895V46.25c2.294-0.188,3.286-0.372,3.286-2.23V18.724h-4.401
		v-2.79l4.401-1.056v-0.496c0-9.855,7.005-14.071,15.375-14.071c7.129,0,10.292,2.418,10.292,6.388c0,1.798-0.992,3.348-2.418,4.027
		h-6.386c0.186-0.868,0.31-1.923,0.31-3.038c0-2.17-0.186-4.34-2.046-4.34c-1.735,0-2.354,1.362-2.354,3.721v8.121h7.066v3.534
		h-7.066V42.84L587.029,42.84z"/>
	<path d="M628.444,15.189h6.883v3.534h-6.883v20.521c0,2.666,1.056,3.844,3.161,3.844c1.487,0,2.914-0.558,4.341-1.55l0.991,1.55
		c-2.479,4.153-6.139,6.388-11.346,6.388c-5.952,0-10.104-2.978-10.104-10.416V18.724h-3.35V16.43
		c5.271-1.86,10.105-5.52,13.577-9.855h2.729L628.444,15.189L628.444,15.189z"/>
	<path d="M654.36,44.018c0,1.858,0.991,2.046,3.286,2.23v2.604h-19.345V46.25c2.294-0.188,3.286-0.372,3.286-2.23v-21.7
		l-3.286-2.106V18.29l13.825-3.722h2.229L654.36,44.018L654.36,44.018z M641.589,6.137c0-3.284,2.417-6.139,6.571-6.139
		c4.092,0,6.57,2.854,6.57,6.139c0,3.285-2.479,6.139-6.57,6.139C644.006,12.275,641.589,9.424,641.589,6.137z"/>
	<path d="M703.958,25.667c0-2.294-0.744-3.72-3.35-3.72c-1.611,0-2.854,0.434-4.219,0.93v21.143c0,1.858,0.562,2.046,2.854,2.23
		v2.604H680.77V46.25c2.295-0.188,2.854-0.372,2.854-2.23V25.667c0-2.294-0.744-3.72-3.35-3.72c-1.61,0-2.854,0.37-4.216,0.866
		v21.202c0,1.858,0.559,2.046,2.854,2.23v2.604h-18.909V46.25c2.294-0.188,3.286-0.372,3.286-2.23v-21.7l-3.286-2.106V18.29
		l13.825-3.722h2.479l-0.248,6.388c2.17-3.41,5.646-6.388,11.283-6.388c4.835,0,8,1.859,8.803,6.512
		c2.108-3.35,5.953-6.512,11.407-6.512c5.77,0,9.177,3.286,9.177,9.731v19.717c0,1.858,0.992,2.046,3.285,2.23v2.604h-18.905V46.25
		c2.293-0.188,2.854-0.372,2.854-2.23V25.667H703.958z"/>
	<path d="M752.939,28.457v1.55h-19.652c0,6.819,3.844,11.159,9.299,11.159c3.906,0,6.881-1.302,9.238-4.34l1.301,0.806
		c-1.736,7.192-6.633,11.844-14.754,11.844c-9.238,0-16.616-5.892-16.616-16.739c0-11.222,7.997-18.164,17.172-18.164
		C748.229,14.569,752.939,20.335,752.939,28.457z M733.347,26.969h8.742c0-6.138-0.992-9.672-3.967-9.672
		C735.021,17.297,733.595,21.141,733.347,26.969z"/>
	<path d="M767.076,32.61c0-10.354,7.377-18.041,17.979-18.041c10.604,0,17.98,6.512,17.98,16.863
		c0,10.354-7.379,18.041-17.98,18.041C774.455,49.473,767.076,42.964,767.076,32.61z M789.457,34.408
		c0-10.604-1.18-17.111-4.713-17.111c-3.285,0-4.092,4.588-4.092,12.338c0,10.604,1.178,17.111,4.713,17.111
		C788.65,46.746,789.457,42.158,789.457,34.408z"/>
	<path d="M821.757,42.84c0,2.729,1.363,2.914,4.836,3.41v2.604H805.7V46.25c2.293-0.188,3.285-0.372,3.285-2.23V18.724h-4.402v-2.79
		l4.402-1.056v-0.496c0-9.855,7.006-14.071,15.375-14.071c7.131,0,10.291,2.418,10.291,6.388c0,1.798-0.99,3.348-2.421,4.027h-6.385
		c0.188-0.868,0.312-1.923,0.312-3.038c0-2.17-0.188-4.34-2.047-4.34c-1.736,0-2.355,1.362-2.355,3.721v8.121h7.068v3.534h-7.068
		L821.757,42.84L821.757,42.84z"/>
	<path d="M865.591,5.208V3.101l13.888-2.79h2.17v41.165c0,2.106,0.188,3.161,1.983,3.161h1.427v2.729l-13.949,2.106h-2.418
		l0.188-5.892c-2.541,3.968-5.951,5.892-10.104,5.892c-7.191,0-12.523-5.52-12.523-15.936c0-12.273,7.502-18.66,16.738-18.66
		c2.418,0,4.527,0.56,5.891,1.675V6.882L865.591,5.208z M859.143,29.82c0,7.627,2.604,12.712,7.006,12.712
		c0.869,0,1.799-0.124,2.729-0.438V24.49c0-3.782-0.744-5.768-3.721-5.768C861.064,18.724,859.143,23.125,859.143,29.82z"/>
	<path d="M917.359,42.034c0,1.237,0.125,2.542,1.551,2.542c0.805,0,1.611-0.188,1.922-0.312l0.434,1.858
		c-2.17,1.981-4.895,3.35-8.614,3.35c-3.783,0-6.513-1.859-7.63-5.146c-1.729,2.665-4.588,4.896-9.174,4.896
		c-5.332,0-9.112-2.914-9.112-8.434c0-5.456,3.725-7.688,8.061-9.176l10.043-3.474v-6.817c0-2.479-0.619-4.154-2.666-4.154
		c-2.17,0-2.977,1.922-2.977,4.772c0,1.486,0.248,3.038,0.619,4.59l-7.688,0.989c-1.859-0.619-3.227-2.17-3.227-4.523
		c0-5.892,6.074-8.434,13.824-8.434c9.053,0,14.633,2.666,14.633,11.035v16.435h0.002V42.034L917.359,42.034z M904.835,42.468
		V30.999l-2.479,0.932c-1.979,0.742-3.349,1.733-3.349,5.396c0,3.1,1.056,5.456,4.031,5.456
		C903.72,42.778,904.216,42.655,904.835,42.468z"/>
	<path d="M948.173,21.823c0.31-0.868,0.496-1.304,0.496-1.86c0-1.302-0.744-1.733-4.031-2.17v-2.604h11.595v2.604
		c-2.104,0.685-2.604,1.116-3.162,2.479L938.688,54c-2.419,5.644-4.837,8.618-9.3,8.618c-2.543,0-4.401-0.992-5.332-2.479v-5.021
		c1.675,0.31,3.101,0.618,5.084,0.618c3.533,0,5.207-0.99,6.263-3.225l0.93-1.983l-14.508-30.254
		c-0.619-1.362-1.053-1.798-3.162-2.479V15.19h21.203v2.604c-3.285,0.437-4.029,0.868-4.029,2.17c0,0.561,0.186,0.992,0.434,1.736
		l6.076,14.631L948.173,21.823z"/>
	<path d="M968.013,32.61c0-10.354,7.377-18.041,17.979-18.041c10.602,0,17.979,6.512,17.979,16.863
		c0,10.354-7.379,18.041-17.979,18.041C975.391,49.473,968.013,42.964,968.013,32.61z M990.395,34.408
		c0-10.604-1.179-17.111-4.712-17.111c-3.286,0-4.092,4.588-4.092,12.338c0,10.604,1.179,17.111,4.711,17.111
		C989.587,46.746,990.395,42.158,990.395,34.408z"/>
	<path d="M1022.697,42.84c0,2.729,1.363,2.914,4.834,3.41v2.604h-20.894V46.25c2.295-0.188,3.287-0.372,3.287-2.23V18.724h-4.401
		v-2.79l4.401-1.056v-0.496c0-9.855,7.006-14.071,15.375-14.071c7.129,0,10.291,2.418,10.291,6.388c0,1.798-0.992,3.348-2.418,4.027
		h-6.385c0.186-0.868,0.309-1.923,0.309-3.038c0-2.17-0.186-4.34-2.045-4.34c-1.735,0-2.354,1.362-2.354,3.721v8.121h7.065v3.534
		h-7.065V42.84z"/>
	<path d="M1063.367,42.84c0,2.729,1.365,2.914,4.836,3.41v2.604h-20.893V46.25c2.295-0.188,3.284-0.372,3.284-2.23v-21.7
		l-3.284-2.106V18.29l13.825-3.722h2.479l-0.248,9.674c2.356-7.439,4.65-9.674,8.617-9.674c1.551,0,2.604,0.437,3.287,1.056v9.483
		h-1.611c-3.969,0-7.627,0.124-10.293,1.734V42.84L1063.367,42.84z"/>
	<path d="M1108.005,28.457v1.55h-19.651c0,6.819,3.844,11.159,9.299,11.159c3.905,0,6.887-1.302,9.237-4.34l1.304,0.806
		c-1.732,7.192-6.636,11.844-14.756,11.844c-9.234,0-16.615-5.892-16.615-16.739c0-11.222,7.998-18.164,17.178-18.164
		C1103.294,14.569,1108.005,20.335,1108.005,28.457z M1088.416,26.969h8.742c0-6.138-0.992-9.672-3.969-9.672
		C1090.089,17.297,1088.664,21.141,1088.416,26.969z"/>
	<path d="M1131.628,40.979c3.533,0,6.137-1.113,8.06-3.846l1.487,0.933c-2.045,7.997-7.315,11.407-14.508,11.407
		c-8.803,0-15.684-6.14-15.684-16.432c0-10.603,6.94-18.477,17.479-18.477c6.324,0,11.779,2.354,11.779,8.122
		c0,2.541-1.488,4.094-2.914,4.711h-6.389c0.188-1.485,0.248-2.665,0.248-3.721c0-3.721-0.988-6.139-3.722-6.139
		c-3.473,0-5.454,4.648-5.454,10.852C1122.02,36.206,1125.49,40.979,1131.628,40.979z"/>
	<path d="M1146.199,6.882l-3.285-1.674V3.101l13.887-2.79h2.17v43.707c0,1.858,0.992,2.046,3.285,2.23v2.604h-19.342V46.25
		c2.293-0.188,3.285-0.372,3.285-2.23V6.882z M1168.765,22.815c1.736-1.551,2.107-2.354,2.107-3.162c0-1.114-0.809-1.55-3.656-1.858
		V15.19h14.443v2.604c-2.049,0.248-3.533,0.561-5.207,2.23l-6.572,6.323l12.959,20.706v1.799h-13.146l-10.354-17.545
		L1168.765,22.815z"/>
	<path d="M1183.15,32.61c0-10.354,7.377-18.041,17.979-18.041c10.604,0,17.98,6.512,17.98,16.863
		c0,10.354-7.377,18.041-17.98,18.041C1190.527,49.473,1183.15,42.964,1183.15,32.61z M1205.531,34.408
		c0-10.604-1.181-17.111-4.713-17.111c-3.285,0-4.093,4.588-4.093,12.338c0,10.604,1.179,17.111,4.714,17.111
		C1204.724,46.746,1205.531,42.158,1205.531,34.408z"/>
	<path d="M1246.201,25.853c0-2.294-0.744-3.846-3.844-3.846c-1.736,0-3.162,0.312-4.588,0.809v21.202c0,1.858,0.807,2.046,3.1,2.23
		v2.604h-19.156V46.25c2.295-0.188,3.285-0.372,3.285-2.23v-21.7l-3.285-2.106V18.29l13.826-3.722h2.479l-0.248,6.264
		c2.232-2.914,5.769-6.264,11.597-6.264c6.018,0,9.606,3.35,9.606,10.169v19.279c0,1.858,0.992,2.046,3.285,2.23v2.604h-19.156
		V46.25c2.298-0.188,3.103-0.372,3.103-2.23V25.853H1246.201z"/>
	<path d="M1280.177,44.018c0,1.858,0.992,2.046,3.285,2.23v2.604h-19.342V46.25c2.293-0.188,3.285-0.372,3.285-2.23v-21.7
		l-3.285-2.106V18.29l13.824-3.722h2.229v29.449L1280.177,44.018L1280.177,44.018z M1267.406,6.137c0-3.284,2.418-6.139,6.572-6.139
		c4.092,0,6.569,2.854,6.569,6.139c0,3.285-2.479,6.139-6.569,6.139C1269.824,12.275,1267.406,9.424,1267.406,6.137z"/>
	<path d="M1310.308,25.853c0-2.294-0.743-3.846-3.844-3.846c-1.735,0-3.162,0.312-4.588,0.809v21.202c0,1.858,0.805,2.046,3.1,2.23
		v2.604h-19.155V46.25c2.293-0.188,3.285-0.372,3.285-2.23v-21.7l-3.285-2.106V18.29l13.823-3.722h2.48l-0.248,6.264
		c2.229-2.914,5.766-6.264,11.594-6.264c6.015,0,9.605,3.35,9.605,10.169v19.279c0,1.858,0.989,2.046,3.282,2.23v2.604h-19.149
		V46.25c2.293-0.188,3.1-0.372,3.1-2.23V25.853L1310.308,25.853z"/>
	<path d="M1336.099,36.206c-0.805,0.744-1.549,1.55-1.549,2.729c0,0.932,0.619,1.674,1.674,1.674h13.824
		c8.928,0,12.396,3.846,12.396,9.549c0,8.12-7.627,12.521-19.277,12.521c-10.168,0-16.49-2.604-16.49-7.503
		c0-3.035,3.101-4.34,5.703-4.587c-2.666-1.055-4.219-3.78-4.219-6.446c0-4.218,2.854-6.884,6.199-8.617
		c-3.476-1.61-6.017-4.4-6.017-8.987c0-7.562,6.508-11.968,15.498-11.968c2.543,0,4.402,0.372,6.017,0.808l11.35-0.247v4.463h-2.914
		l-3.533-0.124c2.293,1.553,3.781,3.906,3.781,7.008c0,6.941-6.635,10.786-15.252,10.786
		C1340.936,37.26,1338.395,36.95,1336.099,36.206z M1333.806,52.201c-0.248,0.312-0.312,0.99-0.312,1.674
		c0,3.598,4.029,5.644,9.857,5.644c5.396,0,10.416-1.18,10.416-4.959c0-1.61-0.992-2.354-2.978-2.354L1333.806,52.201
		L1333.806,52.201z M1346.886,26.163c0-4.588-1.053-8.806-3.596-8.806c-2.479,0-3.16,2.914-3.16,8.186
		c0,4.896,1.115,9.052,3.596,9.052C1346.267,34.594,1346.886,31.742,1346.886,26.163z"/>
</g>
</svg>
