<?xml version="1.0" encoding="utf-8"?>
<!-- Generator: Adobe Illustrator 16.0.0, SVG Export Plug-In . SVG Version: 6.00 Build 0)  -->
<!DOCTYPE svg PUBLIC "-//W3C//DTD SVG 1.1//EN" "http://www.w3.org/Graphics/SVG/1.1/DTD/svg11.dtd">
<svg version="1.1" id="_x34_1" xmlns="http://www.w3.org/2000/svg" xmlns:xlink="http://www.w3.org/1999/xlink" x="0px" y="0px"
	 width="1440px" height="62.679px" viewBox="0 0 1440 62.679" enable-background="new 0 0 1440 62.679" xml:space="preserve">
<g>
	<path d="M109.057,44.018c0,1.858,0.992,2.045,3.286,2.231v2.604H93V46.25c2.294-0.188,3.286-0.373,3.286-2.23V6.88L93,5.207V3.099
		l13.887-2.789h2.17V44.018z"/>
	<path d="M130.757,44.018c0,1.858,0.992,2.045,3.286,2.231v2.604H114.7V46.25c2.294-0.188,3.286-0.373,3.286-2.23v-21.7L114.7,20.21
		v-1.922l13.825-3.721h2.232V44.018L130.757,44.018z M117.986,6.136c0-3.285,2.417-6.136,6.571-6.136
		c4.092,0,6.572,2.852,6.572,6.137c0,3.287-2.48,6.139-6.572,6.139C120.403,12.275,117.986,9.423,117.986,6.136z"/>
	<path d="M156.92,40.979c3.534,0,6.138-1.114,8.06-3.845l1.488,0.933c-2.046,7.996-7.315,11.406-14.507,11.406
		c-8.803,0-15.685-6.138-15.685-16.431c0-10.601,6.944-18.476,17.483-18.476c6.323,0,11.779,2.357,11.779,8.123
		c0,2.541-1.488,4.092-2.914,4.711h-6.386c0.186-1.488,0.248-2.666,0.248-3.721c0-3.719-0.992-6.137-3.72-6.137
		c-3.472,0-5.456,4.65-5.456,10.85C147.311,36.205,150.782,40.979,156.92,40.979z"/>
	<path d="M171.491,6.88l-3.286-1.674V3.099l13.887-2.789h2.17v43.708c0,1.858,0.992,2.045,3.286,2.231v2.604h-19.343V46.25
		c2.294-0.188,3.286-0.373,3.286-2.23V6.88z M194.058,22.814c1.736-1.551,2.108-2.355,2.108-3.162c0-1.115-0.806-1.549-3.658-1.859
		v-2.604h14.445v2.604c-2.046,0.248-3.534,0.559-5.208,2.232l-6.572,6.322l12.957,20.708v1.799h-13.143l-10.354-17.545
		L194.058,22.814z"/>
	<path d="M222.702,32.609c0-10.354,7.378-18.041,17.979-18.041c10.602,0,17.979,6.51,17.979,16.863
		c0,10.354-7.377,18.042-17.979,18.042C230.08,49.473,222.702,42.962,222.702,32.609z M245.083,34.408
		c0-10.602-1.178-17.112-4.712-17.112c-3.286,0-4.091,4.588-4.091,12.338c0,10.602,1.178,17.112,4.711,17.112
		C244.277,46.746,245.083,42.158,245.083,34.408z"/>
	<path d="M277.385,42.839c0,2.728,1.364,2.914,4.836,3.41v2.604h-20.893V46.25c2.294-0.188,3.286-0.373,3.286-2.23V18.722h-4.402
		v-2.789l4.402-1.055v-0.496c0-9.857,7.005-14.072,15.375-14.072c7.129,0,10.292,2.418,10.292,6.385
		c0,1.799-0.992,3.348-2.418,4.029h-6.386c0.186-0.867,0.31-1.922,0.31-3.037c0-2.17-0.186-4.34-2.046-4.34
		c-1.736,0-2.356,1.363-2.356,3.721v8.121h7.068v3.533h-7.068V42.839L277.385,42.839z"/>
	<path d="M304.355,46.311l-0.372-8.369h3.162c1.116,4.959,4.464,8.742,9.237,8.742c2.79,0,5.021-1.304,5.021-3.906
		c0-3.036-2.417-3.967-6.386-5.146c-7.191-2.107-11.098-5.209-11.098-11.717c0-7.377,5.58-11.346,13.329-11.346
		c4.278,0,8.246,1.117,10.912,2.852v7.441h-2.914c-0.62-3.906-3.41-7.502-7.688-7.502c-2.479,0-4.216,1.301-4.216,3.533
		c0,2.48,1.798,3.41,5.58,4.65c7.75,2.541,11.903,5.084,11.903,12.212c0,7.502-5.643,11.718-14.321,11.718
		C311.113,49.473,307.145,48.232,304.355,46.311z"/>
	<path d="M365.113,28.457v1.549H345.46c0,6.822,3.844,11.162,9.299,11.162c3.906,0,6.881-1.303,9.237-4.34l1.302,0.805
		c-1.735,7.193-6.634,11.843-14.755,11.843c-9.237,0-16.615-5.89-16.615-16.739c0-11.223,7.998-18.166,17.173-18.166
		C360.401,14.568,365.113,20.333,365.113,28.457z M345.521,26.968h8.741c0-6.139-0.991-9.672-3.968-9.672
		C347.196,17.296,345.77,21.14,345.521,26.968z"/>
	<path d="M392.082,25.851c0-2.293-0.744-3.844-3.844-3.844c-1.736,0-3.162,0.311-4.588,0.807v21.204c0,1.858,0.806,2.045,3.1,2.231
		v2.604h-19.157V46.25c2.294-0.188,3.286-0.373,3.286-2.23v-21.7l-3.286-2.107V18.29l13.825-3.721h2.48l-0.248,6.262
		c2.23-2.914,5.766-6.262,11.593-6.262c6.014,0,9.61,3.348,9.61,10.168v19.282c0,1.857,0.99,2.045,3.284,2.23v2.604h-19.155V46.25
		c2.293-0.188,3.1-0.373,3.1-2.23V25.851z"/>
	<path d="M410.807,46.311l-0.372-8.369h3.162c1.116,4.959,4.463,8.742,9.237,8.742c2.79,0,5.021-1.304,5.021-3.906
		c0-3.036-2.418-3.967-6.387-5.146c-7.19-2.107-11.098-5.209-11.098-11.717c0-7.377,5.58-11.346,13.329-11.346
		c4.276,0,8.246,1.117,10.912,2.852v7.441H431.7c-0.62-3.906-3.41-7.502-7.688-7.502c-2.479,0-4.216,1.301-4.216,3.533
		c0,2.48,1.798,3.41,5.58,4.65c7.75,2.541,11.903,5.084,11.903,12.212c0,7.502-5.644,11.718-14.321,11.718
		C417.565,49.473,413.597,48.232,410.807,46.311z"/>
	<path d="M471.564,28.457v1.549h-19.653c0,6.822,3.844,11.162,9.299,11.162c3.906,0,6.881-1.303,9.237-4.34l1.302,0.805
		c-1.736,7.193-6.634,11.843-14.755,11.843c-9.237,0-16.615-5.89-16.615-16.739c0-11.223,7.998-18.166,17.173-18.166
		C466.854,14.568,471.564,20.333,471.564,28.457z M451.974,26.968h8.741c0-6.139-0.992-9.672-3.968-9.672
		C453.646,17.296,452.221,21.14,451.974,26.968z"/>
	<path d="M487.25,32.609c0-10.354,7.378-18.041,17.979-18.041c10.604,0,17.979,6.51,17.979,16.863
		c0,10.354-7.377,18.042-17.979,18.042C494.628,49.473,487.25,42.962,487.25,32.609z M509.631,34.408
		c0-10.602-1.178-17.112-4.712-17.112c-3.286,0-4.091,4.588-4.091,12.338c0,10.602,1.178,17.112,4.711,17.112
		C508.826,46.746,509.631,42.158,509.631,34.408z"/>
	<path d="M541.934,42.839c0,2.728,1.364,2.914,4.836,3.41v2.604h-20.893V46.25c2.294-0.188,3.286-0.373,3.286-2.23V18.722h-4.402
		v-2.789l4.402-1.055v-0.496c0-9.857,7.005-14.072,15.375-14.072c7.129,0,10.292,2.418,10.292,6.385
		c0,1.799-0.992,3.348-2.418,4.029h-6.386c0.186-0.867,0.31-1.922,0.31-3.037c0-2.17-0.186-4.34-2.046-4.34
		c-1.736,0-2.356,1.363-2.356,3.721v8.121h7.068v3.533h-7.068V42.839L541.934,42.839z"/>
	<path d="M572.5,22.318l-3.286-2.107v-1.922l13.825-3.721h2.479l-0.248,6.139c1.612-2.729,5.022-6.139,10.416-6.139
		c7.192,0,12.586,4.898,12.586,15.314c0,13.018-7.875,19.59-17.979,19.59c-2.23,0-4.092-0.371-5.021-1.053v8.43
		c0,2.17,1.115,2.232,4.589,2.543v2.604h-20.646v-2.604c2.293-0.186,3.286-0.373,3.286-2.232V22.318L572.5,22.318z M595.252,33.539
		c0-8.432-2.976-11.532-7.129-11.532c-0.992,0-1.86,0.125-2.852,0.559v17.545c0,3.658,0.742,6.199,3.78,6.199
		C593.207,46.311,595.252,40.732,595.252,33.539z"/>
	<path d="M626.936,42.839c0,2.728,1.362,2.914,4.836,3.41v2.604h-20.895V46.25c2.294-0.188,3.286-0.373,3.286-2.23v-21.7
		l-3.286-2.107V18.29l13.825-3.721h2.479l-0.248,9.672c2.355-7.439,4.65-9.672,8.617-9.672c1.552,0,2.604,0.436,3.285,1.055v9.484
		h-1.611c-3.967,0-7.625,0.125-10.291,1.736v15.998h0.003V42.839z"/>
	<path d="M656.57,44.018c0,1.858,0.992,2.045,3.287,2.231v2.604h-19.346V46.25c2.295-0.188,3.287-0.373,3.287-2.23v-21.7
		l-3.287-2.107V18.29l13.826-3.721h2.23L656.57,44.018L656.57,44.018z M643.8,6.136c0-3.285,2.416-6.137,6.57-6.137
		c4.092,0,6.572,2.852,6.572,6.137c0,3.287-2.48,6.139-6.572,6.139C646.216,12.275,643.8,9.423,643.8,6.136z"/>
	<path d="M681.433,5.207V3.099L695.32,0.31h2.17v41.165c0,2.108,0.186,3.161,1.983,3.161h1.427v2.73l-13.949,2.105h-2.418
		l0.186-5.891c-2.543,3.967-5.951,5.891-10.104,5.891c-7.192,0-12.524-5.52-12.524-15.936c0-12.276,7.502-18.661,16.739-18.661
		c2.418,0,4.525,0.559,5.891,1.674V6.88L681.433,5.207z M674.984,29.82c0,7.625,2.604,12.709,7.006,12.709
		c0.869,0,1.799-0.123,2.729-0.434V24.488c0-3.781-0.744-5.766-3.721-5.766C676.906,18.722,674.984,23.125,674.984,29.82z"/>
	<path d="M734.193,28.457v1.549h-19.652c0,6.822,3.844,11.162,9.299,11.162c3.906,0,6.881-1.303,9.238-4.34l1.301,0.805
		c-1.736,7.193-6.633,11.843-14.754,11.843c-9.238,0-16.615-5.89-16.615-16.739c0-11.223,7.996-18.166,17.172-18.166
		C729.482,14.568,734.193,20.333,734.193,28.457z M714.602,26.968h8.741c0-6.139-0.991-9.672-3.967-9.672
		C716.275,17.296,714.849,21.14,714.602,26.968z"/>
	<path d="M749.88,32.609c0-10.354,7.377-18.041,17.979-18.041c10.602,0,17.979,6.51,17.979,16.863
		c0,10.354-7.377,18.042-17.979,18.042C757.257,49.473,749.88,42.962,749.88,32.609z M772.261,34.408
		c0-10.602-1.18-17.112-4.713-17.112c-3.285,0-4.092,4.588-4.092,12.338c0,10.602,1.178,17.112,4.713,17.112
		C771.455,46.746,772.261,42.158,772.261,34.408z"/>
	<path d="M804.562,42.839c0,2.728,1.362,2.914,4.836,3.41v2.604h-20.894V46.25c2.293-0.188,3.285-0.373,3.285-2.23V18.722h-4.402
		v-2.789l4.402-1.055v-0.496c0-9.857,7.006-14.072,15.375-14.072c7.131,0,10.291,2.418,10.291,6.385c0,1.799-0.99,3.348-2.418,4.029
		h-6.385c0.186-0.867,0.311-1.922,0.311-3.037c0-2.17-0.186-4.34-2.047-4.34c-1.736,0-2.354,1.363-2.354,3.721v8.121h7.067v3.533
		h-7.067V42.839z"/>
	<path d="M835.128,22.318l-3.287-2.107v-1.922l13.826-3.721h2.479l-0.248,6.139c1.61-2.729,5.021-6.139,10.414-6.139
		c7.19,0,12.586,4.898,12.586,15.314c0,13.018-7.871,19.59-17.979,19.59c-2.231,0-4.092-0.371-5.021-1.053v8.43
		c0,2.17,1.114,2.232,4.59,2.543v2.604h-20.646v-2.604c2.295-0.186,3.287-0.373,3.287-2.232L835.128,22.318L835.128,22.318z
		 M857.88,33.539c0-8.432-2.977-11.532-7.129-11.532c-0.992,0-1.861,0.125-2.854,0.559v17.545c0,3.658,0.744,6.199,3.781,6.199
		C855.835,46.311,857.88,40.732,857.88,33.539z"/>
	<path d="M889.316,44.018c0,1.858,0.991,2.045,3.284,2.231v2.604h-19.342V46.25c2.293-0.188,3.285-0.373,3.285-2.23V6.88
		l-3.285-1.674V3.099l13.888-2.789h2.17V44.018z"/>
	<path d="M925.027,42.033c0,1.24,0.123,2.543,1.549,2.543c0.807,0,1.611-0.188,1.922-0.311l0.434,1.859
		c-2.17,1.982-4.895,3.348-8.617,3.348c-3.778,0-6.51-1.859-7.625-5.145c-1.733,2.664-4.588,4.896-9.176,4.896
		c-5.332,0-9.11-2.914-9.11-8.433c0-5.455,3.719-7.688,8.059-9.175l10.045-3.471v-6.82c0-2.479-0.621-4.154-2.666-4.154
		c-2.17,0-2.977,1.922-2.977,4.775c0,1.486,0.248,3.037,0.618,4.588l-7.688,0.99c-1.859-0.619-3.223-2.17-3.223-4.525
		c0-5.889,6.074-8.432,13.822-8.432c9.055,0,14.633,2.666,14.633,11.035V42.033L925.027,42.033z M912.503,42.466V30.998
		l-2.479,0.929c-1.984,0.744-3.349,1.738-3.349,5.396c0,3.1,1.054,5.453,4.029,5.453C911.386,42.777,911.882,42.654,912.503,42.466z
		"/>
	<path d="M950.695,40.979c3.533,0,6.137-1.114,8.059-3.845l1.488,0.933c-2.045,7.996-7.316,11.406-14.508,11.406
		c-8.804,0-15.685-6.138-15.685-16.431c0-10.601,6.943-18.476,17.482-18.476c6.321,0,11.776,2.357,11.776,8.123
		c0,2.541-1.485,4.092-2.914,4.711h-6.385c0.188-1.488,0.248-2.666,0.248-3.721c0-3.719-0.992-6.137-3.721-6.137
		c-3.473,0-5.455,4.65-5.455,10.85C941.085,36.205,944.556,40.979,950.695,40.979z"/>
	<path d="M993.287,28.457v1.549h-19.652c0,6.822,3.844,11.162,9.299,11.162c3.906,0,6.886-1.303,9.238-4.34l1.303,0.805
		c-1.733,7.193-6.635,11.843-14.756,11.843c-9.238,0-16.615-5.89-16.615-16.739c0-11.223,7.998-18.166,17.177-18.166
		C988.576,14.568,993.287,20.333,993.287,28.457z M973.697,26.968h8.742c0-6.139-0.992-9.672-3.97-9.672
		C975.371,17.296,973.945,21.14,973.697,26.968z"/>
	<path d="M1008.974,32.609c0-10.354,7.378-18.041,17.979-18.041s17.979,6.51,17.979,16.863c0,10.354-7.377,18.042-17.979,18.042
		C1016.351,49.473,1008.974,42.962,1008.974,32.609z M1031.355,34.408c0-10.602-1.181-17.112-4.714-17.112
		c-3.284,0-4.092,4.588-4.092,12.338c0,10.602,1.179,17.112,4.713,17.112C1030.548,46.746,1031.355,42.158,1031.355,34.408z"/>
	<path d="M1063.658,42.839c0,2.728,1.363,2.914,4.834,3.41v2.604h-20.894V46.25c2.296-0.188,3.287-0.373,3.287-2.23V18.722h-4.401
		v-2.789l4.401-1.055v-0.496c0-9.857,7.006-14.072,15.375-14.072c7.129,0,10.291,2.418,10.291,6.385
		c0,1.799-0.991,3.348-2.418,4.029h-6.385c0.187-0.867,0.309-1.922,0.309-3.037c0-2.17-0.186-4.34-2.045-4.34
		c-1.735,0-2.354,1.363-2.354,3.721v8.121h7.065v3.533h-7.065V42.839L1063.658,42.839z"/>
	<path d="M1138.984,21.699c0.311-0.807,0.496-1.488,0.496-1.984c0-1.24-1.056-1.674-3.41-1.922v-2.604h10.85v2.604
		c-2.107,0.682-2.604,1.115-3.162,2.48l-12.396,28.766h-4.22l-7.312-18.723l-8.808,18.723h-4.215l-13.33-28.766
		c-0.616-1.365-1.053-1.799-3.159-2.48v-2.604h19.715v2.604c-1.859,0.248-2.605,0.807-2.605,1.797c0,0.559,0.189,1.24,0.562,2.109
		l5.578,13.265l4.342-8.988l-2.232-5.703c-0.496-1.365-1.24-1.984-2.789-2.48v-2.604h19.59v2.604
		c-2.541,0.311-3.719,0.559-3.719,2.045c0,0.496,0.123,1.117,0.371,1.861l4.771,12.524L1138.984,21.699z"/>
	<path d="M1145.683,32.609c0-10.354,7.377-18.041,17.979-18.041c10.602,0,17.979,6.51,17.979,16.863
		c0,10.354-7.377,18.042-17.979,18.042C1153.06,49.473,1145.683,42.962,1145.683,32.609z M1168.064,34.408
		c0-10.602-1.181-17.112-4.714-17.112c-3.284,0-4.092,4.588-4.092,12.338c0,10.602,1.178,17.112,4.713,17.112
		C1167.257,46.746,1168.064,42.158,1168.064,34.408z"/>
	<path d="M1200.302,42.839c0,2.728,1.365,2.914,4.836,3.41v2.604h-20.893V46.25c2.295-0.188,3.285-0.373,3.285-2.23v-21.7
		l-3.285-2.107V18.29l13.826-3.721h2.479l-0.248,9.672c2.357-7.439,4.65-9.672,8.617-9.672c1.551,0,2.605,0.436,3.287,1.055v9.484
		h-1.611c-3.969,0-7.627,0.125-10.293,1.736V42.839L1200.302,42.839z"/>
	<path d="M1214.688,46.311l-0.371-8.369h3.162c1.114,4.959,4.463,8.742,9.235,8.742c2.791,0,5.021-1.304,5.021-3.906
		c0-3.036-2.418-3.967-6.388-5.146c-7.188-2.107-11.098-5.209-11.098-11.717c0-7.377,5.58-11.346,13.33-11.346
		c4.277,0,8.244,1.117,10.91,2.852v7.441h-2.914c-0.619-3.906-3.408-7.502-7.688-7.502c-2.479,0-4.215,1.301-4.215,3.533
		c0,2.48,1.797,3.41,5.58,4.65c7.748,2.541,11.902,5.084,11.902,12.212c0,7.502-5.644,11.718-14.32,11.718
		C1221.445,49.473,1217.479,48.232,1214.688,46.311z"/>
	<path d="M1247.113,6.88l-3.285-1.674V3.099l13.887-2.789h2.17v20.52c2.232-2.914,5.769-6.262,11.594-6.262
		c6.017,0,9.609,3.348,9.609,10.168v19.282c0,1.858,0.992,2.045,3.287,2.231v2.604h-19.158V46.25
		c2.295-0.188,3.103-0.373,3.103-2.23V25.851c0-2.293-0.744-3.844-3.847-3.844c-1.733,0-3.161,0.311-4.588,0.807v21.204
		c0,1.858,0.81,2.045,3.103,2.231v2.604h-19.156V46.25c2.295-0.188,3.285-0.373,3.285-2.23V6.88H1247.113z"/>
	<path d="M1302.292,44.018c0,1.858,0.992,2.045,3.285,2.231v2.604h-19.342V46.25c2.293-0.188,3.282-0.373,3.282-2.23v-21.7
		l-3.282-2.107V18.29l13.821-3.721h2.232v29.45L1302.292,44.018L1302.292,44.018z M1289.521,6.136c0-3.285,2.418-6.137,6.571-6.137
		c4.093,0,6.57,2.852,6.57,6.137c0,3.287-2.48,6.139-6.57,6.139C1291.939,12.275,1289.521,9.423,1289.521,6.136z"/>
	<path d="M1310.787,22.318l-3.285-2.107v-1.922l13.824-3.721h2.479l-0.248,6.139c1.611-2.729,5.021-6.139,10.416-6.139
		c7.191,0,12.584,4.898,12.584,15.314c0,13.018-7.873,19.59-17.979,19.59c-2.23,0-4.095-0.371-5.021-1.053v8.43
		c0,2.17,1.115,2.232,4.588,2.543v2.604h-20.645v-2.604c2.293-0.186,3.285-0.373,3.285-2.232L1310.787,22.318L1310.787,22.318z
		 M1333.541,33.539c0-8.432-2.977-11.532-7.131-11.532c-0.992,0-1.859,0.125-2.853,0.559v17.545c0,3.658,0.744,6.199,3.781,6.199
		C1331.494,46.311,1333.541,40.732,1333.541,33.539z"/>
</g>
</svg>
