<?xml version="1.0" encoding="utf-8"?>
<!-- Generator: Adobe Illustrator 16.0.0, SVG Export Plug-In . SVG Version: 6.00 Build 0)  -->
<!DOCTYPE svg PUBLIC "-//W3C//DTD SVG 1.1//EN" "http://www.w3.org/Graphics/SVG/1.1/DTD/svg11.dtd">
<svg version="1.1" id="_x33_9" xmlns="http://www.w3.org/2000/svg" xmlns:xlink="http://www.w3.org/1999/xlink" x="0px" y="0px"
	 width="1440px" height="62.68px" viewBox="0 0 1440 62.68" enable-background="new 0 0 1440 62.68" xml:space="preserve">
<g>
	<path d="M231.417,44.018c0,1.858,0.992,2.045,3.286,2.231v2.604h-19.344V46.25c2.294-0.188,3.286-0.373,3.286-2.231v-21.7
		l-3.286-2.107v-1.922l13.825-3.722h2.232L231.417,44.018L231.417,44.018z M218.646,6.137c0-3.285,2.417-6.138,6.571-6.138
		c4.092,0,6.572,2.854,6.572,6.139s-2.48,6.138-6.572,6.138C221.063,12.275,218.646,9.423,218.646,6.137z"/>
	<path d="M252.31,15.189h6.881v3.534h-6.881v20.521c0,2.666,1.054,3.844,3.162,3.844c1.488,0,2.914-0.559,4.34-1.551l0.992,1.551
		c-2.479,4.152-6.138,6.386-11.345,6.386c-5.952,0-10.105-2.976-10.105-10.416V18.723h-3.348v-2.294
		c5.27-1.86,10.105-5.519,13.577-9.855h2.728L252.31,15.189L252.31,15.189z"/>
	<path d="M292.92,28.457v1.55h-19.653c0,6.82,3.844,11.16,9.299,11.16c3.906,0,6.881-1.303,9.237-4.34l1.302,0.805
		c-1.736,7.193-6.634,11.843-14.755,11.843c-9.237,0-16.615-5.89-16.615-16.739c0-11.222,7.998-18.163,17.173-18.163
		C288.208,14.569,292.92,20.334,292.92,28.457z M273.329,26.968h8.741c0-6.138-0.992-9.672-3.968-9.672
		C275.003,17.296,273.577,21.14,273.329,26.968z"/>
	<path d="M339.356,25.667c0-2.294-0.744-3.72-3.348-3.72c-1.612,0-2.852,0.434-4.216,0.93v21.142c0,1.858,0.558,2.045,2.852,2.231
		v2.604h-18.475V46.25c2.294-0.188,2.852-0.373,2.852-2.231V25.667c0-2.294-0.744-3.72-3.348-3.72c-1.612,0-2.852,0.37-4.216,0.866
		v21.203c0,1.858,0.558,2.045,2.852,2.231v2.604H295.4V46.25c2.294-0.188,3.286-0.373,3.286-2.231v-21.7L295.4,20.21v-1.922
		l13.825-3.722h2.48l-0.248,6.388c2.17-3.41,5.642-6.388,11.284-6.388c4.835,0,7.998,1.859,8.803,6.512
		c2.108-3.35,5.952-6.512,11.407-6.512c5.766,0,9.176,3.286,9.176,9.732v19.716c0,1.858,0.992,2.045,3.286,2.231v2.604h-18.909v-2.6
		c2.293-0.188,2.852-0.373,2.852-2.231V25.667L339.356,25.667z"/>
	<path d="M370.48,32.61c0-10.354,7.379-18.041,17.979-18.041c10.604,0,17.979,6.512,17.979,16.863
		c0,10.354-7.377,18.041-17.979,18.041C377.859,49.473,370.48,42.963,370.48,32.61z M392.862,34.408
		c0-10.604-1.18-17.112-4.712-17.112c-3.286,0-4.093,4.588-4.093,12.338c0,10.604,1.18,17.112,4.711,17.112
		C392.056,46.746,392.862,42.158,392.862,34.408z"/>
	<path d="M425.164,42.84c0,2.728,1.364,2.914,4.836,3.41v2.604h-20.893V46.25c2.294-0.188,3.284-0.373,3.284-2.231V18.723h-4.4
		v-2.79l4.4-1.055v-0.496c0-9.856,7.007-14.072,15.375-14.072c7.13,0,10.292,2.418,10.292,6.388c0,1.798-0.99,3.348-2.418,4.027
		h-6.386c0.188-0.868,0.312-1.923,0.312-3.038c0-2.17-0.188-4.34-2.047-4.34c-1.735,0-2.355,1.363-2.355,3.721v8.121h7.068v3.534
		h-7.068V42.84L425.164,42.84z"/>
	<path d="M477.367,25.852c0-2.294-0.744-3.845-3.844-3.845c-1.736,0-3.162,0.312-4.59,0.808v21.203c0,1.858,0.808,2.045,3.102,2.231
		v2.604h-19.157V46.25c2.294-0.188,3.286-0.373,3.286-2.231v-21.7l-3.286-2.106V18.29l13.825-3.722h2.479l-0.246,6.264
		c2.23-2.914,5.766-6.264,11.593-6.264c6.014,0,9.608,3.35,9.608,10.17v19.279c0,1.858,0.992,2.045,3.286,2.231v2.604h-19.157V46.25
		c2.293-0.188,3.102-0.373,3.102-2.231V25.852L477.367,25.852z"/>
	<path d="M495.162,32.61c0-10.354,7.378-18.041,17.979-18.041c10.604,0,17.979,6.512,17.979,16.863
		c0,10.354-7.377,18.041-17.979,18.041C502.54,49.473,495.162,42.963,495.162,32.61z M517.542,34.408
		c0-10.604-1.178-17.112-4.712-17.112c-3.286,0-4.091,4.588-4.091,12.338c0,10.604,1.178,17.112,4.711,17.112
		C516.737,46.746,517.542,42.158,517.542,34.408z"/>
	<path d="M549.286,15.189h6.881v3.534h-6.881v20.521c0,2.666,1.054,3.844,3.162,3.844c1.487,0,2.914-0.559,4.34-1.551l0.992,1.551
		c-2.479,4.152-6.141,6.386-11.348,6.386c-5.95,0-10.104-2.976-10.104-10.416V18.723h-3.349v-2.294
		c5.271-1.86,10.104-5.519,13.575-9.855h2.729L549.286,15.189L549.286,15.189z"/>
	<path d="M589.896,28.457v1.55h-19.653c0,6.82,3.844,11.16,9.299,11.16c3.906,0,6.881-1.303,9.237-4.34l1.302,0.805
		c-1.736,7.193-6.634,11.843-14.755,11.843c-9.237,0-16.615-5.89-16.615-16.739c0-11.222,7.998-18.163,17.173-18.163
		C585.184,14.569,589.896,20.334,589.896,28.457z M570.305,26.968h8.741c0-6.138-0.992-9.672-3.968-9.672
		C571.979,17.296,570.553,21.14,570.305,26.968z"/>
	<path d="M605.582,32.61c0-10.354,7.378-18.041,17.979-18.041c10.604,0,17.979,6.512,17.979,16.863
		c0,10.354-7.377,18.041-17.979,18.041C612.959,49.473,605.582,42.963,605.582,32.61z M627.963,34.408
		c0-10.604-1.178-17.112-4.712-17.112c-3.285,0-4.092,4.588-4.092,12.338c0,10.604,1.178,17.112,4.712,17.112
		C627.157,46.746,627.963,42.158,627.963,34.408z"/>
	<path d="M660.265,42.84c0,2.728,1.363,2.914,4.837,3.41v2.604h-20.894V46.25c2.293-0.188,3.285-0.373,3.285-2.231V18.723h-4.401
		v-2.79l4.401-1.055v-0.496c0-9.856,7.006-14.072,15.375-14.072c7.13,0,10.292,2.418,10.292,6.388c0,1.798-0.992,3.348-2.418,4.027
		h-6.387c0.187-0.868,0.312-1.923,0.312-3.038c0-2.17-0.187-4.34-2.047-4.34c-1.735,0-2.355,1.363-2.355,3.721v8.121h7.068v3.534
		h-7.068V42.84L660.265,42.84z"/>
	<path d="M718.048,42.033c0,1.238,0.123,2.543,1.549,2.543c0.808,0,1.613-0.188,1.923-0.312l0.436,1.858
		c-2.17,1.982-4.898,3.349-8.618,3.349c-3.782,0-6.51-1.857-7.626-5.146c-1.736,2.664-4.588,4.896-9.176,4.896
		c-5.331,0-9.113-2.914-9.113-8.433c0-5.455,3.721-7.688,8.062-9.175l10.043-3.474v-6.817c0-2.479-0.62-4.154-2.666-4.154
		c-2.17,0-2.979,1.922-2.979,4.772c0,1.487,0.248,3.038,0.621,4.59l-7.688,0.989c-1.859-0.619-3.227-2.17-3.227-4.523
		c0-5.892,6.076-8.434,13.826-8.434c9.051,0,14.631,2.666,14.631,11.035L718.048,42.033L718.048,42.033z M705.523,42.467V30.999
		l-2.479,0.931c-1.983,0.743-3.348,1.735-3.348,5.396c0,3.1,1.055,5.455,4.026,5.455C704.408,42.777,704.904,42.656,705.523,42.467z
		"/>
	<path d="M742.414,5.208V3.1l13.889-2.79h2.17v41.165c0,2.108,0.188,3.162,1.982,3.162h1.426v2.729l-13.949,2.105h-2.418l0.189-5.89
		c-2.543,3.967-5.951,5.89-10.105,5.89c-7.188,0-12.521-5.519-12.521-15.935c0-12.274,7.502-18.66,16.735-18.66
		c2.419,0,4.527,0.559,5.894,1.674v-9.67L742.414,5.208z M735.966,29.82c0,7.625,2.604,12.711,7.006,12.711
		c0.867,0,1.798-0.123,2.729-0.437V24.49c0-3.782-0.744-5.768-3.721-5.768C737.888,18.723,735.966,23.125,735.966,29.82z"/>
	<path d="M799.701,17.792c-2.107,0.684-2.543,1.116-3.162,2.479l-13.021,28.768h-3.653l-14.568-28.768
		c-0.682-1.362-1.055-1.798-3.162-2.479v-2.604h21.203v2.604c-3.285,0.436-4.028,0.868-4.028,2.17c0,0.56,0.122,0.868,0.495,1.736
		L786,34.841l5.641-13.143c0.373-0.868,0.496-1.18,0.496-1.736c0-1.302-0.744-1.734-4.029-2.17v-2.604h11.597v2.604H799.701z"/>
	<path d="M817.433,44.018c0,1.858,0.992,2.045,3.287,2.231v2.604h-19.344V46.25c2.293-0.188,3.285-0.373,3.285-2.231v-21.7
		l-3.285-2.106V18.29l13.824-3.722h2.229v29.449H817.433z M804.662,6.137c0-3.285,2.418-6.139,6.572-6.139
		c4.092,0,6.569,2.854,6.569,6.139s-2.479,6.138-6.569,6.138C807.08,12.275,804.662,9.423,804.662,6.137z"/>
	<path d="M843.597,40.979c3.533,0,6.138-1.113,8.06-3.845l1.488,0.933c-2.046,7.996-7.316,11.406-14.509,11.406
		c-8.803,0-15.684-6.138-15.684-16.43c0-10.603,6.94-18.477,17.479-18.477c6.324,0,11.779,2.355,11.779,8.122
		c0,2.541-1.488,4.094-2.914,4.711h-6.385c0.186-1.485,0.248-2.665,0.248-3.72c0-3.721-0.992-6.139-3.724-6.139
		c-3.473,0-5.452,4.648-5.452,10.851C833.988,36.205,837.458,40.979,843.597,40.979z"/>
	<path d="M886.189,28.457v1.55h-19.652c0,6.82,3.844,11.16,9.299,11.16c3.906,0,6.883-1.303,9.238-4.34l1.303,0.805
		c-1.736,7.193-6.635,11.843-14.756,11.843c-9.238,0-16.615-5.89-16.615-16.739c0-11.222,7.998-18.163,17.174-18.163
		C881.479,14.569,886.189,20.334,886.189,28.457z M866.599,26.968h8.742c0-6.138-0.992-9.672-3.969-9.672
		C868.273,17.296,866.847,21.14,866.599,26.968z"/>
	<path d="M901.876,32.61c0-10.354,7.377-18.041,17.979-18.041c10.602,0,17.979,6.512,17.979,16.863
		c0,10.354-7.379,18.041-17.979,18.041C909.254,49.473,901.876,42.963,901.876,32.61z M924.257,34.408
		c0-10.604-1.178-17.112-4.711-17.112c-3.287,0-4.092,4.588-4.092,12.338c0,10.604,1.178,17.112,4.711,17.112
		C923.451,46.746,924.257,42.158,924.257,34.408z"/>
	<path d="M956.561,42.84c0,2.728,1.362,2.914,4.834,3.41v2.604h-20.894V46.25c2.295-0.188,3.287-0.373,3.287-2.231V18.723h-4.402
		v-2.79l4.402-1.055v-0.496c0-9.856,7.006-14.072,15.375-14.072c7.129,0,10.291,2.418,10.291,6.388c0,1.798-0.992,3.348-2.418,4.027
		h-6.388c0.188-0.868,0.312-1.923,0.312-3.038c0-2.17-0.188-4.34-2.045-4.34c-1.736,0-2.355,1.363-2.355,3.721v8.121h7.066v3.534
		h-7.066L956.561,42.84L956.561,42.84z"/>
	<path d="M1004.794,40.979c3.535,0,6.139-1.113,8.062-3.845l1.487,0.933c-2.047,7.996-7.315,11.406-14.508,11.406
		c-8.805,0-15.688-6.138-15.688-16.43c0-10.603,6.941-18.477,17.48-18.477c6.324,0,11.779,2.355,11.779,8.122
		c0,2.541-1.486,4.094-2.912,4.711h-6.387c0.186-1.485,0.248-2.665,0.248-3.72c0-3.721-0.992-6.139-3.72-6.139
		c-3.473,0-5.457,4.648-5.457,10.851C995.186,36.205,998.658,40.979,1004.794,40.979z"/>
	<path d="M1016.205,32.61c0-10.354,7.377-18.041,17.979-18.041c10.605,0,17.98,6.512,17.98,16.863
		c0,10.354-7.377,18.041-17.98,18.041C1023.582,49.473,1016.205,42.963,1016.205,32.61z M1038.585,34.408
		c0-10.604-1.18-17.112-4.713-17.112c-3.285,0-4.092,4.588-4.092,12.338c0,10.604,1.178,17.112,4.713,17.112
		C1037.779,46.746,1038.585,42.158,1038.585,34.408z"/>
	<path d="M1090.912,41.475c0,2.108,0.186,3.162,1.982,3.162h1.426v2.729l-13.949,2.105h-2.418l0.188-6.076
		c-2.104,2.854-5.395,6.076-11.155,6.076c-5.58,0-9.552-3.349-9.552-10.603V24.177c0-1.734-0.434-3.16-2.17-3.72l-0.93-0.312v-2.479
		l13.887-3.102h2.355l-0.371,8.186v15.003c0,2.853,1.115,4.463,3.904,4.463c1.551,0,2.479-0.186,4.031-0.682V24.177
		c0-1.734-0.437-3.16-2.17-3.72l-0.931-0.312v-2.479l13.887-3.102h2.355l-0.371,8.186L1090.912,41.475L1090.912,41.475z"/>
	<path d="M1121.042,25.852c0-2.294-0.744-3.845-3.844-3.845c-1.736,0-3.162,0.312-4.588,0.808v21.203c0,1.858,0.807,2.045,3.1,2.231
		v2.604h-19.156V46.25c2.295-0.188,3.285-0.373,3.285-2.231v-21.7l-3.285-2.106V18.29l13.826-3.722h2.479l-0.248,6.264
		c2.231-2.914,5.766-6.264,11.594-6.264c6.014,0,9.609,3.35,9.609,10.17v19.279c0,1.858,0.991,2.045,3.284,2.231v2.604h-19.155
		V46.25c2.295-0.188,3.1-0.373,3.1-2.231L1121.042,25.852L1121.042,25.852z"/>
	<path d="M1139.767,46.311l-0.37-8.369h3.161c1.115,4.959,4.464,8.742,9.236,8.742c2.791,0,5.021-1.304,5.021-3.906
		c0-3.035-2.418-3.967-6.388-5.146c-7.188-2.106-11.098-5.207-11.098-11.716c0-7.378,5.58-11.348,13.33-11.348
		c4.276,0,8.244,1.116,10.91,2.854v7.44h-2.914c-0.619-3.906-3.408-7.504-7.688-7.504c-2.479,0-4.215,1.304-4.215,3.534
		c0,2.479,1.797,3.408,5.58,4.648c7.748,2.542,11.902,5.084,11.902,12.213c0,7.502-5.646,11.718-14.32,11.718
		C1146.525,49.473,1142.558,48.232,1139.767,46.311z"/>
	<path d="M1200.525,28.457v1.55h-19.652c0,6.82,3.844,11.16,9.299,11.16c3.906,0,6.881-1.303,9.238-4.34l1.301,0.805
		c-1.736,7.193-6.633,11.843-14.754,11.843c-9.238,0-16.615-5.89-16.615-16.739c0-11.222,7.996-18.163,17.172-18.163
		C1195.814,14.569,1200.525,20.334,1200.525,28.457z M1180.933,26.968h8.742c0-6.138-0.992-9.672-3.967-9.672
		C1182.607,17.296,1181.181,21.14,1180.933,26.968z"/>
	<path d="M1218.505,44.018c0,1.858,0.992,2.045,3.287,2.231v2.604h-19.344V46.25c2.295-0.188,3.285-0.373,3.285-2.231V6.881
		l-3.285-1.674V3.1l13.887-2.79h2.17V44.018z"/>
</g>
</svg>
