<?xml version="1.0" encoding="utf-8"?>
<!-- Generator: Adobe Illustrator 16.0.0, SVG Export Plug-In . SVG Version: 6.00 Build 0)  -->
<!DOCTYPE svg PUBLIC "-//W3C//DTD SVG 1.1//EN" "http://www.w3.org/Graphics/SVG/1.1/DTD/svg11.dtd">
<svg version="1.1" id="_x34_0" xmlns="http://www.w3.org/2000/svg" xmlns:xlink="http://www.w3.org/1999/xlink" x="0px" y="0px"
	 width="1440px" height="62.641px" viewBox="0 0 1440 62.641" enable-background="new 0 0 1440 62.641" xml:space="preserve">
<g>
	<path d="M24.173,42.84c0,2.728,1.364,2.914,4.836,3.41v2.604H8.116V46.25c2.294-0.188,3.286-0.373,3.286-2.231V18.723H7v-2.79
		l4.402-1.055v-0.496c0-9.856,7.005-14.072,15.375-14.072c7.129,0,10.292,2.418,10.292,6.386c0,1.798-0.992,3.348-2.418,4.029
		h-6.386c0.186-0.868,0.31-1.923,0.31-3.038c0-2.17-0.186-4.34-2.046-4.34c-1.736,0-2.356,1.363-2.356,3.721v8.121h7.068v3.534
		h-7.068V42.84z"/>
	<path d="M48.415,42.84c0,2.728,1.364,2.914,4.836,3.41v2.604H32.357V46.25c2.294-0.188,3.286-0.373,3.286-2.231V22.319
		l-3.286-2.108v-1.922l13.825-3.72h2.48l-0.248,9.672c2.356-7.439,4.65-9.672,8.618-9.672c1.55,0,2.604,0.435,3.286,1.054v9.485
		h-1.612c-3.968,0-7.625,0.124-10.292,1.735L48.415,42.84L48.415,42.84z"/>
	<path d="M93.054,28.457v1.55H73.401c0,6.82,3.844,11.16,9.299,11.16c3.906,0,6.881-1.303,9.237-4.34l1.302,0.805
		c-1.736,7.193-6.634,11.843-14.755,11.843c-9.237,0-16.615-5.89-16.615-16.738c0-11.222,7.998-18.166,17.173-18.166
		C88.342,14.569,93.054,20.334,93.054,28.457z M73.463,26.968h8.741c0-6.138-0.992-9.672-3.968-9.672
		C75.137,17.296,73.71,21.14,73.463,26.968z"/>
	<path d="M127.215,28.457v1.55h-19.653c0,6.82,3.844,11.16,9.299,11.16c3.906,0,6.881-1.303,9.237-4.34l1.302,0.805
		c-1.736,7.193-6.634,11.843-14.755,11.843c-9.237,0-16.615-5.89-16.615-16.738c0-11.222,7.998-18.166,17.173-18.166
		C122.503,14.569,127.215,20.334,127.215,28.457z M107.624,26.968h8.741c0-6.138-0.992-9.672-3.968-9.672
		C109.298,17.296,107.872,21.14,107.624,26.968z"/>
	<path d="M149.534,5.208V3.1l13.887-2.79h2.17v41.165c0,2.108,0.186,3.161,1.984,3.161h1.426v2.729l-13.949,2.107h-2.418l0.186-5.89
		c-2.542,3.967-5.952,5.89-10.105,5.89c-7.191,0-12.523-5.519-12.523-15.935c0-12.274,7.502-18.66,16.739-18.66
		c2.418,0,4.526,0.559,5.89,1.674V6.881L149.534,5.208z M143.086,29.82c0,7.625,2.604,12.709,7.005,12.709
		c0.868,0,1.798-0.123,2.728-0.435V24.489c0-3.782-0.744-5.766-3.72-5.766C145.008,18.723,143.086,23.125,143.086,29.82z"/>
	<path d="M171.11,32.609c0-10.354,7.378-18.041,17.979-18.041c10.602,0,17.979,6.51,17.979,16.863s-7.377,18.041-17.979,18.041
		C178.488,49.473,171.11,42.963,171.11,32.609z M193.491,34.408c0-10.602-1.178-17.112-4.712-17.112
		c-3.286,0-4.091,4.588-4.091,12.338c0,10.603,1.178,17.112,4.711,17.112C192.685,46.746,193.491,42.158,193.491,34.408z"/>
	<path d="M253.629,25.667c0-2.294-0.744-3.72-3.348-3.72c-1.612,0-2.853,0.434-4.216,0.93v21.142c0,1.858,0.558,2.045,2.852,2.231
		v2.604h-18.475V46.25c2.294-0.188,2.852-0.373,2.852-2.231V25.667c0-2.294-0.744-3.72-3.348-3.72c-1.612,0-2.852,0.372-4.216,0.868
		v21.203c0,1.858,0.558,2.045,2.852,2.231v2.604h-18.909V46.25c2.294-0.188,3.286-0.373,3.286-2.231V22.319l-3.286-2.108v-1.922
		l13.825-3.72h2.48l-0.248,6.386c2.17-3.41,5.642-6.386,11.284-6.386c4.835,0,7.998,1.859,8.803,6.51
		c2.108-3.348,5.952-6.51,11.407-6.51c5.766,0,9.176,3.286,9.176,9.732v19.716c0,1.858,0.992,2.045,3.286,2.231v2.604h-18.909V46.25
		c2.293-0.188,2.852-0.373,2.852-2.231V25.667L253.629,25.667z"/>
	<path d="M284.754,32.609c0-10.354,7.378-18.041,17.979-18.041c10.602,0,17.979,6.51,17.979,16.863s-7.377,18.041-17.979,18.041
		C292.132,49.473,284.754,42.963,284.754,32.609z M307.135,34.408c0-10.602-1.178-17.112-4.712-17.112
		c-3.286,0-4.091,4.588-4.091,12.338c0,10.603,1.178,17.112,4.711,17.112C306.33,46.746,307.135,42.158,307.135,34.408z"/>
	<path d="M339.438,42.84c0,2.728,1.364,2.914,4.837,3.41v2.604H323.38V46.25c2.294-0.188,3.286-0.373,3.286-2.231V18.723h-4.402
		v-2.79l4.402-1.055v-0.496c0-9.856,7.005-14.072,15.375-14.072c7.129,0,10.292,2.418,10.292,6.386c0,1.798-0.992,3.348-2.418,4.029
		h-6.386c0.186-0.868,0.31-1.923,0.31-3.038c0-2.17-0.186-4.34-2.046-4.34c-1.736,0-2.355,1.363-2.355,3.721v8.121h7.067v3.534
		h-7.067V42.84L339.438,42.84z"/>
	<path d="M386.123,40.979c3.534,0,6.138-1.115,8.06-3.845l1.488,0.933c-2.046,7.996-7.315,11.406-14.507,11.406
		c-8.803,0-15.686-6.138-15.686-16.431c0-10.6,6.944-18.474,17.483-18.474c6.323,0,11.779,2.355,11.779,8.122
		c0,2.541-1.488,4.092-2.914,4.711h-6.386c0.186-1.487,0.248-2.665,0.248-3.72c0-3.721-0.992-6.139-3.721-6.139
		c-3.472,0-5.456,4.65-5.456,10.851C376.513,36.205,379.985,40.979,386.123,40.979z"/>
	<path d="M400.694,6.881l-3.286-1.674V3.1l13.887-2.79h2.17v20.521c2.232-2.914,5.766-6.262,11.593-6.262
		c6.015,0,9.61,3.348,9.61,10.168v19.281c0,1.858,0.992,2.045,3.286,2.231v2.604h-19.157V46.25c2.293-0.188,3.1-0.373,3.1-2.231
		V25.852c0-2.294-0.743-3.845-3.844-3.845c-1.735,0-3.162,0.312-4.588,0.808v21.203c0,1.858,0.807,2.045,3.1,2.231v2.604h-19.156
		V46.25c2.294-0.188,3.286-0.373,3.286-2.231V6.881z"/>
	<path d="M439.691,32.609c0-10.354,7.378-18.041,17.979-18.041c10.602,0,17.979,6.51,17.979,16.863s-7.378,18.041-17.979,18.041
		C447.069,49.473,439.691,42.963,439.691,32.609z M462.072,34.408c0-10.602-1.179-17.112-4.712-17.112
		c-3.286,0-4.092,4.588-4.092,12.338c0,10.603,1.179,17.112,4.712,17.112C461.266,46.746,462.072,42.158,462.072,34.408z"/>
	<path d="M494.312,44.018c0,1.858,0.991,2.045,3.285,2.231v2.604h-19.343V46.25c2.294-0.188,3.286-0.373,3.286-2.231V22.319
		l-3.286-2.108v-1.922l13.825-3.72h2.232V44.018z M481.541,6.136c0-3.284,2.417-6.138,6.571-6.138c4.092,0,6.571,2.854,6.571,6.138
		c0,3.286-2.479,6.139-6.571,6.139C483.958,12.275,481.541,9.423,481.541,6.136z"/>
	<path d="M520.475,40.979c3.534,0,6.139-1.115,8.061-3.845l1.488,0.933c-2.047,7.996-7.315,11.406-14.508,11.406
		c-8.803,0-15.685-6.138-15.685-16.431c0-10.6,6.944-18.474,17.483-18.474c6.322,0,11.778,2.355,11.778,8.122
		c0,2.541-1.487,4.092-2.914,4.711h-6.386c0.186-1.487,0.248-2.665,0.248-3.72c0-3.721-0.992-6.139-3.72-6.139
		c-3.473,0-5.456,4.65-5.456,10.851C510.866,36.205,514.337,40.979,520.475,40.979z"/>
	<path d="M563.069,28.457v1.55h-19.653c0,6.82,3.844,11.16,9.299,11.16c3.906,0,6.881-1.303,9.237-4.34l1.302,0.805
		c-1.736,7.193-6.634,11.843-14.755,11.843c-9.237,0-16.615-5.89-16.615-16.738c0-11.222,7.998-18.166,17.173-18.166
		C558.357,14.569,563.069,20.334,563.069,28.457z M543.479,26.968h8.74c0-6.138-0.992-9.672-3.968-9.672
		C545.152,17.296,543.727,21.14,543.479,26.968z"/>
	<path d="M578.755,32.609c0-10.354,7.378-18.041,17.979-18.041c10.601,0,17.978,6.51,17.978,16.863s-7.377,18.041-17.978,18.041
		C586.133,49.473,578.755,42.963,578.755,32.609z M601.136,34.408c0-10.602-1.178-17.112-4.712-17.112
		c-3.285,0-4.092,4.588-4.092,12.338c0,10.603,1.178,17.112,4.712,17.112C600.33,46.746,601.136,42.158,601.136,34.408z"/>
	<path d="M633.438,42.84c0,2.728,1.363,2.914,4.836,3.41v2.604h-20.893V46.25c2.293-0.188,3.285-0.373,3.285-2.231V18.723h-4.402
		v-2.79l4.402-1.055v-0.496c0-9.856,7.006-14.072,15.375-14.072c7.131,0,10.291,2.418,10.291,6.386c0,1.798-0.99,3.348-2.418,4.029
		h-6.385c0.186-0.868,0.311-1.923,0.311-3.038c0-2.17-0.186-4.34-2.047-4.34c-1.736,0-2.355,1.363-2.355,3.721v8.121h7.068v3.534
		h-7.068V42.84z"/>
	<path d="M708.766,21.699c0.312-0.806,0.496-1.488,0.496-1.984c0-1.238-1.055-1.674-3.41-1.922v-2.604h10.851v2.604
		c-2.107,0.684-2.604,1.116-3.162,2.48l-12.398,28.766h-4.217l-7.313-18.723l-8.806,18.723h-4.215l-13.33-28.766
		c-0.619-1.364-1.053-1.798-3.162-2.48v-2.604h19.716v2.604c-1.859,0.248-2.604,0.808-2.604,1.798c0,0.56,0.188,1.24,0.56,2.108
		l5.579,13.266l4.341-8.988l-2.232-5.703c-0.496-1.364-1.24-1.984-2.789-2.48v-2.604h19.59v2.604
		c-2.541,0.312-3.719,0.56-3.719,2.046c0,0.496,0.123,1.116,0.371,1.86l4.773,12.524L708.766,21.699z"/>
	<path d="M715.465,32.609c0-10.354,7.377-18.041,17.979-18.041c10.602,0,17.979,6.51,17.979,16.863s-7.377,18.041-17.979,18.041
		C722.842,49.472,715.465,42.963,715.465,32.609z M737.846,34.408c0-10.602-1.18-17.112-4.713-17.112
		c-3.285,0-4.092,4.588-4.092,12.338c0,10.603,1.178,17.112,4.713,17.112C737.04,46.746,737.846,42.158,737.846,34.408z"/>
	<path d="M770.084,42.84c0,2.728,1.365,2.914,4.836,3.41v2.604h-20.893V46.25c2.295-0.188,3.285-0.373,3.285-2.231V22.319
		l-3.285-2.108v-1.922l13.826-3.72h2.479l-0.248,9.672c2.357-7.439,4.65-9.672,8.617-9.672c1.551,0,2.604,0.435,3.287,1.054v9.485
		h-1.611c-3.969,0-7.627,0.124-10.293,1.735V42.84z"/>
	<path d="M802.883,5.208V3.1l13.887-2.79h2.17v41.165c0,2.108,0.187,3.161,1.984,3.161h1.426v2.729l-13.948,2.107h-2.418l0.186-5.89
		c-2.541,3.967-5.951,5.89-10.104,5.89c-7.191,0-12.523-5.519-12.523-15.935c0-12.274,7.502-18.66,16.738-18.66
		c2.418,0,4.526,0.559,5.891,1.674V6.881L802.883,5.208z M796.434,29.82c0,7.625,2.605,12.709,7.006,12.709
		c0.869,0,1.8-0.123,2.729-0.435V24.489c0-3.782-0.744-5.766-3.721-5.766C798.355,18.723,796.434,23.125,796.434,29.82z"/>
	<path d="M825.389,46.311l-0.373-8.369h3.162c1.115,4.959,4.465,8.742,9.238,8.742c2.789,0,5.021-1.304,5.021-3.906
		c0-3.037-2.419-3.967-6.388-5.146c-7.19-2.106-11.096-5.207-11.096-11.716c0-7.378,5.578-11.346,13.328-11.346
		c4.276,0,8.245,1.116,10.911,2.852v7.44h-2.913c-0.621-3.906-3.41-7.502-7.688-7.502c-2.479,0-4.217,1.302-4.217,3.534
		c0,2.479,1.799,3.408,5.58,4.648c7.75,2.542,11.904,5.084,11.904,12.213c0,7.502-5.644,11.718-14.322,11.718
		C832.146,49.473,828.178,48.232,825.389,46.311z"/>
	<path d="M867.982,32.609c0-10.354,7.378-18.041,17.979-18.041c10.603,0,17.979,6.51,17.979,16.863s-7.377,18.041-17.979,18.041
		C875.36,49.472,867.982,42.963,867.982,32.609z M890.364,34.408c0-10.602-1.181-17.112-4.713-17.112
		c-3.285,0-4.093,4.588-4.093,12.338c0,10.603,1.179,17.112,4.713,17.112C889.557,46.746,890.364,42.158,890.364,34.408z"/>
	<path d="M922.667,42.84c0,2.728,1.363,2.914,4.834,3.41v2.604h-20.894V46.25c2.296-0.188,3.287-0.373,3.287-2.231V18.723h-4.401
		v-2.79l4.401-1.055v-0.496c0-9.856,7.006-14.072,15.375-14.072c7.129,0,10.291,2.418,10.291,6.386c0,1.798-0.991,3.348-2.418,4.029
		h-6.385c0.186-0.868,0.309-1.923,0.309-3.038c0-2.17-0.186-4.34-2.045-4.34c-1.735,0-2.354,1.363-2.354,3.721v8.121h7.065v3.534
		h-7.065V42.84z"/>
	<path d="M979.889,28.457v1.55h-19.651c0,6.82,3.844,11.16,9.299,11.16c3.906,0,6.883-1.303,9.237-4.34l1.304,0.805
		c-1.736,7.193-6.636,11.843-14.756,11.843c-9.238,0-16.615-5.89-16.615-16.738c0-11.222,7.998-18.166,17.174-18.166
		C975.178,14.569,979.889,20.334,979.889,28.457z M960.299,26.968h8.742c0-6.138-0.992-9.672-3.969-9.672
		C961.973,17.296,960.547,21.14,960.299,26.968z"/>
	<path d="M1006.86,25.852c0-2.294-0.744-3.845-3.845-3.845c-1.735,0-3.162,0.312-4.588,0.808v21.203
		c0,1.858,0.805,2.045,3.101,2.231v2.604h-19.156V46.25c2.293-0.188,3.285-0.373,3.285-2.231V22.319l-3.285-2.108v-1.922
		l13.824-3.72h2.479l-0.248,6.262c2.232-2.914,5.766-6.262,11.594-6.262c6.015,0,9.609,3.348,9.609,10.168v19.281
		c0,1.858,0.992,2.045,3.285,2.231v2.604h-19.156V46.25c2.293-0.188,3.1-0.373,3.1-2.231L1006.86,25.852L1006.86,25.852z"/>
	<path d="M1045.299,40.979c3.533,0,6.137-1.115,8.059-3.845l1.488,0.933c-2.045,7.996-7.315,11.406-14.508,11.406
		c-8.803,0-15.684-6.138-15.684-16.431c0-10.6,6.942-18.474,17.481-18.474c6.324,0,11.779,2.355,11.779,8.122
		c0,2.541-1.488,4.092-2.914,4.711h-6.385c0.186-1.487,0.248-2.665,0.248-3.72c0-3.721-0.992-6.139-3.721-6.139
		c-3.474,0-5.455,4.65-5.455,10.851C1035.689,36.205,1039.161,40.979,1045.299,40.979z"/>
	<path d="M1056.708,32.609c0-10.354,7.377-18.041,17.979-18.041c10.602,0,17.979,6.51,17.979,16.863s-7.379,18.041-17.979,18.041
		C1064.086,49.472,1056.708,42.963,1056.708,32.609z M1079.088,34.408c0-10.602-1.178-17.112-4.711-17.112
		c-3.287,0-4.092,4.588-4.092,12.338c0,10.603,1.178,17.112,4.711,17.112C1078.282,46.746,1079.088,42.158,1079.088,34.408z"/>
	<path d="M1131.415,41.475c0,2.108,0.187,3.161,1.984,3.161h1.426v2.729l-13.949,2.107h-2.418l0.187-6.076
		c-2.107,2.854-5.394,6.076-11.158,6.076c-5.58,0-9.549-3.349-9.549-10.603V24.177c0-1.734-0.435-3.16-2.17-3.72l-0.931-0.31v-2.48
		l13.888-3.1h2.356l-0.373,8.184v15.003c0,2.853,1.117,4.463,3.906,4.463c1.549,0,2.479-0.186,4.029-0.682V24.177
		c0-1.734-0.435-3.16-2.171-3.72l-0.93-0.31v-2.48l13.887-3.1h2.357l-0.373,8.184L1131.415,41.475L1131.415,41.475z"/>
	<path d="M1153.116,42.84c0,2.728,1.362,2.914,4.836,3.41v2.604h-20.894V46.25c2.293-0.188,3.285-0.373,3.285-2.231V22.319
		l-3.285-2.108v-1.922l13.824-3.72h2.48l-0.248,9.672c2.354-7.439,4.647-9.672,8.617-9.672c1.551,0,2.604,0.435,3.284,1.054v9.485
		h-1.61c-3.967,0-7.625,0.124-10.291,1.735L1153.116,42.84L1153.116,42.84z"/>
	<path d="M1196.454,42.033c0,1.24,0.125,2.543,1.551,2.543c0.806,0,1.611-0.188,1.922-0.311l0.435,1.858
		c-2.17,1.984-4.898,3.349-8.617,3.349c-3.783,0-6.51-1.859-7.627-5.146c-1.734,2.664-4.588,4.896-9.174,4.896
		c-5.332,0-9.115-2.914-9.115-8.433c0-5.455,3.721-7.688,8.061-9.176l10.043-3.471v-6.819c0-2.479-0.618-4.154-2.666-4.154
		c-2.17,0-2.975,1.922-2.975,4.774c0,1.487,0.248,3.038,0.619,4.588l-7.688,0.991c-1.859-0.619-3.226-2.17-3.226-4.525
		c0-5.89,6.076-8.432,13.826-8.432c9.051,0,14.631,2.666,14.631,11.035V42.033L1196.454,42.033z M1183.93,42.467V30.999
		l-2.479,0.929c-1.982,0.744-3.349,1.736-3.349,5.396c0,3.1,1.056,5.455,4.031,5.455
		C1182.814,42.777,1183.311,42.654,1183.93,42.467z"/>
	<path d="M1209.473,36.205c-0.805,0.744-1.549,1.551-1.549,2.729c0,0.93,0.619,1.674,1.674,1.674h13.824
		c8.928,0,12.4,3.844,12.4,9.547c0,8.123-7.627,12.522-19.281,12.522c-10.168,0-16.49-2.604-16.49-7.502
		c0-3.036,3.101-4.34,5.703-4.586c-2.666-1.055-4.217-3.782-4.217-6.448c0-4.216,2.852-6.882,6.201-8.617
		c-3.474-1.611-6.015-4.402-6.015-8.989c0-7.562,6.509-11.966,15.498-11.966c2.543,0,4.402,0.372,6.015,0.806l11.346-0.247v4.463
		h-2.914l-3.533-0.124c2.293,1.552,3.781,3.906,3.781,7.007c0,6.943-6.633,10.787-15.252,10.787
		C1214.309,37.26,1211.768,36.949,1209.473,36.205z M1207.18,52.201c-0.248,0.311-0.311,0.992-0.311,1.674
		c0,3.596,4.029,5.642,9.857,5.642c5.395,0,10.416-1.179,10.416-4.959c0-1.611-0.992-2.355-2.978-2.355L1207.18,52.201
		L1207.18,52.201z M1220.26,26.163c0-4.588-1.053-8.804-3.596-8.804c-2.479,0-3.16,2.914-3.16,8.184
		c0,4.897,1.115,9.051,3.596,9.051C1219.641,34.594,1220.26,31.742,1220.26,26.163z"/>
	<path d="M1267.133,28.457v1.55h-19.651c0,6.82,3.844,11.16,9.299,11.16c3.905,0,6.881-1.303,9.237-4.34l1.302,0.805
		c-1.736,7.193-6.634,11.843-14.754,11.843c-9.238,0-16.615-5.89-16.615-16.738c0-11.222,7.996-18.166,17.172-18.166
		C1262.422,14.569,1267.133,20.334,1267.133,28.457z M1247.542,26.968h8.742c0-6.138-0.992-9.672-3.968-9.672
		C1249.215,17.296,1247.79,21.14,1247.542,26.968z"/>
	<path d="M1313.569,25.667c0-2.294-0.744-3.72-3.349-3.72c-1.61,0-2.852,0.434-4.215,0.93v21.142c0,1.858,0.557,2.045,2.853,2.231
		v2.604h-18.476V46.25c2.293-0.188,2.853-0.373,2.853-2.231V25.667c0-2.294-0.744-3.72-3.349-3.72c-1.612,0-2.852,0.372-4.217,0.868
		v21.203c0,1.858,0.559,2.045,2.853,2.231v2.604h-18.908V46.25c2.295-0.188,3.285-0.373,3.285-2.231V22.319l-3.285-2.108v-1.922
		l13.826-3.72h2.479l-0.248,6.386c2.17-3.41,5.644-6.386,11.283-6.386c4.836,0,7.998,1.859,8.805,6.51
		c2.107-3.348,5.951-6.51,11.406-6.51c5.767,0,9.176,3.286,9.176,9.732v19.716c0,1.858,0.992,2.045,3.287,2.231v2.604h-18.91V46.25
		c2.296-0.188,2.853-0.373,2.853-2.231L1313.569,25.667L1313.569,25.667z"/>
	<path d="M1362.549,28.457v1.55h-19.652c0,6.82,3.845,11.16,9.3,11.16c3.905,0,6.881-1.303,9.237-4.34l1.302,0.805
		c-1.736,7.193-6.634,11.843-14.755,11.843c-9.237,0-16.614-5.89-16.614-16.738c0-11.222,7.996-18.166,17.172-18.166
		C1357.838,14.569,1362.549,20.334,1362.549,28.457z M1342.958,26.968h8.742c0-6.138-0.992-9.672-3.968-9.672
		C1344.631,17.296,1343.206,21.14,1342.958,26.968z"/>
	<path d="M1389.518,25.852c0-2.294-0.744-3.845-3.844-3.845c-1.736,0-3.162,0.312-4.588,0.808v21.203c0,1.858,0.807,2.045,3.1,2.231
		v2.604h-19.155V46.25c2.295-0.188,3.284-0.373,3.284-2.231V22.319l-3.284-2.108v-1.922l13.825-3.72h2.479l-0.248,6.262
		c2.232-2.914,5.766-6.262,11.594-6.262c6.015,0,9.609,3.348,9.609,10.168v19.281c0,1.858,0.992,2.045,3.285,2.231v2.604h-19.156
		V46.25c2.295-0.188,3.1-0.373,3.1-2.231L1389.518,25.852L1389.518,25.852z"/>
	<path d="M1422.688,15.189h6.884v3.534h-6.884v20.521c0,2.666,1.056,3.844,3.162,3.844c1.488,0,2.914-0.559,4.34-1.551l0.992,1.551
		c-2.479,4.152-6.139,6.386-11.346,6.386c-5.951,0-10.105-2.976-10.105-10.416V18.723h-3.348v-2.295
		c5.271-1.859,10.105-5.518,13.578-9.856h2.727V15.189z"/>
</g>
</svg>
