<?xml version="1.0" encoding="iso-8859-1"?>
<!-- Generator: Adobe Illustrator 16.0.0, SVG Export Plug-In . SVG Version: 6.00 Build 0)  -->
<!DOCTYPE svg PUBLIC "-//W3C//DTD SVG 1.1//EN" "http://www.w3.org/Graphics/SVG/1.1/DTD/svg11.dtd">
<svg version="1.1" id="_x33_9" xmlns="http://www.w3.org/2000/svg" xmlns:xlink="http://www.w3.org/1999/xlink" x="0px" y="0px"
	 width="1440px" height="62.68px" viewBox="0 0 1440 62.68" enable-background="new 0 0 1440 62.68" xml:space="preserve">
<g>
	<path d="M127.646,22.319l-3.286-2.107v-1.922l13.825-3.721h2.479l-0.248,6.139c1.612-2.729,5.022-6.139,10.416-6.139
		c7.192,0,12.585,4.898,12.585,15.314c0,13.018-7.874,19.59-17.979,19.59c-2.232,0-4.092-0.371-5.022-1.053v8.43
		c0,2.17,1.116,2.232,4.588,2.543v2.604H124.36v-2.604c2.293-0.186,3.286-0.373,3.286-2.232V22.319z M150.398,33.539
		c0-8.432-2.976-11.531-7.129-11.531c-0.992,0-1.86,0.125-2.852,0.559v17.545c0,3.658,0.744,6.199,3.782,6.199
		C148.352,46.311,150.398,40.733,150.398,33.539z"/>
	<path d="M182.08,44.018c0,1.859,0.992,2.045,3.286,2.232v2.604h-19.343V46.25c2.294-0.188,3.286-0.373,3.286-2.232V22.319
		l-3.286-2.107v-1.922l13.825-3.721h2.232V44.018z M169.309,6.137c0-3.285,2.417-6.137,6.571-6.137c4.092,0,6.572,2.852,6.572,6.137
		c0,3.287-2.48,6.139-6.572,6.139C171.727,12.276,169.309,9.424,169.309,6.137z"/>
	<path d="M203.532,44.018c0,1.859,0.992,2.045,3.286,2.232v2.604h-19.343V46.25c2.294-0.188,3.286-0.373,3.286-2.232V6.881
		l-3.286-1.674V3.1l13.887-2.789h2.17V44.018z"/>
	<path d="M224.983,44.018c0,1.859,0.992,2.045,3.286,2.232v2.604h-19.343V46.25c2.294-0.188,3.286-0.373,3.286-2.232V6.881
		l-3.286-1.674V3.1l13.887-2.789h2.17V44.018z"/>
	<path d="M260.694,42.033c0,1.24,0.124,2.543,1.55,2.543c0.806,0,1.612-0.188,1.922-0.311l0.434,1.859
		c-2.17,1.984-4.897,3.348-8.617,3.348c-3.782,0-6.51-1.859-7.626-5.145c-1.736,2.664-4.587,4.896-9.175,4.896
		c-5.332,0-9.113-2.914-9.113-8.432c0-5.455,3.72-7.688,8.06-9.176l10.043-3.471v-6.82c0-2.479-0.62-4.154-2.666-4.154
		c-2.17,0-2.976,1.922-2.976,4.775c0,1.486,0.248,3.037,0.62,4.588l-7.688,0.99c-1.86-0.619-3.224-2.17-3.224-4.525
		c0-5.889,6.076-8.432,13.826-8.432c9.051,0,14.631,2.666,14.631,11.035V42.033z M248.17,42.467V30.998l-2.479,0.93
		c-1.984,0.744-3.348,1.736-3.348,5.395c0,3.1,1.054,5.455,4.03,5.455C247.055,42.778,247.551,42.655,248.17,42.467z"/>
	<path d="M281.898,42.84c0,2.727,1.364,2.914,4.836,3.41v2.604h-20.893V46.25c2.294-0.188,3.286-0.373,3.286-2.232V22.319
		l-3.286-2.107v-1.922l13.825-3.721h2.48l-0.248,9.672c2.356-7.439,4.65-9.672,8.618-9.672c1.55,0,2.604,0.436,3.286,1.055v9.484
		h-1.612c-3.968,0-7.625,0.125-10.292,1.736V42.84z"/>
	<path d="M308.683,32.61c0-10.354,7.378-18.041,17.979-18.041c10.602,0,17.979,6.51,17.979,16.863s-7.377,18.041-17.979,18.041
		C316.061,49.473,308.683,42.963,308.683,32.61z M331.063,34.408c0-10.602-1.178-17.111-4.712-17.111
		c-3.286,0-4.091,4.588-4.091,12.338c0,10.602,1.178,17.111,4.711,17.111C330.258,46.746,331.063,42.158,331.063,34.408z"/>
	<path d="M363.365,42.84c0,2.727,1.364,2.914,4.836,3.41v2.604h-20.893V46.25c2.294-0.188,3.286-0.373,3.286-2.232V18.723h-4.402
		v-2.789l4.402-1.055v-0.496c0-9.857,7.005-14.072,15.375-14.072c7.129,0,10.292,2.418,10.292,6.385
		c0,1.799-0.992,3.348-2.418,4.029h-6.386c0.186-0.867,0.31-1.922,0.31-3.037c0-2.17-0.186-4.34-2.046-4.34
		c-1.736,0-2.356,1.363-2.356,3.721v8.121h7.068v3.533h-7.068V42.84z"/>
	<path d="M391.886,46.311l-0.372-8.369h3.162c1.116,4.959,4.463,8.742,9.237,8.742c2.79,0,5.021-1.303,5.021-3.906
		c0-3.037-2.417-3.967-6.385-5.146c-7.192-2.107-11.098-5.207-11.098-11.717c0-7.377,5.58-11.346,13.329-11.346
		c4.278,0,8.246,1.117,10.912,2.852v7.441h-2.914c-0.62-3.906-3.41-7.502-7.688-7.502c-2.479,0-4.216,1.301-4.216,3.533
		c0,2.48,1.798,3.41,5.58,4.65c7.75,2.541,11.903,5.084,11.903,12.213c0,7.502-5.642,11.717-14.321,11.717
		C398.644,49.473,394.676,48.233,391.886,46.311z"/>
	<path d="M436.525,15.19h6.881v3.533h-6.881v20.521c0,2.666,1.054,3.844,3.162,3.844c1.488,0,2.914-0.559,4.34-1.551l0.992,1.551
		c-2.479,4.152-6.138,6.385-11.345,6.385c-5.952,0-10.105-2.975-10.105-10.416V18.723h-3.348V16.43
		c5.27-1.861,10.105-5.518,13.577-9.857h2.728V15.19z"/>
	<path d="M462.441,42.84c0,2.727,1.364,2.914,4.836,3.41v2.604h-20.893V46.25c2.294-0.188,3.286-0.373,3.286-2.232V22.319
		l-3.286-2.107v-1.922l13.825-3.721h2.48l-0.248,9.672c2.356-7.439,4.65-9.672,8.618-9.672c1.55,0,2.604,0.436,3.286,1.055v9.484
		h-1.612c-3.968,0-7.625,0.125-10.292,1.736V42.84z"/>
	<path d="M507.08,28.457v1.549h-19.653c0,6.82,3.844,11.16,9.299,11.16c3.906,0,6.881-1.303,9.237-4.34l1.302,0.805
		c-1.736,7.193-6.634,11.842-14.755,11.842c-9.237,0-16.615-5.889-16.615-16.738c0-11.223,7.998-18.166,17.173-18.166
		C502.368,14.569,507.08,20.334,507.08,28.457z M487.489,26.969h8.741c0-6.139-0.992-9.672-3.968-9.672
		C489.163,17.297,487.737,21.141,487.489,26.969z"/>
	<path d="M534.049,25.852c0-2.293-0.744-3.844-3.844-3.844c-1.736,0-3.162,0.311-4.588,0.807v21.203c0,1.859,0.806,2.045,3.1,2.232
		v2.604h-19.157V46.25c2.294-0.188,3.286-0.373,3.286-2.232V22.319l-3.286-2.107v-1.922l13.825-3.721h2.48l-0.248,6.262
		c2.232-2.914,5.766-6.262,11.593-6.262c6.014,0,9.61,3.348,9.61,10.168v19.281c0,1.859,0.992,2.045,3.286,2.232v2.604H530.95V46.25
		c2.293-0.188,3.1-0.373,3.1-2.232V25.852z"/>
	<path d="M559.841,36.205c-0.806,0.744-1.55,1.551-1.55,2.729c0,0.93,0.62,1.674,1.674,1.674h13.825
		c8.928,0,12.399,3.844,12.399,9.547c0,8.123-7.625,12.523-19.281,12.523c-10.167,0-16.491-2.604-16.491-7.502
		c0-3.037,3.1-4.34,5.704-4.586c-2.666-1.055-4.216-3.783-4.216-6.449c0-4.215,2.852-6.881,6.2-8.617
		c-3.472-1.611-6.014-4.402-6.014-8.988c0-7.564,6.51-11.967,15.499-11.967c2.542,0,4.402,0.373,6.014,0.807l11.346-0.248v4.463
		h-2.914l-3.534-0.123c2.294,1.551,3.782,3.906,3.782,7.006c0,6.943-6.634,10.787-15.251,10.787
		C564.677,37.26,562.135,36.949,559.841,36.205z M557.548,52.201c-0.248,0.311-0.31,0.992-0.31,1.674
		c0,3.596,4.03,5.641,9.857,5.641c5.394,0,10.415-1.178,10.415-4.959c0-1.611-0.992-2.355-2.976-2.355H557.548z M570.629,26.162
		c0-4.588-1.054-8.803-3.596-8.803c-2.48,0-3.162,2.914-3.162,8.184c0,4.896,1.116,9.051,3.596,9.051
		C570.009,34.594,570.629,31.742,570.629,26.162z"/>
	<path d="M602.621,15.19h6.881v3.533h-6.881v20.521c0,2.666,1.054,3.844,3.162,3.844c1.488,0,2.914-0.559,4.34-1.551l0.992,1.551
		c-2.479,4.152-6.138,6.385-11.345,6.385c-5.952,0-10.105-2.975-10.105-10.416V18.723h-3.348V16.43
		c5.27-1.861,10.105-5.518,13.577-9.857h2.728V15.19z"/>
	<path d="M615.518,6.881l-3.286-1.674V3.1l13.887-2.789h2.17v20.52c2.232-2.914,5.766-6.262,11.594-6.262
		c6.013,0,9.609,3.348,9.609,10.168v19.281c0,1.859,0.992,2.045,3.286,2.232v2.604h-19.157V46.25c2.294-0.188,3.1-0.373,3.1-2.232
		V25.852c0-2.293-0.744-3.844-3.844-3.844c-1.736,0-3.162,0.311-4.588,0.807v21.203c0,1.859,0.806,2.045,3.1,2.232v2.604h-19.157
		V46.25c2.294-0.188,3.286-0.373,3.286-2.232V6.881z"/>
	<path d="M667.845,32.61c0-10.354,7.378-18.041,17.979-18.041c10.602,0,17.979,6.51,17.979,16.863s-7.378,18.041-17.979,18.041
		C675.223,49.473,667.845,42.963,667.845,32.61z M690.226,34.408c0-10.602-1.178-17.111-4.712-17.111
		c-3.286,0-4.091,4.588-4.091,12.338c0,10.602,1.178,17.111,4.711,17.111C689.419,46.746,690.226,42.158,690.226,34.408z"/>
	<path d="M722.527,42.84c0,2.727,1.365,2.914,4.836,3.41v2.604H706.47V46.25c2.295-0.188,3.287-0.373,3.287-2.232V18.723h-4.402
		v-2.789l4.402-1.055v-0.496c0-9.857,7.005-14.072,15.375-14.072c7.129,0,10.291,2.418,10.291,6.385
		c0,1.799-0.992,3.348-2.418,4.029h-6.387c0.188-0.867,0.311-1.922,0.311-3.037c0-2.17-0.186-4.34-2.045-4.34
		c-1.736,0-2.357,1.363-2.357,3.721v8.121h7.068v3.533h-7.068V42.84z"/>
	<path d="M751.049,46.311l-0.373-8.369h3.162c1.115,4.959,4.465,8.742,9.238,8.742c2.789,0,5.021-1.303,5.021-3.906
		c0-3.037-2.418-3.967-6.387-5.146c-7.191-2.107-11.096-5.207-11.096-11.717c0-7.377,5.578-11.346,13.328-11.346
		c4.277,0,8.246,1.117,10.912,2.852v7.441h-2.914c-0.621-3.906-3.41-7.502-7.688-7.502c-2.48,0-4.217,1.301-4.217,3.533
		c0,2.48,1.799,3.41,5.58,4.65c7.75,2.541,11.904,5.084,11.904,12.213c0,7.502-5.643,11.717-14.322,11.717
		C757.807,49.473,753.838,48.233,751.049,46.311z"/>
	<path d="M801.268,40.979c3.533,0,6.137-1.115,8.059-3.844l1.488,0.932c-2.045,7.996-7.316,11.406-14.508,11.406
		c-8.803,0-15.684-6.137-15.684-16.43c0-10.6,6.943-18.475,17.482-18.475c6.324,0,11.779,2.357,11.779,8.123
		c0,2.541-1.488,4.092-2.914,4.711h-6.385c0.186-1.488,0.248-2.666,0.248-3.721c0-3.719-0.992-6.137-3.721-6.137
		c-3.473,0-5.455,4.65-5.455,10.85C791.658,36.205,795.129,40.979,801.268,40.979z"/>
	<path d="M815.838,6.881l-3.285-1.674V3.1l13.887-2.789h2.17v20.52c2.232-2.914,5.766-6.262,11.594-6.262
		c6.014,0,9.609,3.348,9.609,10.168v19.281c0,1.859,0.992,2.045,3.285,2.232v2.604h-19.156V46.25c2.293-0.188,3.1-0.373,3.1-2.232
		V25.852c0-2.293-0.744-3.844-3.844-3.844c-1.736,0-3.162,0.311-4.588,0.807v21.203c0,1.859,0.805,2.045,3.1,2.232v2.604h-19.156
		V46.25c2.293-0.188,3.285-0.373,3.285-2.232V6.881z"/>
	<path d="M886.02,28.457v1.549h-19.652c0,6.82,3.844,11.16,9.299,11.16c3.906,0,6.881-1.303,9.238-4.34l1.301,0.805
		c-1.736,7.193-6.633,11.842-14.754,11.842c-9.238,0-16.615-5.889-16.615-16.738c0-11.223,7.996-18.166,17.172-18.166
		C881.309,14.569,886.02,20.334,886.02,28.457z M866.428,26.969h8.742c0-6.139-0.992-9.672-3.967-9.672
		C868.102,17.297,866.676,21.141,866.428,26.969z"/>
	<path d="M908.34,5.207V3.1l13.887-2.789h2.17v41.164c0,2.109,0.186,3.162,1.984,3.162h1.426v2.729l-13.949,2.107h-2.418
		l0.186-5.889c-2.541,3.967-5.951,5.889-10.105,5.889c-7.191,0-12.523-5.518-12.523-15.934c0-12.275,7.502-18.66,16.738-18.66
		c2.418,0,4.527,0.559,5.891,1.674V6.881L908.34,5.207z M901.891,29.821c0,7.625,2.605,12.709,7.006,12.709
		c0.869,0,1.799-0.123,2.729-0.434V24.489c0-3.781-0.744-5.766-3.721-5.766C903.812,18.723,901.891,23.125,901.891,29.821z"/>
	<path d="M965.873,41.475c0,2.109,0.186,3.162,1.984,3.162h1.426v2.729l-13.949,2.107h-2.418l0.186-6.076
		c-2.107,2.854-5.393,6.076-11.158,6.076c-5.58,0-9.549-3.348-9.549-10.602V24.178c0-1.734-0.434-3.16-2.17-3.719l-0.93-0.311v-2.48
		l13.887-3.1h2.357l-0.373,8.184v15.004c0,2.852,1.117,4.463,3.906,4.463c1.549,0,2.48-0.186,4.029-0.682V24.178
		c0-1.734-0.434-3.16-2.17-3.719l-0.93-0.311v-2.48l13.887-3.1h2.357l-0.373,8.184V41.475z"/>
	<path d="M987.326,44.018c0,1.859,0.992,2.045,3.285,2.232v2.604H971.27V46.25c2.293-0.188,3.285-0.373,3.285-2.232V6.881
		l-3.285-1.674V3.1l13.887-2.789h2.17V44.018z"/>
	<path d="M1024.029,28.457v1.549h-19.652c0,6.82,3.844,11.16,9.299,11.16c3.906,0,6.881-1.303,9.238-4.34l1.301,0.805
		c-1.736,7.193-6.633,11.842-14.754,11.842c-9.238,0-16.615-5.889-16.615-16.738c0-11.223,7.996-18.166,17.172-18.166
		C1019.318,14.569,1024.029,20.334,1024.029,28.457z M1004.438,26.969h8.742c0-6.139-0.992-9.672-3.967-9.672
		C1006.111,17.297,1004.686,21.141,1004.438,26.969z"/>
	<path d="M1039.715,32.61c0-10.354,7.377-18.041,17.979-18.041s17.98,6.51,17.98,16.863s-7.379,18.041-17.98,18.041
		S1039.715,42.963,1039.715,32.61z M1062.096,34.408c0-10.602-1.178-17.111-4.711-17.111c-3.287,0-4.092,4.588-4.092,12.338
		c0,10.602,1.178,17.111,4.711,17.111C1061.289,46.746,1062.096,42.158,1062.096,34.408z"/>
	<path d="M1094.398,42.84c0,2.727,1.363,2.914,4.834,3.41v2.604h-20.893V46.25c2.295-0.188,3.287-0.373,3.287-2.232V18.723h-4.402
		v-2.789l4.402-1.055v-0.496c0-9.857,7.006-14.072,15.375-14.072c7.129,0,10.291,2.418,10.291,6.385
		c0,1.799-0.992,3.348-2.418,4.029h-6.385c0.186-0.867,0.309-1.922,0.309-3.037c0-2.17-0.186-4.34-2.045-4.34
		c-1.736,0-2.355,1.363-2.355,3.721v8.121h7.066v3.533h-7.066V42.84z"/>
	<path d="M1153.172,28.457v1.549h-19.652c0,6.82,3.844,11.16,9.299,11.16c3.906,0,6.883-1.303,9.238-4.34l1.303,0.805
		c-1.736,7.193-6.635,11.842-14.756,11.842c-9.238,0-16.615-5.889-16.615-16.738c0-11.223,7.998-18.166,17.174-18.166
		C1148.461,14.569,1153.172,20.334,1153.172,28.457z M1133.582,26.969h8.742c0-6.139-0.992-9.672-3.969-9.672
		C1135.256,17.297,1133.83,21.141,1133.582,26.969z"/>
	<path d="M1190.93,17.793c-2.107,0.682-2.541,1.115-3.162,2.48l-13.018,28.766h-3.658l-14.57-28.766
		c-0.682-1.365-1.053-1.799-3.162-2.48V15.19h21.203v2.604c-3.285,0.434-4.029,0.867-4.029,2.17c0,0.559,0.125,0.867,0.496,1.736
		l6.199,13.143l5.643-13.143c0.371-0.869,0.496-1.178,0.496-1.736c0-1.303-0.744-1.736-4.031-2.17V15.19h11.594V17.793z"/>
	<path d="M1220.875,28.457v1.549h-19.652c0,6.82,3.844,11.16,9.299,11.16c3.906,0,6.883-1.303,9.238-4.34l1.303,0.805
		c-1.736,7.193-6.635,11.842-14.756,11.842c-9.238,0-16.615-5.889-16.615-16.738c0-11.223,7.998-18.166,17.174-18.166
		C1216.164,14.569,1220.875,20.334,1220.875,28.457z M1201.285,26.969h8.742c0-6.139-0.992-9.672-3.969-9.672
		C1202.959,17.297,1201.533,21.141,1201.285,26.969z"/>
	<path d="M1247.846,25.852c0-2.293-0.744-3.844-3.844-3.844c-1.736,0-3.162,0.311-4.588,0.807v21.203c0,1.859,0.805,2.045,3.1,2.232
		v2.604h-19.156V46.25c2.293-0.188,3.285-0.373,3.285-2.232V22.319l-3.285-2.107v-1.922l13.824-3.721h2.48l-0.248,6.262
		c2.232-2.914,5.766-6.262,11.594-6.262c6.014,0,9.609,3.348,9.609,10.168v19.281c0,1.859,0.992,2.045,3.285,2.232v2.604h-19.156
		V46.25c2.293-0.188,3.1-0.373,3.1-2.232V25.852z"/>
	<path d="M1281.016,15.19h6.883v3.533h-6.883v20.521c0,2.666,1.055,3.844,3.162,3.844c1.488,0,2.914-0.559,4.34-1.551l0.992,1.551
		c-2.48,4.152-6.139,6.385-11.346,6.385c-5.951,0-10.105-2.975-10.105-10.416V18.723h-3.348V16.43
		c5.27-1.861,10.105-5.518,13.578-9.857h2.727V15.19z"/>
	<path d="M1291.68,46.311l-0.371-8.369h3.162c1.115,4.959,4.463,8.742,9.236,8.742c2.791,0,5.021-1.303,5.021-3.906
		c0-3.037-2.418-3.967-6.385-5.146c-7.191-2.107-11.098-5.207-11.098-11.717c0-7.377,5.58-11.346,13.33-11.346
		c4.277,0,8.244,1.117,10.91,2.852v7.441h-2.914c-0.619-3.906-3.408-7.502-7.688-7.502c-2.479,0-4.215,1.301-4.215,3.533
		c0,2.48,1.797,3.41,5.58,4.65c7.748,2.541,11.902,5.084,11.902,12.213c0,7.502-5.641,11.717-14.32,11.717
		C1298.438,49.473,1294.471,48.233,1291.68,46.311z"/>
</g>
</svg>
