<?xml version="1.0" encoding="utf-8"?>
<!-- Generator: Adobe Illustrator 16.0.0, SVG Export Plug-In . SVG Version: 6.00 Build 0)  -->
<!DOCTYPE svg PUBLIC "-//W3C//DTD SVG 1.1//EN" "http://www.w3.org/Graphics/SVG/1.1/DTD/svg11.dtd">
<svg version="1.1" id="_x35_" xmlns="http://www.w3.org/2000/svg" xmlns:xlink="http://www.w3.org/1999/xlink" x="0px" y="0px"
	 width="1440px" height="62.641px" viewBox="0 0 1440 62.641" enable-background="new 0 0 1440 62.641" xml:space="preserve">
<g>
	<path d="M229.421,42.84c0,2.729,1.364,2.914,4.836,3.41v2.604h-20.893V46.25c2.294-0.188,3.286-0.372,3.286-2.23v-21.7
		l-3.286-2.106V18.29l13.825-3.722h2.48l-0.248,9.674c2.356-7.439,4.65-9.674,8.618-9.674c1.55,0,2.604,0.437,3.286,1.056v9.483
		h-1.612c-3.968,0-7.625,0.124-10.292,1.734V42.84L229.421,42.84z"/>
	<path d="M272.758,42.034c0,1.237,0.124,2.542,1.55,2.542c0.806,0,1.612-0.188,1.922-0.312l0.434,1.858
		c-2.17,1.981-4.897,3.35-8.617,3.35c-3.782,0-6.51-1.859-7.626-5.146c-1.736,2.665-4.587,4.896-9.175,4.896
		c-5.332,0-9.113-2.914-9.113-8.434c0-5.456,3.72-7.688,8.06-9.176l10.043-3.474v-6.817c0-2.479-0.62-4.154-2.666-4.154
		c-2.17,0-2.976,1.922-2.976,4.772c0,1.486,0.248,3.038,0.62,4.59l-7.688,0.989c-1.86-0.619-3.224-2.17-3.224-4.523
		c0-5.892,6.076-8.434,13.826-8.434c9.051,0,14.631,2.666,14.631,11.035L272.758,42.034L272.758,42.034z M260.235,42.468V30.999
		l-2.479,0.932c-1.984,0.742-3.348,1.733-3.348,5.396c0,3.1,1.054,5.456,4.03,5.456C259.119,42.778,259.615,42.655,260.235,42.468z"
		/>
	<path d="M293.157,15.189h6.881v3.534h-6.881v20.521c0,2.666,1.054,3.844,3.162,3.844c1.488,0,2.914-0.558,4.34-1.55l0.992,1.55
		c-2.479,4.153-6.138,6.388-11.345,6.388c-5.952,0-10.105-2.978-10.105-10.416V18.724h-3.348V16.43
		c5.27-1.86,10.105-5.52,13.577-9.855h2.728L293.157,15.189L293.157,15.189z"/>
	<path d="M333.767,28.457v1.55h-19.653c0,6.819,3.844,11.159,9.299,11.159c3.906,0,6.881-1.302,9.237-4.34l1.302,0.806
		c-1.736,7.192-6.634,11.844-14.755,11.844c-9.237,0-16.615-5.892-16.615-16.739c0-11.222,7.998-18.164,17.173-18.164
		C329.055,14.569,333.767,20.335,333.767,28.457z M314.176,26.969h8.741c0-6.138-0.992-9.672-3.968-9.672
		C315.85,17.297,314.424,21.141,314.176,26.969z"/>
	<path d="M347.903,32.61c0-10.354,7.378-18.041,17.979-18.041c10.604,0,17.979,6.512,17.979,16.863
		c0,10.354-7.377,18.041-17.979,18.041C355.281,49.474,347.903,42.964,347.903,32.61z M370.284,34.408
		c0-10.604-1.179-17.111-4.712-17.111c-3.286,0-4.092,4.588-4.092,12.338c0,10.604,1.179,17.111,4.712,17.111
		C369.479,46.746,370.284,42.158,370.284,34.408z"/>
	<path d="M402.586,42.84c0,2.729,1.364,2.914,4.836,3.41v2.604h-20.893V46.25c2.294-0.188,3.286-0.372,3.286-2.23V18.724h-4.402
		v-2.79l4.402-1.056v-0.496c0-9.855,7.005-14.071,15.375-14.071c7.129,0,10.292,2.418,10.292,6.388c0,1.798-0.992,3.348-2.418,4.027
		h-6.389c0.188-0.868,0.312-1.923,0.312-3.038c0-2.17-0.188-4.34-2.046-4.34c-1.736,0-2.356,1.362-2.356,3.721v8.121h7.068v3.534
		h-7.068V42.84L402.586,42.84z"/>
	<path d="M446.171,40.979c3.534,0,6.138-1.113,8.062-3.846l1.485,0.933c-2.046,7.997-7.312,11.407-14.507,11.407
		c-8.803,0-15.685-6.14-15.685-16.432c0-10.603,6.941-18.477,17.48-18.477c6.323,0,11.779,2.354,11.779,8.122
		c0,2.541-1.488,4.094-2.914,4.711h-6.386c0.186-1.485,0.248-2.665,0.248-3.721c0-3.721-0.992-6.139-3.723-6.139
		c-3.472,0-5.456,4.648-5.456,10.852C436.562,36.206,440.034,40.979,446.171,40.979z"/>
	<path d="M460.742,6.882l-3.286-1.674V3.101l13.887-2.79h2.17v20.521c2.232-2.914,5.769-6.264,11.596-6.264
		c6.014,0,9.607,3.35,9.607,10.169v19.279c0,1.858,0.992,2.046,3.286,2.23v2.604h-19.157V46.25c2.293-0.188,3.103-0.372,3.103-2.23
		V25.853c0-2.294-0.744-3.846-3.847-3.846c-1.733,0-3.159,0.312-4.588,0.809v21.202c0,1.858,0.809,2.046,3.103,2.23v2.604h-19.157
		V46.25c2.294-0.188,3.286-0.372,3.286-2.23L460.742,6.882L460.742,6.882z"/>
	<path d="M529.932,42.034c0,1.237,0.124,2.542,1.554,2.542c0.806,0,1.608-0.188,1.922-0.312l0.434,1.858
		c-2.17,1.981-4.896,3.35-8.617,3.35c-3.778,0-6.51-1.859-7.626-5.146c-1.733,2.665-4.587,4.896-9.175,4.896
		c-5.332,0-9.113-2.914-9.113-8.434c0-5.456,3.723-7.688,8.062-9.176l10.043-3.474v-6.817c0-2.479-0.62-4.154-2.666-4.154
		c-2.17,0-2.978,1.922-2.978,4.772c0,1.486,0.248,3.038,0.619,4.59l-7.688,0.989c-1.86-0.619-3.227-2.17-3.227-4.523
		c0-5.892,6.076-8.434,13.826-8.434c9.051,0,14.631,2.666,14.631,11.035L529.932,42.034L529.932,42.034z M517.409,42.468V30.999
		l-2.479,0.932c-1.981,0.742-3.348,1.733-3.348,5.396c0,3.1,1.054,5.456,4.03,5.456C516.293,42.778,516.789,42.655,517.409,42.468z"
		/>
	<path d="M559.568,25.853c0-2.294-0.744-3.846-3.848-3.846c-1.732,0-3.16,0.312-4.588,0.809v21.202c0,1.858,0.81,2.046,3.104,2.23
		v2.604h-19.157V46.25c2.294-0.188,3.286-0.372,3.286-2.23v-21.7l-3.286-2.106V18.29l13.825-3.722h2.479l-0.248,6.264
		c2.232-2.914,5.77-6.264,11.594-6.264c6.017,0,9.609,3.35,9.609,10.169v19.279c0,1.858,0.992,2.046,3.286,2.23v2.604h-19.157V46.25
		c2.293-0.188,3.104-0.372,3.104-2.23L559.568,25.853L559.568,25.853z"/>
	<path d="M585.36,36.206c-0.81,0.744-1.554,1.55-1.554,2.729c0,0.932,0.62,1.674,1.678,1.674h13.821
		c8.932,0,12.399,3.846,12.399,9.549c0,8.12-7.625,12.521-19.281,12.521c-10.167,0-16.491-2.604-16.491-7.503
		c0-3.035,3.104-4.34,5.704-4.587c-2.666-1.055-4.216-3.78-4.216-6.446c0-4.218,2.854-6.884,6.2-8.617
		c-3.475-1.61-6.016-4.4-6.016-8.987c0-7.562,6.512-11.968,15.498-11.968c2.543,0,4.401,0.372,6.017,0.808l11.346-0.247v4.463
		h-2.914l-3.533-0.124c2.296,1.553,3.781,3.906,3.781,7.008c0,6.941-6.634,10.786-15.251,10.786
		C590.196,37.26,587.654,36.95,585.36,36.206z M583.066,52.201c-0.248,0.312-0.312,0.99-0.312,1.674c0,3.598,4.03,5.644,9.857,5.644
		c5.394,0,10.414-1.18,10.414-4.959c0-1.61-0.991-2.354-2.979-2.354L583.066,52.201L583.066,52.201z M596.146,26.163
		c0-4.588-1.057-8.806-3.599-8.806c-2.479,0-3.162,2.914-3.162,8.186c0,4.896,1.116,9.052,3.6,9.052
		C595.527,34.594,596.146,31.742,596.146,26.163z"/>
	<path d="M643.02,28.457v1.55h-19.65c0,6.819,3.844,11.159,9.299,11.159c3.906,0,6.881-1.302,9.237-4.34l1.302,0.806
		c-1.736,7.192-6.634,11.844-14.755,11.844c-9.237,0-16.615-5.892-16.615-16.739c0-11.222,7.998-18.164,17.173-18.164
		C638.307,14.569,643.02,20.335,643.02,28.457z M623.428,26.969h8.741c0-6.138-0.992-9.672-3.968-9.672
		C625.102,17.297,623.675,21.141,623.428,26.969z"/>
	<path d="M657.154,32.61c0-10.354,7.378-18.041,17.979-18.041c10.604,0,17.979,6.512,17.979,16.863
		c0,10.354-7.377,18.041-17.979,18.041C664.532,49.474,657.154,42.964,657.154,32.61z M679.535,34.408
		c0-10.604-1.178-17.111-4.712-17.111c-3.286,0-4.091,4.588-4.091,12.338c0,10.604,1.178,17.111,4.711,17.111
		C678.729,46.746,679.535,42.158,679.535,34.408z"/>
	<path d="M711.837,42.84c0,2.729,1.364,2.914,4.836,3.41v2.604H695.78V46.25c2.294-0.188,3.286-0.372,3.286-2.23V18.724h-4.402
		v-2.79l4.402-1.056v-0.496c0-9.855,7.005-14.071,15.375-14.071c7.128,0,10.292,2.418,10.292,6.388c0,1.798-0.994,3.348-2.421,4.027
		h-6.387c0.188-0.868,0.312-1.923,0.312-3.038c0-2.17-0.188-4.34-2.046-4.34c-1.736,0-2.356,1.362-2.356,3.721v8.121h7.069v3.534
		h-7.069L711.837,42.84L711.837,42.84z"/>
	<path d="M755.421,40.979c3.535,0,6.14-1.113,8.062-3.846l1.487,0.933c-2.047,7.997-7.313,11.407-14.508,11.407
		c-8.803,0-15.684-6.14-15.684-16.432c0-10.603,6.938-18.477,17.479-18.477c6.322,0,11.779,2.354,11.779,8.122
		c0,2.541-1.488,4.094-2.914,4.711h-6.388c0.187-1.485,0.248-2.665,0.248-3.721c0-3.721-0.991-6.139-3.721-6.139
		c-3.471,0-5.455,4.648-5.455,10.852C745.812,36.206,749.285,40.979,755.421,40.979z"/>
	<path d="M766.832,32.61c0-10.354,7.377-18.041,17.979-18.041c10.605,0,17.98,6.512,17.98,16.863
		c0,10.354-7.377,18.041-17.98,18.041C774.208,49.474,766.832,42.964,766.832,32.61z M789.212,34.408
		c0-10.604-1.178-17.111-4.713-17.111c-3.285,0-4.09,4.588-4.09,12.338c0,10.604,1.178,17.111,4.711,17.111
		C788.406,46.746,789.212,42.158,789.212,34.408z"/>
	<path d="M841.539,41.476c0,2.106,0.186,3.161,1.984,3.161h1.426v2.729L831,49.474h-2.418l0.186-6.076
		c-2.104,2.854-5.395,6.076-11.153,6.076c-5.58,0-9.554-3.35-9.554-10.604V24.178c0-1.734-0.434-3.16-2.17-3.721l-0.93-0.312v-2.479
		l13.887-3.102h2.355l-0.371,8.186v15.003c0,2.854,1.115,4.465,3.906,4.465c1.549,0,2.479-0.187,4.029-0.683V24.178
		c0-1.734-0.435-3.16-2.171-3.721l-0.93-0.312v-2.479l13.887-3.102h2.355l-0.371,8.186L841.539,41.476L841.539,41.476z"/>
	<path d="M863.24,42.84c0,2.729,1.363,2.914,4.836,3.41v2.604h-20.894V46.25c2.294-0.188,3.285-0.372,3.285-2.23v-21.7l-3.285-2.106
		V18.29l13.824-3.722h2.48l-0.248,9.674c2.354-7.439,4.645-9.674,8.61-9.674c1.558,0,2.605,0.437,3.285,1.056v9.483h-1.604
		c-3.974,0-7.625,0.124-10.291,1.734L863.24,42.84L863.24,42.84z"/>
	<path d="M877.625,46.312l-0.373-8.369h3.162c1.115,4.959,4.465,8.741,9.238,8.741c2.789,0,5.021-1.304,5.021-3.904
		c0-3.037-2.418-3.969-6.387-5.146c-7.191-2.105-11.103-5.207-11.103-11.717c0-7.378,5.578-11.348,13.328-11.348
		c4.277,0,8.246,1.116,10.912,2.854v7.438h-2.914c-0.621-3.904-3.41-7.502-7.688-7.502c-2.48,0-4.217,1.304-4.217,3.534
		c0,2.479,1.799,3.407,5.58,4.647c7.75,2.542,11.903,5.084,11.903,12.213c0,7.502-5.643,11.72-14.322,11.72
		C884.382,49.474,880.414,48.233,877.625,46.312z"/>
	<path d="M938.382,28.457v1.55H918.73c0,6.819,3.844,11.159,9.299,11.159c3.906,0,6.881-1.302,9.237-4.34l1.302,0.806
		c-1.736,7.192-6.633,11.844-14.754,11.844c-9.238,0-16.615-5.892-16.615-16.739c0-11.222,7.996-18.164,17.172-18.164
		C933.671,14.569,938.382,20.335,938.382,28.457z M918.791,26.969h8.742c0-6.138-0.992-9.672-3.967-9.672
		C920.464,17.297,919.039,21.141,918.791,26.969z"/>
	<path d="M952.52,32.61c0-10.354,7.377-18.041,17.979-18.041s17.979,6.512,17.979,16.863c0,10.354-7.377,18.041-17.979,18.041
		S952.52,42.964,952.52,32.61z M974.9,34.408c0-10.604-1.181-17.111-4.713-17.111c-3.285,0-4.093,4.588-4.093,12.338
		c0,10.604,1.179,17.111,4.714,17.111C974.093,46.746,974.9,42.158,974.9,34.408z"/>
	<path d="M1007.201,42.84c0,2.729,1.363,2.914,4.836,3.41v2.604h-20.893V46.25c2.293-0.188,3.284-0.372,3.284-2.23V18.724h-4.401
		v-2.79l4.401-1.056v-0.496c0-9.855,7.006-14.071,15.375-14.071c7.131,0,10.291,2.418,10.291,6.388c0,1.798-0.989,3.348-2.418,4.027
		h-6.385c0.186-0.868,0.311-1.923,0.311-3.038c0-2.17-0.186-4.34-2.047-4.34c-1.735,0-2.354,1.362-2.354,3.721v8.121h7.067v3.534
		h-7.067V42.84L1007.201,42.84z"/>
	<path d="M1061.884,42.034c0,1.237,0.123,2.542,1.549,2.542c0.808,0,1.611-0.188,1.923-0.312l0.434,1.858
		c-2.17,1.981-4.896,3.35-8.617,3.35c-3.781,0-6.51-1.859-7.625-5.146c-1.736,2.665-4.588,4.896-9.176,4.896
		c-5.332,0-9.113-2.914-9.113-8.434c0-5.456,3.719-7.688,8.062-9.176l10.045-3.474v-6.817c0-2.479-0.621-4.154-2.666-4.154
		c-2.17,0-2.98,1.922-2.98,4.772c0,1.486,0.248,3.038,0.621,4.59l-7.688,0.989c-1.859-0.619-3.226-2.17-3.226-4.523
		c0-5.892,6.076-8.434,13.824-8.434c9.053,0,14.633,2.666,14.633,11.035V42.034L1061.884,42.034z M1049.361,42.468V30.999
		l-2.48,0.932c-1.979,0.742-3.348,1.733-3.348,5.396c0,3.1,1.053,5.456,4.029,5.456C1048.244,42.778,1048.74,42.655,1049.361,42.468
		z"/>
	<path d="M1087.552,40.979c3.533,0,6.138-1.113,8.06-3.846l1.487,0.933c-2.045,7.997-7.315,11.407-14.508,11.407
		c-8.803,0-15.684-6.14-15.684-16.432c0-10.603,6.938-18.477,17.479-18.477c6.324,0,11.779,2.354,11.779,8.122
		c0,2.541-1.488,4.094-2.914,4.711h-6.385c0.186-1.485,0.248-2.665,0.248-3.721c0-3.721-0.992-6.139-3.724-6.139
		c-3.473,0-5.453,4.648-5.453,10.852C1077.943,36.206,1081.414,40.979,1087.552,40.979z"/>
	<path d="M1114.335,15.189h6.883v3.534h-6.883v20.521c0,2.666,1.055,3.844,3.162,3.844c1.488,0,2.914-0.558,4.34-1.55l0.992,1.55
		c-2.48,4.153-6.144,6.388-11.351,6.388c-5.946,0-10.104-2.978-10.104-10.416V18.724h-3.348V16.43
		c5.27-1.86,10.104-5.52,13.575-9.855h2.729v8.614H1114.335z"/>
	<path d="M1140.251,44.018c0,1.858,0.992,2.046,3.287,2.23v2.604h-19.344V46.25c2.295-0.188,3.278-0.372,3.278-2.23v-21.7
		l-3.278-2.106V18.29l13.819-3.722h2.23v29.449L1140.251,44.018L1140.251,44.018z M1127.48,6.137c0-3.284,2.418-6.139,6.571-6.139
		c4.093,0,6.572,2.854,6.572,6.139c0,3.285-2.479,6.139-6.572,6.139C1129.898,12.275,1127.48,9.424,1127.48,6.137z"/>
	<path d="M1145.771,32.61c0-10.354,7.377-18.041,17.979-18.041s17.979,6.512,17.979,16.863c0,10.354-7.377,18.041-17.979,18.041
		S1145.771,42.964,1145.771,32.61z M1168.152,34.408c0-10.604-1.181-17.111-4.713-17.111c-3.285,0-4.093,4.588-4.093,12.338
		c0,10.604,1.179,17.111,4.713,17.111C1167.345,46.746,1168.152,42.158,1168.152,34.408z"/>
	<path d="M1208.822,25.853c0-2.294-0.744-3.846-3.844-3.846c-1.736,0-3.162,0.312-4.589,0.809v21.202
		c0,1.858,0.808,2.046,3.101,2.23v2.604h-19.156V46.25c2.295-0.188,3.285-0.372,3.285-2.23v-21.7l-3.285-2.106V18.29l13.826-3.722
		h2.479l-0.248,6.264c2.232-2.914,5.771-6.264,11.601-6.264c6.014,0,9.604,3.35,9.604,10.169v19.279c0,1.858,0.992,2.046,3.285,2.23
		v2.604h-19.156V46.25c2.296-0.188,3.105-0.372,3.105-2.23V25.853H1208.822z"/>
</g>
</svg>
