<?xml version="1.0" encoding="utf-8"?>
<!-- Generator: Adobe Illustrator 16.0.0, SVG Export Plug-In . SVG Version: 6.00 Build 0)  -->
<!DOCTYPE svg PUBLIC "-//W3C//DTD SVG 1.1//EN" "http://www.w3.org/Graphics/SVG/1.1/DTD/svg11.dtd">
<svg version="1.1" id="Layer_1" xmlns="http://www.w3.org/2000/svg" xmlns:xlink="http://www.w3.org/1999/xlink" x="0px" y="0px"
	 width="1440px" height="62.641px" viewBox="0 0 1440 62.641" enable-background="new 0 0 1440 62.641" xml:space="preserve">
<g id="_x36_">
	<g>
		<path d="M296.402,6.572l-3.286-1.674V2.79L307.003,0h2.17v20.521c2.232-2.914,5.766-6.266,11.594-6.266
			c6.013,0,9.609,3.352,9.609,10.168v19.28c0,1.859,0.992,2.046,3.286,2.231v2.604h-19.157V45.94c2.294-0.188,3.1-0.372,3.1-2.231
			V25.542c0-2.294-0.744-3.845-3.844-3.845c-1.736,0-3.162,0.312-4.588,0.808v21.202c0,1.859,0.806,2.046,3.1,2.231v2.604h-19.157
			V45.94c2.294-0.188,3.286-0.372,3.286-2.231V6.572L296.402,6.572z"/>
		<path d="M366.584,28.147v1.55h-19.653c0,6.819,3.844,11.159,9.299,11.159c3.904,0,6.881-1.303,9.235-4.34l1.304,0.806
			c-1.735,7.192-6.635,11.843-14.754,11.843c-9.237,0-16.615-5.891-16.615-16.739c0-11.222,7.998-18.164,17.173-18.164
			C361.872,14.258,366.584,20.025,366.584,28.147z M346.993,26.658h8.741c0-6.138-0.992-9.672-3.968-9.672
			C348.667,16.987,347.241,20.83,346.993,26.658z"/>
		<path d="M399.442,41.724c0,1.235,0.124,2.542,1.55,2.542c0.806,0,1.609-0.188,1.922-0.312l0.434,1.859
			c-2.17,1.979-4.896,3.349-8.617,3.349c-3.779,0-6.51-1.859-7.625-5.146c-1.734,2.665-4.588,4.896-9.176,4.896
			c-5.332,0-9.11-2.914-9.11-8.433c0-5.456,3.72-7.688,8.06-9.178l10.043-3.474v-6.816c0-2.479-0.62-4.153-2.666-4.153
			c-2.17,0-2.976,1.922-2.976,4.771c0,1.487,0.248,3.038,0.618,4.591l-7.688,0.988c-1.86-0.619-3.224-2.17-3.224-4.521
			c0-5.894,6.072-8.436,13.822-8.436c9.054,0,14.634,2.666,14.634,11.035L399.442,41.724L399.442,41.724z M386.919,42.157V30.689
			l-2.479,0.931c-1.984,0.743-3.351,1.734-3.351,5.396c0,3.1,1.057,5.456,4.03,5.456C385.803,42.467,386.299,42.344,386.919,42.157z
			"/>
		<path d="M423.809,4.898V2.79L437.697,0h2.17v41.165c0,2.107,0.186,3.162,1.981,3.162h1.429v2.729l-13.949,2.104h-2.418
			l0.186-5.891c-2.542,3.968-5.951,5.891-10.104,5.891c-7.191,0-12.523-5.519-12.523-15.935c0-12.274,7.502-18.66,16.739-18.66
			c2.418,0,4.526,0.559,5.89,1.675V6.572L423.809,4.898z M417.361,29.509c0,7.627,2.604,12.714,7.005,12.714
			c0.868,0,1.798-0.124,2.728-0.438V24.18c0-3.782-0.744-5.77-3.72-5.77C419.283,18.413,417.361,22.815,417.361,29.509z"/>
		<path d="M458.714,32.299c0-10.354,7.378-18.041,17.979-18.041c10.601,0,17.979,6.514,17.979,16.863
			c0,10.354-7.377,18.041-17.979,18.041C466.092,49.163,458.714,42.654,458.714,32.299z M481.095,34.098
			c0-10.604-1.178-17.111-4.712-17.111c-3.286,0-4.091,4.588-4.091,12.338c0,10.604,1.178,17.111,4.711,17.111
			C480.289,46.436,481.095,41.848,481.095,34.098z"/>
		<path d="M513.396,42.53c0,2.729,1.362,2.914,4.837,3.41v2.604H497.34V45.94c2.294-0.188,3.286-0.372,3.286-2.231V18.413h-4.402
			v-2.79l4.402-1.055v-0.496C500.626,4.216,507.631,0,516.001,0c7.129,0,10.292,2.418,10.292,6.39c0,1.798-0.992,3.348-2.418,4.025
			h-6.386c0.186-0.868,0.31-1.922,0.31-3.038c0-2.17-0.186-4.34-2.046-4.34c-1.735,0-2.354,1.363-2.354,3.721v8.121h7.065v3.534
			h-7.065V42.53H513.396z"/>
		<path d="M537.268,46.001l-0.371-8.369h3.161c1.116,4.959,4.464,8.741,9.237,8.741c2.79,0,5.021-1.303,5.021-3.904
			c0-3.035-2.417-3.969-6.388-5.146c-7.189-2.106-11.098-5.207-11.098-11.717c0-7.378,5.58-11.35,13.329-11.35
			c4.277,0,8.246,1.116,10.912,2.854v7.438h-2.914c-0.62-3.902-3.41-7.502-7.688-7.502c-2.479,0-4.216,1.306-4.216,3.534
			c0,2.479,1.798,3.408,5.58,4.648c7.75,2.542,11.903,5.084,11.903,12.213c0,7.502-5.645,11.719-14.321,11.719
			C544.025,49.163,540.058,47.922,537.268,46.001z"/>
		<path d="M581.907,14.878h6.881v3.534h-6.881v20.521c0,2.666,1.054,3.844,3.162,3.844c1.485,0,2.913-0.559,4.34-1.55l0.992,1.55
			c-2.479,4.153-6.141,6.387-11.348,6.387c-5.95,0-10.104-2.977-10.104-10.416V18.413h-3.349v-2.294
			c5.271-1.86,10.104-5.519,13.575-9.854h2.729L581.907,14.878L581.907,14.878z"/>
		<path d="M622.143,41.724c0,1.235,0.125,2.542,1.555,2.542c0.806,0,1.607-0.188,1.922-0.312l0.434,1.859
			c-2.17,1.979-4.896,3.349-8.615,3.349c-3.779,0-6.512-1.859-7.627-5.146c-1.732,2.665-4.588,4.896-9.176,4.896
			c-5.332,0-9.111-2.914-9.111-8.433c0-5.456,3.721-7.688,8.061-9.178l10.043-3.474v-6.816c0-2.479-0.62-4.153-2.666-4.153
			c-2.17,0-2.979,1.922-2.979,4.771c0,1.487,0.248,3.038,0.619,4.591l-7.688,0.988c-1.86-0.619-3.226-2.17-3.226-4.521
			c0-5.894,6.075-8.436,13.825-8.436c9.056,0,14.632,2.666,14.632,11.035L622.143,41.724L622.143,41.724z M609.62,42.157V30.689
			l-2.479,0.931c-1.979,0.743-3.348,1.734-3.348,5.396c0,3.1,1.054,5.456,4.03,5.456C608.504,42.467,609,42.344,609.62,42.157z"/>
		<path d="M642.542,14.878h6.881v3.534h-6.881v20.521c0,2.666,1.053,3.844,3.162,3.844c1.487,0,2.914-0.559,4.34-1.55l0.992,1.55
			c-2.48,4.153-6.14,6.387-11.345,6.387c-5.952,0-10.105-2.977-10.105-10.416V18.413h-3.348v-2.294
			c5.27-1.86,10.104-5.519,13.577-9.854h2.727V14.878L642.542,14.878z"/>
		<path d="M683.152,28.147v1.55h-19.654c0,6.819,3.844,11.159,9.299,11.159c3.906,0,6.881-1.303,9.238-4.34l1.301,0.806
			c-1.736,7.192-6.633,11.843-14.754,11.843c-9.238,0-16.615-5.891-16.615-16.739c0-11.222,7.998-18.164,17.172-18.164
			C678.439,14.258,683.152,20.025,683.152,28.147z M663.561,26.658h8.741c0-6.138-0.991-9.672-3.969-9.672
			C665.234,16.987,663.808,20.83,663.561,26.658z"/>
		<path d="M697.287,32.299c0-10.354,7.379-18.041,17.979-18.041c10.605,0,17.98,6.514,17.98,16.863
			c0,10.354-7.377,18.041-17.98,18.041C704.666,49.163,697.287,42.654,697.287,32.299z M719.667,34.098
			c0-10.604-1.178-17.111-4.711-17.111c-3.287,0-4.092,4.588-4.092,12.338c0,10.604,1.178,17.111,4.711,17.111
			C718.863,46.436,719.667,41.848,719.667,34.098z"/>
		<path d="M751.97,42.53c0,2.729,1.363,2.914,4.836,3.41v2.604h-20.893V45.94c2.293-0.188,3.285-0.372,3.285-2.231V18.413h-4.402
			v-2.79l4.402-1.055v-0.496C739.199,4.216,746.205,0,754.574,0c7.129,0,10.293,2.418,10.293,6.39c0,1.798-0.992,3.348-2.418,4.025
			h-6.392c0.189-0.868,0.312-1.922,0.312-3.038c0-2.17-0.189-4.34-2.047-4.34c-1.736,0-2.355,1.363-2.355,3.721v8.121h7.068v3.534
			h-7.068V42.53H751.97z"/>
		<path d="M784.458,35.896c-0.807,0.744-1.551,1.55-1.551,2.729c0,0.934,0.621,1.674,1.674,1.674h13.826
			c8.928,0,12.395,3.848,12.395,9.551c0,8.118-7.625,12.521-19.276,12.521c-10.166,0-16.49-2.604-16.49-7.503
			c0-3.036,3.1-4.34,5.703-4.587c-2.666-1.055-4.217-3.781-4.217-6.447c0-4.217,2.854-6.883,6.196-8.617
			c-3.471-1.608-6.014-4.398-6.014-8.985c0-7.562,6.51-11.97,15.5-11.97c2.541,0,4.402,0.372,6.014,0.81l11.351-0.247v4.463h-2.914
			l-3.535-0.124c2.295,1.552,3.783,3.906,3.783,7.007c0,6.942-6.639,10.786-15.252,10.786
			C789.294,36.949,786.751,36.64,784.458,35.896z M782.164,51.891c-0.248,0.312-0.311,0.988-0.311,1.674
			c0,3.597,4.028,5.643,9.856,5.643c5.396,0,10.414-1.179,10.414-4.959c0-1.608-0.992-2.354-2.975-2.354L782.164,51.891
			L782.164,51.891z M795.246,25.853c0-4.588-1.053-8.808-3.596-8.808c-2.48,0-3.162,2.914-3.162,8.188
			c0,4.896,1.115,9.052,3.596,9.052C794.625,34.283,795.246,31.432,795.246,25.853z"/>
		<path d="M828.042,42.53c0,2.729,1.365,2.914,4.836,3.41v2.604h-20.893V45.94c2.295-0.188,3.282-0.372,3.282-2.231v-21.7
			l-3.282-2.104V17.98l13.819-3.724h2.48l-0.248,9.676c2.354-7.439,4.65-9.676,8.617-9.676c1.551,0,2.604,0.438,3.287,1.058v9.481
			h-1.613c-3.967,0-7.625,0.124-10.291,1.735V42.53H828.042z"/>
		<path d="M871.38,41.724c0,1.235,0.125,2.542,1.551,2.542c0.808,0,1.611-0.188,1.923-0.312l0.436,1.859
			c-2.17,1.979-4.898,3.349-8.617,3.349c-3.783,0-6.51-1.859-7.627-5.146c-1.736,2.665-4.586,4.896-9.174,4.896
			c-5.332,0-9.113-2.914-9.113-8.433c0-5.456,3.719-7.688,8.062-9.178l10.043-3.474v-6.816c0-2.479-0.619-4.153-2.666-4.153
			c-2.17,0-2.979,1.922-2.979,4.771c0,1.487,0.248,3.038,0.619,4.591l-7.688,0.988c-1.859-0.619-3.228-2.17-3.228-4.521
			c0-5.894,6.074-8.436,13.824-8.436c9.051,0,14.631,2.666,14.631,11.035v16.438H871.38z M858.857,42.157V30.689l-2.479,0.931
			c-1.983,0.743-3.348,1.734-3.348,5.396c0,3.1,1.053,5.456,4.022,5.456C857.742,42.467,858.238,42.344,858.857,42.157z"/>
		<path d="M897.048,40.668c3.535,0,6.14-1.111,8.062-3.845l1.481,0.932c-2.047,7.997-7.312,11.407-14.508,11.407
			c-8.803,0-15.686-6.139-15.686-16.431c0-10.604,6.942-18.479,17.481-18.479c6.324,0,11.777,2.355,11.777,8.122
			c0,2.541-1.486,4.095-2.912,4.711h-6.385c0.186-1.483,0.247-2.665,0.247-3.72c0-3.721-0.991-6.139-3.727-6.139
			c-3.471,0-5.455,4.646-5.455,10.851C887.439,35.896,890.912,40.668,897.048,40.668z"/>
		<path d="M939.643,28.147v1.55H919.99c0,6.819,3.844,11.159,9.299,11.159c3.906,0,6.881-1.303,9.238-4.34l1.301,0.806
			c-1.736,7.192-6.633,11.843-14.754,11.843c-9.238,0-16.615-5.891-16.615-16.739c0-11.222,7.996-18.164,17.172-18.164
			C934.931,14.258,939.643,20.025,939.643,28.147z M920.05,26.658h8.742c0-6.138-0.992-9.672-3.967-9.672
			C921.724,16.987,920.298,20.83,920.05,26.658z"/>
		<path d="M953.779,32.299c0-10.354,7.377-18.041,17.979-18.041c10.605,0,17.98,6.514,17.98,16.863
			c0,10.354-7.377,18.041-17.98,18.041C961.156,49.162,953.779,42.654,953.779,32.299z M976.16,34.098
			c0-10.604-1.18-17.111-4.713-17.111c-3.285,0-4.092,4.588-4.092,12.338c0,10.604,1.178,17.111,4.713,17.111
			C975.354,46.436,976.16,41.848,976.16,34.098z"/>
		<path d="M1008.46,42.53c0,2.729,1.363,2.914,4.836,3.41v2.604h-20.893V45.94c2.293-0.188,3.276-0.372,3.276-2.231V18.413h-4.395
			v-2.79l4.395-1.055v-0.496C995.681,4.216,1002.695,0,1011.056,0c7.14,0,10.291,2.418,10.291,6.39c0,1.798-0.981,3.348-2.418,4.025
			h-6.385c0.189-0.868,0.312-1.922,0.312-3.038c0-2.17-0.188-4.34-2.049-4.34c-1.733,0-2.354,1.363-2.354,3.721v8.121h7.066v3.534
			h-7.066V42.53H1008.46z"/>
		<path d="M1040.949,35.896c-0.808,0.744-1.551,1.55-1.551,2.729c0,0.934,0.62,1.674,1.674,1.674h13.826
			c8.928,0,12.397,3.848,12.397,9.551c0,8.118-7.625,12.521-19.281,12.521c-10.166,0-16.489-2.604-16.489-7.503
			c0-3.036,3.1-4.34,5.703-4.587c-2.666-1.055-4.216-3.781-4.216-6.447c0-4.217,2.853-6.883,6.199-8.617
			c-3.473-1.608-6.014-4.398-6.014-8.985c0-7.562,6.51-11.97,15.5-11.97c2.541,0,4.395,0.372,6.014,0.81l11.344-0.247v4.463h-2.912
			l-3.534-0.124c2.295,1.552,3.782,3.906,3.782,7.007c0,6.942-6.635,10.786-15.252,10.786
			C1045.785,36.949,1043.242,36.64,1040.949,35.896z M1038.654,51.891c-0.248,0.312-0.31,0.988-0.31,1.674
			c0,3.597,4.029,5.643,9.857,5.643c5.393,0,10.414-1.179,10.414-4.959c0-1.608-0.992-2.354-2.98-2.354L1038.654,51.891
			L1038.654,51.891z M1051.736,25.853c0-4.588-1.056-8.808-3.597-8.808c-2.479,0-3.161,2.914-3.161,8.188
			c0,4.896,1.114,9.052,3.596,9.052C1051.117,34.283,1051.736,31.432,1051.736,25.853z"/>
		<path d="M1067.423,32.299c0-10.354,7.377-18.041,17.979-18.041c10.602,0,17.979,6.514,17.979,16.863
			c0,10.354-7.379,18.041-17.979,18.041C1074.801,49.162,1067.423,42.654,1067.423,32.299z M1089.804,34.098
			c0-10.604-1.178-17.111-4.711-17.111c-3.287,0-4.092,4.588-4.092,12.338c0,10.604,1.178,17.111,4.711,17.111
			C1088.998,46.436,1089.804,41.848,1089.804,34.098z"/>
		<path d="M1125.826,4.898V2.79L1139.712,0h2.17v41.165c0,2.107,0.189,3.162,1.984,3.162h1.426v2.729l-13.949,2.104h-2.418
			l0.189-5.891c-2.541,3.968-5.951,5.891-10.105,5.891c-7.188,0-12.52-5.519-12.52-15.935c0-12.274,7.502-18.66,16.738-18.66
			c2.418,0,4.522,0.559,5.891,1.675V6.572L1125.826,4.898z M1119.376,29.509c0,7.627,2.604,12.714,7.006,12.714
			c0.869,0,1.799-0.124,2.729-0.438V24.18c0-3.782-0.744-5.77-3.722-5.77C1121.298,18.413,1119.376,22.815,1119.376,29.509z"/>
	</g>
</g>
</svg>
