<?xml version="1.0" encoding="utf-8"?>
<!-- Generator: Adobe Illustrator 16.0.0, SVG Export Plug-In . SVG Version: 6.00 Build 0)  -->
<!DOCTYPE svg PUBLIC "-//W3C//DTD SVG 1.1//EN" "http://www.w3.org/Graphics/SVG/1.1/DTD/svg11.dtd">
<svg version="1.1" id="_x31_3" xmlns="http://www.w3.org/2000/svg" xmlns:xlink="http://www.w3.org/1999/xlink" x="0px" y="0px"
	 width="1440px" height="62.641px" viewBox="0 0 1440 62.641" enable-background="new 0 0 1440 62.641" xml:space="preserve">
<g>
	<path d="M273.464,32.609c0-10.354,7.378-18.041,17.979-18.041c10.602,0,17.979,6.51,17.979,16.863s-7.377,18.041-17.979,18.041
		C280.842,49.473,273.464,42.962,273.464,32.609z M295.845,34.408c0-10.602-1.178-17.111-4.712-17.111
		c-3.286,0-4.091,4.588-4.091,12.338c0,10.604,1.178,17.111,4.711,17.111C295.039,46.746,295.845,42.158,295.845,34.408z"/>
	<path d="M348.171,41.475c0,2.107,0.186,3.16,1.984,3.16h1.426v2.73l-13.949,2.106h-2.418l0.186-6.076
		c-2.108,2.854-5.394,6.076-11.16,6.076c-5.58,0-9.547-3.35-9.547-10.604V24.177c0-1.733-0.434-3.159-2.17-3.719l-0.93-0.311v-2.48
		l13.887-3.1h2.356l-0.372,8.184v15.003c0,2.854,1.116,4.463,3.906,4.463c1.55,0,2.479-0.186,4.03-0.682V24.177
		c0-1.733-0.434-3.159-2.17-3.719l-0.93-0.311v-2.48l13.887-3.1h2.356l-0.372,8.184V41.475L348.171,41.475z"/>
	<path d="M369.066,15.189h6.881v3.533h-6.881v20.521c0,2.666,1.054,3.844,3.162,3.844c1.486,0,2.912-0.56,4.34-1.551l0.99,1.551
		c-2.479,4.152-6.138,6.386-11.345,6.386c-5.952,0-10.104-2.976-10.104-10.416V18.723h-3.35V16.43
		c5.271-1.861,10.105-5.519,13.577-9.857h2.729L369.066,15.189L369.066,15.189z"/>
	<path d="M390.581,32.609c0-10.354,7.378-18.041,17.979-18.041c10.604,0,17.979,6.51,17.979,16.863s-7.377,18.041-17.979,18.041
		C397.958,49.473,390.581,42.962,390.581,32.609z M412.961,34.408c0-10.602-1.178-17.111-4.712-17.111
		c-3.286,0-4.091,4.588-4.091,12.338c0,10.604,1.178,17.111,4.711,17.111C412.155,46.746,412.961,42.158,412.961,34.408z"/>
	<path d="M445.263,42.839c0,2.729,1.364,2.914,4.836,3.41v2.604h-20.893V46.25c2.294-0.188,3.286-0.373,3.286-2.23V18.723h-4.402
		v-2.789l4.402-1.056v-0.496c0-9.856,7.005-14.071,15.375-14.071c7.129,0,10.292,2.418,10.292,6.385
		c0,1.799-0.992,3.348-2.418,4.029h-6.386c0.186-0.867,0.31-1.923,0.31-3.037c0-2.17-0.187-4.34-2.046-4.34
		c-1.736,0-2.356,1.362-2.356,3.721v8.121h7.068v3.533h-7.068V42.839L445.263,42.839z"/>
	<path d="M475.83,22.318l-3.286-2.107v-1.922l13.825-3.721h2.479l-0.248,6.139c1.612-2.729,5.022-6.139,10.416-6.139
		c7.192,0,12.585,4.897,12.585,15.313c0,13.019-7.874,19.591-17.979,19.591c-2.232,0-4.092-0.371-5.022-1.054v8.431
		c0,2.17,1.116,2.231,4.588,2.543v2.604h-20.645v-2.604c2.293-0.187,3.286-0.373,3.286-2.232L475.83,22.318L475.83,22.318z
		 M498.582,33.539c0-8.432-2.977-11.531-7.129-11.531c-0.992,0-1.86,0.125-2.854,0.56v17.546c0,3.657,0.744,6.198,3.782,6.198
		C496.536,46.311,498.582,40.732,498.582,33.539z"/>
	<path d="M530.016,44.018c0,1.857,0.992,2.045,3.286,2.23v2.604h-19.343V46.25c2.294-0.188,3.286-0.373,3.286-2.23V6.881
		l-3.286-1.674V3.1l13.887-2.789h2.17V44.018z"/>
	<path d="M565.727,42.033c0,1.24,0.125,2.543,1.552,2.543c0.806,0,1.61-0.188,1.922-0.311l0.434,1.858
		c-2.17,1.983-4.896,3.349-8.616,3.349c-3.781,0-6.511-1.859-7.627-5.146c-1.734,2.664-4.587,4.896-9.175,4.896
		c-5.332,0-9.112-2.914-9.112-8.434c0-5.455,3.721-7.688,8.061-9.175l10.043-3.471v-6.82c0-2.479-0.62-4.154-2.666-4.154
		c-2.17,0-2.977,1.922-2.977,4.775c0,1.486,0.248,3.037,0.619,4.588l-7.688,0.99c-1.86-0.619-3.224-2.17-3.224-4.525
		c0-5.889,6.074-8.432,13.824-8.432c9.053,0,14.632,2.666,14.632,11.035v16.432H565.727z M553.204,42.466V30.998l-2.479,0.929
		c-1.982,0.744-3.348,1.736-3.348,5.396c0,3.1,1.054,5.454,4.03,5.454C552.088,42.777,552.584,42.654,553.204,42.466z"/>
	<path d="M591.396,40.979c3.532,0,6.138-1.114,8.06-3.846l1.488,0.934c-2.046,7.996-7.315,11.406-14.507,11.406
		c-8.805,0-15.687-6.139-15.687-16.432c0-10.6,6.944-18.475,17.481-18.475c6.323,0,11.779,2.356,11.779,8.123
		c0,2.541-1.488,4.092-2.914,4.711h-6.386c0.187-1.488,0.248-2.666,0.248-3.721c0-3.72-0.992-6.138-3.72-6.138
		c-3.474,0-5.456,4.65-5.456,10.851C581.786,36.205,585.258,40.979,591.396,40.979z"/>
	<path d="M633.989,28.457v1.549h-19.653c0,6.82,3.844,11.16,9.299,11.16c3.906,0,6.881-1.303,9.237-4.34l1.302,0.805
		c-1.736,7.193-6.634,11.844-14.755,11.844c-9.237,0-16.615-5.891-16.615-16.738c0-11.224,7.998-18.166,17.173-18.166
		C629.277,14.568,633.989,20.334,633.989,28.457z M614.398,26.969h8.739c0-6.139-0.991-9.672-3.968-9.672
		C616.072,17.297,614.646,21.141,614.398,26.969z"/>
	<path d="M648.125,32.609c0-10.354,7.378-18.041,17.979-18.041c10.604,0,17.979,6.51,17.979,16.863s-7.378,18.041-17.979,18.041
		C655.503,49.473,648.125,42.962,648.125,32.609z M670.505,34.408c0-10.602-1.178-17.111-4.711-17.111
		c-3.286,0-4.092,4.588-4.092,12.338c0,10.604,1.178,17.111,4.711,17.111C669.701,46.746,670.505,42.158,670.505,34.408z"/>
	<path d="M702.808,42.839c0,2.729,1.363,2.914,4.837,3.41v2.604H686.75V46.25c2.294-0.188,3.286-0.373,3.286-2.23V18.723h-4.402
		v-2.789l4.402-1.056v-0.496c0-9.856,7.006-14.071,15.375-14.071c7.129,0,10.291,2.418,10.291,6.385
		c0,1.799-0.992,3.348-2.418,4.029H706.9c0.186-0.867,0.31-1.923,0.31-3.037c0-2.17-0.187-4.34-2.046-4.34
		c-1.736,0-2.355,1.362-2.355,3.721v8.121h7.067v3.533h-7.067L702.808,42.839L702.808,42.839z"/>
	<path d="M729.158,5.207V3.1l13.889-2.789h2.17v20.396c1.611-2.729,5.021-6.139,10.414-6.139c7.191,0,12.586,4.897,12.586,15.313
		c0,13.019-8.369,19.591-19.156,19.591c-5.766,0-12.397-0.992-16.614-4.216V6.881L729.158,5.207z M755.197,33.539
		c0-8.432-2.978-11.531-7.129-11.531c-0.992,0-1.861,0.125-2.854,0.56v17.546c0,3.657,0.744,6.198,3.783,6.198
		C753.152,46.311,755.197,40.732,755.197,33.539z"/>
	<path d="M786.878,44.018c0,1.857,0.992,2.045,3.287,2.23v2.604h-19.344V46.25c2.293-0.188,3.284-0.373,3.284-2.23v-21.7
		l-3.284-2.107V18.29l13.823-3.721h2.23v29.45L786.878,44.018L786.878,44.018z M774.107,6.136c0-3.284,2.418-6.137,6.571-6.137
		c4.093,0,6.572,2.853,6.572,6.137c0,3.287-2.479,6.14-6.572,6.14C776.525,12.275,774.107,9.424,774.107,6.136z"/>
	<path d="M808.578,42.839c0,2.729,1.365,2.914,4.836,3.41v2.604h-20.893V46.25c2.293-0.188,3.284-0.373,3.284-2.23v-21.7
		l-3.284-2.107V18.29l13.823-3.721h2.48l-0.248,9.672c2.354-7.439,4.647-9.672,8.617-9.672c1.551,0,2.604,0.436,3.284,1.055v9.484
		h-1.61c-3.968,0-7.625,0.125-10.291,1.735L808.578,42.839L808.578,42.839z"/>
	<path d="M837.408,15.189h6.883v3.533h-6.883v20.521c0,2.666,1.055,3.844,3.162,3.844c1.487,0,2.914-0.56,4.34-1.551l0.992,1.551
		c-2.48,4.152-6.14,6.386-11.347,6.386c-5.95,0-10.104-2.976-10.104-10.416V18.723h-3.348V16.43
		c5.27-1.861,10.104-5.519,13.575-9.857h2.729V15.189L837.408,15.189z"/>
	<path d="M850.304,6.881l-3.284-1.674V3.1l13.887-2.789h2.17v20.52c2.232-2.914,5.766-6.262,11.594-6.262
		c6.014,0,9.609,3.348,9.609,10.168v19.281c0,1.857,0.992,2.045,3.285,2.23v2.604h-19.156V46.25c2.293-0.188,3.1-0.373,3.1-2.23
		V25.852c0-2.293-0.744-3.845-3.844-3.845c-1.736,0-3.162,0.312-4.588,0.808v21.203c0,1.857,0.807,2.045,3.1,2.23v2.604H847.02
		V46.25c2.293-0.188,3.285-0.373,3.285-2.23L850.304,6.881L850.304,6.881z"/>
	<path d="M901.082,32.609c0-10.354,7.377-18.041,17.979-18.041c10.604,0,17.98,6.51,17.98,16.863s-7.379,18.041-17.98,18.041
		C908.46,49.472,901.082,42.962,901.082,32.609z M923.462,34.408c0-10.602-1.178-17.111-4.711-17.111
		c-3.287,0-4.092,4.588-4.092,12.338c0,10.604,1.178,17.111,4.711,17.111C922.656,46.746,923.462,42.158,923.462,34.408z"/>
	<path d="M955.765,42.839c0,2.729,1.363,2.914,4.837,3.41v2.604h-20.894V46.25c2.293-0.188,3.285-0.373,3.285-2.23V18.723h-4.402
		v-2.789l4.402-1.056v-0.496c0-9.856,7.006-14.071,15.375-14.071c7.131,0,10.291,2.418,10.291,6.385c0,1.799-0.99,3.348-2.418,4.029
		h-6.388c0.188-0.867,0.312-1.923,0.312-3.037c0-2.17-0.188-4.34-2.047-4.34c-1.736,0-2.355,1.362-2.355,3.721v8.121h7.068v3.533
		h-7.068L955.765,42.839L955.765,42.839z"/>
	<path d="M1016.896,17.793c-2.109,0.683-2.543,1.115-3.162,2.48l-13.021,28.766h-3.658l-14.567-28.766
		c-0.683-1.365-1.056-1.799-3.162-2.48v-2.604h21.203v2.604c-3.287,0.435-4.029,0.867-4.029,2.17c0,0.56,0.123,0.867,0.494,1.736
		l6.201,13.142l5.641-13.142c0.373-0.869,0.496-1.178,0.496-1.736c0-1.303-0.744-1.735-4.029-2.17v-2.604h11.594V17.793
		L1016.896,17.793z"/>
	<path d="M1046.841,28.457v1.549h-19.651c0,6.82,3.844,11.16,9.299,11.16c3.906,0,6.881-1.303,9.238-4.34l1.301,0.805
		c-1.736,7.193-6.633,11.844-14.754,11.844c-9.238,0-16.615-5.891-16.615-16.738c0-11.224,7.996-18.166,17.172-18.166
		C1042.13,14.568,1046.841,20.334,1046.841,28.457z M1027.25,26.969h8.742c0-6.139-0.992-9.672-3.967-9.672
		C1028.923,17.297,1027.498,21.141,1027.25,26.969z"/>
	<path d="M1073.811,25.852c0-2.293-0.744-3.845-3.845-3.845c-1.735,0-3.162,0.312-4.588,0.808v21.203
		c0,1.857,0.808,2.045,3.101,2.23v2.604h-19.156V46.25c2.295-0.188,3.285-0.373,3.285-2.23v-21.7l-3.285-2.107V18.29l13.826-3.721
		h2.479l-0.248,6.262c2.232-2.914,5.766-6.262,11.594-6.262c6.017,0,9.609,3.348,9.609,10.168v19.281
		c0,1.858,0.992,2.045,3.285,2.231v2.604h-19.156V46.25c2.295-0.188,3.1-0.373,3.1-2.23V25.852L1073.811,25.852z"/>
	<path d="M1127.564,41.475c0,2.107,0.186,3.16,1.983,3.16h1.426v2.73l-13.948,2.106h-2.418l0.186-6.076
		c-2.107,2.854-5.393,6.076-11.158,6.076c-5.58,0-9.549-3.35-9.549-10.604V24.177c0-1.733-0.434-3.159-2.17-3.719l-0.93-0.311v-2.48
		l13.887-3.1h2.357l-0.373,8.184v15.003c0,2.854,1.116,4.463,3.905,4.463c1.55,0,2.48-0.186,4.029-0.682V24.177
		c0-1.733-0.434-3.159-2.17-3.719l-0.93-0.311v-2.48l13.887-3.1h2.354l-0.373,8.184v18.724H1127.564z"/>
	<path d="M1134.013,46.311l-0.373-8.369h3.162c1.115,4.959,4.465,8.742,9.238,8.742c2.789,0,5.02-1.305,5.02-3.906
		c0-3.036-2.418-3.967-6.387-5.146c-7.19-2.106-11.096-5.207-11.096-11.717c0-7.377,5.578-11.346,13.328-11.346
		c4.276,0,8.246,1.117,10.912,2.852v7.441h-2.914c-0.621-3.906-3.41-7.502-7.688-7.502c-2.479,0-4.217,1.301-4.217,3.533
		c0,2.479,1.799,3.409,5.58,4.649c7.75,2.541,11.904,5.084,11.904,12.212c0,7.502-5.646,11.719-14.322,11.719
		C1140.771,49.473,1136.802,48.232,1134.013,46.311z"/>
</g>
</svg>
