<?xml version="1.0" encoding="utf-8"?>
<!-- Generator: Adobe Illustrator 16.0.0, SVG Export Plug-In . SVG Version: 6.00 Build 0)  -->
<!DOCTYPE svg PUBLIC "-//W3C//DTD SVG 1.1//EN" "http://www.w3.org/Graphics/SVG/1.1/DTD/svg11.dtd">
<svg version="1.1" id="Layer_1" xmlns="http://www.w3.org/2000/svg" xmlns:xlink="http://www.w3.org/1999/xlink" x="0px" y="0px"
	 width="1440px" height="62.68px" viewBox="0 0 1440 62.68" enable-background="new 0 0 1440 62.68" xml:space="preserve">
<g id="_x38_">
	<g>
		<path d="M178.885,40.668c3.534,0,6.138-1.112,8.06-3.845l1.488,0.932c-2.046,7.997-7.315,11.407-14.507,11.407
			c-8.803,0-15.685-6.14-15.685-16.432c0-10.604,6.944-18.478,17.483-18.478c6.323,0,11.779,2.354,11.779,8.122
			c0,2.541-1.488,4.095-2.914,4.711h-6.386c0.186-1.484,0.248-2.665,0.248-3.72c0-3.722-0.992-6.14-3.72-6.14
			c-3.472,0-5.456,4.647-5.456,10.852C169.275,35.896,172.747,40.668,178.885,40.668z"/>
		<path d="M190.293,32.299c0-10.354,7.378-18.041,17.979-18.041c10.602,0,17.979,6.513,17.979,16.863
			c0,10.354-7.377,18.041-17.979,18.041C197.671,49.163,190.293,42.655,190.293,32.299z M212.674,34.098
			c0-10.604-1.178-17.11-4.712-17.11c-3.286,0-4.091,4.588-4.091,12.338c0,10.604,1.178,17.11,4.711,17.11
			C211.868,46.436,212.674,41.848,212.674,34.098z"/>
		<path d="M253.346,25.542c0-2.294-0.744-3.845-3.844-3.845c-1.736,0-3.162,0.312-4.588,0.808v21.202c0,1.858,0.806,2.046,3.1,2.23
			v2.604h-19.157V45.94c2.294-0.188,3.286-0.372,3.286-2.23v-21.7l-3.286-2.104V17.98l13.825-3.723h2.48l-0.248,6.265
			c2.232-2.914,5.766-6.265,11.593-6.265c6.014,0,9.61,3.351,9.61,10.168v19.28c0,1.858,0.992,2.046,3.286,2.23v2.604h-19.157V45.94
			c2.293-0.188,3.1-0.372,3.1-2.23V25.542L253.346,25.542z"/>
		<path d="M286.516,14.878h6.881v3.534h-6.881v20.521c0,2.666,1.054,3.844,3.162,3.844c1.488,0,2.914-0.558,4.34-1.55l0.992,1.55
			c-2.479,4.153-6.138,6.388-11.345,6.388c-5.952,0-10.105-2.978-10.105-10.416V18.413h-3.348v-2.294
			c5.27-1.86,10.105-5.52,13.577-9.854h2.728L286.516,14.878L286.516,14.878z"/>
		<path d="M327.125,28.147v1.551h-19.653c0,6.818,3.844,11.158,9.299,11.158c3.906,0,6.881-1.302,9.237-4.34l1.302,0.807
			c-1.736,7.191-6.634,11.843-14.755,11.843c-9.237,0-16.615-5.892-16.615-16.739c0-11.222,7.998-18.164,17.173-18.164
			C322.413,14.258,327.125,20.025,327.125,28.147z M307.534,26.658h8.741c0-6.139-0.992-9.673-3.968-9.673
			C309.208,16.988,307.782,20.83,307.534,26.658z"/>
		<path d="M373.561,25.357c0-2.294-0.741-3.72-3.348-3.72c-1.612,0-2.852,0.435-4.216,0.93v21.143c0,1.858,0.558,2.046,2.852,2.23
			v2.604h-18.475V45.94c2.294-0.188,2.852-0.372,2.852-2.23V25.357c0-2.294-0.742-3.72-3.348-3.72c-1.612,0-2.852,0.369-4.216,0.865
			v21.202c0,1.858,0.558,2.046,2.852,2.23v2.604h-18.909v-2.601c2.294-0.188,3.286-0.372,3.286-2.23v-21.7l-3.286-2.105V17.98
			l13.825-3.723h2.48l-0.248,6.389c2.17-3.41,5.642-6.389,11.284-6.389c4.835,0,7.998,1.86,8.803,6.513
			c2.108-3.351,5.952-6.513,11.407-6.513c5.766,0,9.176,3.286,9.176,9.732v19.716c0,1.858,0.992,2.046,3.286,2.23v2.604h-18.909
			V45.94c2.293-0.188,2.852-0.372,2.852-2.23V25.357L373.561,25.357z"/>
		<path d="M394.333,22.008l-3.286-2.105V17.98l13.825-3.723h2.479l-0.247,6.141c1.611-2.729,5.021-6.141,10.416-6.141
			c7.191,0,12.587,4.896,12.587,15.312c0,13.021-7.874,19.593-17.979,19.593c-2.23,0-4.092-0.372-5.021-1.056v8.433
			c0,2.17,1.113,2.23,4.588,2.542v2.604h-20.646V59.08c2.293-0.188,3.286-0.372,3.286-2.229L394.333,22.008L394.333,22.008z
			 M417.085,33.23c0-8.435-2.976-11.53-7.129-11.53c-0.992,0-1.86,0.124-2.853,0.56v17.548c0,3.654,0.742,6.196,3.78,6.196
			C415.039,46.001,417.085,40.421,417.085,33.23z"/>
		<path d="M448.271,14.878h6.881v3.534h-6.881v20.521c0,2.666,1.054,3.844,3.159,3.844c1.488,0,2.914-0.558,4.343-1.55l0.989,1.55
			c-2.479,4.153-6.138,6.388-11.345,6.388c-5.952,0-10.104-2.978-10.104-10.416V18.413h-3.351v-2.294
			c5.271-1.86,10.105-5.52,13.577-9.854h2.729v8.613H448.271z"/>
		<path d="M469.785,32.299c0-10.354,7.378-18.041,17.979-18.041c10.604,0,17.979,6.513,17.979,16.863
			c0,10.354-7.377,18.041-17.979,18.041C477.163,49.163,469.785,42.655,469.785,32.299z M492.166,34.098
			c0-10.604-1.178-17.11-4.712-17.11c-3.286,0-4.091,4.588-4.091,12.338c0,10.604,1.178,17.11,4.711,17.11
			C491.359,46.436,492.166,41.848,492.166,34.098z"/>
		<path d="M524.467,42.531c0,2.729,1.364,2.913,4.836,3.409v2.604H508.41V45.94c2.294-0.188,3.286-0.372,3.286-2.23V18.413h-4.402
			v-2.79l4.402-1.056v-0.495C511.696,4.216,518.701,0,527.071,0c7.129,0,10.292,2.418,10.292,6.389c0,1.798-0.992,3.349-2.418,4.026
			h-6.391c0.188-0.868,0.312-1.922,0.312-3.038c0-2.17-0.188-4.34-2.046-4.34c-1.736,0-2.356,1.362-2.356,3.721v8.121h7.068v3.534
			h-7.068L524.467,42.531L524.467,42.531z"/>
		<path d="M568.053,40.668c3.534,0,6.143-1.112,8.062-3.845l1.483,0.932c-2.046,7.997-7.312,11.407-14.507,11.407
			c-8.803,0-15.685-6.14-15.685-16.432c0-10.604,6.942-18.478,17.479-18.478c6.323,0,11.779,2.354,11.779,8.122
			c0,2.541-1.488,4.095-2.914,4.711h-6.386c0.186-1.484,0.248-2.665,0.248-3.72c0-3.722-0.992-6.14-3.722-6.14
			c-3.475,0-5.454,4.647-5.454,10.852C558.443,35.896,561.915,40.668,568.053,40.668z"/>
		<path d="M579.461,32.299c0-10.354,7.378-18.041,17.979-18.041c10.603,0,17.979,6.513,17.979,16.863
			c0,10.354-7.377,18.041-17.979,18.041C586.839,49.163,579.461,42.655,579.461,32.299z M601.842,34.098
			c0-10.604-1.178-17.11-4.712-17.11c-3.286,0-4.091,4.588-4.091,12.338c0,10.604,1.178,17.11,4.711,17.11
			C601.036,46.436,601.842,41.848,601.842,34.098z"/>
		<path d="M654.168,41.165c0,2.106,0.186,3.162,1.984,3.162h1.426v2.729l-13.949,2.105h-2.418l0.188-6.076
			c-2.108,2.854-5.396,6.076-11.16,6.076c-5.58,0-9.547-3.35-9.547-10.604V23.868c0-1.735-0.438-3.161-2.173-3.722l-0.932-0.312
			v-2.479l13.889-3.103h2.354l-0.372,8.187v15.003c0,2.854,1.116,4.466,3.906,4.466c1.55,0,2.479-0.188,4.027-0.684V23.868
			c0-1.735-0.436-3.161-2.172-3.722l-0.93-0.312v-2.479l13.887-3.103h2.356l-0.372,8.187L654.168,41.165L654.168,41.165z"/>
		<path d="M675.869,42.531c0,2.729,1.364,2.913,4.836,3.409v2.604h-20.893V45.94c2.293-0.188,3.281-0.372,3.281-2.23v-21.7
			l-3.281-2.104V17.98l13.82-3.723h2.48l-0.248,9.675c2.354-7.438,4.646-9.675,8.617-9.675c1.551,0,2.604,0.438,3.283,1.057v9.482
			h-1.608c-3.97,0-7.625,0.124-10.292,1.735L675.869,42.531L675.869,42.531z"/>
		<path d="M704.699,14.878h6.881v3.534h-6.881v20.521c0,2.666,1.054,3.844,3.162,3.844c1.483,0,2.914-0.558,4.34-1.55l0.992,1.55
			c-2.479,4.153-6.143,6.388-11.35,6.388c-5.947,0-10.104-2.978-10.104-10.416V18.413h-3.353v-2.294
			c5.271-1.86,10.105-5.52,13.577-9.854h2.729L704.699,14.878L704.699,14.878z"/>
		<path d="M726.212,32.299c0-10.354,7.379-18.041,17.979-18.041c10.602,0,17.979,6.513,17.979,16.863
			c0,10.354-7.377,18.041-17.979,18.041C733.591,49.163,726.212,42.655,726.212,32.299z M748.593,34.098
			c0-10.604-1.178-17.11-4.711-17.11c-3.287,0-4.092,4.588-4.092,12.338c0,10.604,1.178,17.11,4.711,17.11
			C747.789,46.436,748.593,41.848,748.593,34.098z"/>
		<path d="M780.896,42.531c0,2.729,1.36,2.913,4.836,3.409v2.604h-20.896V45.94c2.293-0.188,3.287-0.372,3.287-2.23V18.413h-4.402
			v-2.79l4.402-1.056v-0.495C768.125,4.216,775.13,0,783.5,0c7.131,0,10.291,2.418,10.291,6.389c0,1.798-0.99,3.349-2.418,4.026
			h-6.385c0.186-0.868,0.311-1.922,0.311-3.038c0-2.17-0.186-4.34-2.047-4.34c-1.736,0-2.355,1.362-2.355,3.721v8.121h7.068v3.534
			h-7.068V42.531L780.896,42.531z"/>
		<path d="M824.419,43.707c0,1.858,0.992,2.046,3.285,2.23v2.604h-19.342V45.94c2.293-0.188,3.278-0.372,3.278-2.23V6.573
			l-3.278-1.675V2.79L822.25,0h2.17L824.419,43.707L824.419,43.707z"/>
		<path d="M860.13,41.724c0,1.236,0.123,2.542,1.549,2.542c0.808,0,1.611-0.188,1.923-0.312l0.434,1.858
			c-2.17,1.98-4.896,3.35-8.617,3.35c-3.781,0-6.51-1.859-7.625-5.146c-1.736,2.665-4.588,4.896-9.176,4.896
			c-5.332,0-9.113-2.914-9.113-8.434c0-5.456,3.719-7.688,8.062-9.177l10.045-3.474v-6.816c0-2.479-0.621-4.154-2.666-4.154
			c-2.17,0-2.98,1.923-2.98,4.771c0,1.487,0.248,3.038,0.621,4.591l-7.689,0.988c-1.854-0.619-3.223-2.17-3.223-4.522
			c0-5.893,6.076-8.435,13.824-8.435c9.053,0,14.633,2.666,14.633,11.035L860.13,41.724L860.13,41.724z M847.607,42.157V30.689
			l-2.48,0.932c-1.984,0.743-3.348,1.733-3.348,5.396c0,3.101,1.053,5.456,4.028,5.456C846.49,42.467,846.986,42.344,847.607,42.157
			z"/>
		<path d="M910.102,21.389c0.309-0.809,0.495-1.488,0.495-1.983c0-1.238-1.055-1.675-3.409-1.923v-2.604h10.85v2.604
			c-2.109,0.685-2.605,1.116-3.162,2.479l-12.4,28.769h-4.215l-7.311-18.726l-8.81,18.725h-4.217l-13.328-28.769
			c-0.62-1.361-1.055-1.798-3.161-2.479v-2.604h19.721v2.604c-1.859,0.248-2.605,0.809-2.605,1.799c0,0.56,0.189,1.239,0.558,2.107
			l5.579,13.268l4.345-8.988l-2.23-5.703c-0.495-1.361-1.239-1.981-2.791-2.479v-2.605h19.593v2.604
			c-2.543,0.312-3.722,0.561-3.722,2.047c0,0.495,0.125,1.115,0.373,1.859l4.771,12.521L910.102,21.389z"/>
		<path d="M929.818,32.299c0-10.354,7.377-18.041,17.979-18.041c10.605,0,17.98,6.513,17.98,16.863
			c0,10.354-7.379,18.041-17.98,18.041C937.197,49.162,929.818,42.655,929.818,32.299z M952.199,34.098
			c0-10.604-1.178-17.11-4.711-17.11c-3.287,0-4.092,4.588-4.092,12.338c0,10.604,1.178,17.11,4.711,17.11
			C951.393,46.436,952.199,41.848,952.199,34.098z"/>
		<path d="M984.501,42.531c0,2.729,1.363,2.913,4.834,3.409v2.604h-20.896V45.94c2.298-0.188,3.281-0.372,3.281-2.23V18.413h-4.395
			v-2.79l4.395-1.056v-0.495C971.722,4.216,978.736,0,987.097,0c7.132,0,10.291,2.418,10.291,6.389c0,1.798-0.983,3.349-2.418,4.026
			h-6.385c0.188-0.868,0.312-1.922,0.312-3.038c0-2.17-0.188-4.34-2.048-4.34c-1.729,0-2.354,1.362-2.354,3.721v8.121h7.065v3.534
			H984.5L984.501,42.531L984.501,42.531z"/>
		<path d="M1039.183,41.724c0,1.236,0.125,2.542,1.552,2.542c0.805,0,1.61-0.188,1.922-0.312l0.434,1.858
			c-2.17,1.98-4.895,3.35-8.617,3.35c-3.774,0-6.51-1.859-7.627-5.146c-1.729,2.665-4.588,4.896-9.174,4.896
			c-5.332,0-9.115-2.914-9.115-8.434c0-5.456,3.729-7.688,8.062-9.177l10.043-3.474v-6.816c0-2.479-0.619-4.154-2.666-4.154
			c-2.17,0-2.977,1.923-2.977,4.771c0,1.487,0.248,3.038,0.618,4.591l-7.688,0.988c-1.859-0.619-3.23-2.17-3.23-4.522
			c0-5.893,6.076-8.435,13.826-8.435c9.054,0,14.631,2.666,14.631,11.035v16.436h0.005L1039.183,41.724L1039.183,41.724z
			 M1026.66,42.157V30.689l-2.48,0.932c-1.979,0.743-3.348,1.733-3.348,5.396c0,3.101,1.055,5.456,4.031,5.456
			C1025.544,42.467,1026.041,42.344,1026.66,42.157z"/>
		<path d="M1078.056,17.483c-2.106,0.685-2.541,1.116-3.161,2.479l-13.019,28.769h-3.658l-14.569-28.769
			c-0.683-1.361-1.054-1.798-3.162-2.479v-2.604h21.203v2.604c-3.285,0.437-4.029,0.868-4.029,2.17c0,0.561,0.125,0.868,0.496,1.736
			l6.199,13.145l5.643-13.145c0.371-0.868,0.496-1.181,0.496-1.736c0-1.302-0.744-1.733-4.031-2.17v-2.604h11.594L1078.056,17.483
			L1078.056,17.483z"/>
		<path d="M1108.001,28.147v1.551h-19.652c0,6.818,3.845,11.158,9.3,11.158c3.905,0,6.883-1.302,9.237-4.34l1.304,0.807
			c-1.736,7.191-6.636,11.843-14.757,11.843c-9.237,0-16.614-5.892-16.614-16.739c0-11.222,7.998-18.164,17.174-18.164
			C1103.291,14.258,1108.001,20.025,1108.001,28.147z M1088.412,26.658h8.742c0-6.139-0.992-9.673-3.97-9.673
			C1090.085,16.988,1088.66,20.83,1088.412,26.658z"/>
		<path d="M1126.541,42.531c0,2.729,1.363,2.913,4.836,3.409v2.604h-20.893V45.94c2.293-0.188,3.285-0.372,3.285-2.23v-21.7
			l-3.285-2.104V17.98l13.824-3.723h2.479l-0.248,9.675c2.354-7.438,4.646-9.675,8.617-9.675c1.551,0,2.604,0.438,3.285,1.057v9.482
			h-1.611c-3.967,0-7.625,0.124-10.291,1.735L1126.541,42.531L1126.541,42.531z"/>
		<path d="M1169.878,41.724c0,1.236,0.125,2.542,1.551,2.542c0.806,0,1.611-0.188,1.923-0.312l0.434,1.858
			c-2.17,1.98-4.898,3.35-8.617,3.35c-3.783,0-6.51-1.859-7.627-5.146c-1.734,2.665-4.588,4.896-9.174,4.896
			c-5.332,0-9.115-2.914-9.115-8.434c0-5.456,3.721-7.688,8.062-9.177l10.047-3.474v-6.816c0-2.479-0.619-4.154-2.666-4.154
			c-2.174,0-2.98,1.923-2.98,4.771c0,1.487,0.248,3.038,0.619,4.591l-7.688,0.988c-1.859-0.619-3.226-2.17-3.226-4.522
			c0-5.893,6.076-8.435,13.826-8.435c9.052,0,14.631,2.666,14.631,11.035V41.724L1169.878,41.724z M1157.355,42.157V30.689
			l-2.48,0.932c-1.982,0.743-3.348,1.733-3.348,5.396c0,3.101,1.055,5.456,4.03,5.456
			C1156.24,42.467,1156.736,42.344,1157.355,42.157z"/>
		<path d="M1182.9,35.896c-0.808,0.744-1.552,1.551-1.552,2.729c0,0.933,0.621,1.674,1.675,1.674h13.825
			c8.929,0,12.398,3.847,12.398,9.55c0,8.119-7.625,12.521-19.281,12.521c-10.166,0-16.49-2.604-16.49-7.503
			c0-3.036,3.101-4.341,5.703-4.587c-2.666-1.056-4.215-3.781-4.215-6.447c0-4.217,2.853-6.883,6.199-8.617
			c-3.48-1.609-6.019-4.399-6.019-8.986c0-7.562,6.515-11.969,15.496-11.969c2.541,0,4.4,0.372,6.021,0.809l11.344-0.246v4.463
			h-2.912l-3.535-0.124c2.295,1.552,3.783,3.905,3.783,7.007c0,6.941-6.635,10.786-15.252,10.786
			C1187.736,36.949,1185.193,36.64,1182.9,35.896z M1180.605,51.891c-0.248,0.312-0.31,0.989-0.31,1.674
			c0,3.598,4.029,5.644,9.857,5.644c5.393,0,10.41-1.179,10.41-4.959c0-1.609-0.988-2.354-2.979-2.354L1180.605,51.891
			L1180.605,51.891z M1193.688,25.853c0-4.588-1.056-8.807-3.597-8.807c-2.479,0-3.162,2.914-3.162,8.187
			c0,4.896,1.115,9.053,3.597,9.053C1193.068,34.283,1193.688,31.432,1193.688,25.853z"/>
		<path d="M1240.558,28.147v1.551h-19.651c0,6.818,3.844,11.158,9.299,11.158c3.906,0,6.881-1.302,9.238-4.34l1.301,0.807
			c-1.736,7.191-6.633,11.843-14.754,11.843c-9.238,0-16.615-5.892-16.615-16.739c0-11.222,7.996-18.164,17.172-18.164
			C1235.847,14.258,1240.558,20.025,1240.558,28.147z M1220.966,26.658h8.742c0-6.139-0.992-9.673-3.967-9.673
			C1222.64,16.988,1221.214,20.83,1220.966,26.658z"/>
		<path d="M1244.464,46.001l-0.371-8.369h3.162c1.115,4.959,4.463,8.741,9.236,8.741c2.791,0,5.02-1.304,5.02-3.904
			c0-3.036-2.418-3.969-6.385-5.146c-7.191-2.106-11.098-5.207-11.098-11.718c0-7.378,5.573-11.349,13.323-11.349
			c4.277,0,8.244,1.116,10.91,2.854v7.438h-2.914c-0.612-3.903-3.401-7.502-7.688-7.502c-2.48,0-4.215,1.305-4.215,3.534
			c0,2.479,1.797,3.408,5.58,4.647c7.748,2.542,11.899,5.084,11.899,12.213c0,7.502-5.641,11.72-14.317,11.72
			C1251.222,49.163,1247.255,47.922,1244.464,46.001z"/>
	</g>
</g>
</svg>
