<?xml version="1.0" encoding="utf-8"?>
<!-- Generator: Adobe Illustrator 16.0.0, SVG Export Plug-In . SVG Version: 6.00 Build 0)  -->
<!DOCTYPE svg PUBLIC "-//W3C//DTD SVG 1.1//EN" "http://www.w3.org/Graphics/SVG/1.1/DTD/svg11.dtd">
<svg version="1.1" id="Layer_1" xmlns="http://www.w3.org/2000/svg" xmlns:xlink="http://www.w3.org/1999/xlink" x="0px" y="0px"
	 width="1440px" height="62.641px" viewBox="0 0 1440 62.641" enable-background="new 0 0 1440 62.641" xml:space="preserve">
<g id="_x39_">
	<g>
		<path d="M230.885,40.668c3.534,0,6.138-1.111,8.06-3.845l1.488,0.932c-2.046,7.997-7.315,11.407-14.507,11.407
			c-8.803,0-15.685-6.139-15.685-16.431c0-10.604,6.944-18.479,17.483-18.479c6.323,0,11.779,2.355,11.779,8.122
			c0,2.541-1.488,4.095-2.914,4.711h-6.386c0.186-1.483,0.248-2.665,0.248-3.72c0-3.721-0.992-6.139-3.72-6.139
			c-3.472,0-5.456,4.646-5.456,10.851C221.275,35.896,224.747,40.668,230.885,40.668z"/>
		<path d="M245.456,6.572l-3.286-1.674V2.79L256.057,0h2.17v20.521c2.232-2.914,5.766-6.266,11.594-6.266
			c6.013,0,9.609,3.352,9.609,10.168v19.28c0,1.859,0.992,2.046,3.286,2.231v2.604h-19.157V45.94c2.294-0.188,3.1-0.372,3.1-2.231
			V25.542c0-2.294-0.744-3.845-3.844-3.845c-1.736,0-3.162,0.312-4.588,0.808v21.202c0,1.859,0.806,2.046,3.1,2.231v2.604h-19.158
			V45.94c2.294-0.188,3.286-0.372,3.286-2.231L245.456,6.572L245.456,6.572z"/>
		<path d="M314.646,41.724c0,1.235,0.124,2.542,1.55,2.542c0.806,0,1.612-0.188,1.922-0.312l0.434,1.859
			c-2.17,1.979-4.897,3.349-8.617,3.349c-3.782,0-6.51-1.859-7.626-5.146c-1.736,2.665-4.587,4.896-9.175,4.896
			c-5.332,0-9.113-2.914-9.113-8.433c0-5.456,3.72-7.688,8.06-9.178l10.043-3.474v-6.816c0-2.479-0.62-4.153-2.666-4.153
			c-2.17,0-2.976,1.922-2.976,4.771c0,1.487,0.248,3.038,0.62,4.591l-7.688,0.988c-1.86-0.619-3.224-2.17-3.224-4.521
			c0-5.894,6.075-8.436,13.825-8.436c9.051,0,14.631,2.666,14.631,11.035V41.724L314.646,41.724z M302.122,42.157V30.689
			l-2.479,0.931c-1.984,0.743-3.348,1.734-3.348,5.396c0,3.1,1.054,5.456,4.03,5.456C301.006,42.467,301.502,42.344,302.122,42.157z
			"/>
		<path d="M344.281,25.542c0-2.294-0.744-3.845-3.844-3.845c-1.736,0-3.162,0.312-4.588,0.808v21.202c0,1.859,0.806,2.046,3.1,2.231
			v2.604h-19.157V45.94c2.294-0.188,3.286-0.372,3.286-2.231v-21.7l-3.286-2.104V17.98l13.825-3.724h2.48l-0.248,6.266
			c2.232-2.914,5.766-6.266,11.593-6.266c6.014,0,9.61,3.352,9.61,10.168v19.28c0,1.859,0.992,2.046,3.286,2.231v2.604h-19.157v-2.6
			c2.293-0.188,3.1-0.372,3.1-2.231V25.542L344.281,25.542z"/>
		<path d="M370.073,35.896c-0.809,0.744-1.55,1.55-1.55,2.729c0,0.934,0.617,1.674,1.674,1.674h13.825
			c8.928,0,12.396,3.848,12.396,9.551c0,8.118-7.625,12.521-19.281,12.521c-10.167,0-16.489-2.604-16.489-7.503
			c0-3.036,3.1-4.34,5.705-4.587c-2.668-1.055-4.218-3.781-4.218-6.447c0-4.217,2.854-6.883,6.2-8.617
			c-3.472-1.608-6.014-4.398-6.014-8.985c0-7.562,6.51-11.97,15.499-11.97c2.542,0,4.399,0.372,6.014,0.81l11.346-0.247v4.463
			h-2.914l-3.531-0.124c2.294,1.552,3.779,3.906,3.779,7.007c0,6.942-6.634,10.786-15.251,10.786
			C374.909,36.949,372.367,36.64,370.073,35.896z M367.779,51.891c-0.248,0.312-0.312,0.988-0.312,1.674
			c0,3.597,4.03,5.643,9.857,5.643c5.394,0,10.415-1.179,10.415-4.959c0-1.608-0.992-2.354-2.979-2.354L367.779,51.891
			L367.779,51.891z M380.861,25.853c0-4.588-1.057-8.808-3.599-8.808c-2.479,0-3.162,2.914-3.162,8.188
			c0,4.896,1.116,9.052,3.599,9.052C380.241,34.283,380.861,31.432,380.861,25.853z"/>
		<path d="M427.732,28.147v1.55h-19.653c0,6.819,3.844,11.159,9.299,11.159c3.906,0,6.881-1.303,9.237-4.34l1.302,0.806
			c-1.736,7.192-6.634,11.843-14.755,11.843c-9.237,0-16.615-5.891-16.615-16.739c0-11.222,7.998-18.164,17.173-18.164
			C423.02,14.258,427.732,20.025,427.732,28.147z M408.141,26.658h8.741c0-6.138-0.992-9.672-3.968-9.672
			C409.815,16.987,408.389,20.83,408.141,26.658z"/>
		<path d="M441.868,32.299c0-10.354,7.378-18.041,17.979-18.041c10.604,0,17.979,6.514,17.979,16.863
			c0,10.354-7.377,18.041-17.979,18.041C449.246,49.163,441.868,42.654,441.868,32.299z M464.249,34.098
			c0-10.604-1.178-17.111-4.712-17.111c-3.286,0-4.091,4.588-4.091,12.338c0,10.604,1.178,17.111,4.711,17.111
			C463.442,46.436,464.249,41.848,464.249,34.098z"/>
		<path d="M496.551,42.53c0,2.729,1.364,2.914,4.836,3.41v2.604h-20.893V45.94c2.294-0.188,3.286-0.372,3.286-2.231V18.413h-4.402
			v-2.79l4.402-1.055v-0.496C483.78,4.216,490.785,0,499.155,0c7.129,0,10.292,2.418,10.292,6.39c0,1.798-0.992,3.348-2.418,4.025
			h-6.389c0.188-0.868,0.312-1.922,0.312-3.038c0-2.17-0.188-4.34-2.046-4.34c-1.736,0-2.356,1.363-2.356,3.721v8.121h7.068v3.534
			h-7.068V42.53L496.551,42.53z"/>
		<path d="M525.753,6.572l-3.286-1.674V2.79L536.354,0h2.175v20.521c2.229-2.914,5.766-6.266,11.593-6.266
			c6.014,0,9.605,3.352,9.605,10.168v19.28c0,1.859,0.992,2.046,3.286,2.231v2.604h-19.157V45.94
			c2.298-0.188,3.104-0.372,3.104-2.231V25.542c0-2.294-0.744-3.845-3.844-3.845c-1.736,0-3.162,0.312-4.588,0.808v21.202
			c0,1.859,0.806,2.046,3.1,2.231v2.604H522.47V45.94c2.294-0.188,3.286-0.372,3.286-2.231L525.753,6.572L525.753,6.572z"/>
		<path d="M595.936,28.147v1.55h-19.649c0,6.819,3.844,11.159,9.299,11.159c3.906,0,6.881-1.303,9.237-4.34l1.302,0.806
			c-1.736,7.192-6.634,11.843-14.755,11.843c-9.237,0-16.615-5.891-16.615-16.739c0-11.222,7.998-18.164,17.173-18.164
			C591.223,14.258,595.936,20.025,595.936,28.147z M576.344,26.658h8.741c0-6.138-0.992-9.672-3.968-9.672
			C578.018,16.987,576.592,20.83,576.344,26.658z"/>
		<path d="M628.793,41.724c0,1.235,0.124,2.542,1.55,2.542c0.811,0,1.612-0.188,1.922-0.312l0.438,1.859
			c-2.17,1.979-4.897,3.349-8.617,3.349c-3.782,0-6.51-1.859-7.626-5.146c-1.736,2.665-4.587,4.896-9.175,4.896
			c-5.332,0-9.113-2.914-9.113-8.433c0-5.456,3.721-7.688,8.062-9.178l10.043-3.474v-6.816c0-2.479-0.618-4.153-2.664-4.153
			c-2.172,0-2.979,1.922-2.979,4.771c0,1.487,0.248,3.038,0.62,4.591l-7.688,0.988c-1.858-0.619-3.227-2.17-3.227-4.521
			c0-5.894,6.076-8.436,13.826-8.436c9.051,0,14.631,2.666,14.631,11.035L628.793,41.724L628.793,41.724z M616.27,42.157V30.689
			l-2.479,0.931c-1.984,0.743-3.348,1.734-3.348,5.396c0,3.1,1.054,5.456,4.025,5.456C615.154,42.467,615.65,42.344,616.27,42.157z"
			/>
		<path d="M649.998,42.53c0,2.729,1.364,2.914,4.836,3.41v2.604h-20.895V45.94c2.295-0.188,3.282-0.372,3.282-2.231v-21.7
			l-3.282-2.104V17.98l13.821-3.724h2.48l-0.248,9.676c2.354-7.439,4.647-9.676,8.618-9.676c1.55,0,2.604,0.438,3.285,1.058v9.481
			h-1.611c-3.969,0-7.625,0.124-10.292,1.735L649.998,42.53L649.998,42.53z"/>
		<path d="M678.828,14.878h6.881v3.534h-6.881v20.521c0,2.666,1.055,3.844,3.162,3.844c1.486,0,2.914-0.559,4.34-1.55l0.992,1.55
			c-2.479,4.153-6.143,6.387-11.35,6.387c-5.947,0-10.103-2.977-10.103-10.416V18.413h-3.349v-2.294
			c5.271-1.86,10.104-5.519,13.573-9.854h2.73L678.828,14.878L678.828,14.878z"/>
		<path d="M700.341,32.299c0-10.354,7.379-18.041,17.98-18.041c10.6,0,17.979,6.514,17.979,16.863
			c0,10.354-7.377,18.041-17.979,18.041C707.72,49.163,700.341,42.654,700.341,32.299z M722.722,34.098
			c0-10.604-1.178-17.111-4.711-17.111c-3.287,0-4.092,4.588-4.092,12.338c0,10.604,1.178,17.111,4.711,17.111
			C721.917,46.436,722.722,41.848,722.722,34.098z"/>
		<path d="M755.025,42.53c0,2.729,1.362,2.914,4.836,3.41v2.604h-20.896V45.94c2.295-0.188,3.287-0.372,3.287-2.231V18.413h-4.401
			v-2.79l4.401-1.055v-0.496C742.253,4.216,749.257,0,757.628,0c7.129,0,10.291,2.418,10.291,6.39c0,1.798-0.992,3.348-2.418,4.025
			h-6.385c0.186-0.868,0.309-1.922,0.309-3.038c0-2.17-0.186-4.34-2.045-4.34c-1.735,0-2.354,1.363-2.354,3.721v8.121h7.065v3.534
			h-7.065V42.53L755.025,42.53z"/>
		<path d="M784.227,6.572l-3.283-1.674V2.79L794.83,0H797v20.521c2.232-2.914,5.766-6.266,11.594-6.266
			c6.019,0,9.609,3.352,9.609,10.168v19.28c0,1.859,0.992,2.046,3.287,2.231v2.604h-19.16V45.94c2.295-0.188,3.1-0.372,3.1-2.231
			V25.542c0-2.294-0.744-3.845-3.844-3.845c-1.736,0-3.162,0.312-4.588,0.808v21.202c0,1.859,0.807,2.046,3.1,2.231v2.604h-19.149
			V45.94c2.293-0.188,3.278-0.372,3.278-2.231V6.572L784.227,6.572z"/>
		<path d="M854.408,28.147v1.55h-19.652c0,6.819,3.844,11.159,9.299,11.159c3.906,0,6.89-1.303,9.238-4.34l1.303,0.806
			c-1.729,7.192-6.635,11.843-14.756,11.843c-9.238,0-16.615-5.891-16.615-16.739c0-11.222,7.998-18.164,17.181-18.164
			C849.697,14.258,854.408,20.025,854.408,28.147z M834.818,26.658h8.739c0-6.138-0.989-9.672-3.969-9.672
			C836.492,16.987,835.066,20.83,834.818,26.658z"/>
		<path d="M887.27,41.724c0,1.235,0.122,2.542,1.549,2.542c0.807,0,1.61-0.188,1.922-0.312l0.434,1.859
			c-2.17,1.979-4.895,3.349-8.617,3.349c-3.774,0-6.508-1.859-7.625-5.146c-1.729,2.665-4.588,4.896-9.176,4.896
			c-5.332,0-9.113-2.914-9.113-8.433c0-5.456,3.726-7.688,8.062-9.178l10.045-3.474v-6.816c0-2.479-0.621-4.153-2.666-4.153
			c-2.17,0-2.98,1.922-2.98,4.771c0,1.487,0.248,3.038,0.621,4.591l-7.688,0.988c-1.859-0.619-3.225-2.17-3.225-4.521
			c0-5.894,6.075-8.436,13.823-8.436c9.054,0,14.634,2.666,14.634,11.035V41.724L887.27,41.724z M874.746,42.157V30.689l-2.48,0.931
			c-1.979,0.743-3.348,1.734-3.348,5.396c0,3.1,1.053,5.456,4.029,5.456C873.628,42.467,874.125,42.344,874.746,42.157z"/>
		<path d="M908.472,42.53c0,2.729,1.365,2.914,4.836,3.41v2.604h-20.893V45.94c2.295-0.188,3.285-0.372,3.285-2.231v-21.7
			l-3.285-2.104V17.98l13.826-3.724h2.479l-0.248,9.676c2.357-7.439,4.65-9.676,8.617-9.676c1.551,0,2.605,0.438,3.287,1.058v9.481
			h-1.611c-3.969,0-7.627,0.124-10.293,1.735V42.53L908.472,42.53z"/>
		<path d="M937.302,14.878h6.884v3.534h-6.884v20.521c0,2.666,1.056,3.844,3.162,3.844c1.488,0,2.914-0.559,4.34-1.55l0.992,1.55
			c-2.479,4.153-6.139,6.387-11.346,6.387c-5.951,0-10.105-2.977-10.105-10.416V18.413h-3.348v-2.294
			c5.271-1.86,10.104-5.519,13.578-9.854h2.727V14.878z"/>
		<path d="M947.968,46.001l-0.373-8.369h3.162c1.115,4.959,4.465,8.741,9.238,8.741c2.789,0,5.02-1.303,5.02-3.904
			c0-3.035-2.418-3.969-6.387-5.146c-7.19-2.106-11.096-5.207-11.096-11.717c0-7.378,5.578-11.35,13.328-11.35
			c4.271,0,8.239,1.116,10.905,2.854v7.438h-2.908c-0.62-3.902-3.409-7.502-7.688-7.502c-2.479,0-4.217,1.306-4.217,3.534
			c0,2.479,1.799,3.408,5.58,4.648c7.75,2.542,11.897,5.084,11.897,12.213c0,7.502-5.643,11.719-14.315,11.719
			C954.727,49.163,950.757,47.922,947.968,46.001z"/>
		<path d="M989.013,32.299c0-10.354,7.377-18.041,17.979-18.041c10.602,0,17.979,6.514,17.979,16.863
			c0,10.354-7.377,18.041-17.979,18.041C996.39,49.162,989.013,42.654,989.013,32.299z M1011.395,34.098
			c0-10.604-1.181-17.111-4.714-17.111c-3.284,0-4.092,4.588-4.092,12.338c0,10.604,1.178,17.111,4.713,17.111
			C1010.587,46.436,1011.395,41.848,1011.395,34.098z"/>
		<path d="M1043.695,42.53c0,2.729,1.362,2.914,4.836,3.41v2.604h-20.894V45.94c2.293-0.188,3.285-0.372,3.285-2.231V18.413h-4.401
			v-2.79l4.401-1.055v-0.496c0-9.856,7.006-14.072,15.375-14.072c7.131,0,10.291,2.418,10.291,6.39c0,1.798-0.99,3.348-2.418,4.025
			h-6.385c0.186-0.868,0.311-1.922,0.311-3.038c0-2.17-0.186-4.34-2.047-4.34c-1.735,0-2.354,1.363-2.354,3.721v8.121h7.067v3.534
			h-7.067V42.53L1043.695,42.53z"/>
		<path d="M1071.16,22.008l-3.285-2.104V17.98l13.824-3.724h2.479l-0.248,6.142c1.611-2.729,5.021-6.142,10.416-6.142
			c7.191,0,12.584,4.896,12.584,15.312c0,13.02-7.873,19.592-17.979,19.592c-2.23,0-4.097-0.372-5.021-1.055v8.432
			c0,2.17,1.115,2.231,4.588,2.542v2.604h-20.645V59.08c2.293-0.187,3.285-0.372,3.285-2.229L1071.16,22.008L1071.16,22.008z
			 M1093.914,33.23c0-8.436-2.978-11.531-7.131-11.531c-0.992,0-1.859,0.124-2.853,0.56v17.549c0,3.653,0.744,6.195,3.781,6.195
			C1091.867,46.001,1093.914,40.421,1093.914,33.23z"/>
		<path d="M1139.607,41.724c0,1.235,0.123,2.542,1.549,2.542c0.807,0,1.61-0.188,1.922-0.312l0.434,1.859
			c-2.17,1.979-4.895,3.349-8.617,3.349c-3.772,0-6.51-1.859-7.625-5.146c-1.729,2.665-4.588,4.896-9.176,4.896
			c-5.332,0-9.104-2.914-9.104-8.433c0-5.456,3.719-7.688,8.059-9.178l10.045-3.474v-6.816c0-2.479-0.621-4.153-2.666-4.153
			c-2.17,0-2.977,1.922-2.977,4.771c0,1.487,0.248,3.038,0.612,4.591l-7.688,0.988c-1.859-0.619-3.223-2.17-3.223-4.521
			c0-5.894,6.073-8.436,13.821-8.436c9.056,0,14.634,2.666,14.634,11.035V41.724L1139.607,41.724z M1127.083,42.157V30.689
			l-2.479,0.931c-1.984,0.743-3.349,1.734-3.349,5.396c0,3.1,1.053,5.456,4.029,5.456
			C1125.966,42.467,1126.462,42.344,1127.083,42.157z"/>
		<path d="M1160.562,43.707c0,1.859,0.991,2.046,3.286,2.231v2.604h-19.344V45.94c2.295-0.188,3.285-0.372,3.285-2.231V6.572
			l-3.285-1.674V2.79L1158.392,0h2.171V43.707z"/>
		<path d="M1210.16,25.357c0-2.294-0.744-3.721-3.348-3.721c-1.611,0-2.853,0.435-4.216,0.931v21.142
			c0,1.859,0.558,2.046,2.853,2.231v2.604h-18.475V45.94c2.293-0.188,2.852-0.372,2.852-2.231V25.357
			c0-2.294-0.744-3.721-3.348-3.721c-1.613,0-2.853,0.369-4.218,0.865v21.202c0,1.859,0.56,2.046,2.853,2.231v2.604h-18.908v-2.6
			c2.295-0.188,3.285-0.372,3.285-2.231v-21.7l-3.285-2.104V17.98l13.826-3.724h2.479l-0.248,6.39
			c2.175-3.41,5.646-6.39,11.283-6.39c4.836,0,7.998,1.86,8.81,6.514c2.104-3.352,5.946-6.514,11.401-6.514
			c5.771,0,9.181,3.286,9.181,9.732v19.716c0,1.859,0.987,2.046,3.282,2.231v2.604h-18.905v-2.6
			c2.295-0.188,2.854-0.372,2.854-2.231V25.357H1210.16z"/>
	</g>
</g>
</svg>
